<svg xmlns="http://www.w3.org/2000/svg" width="764" height="541" fill="black"><rect width="100%" height="100%" fill="white" /><line x1="65" y1="492" x2="665" y2="492" stroke="black" stroke-width="1" /><line x1="65" y1="42" x2="65" y2="492" stroke="black" stroke-width="1" /><line x1="165" y1="42" x2="165" y2="492" stroke="#ccc" stroke-width="1" /><line x1="265" y1="42" x2="265" y2="492" stroke="#ccc" stroke-width="1" /><line x1="365" y1="42" x2="365" y2="492" stroke="#ccc" stroke-width="1" /><line x1="465" y1="42" x2="465" y2="492" stroke="#ccc" stroke-width="1" /><line x1="565" y1="42" x2="565" y2="492" stroke="#ccc" stroke-width="1" /><line x1="665" y1="42" x2="665" y2="492" stroke="#ccc" stroke-width="1" /><line x1="65" y1="417" x2="665" y2="417" stroke="#ccc" stroke-width="1" /><line x1="65" y1="342" x2="665" y2="342" stroke="#ccc" stroke-width="1" /><line x1="65" y1="267" x2="665" y2="267" stroke="#ccc" stroke-width="1" /><line x1="65" y1="192" x2="665" y2="192" stroke="#ccc" stroke-width="1" /><line x1="65" y1="117" x2="665" y2="117" stroke="#ccc" stroke-width="1" /><line x1="65" y1="42" x2="665" y2="42" stroke="#ccc" stroke-width="1" /><line x1="65" y1="492" x2="65" y2="497" stroke="black" stroke-width="1" /><text x="65" y="507" font-size="10" text-anchor="middle">0</text><line x1="165" y1="492" x2="165" y2="497" stroke="black" stroke-width="1" /><text x="165" y="507" font-size="10" text-anchor="middle">5</text><line x1="265" y1="492" x2="265" y2="497" stroke="black" stroke-width="1" /><text x="265" y="507" font-size="10" text-anchor="middle">10</text><line x1="365" y1="492" x2="365" y2="497" stroke="black" stroke-width="1" /><text x="365" y="507" font-size="10" text-anchor="middle">15</text><line x1="465" y1="492" x2="465" y2="497" stroke="black" stroke-width="1" /><text x="465" y="507" font-size="10" text-anchor="middle">20</text><line x1="565" y1="492" x2="565" y2="497" stroke="black" stroke-width="1" /><text x="565" y="507" font-size="10" text-anchor="middle">25</text><line x1="665" y1="492" x2="665" y2="497" stroke="black" stroke-width="1" /><text x="665" y="507" font-size="10" text-anchor="middle">30</text><line x1="60" y1="492" x2="65" y2="492" stroke="black" stroke-width="1" /><text x="57" y="495.5" font-size="10" text-anchor="end">0</text><line x1="60" y1="417" x2="65" y2="417" stroke="black" stroke-width="1" /><text x="57" y="420.5" font-size="10" text-anchor="end">5</text><line x1="60" y1="342" x2="65" y2="342" stroke="black" stroke-width="1" /><text x="57" y="345.5" font-size="10" text-anchor="end">10</text><line x1="60" y1="267" x2="65" y2="267" stroke="black" stroke-width="1" /><text x="57" y="270.5" font-size="10" text-anchor="end">15</text><line x1="60" y1="192" x2="65" y2="192" stroke="black" stroke-width="1" /><text x="57" y="195.5" font-size="10" text-anchor="end">20</text><line x1="60" y1="117" x2="65" y2="117" stroke="black" stroke-width="1" /><text x="57" y="120.5" font-size="10" text-anchor="end">25</text><line x1="60" y1="42" x2="65" y2="42" stroke="black" stroke-width="1" /><text x="57" y="45.5" font-size="10" text-anchor="end">30</text><text x="382" y="534" font-size="14" text-anchor="middle">X</text><text x="14" y="270.5" font-size="14" text-anchor="middle" transform="rotate(-90,14,270.5)">Y</text><text x="382" y="21" font-size="16" text-anchor="middle">2D Histogram — Viridis</text><rect x="385" y="432" width="20" height="15" fill="rgb(69,4,88)" /><rect x="305" y="417" width="20" height="15" fill="rgb(69,4,88)" /><rect x="365" y="417" width="20" height="15" fill="rgb(69,4,88)" /><rect x="405" y="417" width="20" height="15" fill="rgb(69,4,88)" /><rect x="345" y="402" width="20" height="15" fill="rgb(69,4,88)" /><rect x="365" y="402" width="20" height="15" fill="rgb(69,4,88)" /><rect x="405" y="402" width="20" height="15" fill="rgb(69,4,88)" /><rect x="245" y="387" width="20" height="15" fill="rgb(69,4,88)" /><rect x="325" y="387" width="20" height="15" fill="rgb(70,13,96)" /><rect x="345" y="387" width="20" height="15" fill="rgb(69,8,92)" /><rect x="365" y="387" width="20" height="15" fill="rgb(71,16,99)" /><rect x="385" y="387" width="20" height="15" fill="rgb(69,8,92)" /><rect x="405" y="387" width="20" height="15" fill="rgb(69,4,88)" /><rect x="445" y="387" width="20" height="15" fill="rgb(69,4,88)" /><rect x="485" y="387" width="19.999999999999943" height="15" fill="rgb(69,4,88)" /><rect x="245" y="372" width="20" height="15" fill="rgb(69,4,88)" /><rect x="265" y="372" width="20" height="15" fill="rgb(69,8,92)" /><rect x="305" y="372" width="20" height="15" fill="rgb(69,4,88)" /><rect x="325" y="372" width="20" height="15" fill="rgb(71,16,99)" /><rect x="345" y="372" width="20" height="15" fill="rgb(70,13,96)" /><rect x="365" y="372" width="20" height="15" fill="rgb(70,13,96)" /><rect x="385" y="372" width="20" height="15" fill="rgb(72,24,106)" /><rect x="425" y="372" width="20" height="15" fill="rgb(69,8,92)" /><rect x="445" y="372" width="20" height="15" fill="rgb(69,4,88)" /><rect x="465" y="372" width="20" height="15" fill="rgb(69,4,88)" /><rect x="525" y="372" width="20" height="15" fill="rgb(69,4,88)" /><rect x="205" y="357" width="20" height="15" fill="rgb(69,4,88)" /><rect x="225" y="357" width="20" height="15" fill="rgb(69,4,88)" /><rect x="245" y="357" width="20" height="15" fill="rgb(69,8,92)" /><rect x="265" y="357" width="20" height="15" fill="rgb(70,13,96)" /><rect x="285" y="357" width="20" height="15" fill="rgb(72,24,106)" /><rect x="305" y="357" width="20" height="15" fill="rgb(71,27,109)" /><rect x="325" y="357" width="20" height="15" fill="rgb(72,24,106)" /><rect x="345" y="357" width="20" height="15" fill="rgb(72,24,106)" /><rect x="365" y="357" width="20" height="15" fill="rgb(71,41,121)" /><rect x="385" y="357" width="20" height="15" fill="rgb(72,38,119)" /><rect x="405" y="357" width="20" height="15" fill="rgb(71,41,121)" /><rect x="425" y="357" width="20" height="15" fill="rgb(72,24,106)" /><rect x="465" y="357" width="20" height="15" fill="rgb(69,4,88)" /><rect x="245" y="342" width="20" height="15" fill="rgb(69,4,88)" /><rect x="265" y="342" width="20" height="15" fill="rgb(70,13,96)" /><rect x="285" y="342" width="20" height="15" fill="rgb(71,27,109)" /><rect x="305" y="342" width="20" height="15" fill="rgb(72,31,112)" /><rect x="325" y="342" width="20" height="15" fill="rgb(64,68,135)" /><rect x="345" y="342" width="20" height="15" fill="rgb(66,62,132)" /><rect x="365" y="342" width="20" height="15" fill="rgb(69,51,127)" /><rect x="385" y="342" width="20" height="15" fill="rgb(66,62,132)" /><rect x="405" y="342" width="20" height="15" fill="rgb(66,62,132)" /><rect x="425" y="342" width="20" height="15" fill="rgb(72,35,116)" /><rect x="445" y="342" width="20" height="15" fill="rgb(71,27,109)" /><rect x="465" y="342" width="20" height="15" fill="rgb(69,8,92)" /><rect x="485" y="342" width="19.999999999999943" height="15" fill="rgb(69,4,88)" /><rect x="504.99999999999994" y="342" width="20.000000000000057" height="15" fill="rgb(69,8,92)" /><rect x="165" y="327" width="20" height="15" fill="rgb(69,8,92)" /><rect x="205" y="327" width="20" height="15" fill="rgb(69,4,88)" /><rect x="225" y="327" width="20" height="15" fill="rgb(71,16,99)" /><rect x="245" y="327" width="20" height="15" fill="rgb(72,24,106)" /><rect x="265" y="327" width="20" height="15" fill="rgb(71,21,103)" /><rect x="285" y="327" width="20" height="15" fill="rgb(66,62,132)" /><rect x="305" y="327" width="20" height="15" fill="rgb(63,71,136)" /><rect x="325" y="327" width="20" height="15" fill="rgb(52,94,141)" /><rect x="345" y="327" width="20" height="15" fill="rgb(48,103,142)" /><rect x="365" y="327" width="20" height="15" fill="rgb(60,77,138)" /><rect x="385" y="327" width="20" height="15" fill="rgb(55,89,140)" /><rect x="405" y="327" width="20" height="15" fill="rgb(68,55,129)" /><rect x="425" y="327" width="20" height="15" fill="rgb(72,38,119)" /><rect x="445" y="327" width="20" height="15" fill="rgb(72,35,116)" /><rect x="465" y="327" width="20" height="15" fill="rgb(71,27,109)" /><rect x="485" y="327" width="19.999999999999943" height="15" fill="rgb(70,13,96)" /><rect x="504.99999999999994" y="327" width="20.000000000000057" height="15" fill="rgb(70,13,96)" /><rect x="525" y="327" width="20" height="15" fill="rgb(69,4,88)" /><rect x="205" y="312" width="20" height="15" fill="rgb(69,4,88)" /><rect x="225" y="312" width="20" height="15" fill="rgb(69,8,92)" /><rect x="245" y="312" width="20" height="15" fill="rgb(72,38,119)" /><rect x="265" y="312" width="20" height="15" fill="rgb(64,68,135)" /><rect x="285" y="312" width="20" height="15" fill="rgb(70,48,125)" /><rect x="305" y="312" width="20" height="15" fill="rgb(44,113,141)" /><rect x="325" y="312" width="20" height="15" fill="rgb(31,151,138)" /><rect x="345" y="312" width="20" height="15" fill="rgb(31,161,135)" /><rect x="365" y="312" width="20" height="15" fill="rgb(41,121,142)" /><rect x="385" y="312" width="20" height="15" fill="rgb(48,103,142)" /><rect x="405" y="312" width="20" height="15" fill="rgb(58,83,139)" /><rect x="425" y="312" width="20" height="15" fill="rgb(58,83,139)" /><rect x="445" y="312" width="20" height="15" fill="rgb(71,27,109)" /><rect x="465" y="312" width="20" height="15" fill="rgb(72,24,106)" /><rect x="485" y="312" width="19.999999999999943" height="15" fill="rgb(71,21,103)" /><rect x="504.99999999999994" y="312" width="20.000000000000057" height="15" fill="rgb(69,8,92)" /><rect x="525" y="312" width="20" height="15" fill="rgb(69,8,92)" /><rect x="545" y="312" width="20" height="15" fill="rgb(69,4,88)" /><rect x="185" y="297" width="20" height="15" fill="rgb(70,13,96)" /><rect x="205" y="297" width="20" height="15" fill="rgb(71,21,103)" /><rect x="225" y="297" width="20" height="15" fill="rgb(71,16,99)" /><rect x="245" y="297" width="20" height="15" fill="rgb(71,27,109)" /><rect x="265" y="297" width="20" height="15" fill="rgb(67,58,131)" /><rect x="285" y="297" width="20" height="15" fill="rgb(47,105,142)" /><rect x="305" y="297" width="20" height="15" fill="rgb(31,151,138)" /><rect x="325" y="297" width="20" height="15" fill="rgb(84,197,103)" /><rect x="345" y="297" width="20" height="15" fill="rgb(133,212,73)" /><rect x="365" y="297" width="20" height="15" fill="rgb(31,148,139)" /><rect x="385" y="297" width="20" height="15" fill="rgb(32,164,133)" /><rect x="405" y="297" width="20" height="15" fill="rgb(31,148,139)" /><rect x="425" y="297" width="20" height="15" fill="rgb(42,118,142)" /><rect x="445" y="297" width="20" height="15" fill="rgb(64,68,135)" /><rect x="465" y="297" width="20" height="15" fill="rgb(71,21,103)" /><rect x="485" y="297" width="19.999999999999943" height="15" fill="rgb(71,16,99)" /><rect x="504.99999999999994" y="297" width="20.000000000000057" height="15" fill="rgb(69,4,88)" /><rect x="525" y="297" width="20" height="15" fill="rgb(69,4,88)" /><rect x="545" y="297" width="20" height="15" fill="rgb(69,4,88)" /><rect x="185" y="282" width="20" height="15" fill="rgb(69,8,92)" /><rect x="205" y="282" width="20" height="15" fill="rgb(70,13,96)" /><rect x="225" y="282" width="20" height="15" fill="rgb(70,13,96)" /><rect x="245" y="282" width="20" height="15" fill="rgb(71,41,121)" /><rect x="265" y="282" width="20" height="15" fill="rgb(55,89,140)" /><rect x="285" y="282" width="20" height="15" fill="rgb(50,100,141)" /><rect x="305" y="282" width="20" height="15" fill="rgb(31,161,135)" /><rect x="325" y="282" width="20" height="15" fill="rgb(68,191,111)" /><rect x="345" y="282" width="20" height="15" fill="rgb(101,203,93)" /><rect x="365" y="282" width="20" height="15" fill="rgb(154,216,60)" /><rect x="385" y="282" width="20" height="15" fill="rgb(35,169,130)" /><rect x="405" y="282" width="20" height="15" fill="rgb(58,186,117)" /><rect x="425" y="282" width="20" height="15" fill="rgb(41,121,142)" /><rect x="445" y="282" width="20" height="15" fill="rgb(51,97,141)" /><rect x="465" y="282" width="20" height="15" fill="rgb(63,71,136)" /><rect x="485" y="282" width="19.999999999999943" height="15" fill="rgb(72,31,112)" /><rect x="525" y="282" width="20" height="15" fill="rgb(69,4,88)" /><rect x="565" y="282" width="20" height="15" fill="rgb(69,4,88)" /><rect x="185" y="267" width="20" height="15" fill="rgb(70,13,96)" /><rect x="225" y="267" width="20" height="15" fill="rgb(70,45,123)" /><rect x="245" y="267" width="20" height="15" fill="rgb(72,38,119)" /><rect x="265" y="267" width="20" height="15" fill="rgb(58,83,139)" /><rect x="285" y="267" width="20" height="15" fill="rgb(37,130,142)" /><rect x="305" y="267" width="20" height="15" fill="rgb(68,191,111)" /><rect x="325" y="267" width="20" height="15" fill="rgb(190,222,37)" /><rect x="345" y="267" width="20" height="15" fill="rgb(161,218,55)" /><rect x="365" y="267" width="20" height="15" fill="rgb(246,230,32)" /><rect x="385" y="267" width="20" height="15" fill="rgb(154,216,60)" /><rect x="405" y="267" width="20" height="15" fill="rgb(32,164,133)" /><rect x="425" y="267" width="20" height="15" fill="rgb(42,118,142)" /><rect x="445" y="267" width="20" height="15" fill="rgb(48,103,142)" /><rect x="465" y="267" width="20" height="15" fill="rgb(68,55,129)" /><rect x="485" y="267" width="19.999999999999943" height="15" fill="rgb(71,21,103)" /><rect x="504.99999999999994" y="267" width="20.000000000000057" height="15" fill="rgb(69,8,92)" /><rect x="525" y="267" width="20" height="15" fill="rgb(69,8,92)" /><rect x="185" y="252" width="20" height="15" fill="rgb(69,4,88)" /><rect x="205" y="252" width="20" height="15" fill="rgb(69,8,92)" /><rect x="225" y="252" width="20" height="15" fill="rgb(71,27,109)" /><rect x="245" y="252" width="20" height="15" fill="rgb(59,80,138)" /><rect x="265" y="252" width="20" height="15" fill="rgb(59,80,138)" /><rect x="285" y="252" width="20" height="15" fill="rgb(31,146,140)" /><rect x="305" y="252" width="20" height="15" fill="rgb(68,191,111)" /><rect x="325" y="252" width="20" height="15" fill="rgb(133,212,73)" /><rect x="345" y="252" width="20" height="15" fill="rgb(84,197,103)" /><rect x="365" y="252" width="20" height="15" fill="rgb(253,231,37)" /><rect x="385" y="252" width="20" height="15" fill="rgb(161,218,55)" /><rect x="405" y="252" width="20" height="15" fill="rgb(46,179,124)" /><rect x="425" y="252" width="20" height="15" fill="rgb(39,126,142)" /><rect x="445" y="252" width="20" height="15" fill="rgb(56,85,139)" /><rect x="465" y="252" width="20" height="15" fill="rgb(65,64,134)" /><rect x="485" y="252" width="19.999999999999943" height="15" fill="rgb(70,45,123)" /><rect x="504.99999999999994" y="252" width="20.000000000000057" height="15" fill="rgb(70,13,96)" /><rect x="525" y="252" width="20" height="15" fill="rgb(69,4,88)" /><rect x="545" y="252" width="20" height="15" fill="rgb(69,4,88)" /><rect x="585" y="252" width="20" height="15" fill="rgb(69,4,88)" /><rect x="105" y="237" width="20" height="15" fill="rgb(69,4,88)" /><rect x="185" y="237" width="20" height="15" fill="rgb(69,4,88)" /><rect x="205" y="237" width="20" height="15" fill="rgb(71,16,99)" /><rect x="225" y="237" width="20" height="15" fill="rgb(72,35,116)" /><rect x="245" y="237" width="20" height="15" fill="rgb(72,35,116)" /><rect x="265" y="237" width="20" height="15" fill="rgb(48,103,142)" /><rect x="285" y="237" width="20" height="15" fill="rgb(31,148,139)" /><rect x="305" y="237" width="20" height="15" fill="rgb(31,151,138)" /><rect x="325" y="237" width="20" height="15" fill="rgb(54,183,120)" /><rect x="345" y="237" width="20" height="15" fill="rgb(219,226,24)" /><rect x="365" y="237" width="20" height="15" fill="rgb(54,183,120)" /><rect x="385" y="237" width="20" height="15" fill="rgb(84,197,103)" /><rect x="405" y="237" width="20" height="15" fill="rgb(50,181,121)" /><rect x="425" y="237" width="20" height="15" fill="rgb(30,157,136)" /><rect x="445" y="237" width="20" height="15" fill="rgb(56,85,139)" /><rect x="465" y="237" width="20" height="15" fill="rgb(63,71,136)" /><rect x="485" y="237" width="19.999999999999943" height="15" fill="rgb(71,27,109)" /><rect x="504.99999999999994" y="237" width="20.000000000000057" height="15" fill="rgb(70,13,96)" /><rect x="525" y="237" width="20" height="15" fill="rgb(69,4,88)" /><rect x="545" y="237" width="20" height="15" fill="rgb(69,4,88)" /><rect x="185" y="222" width="20" height="15" fill="rgb(69,4,88)" /><rect x="205" y="222" width="20" height="15" fill="rgb(70,13,96)" /><rect x="225" y="222" width="20" height="15" fill="rgb(71,16,99)" /><rect x="245" y="222" width="20" height="15" fill="rgb(70,45,123)" /><rect x="265" y="222" width="20" height="15" fill="rgb(65,64,134)" /><rect x="285" y="222" width="20" height="15" fill="rgb(45,111,142)" /><rect x="305" y="222" width="20" height="15" fill="rgb(39,126,142)" /><rect x="325" y="222" width="20" height="15" fill="rgb(36,133,142)" /><rect x="345" y="222" width="20" height="15" fill="rgb(63,188,114)" /><rect x="365" y="222" width="20" height="15" fill="rgb(120,208,82)" /><rect x="385" y="222" width="20" height="15" fill="rgb(34,139,141)" /><rect x="405" y="222" width="20" height="15" fill="rgb(40,174,127)" /><rect x="425" y="222" width="20" height="15" fill="rgb(50,100,141)" /><rect x="445" y="222" width="20" height="15" fill="rgb(52,94,141)" /><rect x="465" y="222" width="20" height="15" fill="rgb(72,31,112)" /><rect x="485" y="222" width="19.999999999999943" height="15" fill="rgb(71,16,99)" /><rect x="504.99999999999994" y="222" width="20.000000000000057" height="15" fill="rgb(70,13,96)" /><rect x="525" y="222" width="20" height="15" fill="rgb(70,13,96)" /><rect x="545" y="222" width="20" height="15" fill="rgb(69,4,88)" /><rect x="185" y="207" width="20" height="15" fill="rgb(69,4,88)" /><rect x="205" y="207" width="20" height="15" fill="rgb(69,4,88)" /><rect x="225" y="207" width="20" height="15" fill="rgb(71,21,103)" /><rect x="245" y="207" width="20" height="15" fill="rgb(72,31,112)" /><rect x="265" y="207" width="20" height="15" fill="rgb(71,41,121)" /><rect x="285" y="207" width="20" height="15" fill="rgb(60,77,138)" /><rect x="305" y="207" width="20" height="15" fill="rgb(58,83,139)" /><rect x="325" y="207" width="20" height="15" fill="rgb(37,130,142)" /><rect x="345" y="207" width="20" height="15" fill="rgb(31,148,139)" /><rect x="365" y="207" width="20" height="15" fill="rgb(36,133,142)" /><rect x="385" y="207" width="20" height="15" fill="rgb(52,94,141)" /><rect x="405" y="207" width="20" height="15" fill="rgb(51,97,141)" /><rect x="425" y="207" width="20" height="15" fill="rgb(55,89,140)" /><rect x="445" y="207" width="20" height="15" fill="rgb(70,48,125)" /><rect x="465" y="207" width="20" height="15" fill="rgb(72,35,116)" /><rect x="485" y="207" width="19.999999999999943" height="15" fill="rgb(70,13,96)" /><rect x="504.99999999999994" y="207" width="20.000000000000057" height="15" fill="rgb(69,8,92)" /><rect x="545" y="207" width="20" height="15" fill="rgb(69,8,92)" /><rect x="225" y="192" width="20" height="15" fill="rgb(69,4,88)" /><rect x="245" y="192" width="20" height="15" fill="rgb(71,27,109)" /><rect x="265" y="192" width="20" height="15" fill="rgb(72,31,112)" /><rect x="285" y="192" width="20" height="15" fill="rgb(65,64,134)" /><rect x="305" y="192" width="20" height="15" fill="rgb(59,80,138)" /><rect x="325" y="192" width="20" height="15" fill="rgb(58,83,139)" /><rect x="345" y="192" width="20" height="15" fill="rgb(55,89,140)" /><rect x="365" y="192" width="20" height="15" fill="rgb(58,83,139)" /><rect x="385" y="192" width="20" height="15" fill="rgb(58,83,139)" /><rect x="405" y="192" width="20" height="15" fill="rgb(64,68,135)" /><rect x="425" y="192" width="20" height="15" fill="rgb(63,71,136)" /><rect x="445" y="192" width="20" height="15" fill="rgb(72,24,106)" /><rect x="465" y="192" width="20" height="15" fill="rgb(70,13,96)" /><rect x="485" y="192" width="19.999999999999943" height="15" fill="rgb(71,21,103)" /><rect x="504.99999999999994" y="192" width="20.000000000000057" height="15" fill="rgb(71,16,99)" /><rect x="205" y="177" width="20" height="15" fill="rgb(69,8,92)" /><rect x="225" y="177" width="20" height="15" fill="rgb(69,4,88)" /><rect x="245" y="177" width="20" height="15" fill="rgb(70,13,96)" /><rect x="265" y="177" width="20" height="15" fill="rgb(72,31,112)" /><rect x="285" y="177" width="20" height="15" fill="rgb(71,27,109)" /><rect x="305" y="177" width="20" height="15" fill="rgb(70,48,125)" /><rect x="325" y="177" width="20" height="15" fill="rgb(67,58,131)" /><rect x="345" y="177" width="20" height="15" fill="rgb(66,62,132)" /><rect x="365" y="177" width="20" height="15" fill="rgb(63,71,136)" /><rect x="385" y="177" width="20" height="15" fill="rgb(63,71,136)" /><rect x="405" y="177" width="20" height="15" fill="rgb(72,31,112)" /><rect x="425" y="177" width="20" height="15" fill="rgb(65,64,134)" /><rect x="445" y="177" width="20" height="15" fill="rgb(70,13,96)" /><rect x="465" y="177" width="20" height="15" fill="rgb(69,4,88)" /><rect x="504.99999999999994" y="177" width="20.000000000000057" height="15" fill="rgb(69,4,88)" /><rect x="225" y="162" width="20" height="15" fill="rgb(69,4,88)" /><rect x="245" y="162" width="20" height="15" fill="rgb(69,8,92)" /><rect x="265" y="162" width="20" height="15" fill="rgb(71,21,103)" /><rect x="285" y="162" width="20" height="15" fill="rgb(72,31,112)" /><rect x="305" y="162" width="20" height="15" fill="rgb(72,24,106)" /><rect x="325" y="162" width="20" height="15" fill="rgb(72,38,119)" /><rect x="345" y="162" width="20" height="15" fill="rgb(69,51,127)" /><rect x="365" y="162" width="20" height="15" fill="rgb(71,21,103)" /><rect x="385" y="162" width="20" height="15" fill="rgb(71,21,103)" /><rect x="405" y="162" width="20" height="15" fill="rgb(71,27,109)" /><rect x="425" y="162" width="20" height="15" fill="rgb(71,21,103)" /><rect x="445" y="162" width="20" height="15" fill="rgb(69,4,88)" /><rect x="565" y="162" width="20" height="15" fill="rgb(69,4,88)" /><rect x="245" y="147" width="20" height="15" fill="rgb(69,4,88)" /><rect x="265" y="147" width="20" height="15" fill="rgb(70,13,96)" /><rect x="285" y="147" width="20" height="15" fill="rgb(69,8,92)" /><rect x="305" y="147" width="20" height="15" fill="rgb(69,8,92)" /><rect x="325" y="147" width="20" height="15" fill="rgb(69,8,92)" /><rect x="345" y="147" width="20" height="15" fill="rgb(70,13,96)" /><rect x="365" y="147" width="20" height="15" fill="rgb(71,21,103)" /><rect x="385" y="147" width="20" height="15" fill="rgb(72,31,112)" /><rect x="405" y="147" width="20" height="15" fill="rgb(70,13,96)" /><rect x="425" y="147" width="20" height="15" fill="rgb(69,8,92)" /><rect x="445" y="147" width="20" height="15" fill="rgb(69,4,88)" /><rect x="465" y="147" width="20" height="15" fill="rgb(69,8,92)" /><rect x="485" y="147" width="19.999999999999943" height="15" fill="rgb(69,4,88)" /><rect x="245" y="132" width="20" height="15" fill="rgb(69,4,88)" /><rect x="305" y="132" width="20" height="15" fill="rgb(69,4,88)" /><rect x="325" y="132" width="20" height="15" fill="rgb(69,8,92)" /><rect x="345" y="132" width="20" height="15" fill="rgb(70,13,96)" /><rect x="365" y="132" width="20" height="15" fill="rgb(69,4,88)" /><rect x="405" y="132" width="20" height="15" fill="rgb(69,4,88)" /><rect x="425" y="132" width="20" height="15" fill="rgb(69,4,88)" /><rect x="445" y="132" width="20" height="15" fill="rgb(69,8,92)" /><rect x="465" y="132" width="20" height="15" fill="rgb(69,8,92)" /><rect x="305" y="117" width="20" height="15" fill="rgb(69,4,88)" /><rect x="365" y="117" width="20" height="15" fill="rgb(69,8,92)" /><rect x="385" y="117" width="20" height="15" fill="rgb(69,4,88)" /><rect x="405" y="117" width="20" height="15" fill="rgb(69,4,88)" /><rect x="325" y="102" width="20" height="15" fill="rgb(69,4,88)" /><rect x="425" y="102" width="20" height="15" fill="rgb(69,4,88)" /><rect x="694" y="87" width="20" height="7.7" fill="rgb(253,231,37)" /><rect x="694" y="94.2" width="20" height="7.7" fill="rgb(240,229,28)" /><rect x="694" y="101.4" width="20" height="7.7" fill="rgb(227,227,24)" /><rect x="694" y="108.6" width="20" height="7.7" fill="rgb(214,226,25)" /><rect x="694" y="115.8" width="20" height="7.7" fill="rgb(200,224,31)" /><rect x="694" y="123" width="20" height="7.7" fill="rgb(186,222,39)" /><rect x="694" y="130.2" width="20" height="7.7" fill="rgb(172,220,48)" /><rect x="694" y="137.4" width="20" height="7.7" fill="rgb(158,217,57)" /><rect x="694" y="144.6" width="20" height="7.7" fill="rgb(145,214,66)" /><rect x="694" y="151.8" width="20" height="7.7" fill="rgb(132,212,74)" /><rect x="694" y="159" width="20" height="7.7" fill="rgb(119,208,82)" /><rect x="694" y="166.2" width="20" height="7.7" fill="rgb(107,205,90)" /><rect x="694" y="173.4" width="20" height="7.7" fill="rgb(95,201,96)" /><rect x="694" y="180.60000000000002" width="20" height="7.7" fill="rgb(84,197,103)" /><rect x="694" y="187.8" width="20" height="7.7" fill="rgb(74,193,108)" /><rect x="694" y="195" width="20" height="7.7" fill="rgb(64,188,114)" /><rect x="694" y="202.2" width="20" height="7.7" fill="rgb(55,184,119)" /><rect x="694" y="209.4" width="20" height="7.7" fill="rgb(48,180,123)" /><rect x="694" y="216.6" width="20" height="7.7" fill="rgb(41,175,127)" /><rect x="694" y="223.8" width="20" height="7.7" fill="rgb(36,171,130)" /><rect x="694" y="231" width="20" height="7.7" fill="rgb(33,165,133)" /><rect x="694" y="238.20000000000002" width="20" height="7.7" fill="rgb(31,161,135)" /><rect x="694" y="245.4" width="20" height="7.7" fill="rgb(30,156,137)" /><rect x="694" y="252.6" width="20" height="7.7" fill="rgb(31,151,138)" /><rect x="694" y="259.8" width="20" height="7.7" fill="rgb(31,146,140)" /><rect x="694" y="267" width="20" height="7.7" fill="rgb(33,141,141)" /><rect x="694" y="274.20000000000005" width="20" height="7.7" fill="rgb(35,136,141)" /><rect x="694" y="281.4" width="20" height="7.7" fill="rgb(37,131,142)" /><rect x="694" y="288.6" width="20" height="7.7" fill="rgb(38,127,141)" /><rect x="694" y="295.8" width="20" height="7.7" fill="rgb(40,122,142)" /><rect x="694" y="303" width="20" height="7.7" fill="rgb(42,116,141)" /><rect x="694" y="310.20000000000005" width="20" height="7.7" fill="rgb(44,112,142)" /><rect x="694" y="317.4" width="20" height="7.7" fill="rgb(47,107,142)" /><rect x="694" y="324.6" width="20" height="7.7" fill="rgb(49,102,142)" /><rect x="694" y="331.8" width="20" height="7.7" fill="rgb(51,97,140)" /><rect x="694" y="339" width="20" height="7.7" fill="rgb(54,91,140)" /><rect x="694" y="346.2" width="20" height="7.7" fill="rgb(56,85,140)" /><rect x="694" y="353.40000000000003" width="20" height="7.7" fill="rgb(59,80,138)" /><rect x="694" y="360.6" width="20" height="7.7" fill="rgb(61,74,137)" /><rect x="694" y="367.8" width="20" height="7.7" fill="rgb(64,69,135)" /><rect x="694" y="375" width="20" height="7.7" fill="rgb(66,62,133)" /><rect x="694" y="382.2" width="20" height="7.7" fill="rgb(68,56,130)" /><rect x="694" y="389.40000000000003" width="20" height="7.7" fill="rgb(70,50,126)" /><rect x="694" y="396.6" width="20" height="7.7" fill="rgb(71,44,122)" /><rect x="694" y="403.8" width="20" height="7.7" fill="rgb(72,37,118)" /><rect x="694" y="411" width="20" height="7.7" fill="rgb(71,30,111)" /><rect x="694" y="418.2" width="20" height="7.7" fill="rgb(72,23,105)" /><rect x="694" y="425.40000000000003" width="20" height="7.7" fill="rgb(71,16,99)" /><rect x="694" y="432.6" width="20" height="7.7" fill="rgb(70,8,92)" /><rect x="694" y="439.8" width="20" height="7.7" fill="rgb(68,1,84)" /><rect x="694" y="87" width="20" height="360" fill="none" stroke="black" stroke-width="1" /><line x1="714" y1="447" x2="718" y2="447" stroke="black" stroke-width="1" /><text x="720" y="451" font-size="10" text-anchor="start">0.0</text><line x1="714" y1="370.40425531914894" x2="718" y2="370.40425531914894" stroke="black" stroke-width="1" /><text x="720" y="374.40425531914894" font-size="10" text-anchor="start">20.0</text><line x1="714" y1="293.8085106382979" x2="718" y2="293.8085106382979" stroke="black" stroke-width="1" /><text x="720" y="297.8085106382979" font-size="10" text-anchor="start">40.0</text><line x1="714" y1="217.2127659574468" x2="718" y2="217.2127659574468" stroke="black" stroke-width="1" /><text x="720" y="221.2127659574468" font-size="10" text-anchor="start">60.0</text><line x1="714" y1="140.61702127659572" x2="718" y2="140.61702127659572" stroke="black" stroke-width="1" /><text x="720" y="144.61702127659572" font-size="10" text-anchor="start">80.0</text><text x="704" y="81" font-size="10" text-anchor="middle">Count</text></svg>