<svg xmlns="http://www.w3.org/2000/svg" width="764" height="541" fill="black"><rect width="100%" height="100%" fill="white" /><line x1="65" y1="492" x2="665" y2="492" stroke="black" stroke-width="1" /><line x1="65" y1="42" x2="65" y2="492" stroke="black" stroke-width="1" /><line x1="165" y1="42" x2="165" y2="492" stroke="#ccc" stroke-width="1" /><line x1="265" y1="42" x2="265" y2="492" stroke="#ccc" stroke-width="1" /><line x1="365" y1="42" x2="365" y2="492" stroke="#ccc" stroke-width="1" /><line x1="465" y1="42" x2="465" y2="492" stroke="#ccc" stroke-width="1" /><line x1="565" y1="42" x2="565" y2="492" stroke="#ccc" stroke-width="1" /><line x1="665" y1="42" x2="665" y2="492" stroke="#ccc" stroke-width="1" /><line x1="65" y1="417" x2="665" y2="417" stroke="#ccc" stroke-width="1" /><line x1="65" y1="342" x2="665" y2="342" stroke="#ccc" stroke-width="1" /><line x1="65" y1="267" x2="665" y2="267" stroke="#ccc" stroke-width="1" /><line x1="65" y1="192" x2="665" y2="192" stroke="#ccc" stroke-width="1" /><line x1="65" y1="117" x2="665" y2="117" stroke="#ccc" stroke-width="1" /><line x1="65" y1="42" x2="665" y2="42" stroke="#ccc" stroke-width="1" /><line x1="65" y1="492" x2="65" y2="497" stroke="black" stroke-width="1" /><text x="65" y="507" font-size="10" text-anchor="middle">0</text><line x1="165" y1="492" x2="165" y2="497" stroke="black" stroke-width="1" /><text x="165" y="507" font-size="10" text-anchor="middle">5</text><line x1="265" y1="492" x2="265" y2="497" stroke="black" stroke-width="1" /><text x="265" y="507" font-size="10" text-anchor="middle">10</text><line x1="365" y1="492" x2="365" y2="497" stroke="black" stroke-width="1" /><text x="365" y="507" font-size="10" text-anchor="middle">15</text><line x1="465" y1="492" x2="465" y2="497" stroke="black" stroke-width="1" /><text x="465" y="507" font-size="10" text-anchor="middle">20</text><line x1="565" y1="492" x2="565" y2="497" stroke="black" stroke-width="1" /><text x="565" y="507" font-size="10" text-anchor="middle">25</text><line x1="665" y1="492" x2="665" y2="497" stroke="black" stroke-width="1" /><text x="665" y="507" font-size="10" text-anchor="middle">30</text><line x1="60" y1="492" x2="65" y2="492" stroke="black" stroke-width="1" /><text x="57" y="495.5" font-size="10" text-anchor="end">0</text><line x1="60" y1="417" x2="65" y2="417" stroke="black" stroke-width="1" /><text x="57" y="420.5" font-size="10" text-anchor="end">5</text><line x1="60" y1="342" x2="65" y2="342" stroke="black" stroke-width="1" /><text x="57" y="345.5" font-size="10" text-anchor="end">10</text><line x1="60" y1="267" x2="65" y2="267" stroke="black" stroke-width="1" /><text x="57" y="270.5" font-size="10" text-anchor="end">15</text><line x1="60" y1="192" x2="65" y2="192" stroke="black" stroke-width="1" /><text x="57" y="195.5" font-size="10" text-anchor="end">20</text><line x1="60" y1="117" x2="65" y2="117" stroke="black" stroke-width="1" /><text x="57" y="120.5" font-size="10" text-anchor="end">25</text><line x1="60" y1="42" x2="65" y2="42" stroke="black" stroke-width="1" /><text x="57" y="45.5" font-size="10" text-anchor="end">30</text><text x="382" y="534" font-size="14" text-anchor="middle">X</text><text x="14" y="270.5" font-size="14" text-anchor="middle" transform="rotate(-90,14,270.5)">Y</text><text x="382" y="21" font-size="16" text-anchor="middle">Bimodal — Inferno</text><rect x="285" y="477" width="20" height="15" fill="rgb(0,0,5)" /><rect x="125" y="447" width="20" height="15" fill="rgb(0,0,5)" /><rect x="165" y="447" width="20" height="15" fill="rgb(0,0,5)" /><rect x="245" y="447" width="20" height="15" fill="rgb(0,0,5)" /><rect x="265" y="447" width="20" height="15" fill="rgb(1,1,9)" /><rect x="165" y="432" width="20" height="15" fill="rgb(0,0,5)" /><rect x="185" y="432" width="20" height="15" fill="rgb(1,1,9)" /><rect x="205" y="432" width="20" height="15" fill="rgb(2,1,12)" /><rect x="225" y="432" width="20" height="15" fill="rgb(2,1,12)" /><rect x="245" y="432" width="20" height="15" fill="rgb(4,3,19)" /><rect x="265" y="432" width="20" height="15" fill="rgb(0,0,5)" /><rect x="305" y="432" width="20" height="15" fill="rgb(0,0,5)" /><rect x="345" y="432" width="20" height="15" fill="rgb(0,0,5)" /><rect x="145" y="417" width="20" height="15" fill="rgb(1,1,9)" /><rect x="165" y="417" width="20" height="15" fill="rgb(1,1,9)" /><rect x="185" y="417" width="20" height="15" fill="rgb(0,0,5)" /><rect x="205" y="417" width="20" height="15" fill="rgb(15,9,44)" /><rect x="225" y="417" width="20" height="15" fill="rgb(7,4,27)" /><rect x="245" y="417" width="20" height="15" fill="rgb(11,7,36)" /><rect x="265" y="417" width="20" height="15" fill="rgb(22,11,57)" /><rect x="285" y="417" width="20" height="15" fill="rgb(4,3,19)" /><rect x="325" y="417" width="20" height="15" fill="rgb(0,0,5)" /><rect x="125" y="402" width="20" height="15" fill="rgb(0,0,5)" /><rect x="145" y="402" width="20" height="15" fill="rgb(1,1,9)" /><rect x="165" y="402" width="20" height="15" fill="rgb(4,3,19)" /><rect x="185" y="402" width="20" height="15" fill="rgb(27,12,66)" /><rect x="205" y="402" width="20" height="15" fill="rgb(27,12,66)" /><rect x="225" y="402" width="20" height="15" fill="rgb(61,9,101)" /><rect x="245" y="402" width="20" height="15" fill="rgb(57,9,99)" /><rect x="265" y="402" width="20" height="15" fill="rgb(20,10,52)" /><rect x="285" y="402" width="20" height="15" fill="rgb(7,4,27)" /><rect x="305" y="402" width="20" height="15" fill="rgb(5,4,24)" /><rect x="345" y="402" width="20" height="15" fill="rgb(0,0,5)" /><rect x="365" y="402" width="20" height="15" fill="rgb(0,0,5)" /><rect x="125" y="387" width="20" height="15" fill="rgb(1,1,9)" /><rect x="145" y="387" width="20" height="15" fill="rgb(5,4,24)" /><rect x="165" y="387" width="20" height="15" fill="rgb(11,7,36)" /><rect x="185" y="387" width="20" height="15" fill="rgb(61,9,101)" /><rect x="205" y="387" width="20" height="15" fill="rgb(92,18,109)" /><rect x="225" y="387" width="20" height="15" fill="rgb(96,19,110)" /><rect x="245" y="387" width="20" height="15" fill="rgb(107,23,110)" /><rect x="265" y="387" width="20" height="15" fill="rgb(113,25,110)" /><rect x="285" y="387" width="20" height="15" fill="rgb(55,9,97)" /><rect x="305" y="387" width="20" height="15" fill="rgb(24,11,61)" /><rect x="325" y="387" width="20" height="15" fill="rgb(4,3,19)" /><rect x="345" y="387" width="20" height="15" fill="rgb(0,0,5)" /><rect x="125" y="372" width="20" height="15" fill="rgb(0,0,5)" /><rect x="145" y="372" width="20" height="15" fill="rgb(9,6,31)" /><rect x="165" y="372" width="20" height="15" fill="rgb(51,9,94)" /><rect x="185" y="372" width="20" height="15" fill="rgb(104,22,110)" /><rect x="205" y="372" width="20" height="15" fill="rgb(163,43,96)" /><rect x="225" y="372" width="20" height="15" fill="rgb(205,66,71)" /><rect x="245" y="372" width="20" height="15" fill="rgb(214,75,63)" /><rect x="265" y="372" width="20" height="15" fill="rgb(158,41,99)" /><rect x="285" y="372" width="20" height="15" fill="rgb(101,21,110)" /><rect x="305" y="372" width="20" height="15" fill="rgb(48,10,92)" /><rect x="325" y="372" width="20" height="15" fill="rgb(12,8,40)" /><rect x="345" y="372" width="20" height="15" fill="rgb(1,1,9)" /><rect x="365" y="372" width="20" height="15" fill="rgb(0,0,5)" /><rect x="125" y="357" width="20" height="15" fill="rgb(4,3,19)" /><rect x="145" y="357" width="20" height="15" fill="rgb(12,8,40)" /><rect x="165" y="357" width="20" height="15" fill="rgb(61,9,101)" /><rect x="185" y="357" width="20" height="15" fill="rgb(113,25,110)" /><rect x="205" y="357" width="20" height="15" fill="rgb(230,93,46)" /><rect x="225" y="357" width="20" height="15" fill="rgb(252,176,20)" /><rect x="245" y="357" width="20" height="15" fill="rgb(248,204,54)" /><rect x="265" y="357" width="20" height="15" fill="rgb(238,106,35)" /><rect x="285" y="357" width="20" height="15" fill="rgb(113,25,110)" /><rect x="305" y="357" width="20" height="15" fill="rgb(57,9,99)" /><rect x="325" y="357" width="20" height="15" fill="rgb(24,11,61)" /><rect x="345" y="357" width="20" height="15" fill="rgb(0,0,5)" /><rect x="365" y="357" width="20" height="15" fill="rgb(1,1,9)" /><rect x="105" y="342" width="20" height="15" fill="rgb(0,0,5)" /><rect x="125" y="342" width="20" height="15" fill="rgb(0,0,5)" /><rect x="145" y="342" width="20" height="15" fill="rgb(7,4,27)" /><rect x="165" y="342" width="20" height="15" fill="rgb(51,9,94)" /><rect x="185" y="342" width="20" height="15" fill="rgb(90,16,109)" /><rect x="205" y="342" width="20" height="15" fill="rgb(214,75,63)" /><rect x="225" y="342" width="20" height="15" fill="rgb(252,255,164)" /><rect x="245" y="342" width="20" height="15" fill="rgb(242,118,26)" /><rect x="265" y="342" width="20" height="15" fill="rgb(193,58,80)" /><rect x="285" y="342" width="20" height="15" fill="rgb(158,41,99)" /><rect x="305" y="342" width="20" height="15" fill="rgb(55,9,97)" /><rect x="325" y="342" width="20" height="15" fill="rgb(15,9,44)" /><rect x="345" y="342" width="20" height="15" fill="rgb(3,2,16)" /><rect x="365" y="342" width="20" height="15" fill="rgb(0,0,5)" /><rect x="85" y="327" width="20" height="15" fill="rgb(0,0,5)" /><rect x="125" y="327" width="20" height="15" fill="rgb(3,2,16)" /><rect x="145" y="327" width="20" height="15" fill="rgb(12,8,40)" /><rect x="165" y="327" width="20" height="15" fill="rgb(30,12,69)" /><rect x="185" y="327" width="20" height="15" fill="rgb(96,19,110)" /><rect x="205" y="327" width="20" height="15" fill="rgb(163,43,96)" /><rect x="225" y="327" width="20" height="15" fill="rgb(207,68,69)" /><rect x="245" y="327" width="20" height="15" fill="rgb(224,85,53)" /><rect x="265" y="327" width="20" height="15" fill="rgb(216,76,61)" /><rect x="285" y="327" width="20" height="15" fill="rgb(127,30,108)" /><rect x="305" y="327" width="20" height="15" fill="rgb(30,12,69)" /><rect x="325" y="327" width="20" height="15" fill="rgb(11,7,36)" /><rect x="345" y="327" width="20" height="15" fill="rgb(1,1,9)" /><rect x="145" y="312" width="20" height="15" fill="rgb(0,0,5)" /><rect x="165" y="312" width="20" height="15" fill="rgb(12,8,40)" /><rect x="185" y="312" width="20" height="15" fill="rgb(55,9,97)" /><rect x="205" y="312" width="20" height="15" fill="rgb(61,9,101)" /><rect x="225" y="312" width="20" height="15" fill="rgb(129,31,107)" /><rect x="245" y="312" width="20" height="15" fill="rgb(135,33,106)" /><rect x="265" y="312" width="20" height="15" fill="rgb(118,27,109)" /><rect x="285" y="312" width="20" height="15" fill="rgb(41,11,85)" /><rect x="305" y="312" width="20" height="15" fill="rgb(22,11,57)" /><rect x="325" y="312" width="20" height="15" fill="rgb(2,1,12)" /><rect x="125" y="297" width="20" height="15" fill="rgb(1,1,9)" /><rect x="145" y="297" width="20" height="15" fill="rgb(1,1,9)" /><rect x="165" y="297" width="20" height="15" fill="rgb(5,4,24)" /><rect x="185" y="297" width="20" height="15" fill="rgb(17,9,48)" /><rect x="205" y="297" width="20" height="15" fill="rgb(41,11,85)" /><rect x="225" y="297" width="20" height="15" fill="rgb(81,14,108)" /><rect x="245" y="297" width="20" height="15" fill="rgb(78,13,107)" /><rect x="265" y="297" width="20" height="15" fill="rgb(30,12,69)" /><rect x="285" y="297" width="20" height="15" fill="rgb(27,12,66)" /><rect x="305" y="297" width="20" height="15" fill="rgb(7,4,27)" /><rect x="325" y="297" width="20" height="15" fill="rgb(0,0,5)" /><rect x="545" y="297" width="20" height="15" fill="rgb(0,0,5)" /><rect x="165" y="282" width="20" height="15" fill="rgb(1,1,9)" /><rect x="185" y="282" width="20" height="15" fill="rgb(3,2,16)" /><rect x="205" y="282" width="20" height="15" fill="rgb(1,1,9)" /><rect x="225" y="282" width="20" height="15" fill="rgb(17,9,48)" /><rect x="245" y="282" width="20" height="15" fill="rgb(12,8,40)" /><rect x="265" y="282" width="20" height="15" fill="rgb(4,3,19)" /><rect x="285" y="282" width="20" height="15" fill="rgb(11,7,36)" /><rect x="305" y="282" width="20" height="15" fill="rgb(1,1,9)" /><rect x="325" y="282" width="20" height="15" fill="rgb(0,0,5)" /><rect x="504.99999999999994" y="282" width="20.000000000000057" height="15" fill="rgb(0,0,5)" /><rect x="125" y="267" width="20" height="15" fill="rgb(0,0,5)" /><rect x="145" y="267" width="20" height="15" fill="rgb(0,0,5)" /><rect x="165" y="267" width="20" height="15" fill="rgb(0,0,5)" /><rect x="185" y="267" width="20" height="15" fill="rgb(0,0,5)" /><rect x="205" y="267" width="20" height="15" fill="rgb(1,1,9)" /><rect x="225" y="267" width="20" height="15" fill="rgb(1,1,9)" /><rect x="245" y="267" width="20" height="15" fill="rgb(3,2,16)" /><rect x="265" y="267" width="20" height="15" fill="rgb(0,0,5)" /><rect x="285" y="267" width="20" height="15" fill="rgb(0,0,5)" /><rect x="325" y="267" width="20" height="15" fill="rgb(0,0,5)" /><rect x="245" y="252" width="20" height="15" fill="rgb(1,1,9)" /><rect x="365" y="252" width="20" height="15" fill="rgb(0,0,5)" /><rect x="445" y="252" width="20" height="15" fill="rgb(3,2,16)" /><rect x="465" y="252" width="20" height="15" fill="rgb(4,3,19)" /><rect x="485" y="252" width="19.999999999999943" height="15" fill="rgb(3,2,16)" /><rect x="504.99999999999994" y="252" width="20.000000000000057" height="15" fill="rgb(2,1,12)" /><rect x="525" y="252" width="20" height="15" fill="rgb(2,1,12)" /><rect x="405" y="237" width="20" height="15" fill="rgb(1,1,9)" /><rect x="425" y="237" width="20" height="15" fill="rgb(2,1,12)" /><rect x="445" y="237" width="20" height="15" fill="rgb(0,0,5)" /><rect x="465" y="237" width="20" height="15" fill="rgb(15,9,44)" /><rect x="485" y="237" width="19.999999999999943" height="15" fill="rgb(9,6,31)" /><rect x="504.99999999999994" y="237" width="20.000000000000057" height="15" fill="rgb(2,1,12)" /><rect x="525" y="237" width="20" height="15" fill="rgb(5,4,24)" /><rect x="545" y="237" width="20" height="15" fill="rgb(4,3,19)" /><rect x="365" y="222" width="20" height="15" fill="rgb(0,0,5)" /><rect x="385" y="222" width="20" height="15" fill="rgb(2,1,12)" /><rect x="405" y="222" width="20" height="15" fill="rgb(7,4,27)" /><rect x="425" y="222" width="20" height="15" fill="rgb(9,6,31)" /><rect x="445" y="222" width="20" height="15" fill="rgb(39,11,82)" /><rect x="465" y="222" width="20" height="15" fill="rgb(51,9,94)" /><rect x="485" y="222" width="19.999999999999943" height="15" fill="rgb(35,12,78)" /><rect x="504.99999999999994" y="222" width="20.000000000000057" height="15" fill="rgb(24,11,61)" /><rect x="525" y="222" width="20" height="15" fill="rgb(17,9,48)" /><rect x="545" y="222" width="20" height="15" fill="rgb(7,4,27)" /><rect x="565" y="222" width="20" height="15" fill="rgb(0,0,5)" /><rect x="365" y="207" width="20" height="15" fill="rgb(0,0,5)" /><rect x="385" y="207" width="20" height="15" fill="rgb(4,3,19)" /><rect x="405" y="207" width="20" height="15" fill="rgb(24,11,61)" /><rect x="425" y="207" width="20" height="15" fill="rgb(41,11,85)" /><rect x="445" y="207" width="20" height="15" fill="rgb(90,16,109)" /><rect x="465" y="207" width="20" height="15" fill="rgb(109,24,110)" /><rect x="485" y="207" width="19.999999999999943" height="15" fill="rgb(118,27,109)" /><rect x="504.99999999999994" y="207" width="20.000000000000057" height="15" fill="rgb(98,20,110)" /><rect x="525" y="207" width="20" height="15" fill="rgb(73,11,106)" /><rect x="545" y="207" width="20" height="15" fill="rgb(22,11,57)" /><rect x="565" y="207" width="20" height="15" fill="rgb(4,3,19)" /><rect x="585" y="207" width="20" height="15" fill="rgb(0,0,5)" /><rect x="605" y="207" width="20" height="15" fill="rgb(0,0,5)" /><rect x="365" y="192" width="20" height="15" fill="rgb(3,2,16)" /><rect x="385" y="192" width="20" height="15" fill="rgb(5,4,24)" /><rect x="405" y="192" width="20" height="15" fill="rgb(24,11,61)" /><rect x="425" y="192" width="20" height="15" fill="rgb(104,22,110)" /><rect x="445" y="192" width="20" height="15" fill="rgb(172,47,93)" /><rect x="465" y="192" width="20" height="15" fill="rgb(248,139,10)" /><rect x="485" y="192" width="19.999999999999943" height="15" fill="rgb(221,81,57)" /><rect x="504.99999999999994" y="192" width="20.000000000000057" height="15" fill="rgb(158,41,99)" /><rect x="525" y="192" width="20" height="15" fill="rgb(124,29,108)" /><rect x="545" y="192" width="20" height="15" fill="rgb(33,12,74)" /><rect x="565" y="192" width="20" height="15" fill="rgb(3,2,16)" /><rect x="585" y="192" width="20" height="15" fill="rgb(0,0,5)" /><rect x="605" y="192" width="20" height="15" fill="rgb(0,0,5)" /><rect x="345" y="177" width="20" height="15" fill="rgb(1,1,9)" /><rect x="365" y="177" width="20" height="15" fill="rgb(4,3,19)" /><rect x="385" y="177" width="20" height="15" fill="rgb(3,2,16)" /><rect x="405" y="177" width="20" height="15" fill="rgb(55,9,97)" /><rect x="425" y="177" width="20" height="15" fill="rgb(152,39,101)" /><rect x="445" y="177" width="20" height="15" fill="rgb(212,72,65)" /><rect x="465" y="177" width="20" height="15" fill="rgb(244,218,75)" /><rect x="485" y="177" width="19.999999999999943" height="15" fill="rgb(251,183,28)" /><rect x="504.99999999999994" y="177" width="20.000000000000057" height="15" fill="rgb(200,63,74)" /><rect x="525" y="177" width="20" height="15" fill="rgb(132,32,107)" /><rect x="545" y="177" width="20" height="15" fill="rgb(70,10,105)" /><rect x="565" y="177" width="20" height="15" fill="rgb(17,9,48)" /><rect x="585" y="177" width="20" height="15" fill="rgb(1,1,9)" /><rect x="625" y="177" width="20" height="15" fill="rgb(0,0,5)" /><rect x="345" y="162" width="20" height="15" fill="rgb(0,0,5)" /><rect x="365" y="162" width="20" height="15" fill="rgb(2,1,12)" /><rect x="385" y="162" width="20" height="15" fill="rgb(7,4,27)" /><rect x="405" y="162" width="20" height="15" fill="rgb(41,11,85)" /><rect x="425" y="162" width="20" height="15" fill="rgb(118,27,109)" /><rect x="445" y="162" width="20" height="15" fill="rgb(240,112,31)" /><rect x="465" y="162" width="20" height="15" fill="rgb(236,103,37)" /><rect x="485" y="162" width="19.999999999999943" height="15" fill="rgb(247,133,14)" /><rect x="504.99999999999994" y="162" width="20.000000000000057" height="15" fill="rgb(246,127,19)" /><rect x="525" y="162" width="20" height="15" fill="rgb(138,34,105)" /><rect x="545" y="162" width="20" height="15" fill="rgb(63,9,102)" /><rect x="565" y="162" width="20" height="15" fill="rgb(9,6,31)" /><rect x="585" y="162" width="20" height="15" fill="rgb(7,4,27)" /><rect x="605" y="162" width="20" height="15" fill="rgb(1,1,9)" /><rect x="365" y="147" width="20" height="15" fill="rgb(4,3,19)" /><rect x="385" y="147" width="20" height="15" fill="rgb(11,7,36)" /><rect x="405" y="147" width="20" height="15" fill="rgb(57,9,99)" /><rect x="425" y="147" width="20" height="15" fill="rgb(109,24,110)" /><rect x="445" y="147" width="20" height="15" fill="rgb(129,31,107)" /><rect x="465" y="147" width="20" height="15" fill="rgb(203,65,72)" /><rect x="485" y="147" width="19.999999999999943" height="15" fill="rgb(245,124,21)" /><rect x="504.99999999999994" y="147" width="20.000000000000057" height="15" fill="rgb(177,49,90)" /><rect x="525" y="147" width="20" height="15" fill="rgb(101,21,110)" /><rect x="545" y="147" width="20" height="15" fill="rgb(27,12,66)" /><rect x="565" y="147" width="20" height="15" fill="rgb(12,8,40)" /><rect x="585" y="147" width="20" height="15" fill="rgb(2,1,12)" /><rect x="385" y="132" width="20" height="15" fill="rgb(4,3,19)" /><rect x="405" y="132" width="20" height="15" fill="rgb(15,9,44)" /><rect x="425" y="132" width="20" height="15" fill="rgb(57,9,99)" /><rect x="445" y="132" width="20" height="15" fill="rgb(92,18,109)" /><rect x="465" y="132" width="20" height="15" fill="rgb(149,38,102)" /><rect x="485" y="132" width="19.999999999999943" height="15" fill="rgb(158,41,99)" /><rect x="504.99999999999994" y="132" width="20.000000000000057" height="15" fill="rgb(101,21,110)" /><rect x="525" y="132" width="20" height="15" fill="rgb(27,12,66)" /><rect x="545" y="132" width="20" height="15" fill="rgb(35,12,78)" /><rect x="565" y="132" width="20" height="15" fill="rgb(9,6,31)" /><rect x="585" y="132" width="20" height="15" fill="rgb(0,0,5)" /><rect x="605" y="132" width="20" height="15" fill="rgb(0,0,5)" /><rect x="385" y="117" width="20" height="15" fill="rgb(1,1,9)" /><rect x="405" y="117" width="20" height="15" fill="rgb(4,3,19)" /><rect x="425" y="117" width="20" height="15" fill="rgb(27,12,66)" /><rect x="445" y="117" width="20" height="15" fill="rgb(70,10,105)" /><rect x="465" y="117" width="20" height="15" fill="rgb(41,11,85)" /><rect x="485" y="117" width="19.999999999999943" height="15" fill="rgb(20,10,52)" /><rect x="504.99999999999994" y="117" width="20.000000000000057" height="15" fill="rgb(33,12,74)" /><rect x="525" y="117" width="20" height="15" fill="rgb(20,10,52)" /><rect x="545" y="117" width="20" height="15" fill="rgb(4,3,19)" /><rect x="585" y="117" width="20" height="15" fill="rgb(2,1,12)" /><rect x="625" y="117" width="20" height="15" fill="rgb(0,0,5)" /><rect x="405" y="102" width="20" height="15" fill="rgb(1,1,9)" /><rect x="425" y="102" width="20" height="15" fill="rgb(5,4,24)" /><rect x="445" y="102" width="20" height="15" fill="rgb(5,4,24)" /><rect x="465" y="102" width="20" height="15" fill="rgb(12,8,40)" /><rect x="485" y="102" width="19.999999999999943" height="15" fill="rgb(9,6,31)" /><rect x="504.99999999999994" y="102" width="20.000000000000057" height="15" fill="rgb(2,1,12)" /><rect x="525" y="102" width="20" height="15" fill="rgb(1,1,9)" /><rect x="545" y="102" width="20" height="15" fill="rgb(3,2,16)" /><rect x="565" y="102" width="20" height="15" fill="rgb(0,0,5)" /><rect x="445" y="87" width="20" height="15" fill="rgb(0,0,5)" /><rect x="465" y="87" width="20" height="15" fill="rgb(2,1,12)" /><rect x="485" y="87" width="19.999999999999943" height="15" fill="rgb(0,0,5)" /><rect x="504.99999999999994" y="87" width="20.000000000000057" height="15" fill="rgb(3,2,16)" /><rect x="425" y="72" width="20" height="15" fill="rgb(0,0,5)" /><rect x="485" y="72" width="19.999999999999943" height="15" fill="rgb(0,0,5)" /><rect x="525" y="72" width="20" height="15" fill="rgb(0,0,5)" /><rect x="445" y="57" width="20" height="15" fill="rgb(0,0,5)" /><rect x="504.99999999999994" y="57" width="20.000000000000057" height="15" fill="rgb(0,0,5)" /><rect x="694" y="87" width="20" height="7.7" fill="rgb(252,255,164)" /><rect x="694" y="94.2" width="20" height="7.7" fill="rgb(244,248,145)" /><rect x="694" y="101.4" width="20" height="7.7" fill="rgb(241,241,123)" /><rect x="694" y="108.6" width="20" height="7.7" fill="rgb(241,232,102)" /><rect x="694" y="115.8" width="20" height="7.7" fill="rgb(243,223,83)" /><rect x="694" y="123" width="20" height="7.7" fill="rgb(246,212,66)" /><rect x="694" y="130.2" width="20" height="7.7" fill="rgb(248,202,52)" /><rect x="694" y="137.4" width="20" height="7.7" fill="rgb(250,193,39)" /><rect x="694" y="144.6" width="20" height="7.7" fill="rgb(251,182,27)" /><rect x="694" y="151.8" width="20" height="7.7" fill="rgb(252,172,17)" /><rect x="694" y="159" width="20" height="7.7" fill="rgb(252,162,8)" /><rect x="694" y="166.2" width="20" height="7.7" fill="rgb(251,152,6)" /><rect x="694" y="173.4" width="20" height="7.7" fill="rgb(249,143,8)" /><rect x="694" y="180.60000000000002" width="20" height="7.7" fill="rgb(247,133,14)" /><rect x="694" y="187.8" width="20" height="7.7" fill="rgb(245,125,20)" /><rect x="694" y="195" width="20" height="7.7" fill="rgb(241,116,28)" /><rect x="694" y="202.2" width="20" height="7.7" fill="rgb(238,107,35)" /><rect x="694" y="209.4" width="20" height="7.7" fill="rgb(234,99,41)" /><rect x="694" y="216.6" width="20" height="7.7" fill="rgb(229,92,47)" /><rect x="694" y="223.8" width="20" height="7.7" fill="rgb(224,85,53)" /><rect x="694" y="231" width="20" height="7.7" fill="rgb(217,78,60)" /><rect x="694" y="238.20000000000002" width="20" height="7.7" fill="rgb(211,71,66)" /><rect x="694" y="245.4" width="20" height="7.7" fill="rgb(205,66,71)" /><rect x="694" y="252.6" width="20" height="7.7" fill="rgb(198,61,76)" /><rect x="694" y="259.8" width="20" height="7.7" fill="rgb(190,57,81)" /><rect x="694" y="267" width="20" height="7.7" fill="rgb(183,52,87)" /><rect x="694" y="274.20000000000005" width="20" height="7.7" fill="rgb(175,48,91)" /><rect x="694" y="281.4" width="20" height="7.7" fill="rgb(166,45,95)" /><rect x="694" y="288.6" width="20" height="7.7" fill="rgb(159,41,99)" /><rect x="694" y="295.8" width="20" height="7.7" fill="rgb(150,38,102)" /><rect x="694" y="303" width="20" height="7.7" fill="rgb(142,35,104)" /><rect x="694" y="310.20000000000005" width="20" height="7.7" fill="rgb(134,33,106)" /><rect x="694" y="317.4" width="20" height="7.7" fill="rgb(125,29,108)" /><rect x="694" y="324.6" width="20" height="7.7" fill="rgb(117,27,109)" /><rect x="694" y="331.8" width="20" height="7.7" fill="rgb(109,24,110)" /><rect x="694" y="339" width="20" height="7.7" fill="rgb(100,21,110)" /><rect x="694" y="346.2" width="20" height="7.7" fill="rgb(92,18,109)" /><rect x="694" y="353.40000000000003" width="20" height="7.7" fill="rgb(84,14,109)" /><rect x="694" y="360.6" width="20" height="7.7" fill="rgb(76,12,107)" /><rect x="694" y="367.8" width="20" height="7.7" fill="rgb(67,10,104)" /><rect x="694" y="375" width="20" height="7.7" fill="rgb(58,9,99)" /><rect x="694" y="382.2" width="20" height="7.7" fill="rgb(49,10,93)" /><rect x="694" y="389.40000000000003" width="20" height="7.7" fill="rgb(40,11,83)" /><rect x="694" y="396.6" width="20" height="7.7" fill="rgb(31,12,72)" /><rect x="694" y="403.8" width="20" height="7.7" fill="rgb(23,11,59)" /><rect x="694" y="411" width="20" height="7.7" fill="rgb(16,9,47)" /><rect x="694" y="418.2" width="20" height="7.7" fill="rgb(10,7,35)" /><rect x="694" y="425.40000000000003" width="20" height="7.7" fill="rgb(5,3,23)" /><rect x="694" y="432.6" width="20" height="7.7" fill="rgb(2,1,12)" /><rect x="694" y="439.8" width="20" height="7.7" fill="rgb(0,0,4)" /><rect x="694" y="87" width="20" height="360" fill="none" stroke="black" stroke-width="1" /><line x1="714" y1="447" x2="718" y2="447" stroke="black" stroke-width="1" /><text x="720" y="451" font-size="10" text-anchor="start">0.0</text><line x1="714" y1="384.06293706293707" x2="718" y2="384.06293706293707" stroke="black" stroke-width="1" /><text x="720" y="388.06293706293707" font-size="10" text-anchor="start">25.0</text><line x1="714" y1="321.12587412587413" x2="718" y2="321.12587412587413" stroke="black" stroke-width="1" /><text x="720" y="325.12587412587413" font-size="10" text-anchor="start">50.0</text><line x1="714" y1="258.1888111888112" x2="718" y2="258.1888111888112" stroke="black" stroke-width="1" /><text x="720" y="262.1888111888112" font-size="10" text-anchor="start">75.0</text><line x1="714" y1="195.25174825174827" x2="718" y2="195.25174825174827" stroke="black" stroke-width="1" /><text x="720" y="199.25174825174827" font-size="10" text-anchor="start">100.0</text><line x1="714" y1="132.31468531468528" x2="718" y2="132.31468531468528" stroke="black" stroke-width="1" /><text x="720" y="136.31468531468528" font-size="10" text-anchor="start">125.0</text><text x="704" y="81" font-size="10" text-anchor="middle">Count</text></svg>