<svg xmlns="http://www.w3.org/2000/svg" width="900" height="560" fill="black"><rect width="100%" height="100%" fill="white" /><g transform="translate(10,40)"><line x1="65" y1="198.5" x2="269.3333333333333" y2="198.5" stroke="black" stroke-width="1" /><line x1="65" y1="42" x2="65" y2="198.5" stroke="black" stroke-width="1" /><line x1="105.86666666666667" y1="42" x2="105.86666666666667" y2="198.5" stroke="#ccc" stroke-width="1" /><line x1="146.73333333333335" y1="42" x2="146.73333333333335" y2="198.5" stroke="#ccc" stroke-width="1" /><line x1="187.59999999999997" y1="42" x2="187.59999999999997" y2="198.5" stroke="#ccc" stroke-width="1" /><line x1="228.46666666666667" y1="42" x2="228.46666666666667" y2="198.5" stroke="#ccc" stroke-width="1" /><line x1="269.3333333333333" y1="42" x2="269.3333333333333" y2="198.5" stroke="#ccc" stroke-width="1" /><line x1="65" y1="167.2" x2="269.3333333333333" y2="167.2" stroke="#ccc" stroke-width="1" /><line x1="65" y1="135.9" x2="269.3333333333333" y2="135.9" stroke="#ccc" stroke-width="1" /><line x1="65" y1="104.60000000000001" x2="269.3333333333333" y2="104.60000000000001" stroke="#ccc" stroke-width="1" /><line x1="65" y1="73.3" x2="269.3333333333333" y2="73.3" stroke="#ccc" stroke-width="1" /><line x1="65" y1="42" x2="269.3333333333333" y2="42" stroke="#ccc" stroke-width="1" /><line x1="65" y1="198.5" x2="65" y2="203.5" stroke="black" stroke-width="1" /><text x="65" y="213.5" font-size="10" text-anchor="middle">0</text><line x1="105.86666666666667" y1="198.5" x2="105.86666666666667" y2="203.5" stroke="black" stroke-width="1" /><text x="105.86666666666667" y="213.5" font-size="10" text-anchor="middle">2</text><line x1="146.73333333333335" y1="198.5" x2="146.73333333333335" y2="203.5" stroke="black" stroke-width="1" /><text x="146.73333333333335" y="213.5" font-size="10" text-anchor="middle">4</text><line x1="187.59999999999997" y1="198.5" x2="187.59999999999997" y2="203.5" stroke="black" stroke-width="1" /><text x="187.59999999999997" y="213.5" font-size="10" text-anchor="middle">6</text><line x1="228.46666666666667" y1="198.5" x2="228.46666666666667" y2="203.5" stroke="black" stroke-width="1" /><text x="228.46666666666667" y="213.5" font-size="10" text-anchor="middle">8</text><line x1="269.3333333333333" y1="198.5" x2="269.3333333333333" y2="203.5" stroke="black" stroke-width="1" /><text x="269.3333333333333" y="213.5" font-size="10" text-anchor="middle">10</text><line x1="60" y1="198.5" x2="65" y2="198.5" stroke="black" stroke-width="1" /><text x="57" y="202" font-size="10" text-anchor="end">-2</text><line x1="60" y1="167.2" x2="65" y2="167.2" stroke="black" stroke-width="1" /><text x="57" y="170.7" font-size="10" text-anchor="end">0</text><line x1="60" y1="135.9" x2="65" y2="135.9" stroke="black" stroke-width="1" /><text x="57" y="139.4" font-size="10" text-anchor="end">2</text><line x1="60" y1="104.60000000000001" x2="65" y2="104.60000000000001" stroke="black" stroke-width="1" /><text x="57" y="108.10000000000001" font-size="10" text-anchor="end">4</text><line x1="60" y1="73.3" x2="65" y2="73.3" stroke="black" stroke-width="1" /><text x="57" y="76.8" font-size="10" text-anchor="end">6</text><line x1="60" y1="42" x2="65" y2="42" stroke="black" stroke-width="1" /><text x="57" y="45.5" font-size="10" text-anchor="end">8</text><text x="141.66666666666666" y="21" font-size="16" text-anchor="middle">Alpha</text><circle cx="65" cy="197.21432979695624" r="4.5" fill="steelblue" /><circle cx="85.43333333333334" cy="174.43864576540366" r="4.5" fill="steelblue" /><circle cx="105.86666666666667" cy="144.76069830818764" r="4.5" fill="steelblue" /><circle cx="126.29999999999998" cy="114.17425210936156" r="4.5" fill="steelblue" /><circle cx="146.73333333333335" cy="88.99043660109608" r="4.5" fill="steelblue" /><circle cx="167.16666666666666" cy="73.63308688068815" r="4.5" fill="steelblue" /><circle cx="187.59999999999997" cy="69.09337083654023" r="4.5" fill="steelblue" /><circle cx="208.0333333333333" cy="72.58354568866223" r="4.5" fill="steelblue" /><circle cx="228.46666666666667" cy="78.51079674558535" r="4.5" fill="steelblue" /><circle cx="248.89999999999998" cy="80.43096848238092" r="4.5" fill="steelblue" /></g><text x="18" y="58" font-size="16" text-anchor="start" font-weight="bold">A</text><g transform="translate(308.3333333333333,40)"><line x1="65" y1="198.5" x2="269.3333333333333" y2="198.5" stroke="black" stroke-width="1" /><line x1="65" y1="42" x2="65" y2="198.5" stroke="black" stroke-width="1" /><line x1="105.86666666666667" y1="42" x2="105.86666666666667" y2="198.5" stroke="#ccc" stroke-width="1" /><line x1="146.73333333333335" y1="42" x2="146.73333333333335" y2="198.5" stroke="#ccc" stroke-width="1" /><line x1="187.59999999999997" y1="42" x2="187.59999999999997" y2="198.5" stroke="#ccc" stroke-width="1" /><line x1="228.46666666666667" y1="42" x2="228.46666666666667" y2="198.5" stroke="#ccc" stroke-width="1" /><line x1="269.3333333333333" y1="42" x2="269.3333333333333" y2="198.5" stroke="#ccc" stroke-width="1" /><line x1="65" y1="167.2" x2="269.3333333333333" y2="167.2" stroke="#ccc" stroke-width="1" /><line x1="65" y1="135.9" x2="269.3333333333333" y2="135.9" stroke="#ccc" stroke-width="1" /><line x1="65" y1="104.60000000000001" x2="269.3333333333333" y2="104.60000000000001" stroke="#ccc" stroke-width="1" /><line x1="65" y1="73.3" x2="269.3333333333333" y2="73.3" stroke="#ccc" stroke-width="1" /><line x1="65" y1="42" x2="269.3333333333333" y2="42" stroke="#ccc" stroke-width="1" /><line x1="65" y1="198.5" x2="65" y2="203.5" stroke="black" stroke-width="1" /><text x="65" y="213.5" font-size="10" text-anchor="middle">0</text><line x1="105.86666666666667" y1="198.5" x2="105.86666666666667" y2="203.5" stroke="black" stroke-width="1" /><text x="105.86666666666667" y="213.5" font-size="10" text-anchor="middle">2</text><line x1="146.73333333333335" y1="198.5" x2="146.73333333333335" y2="203.5" stroke="black" stroke-width="1" /><text x="146.73333333333335" y="213.5" font-size="10" text-anchor="middle">4</text><line x1="187.59999999999997" y1="198.5" x2="187.59999999999997" y2="203.5" stroke="black" stroke-width="1" /><text x="187.59999999999997" y="213.5" font-size="10" text-anchor="middle">6</text><line x1="228.46666666666667" y1="198.5" x2="228.46666666666667" y2="203.5" stroke="black" stroke-width="1" /><text x="228.46666666666667" y="213.5" font-size="10" text-anchor="middle">8</text><line x1="269.3333333333333" y1="198.5" x2="269.3333333333333" y2="203.5" stroke="black" stroke-width="1" /><text x="269.3333333333333" y="213.5" font-size="10" text-anchor="middle">10</text><line x1="60" y1="198.5" x2="65" y2="198.5" stroke="black" stroke-width="1" /><text x="57" y="202" font-size="10" text-anchor="end">-2</text><line x1="60" y1="167.2" x2="65" y2="167.2" stroke="black" stroke-width="1" /><text x="57" y="170.7" font-size="10" text-anchor="end">0</text><line x1="60" y1="135.9" x2="65" y2="135.9" stroke="black" stroke-width="1" /><text x="57" y="139.4" font-size="10" text-anchor="end">2</text><line x1="60" y1="104.60000000000001" x2="65" y2="104.60000000000001" stroke="black" stroke-width="1" /><text x="57" y="108.10000000000001" font-size="10" text-anchor="end">4</text><line x1="60" y1="73.3" x2="65" y2="73.3" stroke="black" stroke-width="1" /><text x="57" y="76.8" font-size="10" text-anchor="end">6</text><line x1="60" y1="42" x2="65" y2="42" stroke="black" stroke-width="1" /><text x="57" y="45.5" font-size="10" text-anchor="end">8</text><text x="141.66666666666666" y="21" font-size="16" text-anchor="middle">Beta</text><circle cx="65" cy="190.88791810313816" r="4.5" fill="crimson" /><circle cx="85.43333333333334" cy="185.78252841372745" r="4.5" fill="crimson" /><circle cx="105.86666666666667" cy="169.8121307240408" r="4.5" fill="crimson" /><circle cx="126.29999999999998" cy="144.1820482156506" r="4.5" fill="crimson" /><circle cx="146.73333333333335" cy="113.47200988817956" r="4.5" fill="crimson" /><circle cx="167.16666666666666" cy="84.03631946010191" r="4.5" fill="crimson" /><circle cx="187.59999999999997" cy="61.784114265414445" r="4.5" fill="crimson" /><circle cx="208.0333333333333" cy="50.115133575923096" r="4.5" fill="crimson" /><circle cx="228.46666666666667" cy="48.73209186248789" r="4.5" fill="crimson" /><circle cx="248.89999999999998" cy="53.74452918330985" r="4.5" fill="crimson" /></g><text x="316.3333333333333" y="58" font-size="16" text-anchor="start" font-weight="bold">B</text><g transform="translate(606.6666666666666,40)"><line x1="65" y1="198.5" x2="269.3333333333333" y2="198.5" stroke="black" stroke-width="1" /><line x1="65" y1="42" x2="65" y2="198.5" stroke="black" stroke-width="1" /><line x1="105.86666666666667" y1="42" x2="105.86666666666667" y2="198.5" stroke="#ccc" stroke-width="1" /><line x1="146.73333333333335" y1="42" x2="146.73333333333335" y2="198.5" stroke="#ccc" stroke-width="1" /><line x1="187.59999999999997" y1="42" x2="187.59999999999997" y2="198.5" stroke="#ccc" stroke-width="1" /><line x1="228.46666666666667" y1="42" x2="228.46666666666667" y2="198.5" stroke="#ccc" stroke-width="1" /><line x1="269.3333333333333" y1="42" x2="269.3333333333333" y2="198.5" stroke="#ccc" stroke-width="1" /><line x1="65" y1="167.2" x2="269.3333333333333" y2="167.2" stroke="#ccc" stroke-width="1" /><line x1="65" y1="135.9" x2="269.3333333333333" y2="135.9" stroke="#ccc" stroke-width="1" /><line x1="65" y1="104.60000000000001" x2="269.3333333333333" y2="104.60000000000001" stroke="#ccc" stroke-width="1" /><line x1="65" y1="73.3" x2="269.3333333333333" y2="73.3" stroke="#ccc" stroke-width="1" /><line x1="65" y1="42" x2="269.3333333333333" y2="42" stroke="#ccc" stroke-width="1" /><line x1="65" y1="198.5" x2="65" y2="203.5" stroke="black" stroke-width="1" /><text x="65" y="213.5" font-size="10" text-anchor="middle">0</text><line x1="105.86666666666667" y1="198.5" x2="105.86666666666667" y2="203.5" stroke="black" stroke-width="1" /><text x="105.86666666666667" y="213.5" font-size="10" text-anchor="middle">2</text><line x1="146.73333333333335" y1="198.5" x2="146.73333333333335" y2="203.5" stroke="black" stroke-width="1" /><text x="146.73333333333335" y="213.5" font-size="10" text-anchor="middle">4</text><line x1="187.59999999999997" y1="198.5" x2="187.59999999999997" y2="203.5" stroke="black" stroke-width="1" /><text x="187.59999999999997" y="213.5" font-size="10" text-anchor="middle">6</text><line x1="228.46666666666667" y1="198.5" x2="228.46666666666667" y2="203.5" stroke="black" stroke-width="1" /><text x="228.46666666666667" y="213.5" font-size="10" text-anchor="middle">8</text><line x1="269.3333333333333" y1="198.5" x2="269.3333333333333" y2="203.5" stroke="black" stroke-width="1" /><text x="269.3333333333333" y="213.5" font-size="10" text-anchor="middle">10</text><line x1="60" y1="198.5" x2="65" y2="198.5" stroke="black" stroke-width="1" /><text x="57" y="202" font-size="10" text-anchor="end">-2</text><line x1="60" y1="167.2" x2="65" y2="167.2" stroke="black" stroke-width="1" /><text x="57" y="170.7" font-size="10" text-anchor="end">0</text><line x1="60" y1="135.9" x2="65" y2="135.9" stroke="black" stroke-width="1" /><text x="57" y="139.4" font-size="10" text-anchor="end">2</text><line x1="60" y1="104.60000000000001" x2="65" y2="104.60000000000001" stroke="black" stroke-width="1" /><text x="57" y="108.10000000000001" font-size="10" text-anchor="end">4</text><line x1="60" y1="73.3" x2="65" y2="73.3" stroke="black" stroke-width="1" /><text x="57" y="76.8" font-size="10" text-anchor="end">6</text><line x1="60" y1="42" x2="65" y2="42" stroke="black" stroke-width="1" /><text x="57" y="45.5" font-size="10" text-anchor="end">8</text><text x="141.66666666666666" y="21" font-size="16" text-anchor="middle">Gamma</text><circle cx="65" cy="197.21432979695624" r="4.5" fill="seagreen" /><circle cx="85.43333333333334" cy="174.43864576540366" r="4.5" fill="seagreen" /><circle cx="105.86666666666667" cy="144.76069830818764" r="4.5" fill="seagreen" /><circle cx="126.29999999999998" cy="114.17425210936156" r="4.5" fill="seagreen" /><circle cx="146.73333333333335" cy="88.99043660109608" r="4.5" fill="seagreen" /><circle cx="167.16666666666666" cy="73.63308688068815" r="4.5" fill="seagreen" /><circle cx="187.59999999999997" cy="69.09337083654023" r="4.5" fill="seagreen" /><circle cx="208.0333333333333" cy="72.58354568866223" r="4.5" fill="seagreen" /><circle cx="228.46666666666667" cy="78.51079674558535" r="4.5" fill="seagreen" /><circle cx="248.89999999999998" cy="80.43096848238092" r="4.5" fill="seagreen" /></g><text x="614.6666666666666" y="58" font-size="16" text-anchor="start" font-weight="bold">C</text><g transform="translate(10,302.5)"><line x1="65" y1="198.5" x2="269.3333333333333" y2="198.5" stroke="black" stroke-width="1" /><line x1="65" y1="42" x2="65" y2="198.5" stroke="black" stroke-width="1" /><line x1="105.86666666666667" y1="42" x2="105.86666666666667" y2="198.5" stroke="#ccc" stroke-width="1" /><line x1="146.73333333333335" y1="42" x2="146.73333333333335" y2="198.5" stroke="#ccc" stroke-width="1" /><line x1="187.59999999999997" y1="42" x2="187.59999999999997" y2="198.5" stroke="#ccc" stroke-width="1" /><line x1="228.46666666666667" y1="42" x2="228.46666666666667" y2="198.5" stroke="#ccc" stroke-width="1" /><line x1="269.3333333333333" y1="42" x2="269.3333333333333" y2="198.5" stroke="#ccc" stroke-width="1" /><line x1="65" y1="167.2" x2="269.3333333333333" y2="167.2" stroke="#ccc" stroke-width="1" /><line x1="65" y1="135.9" x2="269.3333333333333" y2="135.9" stroke="#ccc" stroke-width="1" /><line x1="65" y1="104.60000000000001" x2="269.3333333333333" y2="104.60000000000001" stroke="#ccc" stroke-width="1" /><line x1="65" y1="73.3" x2="269.3333333333333" y2="73.3" stroke="#ccc" stroke-width="1" /><line x1="65" y1="42" x2="269.3333333333333" y2="42" stroke="#ccc" stroke-width="1" /><line x1="65" y1="198.5" x2="65" y2="203.5" stroke="black" stroke-width="1" /><text x="65" y="213.5" font-size="10" text-anchor="middle">0</text><line x1="105.86666666666667" y1="198.5" x2="105.86666666666667" y2="203.5" stroke="black" stroke-width="1" /><text x="105.86666666666667" y="213.5" font-size="10" text-anchor="middle">2</text><line x1="146.73333333333335" y1="198.5" x2="146.73333333333335" y2="203.5" stroke="black" stroke-width="1" /><text x="146.73333333333335" y="213.5" font-size="10" text-anchor="middle">4</text><line x1="187.59999999999997" y1="198.5" x2="187.59999999999997" y2="203.5" stroke="black" stroke-width="1" /><text x="187.59999999999997" y="213.5" font-size="10" text-anchor="middle">6</text><line x1="228.46666666666667" y1="198.5" x2="228.46666666666667" y2="203.5" stroke="black" stroke-width="1" /><text x="228.46666666666667" y="213.5" font-size="10" text-anchor="middle">8</text><line x1="269.3333333333333" y1="198.5" x2="269.3333333333333" y2="203.5" stroke="black" stroke-width="1" /><text x="269.3333333333333" y="213.5" font-size="10" text-anchor="middle">10</text><line x1="60" y1="198.5" x2="65" y2="198.5" stroke="black" stroke-width="1" /><text x="57" y="202" font-size="10" text-anchor="end">-2</text><line x1="60" y1="167.2" x2="65" y2="167.2" stroke="black" stroke-width="1" /><text x="57" y="170.7" font-size="10" text-anchor="end">0</text><line x1="60" y1="135.9" x2="65" y2="135.9" stroke="black" stroke-width="1" /><text x="57" y="139.4" font-size="10" text-anchor="end">2</text><line x1="60" y1="104.60000000000001" x2="65" y2="104.60000000000001" stroke="black" stroke-width="1" /><text x="57" y="108.10000000000001" font-size="10" text-anchor="end">4</text><line x1="60" y1="73.3" x2="65" y2="73.3" stroke="black" stroke-width="1" /><text x="57" y="76.8" font-size="10" text-anchor="end">6</text><line x1="60" y1="42" x2="65" y2="42" stroke="black" stroke-width="1" /><text x="57" y="45.5" font-size="10" text-anchor="end">8</text><text x="141.66666666666666" y="21" font-size="16" text-anchor="middle">Delta</text><circle cx="65" cy="197.21432979695624" r="4.5" fill="darkorange" /><circle cx="85.43333333333334" cy="174.43864576540366" r="4.5" fill="darkorange" /><circle cx="105.86666666666667" cy="144.76069830818764" r="4.5" fill="darkorange" /><circle cx="126.29999999999998" cy="114.17425210936156" r="4.5" fill="darkorange" /><circle cx="146.73333333333335" cy="88.99043660109608" r="4.5" fill="darkorange" /><circle cx="167.16666666666666" cy="73.63308688068815" r="4.5" fill="darkorange" /><circle cx="187.59999999999997" cy="69.09337083654023" r="4.5" fill="darkorange" /><circle cx="208.0333333333333" cy="72.58354568866223" r="4.5" fill="darkorange" /><circle cx="228.46666666666667" cy="78.51079674558535" r="4.5" fill="darkorange" /><circle cx="248.89999999999998" cy="80.43096848238092" r="4.5" fill="darkorange" /></g><text x="18" y="320.5" font-size="16" text-anchor="start" font-weight="bold">D</text><g transform="translate(308.3333333333333,302.5)"><line x1="65" y1="198.5" x2="269.3333333333333" y2="198.5" stroke="black" stroke-width="1" /><line x1="65" y1="42" x2="65" y2="198.5" stroke="black" stroke-width="1" /><line x1="105.86666666666667" y1="42" x2="105.86666666666667" y2="198.5" stroke="#ccc" stroke-width="1" /><line x1="146.73333333333335" y1="42" x2="146.73333333333335" y2="198.5" stroke="#ccc" stroke-width="1" /><line x1="187.59999999999997" y1="42" x2="187.59999999999997" y2="198.5" stroke="#ccc" stroke-width="1" /><line x1="228.46666666666667" y1="42" x2="228.46666666666667" y2="198.5" stroke="#ccc" stroke-width="1" /><line x1="269.3333333333333" y1="42" x2="269.3333333333333" y2="198.5" stroke="#ccc" stroke-width="1" /><line x1="65" y1="176.14285714285714" x2="269.3333333333333" y2="176.14285714285714" stroke="#ccc" stroke-width="1" /><line x1="65" y1="153.78571428571428" x2="269.3333333333333" y2="153.78571428571428" stroke="#ccc" stroke-width="1" /><line x1="65" y1="131.42857142857144" x2="269.3333333333333" y2="131.42857142857144" stroke="#ccc" stroke-width="1" /><line x1="65" y1="109.07142857142857" x2="269.3333333333333" y2="109.07142857142857" stroke="#ccc" stroke-width="1" /><line x1="65" y1="86.71428571428571" x2="269.3333333333333" y2="86.71428571428571" stroke="#ccc" stroke-width="1" /><line x1="65" y1="64.35714285714286" x2="269.3333333333333" y2="64.35714285714286" stroke="#ccc" stroke-width="1" /><line x1="65" y1="42" x2="269.3333333333333" y2="42" stroke="#ccc" stroke-width="1" /><line x1="65" y1="198.5" x2="65" y2="203.5" stroke="black" stroke-width="1" /><text x="65" y="213.5" font-size="10" text-anchor="middle">0</text><line x1="105.86666666666667" y1="198.5" x2="105.86666666666667" y2="203.5" stroke="black" stroke-width="1" /><text x="105.86666666666667" y="213.5" font-size="10" text-anchor="middle">2</text><line x1="146.73333333333335" y1="198.5" x2="146.73333333333335" y2="203.5" stroke="black" stroke-width="1" /><text x="146.73333333333335" y="213.5" font-size="10" text-anchor="middle">4</text><line x1="187.59999999999997" y1="198.5" x2="187.59999999999997" y2="203.5" stroke="black" stroke-width="1" /><text x="187.59999999999997" y="213.5" font-size="10" text-anchor="middle">6</text><line x1="228.46666666666667" y1="198.5" x2="228.46666666666667" y2="203.5" stroke="black" stroke-width="1" /><text x="228.46666666666667" y="213.5" font-size="10" text-anchor="middle">8</text><line x1="269.3333333333333" y1="198.5" x2="269.3333333333333" y2="203.5" stroke="black" stroke-width="1" /><text x="269.3333333333333" y="213.5" font-size="10" text-anchor="middle">10</text><line x1="60" y1="198.5" x2="65" y2="198.5" stroke="black" stroke-width="1" /><text x="57" y="202" font-size="10" text-anchor="end">0</text><line x1="60" y1="176.14285714285714" x2="65" y2="176.14285714285714" stroke="black" stroke-width="1" /><text x="57" y="179.64285714285714" font-size="10" text-anchor="end">1</text><line x1="60" y1="153.78571428571428" x2="65" y2="153.78571428571428" stroke="black" stroke-width="1" /><text x="57" y="157.28571428571428" font-size="10" text-anchor="end">2</text><line x1="60" y1="131.42857142857144" x2="65" y2="131.42857142857144" stroke="black" stroke-width="1" /><text x="57" y="134.92857142857144" font-size="10" text-anchor="end">3</text><line x1="60" y1="109.07142857142857" x2="65" y2="109.07142857142857" stroke="black" stroke-width="1" /><text x="57" y="112.57142857142857" font-size="10" text-anchor="end">4</text><line x1="60" y1="86.71428571428571" x2="65" y2="86.71428571428571" stroke="black" stroke-width="1" /><text x="57" y="90.21428571428571" font-size="10" text-anchor="end">5</text><line x1="60" y1="64.35714285714286" x2="65" y2="64.35714285714286" stroke="black" stroke-width="1" /><text x="57" y="67.85714285714286" font-size="10" text-anchor="end">6</text><line x1="60" y1="42" x2="65" y2="42" stroke="black" stroke-width="1" /><text x="57" y="45.5" font-size="10" text-anchor="end">7</text><text x="141.66666666666666" y="21" font-size="16" text-anchor="middle">Epsilon</text><circle cx="65" cy="169.1233135144313" r="4.5" fill="mediumpurple" /><circle cx="85.43333333333334" cy="137.3344489505921" r="4.5" fill="mediumpurple" /><circle cx="105.86666666666667" cy="120.66447653703301" r="4.5" fill="mediumpurple" /><circle cx="126.29999999999998" cy="118.68870266069693" r="4.5" fill="mediumpurple" /><circle cx="146.73333333333335" cy="125.84932740472841" r="4.5" fill="mediumpurple" /><circle cx="167.16666666666666" cy="133.39694395833897" r="4.5" fill="mediumpurple" /><circle cx="187.59999999999997" cy="132.44695813782977" r="4.5" fill="mediumpurple" /><circle cx="208.0333333333333" cy="117.08323274633747" r="4.5" fill="mediumpurple" /><circle cx="228.46666666666667" cy="86.42476450503418" r="4.5" fill="mediumpurple" /><circle cx="248.89999999999998" cy="44.9334438450459" r="4.5" fill="mediumpurple" /></g><text x="316.3333333333333" y="320.5" font-size="16" text-anchor="start" font-weight="bold">E</text><g transform="translate(606.6666666666666,302.5)"><line x1="65" y1="198.5" x2="269.3333333333333" y2="198.5" stroke="black" stroke-width="1" /><line x1="65" y1="42" x2="65" y2="198.5" stroke="black" stroke-width="1" /><line x1="105.86666666666667" y1="42" x2="105.86666666666667" y2="198.5" stroke="#ccc" stroke-width="1" /><line x1="146.73333333333335" y1="42" x2="146.73333333333335" y2="198.5" stroke="#ccc" stroke-width="1" /><line x1="187.59999999999997" y1="42" x2="187.59999999999997" y2="198.5" stroke="#ccc" stroke-width="1" /><line x1="228.46666666666667" y1="42" x2="228.46666666666667" y2="198.5" stroke="#ccc" stroke-width="1" /><line x1="269.3333333333333" y1="42" x2="269.3333333333333" y2="198.5" stroke="#ccc" stroke-width="1" /><line x1="65" y1="167.2" x2="269.3333333333333" y2="167.2" stroke="#ccc" stroke-width="1" /><line x1="65" y1="135.9" x2="269.3333333333333" y2="135.9" stroke="#ccc" stroke-width="1" /><line x1="65" y1="104.60000000000001" x2="269.3333333333333" y2="104.60000000000001" stroke="#ccc" stroke-width="1" /><line x1="65" y1="73.3" x2="269.3333333333333" y2="73.3" stroke="#ccc" stroke-width="1" /><line x1="65" y1="42" x2="269.3333333333333" y2="42" stroke="#ccc" stroke-width="1" /><line x1="65" y1="198.5" x2="65" y2="203.5" stroke="black" stroke-width="1" /><text x="65" y="213.5" font-size="10" text-anchor="middle">0</text><line x1="105.86666666666667" y1="198.5" x2="105.86666666666667" y2="203.5" stroke="black" stroke-width="1" /><text x="105.86666666666667" y="213.5" font-size="10" text-anchor="middle">2</text><line x1="146.73333333333335" y1="198.5" x2="146.73333333333335" y2="203.5" stroke="black" stroke-width="1" /><text x="146.73333333333335" y="213.5" font-size="10" text-anchor="middle">4</text><line x1="187.59999999999997" y1="198.5" x2="187.59999999999997" y2="203.5" stroke="black" stroke-width="1" /><text x="187.59999999999997" y="213.5" font-size="10" text-anchor="middle">6</text><line x1="228.46666666666667" y1="198.5" x2="228.46666666666667" y2="203.5" stroke="black" stroke-width="1" /><text x="228.46666666666667" y="213.5" font-size="10" text-anchor="middle">8</text><line x1="269.3333333333333" y1="198.5" x2="269.3333333333333" y2="203.5" stroke="black" stroke-width="1" /><text x="269.3333333333333" y="213.5" font-size="10" text-anchor="middle">10</text><line x1="60" y1="198.5" x2="65" y2="198.5" stroke="black" stroke-width="1" /><text x="57" y="202" font-size="10" text-anchor="end">-2</text><line x1="60" y1="167.2" x2="65" y2="167.2" stroke="black" stroke-width="1" /><text x="57" y="170.7" font-size="10" text-anchor="end">0</text><line x1="60" y1="135.9" x2="65" y2="135.9" stroke="black" stroke-width="1" /><text x="57" y="139.4" font-size="10" text-anchor="end">2</text><line x1="60" y1="104.60000000000001" x2="65" y2="104.60000000000001" stroke="black" stroke-width="1" /><text x="57" y="108.10000000000001" font-size="10" text-anchor="end">4</text><line x1="60" y1="73.3" x2="65" y2="73.3" stroke="black" stroke-width="1" /><text x="57" y="76.8" font-size="10" text-anchor="end">6</text><line x1="60" y1="42" x2="65" y2="42" stroke="black" stroke-width="1" /><text x="57" y="45.5" font-size="10" text-anchor="end">8</text><text x="141.66666666666666" y="21" font-size="16" text-anchor="middle">Zeta</text><circle cx="65" cy="190.88791810313816" r="4.5" fill="teal" /><circle cx="85.43333333333334" cy="185.78252841372745" r="4.5" fill="teal" /><circle cx="105.86666666666667" cy="169.8121307240408" r="4.5" fill="teal" /><circle cx="126.29999999999998" cy="144.1820482156506" r="4.5" fill="teal" /><circle cx="146.73333333333335" cy="113.47200988817956" r="4.5" fill="teal" /><circle cx="167.16666666666666" cy="84.03631946010191" r="4.5" fill="teal" /><circle cx="187.59999999999997" cy="61.784114265414445" r="4.5" fill="teal" /><circle cx="208.0333333333333" cy="50.115133575923096" r="4.5" fill="teal" /><circle cx="228.46666666666667" cy="48.73209186248789" r="4.5" fill="teal" /><circle cx="248.89999999999998" cy="53.74452918330985" r="4.5" fill="teal" /></g><text x="614.6666666666666" y="320.5" font-size="16" text-anchor="start" font-weight="bold">F</text><text x="450" y="22" font-size="20" text-anchor="middle">Fixed 900 × 560 figure — cells auto-sized</text></svg>