<svg xmlns="http://www.w3.org/2000/svg" width="679" height="541" fill="black"><rect width="100%" height="100%" fill="white" /><line x1="65" y1="492" x2="665" y2="492" stroke="black" stroke-width="1" /><line x1="65" y1="42" x2="65" y2="492" stroke="black" stroke-width="1" /><line x1="65" y1="402" x2="665" y2="402" stroke="#ccc" stroke-width="1" /><line x1="65" y1="312" x2="665" y2="312" stroke="#ccc" stroke-width="1" /><line x1="65" y1="222" x2="665" y2="222" stroke="#ccc" stroke-width="1" /><line x1="65" y1="132" x2="665" y2="132" stroke="#ccc" stroke-width="1" /><line x1="65" y1="42" x2="665" y2="42" stroke="#ccc" stroke-width="1" /><text x="140" y="507" font-size="10" text-anchor="middle">Revenue</text><line x1="140" y1="492" x2="140" y2="497" stroke="black" stroke-width="1" /><text x="215" y="507" font-size="10" text-anchor="middle">Cost of goods</text><line x1="215" y1="492" x2="215" y2="497" stroke="black" stroke-width="1" /><text x="290" y="507" font-size="10" text-anchor="middle">Personnel</text><line x1="290" y1="492" x2="290" y2="497" stroke="black" stroke-width="1" /><text x="365" y="507" font-size="10" text-anchor="middle">Operations</text><line x1="365" y1="492" x2="365" y2="497" stroke="black" stroke-width="1" /><text x="440" y="507" font-size="10" text-anchor="middle">Marketing</text><line x1="440" y1="492" x2="440" y2="497" stroke="black" stroke-width="1" /><text x="515" y="507" font-size="10" text-anchor="middle">Other income</text><line x1="515" y1="492" x2="515" y2="497" stroke="black" stroke-width="1" /><text x="590" y="507" font-size="10" text-anchor="middle">Tax</text><line x1="590" y1="492" x2="590" y2="497" stroke="black" stroke-width="1" /><line x1="60" y1="492" x2="65" y2="492" stroke="black" stroke-width="1" /><text x="57" y="495.5" font-size="10" text-anchor="end">0</text><line x1="60" y1="402" x2="65" y2="402" stroke="black" stroke-width="1" /><text x="57" y="405.5" font-size="10" text-anchor="end">200</text><line x1="60" y1="312" x2="65" y2="312" stroke="black" stroke-width="1" /><text x="57" y="315.5" font-size="10" text-anchor="end">400</text><line x1="60" y1="222" x2="65" y2="222" stroke="black" stroke-width="1" /><text x="57" y="225.5" font-size="10" text-anchor="end">600</text><line x1="60" y1="132" x2="65" y2="132" stroke="black" stroke-width="1" /><text x="57" y="135.5" font-size="10" text-anchor="end">800</text><line x1="60" y1="42" x2="65" y2="42" stroke="black" stroke-width="1" /><text x="57" y="45.5" font-size="10" text-anchor="end">1000</text><text x="14" y="270.5" font-size="14" text-anchor="middle" transform="rotate(-90,14,270.5)">USD (thousands)</text><text x="339.5" y="21" font-size="16" text-anchor="middle">Revenue Breakdown</text><rect x="117.5" y="109.5" width="45" height="382.5" fill="rgb(68,170,68)" /><rect x="192.5" y="109.5" width="45" height="153" fill="rgb(204,68,68)" /><rect x="267.5" y="262.5" width="45" height="81" fill="rgb(204,68,68)" /><rect x="342.5" y="343.5" width="45" height="40.5" fill="rgb(204,68,68)" /><rect x="417.5" y="384" width="45" height="31.5" fill="rgb(204,68,68)" /><rect x="492.5" y="390.75" width="45" height="24.75" fill="rgb(68,170,68)" /><rect x="567.5" y="390.75" width="45" height="38.25" fill="rgb(204,68,68)" /></svg>