<svg xmlns="http://www.w3.org/2000/svg" width="679" height="541" fill="black"><rect width="100%" height="100%" fill="white" /><line x1="65" y1="492" x2="665" y2="492" stroke="black" stroke-width="1" /><line x1="65" y1="42" x2="65" y2="492" stroke="black" stroke-width="1" /><line x1="65" y1="363.42857142857144" x2="665" y2="363.42857142857144" stroke="#ccc" stroke-width="1" /><line x1="65" y1="234.8571428571429" x2="665" y2="234.8571428571429" stroke="#ccc" stroke-width="1" /><line x1="65" y1="106.28571428571433" x2="665" y2="106.28571428571433" stroke="#ccc" stroke-width="1" /><text x="115" y="507" font-size="10" text-anchor="middle">Q1 sales</text><line x1="115" y1="492" x2="115" y2="497" stroke="black" stroke-width="1" /><text x="165" y="507" font-size="10" text-anchor="middle">Q2 sales</text><line x1="165" y1="492" x2="165" y2="497" stroke="black" stroke-width="1" /><text x="215" y="507" font-size="10" text-anchor="middle">Returns</text><line x1="215" y1="492" x2="215" y2="497" stroke="black" stroke-width="1" /><text x="265" y="507" font-size="10" text-anchor="middle">Discounts</text><line x1="265" y1="492" x2="265" y2="497" stroke="black" stroke-width="1" /><text x="315" y="507" font-size="10" text-anchor="middle">H1 net</text><line x1="315" y1="492" x2="315" y2="497" stroke="black" stroke-width="1" /><text x="365" y="507" font-size="10" text-anchor="middle">Q3 sales</text><line x1="365" y1="492" x2="365" y2="497" stroke="black" stroke-width="1" /><text x="415" y="507" font-size="10" text-anchor="middle">Q4 sales</text><line x1="415" y1="492" x2="415" y2="497" stroke="black" stroke-width="1" /><text x="465" y="507" font-size="10" text-anchor="middle">Returns</text><line x1="465" y1="492" x2="465" y2="497" stroke="black" stroke-width="1" /><text x="515" y="507" font-size="10" text-anchor="middle">Discounts</text><line x1="515" y1="492" x2="515" y2="497" stroke="black" stroke-width="1" /><text x="565" y="507" font-size="10" text-anchor="middle">H2 net</text><line x1="565" y1="492" x2="565" y2="497" stroke="black" stroke-width="1" /><line x1="60" y1="492" x2="65" y2="492" stroke="black" stroke-width="1" /><text x="57" y="495.5" font-size="10" text-anchor="end">0</text><line x1="60" y1="363.42857142857144" x2="65" y2="363.42857142857144" stroke="black" stroke-width="1" /><text x="57" y="366.92857142857144" font-size="10" text-anchor="end">500</text><line x1="60" y1="234.8571428571429" x2="65" y2="234.8571428571429" stroke="black" stroke-width="1" /><text x="57" y="238.3571428571429" font-size="10" text-anchor="end">1000</text><line x1="60" y1="106.28571428571433" x2="65" y2="106.28571428571433" stroke="black" stroke-width="1" /><text x="57" y="109.78571428571433" font-size="10" text-anchor="end">1500</text><text x="14" y="270.5" font-size="14" text-anchor="middle" transform="rotate(-90,14,270.5)">USD (thousands)</text><text x="339.5" y="21" font-size="16" text-anchor="middle">Sales – Connectors + Values</text><rect x="100" y="384" width="30" height="108" fill="rgb(68,170,68)" /><text x="115" y="379" font-size="12" text-anchor="middle">+420.00</text><line x1="130" y1="384" x2="150" y2="384" stroke="gray" stroke-width="1" stroke-dasharray="4,3" /><rect x="150" y="286.28571428571433" width="30" height="97.71428571428567" fill="rgb(68,170,68)" /><text x="165" y="281.28571428571433" font-size="12" text-anchor="middle">+380.00</text><line x1="180" y1="286.28571428571433" x2="200" y2="286.28571428571433" stroke="gray" stroke-width="1" stroke-dasharray="4,3" /><rect x="200" y="286.28571428571433" width="29.99999999999997" height="24.428571428571388" fill="rgb(204,68,68)" /><text x="215" y="325.7142857142857" font-size="12" text-anchor="middle">-95.00</text><line x1="229.99999999999997" y1="310.7142857142857" x2="250" y2="310.7142857142857" stroke="gray" stroke-width="1" stroke-dasharray="4,3" /><rect x="250" y="310.7142857142857" width="30" height="15.428571428571388" fill="rgb(204,68,68)" /><text x="265" y="341.1428571428571" font-size="12" text-anchor="middle">-60.00</text><line x1="280" y1="326.1428571428571" x2="300" y2="326.1428571428571" stroke="gray" stroke-width="1" stroke-dasharray="4,3" /><rect x="300" y="326.1428571428571" width="30" height="165.8571428571429" fill="steelblue" /><text x="315" y="321.1428571428571" font-size="12" text-anchor="middle">645.00</text><line x1="330" y1="326.1428571428571" x2="350" y2="326.1428571428571" stroke="gray" stroke-width="1" stroke-dasharray="4,3" /><rect x="350" y="220.71428571428572" width="30" height="105.42857142857139" fill="rgb(68,170,68)" /><text x="365" y="215.71428571428572" font-size="12" text-anchor="middle">+410.00</text><line x1="380" y1="220.71428571428572" x2="400" y2="220.71428571428572" stroke="gray" stroke-width="1" stroke-dasharray="4,3" /><rect x="400" y="103.71428571428572" width="29.999999999999943" height="117" fill="rgb(68,170,68)" /><text x="415" y="98.71428571428572" font-size="12" text-anchor="middle">+455.00</text><line x1="429.99999999999994" y1="103.71428571428572" x2="450.00000000000006" y2="103.71428571428572" stroke="gray" stroke-width="1" stroke-dasharray="4,3" /><rect x="450.00000000000006" y="103.71428571428572" width="30" height="27" fill="rgb(204,68,68)" /><text x="465.00000000000006" y="145.71428571428572" font-size="12" text-anchor="middle">-105.00</text><line x1="480.00000000000006" y1="130.71428571428572" x2="500" y2="130.71428571428572" stroke="gray" stroke-width="1" stroke-dasharray="4,3" /><rect x="500" y="130.71428571428572" width="30" height="18" fill="rgb(204,68,68)" /><text x="515" y="163.71428571428572" font-size="12" text-anchor="middle">-70.00</text><line x1="530" y1="148.71428571428572" x2="550" y2="148.71428571428572" stroke="gray" stroke-width="1" stroke-dasharray="4,3" /><rect x="550" y="148.71428571428572" width="30" height="343.2857142857143" fill="steelblue" /><text x="565" y="143.71428571428572" font-size="12" text-anchor="middle">1335.00</text></svg>