<svg xmlns="http://www.w3.org/2000/svg" width="679" height="541" fill="black"><rect width="100%" height="100%" fill="white" /><line x1="65" y1="492" x2="665" y2="492" stroke="black" stroke-width="1" /><line x1="65" y1="42" x2="65" y2="492" stroke="black" stroke-width="1" /><line x1="65" y1="402" x2="665" y2="402" stroke="#ccc" stroke-width="1" /><line x1="65" y1="312" x2="665" y2="312" stroke="#ccc" stroke-width="1" /><line x1="65" y1="222" x2="665" y2="222" stroke="#ccc" stroke-width="1" /><line x1="65" y1="132" x2="665" y2="132" stroke="#ccc" stroke-width="1" /><line x1="65" y1="42" x2="665" y2="42" stroke="#ccc" stroke-width="1" /><text x="115" y="507" font-size="10" text-anchor="middle">Revenue</text><line x1="115" y1="492" x2="115" y2="497" stroke="black" stroke-width="1" /><text x="165" y="507" font-size="10" text-anchor="middle">Cost of goods</text><line x1="165" y1="492" x2="165" y2="497" stroke="black" stroke-width="1" /><text x="215" y="507" font-size="10" text-anchor="middle">Gross profit</text><line x1="215" y1="492" x2="215" y2="497" stroke="black" stroke-width="1" /><text x="265" y="507" font-size="10" text-anchor="middle">Personnel</text><line x1="265" y1="492" x2="265" y2="497" stroke="black" stroke-width="1" /><text x="315" y="507" font-size="10" text-anchor="middle">Operations</text><line x1="315" y1="492" x2="315" y2="497" stroke="black" stroke-width="1" /><text x="365" y="507" font-size="10" text-anchor="middle">Marketing</text><line x1="365" y1="492" x2="365" y2="497" stroke="black" stroke-width="1" /><text x="415" y="507" font-size="10" text-anchor="middle">EBITDA</text><line x1="415" y1="492" x2="415" y2="497" stroke="black" stroke-width="1" /><text x="465" y="507" font-size="10" text-anchor="middle">Depreciation</text><line x1="465" y1="492" x2="465" y2="497" stroke="black" stroke-width="1" /><text x="515" y="507" font-size="10" text-anchor="middle">Interest</text><line x1="515" y1="492" x2="515" y2="497" stroke="black" stroke-width="1" /><text x="565" y="507" font-size="10" text-anchor="middle">Tax</text><line x1="565" y1="492" x2="565" y2="497" stroke="black" stroke-width="1" /><text x="615" y="507" font-size="10" text-anchor="middle">Net income</text><line x1="615" y1="492" x2="615" y2="497" stroke="black" stroke-width="1" /><line x1="60" y1="492" x2="65" y2="492" stroke="black" stroke-width="1" /><text x="57" y="495.5" font-size="10" text-anchor="end">0</text><line x1="60" y1="402" x2="65" y2="402" stroke="black" stroke-width="1" /><text x="57" y="405.5" font-size="10" text-anchor="end">200</text><line x1="60" y1="312" x2="65" y2="312" stroke="black" stroke-width="1" /><text x="57" y="315.5" font-size="10" text-anchor="end">400</text><line x1="60" y1="222" x2="65" y2="222" stroke="black" stroke-width="1" /><text x="57" y="225.5" font-size="10" text-anchor="end">600</text><line x1="60" y1="132" x2="65" y2="132" stroke="black" stroke-width="1" /><text x="57" y="135.5" font-size="10" text-anchor="end">800</text><line x1="60" y1="42" x2="65" y2="42" stroke="black" stroke-width="1" /><text x="57" y="45.5" font-size="10" text-anchor="end">1000</text><text x="14" y="270.5" font-size="14" text-anchor="middle" transform="rotate(-90,14,270.5)">USD (thousands)</text><text x="339.5" y="21" font-size="16" text-anchor="middle">Income Statement</text><rect x="100" y="109.5" width="30" height="382.5" fill="rgb(68,170,68)" /><rect x="150" y="109.5" width="30" height="153" fill="rgb(204,68,68)" /><rect x="200" y="262.5" width="29.99999999999997" height="229.5" fill="steelblue" /><rect x="250" y="262.5" width="30" height="81" fill="rgb(204,68,68)" /><rect x="300" y="343.5" width="30" height="40.5" fill="rgb(204,68,68)" /><rect x="350" y="384" width="30" height="31.5" fill="rgb(204,68,68)" /><rect x="400" y="415.5" width="29.999999999999943" height="76.5" fill="steelblue" /><rect x="450.00000000000006" y="415.5" width="30" height="18" fill="rgb(204,68,68)" /><rect x="500" y="433.5" width="30" height="9" fill="rgb(204,68,68)" /><rect x="550" y="442.5" width="30" height="29.25" fill="rgb(204,68,68)" /><rect x="600" y="471.75" width="30.000000000000114" height="20.25" fill="steelblue" /></svg>