<svg xmlns="http://www.w3.org/2000/svg" width="679" height="541" fill="black"><rect width="100%" height="100%" fill="white" /><line x1="65" y1="492" x2="665" y2="492" stroke="black" stroke-width="1" /><line x1="65" y1="42" x2="65" y2="492" stroke="black" stroke-width="1" /><line x1="165" y1="42" x2="165" y2="492" stroke="#ccc" stroke-width="1" /><line x1="265" y1="42" x2="265" y2="492" stroke="#ccc" stroke-width="1" /><line x1="365" y1="42" x2="365" y2="492" stroke="#ccc" stroke-width="1" /><line x1="465" y1="42" x2="465" y2="492" stroke="#ccc" stroke-width="1" /><line x1="565" y1="42" x2="565" y2="492" stroke="#ccc" stroke-width="1" /><line x1="665" y1="42" x2="665" y2="492" stroke="#ccc" stroke-width="1" /><line x1="65" y1="402" x2="665" y2="402" stroke="#ccc" stroke-width="1" /><line x1="65" y1="312" x2="665" y2="312" stroke="#ccc" stroke-width="1" /><line x1="65" y1="222" x2="665" y2="222" stroke="#ccc" stroke-width="1" /><line x1="65" y1="132" x2="665" y2="132" stroke="#ccc" stroke-width="1" /><line x1="65" y1="42" x2="665" y2="42" stroke="#ccc" stroke-width="1" /><line x1="65" y1="492" x2="65" y2="497" stroke="black" stroke-width="1" /><text x="65" y="507" font-size="10" text-anchor="middle">0</text><line x1="165" y1="492" x2="165" y2="497" stroke="black" stroke-width="1" /><text x="165" y="507" font-size="10" text-anchor="middle">2.5</text><line x1="265" y1="492" x2="265" y2="497" stroke="black" stroke-width="1" /><text x="265" y="507" font-size="10" text-anchor="middle">5</text><line x1="365" y1="492" x2="365" y2="497" stroke="black" stroke-width="1" /><text x="365" y="507" font-size="10" text-anchor="middle">7.5</text><line x1="465" y1="492" x2="465" y2="497" stroke="black" stroke-width="1" /><text x="465" y="507" font-size="10" text-anchor="middle">10</text><line x1="565" y1="492" x2="565" y2="497" stroke="black" stroke-width="1" /><text x="565" y="507" font-size="10" text-anchor="middle">12.5</text><line x1="665" y1="492" x2="665" y2="497" stroke="black" stroke-width="1" /><text x="665" y="507" font-size="10" text-anchor="middle">15</text><line x1="60" y1="492" x2="65" y2="492" stroke="black" stroke-width="1" /><text x="57" y="495.5" font-size="10" text-anchor="end">-1</text><line x1="60" y1="402" x2="65" y2="402" stroke="black" stroke-width="1" /><text x="57" y="405.5" font-size="10" text-anchor="end">-0.5</text><line x1="60" y1="312" x2="65" y2="312" stroke="black" stroke-width="1" /><text x="57" y="315.5" font-size="10" text-anchor="end">0</text><line x1="60" y1="222" x2="65" y2="222" stroke="black" stroke-width="1" /><text x="57" y="225.5" font-size="10" text-anchor="end">0.5</text><line x1="60" y1="132" x2="65" y2="132" stroke="black" stroke-width="1" /><text x="57" y="135.5" font-size="10" text-anchor="end">1</text><line x1="60" y1="42" x2="65" y2="42" stroke="black" stroke-width="1" /><text x="57" y="45.5" font-size="10" text-anchor="end">1.5</text><text x="339.5" y="534" font-size="14" text-anchor="middle">x</text><text x="14" y="270.5" font-size="14" text-anchor="middle" transform="rotate(-90,14,270.5)">e^(−0.15x) · cos(x)</text><text x="339.5" y="21" font-size="16" text-anchor="middle">Band Attached to Line</text><path d="M 65 95.99999999999994 L 71.28318530717958 102.35606877755299 L 77.56637061435917 112.68984712934173 L 83.84955592153875 126.56410767746178 L 90.13274122871834 143.47468075904237 L 96.41592653589794 162.86593446891584 L 102.69911184307752 184.14680771281127 L 108.98229715025711 206.70697652767063 L 115.26548245743669 229.9327499694822 L 121.54866776461628 253.22231710216528 L 127.83185307179586 276 L 134.11503837897544 297.729208005052 L 140.39822368615503 317.9238344483055 L 146.68140899333463 336.1578872588122 L 152.96459430051422 352.07319791863273 L 159.2477796076938 365.38510763876303 L 165.53096491487338 375.88608403065837 L 171.81415022205297 383.44727459241983 L 178.09733552923257 388.01805377608173 L 184.38052083641213 389.6236671316676 L 190.66370614359172 388.36111805674255 L 196.94689145077132 384.39347919956805 L 203.23007675795088 377.9428409253595 L 209.51326206513048 369.28213299537435 L 215.79644737231007 358.72607244855965 L 222.07963267948963 346.62150051876336 L 228.36281798666923 333.33737434705273 L 234.64600329384882 319.2546755049058 L 240.92918860102844 304.7564873290471 L 247.21237390820798 290.21847731745913 L 253.49555921538757 276 L 259.7787445225672 262.43601052258236 L 266.06192982974676 249.82995048979228 L 272.3451151369263 238.4477362648244 L 278.62830044410595 228.51294682061427 L 284.91148575128557 220.20327426714613 L 291.19467105846513 213.64826622225274 L 297.4778563656447 208.92835608136602 L 303.76104167282426 206.07514575099526 L 310.0442269800039 205.07287624099263 L 316.32741228718345 205.86099527243755 L 322.610597594363 208.33770826153477 L 328.89378290154264 212.3643800874775 L 335.1769682087222 217.77064023289995 L 341.46015351590177 224.36003337353748 L 347.7433388230814 231.91605134926073 L 354.02652413026095 240.2083806218176 L 360.30970943744063 248.99920166159555 L 366.59289474462014 258.04938295735394 L 372.8760800517997 267.1244221752547 L 379.15926535897927 276 L 385.4424506661589 284.467027905514 L 391.72563597333846 292.3360890142625 L 398.0088212805181 299.4411907713667 L 404.29200658769764 305.6427688247543 L 410.57519189487726 310.82990270693824 L 416.8583772020569 314.92172511135584 L 423.1415625092364 317.8680272255635 L 429.42474781641596 319.64908224096075 L 435.7079331235956 320.2747273672834 L 441.99111843077515 319.7827610587559 L 448.27430373795477 318.23672638897466 L 454.5574890451344 315.7231633422496 L 460.84067435231395 312.3484220397759 L 467.12385965949346 308.23513548090114 L 473.4070449666731 303.51845421529504 L 479.6902302738527 298.3421465021886 L 485.97341558103227 292.85466605404315 L 492.2566008882119 287.2052855595563 L 498.53978619539146 281.5403880432667 L 504.8229715025711 276 L 511.10615680975064 270.7146404328822 L 517.3893421169303 265.80254874268337 L 523.6725274241098 261.36734220193256 L 529.9557127312894 257.496140847517 L 536.238898038469 254.25818438911594 L 542.5220833456485 251.70395249883816 L 548.8052686528281 249.86478694503083 L 555.0884539600078 248.75300176252745 L 561.3716392671873 248.36245628530324 L 561.3716392671873 320.3624562853032 L 555.0884539600078 320.75300176252745 L 548.8052686528281 321.8647869450308 L 542.5220833456485 323.70395249883813 L 536.238898038469 326.2581843891159 L 529.9557127312894 329.496140847517 L 523.6725274241098 333.3673422019325 L 517.3893421169303 337.80254874268337 L 511.10615680975064 342.7146404328822 L 504.8229715025711 348 L 498.53978619539146 353.54038804326666 L 492.2566008882119 359.2052855595563 L 485.97341558103227 364.85466605404315 L 479.6902302738527 370.3421465021886 L 473.4070449666731 375.518454215295 L 467.12385965949346 380.2351354809011 L 460.84067435231395 384.3484220397759 L 454.5574890451344 387.7231633422496 L 448.27430373795477 390.2367263889747 L 441.99111843077515 391.7827610587559 L 435.7079331235956 392.2747273672834 L 429.42474781641596 391.64908224096075 L 423.1415625092364 389.8680272255635 L 416.8583772020569 386.9217251113558 L 410.57519189487726 382.82990270693824 L 404.29200658769764 377.6427688247543 L 398.0088212805181 371.4411907713667 L 391.72563597333846 364.3360890142625 L 385.4424506661589 356.467027905514 L 379.15926535897927 348 L 372.8760800517997 339.1244221752547 L 366.59289474462014 330.04938295735394 L 360.30970943744063 320.9992016615956 L 354.02652413026095 312.2083806218176 L 347.7433388230814 303.9160513492607 L 341.46015351590177 296.3600333735375 L 335.1769682087222 289.77064023289995 L 328.89378290154264 284.36438008747746 L 322.610597594363 280.3377082615348 L 316.32741228718345 277.8609952724376 L 310.0442269800039 277.0728762409927 L 303.76104167282426 278.07514575099526 L 297.4778563656447 280.928356081366 L 291.19467105846513 285.64826622225274 L 284.91148575128557 292.2032742671462 L 278.62830044410595 300.5129468206143 L 272.3451151369263 310.4477362648244 L 266.06192982974676 321.8299504897923 L 259.7787445225672 334.4360105225824 L 253.49555921538757 348 L 247.21237390820798 362.21847731745913 L 240.92918860102844 376.75648732904716 L 234.64600329384882 391.2546755049058 L 228.36281798666923 405.33737434705273 L 222.07963267948963 418.6215005187633 L 215.79644737231007 430.72607244855965 L 209.51326206513048 441.28213299537435 L 203.23007675795088 449.9428409253596 L 196.94689145077132 456.39347919956805 L 190.66370614359172 460.36111805674255 L 184.38052083641213 461.62366713166756 L 178.09733552923257 460.01805377608173 L 171.81415022205297 455.4472745924198 L 165.53096491487338 447.88608403065837 L 159.2477796076938 437.3851076387631 L 152.96459430051422 424.07319791863273 L 146.68140899333463 408.1578872588122 L 140.39822368615503 389.9238344483055 L 134.11503837897544 369.729208005052 L 127.83185307179586 348 L 121.54866776461628 325.22231710216533 L 115.26548245743669 301.9327499694822 L 108.98229715025711 278.7069765276706 L 102.69911184307752 256.14680771281127 L 96.41592653589794 234.86593446891584 L 90.13274122871834 215.47468075904237 L 83.84955592153875 198.56410767746178 L 77.56637061435917 184.68984712934173 L 71.28318530717958 174.35606877755305 L 65 168 Z" stroke="none" stroke-width="0" fill="firebrick" fill-opacity="0.2" /><path d="M 65 132 L 71.28318530717958 138.356068777553 L 77.56637061435917 148.68984712934167 L 83.84955592153875 162.56410767746183 L 90.13274122871834 179.47468075904237 L 96.41592653589794 198.86593446891584 L 102.69911184307752 220.14680771281127 L 108.98229715025711 242.7069765276706 L 115.26548245743669 265.9327499694822 L 121.54866776461628 289.22231710216533 L 127.83185307179586 312 L 134.11503837897544 333.729208005052 L 140.39822368615503 353.9238344483055 L 146.68140899333463 372.1578872588122 L 152.96459430051422 388.07319791863273 L 159.2477796076938 401.3851076387631 L 165.53096491487338 411.88608403065837 L 171.81415022205297 419.4472745924198 L 178.09733552923257 424.01805377608173 L 184.38052083641213 425.6236671316676 L 190.66370614359172 424.36111805674255 L 196.94689145077132 420.39347919956805 L 203.23007675795088 413.9428409253595 L 209.51326206513048 405.28213299537435 L 215.79644737231007 394.72607244855965 L 222.07963267948963 382.6215005187633 L 228.36281798666923 369.33737434705273 L 234.64600329384882 355.2546755049058 L 240.92918860102844 340.7564873290471 L 247.21237390820798 326.21847731745913 L 253.49555921538757 312 L 259.7787445225672 298.4360105225825 L 266.06192982974676 285.82995048979234 L 272.3451151369263 274.4477362648244 L 278.62830044410595 264.5129468206143 L 284.91148575128557 256.20327426714607 L 291.19467105846513 249.64826622225272 L 297.4778563656447 244.92835608136602 L 303.76104167282426 242.07514575099526 L 310.0442269800039 241.07287624099266 L 316.32741228718345 241.86099527243755 L 322.610597594363 244.33770826153477 L 328.89378290154264 248.3643800874775 L 335.1769682087222 253.7706402328999 L 341.46015351590177 260.3600333735375 L 347.7433388230814 267.9160513492607 L 354.02652413026095 276.2083806218176 L 360.30970943744063 284.9992016615955 L 366.59289474462014 294.04938295735394 L 372.8760800517997 303.12442217525467 L 379.15926535897927 312 L 385.4424506661589 320.467027905514 L 391.72563597333846 328.3360890142625 L 398.0088212805181 335.4411907713667 L 404.29200658769764 341.6427688247543 L 410.57519189487726 346.82990270693824 L 416.8583772020569 350.92172511135584 L 423.1415625092364 353.86802722556354 L 429.42474781641596 355.64908224096075 L 435.7079331235956 356.2747273672834 L 441.99111843077515 355.7827610587559 L 448.27430373795477 354.2367263889747 L 454.5574890451344 351.7231633422497 L 460.84067435231395 348.3484220397759 L 467.12385965949346 344.23513548090114 L 473.4070449666731 339.518454215295 L 479.6902302738527 334.3421465021886 L 485.97341558103227 328.85466605404315 L 492.2566008882119 323.2052855595563 L 498.53978619539146 317.5403880432667 L 504.8229715025711 312 L 511.10615680975064 306.7146404328822 L 517.3893421169303 301.80254874268337 L 523.6725274241098 297.3673422019325 L 529.9557127312894 293.496140847517 L 536.238898038469 290.2581843891159 L 542.5220833456485 287.7039524988382 L 548.8052686528281 285.8647869450308 L 555.0884539600078 284.75300176252745 L 561.3716392671873 284.3624562853032 " stroke="firebrick" stroke-width="2" fill="none" /></svg>