<svg xmlns="http://www.w3.org/2000/svg" width="679" height="541" fill="black"><rect width="100%" height="100%" fill="white" /><line x1="65" y1="492" x2="665" y2="492" stroke="black" stroke-width="1" /><line x1="65" y1="42" x2="65" y2="492" stroke="black" stroke-width="1" /><line x1="165" y1="42" x2="165" y2="492" stroke="#ccc" stroke-width="1" /><line x1="265" y1="42" x2="265" y2="492" stroke="#ccc" stroke-width="1" /><line x1="365" y1="42" x2="365" y2="492" stroke="#ccc" stroke-width="1" /><line x1="465" y1="42" x2="465" y2="492" stroke="#ccc" stroke-width="1" /><line x1="565" y1="42" x2="565" y2="492" stroke="#ccc" stroke-width="1" /><line x1="665" y1="42" x2="665" y2="492" stroke="#ccc" stroke-width="1" /><line x1="65" y1="323.25" x2="665" y2="323.25" stroke="#ccc" stroke-width="1" /><line x1="65" y1="210.75" x2="665" y2="210.75" stroke="#ccc" stroke-width="1" /><line x1="65" y1="98.25" x2="665" y2="98.25" stroke="#ccc" stroke-width="1" /><line x1="65" y1="492" x2="65" y2="497" stroke="black" stroke-width="1" /><text x="65" y="507" font-size="10" text-anchor="middle">0</text><line x1="165" y1="492" x2="165" y2="497" stroke="black" stroke-width="1" /><text x="165" y="507" font-size="10" text-anchor="middle">5</text><line x1="265" y1="492" x2="265" y2="497" stroke="black" stroke-width="1" /><text x="265" y="507" font-size="10" text-anchor="middle">10</text><line x1="365" y1="492" x2="365" y2="497" stroke="black" stroke-width="1" /><text x="365" y="507" font-size="10" text-anchor="middle">15</text><line x1="465" y1="492" x2="465" y2="497" stroke="black" stroke-width="1" /><text x="465" y="507" font-size="10" text-anchor="middle">20</text><line x1="565" y1="492" x2="565" y2="497" stroke="black" stroke-width="1" /><text x="565" y="507" font-size="10" text-anchor="middle">25</text><line x1="665" y1="492" x2="665" y2="497" stroke="black" stroke-width="1" /><text x="665" y="507" font-size="10" text-anchor="middle">30</text><line x1="60" y1="435.75" x2="65" y2="435.75" stroke="black" stroke-width="1" /><text x="57" y="439.25" font-size="10" text-anchor="end">-0</text><line x1="60" y1="323.25" x2="65" y2="323.25" stroke="black" stroke-width="1" /><text x="57" y="326.75" font-size="10" text-anchor="end">5</text><line x1="60" y1="210.75" x2="65" y2="210.75" stroke="black" stroke-width="1" /><text x="57" y="214.25" font-size="10" text-anchor="end">10</text><line x1="60" y1="98.25" x2="65" y2="98.25" stroke="black" stroke-width="1" /><text x="57" y="101.75" font-size="10" text-anchor="end">15</text><text x="339.5" y="534" font-size="14" text-anchor="middle">x</text><text x="14" y="270.5" font-size="14" text-anchor="middle" transform="rotate(-90,14,270.5)">y</text><text x="339.5" y="21" font-size="16" text-anchor="middle">Band Attached to Scatter</text><path d="M 65 334.5 L 85 325.5 L 105 316.5 L 125 307.5 L 145 298.5 L 165 289.5 L 185 280.5 L 205 271.5 L 225 262.5 L 245 253.5 L 265 244.49999999999997 L 285 235.5 L 305 226.49999999999994 L 325 217.5 L 345 208.49999999999994 L 365 199.5 L 385 190.5 L 405 181.5 L 425 172.5 L 445 163.49999999999994 L 465 154.5 L 485 145.5 L 504.99999999999994 136.5 L 525 127.49999999999994 L 545 118.49999999999994 L 565 109.5 L 585 100.50000000000006 L 605 91.5 L 625 82.49999999999994 L 645 73.5 L 645 186 L 625 195 L 605 204 L 585 213 L 565 222 L 545 230.99999999999994 L 525 239.99999999999997 L 504.99999999999994 248.99999999999997 L 485 258 L 465 267 L 445 276 L 425 285 L 405 294 L 385 303 L 365 312 L 345 321 L 325 330 L 305 339 L 285 348 L 265 357 L 245 366 L 225 375 L 205 384 L 185 393 L 165 402 L 145 411 L 125 420 L 105 429 L 85 438 L 65 447 Z" stroke="none" stroke-width="0" fill="seagreen" fill-opacity="0.2" /><circle cx="65" cy="390.75" r="3" fill="seagreen" /><circle cx="85" cy="381.75" r="3" fill="seagreen" /><circle cx="105" cy="372.75" r="3" fill="seagreen" /><circle cx="125" cy="363.75" r="3" fill="seagreen" /><circle cx="145" cy="354.75" r="3" fill="seagreen" /><circle cx="165" cy="345.75" r="3" fill="seagreen" /><circle cx="185" cy="336.75" r="3" fill="seagreen" /><circle cx="205" cy="327.75" r="3" fill="seagreen" /><circle cx="225" cy="318.75" r="3" fill="seagreen" /><circle cx="245" cy="309.75" r="3" fill="seagreen" /><circle cx="265" cy="300.75" r="3" fill="seagreen" /><circle cx="285" cy="291.75" r="3" fill="seagreen" /><circle cx="305" cy="282.75" r="3" fill="seagreen" /><circle cx="325" cy="273.75" r="3" fill="seagreen" /><circle cx="345" cy="264.74999999999994" r="3" fill="seagreen" /><circle cx="365" cy="255.75" r="3" fill="seagreen" /><circle cx="385" cy="246.74999999999997" r="3" fill="seagreen" /><circle cx="405" cy="237.74999999999997" r="3" fill="seagreen" /><circle cx="425" cy="228.75" r="3" fill="seagreen" /><circle cx="445" cy="219.74999999999994" r="3" fill="seagreen" /><circle cx="465" cy="210.75" r="3" fill="seagreen" /><circle cx="485" cy="201.75" r="3" fill="seagreen" /><circle cx="504.99999999999994" cy="192.75" r="3" fill="seagreen" /><circle cx="525" cy="183.75" r="3" fill="seagreen" /><circle cx="545" cy="174.74999999999994" r="3" fill="seagreen" /><circle cx="565" cy="165.75" r="3" fill="seagreen" /><circle cx="585" cy="156.75" r="3" fill="seagreen" /><circle cx="605" cy="147.75" r="3" fill="seagreen" /><circle cx="625" cy="138.75" r="3" fill="seagreen" /><circle cx="645" cy="129.75" r="3" fill="seagreen" /></svg>