<svg xmlns="http://www.w3.org/2000/svg" width="826" height="541" fill="black"><rect width="100%" height="100%" fill="white" /><line x1="65" y1="492" x2="665" y2="492" stroke="black" stroke-width="1" /><line x1="65" y1="42" x2="65" y2="492" stroke="black" stroke-width="1" /><line x1="185" y1="42" x2="185" y2="492" stroke="#ccc" stroke-width="1" /><line x1="305" y1="42" x2="305" y2="492" stroke="#ccc" stroke-width="1" /><line x1="425" y1="42" x2="425" y2="492" stroke="#ccc" stroke-width="1" /><line x1="545" y1="42" x2="545" y2="492" stroke="#ccc" stroke-width="1" /><line x1="665" y1="42" x2="665" y2="492" stroke="#ccc" stroke-width="1" /><line x1="65" y1="417" x2="665" y2="417" stroke="#ccc" stroke-width="1" /><line x1="65" y1="342" x2="665" y2="342" stroke="#ccc" stroke-width="1" /><line x1="65" y1="267" x2="665" y2="267" stroke="#ccc" stroke-width="1" /><line x1="65" y1="192" x2="665" y2="192" stroke="#ccc" stroke-width="1" /><line x1="65" y1="117" x2="665" y2="117" stroke="#ccc" stroke-width="1" /><line x1="65" y1="42" x2="665" y2="42" stroke="#ccc" stroke-width="1" /><line x1="65" y1="492" x2="65" y2="497" stroke="black" stroke-width="1" /><text x="65" y="507" font-size="10" text-anchor="middle">0</text><line x1="185" y1="492" x2="185" y2="497" stroke="black" stroke-width="1" /><text x="185" y="507" font-size="10" text-anchor="middle">2.5</text><line x1="305" y1="492" x2="305" y2="497" stroke="black" stroke-width="1" /><text x="305" y="507" font-size="10" text-anchor="middle">5</text><line x1="425" y1="492" x2="425" y2="497" stroke="black" stroke-width="1" /><text x="425" y="507" font-size="10" text-anchor="middle">7.5</text><line x1="545" y1="492" x2="545" y2="497" stroke="black" stroke-width="1" /><text x="545" y="507" font-size="10" text-anchor="middle">10</text><line x1="665" y1="492" x2="665" y2="497" stroke="black" stroke-width="1" /><text x="665" y="507" font-size="10" text-anchor="middle">12.5</text><line x1="60" y1="492" x2="65" y2="492" stroke="black" stroke-width="1" /><text x="57" y="495.5" font-size="10" text-anchor="end">-1.5</text><line x1="60" y1="417" x2="65" y2="417" stroke="black" stroke-width="1" /><text x="57" y="420.5" font-size="10" text-anchor="end">-1</text><line x1="60" y1="342" x2="65" y2="342" stroke="black" stroke-width="1" /><text x="57" y="345.5" font-size="10" text-anchor="end">-0.5</text><line x1="60" y1="267" x2="65" y2="267" stroke="black" stroke-width="1" /><text x="57" y="270.5" font-size="10" text-anchor="end">0</text><line x1="60" y1="192" x2="65" y2="192" stroke="black" stroke-width="1" /><text x="57" y="195.5" font-size="10" text-anchor="end">0.5</text><line x1="60" y1="117" x2="65" y2="117" stroke="black" stroke-width="1" /><text x="57" y="120.5" font-size="10" text-anchor="end">1</text><line x1="60" y1="42" x2="65" y2="42" stroke="black" stroke-width="1" /><text x="57" y="45.5" font-size="10" text-anchor="end">1.5</text><text x="413" y="534" font-size="14" text-anchor="middle">x</text><text x="14" y="270.5" font-size="14" text-anchor="middle" transform="rotate(-90,14,270.5)">y</text><text x="413" y="21" font-size="16" text-anchor="middle">Multiple Series with Bands</text><path d="M 65 229.5 L 74.6 199.69960038074083 L 84.2 171.08724865370237 L 93.80000000000001 144.8036289907447 L 103.4 121.89658636507158 L 113 103.27935227881551 L 122.60000000000001 89.69413710491608 L 132.2 81.68254050173095 L 141.8 79.56395954377427 L 151.4 83.42285536827075 L 161 93.10538597614772 L 170.60000000000002 108.22553942706145 L 180.20000000000002 128.18052291732744 L 189.8 152.17479422678036 L 199.4 179.25177747661434 L 209 208.33199879101988 L 218.6 238.25612151413705 L 228.20000000000002 267.83116530402475 L 237.8 295.8780664942278 L 247.40000000000003 321.27868364140784 L 257 343.02037429618923 L 266.6 360.23636586203827 L 276.20000000000005 372.2403110834274 L 285.80000000000007 378.55365054501965 L 295.40000000000003 378.9246913253761 L 305 373.33864119947077 L 314.6 362.01819835802297 L 324.20000000000005 345.4146731333981 L 333.8 324.18999568084814 L 343.40000000000003 299.1903269120635 L 353 271.4123247298389 L 362.6 241.9634104226245 L 372.2 212.01761927242592 L 381.8 182.7687954729932 L 391.40000000000003 155.38299732920865 L 401.00000000000006 130.95201019218166 L 410.6 110.449820422627 L 420.20000000000005 94.69378562825591 L 429.80000000000007 84.31204919527704 L 439.4000000000001 79.71849819380924 L 449 81.09626300649273 L 458.6000000000001 88.39041649803409 L 468.20000000000005 101.31016378675798 L 477.79999999999995 119.34043531888301 L 487.40000000000003 141.7624210662358 L 497 167.6822272137365 L 506.6000000000001 196.06651288496306 L 516.2 225.78368618199636 L 525.8000000000001 255.6490171834472 L 535.4000000000001 284.47186938778924 L 545 311.10316663340546 L 554.6 334.48120313903155 L 564.2 353.6739703628481 L 573.8000000000001 367.9163132419211 L 583.4000000000001 376.6404345099737 L 593 379.49853098260553 L 602.6 376.37665937269753 L 612.2 367.3992788497014 L 621.8000000000001 352.9242892453062 L 631.4000000000001 333.5287627165684 L 631.4000000000001 408.5287627165684 L 621.8000000000001 427.9242892453062 L 612.2 442.3992788497014 L 602.6 451.37665937269753 L 593 454.49853098260553 L 583.4000000000001 451.6404345099737 L 573.8000000000001 442.9163132419211 L 564.2 428.6739703628481 L 554.6 409.48120313903155 L 545 386.10316663340546 L 535.4000000000001 359.4718693877893 L 525.8000000000001 330.6490171834472 L 516.2 300.78368618199636 L 506.6000000000001 271.0665128849631 L 497 242.68222721373652 L 487.40000000000003 216.76242106623573 L 477.79999999999995 194.340435318883 L 468.20000000000005 176.31016378675793 L 458.6000000000001 163.39041649803409 L 449 156.09626300649268 L 439.4000000000001 154.71849819380924 L 429.80000000000007 159.31204919527698 L 420.20000000000005 169.6937856282559 L 410.6 185.449820422627 L 401.00000000000006 205.95201019218166 L 391.40000000000003 230.3829973292087 L 381.8 257.7687954729932 L 372.2 287.0176192724259 L 362.6 316.96341042262446 L 353 346.4123247298389 L 343.40000000000003 374.1903269120635 L 333.8 399.18999568084814 L 324.20000000000005 420.4146731333981 L 314.6 437.01819835802297 L 305 448.33864119947077 L 295.40000000000003 453.9246913253761 L 285.80000000000007 453.55365054501965 L 276.20000000000005 447.2403110834274 L 266.6 435.2363658620382 L 257 418.02037429618923 L 247.40000000000003 396.2786836414079 L 237.8 370.8780664942279 L 228.20000000000002 342.83116530402475 L 218.6 313.256121514137 L 209 283.33199879101994 L 199.4 254.2517774766143 L 189.8 227.17479422678036 L 180.20000000000002 203.18052291732738 L 170.60000000000002 183.2255394270615 L 161 168.10538597614772 L 151.4 158.42285536827075 L 141.8 154.56395954377427 L 132.2 156.68254050173095 L 122.60000000000001 164.69413710491608 L 113 178.27935227881545 L 103.4 196.89658636507164 L 93.80000000000001 219.8036289907447 L 84.2 246.0872486537024 L 74.6 274.6996003807408 L 65 304.5 Z" stroke="none" stroke-width="0" fill="steelblue" fill-opacity="0.2" /><path d="M 65 267 L 74.6 237.19960038074078 L 84.2 208.58724865370237 L 93.80000000000001 182.30362899074476 L 103.4 159.39658636507158 L 113 140.7793522788155 L 122.60000000000001 127.19413710491602 L 132.2 119.18254050173095 L 141.8 117.06395954377422 L 151.4 120.92285536827069 L 161 130.60538597614772 L 170.60000000000002 145.7255394270615 L 180.20000000000002 165.68052291732738 L 189.8 189.67479422678036 L 199.4 216.75177747661428 L 209 245.83199879101994 L 218.6 275.756121514137 L 228.20000000000002 305.33116530402475 L 237.8 333.3780664942278 L 247.40000000000003 358.7786836414079 L 257 380.52037429618923 L 266.6 397.7363658620382 L 276.20000000000005 409.7403110834274 L 285.80000000000007 416.05365054501965 L 295.40000000000003 416.4246913253761 L 305 410.83864119947077 L 314.6 399.51819835802297 L 324.20000000000005 382.9146731333981 L 333.8 361.68999568084814 L 343.40000000000003 336.6903269120635 L 353 308.91232472983893 L 362.6 279.46341042262446 L 372.2 249.51761927242597 L 381.8 220.26879547299325 L 391.40000000000003 192.88299732920865 L 401.00000000000006 168.4520101921816 L 410.6 147.94982042262706 L 420.20000000000005 132.19378562825597 L 429.80000000000007 121.81204919527698 L 439.4000000000001 117.21849819380924 L 449 118.59626300649273 L 458.6000000000001 125.89041649803409 L 468.20000000000005 138.81016378675793 L 477.79999999999995 156.840435318883 L 487.40000000000003 179.2624210662358 L 497 205.1822272137365 L 506.6000000000001 233.56651288496312 L 516.2 263.2836861819963 L 525.8000000000001 293.1490171834472 L 535.4000000000001 321.97186938778924 L 545 348.60316663340546 L 554.6 371.98120313903155 L 564.2 391.1739703628481 L 573.8000000000001 405.4163132419211 L 583.4000000000001 414.1404345099737 L 593 416.99853098260553 L 602.6 413.87665937269753 L 612.2 404.8992788497014 L 621.8000000000001 390.42428924530617 L 631.4000000000001 371.02876271656834 " stroke="steelblue" stroke-width="2" fill="none" /><path d="M 65 109.5 L 74.6 110.09950016663686 L 84.2 111.89201065905104 L 93.80000000000001 114.85962130492726 L 103.4 118.97268071965374 L 113 124.19009257315525 L 122.60000000000001 130.45972621083865 L 132.2 137.71893752586135 L 141.8 145.89519487834008 L 151.4 154.90680380752025 L 161 164.66372329582322 L 170.60000000000002 175.06846542893072 L 180.20000000000002 186.0170694627992 L 189.8 197.40014056504953 L 199.4 209.1039428519711 L 209 221.01153579987562 L 218.6 233.00394267615468 L 228.20000000000002 244.961339315463 L 237.8 256.7642513631705 L 247.40000000000003 268.2947480236204 L 257 279.43762038565706 L 266.6 290.08153255198295 L 276.20000000000005 300.1201340706415 L 285.80000000000007 309.45312255357896 L 295.40000000000003 317.9872458649495 L 305 325.637233865632 L 314.6 332.32665040427366 L 324.20000000000005 337.9886570420473 L 333.8 342.566680880239 L 343.40000000000003 346.0149798179509 L 353 348.2990995920535 L 362.6 349.3962180327935 L 372.2 349.2953730953704 L 381.8 347.9975723890638 L 391.40000000000003 345.51578310953533 L 401.00000000000006 341.87480247489555 L 410.6 337.1110099600976 L 420.20000000000005 331.272003805249 L 429.80000000000007 324.41612542972996 L 439.4000000000001 316.6118765040168 L 449 307.9372345036335 L 458.6000000000001 298.47887358399225 L 468.20000000000005 288.33129856088397 L 477.79999999999995 277.59590064959707 L 487.40000000000003 266.3799443974103 L 497 254.79549593169355 L 506.6000000000001 242.95830323220648 L 516.2 230.98663961554684 L 525.8000000000001 219.0001219872663 L 535.4000000000001 207.1185156692909 L 545 195.46053774441287 L 554.6 184.14267087444227 L 564.2 173.27799944395468 L 573.8000000000001 162.9750796585006 L 583.4000000000001 153.33685488688383 L 593 144.4596270850488 L 602.6 136.43209457876998 L 612.2 129.33446581930076 L 621.8000000000001 123.23765796704168 L 631.4000000000001 118.20258831071573 L 631.4000000000001 193.20258831071567 L 621.8000000000001 198.23765796704168 L 612.2 204.33446581930082 L 602.6 211.43209457876992 L 593 219.4596270850488 L 583.4000000000001 228.33685488688383 L 573.8000000000001 237.97507965850065 L 564.2 248.27799944395474 L 554.6 259.1426708744423 L 545 270.4605377444128 L 535.4000000000001 282.1185156692909 L 525.8000000000001 294.0001219872663 L 516.2 305.9866396155469 L 506.6000000000001 317.9583032322065 L 497 329.79549593169355 L 487.40000000000003 341.3799443974103 L 477.79999999999995 352.59590064959707 L 468.20000000000005 363.33129856088397 L 458.6000000000001 373.47887358399225 L 449 382.9372345036334 L 439.4000000000001 391.6118765040168 L 429.80000000000007 399.41612542972996 L 420.20000000000005 406.27200380524897 L 410.6 412.11100996009765 L 401.00000000000006 416.87480247489555 L 391.40000000000003 420.51578310953533 L 381.8 422.9975723890638 L 372.2 424.29537309537034 L 362.6 424.3962180327935 L 353 423.29909959205344 L 343.40000000000003 421.0149798179509 L 333.8 417.566680880239 L 324.20000000000005 412.98865704204735 L 314.6 407.32665040427366 L 305 400.637233865632 L 295.40000000000003 392.9872458649495 L 285.80000000000007 384.45312255357896 L 276.20000000000005 375.1201340706415 L 266.6 365.0815325519829 L 257 354.43762038565706 L 247.40000000000003 343.2947480236204 L 237.8 331.7642513631704 L 228.20000000000002 319.96133931546296 L 218.6 308.0039426761547 L 209 296.0115357998757 L 199.4 284.1039428519711 L 189.8 272.40014056504947 L 180.20000000000002 261.0170694627992 L 170.60000000000002 250.06846542893072 L 161 239.66372329582325 L 151.4 229.9068038075203 L 141.8 220.89519487834013 L 132.2 212.7189375258614 L 122.60000000000001 205.4597262108386 L 113 199.1900925731553 L 103.4 193.9726807196538 L 93.80000000000001 189.85962130492726 L 84.2 186.89201065905104 L 74.6 185.09950016663686 L 65 184.50000000000006 Z" stroke="none" stroke-width="0" fill="darkorange" fill-opacity="0.2" /><path d="M 65 147 L 74.6 147.59950016663686 L 84.2 149.39201065905098 L 93.80000000000001 152.35962130492726 L 103.4 156.4726807196538 L 113 161.69009257315525 L 122.60000000000001 167.95972621083865 L 132.2 175.2189375258614 L 141.8 183.39519487834013 L 151.4 192.40680380752025 L 161 202.16372329582322 L 170.60000000000002 212.56846542893072 L 180.20000000000002 223.51706946279916 L 189.8 234.90014056504947 L 199.4 246.6039428519711 L 209 258.5115357998757 L 218.6 270.5039426761547 L 228.20000000000002 282.46133931546296 L 237.8 294.26425136317044 L 247.40000000000003 305.7947480236204 L 257 316.93762038565706 L 266.6 327.58153255198295 L 276.20000000000005 337.6201340706415 L 285.80000000000007 346.95312255357896 L 295.40000000000003 355.4872458649495 L 305 363.1372338656321 L 314.6 369.82665040427366 L 324.20000000000005 375.48865704204735 L 333.8 380.066680880239 L 343.40000000000003 383.5149798179509 L 353 385.79909959205344 L 362.6 386.89621803279357 L 372.2 386.7953730953704 L 381.8 385.4975723890638 L 391.40000000000003 383.01578310953533 L 401.00000000000006 379.3748024748956 L 410.6 374.61100996009765 L 420.20000000000005 368.77200380524897 L 429.80000000000007 361.91612542972996 L 439.4000000000001 354.1118765040168 L 449 345.4372345036334 L 458.6000000000001 335.97887358399225 L 468.20000000000005 325.83129856088397 L 477.79999999999995 315.09590064959707 L 487.40000000000003 303.8799443974103 L 497 292.29549593169355 L 506.6000000000001 280.4583032322065 L 516.2 268.4866396155469 L 525.8000000000001 256.5001219872663 L 535.4000000000001 244.61851566929093 L 545 232.96053774441287 L 554.6 221.64267087444227 L 564.2 210.77799944395474 L 573.8000000000001 200.47507965850065 L 583.4000000000001 190.83685488688388 L 593 181.9596270850488 L 602.6 173.93209457876998 L 612.2 166.83446581930082 L 621.8000000000001 160.73765796704168 L 631.4000000000001 155.70258831071567 " stroke="darkorange" stroke-width="2" fill="none" /><rect x="670" y="32" width="147" height="56" fill="white" /><rect x="670" y="32" width="147" height="56" fill="none" stroke="black" stroke-width="1" /><text x="700" y="47" font-size="12" text-anchor="start">sin(x)</text><line x1="680" y1="44" x2="692" y2="44" stroke="steelblue" stroke-width="2" /><text x="700" y="65" font-size="12" text-anchor="start">0.8 · cos(0.5x)</text><line x1="680" y1="62" x2="692" y2="62" stroke="darkorange" stroke-width="2" /></svg>