<svg xmlns="http://www.w3.org/2000/svg" width="679" height="541" fill="black"><rect width="100%" height="100%" fill="white" /><line x1="65" y1="492" x2="665" y2="492" stroke="black" stroke-width="1" /><line x1="65" y1="42" x2="65" y2="492" stroke="black" stroke-width="1" /><line x1="185" y1="42" x2="185" y2="492" stroke="#ccc" stroke-width="1" /><line x1="305" y1="42" x2="305" y2="492" stroke="#ccc" stroke-width="1" /><line x1="425" y1="42" x2="425" y2="492" stroke="#ccc" stroke-width="1" /><line x1="545" y1="42" x2="545" y2="492" stroke="#ccc" stroke-width="1" /><line x1="665" y1="42" x2="665" y2="492" stroke="#ccc" stroke-width="1" /><line x1="65" y1="417" x2="665" y2="417" stroke="#ccc" stroke-width="1" /><line x1="65" y1="342" x2="665" y2="342" stroke="#ccc" stroke-width="1" /><line x1="65" y1="267" x2="665" y2="267" stroke="#ccc" stroke-width="1" /><line x1="65" y1="192" x2="665" y2="192" stroke="#ccc" stroke-width="1" /><line x1="65" y1="117" x2="665" y2="117" stroke="#ccc" stroke-width="1" /><line x1="65" y1="42" x2="665" y2="42" stroke="#ccc" stroke-width="1" /><line x1="65" y1="492" x2="65" y2="497" stroke="black" stroke-width="1" /><text x="65" y="507" font-size="10" text-anchor="middle">0</text><line x1="185" y1="492" x2="185" y2="497" stroke="black" stroke-width="1" /><text x="185" y="507" font-size="10" text-anchor="middle">2.5</text><line x1="305" y1="492" x2="305" y2="497" stroke="black" stroke-width="1" /><text x="305" y="507" font-size="10" text-anchor="middle">5</text><line x1="425" y1="492" x2="425" y2="497" stroke="black" stroke-width="1" /><text x="425" y="507" font-size="10" text-anchor="middle">7.5</text><line x1="545" y1="492" x2="545" y2="497" stroke="black" stroke-width="1" /><text x="545" y="507" font-size="10" text-anchor="middle">10</text><line x1="665" y1="492" x2="665" y2="497" stroke="black" stroke-width="1" /><text x="665" y="507" font-size="10" text-anchor="middle">12.5</text><line x1="60" y1="492" x2="65" y2="492" stroke="black" stroke-width="1" /><text x="57" y="495.5" font-size="10" text-anchor="end">-1.5</text><line x1="60" y1="417" x2="65" y2="417" stroke="black" stroke-width="1" /><text x="57" y="420.5" font-size="10" text-anchor="end">-1</text><line x1="60" y1="342" x2="65" y2="342" stroke="black" stroke-width="1" /><text x="57" y="345.5" font-size="10" text-anchor="end">-0.5</text><line x1="60" y1="267" x2="65" y2="267" stroke="black" stroke-width="1" /><text x="57" y="270.5" font-size="10" text-anchor="end">0</text><line x1="60" y1="192" x2="65" y2="192" stroke="black" stroke-width="1" /><text x="57" y="195.5" font-size="10" text-anchor="end">0.5</text><line x1="60" y1="117" x2="65" y2="117" stroke="black" stroke-width="1" /><text x="57" y="120.5" font-size="10" text-anchor="end">1</text><line x1="60" y1="42" x2="65" y2="42" stroke="black" stroke-width="1" /><text x="57" y="45.5" font-size="10" text-anchor="end">1.5</text><text x="339.5" y="534" font-size="14" text-anchor="middle">x</text><text x="14" y="270.5" font-size="14" text-anchor="middle" transform="rotate(-90,14,270.5)">y</text><text x="339.5" y="21" font-size="16" text-anchor="middle">Band Plot — Standalone</text><path d="M 65 214.5 L 74.6 184.6996003807409 L 84.2 156.08724865370243 L 93.80000000000001 129.8036289907447 L 103.4 106.89658636507158 L 113 88.27935227881557 L 122.60000000000001 74.69413710491602 L 132.2 66.68254050173095 L 141.8 64.56395954377422 L 151.4 68.42285536827069 L 161 78.10538597614777 L 170.60000000000002 93.22553942706145 L 180.20000000000002 113.18052291732738 L 189.8 137.17479422678036 L 199.4 164.25177747661428 L 209 193.33199879101994 L 218.6 223.25612151413702 L 228.20000000000002 252.83116530402478 L 237.8 280.8780664942279 L 247.40000000000003 306.2786836414079 L 257 328.02037429618923 L 266.6 345.23636586203827 L 276.20000000000005 357.2403110834274 L 285.80000000000007 363.55365054501965 L 295.40000000000003 363.9246913253761 L 305 358.33864119947077 L 314.6 347.01819835802297 L 324.20000000000005 330.4146731333981 L 333.8 309.18999568084814 L 343.40000000000003 284.1903269120635 L 353 256.4123247298388 L 362.6 226.96341042262446 L 372.2 197.01761927242597 L 381.8 167.7687954729932 L 391.40000000000003 140.38299732920865 L 401.00000000000006 115.9520101921816 L 410.6 95.44982042262706 L 420.20000000000005 79.69378562825597 L 429.80000000000007 69.3120491952771 L 439.4000000000001 64.7184981938093 L 449 66.09626300649273 L 458.6000000000001 73.39041649803414 L 468.20000000000005 86.31016378675793 L 477.79999999999995 104.34043531888301 L 487.40000000000003 126.76242106623579 L 497 152.6822272137365 L 506.6000000000001 181.06651288496306 L 516.2 210.78368618199636 L 525.8000000000001 240.64901718344726 L 535.4000000000001 269.4718693877893 L 545 296.1031666334055 L 554.6 319.48120313903155 L 564.2 338.6739703628481 L 573.8000000000001 352.9163132419211 L 583.4000000000001 361.6404345099737 L 593 364.49853098260553 L 602.6 361.37665937269753 L 612.2 352.3992788497014 L 621.8000000000001 337.9242892453062 L 631.4000000000001 318.52876271656834 L 631.4000000000001 423.5287627165684 L 621.8000000000001 442.92428924530617 L 612.2 457.3992788497013 L 602.6 466.37665937269753 L 593 469.49853098260553 L 583.4000000000001 466.6404345099737 L 573.8000000000001 457.9163132419211 L 564.2 443.6739703628481 L 554.6 424.48120313903155 L 545 401.10316663340546 L 535.4000000000001 374.4718693877893 L 525.8000000000001 345.6490171834472 L 516.2 315.78368618199636 L 506.6000000000001 286.0665128849631 L 497 257.6822272137365 L 487.40000000000003 231.76242106623573 L 477.79999999999995 209.340435318883 L 468.20000000000005 191.31016378675793 L 458.6000000000001 178.39041649803409 L 449 171.09626300649273 L 439.4000000000001 169.71849819380924 L 429.80000000000007 174.31204919527698 L 420.20000000000005 184.69378562825597 L 410.6 200.44982042262706 L 401.00000000000006 220.95201019218166 L 391.40000000000003 245.38299732920862 L 381.8 272.7687954729932 L 372.2 302.0176192724259 L 362.6 331.9634104226244 L 353 361.4123247298389 L 343.40000000000003 389.1903269120635 L 333.8 414.18999568084814 L 324.20000000000005 435.4146731333981 L 314.6 452.01819835802297 L 305 463.33864119947077 L 295.40000000000003 468.9246913253761 L 285.80000000000007 468.55365054501965 L 276.20000000000005 462.2403110834274 L 266.6 450.23636586203827 L 257 433.0203742961892 L 247.40000000000003 411.2786836414079 L 237.8 385.8780664942279 L 228.20000000000002 357.83116530402475 L 218.6 328.256121514137 L 209 298.33199879101994 L 199.4 269.25177747661434 L 189.8 242.17479422678036 L 180.20000000000002 218.18052291732738 L 170.60000000000002 198.2255394270615 L 161 183.10538597614772 L 151.4 173.42285536827075 L 141.8 169.56395954377427 L 132.2 171.68254050173095 L 122.60000000000001 179.69413710491608 L 113 193.2793522788155 L 103.4 211.89658636507158 L 93.80000000000001 234.80362899074464 L 84.2 261.08724865370243 L 74.6 289.69960038074083 L 65 319.5 Z" stroke="none" stroke-width="0" fill="steelblue" fill-opacity="0.25" /><path d="M 65 267 L 74.6 237.19960038074078 L 84.2 208.58724865370237 L 93.80000000000001 182.30362899074476 L 103.4 159.39658636507158 L 113 140.7793522788155 L 122.60000000000001 127.19413710491602 L 132.2 119.18254050173095 L 141.8 117.06395954377422 L 151.4 120.92285536827069 L 161 130.60538597614772 L 170.60000000000002 145.7255394270615 L 180.20000000000002 165.68052291732738 L 189.8 189.67479422678036 L 199.4 216.75177747661428 L 209 245.83199879101994 L 218.6 275.756121514137 L 228.20000000000002 305.33116530402475 L 237.8 333.3780664942278 L 247.40000000000003 358.7786836414079 L 257 380.52037429618923 L 266.6 397.7363658620382 L 276.20000000000005 409.7403110834274 L 285.80000000000007 416.05365054501965 L 295.40000000000003 416.4246913253761 L 305 410.83864119947077 L 314.6 399.51819835802297 L 324.20000000000005 382.9146731333981 L 333.8 361.68999568084814 L 343.40000000000003 336.6903269120635 L 353 308.91232472983893 L 362.6 279.46341042262446 L 372.2 249.51761927242597 L 381.8 220.26879547299325 L 391.40000000000003 192.88299732920865 L 401.00000000000006 168.4520101921816 L 410.6 147.94982042262706 L 420.20000000000005 132.19378562825597 L 429.80000000000007 121.81204919527698 L 439.4000000000001 117.21849819380924 L 449 118.59626300649273 L 458.6000000000001 125.89041649803409 L 468.20000000000005 138.81016378675793 L 477.79999999999995 156.840435318883 L 487.40000000000003 179.2624210662358 L 497 205.1822272137365 L 506.6000000000001 233.56651288496312 L 516.2 263.2836861819963 L 525.8000000000001 293.1490171834472 L 535.4000000000001 321.97186938778924 L 545 348.60316663340546 L 554.6 371.98120313903155 L 564.2 391.1739703628481 L 573.8000000000001 405.4163132419211 L 583.4000000000001 414.1404345099737 L 593 416.99853098260553 L 602.6 413.87665937269753 L 612.2 404.8992788497014 L 621.8000000000001 390.42428924530617 L 631.4000000000001 371.02876271656834 " stroke="steelblue" stroke-width="2" fill="none" /></svg>