<svg xmlns="http://www.w3.org/2000/svg" width="764" height="541" fill="black"><rect width="100%" height="100%" fill="white" /><line x1="65" y1="492" x2="665" y2="492" stroke="black" stroke-width="1" /><line x1="65" y1="42" x2="65" y2="492" stroke="black" stroke-width="1" /><line x1="185" y1="42" x2="185" y2="492" stroke="#ccc" stroke-width="1" /><line x1="305" y1="42" x2="305" y2="492" stroke="#ccc" stroke-width="1" /><line x1="425" y1="42" x2="425" y2="492" stroke="#ccc" stroke-width="1" /><line x1="545" y1="42" x2="545" y2="492" stroke="#ccc" stroke-width="1" /><line x1="665" y1="42" x2="665" y2="492" stroke="#ccc" stroke-width="1" /><line x1="65" y1="402" x2="665" y2="402" stroke="#ccc" stroke-width="1" /><line x1="65" y1="312" x2="665" y2="312" stroke="#ccc" stroke-width="1" /><line x1="65" y1="222" x2="665" y2="222" stroke="#ccc" stroke-width="1" /><line x1="65" y1="132" x2="665" y2="132" stroke="#ccc" stroke-width="1" /><line x1="65" y1="42" x2="665" y2="42" stroke="#ccc" stroke-width="1" /><line x1="65" y1="492" x2="65" y2="497" stroke="black" stroke-width="1" /><text x="65" y="507" font-size="10" text-anchor="middle">0</text><line x1="185" y1="492" x2="185" y2="497" stroke="black" stroke-width="1" /><text x="185" y="507" font-size="10" text-anchor="middle">1</text><line x1="305" y1="492" x2="305" y2="497" stroke="black" stroke-width="1" /><text x="305" y="507" font-size="10" text-anchor="middle">2</text><line x1="425" y1="492" x2="425" y2="497" stroke="black" stroke-width="1" /><text x="425" y="507" font-size="10" text-anchor="middle">3</text><line x1="545" y1="492" x2="545" y2="497" stroke="black" stroke-width="1" /><text x="545" y="507" font-size="10" text-anchor="middle">4</text><line x1="665" y1="492" x2="665" y2="497" stroke="black" stroke-width="1" /><text x="665" y="507" font-size="10" text-anchor="middle">5</text><line x1="60" y1="492" x2="65" y2="492" stroke="black" stroke-width="1" /><text x="57" y="495.5" font-size="10" text-anchor="end">0</text><line x1="60" y1="402" x2="65" y2="402" stroke="black" stroke-width="1" /><text x="57" y="405.5" font-size="10" text-anchor="end">1</text><line x1="60" y1="312" x2="65" y2="312" stroke="black" stroke-width="1" /><text x="57" y="315.5" font-size="10" text-anchor="end">2</text><line x1="60" y1="222" x2="65" y2="222" stroke="black" stroke-width="1" /><text x="57" y="225.5" font-size="10" text-anchor="end">3</text><line x1="60" y1="132" x2="65" y2="132" stroke="black" stroke-width="1" /><text x="57" y="135.5" font-size="10" text-anchor="end">4</text><line x1="60" y1="42" x2="65" y2="42" stroke="black" stroke-width="1" /><text x="57" y="45.5" font-size="10" text-anchor="end">5</text><text x="382" y="21" font-size="16" text-anchor="middle">Inferno</text><rect x="125" y="357" width="118.8" height="89.1" fill="rgb(0,0,4)" /><rect x="245" y="357" width="118.8" height="89.1" fill="rgb(32,12,73)" /><rect x="365" y="357" width="118.8" height="89.1" fill="rgb(86,15,109)" /><rect x="485" y="357" width="118.8" height="89.1" fill="rgb(137,34,105)" /><rect x="125" y="267" width="118.8" height="89.1" fill="rgb(187,54,84)" /><rect x="245" y="267" width="118.8" height="89.1" fill="rgb(227,89,50)" /><rect x="365" y="267" width="118.8" height="89.1" fill="rgb(249,140,9)" /><rect x="485" y="267" width="118.8" height="89.1" fill="rgb(248,201,50)" /><rect x="125" y="177" width="118.8" height="89.1" fill="rgb(252,255,164)" /><rect x="245" y="177" width="118.8" height="89.1" fill="rgb(251,170,15)" /><rect x="365" y="177" width="118.8" height="89.1" fill="rgb(208,69,68)" /><rect x="485" y="177" width="118.8" height="89.1" fill="rgb(112,25,110)" /><rect x="125" y="87" width="118.8" height="89.1" fill="rgb(10,7,35)" /><rect x="245" y="87" width="118.8" height="89.1" fill="rgb(137,34,105)" /><rect x="365" y="87" width="118.8" height="89.1" fill="rgb(240,113,30)" /><rect x="485" y="87" width="118.8" height="89.1" fill="rgb(241,232,101)" /><rect x="694" y="87" width="20" height="7.7" fill="rgb(252,255,164)" /><rect x="694" y="94.2" width="20" height="7.7" fill="rgb(244,248,145)" /><rect x="694" y="101.4" width="20" height="7.7" fill="rgb(241,241,123)" /><rect x="694" y="108.6" width="20" height="7.7" fill="rgb(241,232,102)" /><rect x="694" y="115.8" width="20" height="7.7" fill="rgb(243,223,83)" /><rect x="694" y="123" width="20" height="7.7" fill="rgb(246,212,66)" /><rect x="694" y="130.2" width="20" height="7.7" fill="rgb(248,202,52)" /><rect x="694" y="137.4" width="20" height="7.7" fill="rgb(250,193,39)" /><rect x="694" y="144.6" width="20" height="7.7" fill="rgb(251,182,27)" /><rect x="694" y="151.8" width="20" height="7.7" fill="rgb(252,172,17)" /><rect x="694" y="159" width="20" height="7.7" fill="rgb(252,162,8)" /><rect x="694" y="166.2" width="20" height="7.7" fill="rgb(251,152,6)" /><rect x="694" y="173.4" width="20" height="7.7" fill="rgb(249,143,8)" /><rect x="694" y="180.60000000000002" width="20" height="7.7" fill="rgb(247,133,14)" /><rect x="694" y="187.8" width="20" height="7.7" fill="rgb(245,125,20)" /><rect x="694" y="195" width="20" height="7.7" fill="rgb(241,116,28)" /><rect x="694" y="202.2" width="20" height="7.7" fill="rgb(238,107,35)" /><rect x="694" y="209.4" width="20" height="7.7" fill="rgb(234,99,41)" /><rect x="694" y="216.6" width="20" height="7.7" fill="rgb(229,92,47)" /><rect x="694" y="223.8" width="20" height="7.7" fill="rgb(224,85,53)" /><rect x="694" y="231" width="20" height="7.7" fill="rgb(217,78,60)" /><rect x="694" y="238.20000000000002" width="20" height="7.7" fill="rgb(211,71,66)" /><rect x="694" y="245.4" width="20" height="7.7" fill="rgb(205,66,71)" /><rect x="694" y="252.6" width="20" height="7.7" fill="rgb(198,61,76)" /><rect x="694" y="259.8" width="20" height="7.7" fill="rgb(190,57,81)" /><rect x="694" y="267" width="20" height="7.7" fill="rgb(183,52,87)" /><rect x="694" y="274.20000000000005" width="20" height="7.7" fill="rgb(175,48,91)" /><rect x="694" y="281.4" width="20" height="7.7" fill="rgb(166,45,95)" /><rect x="694" y="288.6" width="20" height="7.7" fill="rgb(159,41,99)" /><rect x="694" y="295.8" width="20" height="7.7" fill="rgb(150,38,102)" /><rect x="694" y="303" width="20" height="7.7" fill="rgb(142,35,104)" /><rect x="694" y="310.20000000000005" width="20" height="7.7" fill="rgb(134,33,106)" /><rect x="694" y="317.4" width="20" height="7.7" fill="rgb(125,29,108)" /><rect x="694" y="324.6" width="20" height="7.7" fill="rgb(117,27,109)" /><rect x="694" y="331.8" width="20" height="7.7" fill="rgb(109,24,110)" /><rect x="694" y="339" width="20" height="7.7" fill="rgb(100,21,110)" /><rect x="694" y="346.2" width="20" height="7.7" fill="rgb(92,18,109)" /><rect x="694" y="353.40000000000003" width="20" height="7.7" fill="rgb(84,14,109)" /><rect x="694" y="360.6" width="20" height="7.7" fill="rgb(76,12,107)" /><rect x="694" y="367.8" width="20" height="7.7" fill="rgb(67,10,104)" /><rect x="694" y="375" width="20" height="7.7" fill="rgb(58,9,99)" /><rect x="694" y="382.2" width="20" height="7.7" fill="rgb(49,10,93)" /><rect x="694" y="389.40000000000003" width="20" height="7.7" fill="rgb(40,11,83)" /><rect x="694" y="396.6" width="20" height="7.7" fill="rgb(31,12,72)" /><rect x="694" y="403.8" width="20" height="7.7" fill="rgb(23,11,59)" /><rect x="694" y="411" width="20" height="7.7" fill="rgb(16,9,47)" /><rect x="694" y="418.2" width="20" height="7.7" fill="rgb(10,7,35)" /><rect x="694" y="425.40000000000003" width="20" height="7.7" fill="rgb(5,3,23)" /><rect x="694" y="432.6" width="20" height="7.7" fill="rgb(2,1,12)" /><rect x="694" y="439.8" width="20" height="7.7" fill="rgb(0,0,4)" /><rect x="694" y="87" width="20" height="360" fill="none" stroke="black" stroke-width="1" /><line x1="714" y1="402" x2="718" y2="402" stroke="black" stroke-width="1" /><text x="720" y="406" font-size="10" text-anchor="start">20.0</text><line x1="714" y1="312" x2="718" y2="312" stroke="black" stroke-width="1" /><text x="720" y="316" font-size="10" text-anchor="start">40.0</text><line x1="714" y1="222" x2="718" y2="222" stroke="black" stroke-width="1" /><text x="720" y="226" font-size="10" text-anchor="start">60.0</text><line x1="714" y1="132" x2="718" y2="132" stroke="black" stroke-width="1" /><text x="720" y="136" font-size="10" text-anchor="start">80.0</text></svg>