<svg xmlns="http://www.w3.org/2000/svg" width="764" height="541" fill="black"><rect width="100%" height="100%" fill="white" /><line x1="65" y1="492" x2="665" y2="492" stroke="black" stroke-width="1" /><line x1="65" y1="42" x2="65" y2="492" stroke="black" stroke-width="1" /><line x1="185" y1="42" x2="185" y2="492" stroke="#ccc" stroke-width="1" /><line x1="305" y1="42" x2="305" y2="492" stroke="#ccc" stroke-width="1" /><line x1="425" y1="42" x2="425" y2="492" stroke="#ccc" stroke-width="1" /><line x1="545" y1="42" x2="545" y2="492" stroke="#ccc" stroke-width="1" /><line x1="665" y1="42" x2="665" y2="492" stroke="#ccc" stroke-width="1" /><line x1="65" y1="402" x2="665" y2="402" stroke="#ccc" stroke-width="1" /><line x1="65" y1="312" x2="665" y2="312" stroke="#ccc" stroke-width="1" /><line x1="65" y1="222" x2="665" y2="222" stroke="#ccc" stroke-width="1" /><line x1="65" y1="132" x2="665" y2="132" stroke="#ccc" stroke-width="1" /><line x1="65" y1="42" x2="665" y2="42" stroke="#ccc" stroke-width="1" /><line x1="65" y1="492" x2="65" y2="497" stroke="black" stroke-width="1" /><text x="65" y="507" font-size="10" text-anchor="middle">0</text><line x1="185" y1="492" x2="185" y2="497" stroke="black" stroke-width="1" /><text x="185" y="507" font-size="10" text-anchor="middle">1</text><line x1="305" y1="492" x2="305" y2="497" stroke="black" stroke-width="1" /><text x="305" y="507" font-size="10" text-anchor="middle">2</text><line x1="425" y1="492" x2="425" y2="497" stroke="black" stroke-width="1" /><text x="425" y="507" font-size="10" text-anchor="middle">3</text><line x1="545" y1="492" x2="545" y2="497" stroke="black" stroke-width="1" /><text x="545" y="507" font-size="10" text-anchor="middle">4</text><line x1="665" y1="492" x2="665" y2="497" stroke="black" stroke-width="1" /><text x="665" y="507" font-size="10" text-anchor="middle">5</text><line x1="60" y1="492" x2="65" y2="492" stroke="black" stroke-width="1" /><text x="57" y="495.5" font-size="10" text-anchor="end">0</text><line x1="60" y1="402" x2="65" y2="402" stroke="black" stroke-width="1" /><text x="57" y="405.5" font-size="10" text-anchor="end">1</text><line x1="60" y1="312" x2="65" y2="312" stroke="black" stroke-width="1" /><text x="57" y="315.5" font-size="10" text-anchor="end">2</text><line x1="60" y1="222" x2="65" y2="222" stroke="black" stroke-width="1" /><text x="57" y="225.5" font-size="10" text-anchor="end">3</text><line x1="60" y1="132" x2="65" y2="132" stroke="black" stroke-width="1" /><text x="57" y="135.5" font-size="10" text-anchor="end">4</text><line x1="60" y1="42" x2="65" y2="42" stroke="black" stroke-width="1" /><text x="57" y="45.5" font-size="10" text-anchor="end">5</text><text x="382" y="21" font-size="16" text-anchor="middle">Viridis</text><rect x="125" y="357" width="118.8" height="89.1" fill="rgb(68,1,84)" /><rect x="245" y="357" width="118.8" height="89.1" fill="rgb(71,44,122)" /><rect x="365" y="357" width="118.8" height="89.1" fill="rgb(58,81,139)" /><rect x="485" y="357" width="118.8" height="89.1" fill="rgb(44,113,142)" /><rect x="125" y="267" width="118.8" height="89.1" fill="rgb(32,144,140)" /><rect x="245" y="267" width="118.8" height="89.1" fill="rgb(39,173,128)" /><rect x="365" y="267" width="118.8" height="89.1" fill="rgb(92,200,98)" /><rect x="485" y="267" width="118.8" height="89.1" fill="rgb(170,219,49)" /><rect x="125" y="177" width="118.8" height="89.1" fill="rgb(253,231,37)" /><rect x="245" y="177" width="118.8" height="89.1" fill="rgb(129,211,76)" /><rect x="365" y="177" width="118.8" height="89.1" fill="rgb(31,159,136)" /><rect x="485" y="177" width="118.8" height="89.1" fill="rgb(50,98,141)" /><rect x="125" y="87" width="118.8" height="89.1" fill="rgb(72,24,106)" /><rect x="245" y="87" width="118.8" height="89.1" fill="rgb(44,113,142)" /><rect x="365" y="87" width="118.8" height="89.1" fill="rgb(61,187,115)" /><rect x="485" y="87" width="118.8" height="89.1" fill="rgb(213,226,25)" /><rect x="694" y="87" width="20" height="7.7" fill="rgb(253,231,37)" /><rect x="694" y="94.2" width="20" height="7.7" fill="rgb(240,229,28)" /><rect x="694" y="101.4" width="20" height="7.7" fill="rgb(227,227,24)" /><rect x="694" y="108.6" width="20" height="7.7" fill="rgb(214,226,25)" /><rect x="694" y="115.8" width="20" height="7.7" fill="rgb(200,224,31)" /><rect x="694" y="123" width="20" height="7.7" fill="rgb(186,222,39)" /><rect x="694" y="130.2" width="20" height="7.7" fill="rgb(172,220,48)" /><rect x="694" y="137.4" width="20" height="7.7" fill="rgb(158,217,57)" /><rect x="694" y="144.6" width="20" height="7.7" fill="rgb(145,214,66)" /><rect x="694" y="151.8" width="20" height="7.7" fill="rgb(132,212,74)" /><rect x="694" y="159" width="20" height="7.7" fill="rgb(119,208,82)" /><rect x="694" y="166.2" width="20" height="7.7" fill="rgb(107,205,90)" /><rect x="694" y="173.4" width="20" height="7.7" fill="rgb(95,201,96)" /><rect x="694" y="180.60000000000002" width="20" height="7.7" fill="rgb(84,197,103)" /><rect x="694" y="187.8" width="20" height="7.7" fill="rgb(74,193,108)" /><rect x="694" y="195" width="20" height="7.7" fill="rgb(64,188,114)" /><rect x="694" y="202.2" width="20" height="7.7" fill="rgb(55,184,119)" /><rect x="694" y="209.4" width="20" height="7.7" fill="rgb(48,180,123)" /><rect x="694" y="216.6" width="20" height="7.7" fill="rgb(41,175,127)" /><rect x="694" y="223.8" width="20" height="7.7" fill="rgb(36,171,130)" /><rect x="694" y="231" width="20" height="7.7" fill="rgb(33,165,133)" /><rect x="694" y="238.20000000000002" width="20" height="7.7" fill="rgb(31,161,135)" /><rect x="694" y="245.4" width="20" height="7.7" fill="rgb(30,156,137)" /><rect x="694" y="252.6" width="20" height="7.7" fill="rgb(31,151,138)" /><rect x="694" y="259.8" width="20" height="7.7" fill="rgb(31,146,140)" /><rect x="694" y="267" width="20" height="7.7" fill="rgb(33,141,141)" /><rect x="694" y="274.20000000000005" width="20" height="7.7" fill="rgb(35,136,141)" /><rect x="694" y="281.4" width="20" height="7.7" fill="rgb(37,131,142)" /><rect x="694" y="288.6" width="20" height="7.7" fill="rgb(38,127,141)" /><rect x="694" y="295.8" width="20" height="7.7" fill="rgb(40,122,142)" /><rect x="694" y="303" width="20" height="7.7" fill="rgb(42,116,141)" /><rect x="694" y="310.20000000000005" width="20" height="7.7" fill="rgb(44,112,142)" /><rect x="694" y="317.4" width="20" height="7.7" fill="rgb(47,107,142)" /><rect x="694" y="324.6" width="20" height="7.7" fill="rgb(49,102,142)" /><rect x="694" y="331.8" width="20" height="7.7" fill="rgb(51,97,140)" /><rect x="694" y="339" width="20" height="7.7" fill="rgb(54,91,140)" /><rect x="694" y="346.2" width="20" height="7.7" fill="rgb(56,85,140)" /><rect x="694" y="353.40000000000003" width="20" height="7.7" fill="rgb(59,80,138)" /><rect x="694" y="360.6" width="20" height="7.7" fill="rgb(61,74,137)" /><rect x="694" y="367.8" width="20" height="7.7" fill="rgb(64,69,135)" /><rect x="694" y="375" width="20" height="7.7" fill="rgb(66,62,133)" /><rect x="694" y="382.2" width="20" height="7.7" fill="rgb(68,56,130)" /><rect x="694" y="389.40000000000003" width="20" height="7.7" fill="rgb(70,50,126)" /><rect x="694" y="396.6" width="20" height="7.7" fill="rgb(71,44,122)" /><rect x="694" y="403.8" width="20" height="7.7" fill="rgb(72,37,118)" /><rect x="694" y="411" width="20" height="7.7" fill="rgb(71,30,111)" /><rect x="694" y="418.2" width="20" height="7.7" fill="rgb(72,23,105)" /><rect x="694" y="425.40000000000003" width="20" height="7.7" fill="rgb(71,16,99)" /><rect x="694" y="432.6" width="20" height="7.7" fill="rgb(70,8,92)" /><rect x="694" y="439.8" width="20" height="7.7" fill="rgb(68,1,84)" /><rect x="694" y="87" width="20" height="360" fill="none" stroke="black" stroke-width="1" /><line x1="714" y1="402" x2="718" y2="402" stroke="black" stroke-width="1" /><text x="720" y="406" font-size="10" text-anchor="start">20.0</text><line x1="714" y1="312" x2="718" y2="312" stroke="black" stroke-width="1" /><text x="720" y="316" font-size="10" text-anchor="start">40.0</text><line x1="714" y1="222" x2="718" y2="222" stroke="black" stroke-width="1" /><text x="720" y="226" font-size="10" text-anchor="start">60.0</text><line x1="714" y1="132" x2="718" y2="132" stroke="black" stroke-width="1" /><text x="720" y="136" font-size="10" text-anchor="start">80.0</text></svg>