<svg xmlns="http://www.w3.org/2000/svg" width="758" height="541" fill="black"><rect width="100%" height="100%" fill="white" /><line x1="59" y1="492" x2="659" y2="492" stroke="black" stroke-width="1" /><line x1="59" y1="42" x2="59" y2="492" stroke="black" stroke-width="1" /><text x="49" y="405.5" font-size="10" text-anchor="end">GeneA</text><line x1="54" y1="402" x2="59" y2="402" stroke="black" stroke-width="1" /><text x="49" y="315.5" font-size="10" text-anchor="end">GeneB</text><line x1="54" y1="312" x2="59" y2="312" stroke="black" stroke-width="1" /><text x="49" y="225.5" font-size="10" text-anchor="end">GeneC</text><line x1="54" y1="222" x2="59" y2="222" stroke="black" stroke-width="1" /><text x="49" y="135.5" font-size="10" text-anchor="end">GeneD</text><line x1="54" y1="132" x2="59" y2="132" stroke="black" stroke-width="1" /><text x="159" y="507" font-size="10" text-anchor="middle">Ctrl</text><line x1="159" y1="492" x2="159" y2="497" stroke="black" stroke-width="1" /><text x="259" y="507" font-size="10" text-anchor="middle">T1</text><line x1="259" y1="492" x2="259" y2="497" stroke="black" stroke-width="1" /><text x="359" y="507" font-size="10" text-anchor="middle">T2</text><line x1="359" y1="492" x2="359" y2="497" stroke="black" stroke-width="1" /><text x="459" y="507" font-size="10" text-anchor="middle">T3</text><line x1="459" y1="492" x2="459" y2="497" stroke="black" stroke-width="1" /><text x="559" y="507" font-size="10" text-anchor="middle">T4</text><line x1="559" y1="492" x2="559" y2="497" stroke="black" stroke-width="1" /><text x="379" y="21" font-size="16" text-anchor="middle">Gene Expression Heatmap</text><rect x="109" y="357" width="99" height="89.1" fill="rgb(31,147,139)" /><rect x="209" y="357" width="99" height="89.1" fill="rgb(70,11,94)" /><rect x="309" y="357" width="99" height="89.1" fill="rgb(139,213,69)" /><rect x="409" y="357" width="99" height="89.1" fill="rgb(61,76,137)" /><rect x="509" y="357" width="99" height="89.1" fill="rgb(74,193,108)" /><rect x="109" y="267" width="99" height="89.1" fill="rgb(67,58,131)" /><rect x="209" y="267" width="99" height="89.1" fill="rgb(197,223,32)" /><rect x="309" y="267" width="99" height="89.1" fill="rgb(68,1,84)" /><rect x="409" y="267" width="99" height="89.1" fill="rgb(60,187,116)" /><rect x="509" y="267" width="99" height="89.1" fill="rgb(57,83,139)" /><rect x="109" y="177" width="99" height="89.1" fill="rgb(38,127,141)" /><rect x="209" y="177" width="99" height="89.1" fill="rgb(88,199,100)" /><rect x="309" y="177" width="99" height="89.1" fill="rgb(47,106,142)" /><rect x="409" y="177" width="99" height="89.1" fill="rgb(72,31,112)" /><rect x="509" y="177" width="99" height="89.1" fill="rgb(121,209,81)" /><rect x="109" y="87" width="99" height="89.1" fill="rgb(158,217,57)" /><rect x="209" y="87" width="99" height="89.1" fill="rgb(61,76,137)" /><rect x="309" y="87" width="99" height="89.1" fill="rgb(33,140,141)" /><rect x="409" y="87" width="99" height="89.1" fill="rgb(253,231,37)" /><rect x="509" y="87" width="99" height="89.1" fill="rgb(71,22,104)" /><rect x="688" y="87" width="20" height="7.7" fill="rgb(253,231,37)" /><rect x="688" y="94.2" width="20" height="7.7" fill="rgb(240,229,28)" /><rect x="688" y="101.4" width="20" height="7.7" fill="rgb(227,227,24)" /><rect x="688" y="108.6" width="20" height="7.7" fill="rgb(214,226,25)" /><rect x="688" y="115.8" width="20" height="7.7" fill="rgb(200,224,31)" /><rect x="688" y="123" width="20" height="7.7" fill="rgb(186,222,39)" /><rect x="688" y="130.2" width="20" height="7.7" fill="rgb(172,220,48)" /><rect x="688" y="137.4" width="20" height="7.7" fill="rgb(158,217,57)" /><rect x="688" y="144.6" width="20" height="7.7" fill="rgb(145,214,66)" /><rect x="688" y="151.8" width="20" height="7.7" fill="rgb(132,212,74)" /><rect x="688" y="159" width="20" height="7.7" fill="rgb(119,208,82)" /><rect x="688" y="166.2" width="20" height="7.7" fill="rgb(107,205,90)" /><rect x="688" y="173.4" width="20" height="7.7" fill="rgb(95,201,96)" /><rect x="688" y="180.60000000000002" width="20" height="7.7" fill="rgb(84,197,103)" /><rect x="688" y="187.8" width="20" height="7.7" fill="rgb(74,193,108)" /><rect x="688" y="195" width="20" height="7.7" fill="rgb(64,188,114)" /><rect x="688" y="202.2" width="20" height="7.7" fill="rgb(55,184,119)" /><rect x="688" y="209.4" width="20" height="7.7" fill="rgb(48,180,123)" /><rect x="688" y="216.6" width="20" height="7.7" fill="rgb(41,175,127)" /><rect x="688" y="223.8" width="20" height="7.7" fill="rgb(36,171,130)" /><rect x="688" y="231" width="20" height="7.7" fill="rgb(33,165,133)" /><rect x="688" y="238.20000000000002" width="20" height="7.7" fill="rgb(31,161,135)" /><rect x="688" y="245.4" width="20" height="7.7" fill="rgb(30,156,137)" /><rect x="688" y="252.6" width="20" height="7.7" fill="rgb(31,151,138)" /><rect x="688" y="259.8" width="20" height="7.7" fill="rgb(31,146,140)" /><rect x="688" y="267" width="20" height="7.7" fill="rgb(33,141,141)" /><rect x="688" y="274.20000000000005" width="20" height="7.7" fill="rgb(35,136,141)" /><rect x="688" y="281.4" width="20" height="7.7" fill="rgb(37,131,142)" /><rect x="688" y="288.6" width="20" height="7.7" fill="rgb(38,127,141)" /><rect x="688" y="295.8" width="20" height="7.7" fill="rgb(40,122,142)" /><rect x="688" y="303" width="20" height="7.7" fill="rgb(42,116,141)" /><rect x="688" y="310.20000000000005" width="20" height="7.7" fill="rgb(44,112,142)" /><rect x="688" y="317.4" width="20" height="7.7" fill="rgb(47,107,142)" /><rect x="688" y="324.6" width="20" height="7.7" fill="rgb(49,102,142)" /><rect x="688" y="331.8" width="20" height="7.7" fill="rgb(51,97,140)" /><rect x="688" y="339" width="20" height="7.7" fill="rgb(54,91,140)" /><rect x="688" y="346.2" width="20" height="7.7" fill="rgb(56,85,140)" /><rect x="688" y="353.40000000000003" width="20" height="7.7" fill="rgb(59,80,138)" /><rect x="688" y="360.6" width="20" height="7.7" fill="rgb(61,74,137)" /><rect x="688" y="367.8" width="20" height="7.7" fill="rgb(64,69,135)" /><rect x="688" y="375" width="20" height="7.7" fill="rgb(66,62,133)" /><rect x="688" y="382.2" width="20" height="7.7" fill="rgb(68,56,130)" /><rect x="688" y="389.40000000000003" width="20" height="7.7" fill="rgb(70,50,126)" /><rect x="688" y="396.6" width="20" height="7.7" fill="rgb(71,44,122)" /><rect x="688" y="403.8" width="20" height="7.7" fill="rgb(72,37,118)" /><rect x="688" y="411" width="20" height="7.7" fill="rgb(71,30,111)" /><rect x="688" y="418.2" width="20" height="7.7" fill="rgb(72,23,105)" /><rect x="688" y="425.40000000000003" width="20" height="7.7" fill="rgb(71,16,99)" /><rect x="688" y="432.6" width="20" height="7.7" fill="rgb(70,8,92)" /><rect x="688" y="439.8" width="20" height="7.7" fill="rgb(68,1,84)" /><rect x="688" y="87" width="20" height="360" fill="none" stroke="black" stroke-width="1" /><line x1="708" y1="426.42857142857144" x2="712" y2="426.42857142857144" stroke="black" stroke-width="1" /><text x="714" y="430.42857142857144" font-size="10" text-anchor="start">0.5</text><line x1="708" y1="375" x2="712" y2="375" stroke="black" stroke-width="1" /><text x="714" y="379" font-size="10" text-anchor="start">1.0</text><line x1="708" y1="323.57142857142856" x2="712" y2="323.57142857142856" stroke="black" stroke-width="1" /><text x="714" y="327.57142857142856" font-size="10" text-anchor="start">1.5</text><line x1="708" y1="272.1428571428571" x2="712" y2="272.1428571428571" stroke="black" stroke-width="1" /><text x="714" y="276.1428571428571" font-size="10" text-anchor="start">2.0</text><line x1="708" y1="220.71428571428567" x2="712" y2="220.71428571428567" stroke="black" stroke-width="1" /><text x="714" y="224.71428571428567" font-size="10" text-anchor="start">2.5</text><line x1="708" y1="169.28571428571428" x2="712" y2="169.28571428571428" stroke="black" stroke-width="1" /><text x="714" y="173.28571428571428" font-size="10" text-anchor="start">3.0</text><line x1="708" y1="117.85714285714283" x2="712" y2="117.85714285714283" stroke="black" stroke-width="1" /><text x="714" y="121.85714285714283" font-size="10" text-anchor="start">3.5</text></svg>