<svg xmlns="http://www.w3.org/2000/svg" width="520" height="400" font-family="DejaVu Sans, Liberation Sans, Arial, sans-serif" fill="black"><rect width="100%" height="100%" fill="white" /><defs><clipPath id="kuva-clip-2"><rect x="59" y="44" width="343.2" height="305"/></clipPath></defs><line x1="116.2" y1="44" x2="116.2" y2="349" stroke="#cccccc" stroke-width="1" /><line x1="173.4" y1="44" x2="173.4" y2="349" stroke="#cccccc" stroke-width="1" /><line x1="230.6" y1="44" x2="230.6" y2="349" stroke="#cccccc" stroke-width="1" /><line x1="287.8" y1="44" x2="287.8" y2="349" stroke="#cccccc" stroke-width="1" /><line x1="345" y1="44" x2="345" y2="349" stroke="#cccccc" stroke-width="1" /><line x1="402.2" y1="44" x2="402.2" y2="349" stroke="#cccccc" stroke-width="1" /><line x1="59" y1="285.46" x2="402.2" y2="285.46" stroke="#cccccc" stroke-width="1" /><line x1="59" y1="221.92000000000002" x2="402.2" y2="221.92000000000002" stroke="#cccccc" stroke-width="1" /><line x1="59" y1="158.38" x2="402.2" y2="158.38" stroke="#cccccc" stroke-width="1" /><line x1="59" y1="94.83" x2="402.2" y2="94.83" stroke="#cccccc" stroke-width="1" /><line x1="59" y1="349" x2="402.2" y2="349" stroke="#000000" stroke-width="1" /><line x1="59" y1="44" x2="59" y2="349" stroke="#000000" stroke-width="1" /><line x1="59" y1="349" x2="59" y2="354" stroke="#000000" stroke-width="1" /><text x="59" y="366" font-size="12" text-anchor="middle">0</text><line x1="116.2" y1="349" x2="116.2" y2="354" stroke="#000000" stroke-width="1" /><text x="116.2" y="366" font-size="12" text-anchor="middle">10</text><line x1="173.4" y1="349" x2="173.4" y2="354" stroke="#000000" stroke-width="1" /><text x="173.4" y="366" font-size="12" text-anchor="middle">20</text><line x1="230.6" y1="349" x2="230.6" y2="354" stroke="#000000" stroke-width="1" /><text x="230.6" y="366" font-size="12" text-anchor="middle">30</text><line x1="287.8" y1="349" x2="287.8" y2="354" stroke="#000000" stroke-width="1" /><text x="287.8" y="366" font-size="12" text-anchor="middle">40</text><line x1="345" y1="349" x2="345" y2="354" stroke="#000000" stroke-width="1" /><text x="345" y="366" font-size="12" text-anchor="middle">50</text><line x1="402.2" y1="349" x2="402.2" y2="354" stroke="#000000" stroke-width="1" /><text x="402.2" y="366" font-size="12" text-anchor="middle">60</text><line x1="54" y1="349" x2="59" y2="349" stroke="#000000" stroke-width="1" /><text x="51" y="353.2" font-size="12" text-anchor="end">0</text><line x1="54" y1="285.46" x2="59" y2="285.46" stroke="#000000" stroke-width="1" /><text x="51" y="289.66" font-size="12" text-anchor="end">0.25</text><line x1="54" y1="221.92000000000002" x2="59" y2="221.92000000000002" stroke="#000000" stroke-width="1" /><text x="51" y="226.12" font-size="12" text-anchor="end">0.5</text><line x1="54" y1="158.38" x2="59" y2="158.38" stroke="#000000" stroke-width="1" /><text x="51" y="162.58" font-size="12" text-anchor="end">0.75</text><line x1="54" y1="94.83" x2="59" y2="94.83" stroke="#000000" stroke-width="1" /><text x="51" y="99.03" font-size="12" text-anchor="end">1</text><text x="230.6" y="393" font-size="14" text-anchor="middle">Time (months)</text><text x="15" y="200" font-size="14" text-anchor="middle" transform="rotate(-90,15,200)">Overall survival</text><text x="230.6" y="22" font-size="18" text-anchor="middle">Survival by Disease Stage</text><g clip-path="url(#kuva-clip-2)"><path d="M 59,94.83 H 139.08 V 94.83 V 123.07000000000001 H 242.04 V 123.07000000000001 V 160.73 H 310.68 V 160.73 V 223.49 H 356.44" stroke="#1f77b4" stroke-width="2" fill="none" /><line x1="116.2" y1="90.83" x2="116.2" y2="98.83" stroke="#1f77b4" stroke-width="2" /><line x1="173.4" y1="119.07000000000001" x2="173.4" y2="127.07000000000001" stroke="#1f77b4" stroke-width="2" /><line x1="207.72" y1="119.07000000000001" x2="207.72" y2="127.07000000000001" stroke="#1f77b4" stroke-width="2" /><line x1="264.92" y1="156.73" x2="264.92" y2="164.73" stroke="#1f77b4" stroke-width="2" /><line x1="287.8" y1="156.73" x2="287.8" y2="164.73" stroke="#1f77b4" stroke-width="2" /><line x1="333.56" y1="219.49" x2="333.56" y2="227.49" stroke="#1f77b4" stroke-width="2" /><line x1="356.44" y1="219.49" x2="356.44" y2="227.49" stroke="#1f77b4" stroke-width="2" /><path d="M 59,94.83 H 87.60000000000001 V 94.83 V 120.25 H 104.76 V 120.25 V 145.67000000000002 H 150.52 V 145.67000000000002 V 174.71 H 196.28 V 174.71 V 209.57 H 264.92 V 209.57 V 279.29 H 356.44" stroke="#ff7f0e" stroke-width="2" fill="none" /><line x1="127.64" y1="141.67000000000002" x2="127.64" y2="149.67000000000002" stroke="#ff7f0e" stroke-width="2" /><line x1="173.4" y1="170.71" x2="173.4" y2="178.71" stroke="#ff7f0e" stroke-width="2" /><line x1="219.16" y1="205.57" x2="219.16" y2="213.57" stroke="#ff7f0e" stroke-width="2" /><line x1="242.04" y1="205.57" x2="242.04" y2="213.57" stroke="#ff7f0e" stroke-width="2" /><line x1="287.8" y1="275.29" x2="287.8" y2="283.29" stroke="#ff7f0e" stroke-width="2" /><path d="M 59,94.83 H 70.44 V 94.83 V 120.25 H 81.88 V 120.25 V 145.67000000000002 H 93.32000000000001 V 145.67000000000002 V 171.08 H 116.2 V 171.08 V 200.74 H 127.64 V 200.74 V 230.39000000000001 H 150.52 V 230.39000000000001 V 269.93 H 173.4 V 269.93 V 349 H 356.44" stroke="#2ca02c" stroke-width="2" fill="none" /><line x1="104.76" y1="167.08" x2="104.76" y2="175.08" stroke="#2ca02c" stroke-width="2" /><line x1="139.08" y1="226.39000000000001" x2="139.08" y2="234.39000000000001" stroke="#2ca02c" stroke-width="2" /><line x1="161.96" y1="265.93" x2="161.96" y2="273.93" stroke="#2ca02c" stroke-width="2" /><text x="394.2" y="62" font-size="12" text-anchor="end">log-rank p &lt; 0.001</text></g><rect x="407.2" y="34" width="99.8" height="74" fill="#ffffff" /><rect x="407.2" y="34" width="99.8" height="74" fill="none" stroke="#000000" stroke-width="1" /><text x="437.2" y="53.2" font-size="12" text-anchor="start">Stage I</text><line x1="417.2" y1="49" x2="429.2" y2="49" stroke="#1f77b4" stroke-width="2" /><text x="437.2" y="71.2" font-size="12" text-anchor="start">Stage II</text><line x1="417.2" y1="67" x2="429.2" y2="67" stroke="#ff7f0e" stroke-width="2" /><text x="437.2" y="89.2" font-size="12" text-anchor="start">Stage III</text><line x1="417.2" y1="85" x2="429.2" y2="85" stroke="#2ca02c" stroke-width="2" /></svg>