<svg xmlns="http://www.w3.org/2000/svg" width="520" height="400" font-family="DejaVu Sans, Liberation Sans, Arial, sans-serif" fill="black"><rect width="100%" height="100%" fill="white" /><defs><clipPath id="kuva-clip-1"><rect x="59" y="44" width="343.2" height="305"/></clipPath></defs><line x1="127.64" y1="44" x2="127.64" y2="349" stroke="#cccccc" stroke-width="1" /><line x1="196.28" y1="44" x2="196.28" y2="349" stroke="#cccccc" stroke-width="1" /><line x1="264.92" y1="44" x2="264.92" y2="349" stroke="#cccccc" stroke-width="1" /><line x1="333.56" y1="44" x2="333.56" y2="349" stroke="#cccccc" stroke-width="1" /><line x1="402.2" y1="44" x2="402.2" y2="349" stroke="#cccccc" stroke-width="1" /><line x1="59" y1="285.46" x2="402.2" y2="285.46" stroke="#cccccc" stroke-width="1" /><line x1="59" y1="221.92000000000002" x2="402.2" y2="221.92000000000002" stroke="#cccccc" stroke-width="1" /><line x1="59" y1="158.38" x2="402.2" y2="158.38" stroke="#cccccc" stroke-width="1" /><line x1="59" y1="94.83" x2="402.2" y2="94.83" stroke="#cccccc" stroke-width="1" /><line x1="59" y1="349" x2="402.2" y2="349" stroke="#000000" stroke-width="1" /><line x1="59" y1="44" x2="59" y2="349" stroke="#000000" stroke-width="1" /><line x1="59" y1="349" x2="59" y2="354" stroke="#000000" stroke-width="1" /><text x="59" y="366" font-size="12" text-anchor="middle">0</text><line x1="127.64" y1="349" x2="127.64" y2="354" stroke="#000000" stroke-width="1" /><text x="127.64" y="366" font-size="12" text-anchor="middle">10</text><line x1="196.28" y1="349" x2="196.28" y2="354" stroke="#000000" stroke-width="1" /><text x="196.28" y="366" font-size="12" text-anchor="middle">20</text><line x1="264.92" y1="349" x2="264.92" y2="354" stroke="#000000" stroke-width="1" /><text x="264.92" y="366" font-size="12" text-anchor="middle">30</text><line x1="333.56" y1="349" x2="333.56" y2="354" stroke="#000000" stroke-width="1" /><text x="333.56" y="366" font-size="12" text-anchor="middle">40</text><line x1="402.2" y1="349" x2="402.2" y2="354" stroke="#000000" stroke-width="1" /><text x="402.2" y="366" font-size="12" text-anchor="middle">50</text><line x1="54" y1="349" x2="59" y2="349" stroke="#000000" stroke-width="1" /><text x="51" y="353.2" font-size="12" text-anchor="end">0</text><line x1="54" y1="285.46" x2="59" y2="285.46" stroke="#000000" stroke-width="1" /><text x="51" y="289.66" font-size="12" text-anchor="end">0.25</text><line x1="54" y1="221.92000000000002" x2="59" y2="221.92000000000002" stroke="#000000" stroke-width="1" /><text x="51" y="226.12" font-size="12" text-anchor="end">0.5</text><line x1="54" y1="158.38" x2="59" y2="158.38" stroke="#000000" stroke-width="1" /><text x="51" y="162.58" font-size="12" text-anchor="end">0.75</text><line x1="54" y1="94.83" x2="59" y2="94.83" stroke="#000000" stroke-width="1" /><text x="51" y="99.03" font-size="12" text-anchor="end">1</text><text x="230.6" y="393" font-size="14" text-anchor="middle">Time (months)</text><text x="15" y="200" font-size="14" text-anchor="middle" transform="rotate(-90,15,200)">Probability of survival</text><text x="230.6" y="22" font-size="18" text-anchor="middle">Overall Survival by Treatment Arm</text><g clip-path="url(#kuva-clip-1)"><path d="M 59,94.83 L 65.86,94.83 L 65.86,94.83 L 72.73,94.83 L 72.73,94.83 L 79.59,94.83 L 79.59,94.83 L 93.32000000000001,94.83 L 93.32000000000001,101.22 L 107.05,101.22 L 107.05,110.60000000000001 L 127.64,110.60000000000001 L 127.64,121.34 L 155.1,121.34 L 155.1,133.67000000000002 L 161.96,133.67000000000002 L 161.96,147.29 L 182.55,147.29 L 182.55,163 L 223.74,163 L 223.74,183.44 L 251.19,183.44 L 251.19,213.41 L 361.02,213.41 L 361.02,349 L 251.19,349 L 251.19,314.68 L 223.74,314.68 L 223.74,285.15000000000003 L 182.55,285.15000000000003 L 182.55,265.17 L 161.96,265.17 L 161.96,247.07 L 155.1,247.07 L 155.1,227.67000000000002 L 127.64,227.67000000000002 L 127.64,209.33 L 107.05,209.33 L 107.05,191.71 L 93.32000000000001,191.71 L 93.32000000000001,172.73 L 79.59,172.73 L 79.59,153.67000000000002 L 72.73,153.67000000000002 L 72.73,131.82 L 65.86,131.82 L 65.86,94.83 L 59,94.83 Z" stroke="#1f77b4" stroke-width="0" fill="#1f77b4" fill-opacity="0.2" /><path d="M 59,94.83 H 65.86 V 94.83 V 107.54 H 72.73 V 107.54 V 120.25 H 79.59 V 120.25 V 132.96 H 93.32000000000001 V 132.96 V 146.46 H 107.05 V 146.46 V 159.96 H 127.64 V 159.96 V 174.5 H 155.1 V 174.5 V 190.37 H 161.96 V 190.37 V 206.23000000000002 H 182.55 V 206.23000000000002 V 224.08 H 223.74 V 224.08 V 249.06 H 251.19 V 249.06 V 282.37 H 361.02" stroke="#1f77b4" stroke-width="2" fill="none" /><line x1="86.46000000000001" y1="128.96" x2="86.46000000000001" y2="136.96" stroke="#1f77b4" stroke-width="2" /><line x1="113.91" y1="155.96" x2="113.91" y2="163.96" stroke="#1f77b4" stroke-width="2" /><line x1="141.37" y1="170.5" x2="141.37" y2="178.5" stroke="#1f77b4" stroke-width="2" /><line x1="168.82" y1="202.23000000000002" x2="168.82" y2="210.23000000000002" stroke="#1f77b4" stroke-width="2" /><line x1="196.28" y1="220.08" x2="196.28" y2="228.08" stroke="#1f77b4" stroke-width="2" /><line x1="210.01" y1="220.08" x2="210.01" y2="228.08" stroke="#1f77b4" stroke-width="2" /><line x1="237.46" y1="245.06" x2="237.46" y2="253.06" stroke="#1f77b4" stroke-width="2" /><line x1="264.92" y1="278.37" x2="264.92" y2="286.37" stroke="#1f77b4" stroke-width="2" /><line x1="278.65000000000003" y1="278.37" x2="278.65000000000003" y2="286.37" stroke="#1f77b4" stroke-width="2" /><path d="M 59,94.83 L 86.46000000000001,94.83 L 86.46000000000001,94.83 L 113.91,94.83 L 113.91,94.83 L 155.1,94.83 L 155.1,94.83 L 196.28,94.83 L 196.28,103.12 L 237.46,103.12 L 237.46,116.78 L 292.38,116.78 L 292.38,136.76 L 361.02,136.76 L 361.02,293.41 L 292.38,293.41 L 292.38,246.43 L 237.46,246.43 L 237.46,212.27 L 196.28,212.27 L 196.28,183.92000000000002 L 155.1,183.92000000000002 L 155.1,158.46 L 113.91,158.46 L 113.91,133.73 L 86.46000000000001,133.73 L 86.46000000000001,94.83 L 59,94.83 Z" stroke="#ff7f0e" stroke-width="0" fill="#ff7f0e" fill-opacity="0.2" /><path d="M 59,94.83 H 86.46000000000001 V 94.83 V 108.21000000000001 H 113.91 V 108.21000000000001 V 122.37 H 155.1 V 122.37 V 138.56 H 196.28 V 138.56 V 157.69 H 237.46 V 157.69 V 181.61 H 292.38 V 181.61 V 215.08 H 361.02" stroke="#ff7f0e" stroke-width="2" fill="none" /><line x1="72.73" y1="90.83" x2="72.73" y2="98.83" stroke="#ff7f0e" stroke-width="2" /><line x1="100.18" y1="104.21000000000001" x2="100.18" y2="112.21000000000001" stroke="#ff7f0e" stroke-width="2" /><line x1="127.64" y1="118.37" x2="127.64" y2="126.37" stroke="#ff7f0e" stroke-width="2" /><line x1="141.37" y1="118.37" x2="141.37" y2="126.37" stroke="#ff7f0e" stroke-width="2" /><line x1="168.82" y1="134.56" x2="168.82" y2="142.56" stroke="#ff7f0e" stroke-width="2" /><line x1="182.55" y1="134.56" x2="182.55" y2="142.56" stroke="#ff7f0e" stroke-width="2" /><line x1="210.01" y1="153.69" x2="210.01" y2="161.69" stroke="#ff7f0e" stroke-width="2" /><line x1="223.74" y1="153.69" x2="223.74" y2="161.69" stroke="#ff7f0e" stroke-width="2" /><line x1="251.19" y1="177.61" x2="251.19" y2="185.61" stroke="#ff7f0e" stroke-width="2" /><line x1="278.65000000000003" y1="177.61" x2="278.65000000000003" y2="185.61" stroke="#ff7f0e" stroke-width="2" /><line x1="306.1" y1="211.08" x2="306.1" y2="219.08" stroke="#ff7f0e" stroke-width="2" /><line x1="333.56" y1="211.08" x2="333.56" y2="219.08" stroke="#ff7f0e" stroke-width="2" /><line x1="347.29" y1="211.08" x2="347.29" y2="219.08" stroke="#ff7f0e" stroke-width="2" /><line x1="361.02" y1="211.08" x2="361.02" y2="219.08" stroke="#ff7f0e" stroke-width="2" /><text x="394.2" y="62" font-size="12" text-anchor="end">log-rank p = 0.038</text></g><rect x="407.2" y="34" width="99.8" height="56" fill="#ffffff" /><rect x="407.2" y="34" width="99.8" height="56" fill="none" stroke="#000000" stroke-width="1" /><text x="437.2" y="53.2" font-size="12" text-anchor="start">Control</text><line x1="417.2" y1="49" x2="429.2" y2="49" stroke="#1f77b4" stroke-width="2" /><text x="437.2" y="71.2" font-size="12" text-anchor="start">Treatment</text><line x1="417.2" y1="67" x2="429.2" y2="67" stroke="#ff7f0e" stroke-width="2" /></svg>