<svg xmlns="http://www.w3.org/2000/svg" width="679" height="541" fill="black"><rect width="100%" height="100%" fill="white" /><text x="339.5" y="21" font-size="16" text-anchor="middle">Human chr1 vs Mouse chr1</text><path d="M 170 80 C 170 267 170 267 170 454 L 279.35071606762483 454 C 279.35071606762483 267 265.39822194263377 267 265.39822194263377 80 Z" stroke="#1f77b4" stroke-width="0.3" fill="#1f77b4" fill-opacity="0.65" /><path d="M 284.47786633116056 80 C 284.47786633116056 267 303.6508751937637 267 303.6508751937637 454 L 413.0015912613886 454 C 413.0015912613886 267 398.9557326623211 267 398.9557326623211 80 Z" stroke="#ff7f0e" stroke-width="0.3" fill="#ff7f0e" fill-opacity="0.65" /><path d="M 418.0353770508479 80 C 418.0353770508479 267 437.3017503875274 267 437.3017503875274 454 L 583.1027051443606 454 C 583.1027051443606 267 551.5928877705352 267 551.5928877705352 80 Z" stroke="#2ca02c" stroke-width="0.3" fill="#2ca02c" fill-opacity="0.65" /><rect x="170" y="62" width="475" height="18" fill="#555555" /><rect x="170" y="454" width="475" height="18" fill="#555555" /><text x="164" y="75" font-size="12" text-anchor="end">Human chr1</text><text x="164" y="467" font-size="12" text-anchor="end">Mouse chr1</text></svg>