<svg xmlns="http://www.w3.org/2000/svg" width="759" height="541" fill="black"><rect width="100%" height="100%" fill="white" /><text x="379.5" y="21" font-size="16" text-anchor="middle">Custom Colors &amp; Legend</text><path d="M 145 80 C 145 267 145 267 145 454 L 295 454 C 295 267 295 267 295 80 Z" stroke="#2ca02c" stroke-width="0.3" fill="#2ca02c" fill-opacity="0.65" /><path d="M 345 80 C 345 267 345 267 345 454 L 485 454 C 485 267 495 267 495 80 Z" stroke="#9467bd" stroke-width="0.3" fill="#9467bd" fill-opacity="0.65" /><path d="M 525 80 C 525 267 615 267 615 454 L 515 454 C 515 267 625 267 625 80 Z" stroke="#ff7f0e" stroke-width="0.3" fill="#ff7f0e" fill-opacity="0.65" /><rect x="145" y="62" width="500" height="18" fill="#4393c3" /><rect x="145" y="454" width="500" height="18" fill="#d6604d" /><text x="139" y="75" font-size="12" text-anchor="end">Seq 1</text><text x="139" y="467" font-size="12" text-anchor="end">Seq 2</text><rect x="670" y="32" width="80" height="56" fill="white" /><rect x="670" y="32" width="80" height="56" fill="none" stroke="black" stroke-width="1" /><text x="700" y="47" font-size="12" text-anchor="start">Seq 1</text><rect x="680" y="41" width="12" height="12" fill="#4393c3" /><text x="700" y="65" font-size="12" text-anchor="start">Seq 2</text><rect x="680" y="59" width="12" height="12" fill="#d6604d" /></svg>