<svg xmlns="http://www.w3.org/2000/svg" width="679" height="541" fill="black"><rect width="100%" height="100%" fill="white" /><text x="339.5" y="21" font-size="16" text-anchor="middle">Forward and Inverted Blocks</text><path d="M 145 80 C 145 267 145 267 145 454 L 245 454 C 245 267 245 267 245 80 Z" stroke="#1f77b4" stroke-width="0.3" fill="#1f77b4" fill-opacity="0.65" /><path d="M 270 80 C 270 267 395 267 395 454 L 270 454 C 270 267 395 267 395 80 Z" stroke="#ff7f0e" stroke-width="0.3" fill="#ff7f0e" fill-opacity="0.65" /><path d="M 445 80 C 445 267 445 267 445 454 L 595 454 C 595 267 595 267 595 80 Z" stroke="#2ca02c" stroke-width="0.3" fill="#2ca02c" fill-opacity="0.65" /><rect x="145" y="62" width="500" height="18" fill="#555555" /><rect x="145" y="454" width="500" height="18" fill="#555555" /><text x="139" y="75" font-size="12" text-anchor="end">Seq A</text><text x="139" y="467" font-size="12" text-anchor="end">Seq B</text></svg>