<svg xmlns="http://www.w3.org/2000/svg" width="679" height="541" fill="black"><rect width="100%" height="100%" fill="white" /><text x="339.5" y="21" font-size="16" text-anchor="middle">Three-way Synteny</text><path d="M 156 80 C 156 169 156 169 156 258 L 252.78125 258 C 252.78125 169 253.8 169 253.8 80 Z" stroke="#1f77b4" stroke-width="0.3" fill="#1f77b4" fill-opacity="0.65" /><path d="M 302.7 80 C 302.7 169 298.625 169 298.625 258 L 441.25 258 C 441.25 169 449.4 169 449.4 80 Z" stroke="#ff7f0e" stroke-width="0.3" fill="#ff7f0e" fill-opacity="0.65" /><path d="M 156 276 C 156 365 161.43333333333334 365 161.43333333333334 454 L 270.1 454 C 270.1 365 257.875 365 257.875 276 Z" stroke="#2ca02c" stroke-width="0.3" fill="#2ca02c" fill-opacity="0.65" /><path d="M 359.75 276 C 359.75 365 525.4666666666667 365 525.4666666666667 454 L 362.4666666666667 454 C 362.4666666666667 365 512.5625 365 512.5625 276 Z" stroke="#d62728" stroke-width="0.3" fill="#d62728" fill-opacity="0.65" /><rect x="156" y="62" width="489" height="18" fill="#555555" /><rect x="156" y="258" width="489" height="18" fill="#555555" /><rect x="156" y="454" width="489" height="18" fill="#555555" /><text x="150" y="75" font-size="12" text-anchor="end">Genome A</text><text x="150" y="271" font-size="12" text-anchor="end">Genome B</text><text x="150" y="467" font-size="12" text-anchor="end">Genome C</text></svg>