<svg xmlns="http://www.w3.org/2000/svg" width="748" height="541" fill="black"><rect width="100%" height="100%" fill="white" /><line x1="59" y1="492" x2="659" y2="492" stroke="black" stroke-width="1" /><line x1="59" y1="42" x2="59" y2="492" stroke="black" stroke-width="1" /><text x="49" y="450.5" font-size="10" text-anchor="end">LYZ</text><line x1="54" y1="447" x2="59" y2="447" stroke="black" stroke-width="1" /><text x="49" y="405.5" font-size="10" text-anchor="end">CD14</text><line x1="54" y1="402" x2="59" y2="402" stroke="black" stroke-width="1" /><text x="49" y="360.5" font-size="10" text-anchor="end">MS4A1</text><line x1="54" y1="357" x2="59" y2="357" stroke="black" stroke-width="1" /><text x="49" y="315.5" font-size="10" text-anchor="end">GNLY</text><line x1="54" y1="312" x2="59" y2="312" stroke="black" stroke-width="1" /><text x="49" y="270.5" font-size="10" text-anchor="end">CD8A</text><line x1="54" y1="267" x2="59" y2="267" stroke="black" stroke-width="1" /><text x="49" y="225.5" font-size="10" text-anchor="end">CD4</text><line x1="54" y1="222" x2="59" y2="222" stroke="black" stroke-width="1" /><text x="49" y="180.5" font-size="10" text-anchor="end">CD3E</text><line x1="54" y1="177" x2="59" y2="177" stroke="black" stroke-width="1" /><text x="49" y="135.5" font-size="10" text-anchor="end">PTPRC</text><line x1="54" y1="132" x2="59" y2="132" stroke="black" stroke-width="1" /><text x="144.71428571428572" y="507" font-size="10" text-anchor="middle">CD4 T</text><line x1="144.71428571428572" y1="492" x2="144.71428571428572" y2="497" stroke="black" stroke-width="1" /><text x="230.42857142857142" y="507" font-size="10" text-anchor="middle">CD8 T</text><line x1="230.42857142857142" y1="492" x2="230.42857142857142" y2="497" stroke="black" stroke-width="1" /><text x="316.1428571428571" y="507" font-size="10" text-anchor="middle">NK</text><line x1="316.1428571428571" y1="492" x2="316.1428571428571" y2="497" stroke="black" stroke-width="1" /><text x="401.85714285714283" y="507" font-size="10" text-anchor="middle">B cell</text><line x1="401.85714285714283" y1="492" x2="401.85714285714283" y2="497" stroke="black" stroke-width="1" /><text x="487.57142857142856" y="507" font-size="10" text-anchor="middle">Mono</text><line x1="487.57142857142856" y1="492" x2="487.57142857142856" y2="497" stroke="black" stroke-width="1" /><text x="573.2857142857142" y="507" font-size="10" text-anchor="middle">DC</text><line x1="573.2857142857142" y1="492" x2="573.2857142857142" y2="497" stroke="black" stroke-width="1" /><text x="374" y="534" font-size="14" text-anchor="middle">Cell type</text><text x="14" y="270.5" font-size="14" text-anchor="middle" transform="rotate(-90,14,270.5)">Gene</text><text x="374" y="21" font-size="16" text-anchor="middle">Gene Expression Dot Plot</text><circle cx="144.71428571428572" cy="132" r="11.64516129032258" fill="rgb(193,223,35)" /><circle cx="230.42857142857142" cy="132" r="12" fill="rgb(224,227,24)" /><circle cx="316.1428571428571" cy="132" r="11.172043010752688" fill="rgb(162,218,54)" /><circle cx="401.85714285714283" cy="132" r="11.526881720430108" fill="rgb(178,221,44)" /><circle cx="487.57142857142856" cy="132" r="10.817204301075268" fill="rgb(133,212,73)" /><circle cx="573.2857142857142" cy="132" r="10.46236559139785" fill="rgb(105,204,90)" /><circle cx="144.71428571428572" cy="177" r="11.172043010752688" fill="rgb(147,215,64)" /><circle cx="230.42857142857142" cy="177" r="11.526881720430108" fill="rgb(178,221,44)" /><circle cx="316.1428571428571" cy="177" r="2.182795698924731" fill="rgb(72,33,115)" /><circle cx="401.85714285714283" cy="177" r="1.3548387096774195" fill="rgb(70,9,92)" /><circle cx="487.57142857142856" cy="177" r="1.118279569892473" fill="rgb(68,1,84)" /><circle cx="573.2857142857142" cy="177" r="1.2365591397849462" fill="rgb(70,9,92)" /><circle cx="144.71428571428572" cy="222" r="10.817204301075268" fill="rgb(105,204,90)" /><circle cx="230.42857142857142" cy="222" r="1.7096774193548387" fill="rgb(71,18,100)" /><circle cx="316.1428571428571" cy="222" r="1.2365591397849462" fill="rgb(70,9,92)" /><circle cx="401.85714285714283" cy="222" r="1.118279569892473" fill="rgb(68,1,84)" /><circle cx="487.57142857142856" cy="222" r="2.89247311827957" fill="rgb(68,55,129)" /><circle cx="573.2857142857142" cy="222" r="3.3655913978494625" fill="rgb(64,69,135)" /><circle cx="144.71428571428572" cy="267" r="1.3548387096774195" fill="rgb(70,9,92)" /><circle cx="230.42857142857142" cy="267" r="10.46236559139785" fill="rgb(92,200,98)" /><circle cx="316.1428571428571" cy="267" r="2.5376344086021505" fill="rgb(70,47,125)" /><circle cx="401.85714285714283" cy="267" r="1.118279569892473" fill="rgb(68,1,84)" /><circle cx="487.57142857142856" cy="267" r="1" fill="rgb(68,1,84)" /><circle cx="573.2857142857142" cy="267" r="1.2365591397849462" fill="rgb(70,9,92)" /><circle cx="144.71428571428572" cy="312" r="1.7096774193548387" fill="rgb(72,26,108)" /><circle cx="230.42857142857142" cy="312" r="5.731182795698925" fill="rgb(36,132,142)" /><circle cx="316.1428571428571" cy="312" r="11.172043010752688" fill="rgb(253,231,37)" /><circle cx="401.85714285714283" cy="312" r="1.118279569892473" fill="rgb(68,1,84)" /><circle cx="487.57142857142856" cy="312" r="1.3548387096774195" fill="rgb(70,9,92)" /><circle cx="573.2857142857142" cy="312" r="1.4731182795698925" fill="rgb(71,18,100)" /><circle cx="144.71428571428572" cy="357" r="1" fill="rgb(68,1,84)" /><circle cx="230.42857142857142" cy="357" r="1.118279569892473" fill="rgb(68,1,84)" /><circle cx="316.1428571428571" cy="357" r="1" fill="rgb(68,1,84)" /><circle cx="401.85714285714283" cy="357" r="11.408602150537636" fill="rgb(209,225,27)" /><circle cx="487.57142857142856" cy="357" r="1.3548387096774195" fill="rgb(70,9,92)" /><circle cx="573.2857142857142" cy="357" r="1.4731182795698925" fill="rgb(71,18,100)" /><circle cx="144.71428571428572" cy="402" r="1.118279569892473" fill="rgb(68,1,84)" /><circle cx="230.42857142857142" cy="402" r="1" fill="rgb(68,1,84)" /><circle cx="316.1428571428571" cy="402" r="1.2365591397849462" fill="rgb(70,9,92)" /><circle cx="401.85714285714283" cy="402" r="1.3548387096774195" fill="rgb(70,9,92)" /><circle cx="487.57142857142856" cy="402" r="10.817204301075268" fill="rgb(162,218,54)" /><circle cx="573.2857142857142" cy="402" r="3.720430107526882" fill="rgb(58,81,139)" /><circle cx="144.71428571428572" cy="447" r="1.3548387096774195" fill="rgb(70,9,92)" /><circle cx="230.42857142857142" cy="447" r="1.2365591397849462" fill="rgb(70,9,92)" /><circle cx="316.1428571428571" cy="447" r="1.7096774193548387" fill="rgb(72,26,108)" /><circle cx="401.85714285714283" cy="447" r="1.4731182795698925" fill="rgb(71,18,100)" /><circle cx="487.57142857142856" cy="447" r="11.64516129032258" fill="rgb(239,229,28)" /><circle cx="573.2857142857142" cy="447" r="9.989247311827958" fill="rgb(105,204,90)" /><rect x="664" y="56" width="75" height="92" fill="white" /><rect x="664" y="56" width="75" height="92" fill="none" stroke="black" stroke-width="1" /><text x="696.5" y="52" font-size="10" text-anchor="middle">% Expressing</text><text x="694" y="71" font-size="12" text-anchor="start">25.2</text><circle cx="680" cy="67" r="3" fill="#444444" /><text x="694" y="89" font-size="12" text-anchor="start">48.5</text><circle cx="680" cy="85" r="6" fill="#444444" /><text x="694" y="107" font-size="12" text-anchor="start">71.8</text><circle cx="680" cy="103" r="8" fill="#444444" /><text x="694" y="125" font-size="12" text-anchor="start">95.0</text><circle cx="680" cy="121" r="8" fill="#444444" /><text x="679" y="157" font-size="10" text-anchor="middle">Mean expression</text><rect x="669" y="163" width="20" height="6.78" fill="rgb(253,231,37)" /><rect x="669" y="169.28" width="20" height="6.78" fill="rgb(240,229,28)" /><rect x="669" y="175.56" width="20" height="6.78" fill="rgb(227,227,24)" /><rect x="669" y="181.84" width="20" height="6.78" fill="rgb(214,226,25)" /><rect x="669" y="188.12" width="20" height="6.78" fill="rgb(200,224,31)" /><rect x="669" y="194.4" width="20" height="6.78" fill="rgb(186,222,39)" /><rect x="669" y="200.68" width="20" height="6.78" fill="rgb(172,220,48)" /><rect x="669" y="206.96" width="20" height="6.78" fill="rgb(158,217,57)" /><rect x="669" y="213.24" width="20" height="6.78" fill="rgb(145,214,66)" /><rect x="669" y="219.52" width="20" height="6.78" fill="rgb(132,212,74)" /><rect x="669" y="225.8" width="20" height="6.78" fill="rgb(119,208,82)" /><rect x="669" y="232.07999999999998" width="20" height="6.78" fill="rgb(107,205,90)" /><rect x="669" y="238.36" width="20" height="6.78" fill="rgb(95,201,96)" /><rect x="669" y="244.64" width="20" height="6.78" fill="rgb(84,197,103)" /><rect x="669" y="250.92000000000002" width="20" height="6.78" fill="rgb(74,193,108)" /><rect x="669" y="257.2" width="20" height="6.78" fill="rgb(64,188,114)" /><rect x="669" y="263.48" width="20" height="6.78" fill="rgb(55,184,119)" /><rect x="669" y="269.76" width="20" height="6.78" fill="rgb(48,180,123)" /><rect x="669" y="276.04" width="20" height="6.78" fill="rgb(41,175,127)" /><rect x="669" y="282.32" width="20" height="6.78" fill="rgb(36,171,130)" /><rect x="669" y="288.6" width="20" height="6.78" fill="rgb(33,165,133)" /><rect x="669" y="294.88" width="20" height="6.78" fill="rgb(31,161,135)" /><rect x="669" y="301.15999999999997" width="20" height="6.78" fill="rgb(30,156,137)" /><rect x="669" y="307.44" width="20" height="6.78" fill="rgb(31,151,138)" /><rect x="669" y="313.72" width="20" height="6.78" fill="rgb(31,146,140)" /><rect x="669" y="320" width="20" height="6.78" fill="rgb(33,141,141)" /><rect x="669" y="326.28" width="20" height="6.78" fill="rgb(35,136,141)" /><rect x="669" y="332.56" width="20" height="6.78" fill="rgb(37,131,142)" /><rect x="669" y="338.84000000000003" width="20" height="6.78" fill="rgb(38,127,141)" /><rect x="669" y="345.12" width="20" height="6.78" fill="rgb(40,122,142)" /><rect x="669" y="351.4" width="20" height="6.78" fill="rgb(42,116,141)" /><rect x="669" y="357.68" width="20" height="6.78" fill="rgb(44,112,142)" /><rect x="669" y="363.96000000000004" width="20" height="6.78" fill="rgb(47,107,142)" /><rect x="669" y="370.24" width="20" height="6.78" fill="rgb(49,102,142)" /><rect x="669" y="376.52" width="20" height="6.78" fill="rgb(51,97,140)" /><rect x="669" y="382.8" width="20" height="6.78" fill="rgb(54,91,140)" /><rect x="669" y="389.08000000000004" width="20" height="6.78" fill="rgb(56,85,140)" /><rect x="669" y="395.36" width="20" height="6.78" fill="rgb(59,80,138)" /><rect x="669" y="401.64" width="20" height="6.78" fill="rgb(61,74,137)" /><rect x="669" y="407.92" width="20" height="6.78" fill="rgb(64,69,135)" /><rect x="669" y="414.20000000000005" width="20" height="6.78" fill="rgb(66,62,133)" /><rect x="669" y="420.48" width="20" height="6.78" fill="rgb(68,56,130)" /><rect x="669" y="426.76" width="20" height="6.78" fill="rgb(70,50,126)" /><rect x="669" y="433.04" width="20" height="6.78" fill="rgb(71,44,122)" /><rect x="669" y="439.32" width="20" height="6.78" fill="rgb(72,37,118)" /><rect x="669" y="445.6" width="20" height="6.78" fill="rgb(71,30,111)" /><rect x="669" y="451.88" width="20" height="6.78" fill="rgb(72,23,105)" /><rect x="669" y="458.16" width="20" height="6.78" fill="rgb(71,16,99)" /><rect x="669" y="464.44" width="20" height="6.78" fill="rgb(70,8,92)" /><rect x="669" y="470.72" width="20" height="6.78" fill="rgb(68,1,84)" /><rect x="669" y="163" width="20" height="314" fill="none" stroke="black" stroke-width="1" /><line x1="689" y1="412.77272727272725" x2="693" y2="412.77272727272725" stroke="black" stroke-width="1" /><text x="695" y="416.77272727272725" font-size="10" text-anchor="start">1.0</text><line x1="689" y1="341.40909090909093" x2="693" y2="341.40909090909093" stroke="black" stroke-width="1" /><text x="695" y="345.40909090909093" font-size="10" text-anchor="start">2.0</text><line x1="689" y1="270.04545454545456" x2="693" y2="270.04545454545456" stroke="black" stroke-width="1" /><text x="695" y="274.04545454545456" font-size="10" text-anchor="start">3.0</text><line x1="689" y1="198.68181818181824" x2="693" y2="198.68181818181824" stroke="black" stroke-width="1" /><text x="695" y="202.68181818181824" font-size="10" text-anchor="start">4.0</text></svg>