<svg xmlns="http://www.w3.org/2000/svg" width="758" height="541" fill="black"><rect width="100%" height="100%" fill="white" /><line x1="59" y1="492" x2="659" y2="492" stroke="black" stroke-width="1" /><line x1="59" y1="42" x2="59" y2="492" stroke="black" stroke-width="1" /><text x="49" y="405.5" font-size="10" text-anchor="end">CD14</text><line x1="54" y1="402" x2="59" y2="402" stroke="black" stroke-width="1" /><text x="49" y="315.5" font-size="10" text-anchor="end">CD8A</text><line x1="54" y1="312" x2="59" y2="312" stroke="black" stroke-width="1" /><text x="49" y="225.5" font-size="10" text-anchor="end">CD4</text><line x1="54" y1="222" x2="59" y2="222" stroke="black" stroke-width="1" /><text x="49" y="135.5" font-size="10" text-anchor="end">CD3E</text><line x1="54" y1="132" x2="59" y2="132" stroke="black" stroke-width="1" /><text x="179" y="507" font-size="10" text-anchor="middle">CD4 T</text><line x1="179" y1="492" x2="179" y2="497" stroke="black" stroke-width="1" /><text x="299" y="507" font-size="10" text-anchor="middle">CD8 T</text><line x1="299" y1="492" x2="299" y2="497" stroke="black" stroke-width="1" /><text x="419" y="507" font-size="10" text-anchor="middle">NK</text><line x1="419" y1="492" x2="419" y2="497" stroke="black" stroke-width="1" /><text x="539" y="507" font-size="10" text-anchor="middle">Mono</text><line x1="539" y1="492" x2="539" y2="497" stroke="black" stroke-width="1" /><text x="379" y="534" font-size="14" text-anchor="middle">Cell type</text><text x="14" y="270.5" font-size="14" text-anchor="middle" transform="rotate(-90,14,270.5)">Gene</text><text x="379" y="21" font-size="16" text-anchor="middle">Colorbar Only</text><circle cx="179" cy="132" r="1" fill="rgb(220,226,24)" /><circle cx="299" cy="132" r="1" fill="rgb(253,231,37)" /><circle cx="419" cy="132" r="1" fill="rgb(72,37,118)" /><circle cx="539" cy="132" r="1" fill="rgb(68,1,84)" /><circle cx="179" cy="222" r="1" fill="rgb(168,219,51)" /><circle cx="299" cy="222" r="1" fill="rgb(71,20,102)" /><circle cx="419" cy="222" r="1" fill="rgb(70,10,93)" /><circle cx="539" cy="222" r="1" fill="rgb(66,61,132)" /><circle cx="179" cy="312" r="1" fill="rgb(70,10,93)" /><circle cx="299" cy="312" r="1" fill="rgb(151,216,62)" /><circle cx="419" cy="312" r="1" fill="rgb(69,53,128)" /><circle cx="539" cy="312" r="1" fill="rgb(68,1,84)" /><circle cx="179" cy="402" r="1" fill="rgb(68,1,84)" /><circle cx="299" cy="402" r="1" fill="rgb(68,1,84)" /><circle cx="419" cy="402" r="1" fill="rgb(70,10,93)" /><circle cx="539" cy="402" r="1" fill="rgb(237,229,27)" /><rect x="688" y="87" width="20" height="7.7" fill="rgb(253,231,37)" /><rect x="688" y="94.2" width="20" height="7.7" fill="rgb(240,229,28)" /><rect x="688" y="101.4" width="20" height="7.7" fill="rgb(227,227,24)" /><rect x="688" y="108.6" width="20" height="7.7" fill="rgb(214,226,25)" /><rect x="688" y="115.8" width="20" height="7.7" fill="rgb(200,224,31)" /><rect x="688" y="123" width="20" height="7.7" fill="rgb(186,222,39)" /><rect x="688" y="130.2" width="20" height="7.7" fill="rgb(172,220,48)" /><rect x="688" y="137.4" width="20" height="7.7" fill="rgb(158,217,57)" /><rect x="688" y="144.6" width="20" height="7.7" fill="rgb(145,214,66)" /><rect x="688" y="151.8" width="20" height="7.7" fill="rgb(132,212,74)" /><rect x="688" y="159" width="20" height="7.7" fill="rgb(119,208,82)" /><rect x="688" y="166.2" width="20" height="7.7" fill="rgb(107,205,90)" /><rect x="688" y="173.4" width="20" height="7.7" fill="rgb(95,201,96)" /><rect x="688" y="180.60000000000002" width="20" height="7.7" fill="rgb(84,197,103)" /><rect x="688" y="187.8" width="20" height="7.7" fill="rgb(74,193,108)" /><rect x="688" y="195" width="20" height="7.7" fill="rgb(64,188,114)" /><rect x="688" y="202.2" width="20" height="7.7" fill="rgb(55,184,119)" /><rect x="688" y="209.4" width="20" height="7.7" fill="rgb(48,180,123)" /><rect x="688" y="216.6" width="20" height="7.7" fill="rgb(41,175,127)" /><rect x="688" y="223.8" width="20" height="7.7" fill="rgb(36,171,130)" /><rect x="688" y="231" width="20" height="7.7" fill="rgb(33,165,133)" /><rect x="688" y="238.20000000000002" width="20" height="7.7" fill="rgb(31,161,135)" /><rect x="688" y="245.4" width="20" height="7.7" fill="rgb(30,156,137)" /><rect x="688" y="252.6" width="20" height="7.7" fill="rgb(31,151,138)" /><rect x="688" y="259.8" width="20" height="7.7" fill="rgb(31,146,140)" /><rect x="688" y="267" width="20" height="7.7" fill="rgb(33,141,141)" /><rect x="688" y="274.20000000000005" width="20" height="7.7" fill="rgb(35,136,141)" /><rect x="688" y="281.4" width="20" height="7.7" fill="rgb(37,131,142)" /><rect x="688" y="288.6" width="20" height="7.7" fill="rgb(38,127,141)" /><rect x="688" y="295.8" width="20" height="7.7" fill="rgb(40,122,142)" /><rect x="688" y="303" width="20" height="7.7" fill="rgb(42,116,141)" /><rect x="688" y="310.20000000000005" width="20" height="7.7" fill="rgb(44,112,142)" /><rect x="688" y="317.4" width="20" height="7.7" fill="rgb(47,107,142)" /><rect x="688" y="324.6" width="20" height="7.7" fill="rgb(49,102,142)" /><rect x="688" y="331.8" width="20" height="7.7" fill="rgb(51,97,140)" /><rect x="688" y="339" width="20" height="7.7" fill="rgb(54,91,140)" /><rect x="688" y="346.2" width="20" height="7.7" fill="rgb(56,85,140)" /><rect x="688" y="353.40000000000003" width="20" height="7.7" fill="rgb(59,80,138)" /><rect x="688" y="360.6" width="20" height="7.7" fill="rgb(61,74,137)" /><rect x="688" y="367.8" width="20" height="7.7" fill="rgb(64,69,135)" /><rect x="688" y="375" width="20" height="7.7" fill="rgb(66,62,133)" /><rect x="688" y="382.2" width="20" height="7.7" fill="rgb(68,56,130)" /><rect x="688" y="389.40000000000003" width="20" height="7.7" fill="rgb(70,50,126)" /><rect x="688" y="396.6" width="20" height="7.7" fill="rgb(71,44,122)" /><rect x="688" y="403.8" width="20" height="7.7" fill="rgb(72,37,118)" /><rect x="688" y="411" width="20" height="7.7" fill="rgb(71,30,111)" /><rect x="688" y="418.2" width="20" height="7.7" fill="rgb(72,23,105)" /><rect x="688" y="425.40000000000003" width="20" height="7.7" fill="rgb(71,16,99)" /><rect x="688" y="432.6" width="20" height="7.7" fill="rgb(70,8,92)" /><rect x="688" y="439.8" width="20" height="7.7" fill="rgb(68,1,84)" /><rect x="688" y="87" width="20" height="360" fill="none" stroke="black" stroke-width="1" /><line x1="708" y1="363.9230769230769" x2="712" y2="363.9230769230769" stroke="black" stroke-width="1" /><text x="714" y="367.9230769230769" font-size="10" text-anchor="start">1.0</text><line x1="708" y1="271.61538461538464" x2="712" y2="271.61538461538464" stroke="black" stroke-width="1" /><text x="714" y="275.61538461538464" font-size="10" text-anchor="start">2.0</text><line x1="708" y1="179.30769230769232" x2="712" y2="179.30769230769232" stroke="black" stroke-width="1" /><text x="714" y="183.30769230769232" font-size="10" text-anchor="start">3.0</text><line x1="708" y1="87" x2="712" y2="87" stroke="black" stroke-width="1" /><text x="714" y="91" font-size="10" text-anchor="start">4.0</text><text x="698" y="81" font-size="10" text-anchor="middle">Mean expression</text></svg>