<svg xmlns="http://www.w3.org/2000/svg" width="748" height="541" fill="black"><rect width="100%" height="100%" fill="white" /><line x1="59" y1="492" x2="659" y2="492" stroke="black" stroke-width="1" /><line x1="59" y1="42" x2="59" y2="492" stroke="black" stroke-width="1" /><text x="49" y="431.2142857142857" font-size="10" text-anchor="end">Gene6</text><line x1="54" y1="427.7142857142857" x2="59" y2="427.7142857142857" stroke="black" stroke-width="1" /><text x="49" y="366.92857142857144" font-size="10" text-anchor="end">Gene5</text><line x1="54" y1="363.42857142857144" x2="59" y2="363.42857142857144" stroke="black" stroke-width="1" /><text x="49" y="302.64285714285717" font-size="10" text-anchor="end">Gene4</text><line x1="54" y1="299.14285714285717" x2="59" y2="299.14285714285717" stroke="black" stroke-width="1" /><text x="49" y="238.3571428571429" font-size="10" text-anchor="end">Gene3</text><line x1="54" y1="234.8571428571429" x2="59" y2="234.8571428571429" stroke="black" stroke-width="1" /><text x="49" y="174.07142857142856" font-size="10" text-anchor="end">Gene2</text><line x1="54" y1="170.57142857142856" x2="59" y2="170.57142857142856" stroke="black" stroke-width="1" /><text x="49" y="109.78571428571433" font-size="10" text-anchor="end">Gene1</text><line x1="54" y1="106.28571428571433" x2="59" y2="106.28571428571433" stroke="black" stroke-width="1" /><text x="159" y="507" font-size="10" text-anchor="middle">TypeA</text><line x1="159" y1="492" x2="159" y2="497" stroke="black" stroke-width="1" /><text x="259" y="507" font-size="10" text-anchor="middle">TypeB</text><line x1="259" y1="492" x2="259" y2="497" stroke="black" stroke-width="1" /><text x="359" y="507" font-size="10" text-anchor="middle">TypeC</text><line x1="359" y1="492" x2="359" y2="497" stroke="black" stroke-width="1" /><text x="459" y="507" font-size="10" text-anchor="middle">TypeD</text><line x1="459" y1="492" x2="459" y2="497" stroke="black" stroke-width="1" /><text x="559" y="507" font-size="10" text-anchor="middle">TypeE</text><line x1="559" y1="492" x2="559" y2="497" stroke="black" stroke-width="1" /><text x="374" y="534" font-size="14" text-anchor="middle">Cell type</text><text x="14" y="270.5" font-size="14" text-anchor="middle" transform="rotate(-90,14,270.5)">Gene</text><text x="374" y="21" font-size="16" text-anchor="middle">Matrix Input</text><circle cx="159" cy="106.28571428571433" r="10.058823529411764" fill="rgb(115,207,85)" /><circle cx="259" cy="106.28571428571433" r="2.9411764705882355" fill="rgb(66,62,133)" /><circle cx="359" cy="106.28571428571433" r="7.470588235294118" fill="rgb(35,169,131)" /><circle cx="459" cy="106.28571428571433" r="5.529411764705882" fill="rgb(42,118,141)" /><circle cx="559" cy="106.28571428571433" r="8.764705882352942" fill="rgb(59,187,116)" /><circle cx="159" cy="170.57142857142856" r="1.6470588235294117" fill="rgb(72,29,111)" /><circle cx="259" cy="170.57142857142856" r="11.352941176470589" fill="rgb(219,226,24)" /><circle cx="359" cy="170.57142857142856" r="4.235294117647059" fill="rgb(57,85,140)" /><circle cx="459" cy="170.57142857142856" r="8.764705882352942" fill="rgb(72,192,109)" /><circle cx="559" cy="170.57142857142856" r="2.2941176470588234" fill="rgb(72,37,118)" /><circle cx="159" cy="234.8571428571429" r="6.823529411764706" fill="rgb(32,144,140)" /><circle cx="259" cy="234.8571428571429" r="4.882352941176471" fill="rgb(47,106,142)" /><circle cx="359" cy="234.8571428571429" r="10.705882352941176" fill="rgb(166,218,53)" /><circle cx="459" cy="234.8571428571429" r="2.2941176470588234" fill="rgb(72,37,118)" /><circle cx="559" cy="234.8571428571429" r="8.117647058823529" fill="rgb(31,162,134)" /><circle cx="159" cy="299.14285714285717" r="3.588235294117647" fill="rgb(63,70,136)" /><circle cx="259" cy="299.14285714285717" r="8.117647058823529" fill="rgb(41,175,127)" /><circle cx="359" cy="299.14285714285717" r="1" fill="rgb(68,1,84)" /><circle cx="459" cy="299.14285714285717" r="12" fill="rgb(253,231,37)" /><circle cx="559" cy="299.14285714285717" r="4.882352941176471" fill="rgb(53,92,141)" /><circle cx="159" cy="363.42857142857144" r="8.764705882352942" fill="rgb(59,187,116)" /><circle cx="259" cy="363.42857142857144" r="6.176470588235294" fill="rgb(37,131,142)" /><circle cx="359" cy="363.42857142857144" r="9.411764705882351" fill="rgb(85,197,102)" /><circle cx="459" cy="363.42857142857144" r="3.588235294117647" fill="rgb(60,78,138)" /><circle cx="559" cy="363.42857142857144" r="11.094117647058823" fill="rgb(201,224,31)" /><circle cx="159" cy="427.7142857142857" r="5.529411764705882" fill="rgb(42,118,141)" /><circle cx="259" cy="427.7142857142857" r="9.8" fill="rgb(131,212,74)" /><circle cx="359" cy="427.7142857142857" r="6.823529411764706" fill="rgb(39,125,142)" /><circle cx="459" cy="427.7142857142857" r="7.470588235294118" fill="rgb(35,169,131)" /><circle cx="559" cy="427.7142857142857" r="4.235294117647059" fill="rgb(47,106,142)" /><rect x="664" y="56" width="75" height="92" fill="white" /><rect x="664" y="56" width="75" height="92" fill="none" stroke="black" stroke-width="1" /><text x="696.5" y="52" font-size="10" text-anchor="middle">% Expressing</text><text x="694" y="71" font-size="12" text-anchor="start">31.2</text><circle cx="680" cy="67" r="3" fill="#444444" /><text x="694" y="89" font-size="12" text-anchor="start">52.5</text><circle cx="680" cy="85" r="6" fill="#444444" /><text x="694" y="107" font-size="12" text-anchor="start">73.8</text><circle cx="680" cy="103" r="8" fill="#444444" /><text x="694" y="125" font-size="12" text-anchor="start">95.0</text><circle cx="680" cy="121" r="8" fill="#444444" /><text x="679" y="157" font-size="10" text-anchor="middle">Mean expression</text><rect x="669" y="163" width="20" height="6.78" fill="rgb(253,231,37)" /><rect x="669" y="169.28" width="20" height="6.78" fill="rgb(240,229,28)" /><rect x="669" y="175.56" width="20" height="6.78" fill="rgb(227,227,24)" /><rect x="669" y="181.84" width="20" height="6.78" fill="rgb(214,226,25)" /><rect x="669" y="188.12" width="20" height="6.78" fill="rgb(200,224,31)" /><rect x="669" y="194.4" width="20" height="6.78" fill="rgb(186,222,39)" /><rect x="669" y="200.68" width="20" height="6.78" fill="rgb(172,220,48)" /><rect x="669" y="206.96" width="20" height="6.78" fill="rgb(158,217,57)" /><rect x="669" y="213.24" width="20" height="6.78" fill="rgb(145,214,66)" /><rect x="669" y="219.52" width="20" height="6.78" fill="rgb(132,212,74)" /><rect x="669" y="225.8" width="20" height="6.78" fill="rgb(119,208,82)" /><rect x="669" y="232.07999999999998" width="20" height="6.78" fill="rgb(107,205,90)" /><rect x="669" y="238.36" width="20" height="6.78" fill="rgb(95,201,96)" /><rect x="669" y="244.64" width="20" height="6.78" fill="rgb(84,197,103)" /><rect x="669" y="250.92000000000002" width="20" height="6.78" fill="rgb(74,193,108)" /><rect x="669" y="257.2" width="20" height="6.78" fill="rgb(64,188,114)" /><rect x="669" y="263.48" width="20" height="6.78" fill="rgb(55,184,119)" /><rect x="669" y="269.76" width="20" height="6.78" fill="rgb(48,180,123)" /><rect x="669" y="276.04" width="20" height="6.78" fill="rgb(41,175,127)" /><rect x="669" y="282.32" width="20" height="6.78" fill="rgb(36,171,130)" /><rect x="669" y="288.6" width="20" height="6.78" fill="rgb(33,165,133)" /><rect x="669" y="294.88" width="20" height="6.78" fill="rgb(31,161,135)" /><rect x="669" y="301.15999999999997" width="20" height="6.78" fill="rgb(30,156,137)" /><rect x="669" y="307.44" width="20" height="6.78" fill="rgb(31,151,138)" /><rect x="669" y="313.72" width="20" height="6.78" fill="rgb(31,146,140)" /><rect x="669" y="320" width="20" height="6.78" fill="rgb(33,141,141)" /><rect x="669" y="326.28" width="20" height="6.78" fill="rgb(35,136,141)" /><rect x="669" y="332.56" width="20" height="6.78" fill="rgb(37,131,142)" /><rect x="669" y="338.84000000000003" width="20" height="6.78" fill="rgb(38,127,141)" /><rect x="669" y="345.12" width="20" height="6.78" fill="rgb(40,122,142)" /><rect x="669" y="351.4" width="20" height="6.78" fill="rgb(42,116,141)" /><rect x="669" y="357.68" width="20" height="6.78" fill="rgb(44,112,142)" /><rect x="669" y="363.96000000000004" width="20" height="6.78" fill="rgb(47,107,142)" /><rect x="669" y="370.24" width="20" height="6.78" fill="rgb(49,102,142)" /><rect x="669" y="376.52" width="20" height="6.78" fill="rgb(51,97,140)" /><rect x="669" y="382.8" width="20" height="6.78" fill="rgb(54,91,140)" /><rect x="669" y="389.08000000000004" width="20" height="6.78" fill="rgb(56,85,140)" /><rect x="669" y="395.36" width="20" height="6.78" fill="rgb(59,80,138)" /><rect x="669" y="401.64" width="20" height="6.78" fill="rgb(61,74,137)" /><rect x="669" y="407.92" width="20" height="6.78" fill="rgb(64,69,135)" /><rect x="669" y="414.20000000000005" width="20" height="6.78" fill="rgb(66,62,133)" /><rect x="669" y="420.48" width="20" height="6.78" fill="rgb(68,56,130)" /><rect x="669" y="426.76" width="20" height="6.78" fill="rgb(70,50,126)" /><rect x="669" y="433.04" width="20" height="6.78" fill="rgb(71,44,122)" /><rect x="669" y="439.32" width="20" height="6.78" fill="rgb(72,37,118)" /><rect x="669" y="445.6" width="20" height="6.78" fill="rgb(71,30,111)" /><rect x="669" y="451.88" width="20" height="6.78" fill="rgb(72,23,105)" /><rect x="669" y="458.16" width="20" height="6.78" fill="rgb(71,16,99)" /><rect x="669" y="464.44" width="20" height="6.78" fill="rgb(70,8,92)" /><rect x="669" y="470.72" width="20" height="6.78" fill="rgb(68,1,84)" /><rect x="669" y="163" width="20" height="314" fill="none" stroke="black" stroke-width="1" /><line x1="689" y1="435.6842105263158" x2="693" y2="435.6842105263158" stroke="black" stroke-width="1" /><text x="695" y="439.6842105263158" font-size="10" text-anchor="start">1.0</text><line x1="689" y1="353.0526315789474" x2="693" y2="353.0526315789474" stroke="black" stroke-width="1" /><text x="695" y="357.0526315789474" font-size="10" text-anchor="start">2.0</text><line x1="689" y1="270.42105263157896" x2="693" y2="270.42105263157896" stroke="black" stroke-width="1" /><text x="695" y="274.42105263157896" font-size="10" text-anchor="start">3.0</text><line x1="689" y1="187.78947368421052" x2="693" y2="187.78947368421052" stroke="black" stroke-width="1" /><text x="695" y="191.78947368421052" font-size="10" text-anchor="start">4.0</text></svg>