<svg xmlns="http://www.w3.org/2000/svg" width="741" height="595" font-family="DejaVu Sans, Liberation Sans, Arial, sans-serif" fill="black"><rect width="100%" height="100%" fill="white" /><line x1="107" y1="544" x2="607" y2="544" stroke="#000000" stroke-width="1" /><line x1="107" y1="44" x2="107" y2="544" stroke="#000000" stroke-width="1" /><text x="99" y="464.87" font-size="12" text-anchor="end">Compound_4</text><line x1="102" y1="460.67" x2="107" y2="460.67" stroke="#000000" stroke-width="1" /><text x="99" y="381.53000000000003" font-size="12" text-anchor="end">Compound_3</text><line x1="102" y1="377.33" x2="107" y2="377.33" stroke="#000000" stroke-width="1" /><text x="99" y="298.2" font-size="12" text-anchor="end">Compound_2</text><line x1="102" y1="294" x2="107" y2="294" stroke="#000000" stroke-width="1" /><text x="99" y="214.87" font-size="12" text-anchor="end">Compound_1</text><line x1="102" y1="210.67000000000002" x2="107" y2="210.67000000000002" stroke="#000000" stroke-width="1" /><text x="99" y="131.53" font-size="12" text-anchor="end">Control</text><line x1="102" y1="127.33" x2="107" y2="127.33" stroke="#000000" stroke-width="1" /><text x="190.33" y="561" font-size="12" text-anchor="middle">miR-1</text><line x1="190.33" y1="544" x2="190.33" y2="549" stroke="#000000" stroke-width="1" /><text x="273.67" y="561" font-size="12" text-anchor="middle">miR-2</text><line x1="273.67" y1="544" x2="273.67" y2="549" stroke="#000000" stroke-width="1" /><text x="357" y="561" font-size="12" text-anchor="middle">miR-3</text><line x1="357" y1="544" x2="357" y2="549" stroke="#000000" stroke-width="1" /><text x="440.33" y="561" font-size="12" text-anchor="middle">miR-4</text><line x1="440.33" y1="544" x2="440.33" y2="549" stroke="#000000" stroke-width="1" /><text x="523.67" y="561" font-size="12" text-anchor="middle">miR-5</text><line x1="523.67" y1="544" x2="523.67" y2="549" stroke="#000000" stroke-width="1" /><text x="357" y="588" font-size="14" text-anchor="middle">miRNA</text><text x="15" y="297.5" font-size="14" text-anchor="middle" transform="rotate(-90,15,297.5)">Compound</text><text x="357" y="22" font-size="18" text-anchor="middle">miRNA Compound Screening</text><rect x="483.67" y="337.33" width="80" height="80" fill="#ffffff" stroke="#000000" stroke-width="0.8" /><circle cx="501.17" cy="354.83" r="15" fill="#b2182b" /><circle cx="546.17" cy="354.83" r="15" fill="#b2182b" /><circle cx="501.17" cy="399.83" r="15" fill="#cccccc" /><circle cx="546.17" cy="399.83" r="15" fill="#b2182b" /><rect x="400.33" y="337.33" width="80" height="80" fill="#ffffff" stroke="#000000" stroke-width="0.8" /><circle cx="417.83" cy="354.83" r="15" fill="#cccccc" /><circle cx="462.83" cy="354.83" r="15" fill="#b2182b" /><circle cx="462.83" cy="399.83" r="15" fill="#b2182b" /><rect x="400.33" y="420.67" width="80" height="80" fill="#ffffff" stroke="#000000" stroke-width="0.8" /><circle cx="417.83" cy="438.17" r="15" fill="#b2182b" /><circle cx="462.83" cy="438.17" r="15" fill="#b2182b" /><circle cx="417.83" cy="483.17" r="15" fill="#b2182b" /><circle cx="462.83" cy="483.17" r="15" fill="#b2182b" /><rect x="317" y="420.67" width="80" height="80" fill="#ffffff" stroke="#000000" stroke-width="0.8" /><circle cx="334.5" cy="438.17" r="15" fill="#b2182b" /><circle cx="379.5" cy="438.17" r="15" fill="#b2182b" /><circle cx="334.5" cy="483.17" r="15" fill="#b2182b" /><circle cx="379.5" cy="483.17" r="15" fill="#cccccc" /><rect x="233.67000000000002" y="87.33" width="80" height="80" fill="#ffffff" stroke="#000000" stroke-width="0.8" /><circle cx="251.17000000000002" cy="104.83" r="15" fill="#2166ac" /><circle cx="251.17000000000002" cy="149.83" r="15" fill="#2166ac" /><circle cx="296.17" cy="149.83" r="15" fill="#cccccc" /><rect x="483.67" y="254" width="80" height="80" fill="#ffffff" stroke="#000000" stroke-width="0.8" /><circle cx="501.17" cy="271.5" r="15" fill="#cccccc" /><circle cx="546.17" cy="271.5" r="15" fill="#b2182b" /><circle cx="501.17" cy="316.5" r="15" fill="#cccccc" /><circle cx="546.17" cy="316.5" r="15" fill="#cccccc" /><rect x="483.67" y="420.67" width="80" height="80" fill="#ffffff" stroke="#000000" stroke-width="0.8" /><circle cx="546.17" cy="438.17" r="15" fill="#b2182b" /><circle cx="501.17" cy="483.17" r="15" fill="#b2182b" /><circle cx="546.17" cy="483.17" r="15" fill="#b2182b" /><rect x="317" y="254" width="80" height="80" fill="#ffffff" stroke="#000000" stroke-width="0.8" /><circle cx="334.5" cy="271.5" r="15" fill="#b2182b" /><circle cx="379.5" cy="271.5" r="15" fill="#cccccc" /><circle cx="334.5" cy="316.5" r="15" fill="#2166ac" /><circle cx="379.5" cy="316.5" r="15" fill="#cccccc" /><rect x="317" y="337.33" width="80" height="80" fill="#ffffff" stroke="#000000" stroke-width="0.8" /><circle cx="334.5" cy="354.83" r="15" fill="#b2182b" /><circle cx="379.5" cy="354.83" r="15" fill="#b2182b" /><circle cx="334.5" cy="399.83" r="15" fill="#cccccc" /><rect x="233.67000000000002" y="254" width="80" height="80" fill="#ffffff" stroke="#000000" stroke-width="0.8" /><circle cx="251.17000000000002" cy="271.5" r="15" fill="#cccccc" /><circle cx="296.17" cy="271.5" r="15" fill="#b2182b" /><circle cx="251.17000000000002" cy="316.5" r="15" fill="#cccccc" /><rect x="150.33" y="337.33" width="80" height="80" fill="#ffffff" stroke="#000000" stroke-width="0.8" /><circle cx="167.83" cy="354.83" r="15" fill="#b2182b" /><circle cx="212.83" cy="354.83" r="15" fill="#cccccc" /><circle cx="167.83" cy="399.83" r="15" fill="#b2182b" /><circle cx="212.83" cy="399.83" r="15" fill="#b2182b" /><rect x="150.33" y="420.67" width="80" height="80" fill="#ffffff" stroke="#000000" stroke-width="0.8" /><circle cx="167.83" cy="438.17" r="15" fill="#b2182b" /><circle cx="167.83" cy="483.17" r="15" fill="#b2182b" /><circle cx="212.83" cy="483.17" r="15" fill="#cccccc" /><rect x="317" y="170.67000000000002" width="80" height="80" fill="#ffffff" stroke="#000000" stroke-width="0.8" /><circle cx="334.5" cy="188.17000000000002" r="15" fill="#cccccc" /><circle cx="379.5" cy="188.17000000000002" r="15" fill="#2166ac" /><circle cx="379.5" cy="233.17000000000002" r="15" fill="#cccccc" /><rect x="317" y="87.33" width="80" height="80" fill="#ffffff" stroke="#000000" stroke-width="0.8" /><circle cx="334.5" cy="104.83" r="15" fill="#2166ac" /><circle cx="379.5" cy="104.83" r="15" fill="#2166ac" /><circle cx="334.5" cy="149.83" r="15" fill="#cccccc" /><circle cx="379.5" cy="149.83" r="15" fill="#2166ac" /><rect x="400.33" y="254" width="80" height="80" fill="#ffffff" stroke="#000000" stroke-width="0.8" /><circle cx="417.83" cy="271.5" r="15" fill="#cccccc" /><circle cx="462.83" cy="271.5" r="15" fill="#cccccc" /><circle cx="417.83" cy="316.5" r="15" fill="#b2182b" /><rect x="400.33" y="170.67000000000002" width="80" height="80" fill="#ffffff" stroke="#000000" stroke-width="0.8" /><circle cx="417.83" cy="188.17000000000002" r="15" fill="#2166ac" /><circle cx="462.83" cy="188.17000000000002" r="15" fill="#cccccc" /><circle cx="417.83" cy="233.17000000000002" r="15" fill="#2166ac" /><circle cx="462.83" cy="233.17000000000002" r="15" fill="#cccccc" /><rect x="233.67000000000002" y="170.67000000000002" width="80" height="80" fill="#ffffff" stroke="#000000" stroke-width="0.8" /><circle cx="251.17000000000002" cy="188.17000000000002" r="15" fill="#2166ac" /><circle cx="296.17" cy="188.17000000000002" r="15" fill="#cccccc" /><circle cx="251.17000000000002" cy="233.17000000000002" r="15" fill="#2166ac" /><circle cx="296.17" cy="233.17000000000002" r="15" fill="#2166ac" /><rect x="150.33" y="254" width="80" height="80" fill="#ffffff" stroke="#000000" stroke-width="0.8" /><circle cx="167.83" cy="271.5" r="15" fill="#cccccc" /><circle cx="212.83" cy="316.5" r="15" fill="#b2182b" /><rect x="233.67000000000002" y="420.67" width="80" height="80" fill="#ffffff" stroke="#000000" stroke-width="0.8" /><circle cx="296.17" cy="438.17" r="15" fill="#b2182b" /><circle cx="296.17" cy="483.17" r="15" fill="#b2182b" /><rect x="150.33" y="170.67000000000002" width="80" height="80" fill="#ffffff" stroke="#000000" stroke-width="0.8" /><circle cx="167.83" cy="188.17000000000002" r="15" fill="#2166ac" /><circle cx="212.83" cy="188.17000000000002" r="15" fill="#cccccc" /><circle cx="167.83" cy="233.17000000000002" r="15" fill="#2166ac" /><rect x="483.67" y="87.33" width="80" height="80" fill="#ffffff" stroke="#000000" stroke-width="0.8" /><circle cx="501.17" cy="104.83" r="15" fill="#2166ac" /><circle cx="546.17" cy="104.83" r="15" fill="#cccccc" /><circle cx="546.17" cy="149.83" r="15" fill="#2166ac" /><rect x="400.33" y="87.33" width="80" height="80" fill="#ffffff" stroke="#000000" stroke-width="0.8" /><circle cx="462.83" cy="104.83" r="15" fill="#2166ac" /><circle cx="417.83" cy="149.83" r="15" fill="#2166ac" /><circle cx="462.83" cy="149.83" r="15" fill="#2166ac" /><rect x="150.33" y="87.33" width="80" height="80" fill="#ffffff" stroke="#000000" stroke-width="0.8" /><circle cx="167.83" cy="104.83" r="15" fill="#2166ac" /><circle cx="212.83" cy="104.83" r="15" fill="#2166ac" /><circle cx="167.83" cy="149.83" r="15" fill="#cccccc" /><circle cx="212.83" cy="149.83" r="15" fill="#2166ac" /><rect x="233.67000000000002" y="337.33" width="80" height="80" fill="#ffffff" stroke="#000000" stroke-width="0.8" /><circle cx="251.17000000000002" cy="354.83" r="15" fill="#b2182b" /><circle cx="296.17" cy="354.83" r="15" fill="#cccccc" /><circle cx="251.17000000000002" cy="399.83" r="15" fill="#b2182b" /><circle cx="296.17" cy="399.83" r="15" fill="#b2182b" /><rect x="483.67" y="170.67000000000002" width="80" height="80" fill="#ffffff" stroke="#000000" stroke-width="0.8" /><circle cx="501.17" cy="188.17000000000002" r="15" fill="#cccccc" /><circle cx="501.17" cy="233.17000000000002" r="15" fill="#2166ac" /><circle cx="546.17" cy="233.17000000000002" r="15" fill="#2166ac" /><rect x="612" y="34" width="120" height="110" fill="#ffffff" /><rect x="612" y="34" width="120" height="110" fill="none" stroke="#000000" stroke-width="1" /><text x="667" y="53.6" font-size="12" text-anchor="middle" font-weight="bold">Organ</text><rect x="624" y="60" width="18" height="18" fill="#ffffff" stroke="#000000" stroke-width="0.5" /><circle cx="626.25" cy="62.25" r="1.8" fill="#000000" /><circle cx="639.75" cy="62.25" r="1.17" fill="#cccccc" /><circle cx="626.25" cy="75.75" r="1.17" fill="#cccccc" /><circle cx="639.75" cy="75.75" r="1.17" fill="#cccccc" /><text x="647" y="73" font-size="12" text-anchor="start">Lung</text><rect x="624" y="78" width="18" height="18" fill="#ffffff" stroke="#000000" stroke-width="0.5" /><circle cx="626.25" cy="80.25" r="1.17" fill="#cccccc" /><circle cx="639.75" cy="80.25" r="1.8" fill="#000000" /><circle cx="626.25" cy="93.75" r="1.17" fill="#cccccc" /><circle cx="639.75" cy="93.75" r="1.17" fill="#cccccc" /><text x="647" y="91" font-size="12" text-anchor="start">Liver</text><rect x="624" y="96" width="18" height="18" fill="#ffffff" stroke="#000000" stroke-width="0.5" /><circle cx="626.25" cy="98.25" r="1.17" fill="#cccccc" /><circle cx="639.75" cy="98.25" r="1.17" fill="#cccccc" /><circle cx="626.25" cy="111.75" r="1.8" fill="#000000" /><circle cx="639.75" cy="111.75" r="1.17" fill="#cccccc" /><text x="647" y="109" font-size="12" text-anchor="start">Brain</text><rect x="624" y="114" width="18" height="18" fill="#ffffff" stroke="#000000" stroke-width="0.5" /><circle cx="626.25" cy="116.25" r="1.17" fill="#cccccc" /><circle cx="639.75" cy="116.25" r="1.17" fill="#cccccc" /><circle cx="626.25" cy="129.75" r="1.17" fill="#cccccc" /><circle cx="639.75" cy="129.75" r="1.8" fill="#000000" /><text x="647" y="127" font-size="12" text-anchor="start">Kidney</text><rect x="612" y="152" width="120" height="74" fill="#ffffff" /><rect x="612" y="152" width="120" height="74" fill="none" stroke="#000000" stroke-width="1" /><circle cx="622" cy="169" r="5" fill="#2166ac" /><text x="635" y="171.6" font-size="12" text-anchor="start">Down</text><circle cx="622" cy="187" r="5" fill="#cccccc" /><text x="635" y="189.6" font-size="12" text-anchor="start">Unchanged</text><circle cx="622" cy="205" r="5" fill="#b2182b" /><text x="635" y="207.6" font-size="12" text-anchor="start">Up</text></svg>