<svg xmlns="http://www.w3.org/2000/svg" width="1042" height="335" font-family="DejaVu Sans, Liberation Sans, Arial, sans-serif" fill="black"><rect width="100%" height="100%" fill="white" /><line x1="78.2" y1="284" x2="797.5" y2="284" stroke="#000000" stroke-width="1" /><line x1="78.2" y1="44" x2="78.2" y2="284" stroke="#000000" stroke-width="1" /><text x="70.2" y="228.20000000000002" font-size="12" text-anchor="end">Plaque</text><line x1="73.2" y1="224" x2="78.2" y2="224" stroke="#000000" stroke-width="1" /><text x="70.2" y="108.2" font-size="12" text-anchor="end">Saliva</text><line x1="73.2" y1="104" x2="78.2" y2="104" stroke="#000000" stroke-width="1" /><text x="180.96" y="301" font-size="12" text-anchor="middle">C. showae</text><line x1="180.96" y1="284" x2="180.96" y2="289" stroke="#000000" stroke-width="1" /><text x="283.71" y="301" font-size="12" text-anchor="middle">P. gingivalis</text><line x1="283.71" y1="284" x2="283.71" y2="289" stroke="#000000" stroke-width="1" /><text x="386.47" y="301" font-size="12" text-anchor="middle">R. mucilaginosa</text><line x1="386.47" y1="284" x2="386.47" y2="289" stroke="#000000" stroke-width="1" /><text x="489.23" y="301" font-size="12" text-anchor="middle">F. nucleatum</text><line x1="489.23" y1="284" x2="489.23" y2="289" stroke="#000000" stroke-width="1" /><text x="591.99" y="301" font-size="12" text-anchor="middle">S. mutans</text><line x1="591.99" y1="284" x2="591.99" y2="289" stroke="#000000" stroke-width="1" /><text x="694.74" y="301" font-size="12" text-anchor="middle">P. intermedia</text><line x1="694.74" y1="284" x2="694.74" y2="289" stroke="#000000" stroke-width="1" /><text x="437.85" y="328" font-size="14" text-anchor="middle">Taxon</text><text x="15" y="167.5" font-size="14" text-anchor="middle" transform="rotate(-90,15,167.5)">Specimen</text><text x="437.85" y="22" font-size="18" text-anchor="middle">Oral Microbiome: Taxa vs Specimen</text><rect x="338.52" y="176" width="95.91" height="96" fill="#ffffff" stroke="#000000" stroke-width="0.8" /><circle cx="359.51" cy="197.01" r="5.11" fill="#e1d7e3" /><circle cx="413.44" cy="197.01" r="9.94" fill="#7c9f8a" /><circle cx="359.51" cy="250.99" r="6.6000000000000005" fill="#f9fafa" /><circle cx="413.44" cy="250.99" r="14.76" fill="#97759d" /><rect x="646.79" y="56" width="95.91" height="96" fill="#ffffff" stroke="#000000" stroke-width="0.8" /><circle cx="667.78" cy="77.01" r="11.67" fill="#afc4b8" /><circle cx="721.71" cy="77.01" r="14.51" fill="#704078" /><circle cx="667.78" cy="130.99" r="7.34" fill="#e4ebe6" /><circle cx="721.71" cy="130.99" r="17.97" fill="#3e7152" /><rect x="235.76" y="56" width="95.91" height="96" fill="#ffffff" stroke="#000000" stroke-width="0.8" /><circle cx="256.75" cy="77.01" r="11.42" fill="#875f8e" /><circle cx="310.68" cy="77.01" r="17.73" fill="#00441b" /><circle cx="256.75" cy="130.99" r="4.91" fill="#dbcfdd" /><circle cx="310.68" cy="130.99" r="10.78" fill="#6a9179" /><rect x="235.76" y="176" width="95.91" height="96" fill="#ffffff" stroke="#000000" stroke-width="0.8" /><circle cx="256.75" cy="197.01" r="7.59" fill="#d2ded7" /><circle cx="310.68" cy="197.01" r="14.07" fill="#336948" /><circle cx="256.75" cy="250.99" r="12.780000000000001" fill="#65326e" /><circle cx="310.68" cy="250.99" r="4.62" fill="#f1edf2" /><rect x="544.03" y="176" width="95.91" height="96" fill="#ffffff" stroke="#000000" stroke-width="0.8" /><circle cx="565.02" cy="197.01" r="6.47" fill="#dee7e1" /><circle cx="618.95" cy="197.01" r="17.23" fill="#40004b" /><circle cx="565.02" cy="250.99" r="9.07" fill="#a7beb0" /><circle cx="618.95" cy="250.99" r="4.49" fill="#e8e1e9" /><rect x="646.79" y="176" width="95.91" height="96" fill="#ffffff" stroke="#000000" stroke-width="0.8" /><circle cx="667.78" cy="197.01" r="8.57" fill="#baa3be" /><circle cx="721.71" cy="197.01" r="7.83" fill="#c5d4cb" /><circle cx="667.78" cy="250.99" r="13.4" fill="#875e8e" /><circle cx="721.71" cy="250.99" r="13.89" fill="#86a693" /><rect x="544.03" y="56" width="95.91" height="96" fill="#ffffff" stroke="#000000" stroke-width="0.8" /><circle cx="565.02" cy="77.01" r="9.56" fill="#ae93b3" /><circle cx="618.95" cy="77.01" r="15.75" fill="#628c73" /><circle cx="565.02" cy="130.99" r="4.99" fill="#f8f5f8" /><circle cx="618.95" cy="130.99" r="12.530000000000001" fill="#8e6995" /><rect x="133" y="56" width="95.91" height="96" fill="#ffffff" stroke="#000000" stroke-width="0.8" /><circle cx="153.99" cy="77.01" r="15.55" fill="#2a6341" /><circle cx="207.92000000000002" cy="77.01" r="6.84" fill="#bda7c1" /><circle cx="153.99" cy="130.99" r="8.82" fill="#dde6e1" /><circle cx="207.92000000000002" cy="130.99" r="12.33" fill="#76487e" /><rect x="133" y="176" width="95.91" height="96" fill="#ffffff" stroke="#000000" stroke-width="0.8" /><circle cx="153.99" cy="197.01" r="8.3" fill="#9db7a7" /><circle cx="207.92000000000002" cy="197.01" r="15.99" fill="#571e60" /><circle cx="153.99" cy="250.99" r="5.36" fill="#d0c1d3" /><circle cx="207.92000000000002" cy="250.99" r="9.32" fill="#e8eeeb" /><rect x="338.52" y="56" width="95.91" height="96" fill="#ffffff" stroke="#000000" stroke-width="0.8" /><circle cx="359.51" cy="77.01" r="8.700000000000001" fill="#c3d3c9" /><circle cx="413.44" cy="77.01" r="13.77" fill="#490d54" /><circle cx="359.51" cy="130.99" r="7.930000000000001" fill="#92af9d" /><circle cx="413.44" cy="130.99" r="11.05" fill="#b399b7" /><rect x="441.28000000000003" y="176" width="95.91" height="96" fill="#ffffff" stroke="#000000" stroke-width="0.8" /><circle cx="462.26" cy="197.01" r="15.01" fill="#548266" /><circle cx="516.19" cy="197.01" r="7.21" fill="#eff3f0" /><circle cx="462.26" cy="250.99" r="11.790000000000001" fill="#7f5486" /><circle cx="516.19" cy="250.99" r="10.31" fill="#b8cbbf" /><rect x="441.28000000000003" y="56" width="95.91" height="96" fill="#ffffff" stroke="#000000" stroke-width="0.8" /><circle cx="462.26" cy="77.01" r="13.030000000000001" fill="#729781" /><circle cx="516.19" cy="77.01" r="6.1000000000000005" fill="#c7b5cb" /><circle cx="462.26" cy="130.99" r="16.490000000000002" fill="#602a69" /><circle cx="516.19" cy="130.99" r="5.73" fill="#fdfdfd" /><rect x="802.5" y="34" width="145.5" height="110" fill="#ffffff" /><rect x="802.5" y="34" width="145.5" height="110" fill="none" stroke="#000000" stroke-width="1" /><text x="870.25" y="53.6" font-size="12" text-anchor="middle" font-weight="bold">Disease</text><rect x="814.5" y="60" width="18" height="18" fill="#ffffff" stroke="#000000" stroke-width="0.5" /><circle cx="816.75" cy="62.25" r="1.8" fill="#000000" /><circle cx="830.25" cy="62.25" r="1.17" fill="#cccccc" /><circle cx="816.75" cy="75.75" r="1.17" fill="#cccccc" /><circle cx="830.25" cy="75.75" r="1.17" fill="#cccccc" /><text x="837.5" y="73" font-size="12" text-anchor="start">Caries</text><rect x="814.5" y="78" width="18" height="18" fill="#ffffff" stroke="#000000" stroke-width="0.5" /><circle cx="816.75" cy="80.25" r="1.17" fill="#cccccc" /><circle cx="830.25" cy="80.25" r="1.8" fill="#000000" /><circle cx="816.75" cy="93.75" r="1.17" fill="#cccccc" /><circle cx="830.25" cy="93.75" r="1.17" fill="#cccccc" /><text x="837.5" y="91" font-size="12" text-anchor="start">Periodontitis</text><rect x="814.5" y="96" width="18" height="18" fill="#ffffff" stroke="#000000" stroke-width="0.5" /><circle cx="816.75" cy="98.25" r="1.17" fill="#cccccc" /><circle cx="830.25" cy="98.25" r="1.17" fill="#cccccc" /><circle cx="816.75" cy="111.75" r="1.8" fill="#000000" /><circle cx="830.25" cy="111.75" r="1.17" fill="#cccccc" /><text x="837.5" y="109" font-size="12" text-anchor="start">Healthy</text><rect x="814.5" y="114" width="18" height="18" fill="#ffffff" stroke="#000000" stroke-width="0.5" /><circle cx="816.75" cy="116.25" r="1.17" fill="#cccccc" /><circle cx="830.25" cy="116.25" r="1.17" fill="#cccccc" /><circle cx="816.75" cy="129.75" r="1.17" fill="#cccccc" /><circle cx="830.25" cy="129.75" r="1.8" fill="#000000" /><text x="837.5" y="127" font-size="12" text-anchor="start">Gingivitis</text><rect x="802.5" y="152" width="145.5" height="92" fill="#ffffff" /><rect x="802.5" y="152" width="145.5" height="92" fill="none" stroke="#000000" stroke-width="1" /><text x="870.25" y="171.6" font-size="12" text-anchor="middle" font-weight="bold">q-value</text><circle cx="822.5" cy="187" r="7.86" fill="#444444" /><text x="836.5" y="191" font-size="12" text-anchor="start">1.7</text><circle cx="822.5" cy="205" r="8" fill="#444444" /><text x="836.5" y="209" font-size="12" text-anchor="start">3.1</text><circle cx="822.5" cy="223" r="8" fill="#444444" /><text x="836.5" y="227" font-size="12" text-anchor="start">5.8</text><rect x="972" y="68" width="20" height="4.34" fill="#00441b" /><rect x="972" y="71.84" width="20" height="4.34" fill="#0a4b24" /><rect x="972" y="75.68" width="20" height="4.34" fill="#14532d" /><rect x="972" y="79.52" width="20" height="4.34" fill="#1f5a36" /><rect x="972" y="83.36" width="20" height="4.34" fill="#296240" /><rect x="972" y="87.2" width="20" height="4.34" fill="#346a49" /><rect x="972" y="91.04" width="20" height="4.34" fill="#3e7152" /><rect x="972" y="94.88" width="20" height="4.34" fill="#48795c" /><rect x="972" y="98.72" width="20" height="4.34" fill="#538165" /><rect x="972" y="102.56" width="20" height="4.34" fill="#5d886e" /><rect x="972" y="106.4" width="20" height="4.34" fill="#689078" /><rect x="972" y="110.24000000000001" width="20" height="4.34" fill="#729781" /><rect x="972" y="114.08" width="20" height="4.34" fill="#7c9f8a" /><rect x="972" y="117.92" width="20" height="4.34" fill="#87a793" /><rect x="972" y="121.76" width="20" height="4.34" fill="#91ae9d" /><rect x="972" y="125.60000000000001" width="20" height="4.34" fill="#9cb6a6" /><rect x="972" y="129.44" width="20" height="4.34" fill="#a6beaf" /><rect x="972" y="133.28" width="20" height="4.34" fill="#b0c5b9" /><rect x="972" y="137.12" width="20" height="4.34" fill="#bbcdc2" /><rect x="972" y="140.96" width="20" height="4.34" fill="#c5d5cb" /><rect x="972" y="144.8" width="20" height="4.34" fill="#d0dcd5" /><rect x="972" y="148.64000000000001" width="20" height="4.34" fill="#dae4de" /><rect x="972" y="152.48" width="20" height="4.34" fill="#e4ebe7" /><rect x="972" y="156.32" width="20" height="4.34" fill="#eff3f1" /><rect x="972" y="160.16" width="20" height="4.34" fill="#f9fbfa" /><rect x="972" y="164" width="20" height="4.34" fill="#fbf9fb" /><rect x="972" y="167.84" width="20" height="4.34" fill="#f3eff3" /><rect x="972" y="171.68" width="20" height="4.34" fill="#ebe4ec" /><rect x="972" y="175.52" width="20" height="4.34" fill="#e3dae5" /><rect x="972" y="179.36" width="20" height="4.34" fill="#dbd0dd" /><rect x="972" y="183.20000000000002" width="20" height="4.34" fill="#d4c5d6" /><rect x="972" y="187.04" width="20" height="4.34" fill="#ccbbcf" /><rect x="972" y="190.88" width="20" height="4.34" fill="#c4b0c7" /><rect x="972" y="194.72" width="20" height="4.34" fill="#bca6c0" /><rect x="972" y="198.56" width="20" height="4.34" fill="#b49cb9" /><rect x="972" y="202.4" width="20" height="4.34" fill="#ad91b1" /><rect x="972" y="206.24" width="20" height="4.34" fill="#a587aa" /><rect x="972" y="210.08" width="20" height="4.34" fill="#9d7ca3" /><rect x="972" y="213.92000000000002" width="20" height="4.34" fill="#95729b" /><rect x="972" y="217.76" width="20" height="4.34" fill="#8d6894" /><rect x="972" y="221.6" width="20" height="4.34" fill="#865d8d" /><rect x="972" y="225.44" width="20" height="4.34" fill="#7e5385" /><rect x="972" y="229.28" width="20" height="4.34" fill="#76487e" /><rect x="972" y="233.12" width="20" height="4.34" fill="#6e3e77" /><rect x="972" y="236.96" width="20" height="4.34" fill="#66346f" /><rect x="972" y="240.8" width="20" height="4.34" fill="#5f2968" /><rect x="972" y="244.64000000000001" width="20" height="4.34" fill="#571f61" /><rect x="972" y="248.48000000000002" width="20" height="4.34" fill="#4f1459" /><rect x="972" y="252.32" width="20" height="4.34" fill="#470a52" /><rect x="972" y="256.16" width="20" height="4.34" fill="#40004b" /><rect x="972" y="68" width="20" height="192" fill="none" stroke="#000000" stroke-width="1" /><line x1="992" y1="243.53" x2="996" y2="243.53" stroke="#000000" stroke-width="1" /><text x="997" y="247.53" font-size="12" text-anchor="start">-2.0</text><line x1="992" y1="208.5" x2="996" y2="208.5" stroke="#000000" stroke-width="1" /><text x="997" y="212.5" font-size="12" text-anchor="start">-1.0</text><line x1="992" y1="173.46" x2="996" y2="173.46" stroke="#000000" stroke-width="1" /><text x="997" y="177.46" font-size="12" text-anchor="start">0.0</text><line x1="992" y1="138.42000000000002" x2="996" y2="138.42000000000002" stroke="#000000" stroke-width="1" /><text x="997" y="142.42000000000002" font-size="12" text-anchor="start">1.0</text><line x1="992" y1="103.39" x2="996" y2="103.39" stroke="#000000" stroke-width="1" /><text x="997" y="107.39" font-size="12" text-anchor="start">2.0</text><line x1="992" y1="68.35000000000001" x2="996" y2="68.35000000000001" stroke="#000000" stroke-width="1" /><text x="997" y="72.35000000000001" font-size="12" text-anchor="start">3.0</text><text x="982" y="62" font-size="12" text-anchor="middle">Log2FC</text></svg>