<svg xmlns="http://www.w3.org/2000/svg" width="1325" height="595" font-family="DejaVu Sans, Liberation Sans, Arial, sans-serif" fill="black"><rect width="100%" height="100%" fill="white" /><line x1="143" y1="544" x2="1063.5" y2="544" stroke="#000000" stroke-width="1" /><line x1="143" y1="44" x2="143" y2="544" stroke="#000000" stroke-width="1" /><text x="135" y="464.87" font-size="12" text-anchor="end">Oligodendrocyte</text><line x1="138" y1="460.67" x2="143" y2="460.67" stroke="#000000" stroke-width="1" /><text x="135" y="381.53000000000003" font-size="12" text-anchor="end">Neuron</text><line x1="138" y1="377.33" x2="143" y2="377.33" stroke="#000000" stroke-width="1" /><text x="135" y="298.2" font-size="12" text-anchor="end">Microglia</text><line x1="138" y1="294" x2="143" y2="294" stroke="#000000" stroke-width="1" /><text x="135" y="214.87" font-size="12" text-anchor="end">Endothelial</text><line x1="138" y1="210.67000000000002" x2="143" y2="210.67000000000002" stroke="#000000" stroke-width="1" /><text x="135" y="131.53" font-size="12" text-anchor="end">Astrocyte</text><line x1="138" y1="127.33" x2="143" y2="127.33" stroke="#000000" stroke-width="1" /><text x="235.05" y="561" font-size="12" text-anchor="middle">SPP1</text><line x1="235.05" y1="544" x2="235.05" y2="549" stroke="#000000" stroke-width="1" /><text x="327.1" y="561" font-size="12" text-anchor="middle">APOE</text><line x1="327.1" y1="544" x2="327.1" y2="549" stroke="#000000" stroke-width="1" /><text x="419.15000000000003" y="561" font-size="12" text-anchor="middle">SERPINA1</text><line x1="419.15000000000003" y1="544" x2="419.15000000000003" y2="549" stroke="#000000" stroke-width="1" /><text x="511.2" y="561" font-size="12" text-anchor="middle">PINK1</text><line x1="511.2" y1="544" x2="511.2" y2="549" stroke="#000000" stroke-width="1" /><text x="603.25" y="561" font-size="12" text-anchor="middle">ANGPT1</text><line x1="603.25" y1="544" x2="603.25" y2="549" stroke="#000000" stroke-width="1" /><text x="695.3000000000001" y="561" font-size="12" text-anchor="middle">ANGPT2</text><line x1="695.3000000000001" y1="544" x2="695.3000000000001" y2="549" stroke="#000000" stroke-width="1" /><text x="787.35" y="561" font-size="12" text-anchor="middle">APP</text><line x1="787.35" y1="544" x2="787.35" y2="549" stroke="#000000" stroke-width="1" /><text x="879.4" y="561" font-size="12" text-anchor="middle">CLU</text><line x1="879.4" y1="544" x2="879.4" y2="549" stroke="#000000" stroke-width="1" /><text x="971.45" y="561" font-size="12" text-anchor="middle">ABCA7</text><line x1="971.45" y1="544" x2="971.45" y2="549" stroke="#000000" stroke-width="1" /><text x="603.25" y="588" font-size="14" text-anchor="middle">Gene</text><text x="15" y="297.5" font-size="14" text-anchor="middle" transform="rotate(-90,15,297.5)">Cell Type</text><text x="603.25" y="22" font-size="18" text-anchor="middle">ZEBRA Sex DEGs Domino Plot</text><rect x="286.19" y="254" width="81.82000000000001" height="80" fill="#ffffff" stroke="#000000" stroke-width="0.8" /><circle cx="352.43" cy="269.24" r="5.16" fill="#906b97" /><circle cx="327.1" cy="294" r="4.55" fill="#a689ab" /><circle cx="352.43" cy="318.76" r="3.79" fill="#d2c4d5" /><rect x="194.14000000000001" y="170.67000000000002" width="81.82000000000001" height="80" fill="#ffffff" stroke="#000000" stroke-width="0.8" /><circle cx="209.72" cy="185.91" r="7.98" fill="#4e1358" /><circle cx="260.38" cy="185.91" r="5.73" fill="#64316d" /><circle cx="209.72" cy="235.43" r="4.37" fill="#906b97" /><circle cx="260.38" cy="235.43" r="3.99" fill="#a689ab" /><rect x="562.34" y="87.33" width="81.82000000000001" height="80" fill="#ffffff" stroke="#000000" stroke-width="0.8" /><circle cx="577.92" cy="102.57000000000001" r="5.47" fill="#b59cb9" /><circle cx="628.58" cy="102.57000000000001" r="4.75" fill="#cbbace" /><circle cx="577.92" cy="152.09" r="3.91" fill="#f7f5f8" /><circle cx="628.58" cy="152.09" r="3.62" fill="#ebf0ed" /><rect x="378.24" y="170.67000000000002" width="81.82000000000001" height="80" fill="#ffffff" stroke="#000000" stroke-width="0.8" /><circle cx="444.48" cy="185.91" r="5.07" fill="#9f7fa5" /><circle cx="419.15000000000003" cy="210.67000000000002" r="4.49" fill="#b59cb9" /><circle cx="444.48" cy="235.43" r="3.7600000000000002" fill="#e1d7e3" /><rect x="562.34" y="170.67000000000002" width="81.82000000000001" height="80" fill="#ffffff" stroke="#000000" stroke-width="0.8" /><circle cx="577.92" cy="185.91" r="5.26" fill="#c4b0c7" /><circle cx="603.25" cy="210.67000000000002" r="4.17" fill="#f0ebf1" /><circle cx="577.92" cy="235.43" r="3.83" fill="#f5f7f6" /><rect x="470.29" y="170.67000000000002" width="81.82000000000001" height="80" fill="#ffffff" stroke="#000000" stroke-width="0.8" /><circle cx="485.87" cy="185.91" r="5.6000000000000005" fill="#a689ab" /><circle cx="536.53" cy="185.91" r="4.82" fill="#bca6c0" /><circle cx="485.87" cy="235.43" r="3.95" fill="#e8e1ea" /><circle cx="536.53" cy="235.43" r="3.65" fill="#ffffff" /><rect x="562.34" y="254" width="81.82000000000001" height="80" fill="#ffffff" stroke="#000000" stroke-width="0.8" /><circle cx="628.58" cy="269.24" r="4.49" fill="#e8e1ea" /><circle cx="603.25" cy="294" r="4.08" fill="#ffffff" /><circle cx="628.58" cy="318.76" r="3.5" fill="#c4d3ca" /><rect x="286.19" y="337.33" width="81.82000000000001" height="80" fill="#ffffff" stroke="#000000" stroke-width="0.8" /><circle cx="301.77" cy="352.57" r="5.88" fill="#896290" /><circle cx="352.43" cy="352.57" r="4.98" fill="#9f7fa5" /><circle cx="301.77" cy="402.09000000000003" r="4.03" fill="#cbbace" /><circle cx="352.43" cy="402.09000000000003" r="3.72" fill="#e1d7e3" /><rect x="378.24" y="420.67" width="81.82000000000001" height="80" fill="#ffffff" stroke="#000000" stroke-width="0.8" /><circle cx="444.48" cy="435.91" r="4.61" fill="#cbbace" /><circle cx="419.15000000000003" cy="460.67" r="4.17" fill="#e1d7e3" /><circle cx="444.48" cy="485.43" r="3.56" fill="#ebf0ed" /><rect x="286.19" y="87.33" width="81.82000000000001" height="80" fill="#ffffff" stroke="#000000" stroke-width="0.8" /><circle cx="301.77" cy="102.57000000000001" r="7.43" fill="#5d2766" /><circle cx="352.43" cy="102.57000000000001" r="5.6000000000000005" fill="#73447b" /><circle cx="301.77" cy="152.09" r="4.32" fill="#9f7fa5" /><circle cx="352.43" cy="152.09" r="3.95" fill="#b59cb9" /><rect x="746.44" y="170.67000000000002" width="81.82000000000001" height="80" fill="#ffffff" stroke="#000000" stroke-width="0.8" /><circle cx="762.02" cy="185.91" r="4.75" fill="#ffffff" /><circle cx="812.6800000000001" cy="185.91" r="4.2700000000000005" fill="#e1e9e4" /><circle cx="762.02" cy="235.43" r="3.62" fill="#a6beb0" /><circle cx="812.6800000000001" cy="235.43" r="3.38" fill="#89a895" /><rect x="838.49" y="87.33" width="81.82000000000001" height="80" fill="#ffffff" stroke="#000000" stroke-width="0.8" /><circle cx="854.07" cy="102.57000000000001" r="4.68" fill="#ebf0ed" /><circle cx="904.73" cy="102.57000000000001" r="4.22" fill="#cddbd3" /><circle cx="854.07" cy="152.09" r="3.59" fill="#93af9e" /><circle cx="904.73" cy="152.09" r="3.36" fill="#759a84" /><rect x="838.49" y="254" width="81.82000000000001" height="80" fill="#ffffff" stroke="#000000" stroke-width="0.8" /><circle cx="904.73" cy="269.24" r="4.03" fill="#a6beb0" /><circle cx="879.4" cy="294" r="3.72" fill="#89a895" /><circle cx="854.07" cy="318.76" r="3.47" fill="#6b937b" /><circle cx="904.73" cy="318.76" r="3.25" fill="#4e7d61" /><rect x="838.49" y="337.33" width="81.82000000000001" height="80" fill="#ffffff" stroke="#000000" stroke-width="0.8" /><circle cx="854.07" cy="352.57" r="4.32" fill="#b0c5b8" /><circle cx="904.73" cy="352.57" r="3.95" fill="#93af9e" /><circle cx="879.4" cy="377.33" r="3.65" fill="#759a84" /><circle cx="854.07" cy="402.09000000000003" r="3.41" fill="#588469" /><rect x="470.29" y="254" width="81.82000000000001" height="80" fill="#ffffff" stroke="#000000" stroke-width="0.8" /><circle cx="485.87" cy="269.24" r="5.36" fill="#b59cb9" /><circle cx="511.2" cy="294" r="4.22" fill="#e1d7e3" /><circle cx="485.87" cy="318.76" r="3.87" fill="#f7f5f8" /><rect x="194.14000000000001" y="254" width="81.82000000000001" height="80" fill="#ffffff" stroke="#000000" stroke-width="0.8" /><circle cx="209.72" cy="269.24" r="7.03" fill="#5d2766" /><circle cx="235.05" cy="294" r="4.75" fill="#896290" /><circle cx="209.72" cy="318.76" r="4.2700000000000005" fill="#9f7fa5" /><rect x="930.54" y="337.33" width="81.82000000000001" height="80" fill="#ffffff" stroke="#000000" stroke-width="0.8" /><circle cx="946.12" cy="352.57" r="4.17" fill="#89a895" /><circle cx="996.78" cy="352.57" r="3.83" fill="#6b937b" /><circle cx="971.45" cy="377.33" r="3.56" fill="#4e7d61" /><circle cx="996.78" cy="402.09000000000003" r="3.13" fill="#13522c" /><rect x="562.34" y="420.67" width="81.82000000000001" height="80" fill="#ffffff" stroke="#000000" stroke-width="0.8" /><circle cx="577.92" cy="435.91" r="4.75" fill="#f0ebf1" /><circle cx="603.25" cy="460.67" r="3.91" fill="#d7e2db" /><circle cx="577.92" cy="485.43" r="3.62" fill="#baccc1" /><circle cx="628.58" cy="485.43" r="3.38" fill="#9cb7a7" /><rect x="470.29" y="337.33" width="81.82000000000001" height="80" fill="#ffffff" stroke="#000000" stroke-width="0.8" /><circle cx="536.53" cy="352.57" r="4.55" fill="#dacddc" /><circle cx="511.2" cy="377.33" r="4.12" fill="#f0ebf1" /><circle cx="536.53" cy="402.09000000000003" r="3.5300000000000002" fill="#d7e2db" /><rect x="194.14000000000001" y="87.33" width="81.82000000000001" height="80" fill="#ffffff" stroke="#000000" stroke-width="0.8" /><circle cx="209.72" cy="102.57000000000001" r="12.35" fill="#40004b" /><circle cx="260.38" cy="102.57000000000001" r="6.05" fill="#561d5f" /><circle cx="235.05" cy="127.33" r="5.07" fill="#6c3a74" /><circle cx="260.38" cy="152.09" r="4.08" fill="#98759e" /><rect x="562.34" y="337.33" width="81.82000000000001" height="80" fill="#ffffff" stroke="#000000" stroke-width="0.8" /><circle cx="577.92" cy="352.57" r="4.9" fill="#e1d7e3" /><circle cx="628.58" cy="352.57" r="4.37" fill="#f7f5f8" /><circle cx="577.92" cy="402.09000000000003" r="3.69" fill="#cddbd3" /><circle cx="628.58" cy="402.09000000000003" r="3.44" fill="#b0c5b8" /><rect x="654.39" y="170.67000000000002" width="81.82000000000001" height="80" fill="#ffffff" stroke="#000000" stroke-width="0.8" /><circle cx="720.63" cy="185.91" r="4.43" fill="#f7f5f8" /><circle cx="695.3000000000001" cy="210.67000000000002" r="4.03" fill="#ebf0ed" /><circle cx="720.63" cy="235.43" r="3.47" fill="#b0c5b8" /><rect x="378.24" y="87.33" width="81.82000000000001" height="80" fill="#ffffff" stroke="#000000" stroke-width="0.8" /><circle cx="393.82" cy="102.57000000000001" r="6.46" fill="#7a4e82" /><circle cx="419.15000000000003" cy="127.33" r="4.61" fill="#a689ab" /><circle cx="393.82" cy="152.09" r="4.17" fill="#bca6c0" /><rect x="838.49" y="170.67000000000002" width="81.82000000000001" height="80" fill="#ffffff" stroke="#000000" stroke-width="0.8" /><circle cx="854.07" cy="185.91" r="4.55" fill="#d7e2db" /><circle cx="879.4" cy="210.67000000000002" r="3.79" fill="#9cb7a7" /><circle cx="854.07" cy="235.43" r="3.5300000000000002" fill="#7fa18d" /><circle cx="904.73" cy="235.43" r="3.3000000000000003" fill="#628b72" /><rect x="194.14000000000001" y="337.33" width="81.82000000000001" height="80" fill="#ffffff" stroke="#000000" stroke-width="0.8" /><circle cx="260.38" cy="352.57" r="5.26" fill="#825889" /><circle cx="235.05" cy="377.33" r="4.61" fill="#98759e" /><circle cx="260.38" cy="402.09000000000003" r="3.83" fill="#c4b0c7" /><rect x="838.49" y="420.67" width="81.82000000000001" height="80" fill="#ffffff" stroke="#000000" stroke-width="0.8" /><circle cx="854.07" cy="435.91" r="4.22" fill="#9cb7a7" /><circle cx="904.73" cy="435.91" r="3.87" fill="#7fa18d" /><circle cx="879.4" cy="460.67" r="3.59" fill="#628b72" /><circle cx="904.73" cy="485.43" r="3.16" fill="#27603e" /><rect x="930.54" y="420.67" width="81.82000000000001" height="80" fill="#ffffff" stroke="#000000" stroke-width="0.8" /><circle cx="946.12" cy="435.91" r="4.08" fill="#759a84" /><circle cx="996.78" cy="435.91" r="3.7600000000000002" fill="#588469" /><circle cx="946.12" cy="485.43" r="3.2800000000000002" fill="#1d5935" /><circle cx="996.78" cy="485.43" r="3.09" fill="#00441b" /><rect x="930.54" y="87.33" width="81.82000000000001" height="80" fill="#ffffff" stroke="#000000" stroke-width="0.8" /><circle cx="946.12" cy="102.57000000000001" r="4.49" fill="#c4d3ca" /><circle cx="971.45" cy="127.33" r="3.7600000000000002" fill="#89a895" /><circle cx="946.12" cy="152.09" r="3.5" fill="#6b937b" /><circle cx="996.78" cy="152.09" r="3.2800000000000002" fill="#4e7d61" /><rect x="286.19" y="170.67000000000002" width="81.82000000000001" height="80" fill="#ffffff" stroke="#000000" stroke-width="0.8" /><circle cx="301.77" cy="185.91" r="6.71" fill="#6c3a74" /><circle cx="327.1" cy="210.67000000000002" r="4.68" fill="#98759e" /><circle cx="301.77" cy="235.43" r="4.22" fill="#ae93b2" /><rect x="470.29" y="87.33" width="81.82000000000001" height="80" fill="#ffffff" stroke="#000000" stroke-width="0.8" /><circle cx="536.53" cy="102.57000000000001" r="4.98" fill="#ae93b2" /><circle cx="511.2" cy="127.33" r="4.43" fill="#c4b0c7" /><circle cx="536.53" cy="152.09" r="3.72" fill="#f0ebf1" /><rect x="654.39" y="337.33" width="81.82000000000001" height="80" fill="#ffffff" stroke="#000000" stroke-width="0.8" /><circle cx="669.97" cy="352.57" r="4.68" fill="#ffffff" /><circle cx="695.3000000000001" cy="377.33" r="3.87" fill="#c4d3ca" /><circle cx="669.97" cy="402.09000000000003" r="3.59" fill="#a6beb0" /><circle cx="720.63" cy="402.09000000000003" r="3.36" fill="#89a895" /><rect x="654.39" y="420.67" width="81.82000000000001" height="80" fill="#ffffff" stroke="#000000" stroke-width="0.8" /><circle cx="720.63" cy="435.91" r="4.12" fill="#cddbd3" /><circle cx="695.3000000000001" cy="460.67" r="3.79" fill="#b0c5b8" /><circle cx="669.97" cy="485.43" r="3.5300000000000002" fill="#93af9e" /><circle cx="720.63" cy="485.43" r="3.3000000000000003" fill="#759a84" /><rect x="286.19" y="420.67" width="81.82000000000001" height="80" fill="#ffffff" stroke="#000000" stroke-width="0.8" /><circle cx="301.77" cy="435.91" r="5.6000000000000005" fill="#98759e" /><circle cx="327.1" cy="460.67" r="4.32" fill="#c4b0c7" /><circle cx="301.77" cy="485.43" r="3.95" fill="#dacddc" /><rect x="746.44" y="337.33" width="81.82000000000001" height="80" fill="#ffffff" stroke="#000000" stroke-width="0.8" /><circle cx="812.6800000000001" cy="352.57" r="4.08" fill="#baccc1" /><circle cx="787.35" cy="377.33" r="3.7600000000000002" fill="#9cb7a7" /><circle cx="762.02" cy="402.09000000000003" r="3.5" fill="#7fa18d" /><circle cx="812.6800000000001" cy="402.09000000000003" r="3.2800000000000002" fill="#628b72" /><rect x="746.44" y="420.67" width="81.82000000000001" height="80" fill="#ffffff" stroke="#000000" stroke-width="0.8" /><circle cx="762.02" cy="435.91" r="4.37" fill="#c4d3ca" /><circle cx="812.6800000000001" cy="435.91" r="3.99" fill="#a6beb0" /><circle cx="787.35" cy="460.67" r="3.69" fill="#89a895" /><circle cx="762.02" cy="485.43" r="3.44" fill="#6b937b" /><rect x="378.24" y="254" width="81.82000000000001" height="80" fill="#ffffff" stroke="#000000" stroke-width="0.8" /><circle cx="393.82" cy="269.24" r="5.73" fill="#98759e" /><circle cx="444.48" cy="269.24" r="4.9" fill="#ae93b2" /><circle cx="393.82" cy="318.76" r="3.99" fill="#dacddc" /><circle cx="444.48" cy="318.76" r="3.69" fill="#f0ebf1" /><rect x="746.44" y="254" width="81.82000000000001" height="80" fill="#ffffff" stroke="#000000" stroke-width="0.8" /><circle cx="762.02" cy="269.24" r="4.61" fill="#ebf0ed" /><circle cx="787.35" cy="294" r="3.83" fill="#b0c5b8" /><circle cx="762.02" cy="318.76" r="3.56" fill="#93af9e" /><circle cx="812.6800000000001" cy="318.76" r="3.33" fill="#759a84" /><rect x="654.39" y="254" width="81.82000000000001" height="80" fill="#ffffff" stroke="#000000" stroke-width="0.8" /><circle cx="669.97" cy="269.24" r="4.82" fill="#f0ebf1" /><circle cx="720.63" cy="269.24" r="4.32" fill="#f5f7f6" /><circle cx="669.97" cy="318.76" r="3.65" fill="#baccc1" /><circle cx="720.63" cy="318.76" r="3.41" fill="#9cb7a7" /><rect x="654.39" y="87.33" width="81.82000000000001" height="80" fill="#ffffff" stroke="#000000" stroke-width="0.8" /><circle cx="669.97" cy="102.57000000000001" r="5.16" fill="#d2c4d5" /><circle cx="695.3000000000001" cy="127.33" r="4.12" fill="#ffffff" /><circle cx="669.97" cy="152.09" r="3.79" fill="#e1e9e4" /><rect x="746.44" y="87.33" width="81.82000000000001" height="80" fill="#ffffff" stroke="#000000" stroke-width="0.8" /><circle cx="812.6800000000001" cy="102.57000000000001" r="4.37" fill="#f5f7f6" /><circle cx="787.35" cy="127.33" r="3.99" fill="#d7e2db" /><circle cx="812.6800000000001" cy="152.09" r="3.44" fill="#9cb7a7" /><rect x="930.54" y="254" width="81.82000000000001" height="80" fill="#ffffff" stroke="#000000" stroke-width="0.8" /><circle cx="946.12" cy="269.24" r="4.2700000000000005" fill="#9cb7a7" /><circle cx="996.78" cy="269.24" r="3.91" fill="#7fa18d" /><circle cx="971.45" cy="294" r="3.62" fill="#628b72" /><circle cx="946.12" cy="318.76" r="3.38" fill="#447658" /><rect x="470.29" y="420.67" width="81.82000000000001" height="80" fill="#ffffff" stroke="#000000" stroke-width="0.8" /><circle cx="485.87" cy="435.91" r="4.98" fill="#d2c4d5" /><circle cx="536.53" cy="435.91" r="4.43" fill="#e8e1ea" /><circle cx="485.87" cy="485.43" r="3.72" fill="#e1e9e4" /><circle cx="536.53" cy="485.43" r="3.47" fill="#c4d3ca" /><rect x="194.14000000000001" y="420.67" width="81.82000000000001" height="80" fill="#ffffff" stroke="#000000" stroke-width="0.8" /><circle cx="209.72" cy="435.91" r="6.05" fill="#7a4e82" /><circle cx="260.38" cy="435.91" r="5.07" fill="#906b97" /><circle cx="209.72" cy="485.43" r="4.08" fill="#bca6c0" /><circle cx="260.38" cy="485.43" r="3.7600000000000002" fill="#d2c4d5" /><rect x="378.24" y="337.33" width="81.82000000000001" height="80" fill="#ffffff" stroke="#000000" stroke-width="0.8" /><circle cx="393.82" cy="352.57" r="5.47" fill="#a689ab" /><circle cx="419.15000000000003" cy="377.33" r="4.2700000000000005" fill="#d2c4d5" /><circle cx="393.82" cy="402.09000000000003" r="3.91" fill="#e8e1ea" /><rect x="930.54" y="170.67000000000002" width="81.82000000000001" height="80" fill="#ffffff" stroke="#000000" stroke-width="0.8" /><circle cx="996.78" cy="185.91" r="3.99" fill="#93af9e" /><circle cx="971.45" cy="210.67000000000002" r="3.69" fill="#759a84" /><circle cx="946.12" cy="235.43" r="3.44" fill="#588469" /><circle cx="996.78" cy="235.43" r="3.23" fill="#3a6f4f" /><rect x="1068.5" y="34" width="162.5" height="128" fill="#ffffff" /><rect x="1068.5" y="34" width="162.5" height="128" fill="none" stroke="#000000" stroke-width="1" /><text x="1144.75" y="53.6" font-size="12" text-anchor="middle" font-weight="bold">Contrast</text><rect x="1080.5" y="60" width="18" height="18" fill="#ffffff" stroke="#000000" stroke-width="0.5" /><circle cx="1082.75" cy="62.25" r="1.8" fill="#000000" /><circle cx="1096.25" cy="62.25" r="1.17" fill="#cccccc" /><circle cx="1089.5" cy="69" r="1.17" fill="#cccccc" /><circle cx="1082.75" cy="75.75" r="1.17" fill="#cccccc" /><circle cx="1096.25" cy="75.75" r="1.17" fill="#cccccc" /><text x="1103.5" y="73" font-size="12" text-anchor="start">MS-CT</text><rect x="1080.5" y="78" width="18" height="18" fill="#ffffff" stroke="#000000" stroke-width="0.5" /><circle cx="1082.75" cy="80.25" r="1.17" fill="#cccccc" /><circle cx="1096.25" cy="80.25" r="1.8" fill="#000000" /><circle cx="1089.5" cy="87" r="1.17" fill="#cccccc" /><circle cx="1082.75" cy="93.75" r="1.17" fill="#cccccc" /><circle cx="1096.25" cy="93.75" r="1.17" fill="#cccccc" /><text x="1103.5" y="91" font-size="12" text-anchor="start">AD-CT</text><rect x="1080.5" y="96" width="18" height="18" fill="#ffffff" stroke="#000000" stroke-width="0.5" /><circle cx="1082.75" cy="98.25" r="1.17" fill="#cccccc" /><circle cx="1096.25" cy="98.25" r="1.17" fill="#cccccc" /><circle cx="1089.5" cy="105" r="1.8" fill="#000000" /><circle cx="1082.75" cy="111.75" r="1.17" fill="#cccccc" /><circle cx="1096.25" cy="111.75" r="1.17" fill="#cccccc" /><text x="1103.5" y="109" font-size="12" text-anchor="start">ASD-CT</text><rect x="1080.5" y="114" width="18" height="18" fill="#ffffff" stroke="#000000" stroke-width="0.5" /><circle cx="1082.75" cy="116.25" r="1.17" fill="#cccccc" /><circle cx="1096.25" cy="116.25" r="1.17" fill="#cccccc" /><circle cx="1089.5" cy="123" r="1.17" fill="#cccccc" /><circle cx="1082.75" cy="129.75" r="1.8" fill="#000000" /><circle cx="1096.25" cy="129.75" r="1.17" fill="#cccccc" /><text x="1103.5" y="127" font-size="12" text-anchor="start">FTD-CT</text><rect x="1080.5" y="132" width="18" height="18" fill="#ffffff" stroke="#000000" stroke-width="0.5" /><circle cx="1082.75" cy="134.25" r="1.17" fill="#cccccc" /><circle cx="1096.25" cy="134.25" r="1.17" fill="#cccccc" /><circle cx="1089.5" cy="141" r="1.17" fill="#cccccc" /><circle cx="1082.75" cy="147.75" r="1.17" fill="#cccccc" /><circle cx="1096.25" cy="147.75" r="1.8" fill="#000000" /><text x="1103.5" y="145" font-size="12" text-anchor="start">HD-CT</text><rect x="1068.5" y="170" width="162.5" height="92" fill="#ffffff" /><rect x="1068.5" y="170" width="162.5" height="92" fill="none" stroke="#000000" stroke-width="1" /><text x="1144.75" y="189.6" font-size="12" text-anchor="middle" font-weight="bold">-log10(FDR)</text><circle cx="1088.5" cy="205" r="5.4" fill="#444444" /><text x="1102.5" y="209" font-size="12" text-anchor="start">1.9</text><circle cx="1088.5" cy="223" r="7.72" fill="#444444" /><text x="1102.5" y="227" font-size="12" text-anchor="start">2.6</text><circle cx="1088.5" cy="241" r="8" fill="#444444" /><text x="1102.5" y="245" font-size="12" text-anchor="start">4.0</text><rect x="1255" y="94" width="20" height="8.5" fill="#00441b" /><rect x="1255" y="102" width="20" height="8.5" fill="#0a4b24" /><rect x="1255" y="110" width="20" height="8.5" fill="#14532d" /><rect x="1255" y="118" width="20" height="8.5" fill="#1f5a36" /><rect x="1255" y="126" width="20" height="8.5" fill="#296240" /><rect x="1255" y="134" width="20" height="8.5" fill="#346a49" /><rect x="1255" y="142" width="20" height="8.5" fill="#3e7152" /><rect x="1255" y="150" width="20" height="8.5" fill="#48795c" /><rect x="1255" y="158" width="20" height="8.5" fill="#538165" /><rect x="1255" y="166" width="20" height="8.5" fill="#5d886e" /><rect x="1255" y="174" width="20" height="8.5" fill="#689078" /><rect x="1255" y="182" width="20" height="8.5" fill="#729781" /><rect x="1255" y="190" width="20" height="8.5" fill="#7c9f8a" /><rect x="1255" y="198" width="20" height="8.5" fill="#87a793" /><rect x="1255" y="206" width="20" height="8.5" fill="#91ae9d" /><rect x="1255" y="214" width="20" height="8.5" fill="#9cb6a6" /><rect x="1255" y="222" width="20" height="8.5" fill="#a6beaf" /><rect x="1255" y="230" width="20" height="8.5" fill="#b0c5b9" /><rect x="1255" y="238" width="20" height="8.5" fill="#bbcdc2" /><rect x="1255" y="246" width="20" height="8.5" fill="#c5d5cb" /><rect x="1255" y="254" width="20" height="8.5" fill="#d0dcd5" /><rect x="1255" y="262" width="20" height="8.5" fill="#dae4de" /><rect x="1255" y="270" width="20" height="8.5" fill="#e4ebe7" /><rect x="1255" y="278" width="20" height="8.5" fill="#eff3f1" /><rect x="1255" y="286" width="20" height="8.5" fill="#f9fbfa" /><rect x="1255" y="294" width="20" height="8.5" fill="#fbf9fb" /><rect x="1255" y="302" width="20" height="8.5" fill="#f3eff3" /><rect x="1255" y="310" width="20" height="8.5" fill="#ebe4ec" /><rect x="1255" y="318" width="20" height="8.5" fill="#e3dae5" /><rect x="1255" y="326" width="20" height="8.5" fill="#dbd0dd" /><rect x="1255" y="334" width="20" height="8.5" fill="#d4c5d6" /><rect x="1255" y="342" width="20" height="8.5" fill="#ccbbcf" /><rect x="1255" y="350" width="20" height="8.5" fill="#c4b0c7" /><rect x="1255" y="358" width="20" height="8.5" fill="#bca6c0" /><rect x="1255" y="366" width="20" height="8.5" fill="#b49cb9" /><rect x="1255" y="374" width="20" height="8.5" fill="#ad91b1" /><rect x="1255" y="382" width="20" height="8.5" fill="#a587aa" /><rect x="1255" y="390" width="20" height="8.5" fill="#9d7ca3" /><rect x="1255" y="398" width="20" height="8.5" fill="#95729b" /><rect x="1255" y="406" width="20" height="8.5" fill="#8d6894" /><rect x="1255" y="414" width="20" height="8.5" fill="#865d8d" /><rect x="1255" y="422" width="20" height="8.5" fill="#7e5385" /><rect x="1255" y="430" width="20" height="8.5" fill="#76487e" /><rect x="1255" y="438" width="20" height="8.5" fill="#6e3e77" /><rect x="1255" y="446" width="20" height="8.5" fill="#66346f" /><rect x="1255" y="454" width="20" height="8.5" fill="#5f2968" /><rect x="1255" y="462" width="20" height="8.5" fill="#571f61" /><rect x="1255" y="470" width="20" height="8.5" fill="#4f1459" /><rect x="1255" y="478" width="20" height="8.5" fill="#470a52" /><rect x="1255" y="486" width="20" height="8.5" fill="#40004b" /><rect x="1255" y="94" width="20" height="400" fill="none" stroke="#000000" stroke-width="1" /><line x1="1275" y1="447.85" x2="1279" y2="447.85" stroke="#000000" stroke-width="1" /><text x="1280" y="451.85" font-size="12" text-anchor="start">-2.0</text><line x1="1275" y1="370.92" x2="1279" y2="370.92" stroke="#000000" stroke-width="1" /><text x="1280" y="374.92" font-size="12" text-anchor="start">-1.0</text><line x1="1275" y1="294" x2="1279" y2="294" stroke="#000000" stroke-width="1" /><text x="1280" y="298" font-size="12" text-anchor="start">0.0</text><line x1="1275" y1="217.08" x2="1279" y2="217.08" stroke="#000000" stroke-width="1" /><text x="1280" y="221.08" font-size="12" text-anchor="start">1.0</text><line x1="1275" y1="140.15" x2="1279" y2="140.15" stroke="#000000" stroke-width="1" /><text x="1280" y="144.15" font-size="12" text-anchor="start">2.0</text><text x="1265" y="88" font-size="12" text-anchor="middle">logFC</text></svg>