<svg xmlns="http://www.w3.org/2000/svg" width="759" height="541" fill="black"><rect width="100%" height="100%" fill="white" /><line x1="65" y1="492" x2="665" y2="492" stroke="black" stroke-width="1" /><line x1="65" y1="42" x2="65" y2="492" stroke="black" stroke-width="1" /><line x1="185" y1="42" x2="185" y2="492" stroke="#ccc" stroke-width="1" /><line x1="305" y1="42" x2="305" y2="492" stroke="#ccc" stroke-width="1" /><line x1="425" y1="42" x2="425" y2="492" stroke="#ccc" stroke-width="1" /><line x1="545" y1="42" x2="545" y2="492" stroke="#ccc" stroke-width="1" /><line x1="665" y1="42" x2="665" y2="492" stroke="#ccc" stroke-width="1" /><line x1="65" y1="379.5" x2="665" y2="379.5" stroke="#ccc" stroke-width="1" /><line x1="65" y1="267" x2="665" y2="267" stroke="#ccc" stroke-width="1" /><line x1="65" y1="154.5" x2="665" y2="154.5" stroke="#ccc" stroke-width="1" /><line x1="65" y1="42" x2="665" y2="42" stroke="#ccc" stroke-width="1" /><line x1="65" y1="492" x2="65" y2="497" stroke="black" stroke-width="1" /><text x="65" y="507" font-size="10" text-anchor="middle">0</text><line x1="185" y1="492" x2="185" y2="497" stroke="black" stroke-width="1" /><text x="185" y="507" font-size="10" text-anchor="middle">2.5</text><line x1="305" y1="492" x2="305" y2="497" stroke="black" stroke-width="1" /><text x="305" y="507" font-size="10" text-anchor="middle">5</text><line x1="425" y1="492" x2="425" y2="497" stroke="black" stroke-width="1" /><text x="425" y="507" font-size="10" text-anchor="middle">7.5</text><line x1="545" y1="492" x2="545" y2="497" stroke="black" stroke-width="1" /><text x="545" y="507" font-size="10" text-anchor="middle">10</text><line x1="665" y1="492" x2="665" y2="497" stroke="black" stroke-width="1" /><text x="665" y="507" font-size="10" text-anchor="middle">12.5</text><line x1="60" y1="492" x2="65" y2="492" stroke="black" stroke-width="1" /><text x="57" y="495.5" font-size="10" text-anchor="end">0</text><line x1="60" y1="379.5" x2="65" y2="379.5" stroke="black" stroke-width="1" /><text x="57" y="383" font-size="10" text-anchor="end">200</text><line x1="60" y1="267" x2="65" y2="267" stroke="black" stroke-width="1" /><text x="57" y="270.5" font-size="10" text-anchor="end">400</text><line x1="60" y1="154.5" x2="65" y2="154.5" stroke="black" stroke-width="1" /><text x="57" y="158" font-size="10" text-anchor="end">600</text><line x1="60" y1="42" x2="65" y2="42" stroke="black" stroke-width="1" /><text x="57" y="45.5" font-size="10" text-anchor="end">800</text><text x="379.5" y="534" font-size="14" text-anchor="middle">Month</text><text x="14" y="270.5" font-size="14" text-anchor="middle" transform="rotate(-90,14,270.5)">Variant count</text><text x="379.5" y="21" font-size="16" text-anchor="middle">Without Stroke Lines</text><path d="M 113 255.75 L 161 241.6875 L 209 268.125 L 257 205.125 L 305 217.5 L 353 210.1875 L 401.00000000000006 229.3125 L 449 197.8125 L 497 213.5625 L 545 188.25 L 593 200.625 L 641 179.8125 L 641 492 L 593 492 L 545 492 L 497 492 L 449 492 L 401.00000000000006 492 L 353 492 L 305 492 L 257 492 L 209 492 L 161 492 L 113 492 Z" stroke="none" stroke-width="0" fill="steelblue" fill-opacity="0.7" /><path d="M 113 202.3125 L 161 184.3125 L 209 218.625 L 257 140.4375 L 305 156.75 L 353 147.1875 L 401.00000000000006 174.1875 L 449 127.5 L 497 147.1875 L 545 115.125 L 593 132 L 641 101.0625 L 641 179.8125 L 593 200.625 L 545 188.25 L 497 213.5625 L 449 197.8125 L 401.00000000000006 229.3125 L 353 210.1875 L 305 217.5 L 257 205.125 L 209 268.125 L 161 241.6875 L 113 255.75 Z" stroke="none" stroke-width="0" fill="orange" fill-opacity="0.7" /><path d="M 113 189.9375 L 161 170.25 L 209 207.375 L 257 124.6875 L 305 142.125 L 353 132 L 401.00000000000006 160.6875 L 449 110.0625 L 497 131.4375 L 545 96.5625 L 593 115.125 L 641 81.375 L 641 101.0625 L 593 132 L 545 115.125 L 497 147.1875 L 449 127.5 L 401.00000000000006 174.1875 L 353 147.1875 L 305 156.75 L 257 140.4375 L 209 218.625 L 161 184.3125 L 113 202.3125 Z" stroke="none" stroke-width="0" fill="mediumseagreen" fill-opacity="0.7" /><path d="M 113 181.5 L 161 160.6875 L 209 199.5 L 257 114 L 305 132 L 353 121.875 L 401.00000000000006 151.6875 L 449 98.25 L 497 120.75 L 545 83.625 L 593 103.3125 L 641 67.875 L 641 81.375 L 593 115.125 L 545 96.5625 L 497 131.4375 L 449 110.0625 L 401.00000000000006 160.6875 L 353 132 L 305 142.125 L 257 124.6875 L 209 207.375 L 161 170.25 L 113 189.9375 Z" stroke="none" stroke-width="0" fill="tomato" fill-opacity="0.7" /><rect x="670" y="32" width="80" height="92" fill="white" /><rect x="670" y="32" width="80" height="92" fill="none" stroke="black" stroke-width="1" /><text x="700" y="47" font-size="12" text-anchor="start">SNVs</text><rect x="680" y="41" width="12" height="12" fill="steelblue" /><text x="700" y="65" font-size="12" text-anchor="start">Indels</text><rect x="680" y="59" width="12" height="12" fill="orange" /><text x="700" y="83" font-size="12" text-anchor="start">SVs</text><rect x="680" y="77" width="12" height="12" fill="mediumseagreen" /><text x="700" y="101" font-size="12" text-anchor="start">CNVs</text><rect x="680" y="95" width="12" height="12" fill="tomato" /></svg>