<svg xmlns="http://www.w3.org/2000/svg" width="759" height="541" fill="black"><rect width="100%" height="100%" fill="white" /><line x1="65" y1="492" x2="665" y2="492" stroke="black" stroke-width="1" /><line x1="65" y1="42" x2="65" y2="492" stroke="black" stroke-width="1" /><line x1="185" y1="42" x2="185" y2="492" stroke="#ccc" stroke-width="1" /><line x1="305" y1="42" x2="305" y2="492" stroke="#ccc" stroke-width="1" /><line x1="425" y1="42" x2="425" y2="492" stroke="#ccc" stroke-width="1" /><line x1="545" y1="42" x2="545" y2="492" stroke="#ccc" stroke-width="1" /><line x1="665" y1="42" x2="665" y2="492" stroke="#ccc" stroke-width="1" /><line x1="65" y1="398.25" x2="665" y2="398.25" stroke="#ccc" stroke-width="1" /><line x1="65" y1="304.5" x2="665" y2="304.5" stroke="#ccc" stroke-width="1" /><line x1="65" y1="210.75" x2="665" y2="210.75" stroke="#ccc" stroke-width="1" /><line x1="65" y1="117" x2="665" y2="117" stroke="#ccc" stroke-width="1" /><line x1="65" y1="492" x2="65" y2="497" stroke="black" stroke-width="1" /><text x="65" y="507" font-size="10" text-anchor="middle">0</text><line x1="185" y1="492" x2="185" y2="497" stroke="black" stroke-width="1" /><text x="185" y="507" font-size="10" text-anchor="middle">2.5</text><line x1="305" y1="492" x2="305" y2="497" stroke="black" stroke-width="1" /><text x="305" y="507" font-size="10" text-anchor="middle">5</text><line x1="425" y1="492" x2="425" y2="497" stroke="black" stroke-width="1" /><text x="425" y="507" font-size="10" text-anchor="middle">7.5</text><line x1="545" y1="492" x2="545" y2="497" stroke="black" stroke-width="1" /><text x="545" y="507" font-size="10" text-anchor="middle">10</text><line x1="665" y1="492" x2="665" y2="497" stroke="black" stroke-width="1" /><text x="665" y="507" font-size="10" text-anchor="middle">12.5</text><line x1="60" y1="492" x2="65" y2="492" stroke="black" stroke-width="1" /><text x="57" y="495.5" font-size="10" text-anchor="end">0</text><line x1="60" y1="398.25" x2="65" y2="398.25" stroke="black" stroke-width="1" /><text x="57" y="401.75" font-size="10" text-anchor="end">25</text><line x1="60" y1="304.5" x2="65" y2="304.5" stroke="black" stroke-width="1" /><text x="57" y="308" font-size="10" text-anchor="end">50</text><line x1="60" y1="210.75" x2="65" y2="210.75" stroke="black" stroke-width="1" /><text x="57" y="214.25" font-size="10" text-anchor="end">75</text><line x1="60" y1="117" x2="65" y2="117" stroke="black" stroke-width="1" /><text x="57" y="120.5" font-size="10" text-anchor="end">100</text><text x="379.5" y="534" font-size="14" text-anchor="middle">Month</text><text x="14" y="270.5" font-size="14" text-anchor="middle" transform="rotate(-90,14,270.5)">Proportion (%)</text><text x="379.5" y="21" font-size="16" text-anchor="middle">Variant Type Composition (Normalized)</text><path d="M 113 206.67391304347825 L 161 208.68081494057725 L 209 204.98076923076923 L 257 207.40178571428572 L 305 206.0625 L 353 206.4756838905775 L 401.00000000000006 202.5371900826446 L 449 211.8214285714286 L 497 210.75 L 545 213.07438016528926 L 593 210.88567293777135 L 641 215.972148541114 L 641 492 L 593 492 L 545 492 L 497 492 L 449 492 L 401.00000000000006 492 L 353 492 L 305 492 L 257 492 L 209 492 L 161 492 L 113 492 Z" stroke="none" stroke-width="0" fill="steelblue" fill-opacity="0.7" /><path d="M 113 206.67391304347825 L 161 208.68081494057725 L 209 204.98076923076923 L 257 207.40178571428572 L 305 206.0625 L 353 206.4756838905775 L 401.00000000000006 202.5371900826446 L 449 211.8214285714286 L 497 210.75 L 545 213.07438016528926 L 593 210.88567293777135 L 641 215.972148541114 " stroke="steelblue" stroke-width="1.5" fill="none" /><path d="M 113 142.13586956521738 L 161 143.7402376910017 L 209 141.51923076923083 L 257 143.2276785714286 L 305 142.78125 L 353 142.64589665653494 L 401.00000000000006 141.79338842975204 L 449 144.85714285714283 L 497 143.70454545454544 L 545 145.92561983471074 L 593 144.67727930535455 L 641 146.3435013262599 L 641 215.972148541114 L 593 210.88567293777135 L 545 213.07438016528926 L 497 210.75 L 449 211.8214285714286 L 401.00000000000006 202.5371900826446 L 353 206.4756838905775 L 305 206.0625 L 257 207.40178571428572 L 209 204.98076923076923 L 161 208.68081494057725 L 113 206.67391304347825 Z" stroke="none" stroke-width="0" fill="orange" fill-opacity="0.7" /><path d="M 113 142.13586956521738 L 161 143.7402376910017 L 209 141.51923076923083 L 257 143.2276785714286 L 305 142.78125 L 353 142.64589665653494 L 401.00000000000006 141.79338842975204 L 449 144.85714285714283 L 497 143.70454545454544 L 545 145.92561983471074 L 593 144.67727930535455 L 641 146.3435013262599 " stroke="orange" stroke-width="1.5" fill="none" /><path d="M 113 127.19021739130432 L 161 127.82342954159589 L 209 127.09615384615387 L 257 127.60267857142856 L 305 127.546875 L 353 127.25835866261394 L 401.00000000000006 126.91735537190084 L 449 128.25 L 497 127.79545454545456 L 545 128.88016528925618 L 593 128.39652677279298 L 641 128.93633952254635 L 641 146.3435013262599 L 593 144.67727930535455 L 545 145.92561983471074 L 497 143.70454545454544 L 449 144.85714285714283 L 401.00000000000006 141.79338842975204 L 353 142.64589665653494 L 305 142.78125 L 257 143.2276785714286 L 209 141.51923076923083 L 161 143.7402376910017 L 113 142.13586956521738 Z" stroke="none" stroke-width="0" fill="mediumseagreen" fill-opacity="0.7" /><path d="M 113 127.19021739130432 L 161 127.82342954159589 L 209 127.09615384615387 L 257 127.60267857142856 L 305 127.546875 L 353 127.25835866261394 L 401.00000000000006 126.91735537190084 L 449 128.25 L 497 127.79545454545456 L 545 128.88016528925618 L 593 128.39652677279298 L 641 128.93633952254635 " stroke="mediumseagreen" stroke-width="1.5" fill="none" /><path d="M 113 116.99999999999994 L 161 116.99999999999994 L 209 117.00000000000006 L 257 117 L 305 117 L 353 117 L 401.00000000000006 117 L 449 117 L 497 117 L 545 117 L 593 116.99999999999994 L 641 116.99999999999994 L 641 128.93633952254635 L 593 128.39652677279298 L 545 128.88016528925618 L 497 127.79545454545456 L 449 128.25 L 401.00000000000006 126.91735537190084 L 353 127.25835866261394 L 305 127.546875 L 257 127.60267857142856 L 209 127.09615384615387 L 161 127.82342954159589 L 113 127.19021739130432 Z" stroke="none" stroke-width="0" fill="tomato" fill-opacity="0.7" /><path d="M 113 116.99999999999994 L 161 116.99999999999994 L 209 117.00000000000006 L 257 117 L 305 117 L 353 117 L 401.00000000000006 117 L 449 117 L 497 117 L 545 117 L 593 116.99999999999994 L 641 116.99999999999994 " stroke="tomato" stroke-width="1.5" fill="none" /><rect x="670" y="32" width="80" height="92" fill="white" /><rect x="670" y="32" width="80" height="92" fill="none" stroke="black" stroke-width="1" /><text x="700" y="47" font-size="12" text-anchor="start">SNVs</text><rect x="680" y="41" width="12" height="12" fill="steelblue" /><text x="700" y="65" font-size="12" text-anchor="start">Indels</text><rect x="680" y="59" width="12" height="12" fill="orange" /><text x="700" y="83" font-size="12" text-anchor="start">SVs</text><rect x="680" y="77" width="12" height="12" fill="mediumseagreen" /><text x="700" y="101" font-size="12" text-anchor="start">CNVs</text><rect x="680" y="95" width="12" height="12" fill="tomato" /></svg>