<svg xmlns="http://www.w3.org/2000/svg" width="679" height="541" fill="black"><rect width="100%" height="100%" fill="white" /><text x="339.5" y="21" font-size="16" text-anchor="middle">Donut Chart</text><path d="M585,267 A220,220 0 0,1 187.01626123751157,396.3127555043441 L316.45898033750314,302.2671151375484 A60,60 0 0,0 425,267 Z" stroke="steelblue" stroke-width="1" fill="steelblue" /><text x="408.26237921249265" y="400.1479122813215" font-size="12" text-anchor="middle">Rust</text><path d="M187.01626123751157,396.3127555043441 A220,220 0 0,1 297.01626123751157,57.76756641506623 L346.45898033750314,209.93660902229078 A60,60 0 0,0 316.45898033750314,302.2671151375484 Z" stroke="tomato" stroke-width="1" fill="tomato" /><text x="231.8520877186785" y="223.73762078750738" font-size="12" text-anchor="middle">Python</text><path d="M297.01626123751157,57.76756641506623 A220,220 0 0,1 542.9837387624884,137.68724449565588 L413.54101966249686,231.7328848624516 A60,60 0 0,0 346.45898033750314,209.93660902229078 Z" stroke="seagreen" stroke-width="1" fill="seagreen" /><text x="408.2623792124926" y="133.8520877186785" font-size="12" text-anchor="middle">R</text><path d="M542.9837387624884,137.68724449565588 A220,220 0 0,1 585,266.99999999999994 L425,267 A60,60 0 0,0 413.54101966249686,231.7328848624516 Z" stroke="gold" stroke-width="1" fill="gold" /><text x="498.1479122813215" y="223.73762078750732" font-size="12" text-anchor="middle">Other</text></svg>