<svg xmlns="http://www.w3.org/2000/svg" width="819" height="541" fill="black"><rect width="100%" height="100%" fill="white" /><text x="409.5" y="21" font-size="16" text-anchor="middle">Pie with Legend</text><path d="M365,267 L580,267 A215,215 0 0,1 191.06134620938633,393.37382924288175 Z" stroke="seagreen" stroke-width="1" fill="seagreen" /><path d="M365,267 L191.06134620938633,393.37382924288175 A215,215 0 0,1 364.99999999999994,52 Z" stroke="darkorange" stroke-width="1" fill="darkorange" /><path d="M365,267 L364.99999999999994,52 A215,215 0 0,1 580,266.99999999999994 Z" stroke="mediumpurple" stroke-width="1" fill="mediumpurple" /><rect x="670" y="32" width="140" height="74" fill="white" /><rect x="670" y="32" width="140" height="74" fill="none" stroke="black" stroke-width="1" /><text x="700" y="47" font-size="12" text-anchor="start">Apples (40.0%)</text><rect x="680" y="41" width="12" height="12" fill="seagreen" /><text x="700" y="65" font-size="12" text-anchor="start">Oranges (35.0%)</text><rect x="680" y="59" width="12" height="12" fill="darkorange" /><text x="700" y="83" font-size="12" text-anchor="start">Grapes (25.0%)</text><rect x="680" y="77" width="12" height="12" fill="mediumpurple" /></svg>