<svg xmlns="http://www.w3.org/2000/svg" width="689.8" height="541" fill="black"><rect width="100%" height="100%" fill="white" /><text x="344.9" y="21" font-size="16" text-anchor="middle">Outside Labels</text><path d="M370.4,267 L590.4,267 A220,220 0 0,1 302.41626123751155,476.2324335849338 Z" stroke="seagreen" stroke-width="1" fill="seagreen" /><path d="M370.4,267 L302.41626123751155,476.2324335849338 A220,220 0 0,1 161.16756641506618,199.0162612375116 Z" stroke="darkorange" stroke-width="1" fill="darkorange" /><path d="M370.4,267 L161.16756641506618,199.0162612375116 A220,220 0 0,1 370.3999999999999,47 Z" stroke="gold" stroke-width="1" fill="gold" /><path d="M370.4,267 L370.3999999999999,47 A220,220 0 0,1 521.0003633043115,106.62690196728946 Z" stroke="mediumpurple" stroke-width="1" fill="mediumpurple" /><path d="M370.4,267 L521.0003633043115,106.62690196728946 A220,220 0 0,1 579.6324335849338,199.01626123751151 Z" stroke="coral" stroke-width="1" fill="coral" /><path d="M370.4,267 L579.6324335849338,199.01626123751151 A220,220 0 0,1 590.4,266.99999999999994 Z" stroke="olivedrab" stroke-width="1" fill="olivedrab" /><line x1="502.6516817658064" y1="449.0288237343632" x2="511.4684605501935" y2="461.1640786499874" stroke="#666" stroke-width="1" /><line x1="511.4684605501935" y1="461.1640786499874" x2="620.4" y2="461.1640786499874" stroke="#666" stroke-width="1" /><text x="620.4" y="461.1640786499874" font-size="12" text-anchor="start">Apples</text><line x1="169.92353205761722" y1="369.14786244139805" x2="156.55843419479172" y2="375.9577199374912" stroke="#666" stroke-width="1" /><line x1="156.55843419479172" y1="375.9577199374912" x2="120.39999999999998" y2="375.9577199374912" stroke="#666" stroke-width="1" /><text x="120.39999999999998" y="375.9577199374912" font-size="12" text-anchor="end">Oranges</text><line x1="238.1483182341935" y1="84.97117626563684" x2="229.3315394498064" y2="72.83592135001263" stroke="#666" stroke-width="1" /><line x1="229.3315394498064" y1="72.83592135001263" x2="120.39999999999998" y2="72.83592135001263" stroke="#666" stroke-width="1" /><text x="120.39999999999998" y="72.83592135001263" font-size="12" text-anchor="end">Bananas</text><line x1="453.2280243540524" y1="57.8002906751434" x2="458.7498926443226" y2="43.85364338681961" stroke="#666" stroke-width="1" /><line x1="458.7498926443226" y1="43.85364338681961" x2="620.4" y2="43.85364338681961" stroke="#666" stroke-width="1" /><text x="620.4" y="43.85364338681961" font-size="12" text-anchor="start">Grapes</text><line x1="560.3737832379534" y1="146.43897112972581" x2="573.0387021204837" y2="138.4015692050409" stroke="#666" stroke-width="1" /><line x1="573.0387021204837" y1="138.4015692050409" x2="620.4" y2="138.4015692050409" stroke="#666" stroke-width="1" /><text x="620.4" y="138.4015692050409" font-size="12" text-anchor="start">Mango</text><line x1="592.629876633906" y1="231.802245365948" x2="607.445201742833" y2="229.45572839034452" stroke="#666" stroke-width="1" /><line x1="607.445201742833" y1="229.45572839034452" x2="620.4" y2="229.45572839034452" stroke="#666" stroke-width="1" /><text x="620.4" y="229.45572839034452" font-size="12" text-anchor="start">Kiwi</text></svg>