<svg xmlns="http://www.w3.org/2000/svg" width="759" height="541" fill="black"><rect width="100%" height="100%" fill="white" /><text x="379.5" y="21" font-size="16" text-anchor="middle">Gene Regulatory Network</text><path d="M 365 72 A 195 195 0 0 1 557.8155936607869 237.89421292529119 L 528.8932546116689 242.26008098649748 A 165.75 165.75 0 0 0 365 101.25 Z" stroke="none" stroke-width="0" fill="#e6194b" /><path d="M 559.074625789657 248.02528986770602 A 195 195 0 0 1 478.34738877527747 425.6737831458811 L 461.3452804589858 401.872715673999 A 165.75 165.75 0 0 0 529.9634319212084 250.87149638755014 Z" stroke="none" stroke-width="0" fill="#3cb44b" /><path d="M 469.88770594667596 431.38847021991427 A 195 195 0 0 1 240.39625192375667 416.99635317350914 L 259.08681413519315 394.4969001974828 A 165.75 165.75 0 0 0 454.15455005467453 406.7301996869271 Z" stroke="none" stroke-width="0" fill="#4363d8" /><path d="M 232.71681445365502 410.2695320775191 A 195 195 0 0 1 197.10473235505458 167.82248691143673 L 222.28902250179638 182.6991138747212 A 165.75 165.75 0 0 0 252.55929228560677 388.7791022658912 Z" stroke="none" stroke-width="0" fill="#f58231" /><path d="M 202.52537696952052 159.1714468653892 A 195 195 0 0 1 354.794488532626 72.26724072285808 L 356.32531525273214 101.47715461442937 A 165.75 165.75 0 0 0 226.89657042409243 175.3457298355808 Z" stroke="none" stroke-width="0" fill="#911eb4" /><text x="504.70205067527024" y="108.82704339353732" font-size="12" text-anchor="start">TF1</text><text x="560.0096283437643" y="359.81650440649804" font-size="12" text-anchor="start">TF2</text><text x="351.59319535622984" y="484.9800214922895" font-size="12" text-anchor="end">TF3</text><text x="153.07400478855197" y="302.3289664723598" font-size="12" text-anchor="end">TF4</text><text x="258.82533924905835" y="85.16618206782282" font-size="12" text-anchor="end">TF5</text><path d="M 529.9634319212084 250.87149638755014 A 165.75 165.75 0 0 1 530.6440558186421 272.92530775155217 C 365 267 365 267 365 101.25 A 165.75 165.75 0 0 1 478.57374227026287 146.27689712930706 C 365 267 365 267 529.9634319212084 250.87149638755014 Z" stroke="none" stroke-width="0" fill="#3cb44b" fill-opacity="0.7" /><path d="M 454.15455005467453 406.7301996869271 A 165.75 165.75 0 0 1 414.2189969550289 425.27366438779654 C 365 267 365 267 478.57374227026287 146.27689712930706 A 165.75 165.75 0 0 1 498.11734975259566 168.24356378015094 C 365 267 365 267 454.15455005467453 406.7301996869271 Z" stroke="none" stroke-width="0" fill="#4363d8" fill-opacity="0.7" /><path d="M 414.2189969550289 425.27366438779654 A 165.75 165.75 0 0 1 397.1039313141881 429.61119301626775 C 365 267 365 267 530.6440558186421 272.92530775155217 A 165.75 165.75 0 0 1 500.5685583659117 362.3636643726969 C 365 267 365 267 414.2189969550289 425.27366438779654 Z" stroke="none" stroke-width="0" fill="#4363d8" fill-opacity="0.7" /><path d="M 252.55929228560677 388.7791022658912 A 165.75 165.75 0 0 1 247.26424706506242 383.66771181798043 C 365 267 365 267 498.11734975259566 168.24356378015094 A 165.75 165.75 0 0 1 526.053044195912 227.82118614315092 C 365 267 365 267 252.55929228560677 388.7791022658912 Z" stroke="none" stroke-width="0" fill="#f58231" fill-opacity="0.7" /><path d="M 247.26424706506242 383.66771181798043 A 165.75 165.75 0 0 1 214.0362096028977 335.4324227902225 C 365 267 365 267 500.5685583659117 362.3636643726969 A 165.75 165.75 0 0 1 470.67669533386373 394.6929855681734 C 365 267 365 267 247.26424706506242 383.66771181798043 Z" stroke="none" stroke-width="0" fill="#f58231" fill-opacity="0.7" /><path d="M 214.0362096028977 335.4324227902225 A 165.75 165.75 0 0 1 205.06799757071227 310.5294968838178 C 365 267 365 267 397.1039313141881 429.61119301626775 A 165.75 165.75 0 0 1 289.762480104216 414.6901421894214 C 365 267 365 267 214.0362096028977 335.4324227902225 Z" stroke="none" stroke-width="0" fill="#f58231" fill-opacity="0.7" /><path d="M 226.89657042409243 175.3457298355808 A 165.75 165.75 0 0 1 279.6653575458839 124.90474569068758 C 365 267 365 267 526.053044195912 227.82118614315092 A 165.75 165.75 0 0 1 528.8932546116689 242.2600809864975 C 365 267 365 267 226.89657042409243 175.3457298355808 Z" stroke="none" stroke-width="0" fill="#911eb4" fill-opacity="0.7" /><path d="M 279.6653575458839 124.90474569068758 A 165.75 165.75 0 0 1 289.9678546176892 119.20541397152675 C 365 267 365 267 470.67669533386373 394.6929855681734 A 165.75 165.75 0 0 1 461.3452804589858 401.872715673999 C 365 267 365 267 279.6653575458839 124.90474569068758 Z" stroke="none" stroke-width="0" fill="#911eb4" fill-opacity="0.7" /><path d="M 289.9678546176892 119.20541397152675 A 165.75 165.75 0 0 1 338.76760554127804 103.33899676171475 C 365 267 365 267 289.762480104216 414.6901421894214 A 165.75 165.75 0 0 1 259.08681413519315 394.4969001974828 C 365 267 365 267 289.9678546176892 119.20541397152675 Z" stroke="none" stroke-width="0" fill="#911eb4" fill-opacity="0.7" /><path d="M 338.76760554127804 103.33899676171475 A 165.75 165.75 0 0 1 356.32531525273214 101.47715461442937 C 365 267 365 267 205.06799757071227 310.5294968838178 A 165.75 165.75 0 0 1 222.28902250179638 182.6991138747212 C 365 267 365 267 338.76760554127804 103.33899676171475 Z" stroke="none" stroke-width="0" fill="#911eb4" fill-opacity="0.7" /><rect x="670" y="32" width="80" height="110" fill="white" /><rect x="670" y="32" width="80" height="110" fill="none" stroke="black" stroke-width="1" /><text x="700" y="47" font-size="12" text-anchor="start">TF1</text><rect x="680" y="41" width="12" height="12" fill="#e6194b" /><text x="700" y="65" font-size="12" text-anchor="start">TF2</text><rect x="680" y="59" width="12" height="12" fill="#3cb44b" /><text x="700" y="83" font-size="12" text-anchor="start">TF3</text><rect x="680" y="77" width="12" height="12" fill="#4363d8" /><text x="700" y="101" font-size="12" text-anchor="start">TF4</text><rect x="680" y="95" width="12" height="12" fill="#f58231" /><text x="700" y="119" font-size="12" text-anchor="start">TF5</text><rect x="680" y="113" width="12" height="12" fill="#911eb4" /></svg>