<svg xmlns="http://www.w3.org/2000/svg" width="679" height="541" fill="black"><rect width="100%" height="100%" fill="white" /><text x="339.5" y="21" font-size="16" text-anchor="middle">PBMC Cell Type Co-clustering</text><path d="M 365 72 A 195 195 0 0 1 557.8530932380373 295.856271909602 L 528.9251292523318 291.5278311231617 A 165.75 165.75 0 0 0 365 101.25 Z" stroke="none" stroke-width="0" fill="#1f77b4" /><path d="M 556.7285429779972 302.5691693399531 A 195 195 0 0 1 297.73454448154246 450.0310315053008 L 307.8243628093111 422.57637677950567 A 165.75 165.75 0 0 0 527.9692615312977 297.2337939389601 Z" stroke="none" stroke-width="0" fill="#ff7f0e" /><path d="M 291.38782989911795 447.57200340318207 A 195 195 0 0 1 174.64588694682163 224.68792555619868 L 203.1990039047984 231.03473672276886 A 165.75 165.75 0 0 0 302.42965541425025 420.4862028927048 Z" stroke="none" stroke-width="0" fill="#2ca02c" /><path d="M 176.23851563182504 218.07043818790893 A 195 195 0 0 1 244.9578533280722 113.32865256530295 L 262.96417532886136 136.3793546805075 A 165.75 165.75 0 0 0 204.55273828705128 225.4098724597226 Z" stroke="none" stroke-width="0" fill="#d62728" /><path d="M 250.39403244346062 109.23285449616117 A 195 195 0 0 1 358.19459814301234 72.11878873127634 L 359.2154084215605 101.35097042158489 A 165.75 165.75 0 0 0 267.58492757694154 132.897926321737 Z" stroke="none" stroke-width="0" fill="#9467bd" /><text x="527.2825399355852" y="131.39292853344222" font-size="12" text-anchor="start">CD4 T</text><text x="470.98312615365177" y="457.3430014013396" font-size="12" text-anchor="start">CD8 T</text><text x="175.25248481995808" y="370.5857156889246" font-size="12" text-anchor="end">NK</text><text x="185.9048451084117" y="153.69865747848667" font-size="12" text-anchor="end">B cell</text><text x="295.27110449443205" y="68.66723442471444" font-size="12" text-anchor="end">Monocyte</text><path d="M 527.9692615312977 297.2337939389601 A 165.75 165.75 0 0 1 455.595026376837 405.8005896809527 C 365 267 365 267 365 101.25 A 165.75 165.75 0 0 1 484.9468973818497 152.60679955317266 C 365 267 365 267 527.9692615312977 297.2337939389601 Z" stroke="none" stroke-width="0" fill="#ff7f0e" fill-opacity="0.7" /><path d="M 302.42965541425025 420.4862028927048 A 165.75 165.75 0 0 1 239.48885361972296 375.25901641114547 C 365 267 365 267 484.9468973818497 152.60679955317266 A 165.75 165.75 0 0 1 523.8416018285143 219.6459291237624 C 365 267 365 267 302.42965541425025 420.4862028927048 Z" stroke="none" stroke-width="0" fill="#2ca02c" fill-opacity="0.7" /><path d="M 239.48885361972296 375.25901641114547 A 165.75 165.75 0 0 1 200.4103783266012 286.5785325652219 C 365 267 365 267 455.595026376837 405.8005896809527 A 165.75 165.75 0 0 1 362.5031466606306 432.73119266873596 C 365 267 365 267 239.48885361972296 375.25901641114547 Z" stroke="none" stroke-width="0" fill="#2ca02c" fill-opacity="0.7" /><path d="M 204.55273828705128 225.4098724597226 A 165.75 165.75 0 0 1 221.43394334848418 184.1637164188678 C 365 267 365 267 523.8416018285143 219.6459291237624 A 165.75 165.75 0 0 1 530.7167360336194 263.67947317979406 C 365 267 365 267 204.55273828705128 225.4098724597226 Z" stroke="none" stroke-width="0" fill="#d62728" fill-opacity="0.7" /><path d="M 221.43394334848418 184.1637164188678 A 165.75 165.75 0 0 1 242.4968721002725 155.34855059255608 C 365 267 365 267 362.5031466606306 432.73119266873596 A 165.75 165.75 0 0 1 327.07996938045045 428.3540634065731 C 365 267 365 267 221.43394334848418 184.1637164188678 Z" stroke="none" stroke-width="0" fill="#d62728" fill-opacity="0.7" /><path d="M 242.4968721002725 155.34855059255608 A 165.75 165.75 0 0 1 254.39566777323978 143.55064118160658 C 365 267 365 267 200.4103783266012 286.5785325652219 A 165.75 165.75 0 0 1 199.27469034270808 269.86081089810364 C 365 267 365 267 242.4968721002725 155.34855059255608 Z" stroke="none" stroke-width="0" fill="#d62728" fill-opacity="0.7" /><path d="M 267.58492757694154 132.897926321737 A 165.75 165.75 0 0 1 291.46306835640945 118.45579047150343 C 365 267 365 267 530.7167360336194 263.67947317979406 A 165.75 165.75 0 0 1 528.9251292523318 291.5278311231618 C 365 267 365 267 267.58492757694154 132.897926321737 Z" stroke="none" stroke-width="0" fill="#9467bd" fill-opacity="0.7" /><path d="M 291.46306835640945 118.45579047150343 A 165.75 165.75 0 0 1 309.98766350961057 110.64557782439229 C 365 267 365 267 327.07996938045045 428.3540634065731 A 165.75 165.75 0 0 1 307.8243628093111 422.57637677950567 C 365 267 365 267 291.46306835640945 118.45579047150343 Z" stroke="none" stroke-width="0" fill="#9467bd" fill-opacity="0.7" /><path d="M 309.98766350961057 110.64557782439229 A 165.75 165.75 0 0 1 348.06822274790875 102.11707966230836 C 365 267 365 267 199.27469034270808 269.86081089810364 A 165.75 165.75 0 0 1 203.1990039047984 231.03473672276886 C 365 267 365 267 309.98766350961057 110.64557782439229 Z" stroke="none" stroke-width="0" fill="#9467bd" fill-opacity="0.7" /><path d="M 348.06822274790875 102.11707966230836 A 165.75 165.75 0 0 1 359.21540842156065 101.35097042158489 C 365 267 365 267 254.39566777323978 143.55064118160658 A 165.75 165.75 0 0 1 262.96417532886136 136.3793546805075 C 365 267 365 267 348.06822274790875 102.11707966230836 Z" stroke="none" stroke-width="0" fill="#9467bd" fill-opacity="0.7" /></svg>