<svg xmlns="http://www.w3.org/2000/svg" width="679" height="541" fill="black"><rect width="100%" height="100%" fill="white" /><text x="339.5" y="21" font-size="16" text-anchor="middle">Wider Gaps, Reduced Opacity</text><path d="M 365 72 A 195 195 0 0 1 559.753570624516 276.80034331039826 L 530.5405350308386 275.3302918138385 A 165.75 165.75 0 0 0 365 101.25 Z" stroke="none" stroke-width="0" fill="#1f77b4" /><path d="M 557.6622753615012 297.1039474575861 A 195 195 0 0 1 321.61783532597417 457.11309210098 L 328.12516002707804 428.596128285833 A 165.75 165.75 0 0 0 528.762934057276 292.5883553389482 Z" stroke="none" stroke-width="0" fill="#ff7f0e" /><path d="M 301.983257998832 451.5369616839896 A 195 195 0 0 1 170.63246443209724 251.3072909521631 L 199.78759476728266 253.66119730933863 A 165.75 165.75 0 0 0 311.4357692990072 423.85641743139115 Z" stroke="none" stroke-width="0" fill="#2ca02c" /><path d="M 173.33756489022588 231.0763174522486 A 195 195 0 0 1 229.41196997540524 126.85405423613 L 249.75017447909445 147.8759461007105 A 165.75 165.75 0 0 0 202.08693015669198 236.4648698344113 Z" stroke="none" stroke-width="0" fill="#d62728" /><path d="M 244.803975734579 113.44897997477736 A 195 195 0 0 1 344.61694966280743 73.0682304031867 L 347.6744072133863 102.15799584270871 A 165.75 165.75 0 0 0 262.83337937439217 136.48163297856075 Z" stroke="none" stroke-width="0" fill="#9467bd" /><text x="520.2217241573147" y="123.59289871543949" font-size="12" text-anchor="start">CD4 T</text><text x="485.1893098478493" y="448.50248108331044" font-size="12" text-anchor="start">CD8 T</text><text x="185.89805472769095" y="388.69099199374733" font-size="12" text-anchor="end">NK</text><text x="176.3688954959025" y="169.71134835084146" font-size="12" text-anchor="end">B cell</text><text x="284.66745448302163" y="72.63433798674406" font-size="12" text-anchor="end">Monocyte</text><path d="M 528.762934057276 292.5883553389482 A 165.75 165.75 0 0 1 465.6968949573382 398.6556031695985 C 365 267 365 267 365 101.25 A 165.75 165.75 0 0 1 479.5317642861946 147.18540377111157 C 365 267 365 267 528.762934057276 292.5883553389482 Z" stroke="none" stroke-width="0" fill="#ff7f0e" fill-opacity="0.45" /><path d="M 311.4357692990072 423.85641743139115 A 165.75 165.75 0 0 1 249.13213482196505 385.5229948958628 C 365 267 365 267 479.5317642861946 147.18540377111157 A 165.75 165.75 0 0 1 519.9527977590344 208.15534886969098 C 365 267 365 267 311.4357692990072 423.85641743139115 Z" stroke="none" stroke-width="0" fill="#2ca02c" fill-opacity="0.45" /><path d="M 249.13213482196505 385.5229948958628 A 165.75 165.75 0 0 1 203.8947616063826 305.9636325582678 C 365 267 365 267 465.6968949573382 398.6556031695985 A 165.75 165.75 0 0 1 380.4763805638177 432.0258893163248 C 365 267 365 267 249.13213482196505 385.5229948958628 Z" stroke="none" stroke-width="0" fill="#2ca02c" fill-opacity="0.45" /><path d="M 202.08693015669198 236.4648698344113 A 165.75 165.75 0 0 1 215.00697517094903 196.4652213257056 C 365 267 365 267 519.9527977590344 208.15534886969098 A 165.75 165.75 0 0 1 529.7726439193916 249.02673330155662 C 365 267 365 267 202.08693015669198 236.4648698344113 Z" stroke="none" stroke-width="0" fill="#d62728" fill-opacity="0.45" /><path d="M 215.00697517094903 196.4652213257056 A 165.75 165.75 0 0 1 232.34996174286331 167.61675266736262 C 365 267 365 267 380.4763805638177 432.0258893163248 A 165.75 165.75 0 0 1 346.81725068862164 431.7496589601313 C 365 267 365 267 215.00697517094903 196.4652213257056 Z" stroke="none" stroke-width="0" fill="#d62728" fill-opacity="0.45" /><path d="M 232.34996174286331 167.61675266736262 A 165.75 165.75 0 0 1 242.4151719889 155.43825726760525 C 365 267 365 267 203.8947616063826 305.9636325582678 A 165.75 165.75 0 0 1 200.91683215714198 290.4473139325699 C 365 267 365 267 232.34996174286331 167.61675266736262 Z" stroke="none" stroke-width="0" fill="#d62728" fill-opacity="0.45" /><path d="M 262.83337937439217 136.48163297856075 A 165.75 165.75 0 0 1 284.7768886630573 121.95754101842971 C 365 267 365 267 529.7726439193916 249.02673330155662 A 165.75 165.75 0 0 1 530.5405350308386 275.3302918138385 C 365 267 365 267 262.83337937439217 136.48163297856075 Z" stroke="none" stroke-width="0" fill="#9467bd" fill-opacity="0.45" /><path d="M 284.7768886630573 121.95754101842971 A 165.75 165.75 0 0 1 301.8623835971873 113.7462760812277 C 365 267 365 267 346.81725068862164 431.7496589601313 A 165.75 165.75 0 0 1 328.12516002707804 428.596128285833 C 365 267 365 267 284.7768886630573 121.95754101842971 Z" stroke="none" stroke-width="0" fill="#9467bd" fill-opacity="0.45" /><path d="M 301.8623835971873 113.7462760812277 A 165.75 165.75 0 0 1 337.23719259402395 103.59164946387017 C 365 267 365 267 200.91683215714198 290.4473139325699 A 165.75 165.75 0 0 1 199.78759476728266 253.66119730933863 C 365 267 365 267 301.8623835971873 113.7462760812277 Z" stroke="none" stroke-width="0" fill="#9467bd" fill-opacity="0.45" /><path d="M 337.23719259402395 103.59164946387017 A 165.75 165.75 0 0 1 347.6744072133862 102.15799584270871 C 365 267 365 267 242.4151719889 155.43825726760525 A 165.75 165.75 0 0 1 249.75017447909445 147.8759461007105 C 365 267 365 267 337.23719259402395 103.59164946387017 Z" stroke="none" stroke-width="0" fill="#9467bd" fill-opacity="0.45" /></svg>