<svg xmlns="http://www.w3.org/2000/svg" width="679" height="541" fill="black"><rect width="100%" height="100%" fill="white" /><text x="339.5" y="21" font-size="16" text-anchor="middle">DEG Overlap — Sorted by Degree</text><line x1="173" y1="289.5" x2="173" y2="492" stroke="black" stroke-width="1" /><line x1="65" y1="492" x2="173" y2="492" stroke="black" stroke-width="1" /><rect x="65" y="302.8125" width="108" height="24" fill="#1d4ed8" /><text x="176" y="318.3125" font-size="10" text-anchor="start">40</text><rect x="78.5" y="353.4375" width="94.5" height="24" fill="#1d4ed8" /><text x="176" y="368.9375" font-size="10" text-anchor="start">35</text><rect x="97.4" y="404.0625" width="75.6" height="24" fill="#1d4ed8" /><text x="176" y="419.5625" font-size="10" text-anchor="start">28</text><rect x="102.8" y="454.6875" width="70.2" height="24" fill="#1d4ed8" /><text x="176" y="470.1875" font-size="10" text-anchor="start">26</text><text x="119" y="275.5" font-size="14" text-anchor="middle">Set size</text><text x="272" y="318.3125" font-size="10" text-anchor="end">Condition A</text><text x="272" y="368.9375" font-size="10" text-anchor="end">Condition B</text><text x="272" y="419.5625" font-size="10" text-anchor="end">Condition C</text><text x="272" y="470.1875" font-size="10" text-anchor="end">Condition D</text><line x1="277" y1="54" x2="277" y2="284.5" stroke="black" stroke-width="1" /><line x1="277" y1="284.5" x2="665" y2="284.5" stroke="black" stroke-width="1" /><line x1="273" y1="284.5" x2="277" y2="284.5" stroke="black" stroke-width="1" /><text x="270" y="288" font-size="10" text-anchor="end">0</text><line x1="273" y1="226.875" x2="277" y2="226.875" stroke="black" stroke-width="1" /><text x="270" y="230.375" font-size="10" text-anchor="end">3</text><line x1="273" y1="169.25" x2="277" y2="169.25" stroke="black" stroke-width="1" /><text x="270" y="172.75" font-size="10" text-anchor="end">6</text><line x1="273" y1="111.625" x2="277" y2="111.625" stroke="black" stroke-width="1" /><text x="270" y="115.125" font-size="10" text-anchor="end">8</text><line x1="273" y1="54" x2="277" y2="54" stroke="black" stroke-width="1" /><text x="270" y="57.5" font-size="10" text-anchor="end">11</text><text x="238" y="169.25" font-size="14" text-anchor="middle" transform="rotate(-90,238,169.25)">Intersection size</text><rect x="286.7" y="54" width="29.099999999999998" height="230.5" fill="#1d4ed8" /><text x="301.25" y="52" font-size="10" text-anchor="middle">11</text><rect x="335.2" y="74.95454545454547" width="29.099999999999998" height="209.54545454545453" fill="#1d4ed8" /><text x="349.75" y="72.95454545454547" font-size="10" text-anchor="middle">10</text><rect x="383.7" y="74.95454545454547" width="29.099999999999998" height="209.54545454545453" fill="#1d4ed8" /><text x="398.25" y="72.95454545454547" font-size="10" text-anchor="middle">10</text><rect x="432.2" y="74.95454545454547" width="29.099999999999998" height="209.54545454545453" fill="#1d4ed8" /><text x="446.75" y="72.95454545454547" font-size="10" text-anchor="middle">10</text><rect x="480.7" y="200.6818181818182" width="29.099999999999998" height="83.81818181818183" fill="#1d4ed8" /><text x="495.25" y="198.6818181818182" font-size="10" text-anchor="middle">4</text><rect x="529.2" y="221.63636363636363" width="29.099999999999998" height="62.86363636363636" fill="#1d4ed8" /><text x="543.75" y="219.63636363636363" font-size="10" text-anchor="middle">3</text><rect x="577.7" y="74.95454545454547" width="29.099999999999998" height="209.54545454545453" fill="#1d4ed8" /><text x="592.25" y="72.95454545454547" font-size="10" text-anchor="middle">10</text><rect x="626.2" y="242.5909090909091" width="29.099999999999998" height="41.909090909090914" fill="#1d4ed8" /><text x="640.75" y="240.5909090909091" font-size="10" text-anchor="middle">2</text><line x1="277" y1="289.5" x2="665" y2="289.5" stroke="#ccc" stroke-width="0.5" /><line x1="277" y1="340.125" x2="665" y2="340.125" stroke="#ccc" stroke-width="0.5" /><line x1="277" y1="390.75" x2="665" y2="390.75" stroke="#ccc" stroke-width="0.5" /><line x1="277" y1="441.375" x2="665" y2="441.375" stroke="#ccc" stroke-width="0.5" /><line x1="277" y1="492" x2="665" y2="492" stroke="#ccc" stroke-width="0.5" /><line x1="301.25" y1="365.4375" x2="301.25" y2="466.6875" stroke="#1e3a8a" stroke-width="6" /><circle cx="301.25" cy="314.8125" r="12" fill="#dddddd" /><circle cx="301.25" cy="365.4375" r="12" fill="#1e3a8a" /><circle cx="301.25" cy="416.0625" r="12" fill="#1e3a8a" /><circle cx="301.25" cy="466.6875" r="12" fill="#1e3a8a" /><line x1="349.75" y1="314.8125" x2="349.75" y2="416.0625" stroke="#1e3a8a" stroke-width="6" /><circle cx="349.75" cy="314.8125" r="12" fill="#1e3a8a" /><circle cx="349.75" cy="365.4375" r="12" fill="#1e3a8a" /><circle cx="349.75" cy="416.0625" r="12" fill="#1e3a8a" /><circle cx="349.75" cy="466.6875" r="12" fill="#dddddd" /><line x1="398.25" y1="314.8125" x2="398.25" y2="365.4375" stroke="#1e3a8a" stroke-width="6" /><circle cx="398.25" cy="314.8125" r="12" fill="#1e3a8a" /><circle cx="398.25" cy="365.4375" r="12" fill="#1e3a8a" /><circle cx="398.25" cy="416.0625" r="12" fill="#dddddd" /><circle cx="398.25" cy="466.6875" r="12" fill="#dddddd" /><line x1="446.75" y1="314.8125" x2="446.75" y2="466.6875" stroke="#1e3a8a" stroke-width="6" /><circle cx="446.75" cy="314.8125" r="12" fill="#1e3a8a" /><circle cx="446.75" cy="365.4375" r="12" fill="#dddddd" /><circle cx="446.75" cy="416.0625" r="12" fill="#dddddd" /><circle cx="446.75" cy="466.6875" r="12" fill="#1e3a8a" /><line x1="495.25" y1="365.4375" x2="495.25" y2="416.0625" stroke="#1e3a8a" stroke-width="6" /><circle cx="495.25" cy="314.8125" r="12" fill="#dddddd" /><circle cx="495.25" cy="365.4375" r="12" fill="#1e3a8a" /><circle cx="495.25" cy="416.0625" r="12" fill="#1e3a8a" /><circle cx="495.25" cy="466.6875" r="12" fill="#dddddd" /><line x1="543.75" y1="416.0625" x2="543.75" y2="466.6875" stroke="#1e3a8a" stroke-width="6" /><circle cx="543.75" cy="314.8125" r="12" fill="#dddddd" /><circle cx="543.75" cy="365.4375" r="12" fill="#dddddd" /><circle cx="543.75" cy="416.0625" r="12" fill="#1e3a8a" /><circle cx="543.75" cy="466.6875" r="12" fill="#1e3a8a" /><circle cx="592.25" cy="314.8125" r="12" fill="#1e3a8a" /><circle cx="592.25" cy="365.4375" r="12" fill="#dddddd" /><circle cx="592.25" cy="416.0625" r="12" fill="#dddddd" /><circle cx="592.25" cy="466.6875" r="12" fill="#dddddd" /><circle cx="640.75" cy="314.8125" r="12" fill="#dddddd" /><circle cx="640.75" cy="365.4375" r="12" fill="#dddddd" /><circle cx="640.75" cy="416.0625" r="12" fill="#dddddd" /><circle cx="640.75" cy="466.6875" r="12" fill="#1e3a8a" /></svg>