<svg xmlns="http://www.w3.org/2000/svg" width="679" height="541" fill="black"><rect width="100%" height="100%" fill="white" /><text x="339.5" y="21" font-size="16" text-anchor="middle">Variant Calls by Pipeline (top 5 intersections)</text><text x="124" y="326.75" font-size="10" text-anchor="end">GATK</text><text x="124" y="394.25" font-size="10" text-anchor="end">FreeBayes</text><text x="124" y="461.75" font-size="10" text-anchor="end">Strelka</text><line x1="129" y1="54" x2="129" y2="284.5" stroke="black" stroke-width="1" /><line x1="129" y1="284.5" x2="665" y2="284.5" stroke="black" stroke-width="1" /><line x1="125" y1="284.5" x2="129" y2="284.5" stroke="black" stroke-width="1" /><text x="122" y="288" font-size="10" text-anchor="end">0</text><line x1="125" y1="226.875" x2="129" y2="226.875" stroke="black" stroke-width="1" /><text x="122" y="230.375" font-size="10" text-anchor="end">30</text><line x1="125" y1="169.25" x2="129" y2="169.25" stroke="black" stroke-width="1" /><text x="122" y="172.75" font-size="10" text-anchor="end">59</text><line x1="125" y1="111.625" x2="129" y2="111.625" stroke="black" stroke-width="1" /><text x="122" y="115.125" font-size="10" text-anchor="end">89</text><line x1="125" y1="54" x2="129" y2="54" stroke="black" stroke-width="1" /><text x="122" y="57.5" font-size="10" text-anchor="end">118</text><text x="90" y="169.25" font-size="14" text-anchor="middle" transform="rotate(-90,90,169.25)">Intersection size</text><rect x="150.44" y="54" width="64.32" height="230.5" fill="#333333" /><text x="182.6" y="52" font-size="10" text-anchor="middle">118</text><rect x="257.64" y="163.38983050847457" width="64.32" height="121.11016949152544" fill="#333333" /><text x="289.8" y="161.38983050847457" font-size="10" text-anchor="middle">62</text><rect x="364.84000000000003" y="177.06355932203388" width="64.32" height="107.4364406779661" fill="#333333" /><text x="397" y="175.06355932203388" font-size="10" text-anchor="middle">55</text><rect x="472.03999999999996" y="190.73728813559322" width="64.32" height="93.76271186440678" fill="#333333" /><text x="504.2" y="188.73728813559322" font-size="10" text-anchor="middle">48</text><rect x="579.2400000000001" y="196.59745762711864" width="64.32" height="87.90254237288136" fill="#333333" /><text x="611.4000000000001" y="194.59745762711864" font-size="10" text-anchor="middle">45</text><line x1="129" y1="289.5" x2="665" y2="289.5" stroke="#ccc" stroke-width="0.5" /><line x1="129" y1="357" x2="665" y2="357" stroke="#ccc" stroke-width="0.5" /><line x1="129" y1="424.5" x2="665" y2="424.5" stroke="#ccc" stroke-width="0.5" /><line x1="129" y1="492" x2="665" y2="492" stroke="#ccc" stroke-width="0.5" /><line x1="182.6" y1="323.25" x2="182.6" y2="458.25" stroke="#333333" stroke-width="6" /><circle cx="182.6" cy="323.25" r="12" fill="#333333" /><circle cx="182.6" cy="390.75" r="12" fill="#333333" /><circle cx="182.6" cy="458.25" r="12" fill="#333333" /><line x1="289.8" y1="323.25" x2="289.8" y2="390.75" stroke="#333333" stroke-width="6" /><circle cx="289.8" cy="323.25" r="12" fill="#333333" /><circle cx="289.8" cy="390.75" r="12" fill="#333333" /><circle cx="289.8" cy="458.25" r="12" fill="#dddddd" /><line x1="397" y1="323.25" x2="397" y2="458.25" stroke="#333333" stroke-width="6" /><circle cx="397" cy="323.25" r="12" fill="#333333" /><circle cx="397" cy="390.75" r="12" fill="#dddddd" /><circle cx="397" cy="458.25" r="12" fill="#333333" /><line x1="504.2" y1="390.75" x2="504.2" y2="458.25" stroke="#333333" stroke-width="6" /><circle cx="504.2" cy="323.25" r="12" fill="#dddddd" /><circle cx="504.2" cy="390.75" r="12" fill="#333333" /><circle cx="504.2" cy="458.25" r="12" fill="#333333" /><circle cx="611.4000000000001" cy="323.25" r="12" fill="#333333" /><circle cx="611.4000000000001" cy="390.75" r="12" fill="#dddddd" /><circle cx="611.4000000000001" cy="458.25" r="12" fill="#dddddd" /></svg>