<svg xmlns="http://www.w3.org/2000/svg" width="679" height="542.4558441227157" fill="black"><rect width="100%" height="100%" fill="white" /><line x1="65" y1="492" x2="665" y2="492" stroke="black" stroke-width="1" /><line x1="65" y1="42" x2="65" y2="492" stroke="black" stroke-width="1" /><line x1="65" y1="363.42857142857144" x2="665" y2="363.42857142857144" stroke="#ccc" stroke-width="1" /><line x1="65" y1="234.8571428571429" x2="665" y2="234.8571428571429" stroke="#ccc" stroke-width="1" /><line x1="65" y1="106.28571428571433" x2="665" y2="106.28571428571433" stroke="#ccc" stroke-width="1" /><text x="89" y="507" font-size="10" text-anchor="end" transform="rotate(-45,89,507)">Nov 01</text><line x1="89" y1="492" x2="89" y2="497" stroke="black" stroke-width="1" /><text x="113" y="507" font-size="10" text-anchor="end" transform="rotate(-45,113,507)">Nov 02</text><line x1="113" y1="492" x2="113" y2="497" stroke="black" stroke-width="1" /><text x="137" y="507" font-size="10" text-anchor="end" transform="rotate(-45,137,507)">Nov 03</text><line x1="137" y1="492" x2="137" y2="497" stroke="black" stroke-width="1" /><text x="161" y="507" font-size="10" text-anchor="end" transform="rotate(-45,161,507)">Nov 04</text><line x1="161" y1="492" x2="161" y2="497" stroke="black" stroke-width="1" /><text x="185" y="507" font-size="10" text-anchor="end" transform="rotate(-45,185,507)">Nov 05</text><line x1="185" y1="492" x2="185" y2="497" stroke="black" stroke-width="1" /><text x="209" y="507" font-size="10" text-anchor="end" transform="rotate(-45,209,507)">Nov 06</text><line x1="209" y1="492" x2="209" y2="497" stroke="black" stroke-width="1" /><text x="233.00000000000003" y="507" font-size="10" text-anchor="end" transform="rotate(-45,233.00000000000003,507)">Nov 07</text><line x1="233.00000000000003" y1="492" x2="233.00000000000003" y2="497" stroke="black" stroke-width="1" /><text x="257" y="507" font-size="10" text-anchor="end" transform="rotate(-45,257,507)">Nov 08</text><line x1="257" y1="492" x2="257" y2="497" stroke="black" stroke-width="1" /><text x="281" y="507" font-size="10" text-anchor="end" transform="rotate(-45,281,507)">Nov 11</text><line x1="281" y1="492" x2="281" y2="497" stroke="black" stroke-width="1" /><text x="305" y="507" font-size="10" text-anchor="end" transform="rotate(-45,305,507)">Nov 12</text><line x1="305" y1="492" x2="305" y2="497" stroke="black" stroke-width="1" /><text x="329" y="507" font-size="10" text-anchor="end" transform="rotate(-45,329,507)">Nov 13</text><line x1="329" y1="492" x2="329" y2="497" stroke="black" stroke-width="1" /><text x="353" y="507" font-size="10" text-anchor="end" transform="rotate(-45,353,507)">Nov 14</text><line x1="353" y1="492" x2="353" y2="497" stroke="black" stroke-width="1" /><text x="377" y="507" font-size="10" text-anchor="end" transform="rotate(-45,377,507)">Nov 15</text><line x1="377" y1="492" x2="377" y2="497" stroke="black" stroke-width="1" /><text x="401.00000000000006" y="507" font-size="10" text-anchor="end" transform="rotate(-45,401.00000000000006,507)">Nov 18</text><line x1="401.00000000000006" y1="492" x2="401.00000000000006" y2="497" stroke="black" stroke-width="1" /><text x="425" y="507" font-size="10" text-anchor="end" transform="rotate(-45,425,507)">Nov 19</text><line x1="425" y1="492" x2="425" y2="497" stroke="black" stroke-width="1" /><text x="449" y="507" font-size="10" text-anchor="end" transform="rotate(-45,449,507)">Nov 20</text><line x1="449" y1="492" x2="449" y2="497" stroke="black" stroke-width="1" /><text x="473.00000000000006" y="507" font-size="10" text-anchor="end" transform="rotate(-45,473.00000000000006,507)">Nov 21</text><line x1="473.00000000000006" y1="492" x2="473.00000000000006" y2="497" stroke="black" stroke-width="1" /><text x="497" y="507" font-size="10" text-anchor="end" transform="rotate(-45,497,507)">Nov 22</text><line x1="497" y1="492" x2="497" y2="497" stroke="black" stroke-width="1" /><text x="521" y="507" font-size="10" text-anchor="end" transform="rotate(-45,521,507)">Nov 25</text><line x1="521" y1="492" x2="521" y2="497" stroke="black" stroke-width="1" /><text x="545" y="507" font-size="10" text-anchor="end" transform="rotate(-45,545,507)">Nov 26</text><line x1="545" y1="492" x2="545" y2="497" stroke="black" stroke-width="1" /><line x1="60" y1="492" x2="65" y2="492" stroke="black" stroke-width="1" /><text x="57" y="495.5" font-size="10" text-anchor="end">0</text><line x1="60" y1="363.42857142857144" x2="65" y2="363.42857142857144" stroke="black" stroke-width="1" /><text x="57" y="366.92857142857144" font-size="10" text-anchor="end">50</text><line x1="60" y1="234.8571428571429" x2="65" y2="234.8571428571429" stroke="black" stroke-width="1" /><text x="57" y="238.3571428571429" font-size="10" text-anchor="end">100</text><line x1="60" y1="106.28571428571433" x2="65" y2="106.28571428571433" stroke="black" stroke-width="1" /><text x="57" y="109.78571428571433" font-size="10" text-anchor="end">150</text><text x="339.5" y="535.4558441227157" font-size="14" text-anchor="middle">Date</text><text x="14" y="271.22792206135784" font-size="14" text-anchor="middle" transform="rotate(-90,14,271.22792206135784)">Price (USD)</text><text x="339.5" y="21" font-size="16" text-anchor="middle">Daily OHLC — November</text><line x1="89" y1="116.05714285714289" x2="89" y2="127.37142857142854" stroke="rgb(68,170,68)" stroke-width="1.5" /><rect x="80.6" y="118.37142857142854" width="16.799999999999997" height="7.200000000000031" fill="rgb(68,170,68)" stroke="rgb(68,170,68)" stroke-width="0.5" /><line x1="113" y1="111.94285714285711" x2="113" y2="123" stroke="rgb(204,68,68)" stroke-width="1.5" /><rect x="104.6" y="118.1142857142857" width="16.799999999999997" height="3.34285714285717" fill="rgb(204,68,68)" stroke="rgb(204,68,68)" stroke-width="0.5" /><line x1="137" y1="119.39999999999998" x2="137" y2="126.34285714285717" stroke="#888888" stroke-width="1.5" /><rect x="128.6" y="121.45714285714287" width="16.799999999999997" height="1" fill="#888888" stroke="#888888" stroke-width="0.5" /><line x1="161" y1="110.14285714285715" x2="161" y2="123.7714285714286" stroke="rgb(68,170,68)" stroke-width="1.5" /><rect x="152.6" y="111.68571428571427" width="16.799999999999997" height="10.54285714285713" fill="rgb(68,170,68)" stroke="rgb(68,170,68)" stroke-width="0.5" /><line x1="185" y1="105.7714285714286" x2="185" y2="115.79999999999997" stroke="rgb(68,170,68)" stroke-width="1.5" /><rect x="176.6" y="106.79999999999997" width="16.799999999999997" height="4.8857142857143" fill="rgb(68,170,68)" stroke="rgb(68,170,68)" stroke-width="0.5" /><line x1="209" y1="103.71428571428572" x2="209" y2="115.28571428571429" stroke="rgb(204,68,68)" stroke-width="1.5" /><rect x="200.6" y="106.79999999999997" width="16.799999999999997" height="6.68571428571434" fill="rgb(204,68,68)" stroke="rgb(204,68,68)" stroke-width="0.5" /><line x1="233.00000000000003" y1="111.17142857142859" x2="233.00000000000003" y2="122.2285714285714" stroke="rgb(204,68,68)" stroke-width="1.5" /><rect x="224.60000000000002" y="113.48571428571431" width="16.799999999999997" height="6.942857142857122" fill="rgb(204,68,68)" stroke="rgb(204,68,68)" stroke-width="0.5" /><line x1="257" y1="114.51428571428569" x2="257" y2="123.7714285714286" stroke="rgb(68,170,68)" stroke-width="1.5" /><rect x="248.6" y="116.82857142857142" width="16.799999999999997" height="3.6000000000000085" fill="rgb(68,170,68)" stroke="rgb(68,170,68)" stroke-width="0.5" /><line x1="281" y1="108.08571428571426" x2="281" y2="117.85714285714286" stroke="rgb(68,170,68)" stroke-width="1.5" /><rect x="272.6" y="109.62857142857146" width="16.799999999999997" height="7.19999999999996" fill="rgb(68,170,68)" stroke="rgb(68,170,68)" stroke-width="0.5" /><line x1="305" y1="101.14285714285714" x2="305" y2="111.17142857142859" stroke="rgb(68,170,68)" stroke-width="1.5" /><rect x="296.6" y="102.42857142857143" width="16.799999999999997" height="7.200000000000031" fill="rgb(68,170,68)" stroke="rgb(68,170,68)" stroke-width="0.5" /><line x1="329" y1="93.94285714285712" x2="329" y2="103.97142857142856" stroke="rgb(68,170,68)" stroke-width="1.5" /><rect x="320.6" y="96.51428571428568" width="16.799999999999997" height="5.914285714285754" fill="rgb(68,170,68)" stroke="rgb(68,170,68)" stroke-width="0.5" /><line x1="353" y1="95.48571428571432" x2="353" y2="105.51428571428568" stroke="rgb(204,68,68)" stroke-width="1.5" /><rect x="344.6" y="96.51428571428568" width="16.799999999999997" height="8.228571428571485" fill="rgb(204,68,68)" stroke="rgb(204,68,68)" stroke-width="0.5" /><line x1="377" y1="100.8857142857143" x2="377" y2="109.37142857142855" stroke="rgb(68,170,68)" stroke-width="1.5" /><rect x="368.6" y="103.20000000000003" width="16.799999999999997" height="1.5428571428571303" fill="rgb(68,170,68)" stroke="rgb(68,170,68)" stroke-width="0.5" /><line x1="401.00000000000006" y1="97.54285714285713" x2="401.00000000000006" y2="104.2285714285714" stroke="rgb(68,170,68)" stroke-width="1.5" /><rect x="392.6000000000001" y="97.54285714285713" width="16.799999999999997" height="5.657142857142901" fill="rgb(68,170,68)" stroke="rgb(68,170,68)" stroke-width="0.5" /><line x1="425" y1="87.7714285714286" x2="425" y2="99.08571428571426" stroke="rgb(68,170,68)" stroke-width="1.5" /><rect x="416.6" y="89.57142857142858" width="16.799999999999997" height="7.971428571428547" fill="rgb(68,170,68)" stroke="rgb(68,170,68)" stroke-width="0.5" /><line x1="449" y1="85.45714285714287" x2="449" y2="95.48571428571432" stroke="rgb(204,68,68)" stroke-width="1.5" /><rect x="440.6" y="89.57142857142858" width="16.799999999999997" height="4.371428571428538" fill="rgb(204,68,68)" stroke="rgb(204,68,68)" stroke-width="0.5" /><line x1="473.00000000000006" y1="92.91428571428574" x2="473.00000000000006" y2="100.8857142857143" stroke="#888888" stroke-width="1.5" /><rect x="464.6000000000001" y="93.94285714285712" width="16.799999999999997" height="1" fill="#888888" stroke="#888888" stroke-width="0.5" /><line x1="497" y1="84.42857142857143" x2="497" y2="95.2285714285714" stroke="rgb(68,170,68)" stroke-width="1.5" /><rect x="488.6" y="85.97142857142856" width="16.799999999999997" height="7.971428571428561" fill="rgb(68,170,68)" stroke="rgb(68,170,68)" stroke-width="0.5" /><line x1="521" y1="80.31428571428573" x2="521" y2="88.79999999999998" stroke="rgb(68,170,68)" stroke-width="1.5" /><rect x="512.6" y="81.85714285714286" width="16.799999999999997" height="4.1142857142857" fill="rgb(68,170,68)" stroke="rgb(68,170,68)" stroke-width="0.5" /><line x1="545" y1="77.48571428571432" x2="545" y2="87.51428571428568" stroke="rgb(204,68,68)" stroke-width="1.5" /><rect x="536.6" y="81.85714285714286" width="16.799999999999997" height="2.828571428571408" fill="rgb(204,68,68)" stroke="rgb(204,68,68)" stroke-width="0.5" /></svg>