<svg xmlns="http://www.w3.org/2000/svg" width="679" height="541" fill="black"><rect width="100%" height="100%" fill="white" /><line x1="65" y1="492" x2="665" y2="492" stroke="black" stroke-width="1" /><line x1="65" y1="42" x2="65" y2="492" stroke="black" stroke-width="1" /><line x1="150.71428571428572" y1="42" x2="150.71428571428572" y2="492" stroke="#ccc" stroke-width="1" /><line x1="236.42857142857142" y1="42" x2="236.42857142857142" y2="492" stroke="#ccc" stroke-width="1" /><line x1="322.1428571428571" y1="42" x2="322.1428571428571" y2="492" stroke="#ccc" stroke-width="1" /><line x1="407.85714285714283" y1="42" x2="407.85714285714283" y2="492" stroke="#ccc" stroke-width="1" /><line x1="493.57142857142856" y1="42" x2="493.57142857142856" y2="492" stroke="#ccc" stroke-width="1" /><line x1="579.2857142857142" y1="42" x2="579.2857142857142" y2="492" stroke="#ccc" stroke-width="1" /><line x1="665" y1="42" x2="665" y2="492" stroke="#ccc" stroke-width="1" /><line x1="65" y1="417" x2="665" y2="417" stroke="#ccc" stroke-width="1" /><line x1="65" y1="342" x2="665" y2="342" stroke="#ccc" stroke-width="1" /><line x1="65" y1="267" x2="665" y2="267" stroke="#ccc" stroke-width="1" /><line x1="65" y1="192" x2="665" y2="192" stroke="#ccc" stroke-width="1" /><line x1="65" y1="117" x2="665" y2="117" stroke="#ccc" stroke-width="1" /><line x1="65" y1="42" x2="665" y2="42" stroke="#ccc" stroke-width="1" /><line x1="65" y1="492" x2="65" y2="497" stroke="black" stroke-width="1" /><text x="65" y="507" font-size="10" text-anchor="middle">2021.5</text><line x1="150.71428571428572" y1="492" x2="150.71428571428572" y2="497" stroke="black" stroke-width="1" /><text x="150.71428571428572" y="507" font-size="10" text-anchor="middle">2022</text><line x1="236.42857142857142" y1="492" x2="236.42857142857142" y2="497" stroke="black" stroke-width="1" /><text x="236.42857142857142" y="507" font-size="10" text-anchor="middle">2022.5</text><line x1="322.1428571428571" y1="492" x2="322.1428571428571" y2="497" stroke="black" stroke-width="1" /><text x="322.1428571428571" y="507" font-size="10" text-anchor="middle">2023</text><line x1="407.85714285714283" y1="492" x2="407.85714285714283" y2="497" stroke="black" stroke-width="1" /><text x="407.85714285714283" y="507" font-size="10" text-anchor="middle">2023.5</text><line x1="493.57142857142856" y1="492" x2="493.57142857142856" y2="497" stroke="black" stroke-width="1" /><text x="493.57142857142856" y="507" font-size="10" text-anchor="middle">2024</text><line x1="579.2857142857142" y1="492" x2="579.2857142857142" y2="497" stroke="black" stroke-width="1" /><text x="579.2857142857142" y="507" font-size="10" text-anchor="middle">2024.5</text><line x1="665" y1="492" x2="665" y2="497" stroke="black" stroke-width="1" /><text x="665" y="507" font-size="10" text-anchor="middle">2025</text><line x1="60" y1="492" x2="65" y2="492" stroke="black" stroke-width="1" /><text x="57" y="495.5" font-size="10" text-anchor="end">0</text><line x1="60" y1="417" x2="65" y2="417" stroke="black" stroke-width="1" /><text x="57" y="420.5" font-size="10" text-anchor="end">25</text><line x1="60" y1="342" x2="65" y2="342" stroke="black" stroke-width="1" /><text x="57" y="345.5" font-size="10" text-anchor="end">50</text><line x1="60" y1="267" x2="65" y2="267" stroke="black" stroke-width="1" /><text x="57" y="270.5" font-size="10" text-anchor="end">75</text><line x1="60" y1="192" x2="65" y2="192" stroke="black" stroke-width="1" /><text x="57" y="195.5" font-size="10" text-anchor="end">100</text><line x1="60" y1="117" x2="65" y2="117" stroke="black" stroke-width="1" /><text x="57" y="120.5" font-size="10" text-anchor="end">125</text><line x1="60" y1="42" x2="65" y2="42" stroke="black" stroke-width="1" /><text x="57" y="45.5" font-size="10" text-anchor="end">150</text><text x="339.5" y="534" font-size="14" text-anchor="middle">Quarter</text><text x="14" y="270.5" font-size="14" text-anchor="middle" transform="rotate(-90,14,270.5)">Price</text><text x="339.5" y="21" font-size="16" text-anchor="middle">Quarterly OHLC — Numeric x-axis</text><line x1="150.71428571428572" y1="168" x2="150.71428571428572" y2="207" stroke="rgb(68,170,68)" stroke-width="1.5" /><rect x="147.5" y="177" width="6.428571428571429" height="21" fill="rgb(68,170,68)" stroke="rgb(68,170,68)" stroke-width="0.5" /><line x1="193.57142857142856" y1="156" x2="193.57142857142856" y2="189" stroke="rgb(68,170,68)" stroke-width="1.5" /><rect x="190.35714285714283" y="166.5" width="6.428571428571429" height="10.5" fill="rgb(68,170,68)" stroke="rgb(68,170,68)" stroke-width="0.5" /><line x1="236.42857142857142" y1="147" x2="236.42857142857142" y2="171" stroke="rgb(68,170,68)" stroke-width="1.5" /><rect x="233.2142857142857" y="153" width="6.428571428571429" height="13.5" fill="rgb(68,170,68)" stroke="rgb(68,170,68)" stroke-width="0.5" /><line x1="279.2857142857143" y1="144" x2="279.2857142857143" y2="165" stroke="rgb(204,68,68)" stroke-width="1.5" /><rect x="276.07142857142856" y="153" width="6.428571428571429" height="7.5" fill="rgb(204,68,68)" stroke="rgb(204,68,68)" stroke-width="0.5" /><line x1="322.1428571428571" y1="138" x2="322.1428571428571" y2="162" stroke="rgb(68,170,68)" stroke-width="1.5" /><rect x="318.9285714285714" y="141.60000000000002" width="6.428571428571429" height="18.899999999999977" fill="rgb(68,170,68)" stroke="rgb(68,170,68)" stroke-width="0.5" /><line x1="365" y1="126" x2="365" y2="145.5" stroke="rgb(68,170,68)" stroke-width="1.5" /><rect x="361.7857142857143" y="129" width="6.428571428571429" height="12.600000000000023" fill="rgb(68,170,68)" stroke="rgb(68,170,68)" stroke-width="0.5" /><line x1="407.85714285714283" y1="115.5" x2="407.85714285714283" y2="135" stroke="rgb(204,68,68)" stroke-width="1.5" /><rect x="404.6428571428571" y="129" width="6.428571428571429" height="2.3999999999999773" fill="rgb(204,68,68)" stroke="rgb(204,68,68)" stroke-width="0.5" /><line x1="450.7142857142857" y1="108" x2="450.7142857142857" y2="132.60000000000002" stroke="rgb(68,170,68)" stroke-width="1.5" /><rect x="447.5" y="111" width="6.428571428571429" height="20.399999999999977" fill="rgb(68,170,68)" stroke="rgb(68,170,68)" stroke-width="0.5" /><line x1="493.57142857142856" y1="87" x2="493.57142857142856" y2="114" stroke="rgb(68,170,68)" stroke-width="1.5" /><rect x="490.35714285714283" y="91.5" width="6.428571428571429" height="19.5" fill="rgb(68,170,68)" stroke="rgb(68,170,68)" stroke-width="0.5" /><line x1="536.4285714285714" y1="78" x2="536.4285714285714" y2="99" stroke="rgb(68,170,68)" stroke-width="1.5" /><rect x="533.2142857142858" y="90" width="6.428571428571429" height="1.5" fill="rgb(68,170,68)" stroke="rgb(68,170,68)" stroke-width="0.5" /><line x1="579.2857142857142" y1="69" x2="579.2857142857142" y2="91.5" stroke="rgb(68,170,68)" stroke-width="1.5" /><rect x="576.0714285714286" y="72" width="6.428571428571429" height="18" fill="rgb(68,170,68)" stroke="rgb(68,170,68)" stroke-width="0.5" /><line x1="622.1428571428571" y1="58.5" x2="622.1428571428571" y2="81" stroke="rgb(68,170,68)" stroke-width="1.5" /><rect x="618.9285714285714" y="63.599999999999966" width="6.428571428571429" height="8.400000000000034" fill="rgb(68,170,68)" stroke="rgb(68,170,68)" stroke-width="0.5" /></svg>