<svg xmlns="http://www.w3.org/2000/svg" width="679" height="541" fill="black"><rect width="100%" height="100%" fill="white" /><line x1="65" y1="492" x2="665" y2="492" stroke="black" stroke-width="1" /><line x1="65" y1="42" x2="65" y2="492" stroke="black" stroke-width="1" /><line x1="65" y1="402" x2="665" y2="402" stroke="#ccc" stroke-width="1" /><line x1="65" y1="312" x2="665" y2="312" stroke="#ccc" stroke-width="1" /><line x1="65" y1="222" x2="665" y2="222" stroke="#ccc" stroke-width="1" /><line x1="65" y1="132" x2="665" y2="132" stroke="#ccc" stroke-width="1" /><line x1="65" y1="42" x2="665" y2="42" stroke="#ccc" stroke-width="1" /><text x="115" y="507" font-size="10" text-anchor="middle">Mon</text><line x1="115" y1="492" x2="115" y2="497" stroke="black" stroke-width="1" /><text x="165" y="507" font-size="10" text-anchor="middle">Tue</text><line x1="165" y1="492" x2="165" y2="497" stroke="black" stroke-width="1" /><text x="215" y="507" font-size="10" text-anchor="middle">Wed</text><line x1="215" y1="492" x2="215" y2="497" stroke="black" stroke-width="1" /><text x="265" y="507" font-size="10" text-anchor="middle">Thu</text><line x1="265" y1="492" x2="265" y2="497" stroke="black" stroke-width="1" /><text x="315" y="507" font-size="10" text-anchor="middle">Fri</text><line x1="315" y1="492" x2="315" y2="497" stroke="black" stroke-width="1" /><text x="365" y="507" font-size="10" text-anchor="middle">Mon</text><line x1="365" y1="492" x2="365" y2="497" stroke="black" stroke-width="1" /><text x="415" y="507" font-size="10" text-anchor="middle">Tue</text><line x1="415" y1="492" x2="415" y2="497" stroke="black" stroke-width="1" /><text x="465" y="507" font-size="10" text-anchor="middle">Wed</text><line x1="465" y1="492" x2="465" y2="497" stroke="black" stroke-width="1" /><text x="515" y="507" font-size="10" text-anchor="middle">Thu</text><line x1="515" y1="492" x2="515" y2="497" stroke="black" stroke-width="1" /><text x="565" y="507" font-size="10" text-anchor="middle">Fri</text><line x1="565" y1="492" x2="565" y2="497" stroke="black" stroke-width="1" /><line x1="60" y1="492" x2="65" y2="492" stroke="black" stroke-width="1" /><text x="57" y="495.5" font-size="10" text-anchor="end">0</text><line x1="60" y1="402" x2="65" y2="402" stroke="black" stroke-width="1" /><text x="57" y="405.5" font-size="10" text-anchor="end">25</text><line x1="60" y1="312" x2="65" y2="312" stroke="black" stroke-width="1" /><text x="57" y="315.5" font-size="10" text-anchor="end">50</text><line x1="60" y1="222" x2="65" y2="222" stroke="black" stroke-width="1" /><text x="57" y="225.5" font-size="10" text-anchor="end">75</text><line x1="60" y1="132" x2="65" y2="132" stroke="black" stroke-width="1" /><text x="57" y="135.5" font-size="10" text-anchor="end">100</text><line x1="60" y1="42" x2="65" y2="42" stroke="black" stroke-width="1" /><text x="57" y="45.5" font-size="10" text-anchor="end">125</text><text x="339.5" y="534" font-size="14" text-anchor="middle">Day</text><text x="14" y="270.5" font-size="14" text-anchor="middle" transform="rotate(-90,14,270.5)">Price</text><text x="339.5" y="21" font-size="16" text-anchor="middle">Custom Colors</text><line x1="115" y1="111.12" x2="115" y2="134.88" stroke="#00c896" stroke-width="1.5" /><rect x="97.5" y="115.8" width="35" height="16.200000000000003" fill="#00c896" stroke="#00c896" stroke-width="0.5" /><line x1="165" y1="109.67999999999999" x2="165" y2="120.84000000000002" stroke="#ff4560" stroke-width="1.5" /><rect x="147.5" y="115.8" width="35" height="3.9599999999999795" fill="#ff4560" stroke="#ff4560" stroke-width="0.5" /><line x1="215" y1="105" x2="215" y2="121.92000000000002" stroke="#00c896" stroke-width="1.5" /><rect x="197.5" y="107.15999999999998" width="35" height="12.599999999999994" fill="#00c896" stroke="#00c896" stroke-width="0.5" /><line x1="265" y1="99.24000000000001" x2="265" y2="109.32000000000001" stroke="#00c896" stroke-width="1.5" /><rect x="247.5" y="101.04000000000002" width="35" height="6.119999999999962" fill="#00c896" stroke="#00c896" stroke-width="0.5" /><line x1="315" y1="99.6" x2="315" y2="111.47999999999999" stroke="#aaaaaa" stroke-width="1.5" /><rect x="297.5" y="101.04000000000002" width="35" height="1" fill="#aaaaaa" stroke="#aaaaaa" stroke-width="0.5" /><line x1="365" y1="87.72000000000001" x2="365" y2="102.84000000000002" stroke="#00c896" stroke-width="1.5" /><rect x="347.5" y="90.6" width="35" height="10.440000000000026" fill="#00c896" stroke="#00c896" stroke-width="0.5" /><line x1="415" y1="82.32000000000002" x2="415" y2="96.35999999999999" stroke="#ff4560" stroke-width="1.5" /><rect x="397.5" y="90.6" width="35" height="4.679999999999993" fill="#ff4560" stroke="#ff4560" stroke-width="0.5" /><line x1="465" y1="92.4" x2="465" y2="105.35999999999999" stroke="#ff4560" stroke-width="1.5" /><rect x="447.5" y="95.27999999999999" width="35" height="5.0400000000000205" fill="#ff4560" stroke="#ff4560" stroke-width="0.5" /><line x1="515" y1="83.4" x2="515" y2="101.4" stroke="#00c896" stroke-width="1.5" /><rect x="497.5" y="86.27999999999999" width="35" height="14.04000000000002" fill="#00c896" stroke="#00c896" stroke-width="0.5" /><line x1="565" y1="77.28" x2="565" y2="89.52000000000001" stroke="#00c896" stroke-width="1.5" /><rect x="547.5" y="78.35999999999999" width="35" height="7.920000000000002" fill="#00c896" stroke="#00c896" stroke-width="0.5" /></svg>