<svg xmlns="http://www.w3.org/2000/svg" width="679" height="542.4558441227157" fill="black"><rect width="100%" height="100%" fill="white" /><line x1="65" y1="492" x2="665" y2="492" stroke="black" stroke-width="1" /><line x1="65" y1="42" x2="65" y2="492" stroke="black" stroke-width="1" /><line x1="65" y1="363.42857142857144" x2="665" y2="363.42857142857144" stroke="#ccc" stroke-width="1" /><line x1="65" y1="234.8571428571429" x2="665" y2="234.8571428571429" stroke="#ccc" stroke-width="1" /><line x1="65" y1="106.28571428571433" x2="665" y2="106.28571428571433" stroke="#ccc" stroke-width="1" /><text x="89" y="507" font-size="10" text-anchor="end" transform="rotate(-45,89,507)">Nov 01</text><line x1="89" y1="492" x2="89" y2="497" stroke="black" stroke-width="1" /><text x="113" y="507" font-size="10" text-anchor="end" transform="rotate(-45,113,507)">Nov 02</text><line x1="113" y1="492" x2="113" y2="497" stroke="black" stroke-width="1" /><text x="137" y="507" font-size="10" text-anchor="end" transform="rotate(-45,137,507)">Nov 03</text><line x1="137" y1="492" x2="137" y2="497" stroke="black" stroke-width="1" /><text x="161" y="507" font-size="10" text-anchor="end" transform="rotate(-45,161,507)">Nov 04</text><line x1="161" y1="492" x2="161" y2="497" stroke="black" stroke-width="1" /><text x="185" y="507" font-size="10" text-anchor="end" transform="rotate(-45,185,507)">Nov 05</text><line x1="185" y1="492" x2="185" y2="497" stroke="black" stroke-width="1" /><text x="209" y="507" font-size="10" text-anchor="end" transform="rotate(-45,209,507)">Nov 06</text><line x1="209" y1="492" x2="209" y2="497" stroke="black" stroke-width="1" /><text x="233.00000000000003" y="507" font-size="10" text-anchor="end" transform="rotate(-45,233.00000000000003,507)">Nov 07</text><line x1="233.00000000000003" y1="492" x2="233.00000000000003" y2="497" stroke="black" stroke-width="1" /><text x="257" y="507" font-size="10" text-anchor="end" transform="rotate(-45,257,507)">Nov 08</text><line x1="257" y1="492" x2="257" y2="497" stroke="black" stroke-width="1" /><text x="281" y="507" font-size="10" text-anchor="end" transform="rotate(-45,281,507)">Nov 11</text><line x1="281" y1="492" x2="281" y2="497" stroke="black" stroke-width="1" /><text x="305" y="507" font-size="10" text-anchor="end" transform="rotate(-45,305,507)">Nov 12</text><line x1="305" y1="492" x2="305" y2="497" stroke="black" stroke-width="1" /><text x="329" y="507" font-size="10" text-anchor="end" transform="rotate(-45,329,507)">Nov 13</text><line x1="329" y1="492" x2="329" y2="497" stroke="black" stroke-width="1" /><text x="353" y="507" font-size="10" text-anchor="end" transform="rotate(-45,353,507)">Nov 14</text><line x1="353" y1="492" x2="353" y2="497" stroke="black" stroke-width="1" /><text x="377" y="507" font-size="10" text-anchor="end" transform="rotate(-45,377,507)">Nov 15</text><line x1="377" y1="492" x2="377" y2="497" stroke="black" stroke-width="1" /><text x="401.00000000000006" y="507" font-size="10" text-anchor="end" transform="rotate(-45,401.00000000000006,507)">Nov 18</text><line x1="401.00000000000006" y1="492" x2="401.00000000000006" y2="497" stroke="black" stroke-width="1" /><text x="425" y="507" font-size="10" text-anchor="end" transform="rotate(-45,425,507)">Nov 19</text><line x1="425" y1="492" x2="425" y2="497" stroke="black" stroke-width="1" /><text x="449" y="507" font-size="10" text-anchor="end" transform="rotate(-45,449,507)">Nov 20</text><line x1="449" y1="492" x2="449" y2="497" stroke="black" stroke-width="1" /><text x="473.00000000000006" y="507" font-size="10" text-anchor="end" transform="rotate(-45,473.00000000000006,507)">Nov 21</text><line x1="473.00000000000006" y1="492" x2="473.00000000000006" y2="497" stroke="black" stroke-width="1" /><text x="497" y="507" font-size="10" text-anchor="end" transform="rotate(-45,497,507)">Nov 22</text><line x1="497" y1="492" x2="497" y2="497" stroke="black" stroke-width="1" /><text x="521" y="507" font-size="10" text-anchor="end" transform="rotate(-45,521,507)">Nov 25</text><line x1="521" y1="492" x2="521" y2="497" stroke="black" stroke-width="1" /><text x="545" y="507" font-size="10" text-anchor="end" transform="rotate(-45,545,507)">Nov 26</text><line x1="545" y1="492" x2="545" y2="497" stroke="black" stroke-width="1" /><line x1="60" y1="492" x2="65" y2="492" stroke="black" stroke-width="1" /><text x="57" y="495.5" font-size="10" text-anchor="end">0</text><line x1="60" y1="363.42857142857144" x2="65" y2="363.42857142857144" stroke="black" stroke-width="1" /><text x="57" y="366.92857142857144" font-size="10" text-anchor="end">50</text><line x1="60" y1="234.8571428571429" x2="65" y2="234.8571428571429" stroke="black" stroke-width="1" /><text x="57" y="238.3571428571429" font-size="10" text-anchor="end">100</text><line x1="60" y1="106.28571428571433" x2="65" y2="106.28571428571433" stroke="black" stroke-width="1" /><text x="57" y="109.78571428571433" font-size="10" text-anchor="end">150</text><text x="339.5" y="535.4558441227157" font-size="14" text-anchor="middle">Date</text><text x="14" y="271.22792206135784" font-size="14" text-anchor="middle" transform="rotate(-90,14,271.22792206135784)">Price (USD)</text><text x="339.5" y="21" font-size="16" text-anchor="middle">Daily OHLC with Volume Panel</text><line x1="89" y1="99.10628571428575" x2="89" y2="107.83085714285711" stroke="rgb(68,170,68)" stroke-width="1.5" /><rect x="80.6" y="100.89085714285713" width="16.799999999999997" height="5.552000000000021" fill="rgb(68,170,68)" stroke="rgb(68,170,68)" stroke-width="0.5" /><line x1="113" y1="95.93371428571426" x2="113" y2="104.46000000000001" stroke="rgb(204,68,68)" stroke-width="1.5" /><rect x="104.6" y="100.69257142857143" width="16.799999999999997" height="2.5777142857143076" fill="rgb(204,68,68)" stroke="rgb(204,68,68)" stroke-width="0.5" /><line x1="137" y1="101.68399999999998" x2="137" y2="107.03771428571432" stroke="#888888" stroke-width="1.5" /><rect x="128.6" y="103.27028571428573" width="16.799999999999997" height="1" fill="#888888" stroke="#888888" stroke-width="0.5" /><line x1="161" y1="94.5457142857143" x2="161" y2="105.05485714285717" stroke="rgb(68,170,68)" stroke-width="1.5" /><rect x="152.6" y="95.73542857142857" width="16.799999999999997" height="8.129714285714272" fill="rgb(68,170,68)" stroke="rgb(68,170,68)" stroke-width="0.5" /><line x1="185" y1="91.17485714285718" x2="185" y2="98.90799999999997" stroke="rgb(68,170,68)" stroke-width="1.5" /><rect x="176.6" y="91.96799999999998" width="16.799999999999997" height="3.7674285714285958" fill="rgb(68,170,68)" stroke="rgb(68,170,68)" stroke-width="0.5" /><line x1="209" y1="89.58857142857144" x2="209" y2="98.51142857142858" stroke="rgb(204,68,68)" stroke-width="1.5" /><rect x="200.6" y="91.96799999999998" width="16.799999999999997" height="5.155428571428615" fill="rgb(204,68,68)" stroke="rgb(204,68,68)" stroke-width="0.5" /><line x1="233.00000000000003" y1="95.33885714285715" x2="233.00000000000003" y2="103.86514285714284" stroke="rgb(204,68,68)" stroke-width="1.5" /><rect x="224.60000000000002" y="97.12342857142859" width="16.799999999999997" height="5.353714285714275" fill="rgb(204,68,68)" stroke="rgb(204,68,68)" stroke-width="0.5" /><line x1="257" y1="97.91657142857142" x2="257" y2="105.05485714285717" stroke="rgb(68,170,68)" stroke-width="1.5" /><rect x="248.6" y="99.70114285714286" width="16.799999999999997" height="2.7760000000000105" fill="rgb(68,170,68)" stroke="rgb(68,170,68)" stroke-width="0.5" /><line x1="281" y1="92.95942857142856" x2="281" y2="100.49428571428571" stroke="rgb(68,170,68)" stroke-width="1.5" /><rect x="272.6" y="94.14914285714289" width="16.799999999999997" height="5.551999999999964" fill="rgb(68,170,68)" stroke="rgb(68,170,68)" stroke-width="0.5" /><line x1="305" y1="87.60571428571428" x2="305" y2="95.33885714285715" stroke="rgb(68,170,68)" stroke-width="1.5" /><rect x="296.6" y="88.59714285714286" width="16.799999999999997" height="5.552000000000035" fill="rgb(68,170,68)" stroke="rgb(68,170,68)" stroke-width="0.5" /><line x1="329" y1="82.05371428571426" x2="329" y2="89.78685714285713" stroke="rgb(68,170,68)" stroke-width="1.5" /><rect x="320.6" y="84.0365714285714" width="16.799999999999997" height="4.56057142857145" fill="rgb(68,170,68)" stroke="rgb(68,170,68)" stroke-width="0.5" /><line x1="353" y1="83.2434285714286" x2="353" y2="90.9765714285714" stroke="rgb(204,68,68)" stroke-width="1.5" /><rect x="344.6" y="84.0365714285714" width="16.799999999999997" height="6.345142857142889" fill="rgb(204,68,68)" stroke="rgb(204,68,68)" stroke-width="0.5" /><line x1="377" y1="87.40742857142858" x2="377" y2="93.95085714285713" stroke="rgb(68,170,68)" stroke-width="1.5" /><rect x="368.6" y="89.19200000000002" width="16.799999999999997" height="1.189714285714274" fill="rgb(68,170,68)" stroke="rgb(68,170,68)" stroke-width="0.5" /><line x1="401.00000000000006" y1="84.82971428571427" x2="401.00000000000006" y2="89.98514285714285" stroke="rgb(68,170,68)" stroke-width="1.5" /><rect x="392.6000000000001" y="84.82971428571427" width="16.799999999999997" height="4.362285714285747" fill="rgb(68,170,68)" stroke="rgb(68,170,68)" stroke-width="0.5" /><line x1="425" y1="77.29485714285717" x2="425" y2="86.01942857142853" stroke="rgb(68,170,68)" stroke-width="1.5" /><rect x="416.6" y="78.68285714285715" width="16.799999999999997" height="6.1468571428571295" fill="rgb(68,170,68)" stroke="rgb(68,170,68)" stroke-width="0.5" /><line x1="449" y1="75.51028571428571" x2="449" y2="83.2434285714286" stroke="rgb(204,68,68)" stroke-width="1.5" /><rect x="440.6" y="78.68285714285715" width="16.799999999999997" height="3.370857142857119" fill="rgb(204,68,68)" stroke="rgb(204,68,68)" stroke-width="0.5" /><line x1="473.00000000000006" y1="81.26057142857145" x2="473.00000000000006" y2="87.40742857142858" stroke="#888888" stroke-width="1.5" /><rect x="464.6000000000001" y="82.05371428571426" width="16.799999999999997" height="1" fill="#888888" stroke="#888888" stroke-width="0.5" /><line x1="497" y1="74.71714285714286" x2="497" y2="83.04514285714284" stroke="rgb(68,170,68)" stroke-width="1.5" /><rect x="488.6" y="75.90685714285713" width="16.799999999999997" height="6.1468571428571295" fill="rgb(68,170,68)" stroke="rgb(68,170,68)" stroke-width="0.5" /><line x1="521" y1="71.54457142857143" x2="521" y2="78.08799999999998" stroke="rgb(68,170,68)" stroke-width="1.5" /><rect x="512.6" y="72.7342857142857" width="16.799999999999997" height="3.1725714285714304" fill="rgb(68,170,68)" stroke="rgb(68,170,68)" stroke-width="0.5" /><line x1="545" y1="69.36342857142859" x2="545" y2="77.09657142857141" stroke="rgb(204,68,68)" stroke-width="1.5" /><rect x="536.6" y="72.7342857142857" width="16.799999999999997" height="2.181142857142845" fill="rgb(204,68,68)" stroke="rgb(204,68,68)" stroke-width="0.5" /><rect x="80.6" y="432.26190476190476" width="16.799999999999997" height="57.73809523809524" fill="rgb(68,170,68)" fill-opacity="0.5" /><rect x="104.6" y="444.73333333333335" width="16.799999999999997" height="45.266666666666666" fill="rgb(204,68,68)" fill-opacity="0.5" /><rect x="128.6" y="456.74285714285713" width="16.799999999999997" height="33.25714285714286" fill="#888888" fill-opacity="0.5" /><rect x="152.6" y="417.0190476190476" width="16.799999999999997" height="72.98095238095237" fill="rgb(68,170,68)" fill-opacity="0.5" /><rect x="176.6" y="424.4095238095238" width="16.799999999999997" height="65.5904761904762" fill="rgb(68,170,68)" fill-opacity="0.5" /><rect x="200.6" y="439.1904761904762" width="16.799999999999997" height="50.80952380952381" fill="rgb(204,68,68)" fill-opacity="0.5" /><rect x="224.60000000000002" y="427.6428571428571" width="16.799999999999997" height="62.35714285714286" fill="rgb(204,68,68)" fill-opacity="0.5" /><rect x="248.6" y="448.8904761904762" width="16.799999999999997" height="41.10952380952381" fill="rgb(68,170,68)" fill-opacity="0.5" /><rect x="272.6" y="435.4952380952381" width="16.799999999999997" height="54.50476190476191" fill="rgb(68,170,68)" fill-opacity="0.5" /><rect x="296.6" y="415.1714285714286" width="16.799999999999997" height="74.82857142857144" fill="rgb(68,170,68)" fill-opacity="0.5" /><rect x="320.6" y="407.7809523809524" width="16.799999999999997" height="82.21904761904761" fill="rgb(68,170,68)" fill-opacity="0.5" /><rect x="344.6" y="430.4142857142857" width="16.799999999999997" height="59.58571428571429" fill="rgb(204,68,68)" fill-opacity="0.5" /><rect x="368.6" y="441.5" width="16.799999999999997" height="48.5" fill="rgb(68,170,68)" fill-opacity="0.5" /><rect x="392.6000000000001" y="428.1047619047619" width="16.799999999999997" height="61.89523809523809" fill="rgb(68,170,68)" fill-opacity="0.5" /><rect x="416.6" y="393" width="16.799999999999997" height="97" fill="rgb(68,170,68)" fill-opacity="0.5" /><rect x="440.6" y="413.7857142857143" width="16.799999999999997" height="76.21428571428571" fill="rgb(204,68,68)" fill-opacity="0.5" /><rect x="464.6000000000001" y="444.73333333333335" width="16.799999999999997" height="45.266666666666666" fill="#888888" fill-opacity="0.5" /><rect x="488.6" y="424.4095238095238" width="16.799999999999997" height="65.5904761904762" fill="rgb(68,170,68)" fill-opacity="0.5" /><rect x="512.6" y="402.7" width="16.799999999999997" height="87.3" fill="rgb(68,170,68)" fill-opacity="0.5" /><rect x="536.6" y="417.9428571428571" width="16.799999999999997" height="72.05714285714286" fill="rgb(204,68,68)" fill-opacity="0.5" /></svg>