<svg xmlns="http://www.w3.org/2000/svg" width="679" height="541" fill="black"><rect width="100%" height="100%" fill="white" /><line x1="65" y1="492" x2="665" y2="492" stroke="black" stroke-width="1" /><line x1="65" y1="42" x2="65" y2="492" stroke="black" stroke-width="1" /><line x1="65" y1="417" x2="665" y2="417" stroke="#ccc" stroke-width="1" /><line x1="65" y1="342" x2="665" y2="342" stroke="#ccc" stroke-width="1" /><line x1="65" y1="267" x2="665" y2="267" stroke="#ccc" stroke-width="1" /><line x1="65" y1="192" x2="665" y2="192" stroke="#ccc" stroke-width="1" /><line x1="65" y1="117" x2="665" y2="117" stroke="#ccc" stroke-width="1" /><line x1="65" y1="42" x2="665" y2="42" stroke="#ccc" stroke-width="1" /><text x="165" y="507" font-size="10" text-anchor="middle">Apples</text><line x1="165" y1="492" x2="165" y2="497" stroke="black" stroke-width="1" /><text x="265" y="507" font-size="10" text-anchor="middle">Bananas</text><line x1="265" y1="492" x2="265" y2="497" stroke="black" stroke-width="1" /><text x="365" y="507" font-size="10" text-anchor="middle">Cherries</text><line x1="365" y1="492" x2="365" y2="497" stroke="black" stroke-width="1" /><text x="465" y="507" font-size="10" text-anchor="middle">Dates</text><line x1="465" y1="492" x2="465" y2="497" stroke="black" stroke-width="1" /><text x="565" y="507" font-size="10" text-anchor="middle">Elderberry</text><line x1="565" y1="492" x2="565" y2="497" stroke="black" stroke-width="1" /><line x1="60" y1="492" x2="65" y2="492" stroke="black" stroke-width="1" /><text x="57" y="495.5" font-size="10" text-anchor="end">0</text><line x1="60" y1="417" x2="65" y2="417" stroke="black" stroke-width="1" /><text x="57" y="420.5" font-size="10" text-anchor="end">10</text><line x1="60" y1="342" x2="65" y2="342" stroke="black" stroke-width="1" /><text x="57" y="345.5" font-size="10" text-anchor="end">20</text><line x1="60" y1="267" x2="65" y2="267" stroke="black" stroke-width="1" /><text x="57" y="270.5" font-size="10" text-anchor="end">30</text><line x1="60" y1="192" x2="65" y2="192" stroke="black" stroke-width="1" /><text x="57" y="195.5" font-size="10" text-anchor="end">40</text><line x1="60" y1="117" x2="65" y2="117" stroke="black" stroke-width="1" /><text x="57" y="120.5" font-size="10" text-anchor="end">50</text><line x1="60" y1="42" x2="65" y2="42" stroke="black" stroke-width="1" /><text x="57" y="45.5" font-size="10" text-anchor="end">60</text><text x="14" y="270.5" font-size="14" text-anchor="middle" transform="rotate(-90,14,270.5)">Count</text><text x="339.5" y="21" font-size="16" text-anchor="middle">Bar Chart</text><rect x="125" y="177" width="79.99999999999997" height="315" fill="steelblue" /><rect x="225" y="57" width="80" height="435" fill="steelblue" /><rect x="325" y="259.5" width="80" height="232.5" fill="steelblue" /><rect x="425" y="139.5" width="80.00000000000006" height="352.5" fill="steelblue" /><rect x="525" y="304.5" width="80" height="187.5" fill="steelblue" /></svg>