<svg xmlns="http://www.w3.org/2000/svg" width="777" height="541" fill="black"><rect width="100%" height="100%" fill="white" /><line x1="65" y1="492" x2="665" y2="492" stroke="black" stroke-width="1" /><line x1="65" y1="42" x2="65" y2="492" stroke="black" stroke-width="1" /><line x1="65" y1="417" x2="665" y2="417" stroke="#ccc" stroke-width="1" /><line x1="65" y1="342" x2="665" y2="342" stroke="#ccc" stroke-width="1" /><line x1="65" y1="267" x2="665" y2="267" stroke="#ccc" stroke-width="1" /><line x1="65" y1="192" x2="665" y2="192" stroke="#ccc" stroke-width="1" /><line x1="65" y1="117" x2="665" y2="117" stroke="#ccc" stroke-width="1" /><line x1="65" y1="42" x2="665" y2="42" stroke="#ccc" stroke-width="1" /><text x="185" y="507" font-size="10" text-anchor="middle">Q1</text><line x1="185" y1="492" x2="185" y2="497" stroke="black" stroke-width="1" /><text x="305" y="507" font-size="10" text-anchor="middle">Q2</text><line x1="305" y1="492" x2="305" y2="497" stroke="black" stroke-width="1" /><text x="425" y="507" font-size="10" text-anchor="middle">Q3</text><line x1="425" y1="492" x2="425" y2="497" stroke="black" stroke-width="1" /><text x="545" y="507" font-size="10" text-anchor="middle">Q4</text><line x1="545" y1="492" x2="545" y2="497" stroke="black" stroke-width="1" /><line x1="60" y1="492" x2="65" y2="492" stroke="black" stroke-width="1" /><text x="57" y="495.5" font-size="10" text-anchor="end">0</text><line x1="60" y1="417" x2="65" y2="417" stroke="black" stroke-width="1" /><text x="57" y="420.5" font-size="10" text-anchor="end">5</text><line x1="60" y1="342" x2="65" y2="342" stroke="black" stroke-width="1" /><text x="57" y="345.5" font-size="10" text-anchor="end">10</text><line x1="60" y1="267" x2="65" y2="267" stroke="black" stroke-width="1" /><text x="57" y="270.5" font-size="10" text-anchor="end">15</text><line x1="60" y1="192" x2="65" y2="192" stroke="black" stroke-width="1" /><text x="57" y="195.5" font-size="10" text-anchor="end">20</text><line x1="60" y1="117" x2="65" y2="117" stroke="black" stroke-width="1" /><text x="57" y="120.5" font-size="10" text-anchor="end">25</text><line x1="60" y1="42" x2="65" y2="42" stroke="black" stroke-width="1" /><text x="57" y="45.5" font-size="10" text-anchor="end">30</text><text x="14" y="270.5" font-size="14" text-anchor="middle" transform="rotate(-90,14,270.5)">Sales (units)</text><text x="388.5" y="21" font-size="16" text-anchor="middle">Grouped Bar Chart</text><rect x="137" y="222" width="32" height="270" fill="steelblue" /><rect x="169" y="312" width="32" height="180" fill="crimson" /><rect x="201" y="357" width="31.99999999999997" height="135" fill="seagreen" /><rect x="257" y="162" width="32" height="330" fill="steelblue" /><rect x="289" y="237" width="32" height="255" fill="crimson" /><rect x="321" y="282" width="32" height="210" fill="seagreen" /><rect x="377" y="207" width="32" height="285" fill="steelblue" /><rect x="409" y="177" width="32" height="315" fill="crimson" /><rect x="441" y="327" width="31.999999999999943" height="165" fill="seagreen" /><rect x="497" y="117" width="32" height="375" fill="steelblue" /><rect x="529" y="267" width="32" height="225" fill="crimson" /><rect x="561" y="222" width="32.000000000000114" height="270" fill="seagreen" /><rect x="670" y="32" width="98" height="74" fill="white" /><rect x="670" y="32" width="98" height="74" fill="none" stroke="black" stroke-width="1" /><text x="700" y="47" font-size="12" text-anchor="start">Product A</text><rect x="680" y="41" width="12" height="12" fill="steelblue" /><text x="700" y="65" font-size="12" text-anchor="start">Product B</text><rect x="680" y="59" width="12" height="12" fill="crimson" /><text x="700" y="83" font-size="12" text-anchor="start">Product C</text><rect x="680" y="77" width="12" height="12" fill="seagreen" /></svg>