<svg xmlns="http://www.w3.org/2000/svg" width="679" height="541" fill="black"><rect width="100%" height="100%" fill="white" /><line x1="65" y1="492" x2="665" y2="492" stroke="black" stroke-width="1" /><line x1="65" y1="42" x2="65" y2="492" stroke="black" stroke-width="1" /><line x1="215" y1="42" x2="215" y2="492" stroke="#ccc" stroke-width="1" /><line x1="365" y1="42" x2="365" y2="492" stroke="#ccc" stroke-width="1" /><line x1="515" y1="42" x2="515" y2="492" stroke="#ccc" stroke-width="1" /><line x1="665" y1="42" x2="665" y2="492" stroke="#ccc" stroke-width="1" /><line x1="65" y1="379.5" x2="665" y2="379.5" stroke="#ccc" stroke-width="1" /><line x1="65" y1="267" x2="665" y2="267" stroke="#ccc" stroke-width="1" /><line x1="65" y1="154.5" x2="665" y2="154.5" stroke="#ccc" stroke-width="1" /><line x1="65" y1="42" x2="665" y2="42" stroke="#ccc" stroke-width="1" /><line x1="65" y1="492" x2="65" y2="497" stroke="black" stroke-width="1" /><text x="65" y="507" font-size="10" text-anchor="middle">-4</text><line x1="215" y1="492" x2="215" y2="497" stroke="black" stroke-width="1" /><text x="215" y="507" font-size="10" text-anchor="middle">-2</text><line x1="365" y1="492" x2="365" y2="497" stroke="black" stroke-width="1" /><text x="365" y="507" font-size="10" text-anchor="middle">0</text><line x1="515" y1="492" x2="515" y2="497" stroke="black" stroke-width="1" /><text x="515" y="507" font-size="10" text-anchor="middle">2</text><line x1="665" y1="492" x2="665" y2="497" stroke="black" stroke-width="1" /><text x="665" y="507" font-size="10" text-anchor="middle">4</text><line x1="60" y1="492" x2="65" y2="492" stroke="black" stroke-width="1" /><text x="57" y="495.5" font-size="10" text-anchor="end">-4</text><line x1="60" y1="379.5" x2="65" y2="379.5" stroke="black" stroke-width="1" /><text x="57" y="383" font-size="10" text-anchor="end">-2</text><line x1="60" y1="267" x2="65" y2="267" stroke="black" stroke-width="1" /><text x="57" y="270.5" font-size="10" text-anchor="end">0</text><line x1="60" y1="154.5" x2="65" y2="154.5" stroke="black" stroke-width="1" /><text x="57" y="158" font-size="10" text-anchor="end">2</text><line x1="60" y1="42" x2="65" y2="42" stroke="black" stroke-width="1" /><text x="57" y="45.5" font-size="10" text-anchor="end">4</text><text x="339.5" y="534" font-size="14" text-anchor="middle">x</text><text x="14" y="270.5" font-size="14" text-anchor="middle" transform="rotate(-90,14,270.5)">y</text><text x="339.5" y="21" font-size="16" text-anchor="middle">Explicit Iso-levels: 0.1, 0.25, 0.5, 0.75, 0.9</text><path d="M326.97 384.27 L330.68 384.98 M330.68 384.98 L338.31 386.14 M338.31 386.14 L345.93 386.98 M345.93 386.98 L353.56 387.53 M353.56 387.53 L361.19 387.79 M361.19 387.79 L368.81 387.79 M368.81 387.79 L376.44 387.53 M376.44 387.53 L384.07 386.98 M384.07 386.98 L391.69 386.14 M391.69 386.14 L399.32 384.98 M399.32 384.98 L403.03 384.27 M303.53 378.55 L307.80 379.91 M307.80 379.91 L315.42 381.95 M315.42 381.95 L323.05 383.59 M326.97 384.27 L323.05 383.59 M403.03 384.27 L406.95 383.59 M406.95 383.59 L414.58 381.95 M414.58 381.95 L422.20 379.91 M422.20 379.91 L426.47 378.55 M287.57 372.83 L292.54 374.88 M292.54 374.88 L300.17 377.55 M303.53 378.55 L300.17 377.55 M426.47 378.55 L429.83 377.55 M429.83 377.55 L437.46 374.88 M437.46 374.88 L442.43 372.83 M275.03 367.11 L277.29 368.27 M277.29 368.27 L284.92 371.76 M287.57 372.83 L284.92 371.76 M442.43 372.83 L445.08 371.76 M445.08 371.76 L452.71 368.27 M452.71 368.27 L454.97 367.11 M264.62 361.39 L269.66 364.34 M275.03 367.11 L269.66 364.34 M454.97 367.11 L460.34 364.34 M460.34 364.34 L465.38 361.39 M255.74 355.67 L262.03 359.84 M264.62 361.39 L262.03 359.84 M465.38 361.39 L467.97 359.84 M467.97 359.84 L474.26 355.67 M248.02 349.94 L254.41 354.74 M255.74 355.67 L254.41 354.74 M474.26 355.67 L475.59 354.74 M475.59 354.74 L481.98 349.94 M241.22 344.22 L246.78 348.94 M248.02 349.94 L246.78 348.94 M481.98 349.94 L483.22 348.94 M483.22 348.94 L488.78 344.22 M235.22 338.50 L239.15 342.29 M241.22 344.22 L239.15 342.29 M488.78 344.22 L490.85 342.29 M490.85 342.29 L494.78 338.50 M229.98 332.78 L231.53 334.48 M235.22 338.50 L231.53 334.48 M494.78 338.50 L498.47 334.48 M498.47 334.48 L500.02 332.78 M229.98 332.78 L225.31 327.06 M500.02 332.78 L504.69 327.06 M221.16 321.34 L223.90 325.07 M225.31 327.06 L223.90 325.07 M504.69 327.06 L506.10 325.07 M506.10 325.07 L508.84 321.34 M221.16 321.34 L217.60 315.62 M508.84 321.34 L512.40 315.62 M214.46 309.90 L216.27 313.11 M217.60 315.62 L216.27 313.11 M512.40 315.62 L513.73 313.11 M513.73 313.11 L515.54 309.90 M214.46 309.90 L211.73 304.18 M515.54 309.90 L518.27 304.18 M211.73 304.18 L209.55 298.46 M518.27 304.18 L520.45 298.46 M207.69 292.74 L208.64 295.52 M209.55 298.46 L208.64 295.52 M520.45 298.46 L521.36 295.52 M521.36 295.52 L522.31 292.74 M207.69 292.74 L206.14 287.02 M522.31 292.74 L523.86 287.02 M206.14 287.02 L205.03 281.30 M523.86 287.02 L524.97 281.30 M205.03 281.30 L204.30 275.58 M524.97 281.30 L525.70 275.58 M204.30 275.58 L203.94 269.86 M525.70 275.58 L526.06 269.86 M203.94 269.86 L203.94 264.14 M526.06 269.86 L526.06 264.14 M203.94 264.14 L204.30 258.42 M526.06 264.14 L525.70 258.42 M204.30 258.42 L205.03 252.70 M525.70 258.42 L524.97 252.70 M205.03 252.70 L206.14 246.98 M524.97 252.70 L523.86 246.98 M206.14 246.98 L207.69 241.26 M523.86 246.98 L522.31 241.26 M207.69 241.26 L208.64 238.48 M208.64 238.48 L209.55 235.54 M521.36 238.48 L520.45 235.54 M522.31 241.26 L521.36 238.48 M209.55 235.54 L211.73 229.82 M520.45 235.54 L518.27 229.82 M211.73 229.82 L214.46 224.10 M518.27 229.82 L515.54 224.10 M214.46 224.10 L216.27 220.89 M216.27 220.89 L217.60 218.38 M513.73 220.89 L512.40 218.38 M515.54 224.10 L513.73 220.89 M217.60 218.38 L221.16 212.66 M512.40 218.38 L508.84 212.66 M221.16 212.66 L223.90 208.93 M223.90 208.93 L225.31 206.94 M506.10 208.93 L504.69 206.94 M508.84 212.66 L506.10 208.93 M225.31 206.94 L229.98 201.22 M504.69 206.94 L500.02 201.22 M229.98 201.22 L231.53 199.52 M231.53 199.52 L235.22 195.50 M498.47 199.52 L494.78 195.50 M500.02 201.22 L498.47 199.52 M235.22 195.50 L239.15 191.71 M239.15 191.71 L241.22 189.78 M490.85 191.71 L488.78 189.78 M494.78 195.50 L490.85 191.71 M241.22 189.78 L246.78 185.06 M246.78 185.06 L248.02 184.06 M483.22 185.06 L481.98 184.06 M488.78 189.78 L483.22 185.06 M248.02 184.06 L254.41 179.26 M254.41 179.26 L255.74 178.33 M475.59 179.26 L474.26 178.33 M481.98 184.06 L475.59 179.26 M255.74 178.33 L262.03 174.16 M262.03 174.16 L264.62 172.61 M467.97 174.16 L465.38 172.61 M474.26 178.33 L467.97 174.16 M264.62 172.61 L269.66 169.66 M269.66 169.66 L275.03 166.89 M460.34 169.66 L454.97 166.89 M465.38 172.61 L460.34 169.66 M275.03 166.89 L277.29 165.73 M277.29 165.73 L284.92 162.24 M284.92 162.24 L287.57 161.17 M445.08 162.24 L442.43 161.17 M445.08 162.24 L452.71 165.73 M454.97 166.89 L452.71 165.73 M287.57 161.17 L292.54 159.12 M292.54 159.12 L300.17 156.45 M300.17 156.45 L303.53 155.45 M429.83 156.45 L426.47 155.45 M429.83 156.45 L437.46 159.12 M442.43 161.17 L437.46 159.12 M303.53 155.45 L307.80 154.09 M307.80 154.09 L315.42 152.05 M315.42 152.05 L323.05 150.41 M323.05 150.41 L326.97 149.73 M406.95 150.41 L403.03 149.73 M406.95 150.41 L414.58 152.05 M414.58 152.05 L422.20 154.09 M426.47 155.45 L422.20 154.09 M326.97 149.73 L330.68 149.02 M330.68 149.02 L338.31 147.86 M338.31 147.86 L345.93 147.02 M345.93 147.02 L353.56 146.47 M353.56 146.47 L361.19 146.21 M361.19 146.21 L368.81 146.21 M368.81 146.21 L376.44 146.47 M376.44 146.47 L384.07 147.02 M384.07 147.02 L391.69 147.86 M391.69 147.86 L399.32 149.02 M403.03 149.73 L399.32 149.02 " stroke="darkgreen" stroke-width="1.5" fill="none" /><path d="M324.85 355.67 L330.68 357.11 M330.68 357.11 L338.31 358.57 M338.31 358.57 L345.93 359.63 M345.93 359.63 L353.56 360.31 M353.56 360.31 L361.19 360.65 M361.19 360.65 L368.81 360.65 M368.81 360.65 L376.44 360.31 M376.44 360.31 L384.07 359.63 M384.07 359.63 L391.69 358.57 M391.69 358.57 L399.32 357.11 M399.32 357.11 L405.15 355.67 M307.01 349.94 L307.80 350.27 M307.80 350.27 L315.42 353.03 M315.42 353.03 L323.05 355.24 M324.85 355.67 L323.05 355.24 M405.15 355.67 L406.95 355.24 M406.95 355.24 L414.58 353.03 M414.58 353.03 L422.20 350.27 M422.20 350.27 L422.99 349.94 M294.34 344.22 L300.17 347.11 M307.01 349.94 L300.17 347.11 M422.99 349.94 L429.83 347.11 M429.83 347.11 L435.66 344.22 M284.33 338.50 L284.92 338.88 M284.92 338.88 L292.54 343.31 M294.34 344.22 L292.54 343.31 M435.66 344.22 L437.46 343.31 M437.46 343.31 L445.08 338.88 M445.08 338.88 L445.67 338.50 M276.08 332.78 L277.29 333.69 M284.33 338.50 L277.29 333.69 M445.67 338.50 L452.71 333.69 M452.71 333.69 L453.92 332.78 M269.16 327.06 L269.66 327.50 M276.08 332.78 L269.66 327.50 M453.92 332.78 L460.34 327.50 M460.34 327.50 L460.84 327.06 M269.16 327.06 L263.26 321.34 M460.84 327.06 L466.74 321.34 M258.19 315.62 L262.03 319.99 M263.26 321.34 L262.03 319.99 M466.74 321.34 L467.97 319.99 M467.97 319.99 L471.81 315.62 M253.97 309.90 L254.41 310.49 M258.19 315.62 L254.41 310.49 M471.81 315.62 L475.59 310.49 M475.59 310.49 L476.03 309.90 M253.97 309.90 L250.29 304.18 M476.03 309.90 L479.71 304.18 M250.29 304.18 L247.35 298.46 M479.71 304.18 L482.65 298.46 M244.85 292.74 L246.78 297.11 M247.35 298.46 L246.78 297.11 M482.65 298.46 L483.22 297.11 M483.22 297.11 L485.15 292.74 M244.85 292.74 L242.91 287.02 M485.15 292.74 L487.09 287.02 M242.91 287.02 L241.50 281.30 M487.09 287.02 L488.50 281.30 M241.50 281.30 L240.58 275.58 M488.50 281.30 L489.42 275.58 M240.58 275.58 L240.13 269.86 M489.42 275.58 L489.87 269.86 M240.13 269.86 L240.13 264.14 M489.87 269.86 L489.87 264.14 M240.13 264.14 L240.58 258.42 M489.87 264.14 L489.42 258.42 M240.58 258.42 L241.50 252.70 M489.42 258.42 L488.50 252.70 M241.50 252.70 L242.91 246.98 M488.50 252.70 L487.09 246.98 M242.91 246.98 L244.85 241.26 M487.09 246.98 L485.15 241.26 M244.85 241.26 L246.78 236.89 M246.78 236.89 L247.35 235.54 M483.22 236.89 L482.65 235.54 M485.15 241.26 L483.22 236.89 M247.35 235.54 L250.29 229.82 M482.65 235.54 L479.71 229.82 M250.29 229.82 L253.97 224.10 M479.71 229.82 L476.03 224.10 M253.97 224.10 L254.41 223.51 M254.41 223.51 L258.19 218.38 M475.59 223.51 L471.81 218.38 M476.03 224.10 L475.59 223.51 M258.19 218.38 L262.03 214.01 M262.03 214.01 L263.26 212.66 M467.97 214.01 L466.74 212.66 M471.81 218.38 L467.97 214.01 M263.26 212.66 L269.16 206.94 M466.74 212.66 L460.84 206.94 M269.16 206.94 L269.66 206.50 M269.66 206.50 L276.08 201.22 M460.34 206.50 L453.92 201.22 M460.84 206.94 L460.34 206.50 M276.08 201.22 L277.29 200.31 M277.29 200.31 L284.33 195.50 M452.71 200.31 L445.67 195.50 M453.92 201.22 L452.71 200.31 M284.33 195.50 L284.92 195.12 M284.92 195.12 L292.54 190.69 M292.54 190.69 L294.34 189.78 M437.46 190.69 L435.66 189.78 M437.46 190.69 L445.08 195.12 M445.67 195.50 L445.08 195.12 M294.34 189.78 L300.17 186.89 M300.17 186.89 L307.01 184.06 M429.83 186.89 L422.99 184.06 M435.66 189.78 L429.83 186.89 M307.01 184.06 L307.80 183.73 M307.80 183.73 L315.42 180.97 M315.42 180.97 L323.05 178.76 M323.05 178.76 L324.85 178.33 M406.95 178.76 L405.15 178.33 M406.95 178.76 L414.58 180.97 M414.58 180.97 L422.20 183.73 M422.99 184.06 L422.20 183.73 M324.85 178.33 L330.68 176.89 M330.68 176.89 L338.31 175.43 M338.31 175.43 L345.93 174.37 M345.93 174.37 L353.56 173.69 M353.56 173.69 L361.19 173.35 M361.19 173.35 L368.81 173.35 M368.81 173.35 L376.44 173.69 M376.44 173.69 L384.07 174.37 M384.07 174.37 L391.69 175.43 M391.69 175.43 L399.32 176.89 M405.15 178.33 L399.32 176.89 " stroke="darkgreen" stroke-width="1.5" fill="none" /><path d="M355.28 332.78 L361.19 333.17 M361.19 333.17 L368.81 333.17 M368.81 333.17 L374.72 332.78 M327.93 327.06 L330.68 328.03 M330.68 328.03 L338.31 330.15 M338.31 330.15 L345.93 331.68 M345.93 331.68 L353.56 332.67 M355.28 332.78 L353.56 332.67 M374.72 332.78 L376.44 332.67 M376.44 332.67 L384.07 331.68 M384.07 331.68 L391.69 330.15 M391.69 330.15 L399.32 328.03 M399.32 328.03 L402.07 327.06 M314.55 321.34 L315.42 321.81 M315.42 321.81 L323.05 325.28 M327.93 327.06 L323.05 325.28 M402.07 327.06 L406.95 325.28 M406.95 325.28 L414.58 321.81 M414.58 321.81 L415.45 321.34 M305.08 315.62 L307.80 317.44 M314.55 321.34 L307.80 317.44 M415.45 321.34 L422.20 317.44 M422.20 317.44 L424.92 315.62 M297.74 309.90 L300.17 311.94 M305.08 315.62 L300.17 311.94 M424.92 315.62 L429.83 311.94 M429.83 311.94 L432.26 309.90 M291.92 304.18 L292.54 304.83 M297.74 309.90 L292.54 304.83 M432.26 309.90 L437.46 304.83 M437.46 304.83 L438.08 304.18 M291.92 304.18 L287.29 298.46 M438.08 304.18 L442.71 298.46 M283.63 292.74 L284.92 294.80 M287.29 298.46 L284.92 294.80 M442.71 298.46 L445.08 294.80 M445.08 294.80 L446.37 292.74 M283.63 292.74 L280.80 287.02 M446.37 292.74 L449.20 287.02 M280.80 287.02 L278.76 281.30 M449.20 287.02 L451.24 281.30 M278.76 281.30 L277.44 275.58 M451.24 281.30 L452.56 275.58 M276.77 269.86 L277.29 274.29 M277.44 275.58 L277.29 274.29 M452.56 275.58 L452.71 274.29 M452.71 274.29 L453.23 269.86 M276.77 269.86 L276.77 264.14 M453.23 269.86 L453.23 264.14 M276.77 264.14 L277.29 259.71 M277.29 259.71 L277.44 258.42 M452.71 259.71 L452.56 258.42 M453.23 264.14 L452.71 259.71 M277.44 258.42 L278.76 252.70 M452.56 258.42 L451.24 252.70 M278.76 252.70 L280.80 246.98 M451.24 252.70 L449.20 246.98 M280.80 246.98 L283.63 241.26 M449.20 246.98 L446.37 241.26 M283.63 241.26 L284.92 239.20 M284.92 239.20 L287.29 235.54 M445.08 239.20 L442.71 235.54 M446.37 241.26 L445.08 239.20 M287.29 235.54 L291.92 229.82 M442.71 235.54 L438.08 229.82 M291.92 229.82 L292.54 229.17 M292.54 229.17 L297.74 224.10 M437.46 229.17 L432.26 224.10 M438.08 229.82 L437.46 229.17 M297.74 224.10 L300.17 222.06 M300.17 222.06 L305.08 218.38 M429.83 222.06 L424.92 218.38 M432.26 224.10 L429.83 222.06 M305.08 218.38 L307.80 216.56 M307.80 216.56 L314.55 212.66 M422.20 216.56 L415.45 212.66 M424.92 218.38 L422.20 216.56 M314.55 212.66 L315.42 212.19 M315.42 212.19 L323.05 208.72 M323.05 208.72 L327.93 206.94 M406.95 208.72 L402.07 206.94 M406.95 208.72 L414.58 212.19 M415.45 212.66 L414.58 212.19 M327.93 206.94 L330.68 205.97 M330.68 205.97 L338.31 203.85 M338.31 203.85 L345.93 202.32 M345.93 202.32 L353.56 201.33 M353.56 201.33 L355.28 201.22 M376.44 201.33 L374.72 201.22 M376.44 201.33 L384.07 202.32 M384.07 202.32 L391.69 203.85 M391.69 203.85 L399.32 205.97 M402.07 206.94 L399.32 205.97 M355.28 201.22 L361.19 200.83 M361.19 200.83 L368.81 200.83 M374.72 201.22 L368.81 200.83 " stroke="darkgreen" stroke-width="1.5" fill="none" /><path d="M337.20 304.18 L338.31 304.66 M338.31 304.66 L345.93 307.15 M345.93 307.15 L353.56 308.77 M353.56 308.77 L361.19 309.56 M361.19 309.56 L368.81 309.56 M368.81 309.56 L376.44 308.77 M376.44 308.77 L384.07 307.15 M384.07 307.15 L391.69 304.66 M391.69 304.66 L392.80 304.18 M326.71 298.46 L330.68 300.95 M337.20 304.18 L330.68 300.95 M392.80 304.18 L399.32 300.95 M399.32 300.95 L403.29 298.46 M319.73 292.74 L323.05 295.72 M326.71 298.46 L323.05 295.72 M403.29 298.46 L406.95 295.72 M406.95 295.72 L410.27 292.74 M314.78 287.02 L315.42 287.85 M319.73 292.74 L315.42 287.85 M410.27 292.74 L414.58 287.85 M414.58 287.85 L415.22 287.02 M314.78 287.02 L311.47 281.30 M415.22 287.02 L418.53 281.30 M311.47 281.30 L309.31 275.58 M418.53 281.30 L420.69 275.58 M309.31 275.58 L308.25 269.86 M420.69 275.58 L421.75 269.86 M308.25 269.86 L308.25 264.14 M421.75 269.86 L421.75 264.14 M308.25 264.14 L309.31 258.42 M421.75 264.14 L420.69 258.42 M309.31 258.42 L311.47 252.70 M420.69 258.42 L418.53 252.70 M311.47 252.70 L314.78 246.98 M418.53 252.70 L415.22 246.98 M314.78 246.98 L315.42 246.15 M315.42 246.15 L319.73 241.26 M414.58 246.15 L410.27 241.26 M415.22 246.98 L414.58 246.15 M319.73 241.26 L323.05 238.28 M323.05 238.28 L326.71 235.54 M406.95 238.28 L403.29 235.54 M410.27 241.26 L406.95 238.28 M326.71 235.54 L330.68 233.05 M330.68 233.05 L337.20 229.82 M399.32 233.05 L392.80 229.82 M403.29 235.54 L399.32 233.05 M337.20 229.82 L338.31 229.34 M338.31 229.34 L345.93 226.85 M345.93 226.85 L353.56 225.23 M353.56 225.23 L361.19 224.44 M361.19 224.44 L368.81 224.44 M368.81 224.44 L376.44 225.23 M376.44 225.23 L384.07 226.85 M384.07 226.85 L391.69 229.34 M392.80 229.82 L391.69 229.34 " stroke="darkgreen" stroke-width="1.5" fill="none" /><path d="M343.52 287.02 L345.93 288.38 M345.93 288.38 L353.56 291.25 M353.56 291.25 L361.19 292.65 M361.19 292.65 L368.81 292.65 M368.81 292.65 L376.44 291.25 M376.44 291.25 L384.07 288.38 M384.07 288.38 L386.48 287.02 M336.49 281.30 L338.31 283.11 M343.52 287.02 L338.31 283.11 M386.48 287.02 L391.69 283.11 M391.69 283.11 L393.51 281.30 M336.49 281.30 L332.67 275.58 M393.51 281.30 L397.33 275.58 M332.67 275.58 L330.79 269.86 M397.33 275.58 L399.21 269.86 M330.79 269.86 L330.79 264.14 M399.21 269.86 L399.21 264.14 M330.79 264.14 L332.67 258.42 M399.21 264.14 L397.33 258.42 M332.67 258.42 L336.49 252.70 M397.33 258.42 L393.51 252.70 M336.49 252.70 L338.31 250.89 M338.31 250.89 L343.52 246.98 M391.69 250.89 L386.48 246.98 M393.51 252.70 L391.69 250.89 M343.52 246.98 L345.93 245.62 M345.93 245.62 L353.56 242.75 M353.56 242.75 L361.19 241.35 M361.19 241.35 L368.81 241.35 M368.81 241.35 L376.44 242.75 M376.44 242.75 L384.07 245.62 M386.48 246.98 L384.07 245.62 " stroke="darkgreen" stroke-width="1.5" fill="none" /></svg>