<svg xmlns="http://www.w3.org/2000/svg" width="679" height="541" fill="black"><rect width="100%" height="100%" fill="white" /><line x1="65" y1="492" x2="665" y2="492" stroke="black" stroke-width="1" /><line x1="65" y1="42" x2="65" y2="492" stroke="black" stroke-width="1" /><line x1="215" y1="42" x2="215" y2="492" stroke="#ccc" stroke-width="1" /><line x1="365" y1="42" x2="365" y2="492" stroke="#ccc" stroke-width="1" /><line x1="515" y1="42" x2="515" y2="492" stroke="#ccc" stroke-width="1" /><line x1="665" y1="42" x2="665" y2="492" stroke="#ccc" stroke-width="1" /><line x1="65" y1="379.5" x2="665" y2="379.5" stroke="#ccc" stroke-width="1" /><line x1="65" y1="267" x2="665" y2="267" stroke="#ccc" stroke-width="1" /><line x1="65" y1="154.5" x2="665" y2="154.5" stroke="#ccc" stroke-width="1" /><line x1="65" y1="42" x2="665" y2="42" stroke="#ccc" stroke-width="1" /><line x1="65" y1="492" x2="65" y2="497" stroke="black" stroke-width="1" /><text x="65" y="507" font-size="10" text-anchor="middle">-4</text><line x1="215" y1="492" x2="215" y2="497" stroke="black" stroke-width="1" /><text x="215" y="507" font-size="10" text-anchor="middle">-2</text><line x1="365" y1="492" x2="365" y2="497" stroke="black" stroke-width="1" /><text x="365" y="507" font-size="10" text-anchor="middle">0</text><line x1="515" y1="492" x2="515" y2="497" stroke="black" stroke-width="1" /><text x="515" y="507" font-size="10" text-anchor="middle">2</text><line x1="665" y1="492" x2="665" y2="497" stroke="black" stroke-width="1" /><text x="665" y="507" font-size="10" text-anchor="middle">4</text><line x1="60" y1="492" x2="65" y2="492" stroke="black" stroke-width="1" /><text x="57" y="495.5" font-size="10" text-anchor="end">-4</text><line x1="60" y1="379.5" x2="65" y2="379.5" stroke="black" stroke-width="1" /><text x="57" y="383" font-size="10" text-anchor="end">-2</text><line x1="60" y1="267" x2="65" y2="267" stroke="black" stroke-width="1" /><text x="57" y="270.5" font-size="10" text-anchor="end">0</text><line x1="60" y1="154.5" x2="65" y2="154.5" stroke="black" stroke-width="1" /><text x="57" y="158" font-size="10" text-anchor="end">2</text><line x1="60" y1="42" x2="65" y2="42" stroke="black" stroke-width="1" /><text x="57" y="45.5" font-size="10" text-anchor="end">4</text><text x="339.5" y="534" font-size="14" text-anchor="middle">x</text><text x="14" y="270.5" font-size="14" text-anchor="middle" transform="rotate(-90,14,270.5)">y</text><text x="339.5" y="21" font-size="16" text-anchor="middle">Iso-line Contours — Gaussian Peak</text><path d="M355.51 389.99 L361.19 390.20 M361.19 390.20 L368.81 390.20 M368.81 390.20 L374.49 389.99 M314.59 384.27 L315.42 384.49 M315.42 384.49 L323.05 386.24 M323.05 386.24 L330.68 387.62 M330.68 387.62 L338.31 388.67 M338.31 388.67 L345.93 389.43 M345.93 389.43 L353.56 389.92 M355.51 389.99 L353.56 389.92 M374.49 389.99 L376.44 389.92 M376.44 389.92 L384.07 389.43 M384.07 389.43 L391.69 388.67 M391.69 388.67 L399.32 387.62 M399.32 387.62 L406.95 386.24 M406.95 386.24 L414.58 384.49 M414.58 384.49 L415.41 384.27 M295.22 378.55 L300.17 380.31 M300.17 380.31 L307.80 382.60 M314.59 384.27 L307.80 382.60 M415.41 384.27 L422.20 382.60 M422.20 382.60 L429.83 380.31 M429.83 380.31 L434.78 378.55 M280.82 372.83 L284.92 374.68 M284.92 374.68 L292.54 377.64 M295.22 378.55 L292.54 377.64 M434.78 378.55 L437.46 377.64 M437.46 377.64 L445.08 374.68 M445.08 374.68 L449.18 372.83 M269.20 367.11 L269.66 367.36 M269.66 367.36 L277.29 371.26 M280.82 372.83 L277.29 371.26 M449.18 372.83 L452.71 371.26 M452.71 371.26 L460.34 367.36 M460.34 367.36 L460.80 367.11 M259.33 361.39 L262.03 363.08 M269.20 367.11 L262.03 363.08 M460.80 367.11 L467.97 363.08 M467.97 363.08 L470.67 361.39 M250.83 355.67 L254.41 358.19 M259.33 361.39 L254.41 358.19 M470.67 361.39 L475.59 358.19 M475.59 358.19 L479.17 355.67 M243.41 349.94 L246.78 352.63 M250.83 355.67 L246.78 352.63 M479.17 355.67 L483.22 352.63 M483.22 352.63 L486.59 349.94 M236.89 344.22 L239.15 346.26 M243.41 349.94 L239.15 346.26 M486.59 349.94 L490.85 346.26 M490.85 346.26 L493.11 344.22 M231.18 338.50 L231.53 338.85 M236.89 344.22 L231.53 338.85 M493.11 344.22 L498.47 338.85 M498.47 338.85 L498.82 338.50 M231.18 338.50 L225.98 332.78 M498.82 338.50 L504.02 332.78 M221.43 327.06 L223.90 330.13 M225.98 332.78 L223.90 330.13 M504.02 332.78 L506.10 330.13 M506.10 330.13 L508.57 327.06 M221.43 327.06 L217.47 321.34 M508.57 327.06 L512.53 321.34 M213.92 315.62 L216.27 319.33 M217.47 321.34 L216.27 319.33 M512.53 321.34 L513.73 319.33 M513.73 319.33 L516.08 315.62 M213.92 315.62 L210.86 309.90 M516.08 315.62 L519.14 309.90 M208.34 304.18 L208.64 304.81 M210.86 309.90 L208.64 304.81 M519.14 309.90 L521.36 304.81 M521.36 304.81 L521.66 304.18 M208.34 304.18 L206.01 298.46 M521.66 304.18 L523.99 298.46 M206.01 298.46 L204.18 292.74 M523.99 298.46 L525.82 292.74 M204.18 292.74 L202.77 287.02 M525.82 292.74 L527.23 287.02 M202.77 287.02 L201.76 281.30 M527.23 287.02 L528.24 281.30 M201.76 281.30 L201.10 275.58 M528.24 281.30 L528.90 275.58 M200.73 269.86 L201.02 274.12 M201.10 275.58 L201.02 274.12 M528.90 275.58 L528.98 274.12 M528.98 274.12 L529.27 269.86 M200.73 269.86 L200.73 264.14 M529.27 269.86 L529.27 264.14 M200.73 264.14 L201.02 259.88 M201.02 259.88 L201.10 258.42 M528.98 259.88 L528.90 258.42 M529.27 264.14 L528.98 259.88 M201.10 258.42 L201.76 252.70 M528.90 258.42 L528.24 252.70 M201.76 252.70 L202.77 246.98 M528.24 252.70 L527.23 246.98 M202.77 246.98 L204.18 241.26 M527.23 246.98 L525.82 241.26 M204.18 241.26 L206.01 235.54 M525.82 241.26 L523.99 235.54 M206.01 235.54 L208.34 229.82 M523.99 235.54 L521.66 229.82 M208.34 229.82 L208.64 229.19 M208.64 229.19 L210.86 224.10 M521.36 229.19 L519.14 224.10 M521.66 229.82 L521.36 229.19 M210.86 224.10 L213.92 218.38 M519.14 224.10 L516.08 218.38 M213.92 218.38 L216.27 214.67 M216.27 214.67 L217.47 212.66 M513.73 214.67 L512.53 212.66 M516.08 218.38 L513.73 214.67 M217.47 212.66 L221.43 206.94 M512.53 212.66 L508.57 206.94 M221.43 206.94 L223.90 203.87 M223.90 203.87 L225.98 201.22 M506.10 203.87 L504.02 201.22 M508.57 206.94 L506.10 203.87 M225.98 201.22 L231.18 195.50 M504.02 201.22 L498.82 195.50 M231.18 195.50 L231.53 195.15 M231.53 195.15 L236.89 189.78 M498.47 195.15 L493.11 189.78 M498.82 195.50 L498.47 195.15 M236.89 189.78 L239.15 187.74 M239.15 187.74 L243.41 184.06 M490.85 187.74 L486.59 184.06 M493.11 189.78 L490.85 187.74 M243.41 184.06 L246.78 181.37 M246.78 181.37 L250.83 178.33 M483.22 181.37 L479.17 178.33 M486.59 184.06 L483.22 181.37 M250.83 178.33 L254.41 175.81 M254.41 175.81 L259.33 172.61 M475.59 175.81 L470.67 172.61 M479.17 178.33 L475.59 175.81 M259.33 172.61 L262.03 170.92 M262.03 170.92 L269.20 166.89 M467.97 170.92 L460.80 166.89 M470.67 172.61 L467.97 170.92 M269.20 166.89 L269.66 166.64 M269.66 166.64 L277.29 162.74 M277.29 162.74 L280.82 161.17 M452.71 162.74 L449.18 161.17 M452.71 162.74 L460.34 166.64 M460.80 166.89 L460.34 166.64 M280.82 161.17 L284.92 159.32 M284.92 159.32 L292.54 156.36 M292.54 156.36 L295.22 155.45 M437.46 156.36 L434.78 155.45 M437.46 156.36 L445.08 159.32 M449.18 161.17 L445.08 159.32 M295.22 155.45 L300.17 153.69 M300.17 153.69 L307.80 151.40 M307.80 151.40 L314.59 149.73 M422.20 151.40 L415.41 149.73 M422.20 151.40 L429.83 153.69 M434.78 155.45 L429.83 153.69 M314.59 149.73 L315.42 149.51 M315.42 149.51 L323.05 147.76 M323.05 147.76 L330.68 146.38 M330.68 146.38 L338.31 145.33 M338.31 145.33 L345.93 144.57 M345.93 144.57 L353.56 144.08 M353.56 144.08 L355.51 144.01 M376.44 144.08 L374.49 144.01 M376.44 144.08 L384.07 144.57 M384.07 144.57 L391.69 145.33 M391.69 145.33 L399.32 146.38 M399.32 146.38 L406.95 147.76 M406.95 147.76 L414.58 149.51 M415.41 149.73 L414.58 149.51 M355.51 144.01 L361.19 143.80 M361.19 143.80 L368.81 143.80 M374.49 144.01 L368.81 143.80 " stroke="steelblue" stroke-width="1.2" fill="none" /><path d="M327.91 367.11 L330.68 367.72 M330.68 367.72 L338.31 369.06 M338.31 369.06 L345.93 370.03 M345.93 370.03 L353.56 370.66 M353.56 370.66 L361.19 370.97 M361.19 370.97 L368.81 370.97 M368.81 370.97 L376.44 370.66 M376.44 370.66 L384.07 370.03 M384.07 370.03 L391.69 369.06 M391.69 369.06 L399.32 367.72 M399.32 367.72 L402.09 367.11 M307.02 361.39 L307.80 361.67 M307.80 361.67 L315.42 364.13 M315.42 364.13 L323.05 366.10 M327.91 367.11 L323.05 366.10 M402.09 367.11 L406.95 366.10 M406.95 366.10 L414.58 364.13 M414.58 364.13 L422.20 361.67 M422.20 361.67 L422.98 361.39 M292.72 355.67 L300.17 358.92 M307.02 361.39 L300.17 358.92 M422.98 361.39 L429.83 358.92 M429.83 358.92 L437.28 355.67 M281.49 349.94 L284.92 351.87 M284.92 351.87 L292.54 355.59 M292.72 355.67 L292.54 355.59 M437.28 355.67 L437.46 355.59 M437.46 355.59 L445.08 351.87 M445.08 351.87 L448.51 349.94 M272.23 344.22 L277.29 347.51 M281.49 349.94 L277.29 347.51 M448.51 349.94 L452.71 347.51 M452.71 347.51 L457.77 344.22 M264.39 338.50 L269.66 342.45 M272.23 344.22 L269.66 342.45 M457.77 344.22 L460.34 342.45 M460.34 342.45 L465.61 338.50 M257.66 332.78 L262.03 336.58 M264.39 338.50 L262.03 336.58 M465.61 338.50 L467.97 336.58 M467.97 336.58 L472.34 332.78 M251.84 327.06 L254.41 329.63 M257.66 332.78 L254.41 329.63 M472.34 332.78 L475.59 329.63 M475.59 329.63 L478.16 327.06 M251.84 327.06 L246.88 321.34 M478.16 327.06 L483.12 321.34 M242.44 315.62 L246.78 321.21 M246.88 321.34 L246.78 321.21 M483.12 321.34 L483.22 321.21 M483.22 321.21 L487.56 315.62 M238.77 309.90 L239.15 310.49 M242.44 315.62 L239.15 310.49 M487.56 315.62 L490.85 310.49 M490.85 310.49 L491.23 309.90 M238.77 309.90 L235.49 304.18 M491.23 309.90 L494.51 304.18 M235.49 304.18 L232.87 298.46 M494.51 304.18 L497.13 298.46 M230.70 292.74 L231.53 294.82 M232.87 298.46 L231.53 294.82 M497.13 298.46 L498.47 294.82 M498.47 294.82 L499.30 292.74 M230.70 292.74 L228.92 287.02 M499.30 292.74 L501.08 287.02 M228.92 287.02 L227.63 281.30 M501.08 287.02 L502.37 281.30 M227.63 281.30 L226.79 275.58 M502.37 281.30 L503.21 275.58 M226.79 275.58 L226.37 269.86 M503.21 275.58 L503.63 269.86 M226.37 269.86 L226.37 264.14 M503.63 269.86 L503.63 264.14 M226.37 264.14 L226.79 258.42 M503.63 264.14 L503.21 258.42 M226.79 258.42 L227.63 252.70 M503.21 258.42 L502.37 252.70 M227.63 252.70 L228.92 246.98 M502.37 252.70 L501.08 246.98 M228.92 246.98 L230.70 241.26 M501.08 246.98 L499.30 241.26 M230.70 241.26 L231.53 239.18 M231.53 239.18 L232.87 235.54 M498.47 239.18 L497.13 235.54 M499.30 241.26 L498.47 239.18 M232.87 235.54 L235.49 229.82 M497.13 235.54 L494.51 229.82 M235.49 229.82 L238.77 224.10 M494.51 229.82 L491.23 224.10 M238.77 224.10 L239.15 223.51 M239.15 223.51 L242.44 218.38 M490.85 223.51 L487.56 218.38 M491.23 224.10 L490.85 223.51 M242.44 218.38 L246.78 212.79 M246.78 212.79 L246.88 212.66 M483.22 212.79 L483.12 212.66 M487.56 218.38 L483.22 212.79 M246.88 212.66 L251.84 206.94 M483.12 212.66 L478.16 206.94 M251.84 206.94 L254.41 204.37 M254.41 204.37 L257.66 201.22 M475.59 204.37 L472.34 201.22 M478.16 206.94 L475.59 204.37 M257.66 201.22 L262.03 197.42 M262.03 197.42 L264.39 195.50 M467.97 197.42 L465.61 195.50 M472.34 201.22 L467.97 197.42 M264.39 195.50 L269.66 191.55 M269.66 191.55 L272.23 189.78 M460.34 191.55 L457.77 189.78 M465.61 195.50 L460.34 191.55 M272.23 189.78 L277.29 186.49 M277.29 186.49 L281.49 184.06 M452.71 186.49 L448.51 184.06 M457.77 189.78 L452.71 186.49 M281.49 184.06 L284.92 182.13 M284.92 182.13 L292.54 178.41 M292.54 178.41 L292.72 178.33 M437.46 178.41 L437.28 178.33 M437.46 178.41 L445.08 182.13 M448.51 184.06 L445.08 182.13 M292.72 178.33 L300.17 175.08 M300.17 175.08 L307.02 172.61 M429.83 175.08 L422.98 172.61 M437.28 178.33 L429.83 175.08 M307.02 172.61 L307.80 172.33 M307.80 172.33 L315.42 169.87 M315.42 169.87 L323.05 167.90 M323.05 167.90 L327.91 166.89 M406.95 167.90 L402.09 166.89 M406.95 167.90 L414.58 169.87 M414.58 169.87 L422.20 172.33 M422.98 172.61 L422.20 172.33 M327.91 166.89 L330.68 166.28 M330.68 166.28 L338.31 164.94 M338.31 164.94 L345.93 163.97 M345.93 163.97 L353.56 163.34 M353.56 163.34 L361.19 163.03 M361.19 163.03 L368.81 163.03 M368.81 163.03 L376.44 163.34 M376.44 163.34 L384.07 163.97 M384.07 163.97 L391.69 164.94 M391.69 164.94 L399.32 166.28 M402.09 166.89 L399.32 166.28 " stroke="steelblue" stroke-width="1.2" fill="none" /><path d="M339.30 355.67 L345.93 356.66 M345.93 356.66 L353.56 357.41 M353.56 357.41 L361.19 357.78 M361.19 357.78 L368.81 357.78 M368.81 357.78 L376.44 357.41 M376.44 357.41 L384.07 356.66 M384.07 356.66 L390.70 355.67 M315.92 349.94 L323.05 352.19 M323.05 352.19 L330.68 354.08 M330.68 354.08 L338.31 355.52 M339.30 355.67 L338.31 355.52 M390.70 355.67 L391.69 355.52 M391.69 355.52 L399.32 354.08 M399.32 354.08 L406.95 352.19 M406.95 352.19 L414.08 349.94 M301.46 344.22 L307.80 347.03 M307.80 347.03 L315.42 349.79 M315.92 349.94 L315.42 349.79 M414.08 349.94 L414.58 349.79 M414.58 349.79 L422.20 347.03 M422.20 347.03 L428.54 344.22 M290.48 338.50 L292.54 339.71 M292.54 339.71 L300.17 343.65 M301.46 344.22 L300.17 343.65 M428.54 344.22 L429.83 343.65 M429.83 343.65 L437.46 339.71 M437.46 339.71 L439.52 338.50 M281.62 332.78 L284.92 335.06 M290.48 338.50 L284.92 335.06 M439.52 338.50 L445.08 335.06 M445.08 335.06 L448.38 332.78 M274.25 327.06 L277.29 329.54 M281.62 332.78 L277.29 329.54 M448.38 332.78 L452.71 329.54 M452.71 329.54 L455.75 327.06 M268.05 321.34 L269.66 322.89 M274.25 327.06 L269.66 322.89 M455.75 327.06 L460.34 322.89 M460.34 322.89 L461.95 321.34 M268.05 321.34 L262.81 315.62 M461.95 321.34 L467.19 315.62 M258.30 309.90 L262.03 314.66 M262.81 315.62 L262.03 314.66 M467.19 315.62 L467.97 314.66 M467.97 314.66 L471.70 309.90 M258.30 309.90 L254.61 304.18 M471.70 309.90 L475.39 304.18 M251.42 298.46 L254.41 303.81 M254.61 304.18 L254.41 303.81 M475.39 304.18 L475.59 303.81 M475.59 303.81 L478.58 298.46 M251.42 298.46 L248.89 292.74 M478.58 298.46 L481.11 292.74 M248.89 292.74 L246.97 287.02 M481.11 292.74 L483.03 287.02 M245.45 281.30 L246.78 286.27 M246.97 287.02 L246.78 286.27 M483.03 287.02 L483.22 286.27 M483.22 286.27 L484.55 281.30 M245.45 281.30 L244.46 275.58 M484.55 281.30 L485.54 275.58 M244.46 275.58 L243.96 269.86 M485.54 275.58 L486.04 269.86 M243.96 269.86 L243.96 264.14 M486.04 269.86 L486.04 264.14 M243.96 264.14 L244.46 258.42 M486.04 264.14 L485.54 258.42 M244.46 258.42 L245.45 252.70 M485.54 258.42 L484.55 252.70 M245.45 252.70 L246.78 247.73 M246.78 247.73 L246.97 246.98 M483.22 247.73 L483.03 246.98 M484.55 252.70 L483.22 247.73 M246.97 246.98 L248.89 241.26 M483.03 246.98 L481.11 241.26 M248.89 241.26 L251.42 235.54 M481.11 241.26 L478.58 235.54 M251.42 235.54 L254.41 230.19 M254.41 230.19 L254.61 229.82 M475.59 230.19 L475.39 229.82 M478.58 235.54 L475.59 230.19 M254.61 229.82 L258.30 224.10 M475.39 229.82 L471.70 224.10 M258.30 224.10 L262.03 219.34 M262.03 219.34 L262.81 218.38 M467.97 219.34 L467.19 218.38 M471.70 224.10 L467.97 219.34 M262.81 218.38 L268.05 212.66 M467.19 218.38 L461.95 212.66 M268.05 212.66 L269.66 211.11 M269.66 211.11 L274.25 206.94 M460.34 211.11 L455.75 206.94 M461.95 212.66 L460.34 211.11 M274.25 206.94 L277.29 204.46 M277.29 204.46 L281.62 201.22 M452.71 204.46 L448.38 201.22 M455.75 206.94 L452.71 204.46 M281.62 201.22 L284.92 198.94 M284.92 198.94 L290.48 195.50 M445.08 198.94 L439.52 195.50 M448.38 201.22 L445.08 198.94 M290.48 195.50 L292.54 194.29 M292.54 194.29 L300.17 190.35 M300.17 190.35 L301.46 189.78 M429.83 190.35 L428.54 189.78 M429.83 190.35 L437.46 194.29 M439.52 195.50 L437.46 194.29 M301.46 189.78 L307.80 186.97 M307.80 186.97 L315.42 184.21 M315.42 184.21 L315.92 184.06 M414.58 184.21 L414.08 184.06 M414.58 184.21 L422.20 186.97 M428.54 189.78 L422.20 186.97 M315.92 184.06 L323.05 181.81 M323.05 181.81 L330.68 179.92 M330.68 179.92 L338.31 178.48 M338.31 178.48 L339.30 178.33 M391.69 178.48 L390.70 178.33 M391.69 178.48 L399.32 179.92 M399.32 179.92 L406.95 181.81 M414.08 184.06 L406.95 181.81 M339.30 178.33 L345.93 177.34 M345.93 177.34 L353.56 176.59 M353.56 176.59 L361.19 176.22 M361.19 176.22 L368.81 176.22 M368.81 176.22 L376.44 176.59 M376.44 176.59 L384.07 177.34 M390.70 178.33 L384.07 177.34 " stroke="steelblue" stroke-width="1.2" fill="none" /><path d="M336.76 344.22 L338.31 344.57 M338.31 344.57 L345.93 345.86 M345.93 345.86 L353.56 346.69 M353.56 346.69 L361.19 347.10 M361.19 347.10 L368.81 347.10 M368.81 347.10 L376.44 346.69 M376.44 346.69 L384.07 345.86 M384.07 345.86 L391.69 344.57 M391.69 344.57 L393.24 344.22 M316.92 338.50 L323.05 340.70 M323.05 340.70 L330.68 342.88 M336.76 344.22 L330.68 342.88 M393.24 344.22 L399.32 342.88 M399.32 342.88 L406.95 340.70 M406.95 340.70 L413.08 338.50 M304.10 332.78 L307.80 334.67 M307.80 334.67 L315.42 337.96 M316.92 338.50 L315.42 337.96 M413.08 338.50 L414.58 337.96 M414.58 337.96 L422.20 334.67 M422.20 334.67 L425.90 332.78 M294.35 327.06 L300.17 330.67 M304.10 332.78 L300.17 330.67 M425.90 332.78 L429.83 330.67 M429.83 330.67 L435.65 327.06 M286.53 321.34 L292.54 325.85 M294.35 327.06 L292.54 325.85 M435.65 327.06 L437.46 325.85 M437.46 325.85 L443.47 321.34 M280.10 315.62 L284.92 319.99 M286.53 321.34 L284.92 319.99 M443.47 321.34 L445.08 319.99 M445.08 319.99 L449.90 315.62 M274.77 309.90 L277.29 312.68 M280.10 315.62 L277.29 312.68 M449.90 315.62 L452.71 312.68 M452.71 312.68 L455.23 309.90 M274.77 309.90 L270.38 304.18 M455.23 309.90 L459.62 304.18 M266.73 298.46 L269.66 303.06 M270.38 304.18 L269.66 303.06 M459.62 304.18 L460.34 303.06 M460.34 303.06 L463.27 298.46 M266.73 298.46 L263.82 292.74 M463.27 298.46 L466.18 292.74 M261.57 287.02 L262.03 288.18 M263.82 292.74 L262.03 288.18 M466.18 292.74 L467.97 288.18 M467.97 288.18 L468.43 287.02 M261.57 287.02 L259.86 281.30 M468.43 287.02 L470.14 281.30 M259.86 281.30 L258.74 275.58 M470.14 281.30 L471.26 275.58 M258.74 275.58 L258.19 269.86 M471.26 275.58 L471.81 269.86 M258.19 269.86 L258.19 264.14 M471.81 269.86 L471.81 264.14 M258.19 264.14 L258.74 258.42 M471.81 264.14 L471.26 258.42 M258.74 258.42 L259.86 252.70 M471.26 258.42 L470.14 252.70 M259.86 252.70 L261.57 246.98 M470.14 252.70 L468.43 246.98 M261.57 246.98 L262.03 245.82 M262.03 245.82 L263.82 241.26 M467.97 245.82 L466.18 241.26 M468.43 246.98 L467.97 245.82 M263.82 241.26 L266.73 235.54 M466.18 241.26 L463.27 235.54 M266.73 235.54 L269.66 230.94 M269.66 230.94 L270.38 229.82 M460.34 230.94 L459.62 229.82 M463.27 235.54 L460.34 230.94 M270.38 229.82 L274.77 224.10 M459.62 229.82 L455.23 224.10 M274.77 224.10 L277.29 221.32 M277.29 221.32 L280.10 218.38 M452.71 221.32 L449.90 218.38 M455.23 224.10 L452.71 221.32 M280.10 218.38 L284.92 214.01 M284.92 214.01 L286.53 212.66 M445.08 214.01 L443.47 212.66 M449.90 218.38 L445.08 214.01 M286.53 212.66 L292.54 208.15 M292.54 208.15 L294.35 206.94 M437.46 208.15 L435.65 206.94 M443.47 212.66 L437.46 208.15 M294.35 206.94 L300.17 203.33 M300.17 203.33 L304.10 201.22 M429.83 203.33 L425.90 201.22 M435.65 206.94 L429.83 203.33 M304.10 201.22 L307.80 199.33 M307.80 199.33 L315.42 196.04 M315.42 196.04 L316.92 195.50 M414.58 196.04 L413.08 195.50 M414.58 196.04 L422.20 199.33 M425.90 201.22 L422.20 199.33 M316.92 195.50 L323.05 193.30 M323.05 193.30 L330.68 191.12 M330.68 191.12 L336.76 189.78 M399.32 191.12 L393.24 189.78 M399.32 191.12 L406.95 193.30 M413.08 195.50 L406.95 193.30 M336.76 189.78 L338.31 189.43 M338.31 189.43 L345.93 188.14 M345.93 188.14 L353.56 187.31 M353.56 187.31 L361.19 186.90 M361.19 186.90 L368.81 186.90 M368.81 186.90 L376.44 187.31 M376.44 187.31 L384.07 188.14 M384.07 188.14 L391.69 189.43 M393.24 189.78 L391.69 189.43 " stroke="steelblue" stroke-width="1.2" fill="none" /><path d="M330.33 332.78 L330.68 332.90 M330.68 332.90 L338.31 334.88 M338.31 334.88 L345.93 336.31 M345.93 336.31 L353.56 337.24 M353.56 337.24 L361.19 337.70 M361.19 337.70 L368.81 337.70 M368.81 337.70 L376.44 337.24 M376.44 337.24 L384.07 336.31 M384.07 336.31 L391.69 334.88 M391.69 334.88 L399.32 332.90 M399.32 332.90 L399.67 332.78 M315.17 327.06 L315.42 327.19 M315.42 327.19 L323.05 330.38 M330.33 332.78 L323.05 330.38 M399.67 332.78 L406.95 330.38 M406.95 330.38 L414.58 327.19 M414.58 327.19 L414.83 327.06 M304.65 321.34 L307.80 323.25 M315.17 327.06 L307.80 323.25 M414.83 327.06 L422.20 323.25 M422.20 323.25 L425.35 321.34 M296.50 315.62 L300.17 318.37 M304.65 321.34 L300.17 318.37 M425.35 321.34 L429.83 318.37 M429.83 318.37 L433.50 315.62 M290.00 309.90 L292.54 312.27 M296.50 315.62 L292.54 312.27 M433.50 315.62 L437.46 312.27 M437.46 312.27 L440.00 309.90 M284.75 304.18 L284.92 304.37 M290.00 309.90 L284.92 304.37 M440.00 309.90 L445.08 304.37 M445.08 304.37 L445.25 304.18 M284.75 304.18 L280.49 298.46 M445.25 304.18 L449.51 298.46 M277.14 292.74 L277.29 293.01 M280.49 298.46 L277.29 293.01 M449.51 298.46 L452.71 293.01 M452.71 293.01 L452.86 292.74 M277.14 292.74 L274.49 287.02 M452.86 292.74 L455.51 287.02 M274.49 287.02 L272.58 281.30 M455.51 287.02 L457.42 281.30 M272.58 281.30 L271.34 275.58 M457.42 281.30 L458.66 275.58 M271.34 275.58 L270.73 269.86 M458.66 275.58 L459.27 269.86 M270.73 269.86 L270.73 264.14 M459.27 269.86 L459.27 264.14 M270.73 264.14 L271.34 258.42 M459.27 264.14 L458.66 258.42 M271.34 258.42 L272.58 252.70 M458.66 258.42 L457.42 252.70 M272.58 252.70 L274.49 246.98 M457.42 252.70 L455.51 246.98 M274.49 246.98 L277.14 241.26 M455.51 246.98 L452.86 241.26 M277.14 241.26 L277.29 240.99 M277.29 240.99 L280.49 235.54 M452.71 240.99 L449.51 235.54 M452.86 241.26 L452.71 240.99 M280.49 235.54 L284.75 229.82 M449.51 235.54 L445.25 229.82 M284.75 229.82 L284.92 229.63 M284.92 229.63 L290.00 224.10 M445.08 229.63 L440.00 224.10 M445.25 229.82 L445.08 229.63 M290.00 224.10 L292.54 221.73 M292.54 221.73 L296.50 218.38 M437.46 221.73 L433.50 218.38 M440.00 224.10 L437.46 221.73 M296.50 218.38 L300.17 215.63 M300.17 215.63 L304.65 212.66 M429.83 215.63 L425.35 212.66 M433.50 218.38 L429.83 215.63 M304.65 212.66 L307.80 210.75 M307.80 210.75 L315.17 206.94 M422.20 210.75 L414.83 206.94 M425.35 212.66 L422.20 210.75 M315.17 206.94 L315.42 206.81 M315.42 206.81 L323.05 203.62 M323.05 203.62 L330.33 201.22 M406.95 203.62 L399.67 201.22 M406.95 203.62 L414.58 206.81 M414.83 206.94 L414.58 206.81 M330.33 201.22 L330.68 201.10 M330.68 201.10 L338.31 199.12 M338.31 199.12 L345.93 197.69 M345.93 197.69 L353.56 196.76 M353.56 196.76 L361.19 196.30 M361.19 196.30 L368.81 196.30 M368.81 196.30 L376.44 196.76 M376.44 196.76 L384.07 197.69 M384.07 197.69 L391.69 199.12 M391.69 199.12 L399.32 201.10 M399.67 201.22 L399.32 201.10 " stroke="steelblue" stroke-width="1.2" fill="none" /><path d="M344.39 327.06 L345.93 327.39 M345.93 327.39 L353.56 328.47 M353.56 328.47 L361.19 329.01 M361.19 329.01 L368.81 329.01 M368.81 329.01 L376.44 328.47 M376.44 328.47 L384.07 327.39 M384.07 327.39 L385.61 327.06 M325.15 321.34 L330.68 323.47 M330.68 323.47 L338.31 325.74 M344.39 327.06 L338.31 325.74 M385.61 327.06 L391.69 325.74 M391.69 325.74 L399.32 323.47 M399.32 323.47 L404.85 321.34 M313.63 315.62 L315.42 316.68 M315.42 316.68 L323.05 320.49 M325.15 321.34 L323.05 320.49 M404.85 321.34 L406.95 320.49 M406.95 320.49 L414.58 316.68 M414.58 316.68 L416.37 315.62 M305.25 309.90 L307.80 311.81 M313.63 315.62 L307.80 311.81 M416.37 315.62 L422.20 311.81 M422.20 311.81 L424.75 309.90 M298.76 304.18 L300.17 305.53 M305.25 309.90 L300.17 305.53 M424.75 309.90 L429.83 305.53 M429.83 305.53 L431.24 304.18 M298.76 304.18 L293.68 298.46 M431.24 304.18 L436.32 298.46 M289.71 292.74 L292.54 296.89 M293.68 298.46 L292.54 296.89 M436.32 298.46 L437.46 296.89 M437.46 296.89 L440.29 292.74 M289.71 292.74 L286.67 287.02 M440.29 292.74 L443.33 287.02 M284.48 281.30 L284.92 282.46 M286.67 287.02 L284.92 282.46 M443.33 287.02 L445.08 282.46 M445.08 282.46 L445.52 281.30 M284.48 281.30 L283.03 275.58 M445.52 281.30 L446.97 275.58 M283.03 275.58 L282.32 269.86 M446.97 275.58 L447.68 269.86 M282.32 269.86 L282.32 264.14 M447.68 269.86 L447.68 264.14 M282.32 264.14 L283.03 258.42 M447.68 264.14 L446.97 258.42 M283.03 258.42 L284.48 252.70 M446.97 258.42 L445.52 252.70 M284.48 252.70 L284.92 251.54 M284.92 251.54 L286.67 246.98 M445.08 251.54 L443.33 246.98 M445.52 252.70 L445.08 251.54 M286.67 246.98 L289.71 241.26 M443.33 246.98 L440.29 241.26 M289.71 241.26 L292.54 237.11 M292.54 237.11 L293.68 235.54 M437.46 237.11 L436.32 235.54 M440.29 241.26 L437.46 237.11 M293.68 235.54 L298.76 229.82 M436.32 235.54 L431.24 229.82 M298.76 229.82 L300.17 228.47 M300.17 228.47 L305.25 224.10 M429.83 228.47 L424.75 224.10 M431.24 229.82 L429.83 228.47 M305.25 224.10 L307.80 222.19 M307.80 222.19 L313.63 218.38 M422.20 222.19 L416.37 218.38 M424.75 224.10 L422.20 222.19 M313.63 218.38 L315.42 217.32 M315.42 217.32 L323.05 213.51 M323.05 213.51 L325.15 212.66 M406.95 213.51 L404.85 212.66 M406.95 213.51 L414.58 217.32 M416.37 218.38 L414.58 217.32 M325.15 212.66 L330.68 210.53 M330.68 210.53 L338.31 208.26 M338.31 208.26 L344.39 206.94 M391.69 208.26 L385.61 206.94 M391.69 208.26 L399.32 210.53 M404.85 212.66 L399.32 210.53 M344.39 206.94 L345.93 206.61 M345.93 206.61 L353.56 205.53 M353.56 205.53 L361.19 204.99 M361.19 204.99 L368.81 204.99 M368.81 204.99 L376.44 205.53 M376.44 205.53 L384.07 206.61 M385.61 206.94 L384.07 206.61 " stroke="steelblue" stroke-width="1.2" fill="none" /><path d="M335.03 315.62 L338.31 316.74 M338.31 316.74 L345.93 318.68 M345.93 318.68 L353.56 319.93 M353.56 319.93 L361.19 320.55 M361.19 320.55 L368.81 320.55 M368.81 320.55 L376.44 319.93 M376.44 319.93 L384.07 318.68 M384.07 318.68 L391.69 316.74 M391.69 316.74 L394.97 315.62 M322.14 309.90 L323.05 310.42 M323.05 310.42 L330.68 314.02 M335.03 315.62 L330.68 314.02 M394.97 315.62 L399.32 314.02 M399.32 314.02 L406.95 310.42 M406.95 310.42 L407.86 309.90 M313.52 304.18 L315.42 305.61 M322.14 309.90 L315.42 305.61 M407.86 309.90 L414.58 305.61 M414.58 305.61 L416.48 304.18 M307.11 298.46 L307.80 299.15 M313.52 304.18 L307.80 299.15 M416.48 304.18 L422.20 299.15 M422.20 299.15 L422.89 298.46 M307.11 298.46 L302.30 292.74 M422.89 298.46 L427.70 292.74 M298.68 287.02 L300.17 289.48 M302.30 292.74 L300.17 289.48 M427.70 292.74 L429.83 289.48 M429.83 289.48 L431.32 287.02 M298.68 287.02 L296.10 281.30 M431.32 287.02 L433.90 281.30 M296.10 281.30 L294.43 275.58 M433.90 281.30 L435.57 275.58 M294.43 275.58 L293.60 269.86 M435.57 275.58 L436.40 269.86 M293.60 269.86 L293.60 264.14 M436.40 269.86 L436.40 264.14 M293.60 264.14 L294.43 258.42 M436.40 264.14 L435.57 258.42 M294.43 258.42 L296.10 252.70 M435.57 258.42 L433.90 252.70 M296.10 252.70 L298.68 246.98 M433.90 252.70 L431.32 246.98 M298.68 246.98 L300.17 244.52 M300.17 244.52 L302.30 241.26 M429.83 244.52 L427.70 241.26 M431.32 246.98 L429.83 244.52 M302.30 241.26 L307.11 235.54 M427.70 241.26 L422.89 235.54 M307.11 235.54 L307.80 234.85 M307.80 234.85 L313.52 229.82 M422.20 234.85 L416.48 229.82 M422.89 235.54 L422.20 234.85 M313.52 229.82 L315.42 228.39 M315.42 228.39 L322.14 224.10 M414.58 228.39 L407.86 224.10 M416.48 229.82 L414.58 228.39 M322.14 224.10 L323.05 223.58 M323.05 223.58 L330.68 219.98 M330.68 219.98 L335.03 218.38 M399.32 219.98 L394.97 218.38 M399.32 219.98 L406.95 223.58 M407.86 224.10 L406.95 223.58 M335.03 218.38 L338.31 217.26 M338.31 217.26 L345.93 215.32 M345.93 215.32 L353.56 214.07 M353.56 214.07 L361.19 213.45 M361.19 213.45 L368.81 213.45 M368.81 213.45 L376.44 214.07 M376.44 214.07 L384.07 215.32 M384.07 215.32 L391.69 217.26 M394.97 218.38 L391.69 217.26 " stroke="steelblue" stroke-width="1.2" fill="none" /><path d="M346.73 309.90 L353.56 311.22 M353.56 311.22 L361.19 311.95 M361.19 311.95 L368.81 311.95 M368.81 311.95 L376.44 311.22 M376.44 311.22 L383.27 309.90 M331.07 304.18 L338.31 307.33 M338.31 307.33 L345.93 309.74 M346.73 309.90 L345.93 309.74 M383.27 309.90 L384.07 309.74 M384.07 309.74 L391.69 307.33 M391.69 307.33 L398.93 304.18 M322.02 298.46 L323.05 299.23 M323.05 299.23 L330.68 303.99 M331.07 304.18 L330.68 303.99 M398.93 304.18 L399.32 303.99 M399.32 303.99 L406.95 299.23 M406.95 299.23 L407.98 298.46 M322.02 298.46 L315.68 292.74 M407.98 298.46 L414.32 292.74 M311.23 287.02 L315.42 292.44 M315.68 292.74 L315.42 292.44 M414.32 292.74 L414.58 292.44 M414.58 292.44 L418.77 287.02 M311.23 287.02 L308.02 281.30 M418.77 287.02 L421.98 281.30 M306.04 275.58 L307.80 280.70 M308.02 281.30 L307.80 280.70 M421.98 281.30 L422.20 280.70 M422.20 280.70 L423.96 275.58 M306.04 275.58 L305.07 269.86 M423.96 275.58 L424.93 269.86 M305.07 269.86 L305.07 264.14 M424.93 269.86 L424.93 264.14 M305.07 264.14 L306.04 258.42 M424.93 264.14 L423.96 258.42 M306.04 258.42 L307.80 253.30 M307.80 253.30 L308.02 252.70 M422.20 253.30 L421.98 252.70 M423.96 258.42 L422.20 253.30 M308.02 252.70 L311.23 246.98 M421.98 252.70 L418.77 246.98 M311.23 246.98 L315.42 241.56 M315.42 241.56 L315.68 241.26 M414.58 241.56 L414.32 241.26 M418.77 246.98 L414.58 241.56 M315.68 241.26 L322.02 235.54 M414.32 241.26 L407.98 235.54 M322.02 235.54 L323.05 234.77 M323.05 234.77 L330.68 230.01 M330.68 230.01 L331.07 229.82 M399.32 230.01 L398.93 229.82 M399.32 230.01 L406.95 234.77 M407.98 235.54 L406.95 234.77 M331.07 229.82 L338.31 226.67 M338.31 226.67 L345.93 224.26 M345.93 224.26 L346.73 224.10 M384.07 224.26 L383.27 224.10 M384.07 224.26 L391.69 226.67 M398.93 229.82 L391.69 226.67 M346.73 224.10 L353.56 222.78 M353.56 222.78 L361.19 222.05 M361.19 222.05 L368.81 222.05 M368.81 222.05 L376.44 222.78 M383.27 224.10 L376.44 222.78 " stroke="steelblue" stroke-width="1.2" fill="none" /><path d="M342.34 298.46 L345.93 299.83 M345.93 299.83 L353.56 301.75 M353.56 301.75 L361.19 302.69 M361.19 302.69 L368.81 302.69 M368.81 302.69 L376.44 301.75 M376.44 301.75 L384.07 299.83 M384.07 299.83 L387.66 298.46 M331.80 292.74 L338.31 296.66 M342.34 298.46 L338.31 296.66 M387.66 298.46 L391.69 296.66 M391.69 296.66 L398.20 292.74 M325.45 287.02 L330.68 291.90 M331.80 292.74 L330.68 291.90 M398.20 292.74 L399.32 291.90 M399.32 291.90 L404.55 287.02 M321.23 281.30 L323.05 283.99 M325.45 287.02 L323.05 283.99 M404.55 287.02 L406.95 283.99 M406.95 283.99 L408.77 281.30 M321.23 281.30 L318.67 275.58 M408.77 281.30 L411.33 275.58 M318.67 275.58 L317.41 269.86 M411.33 275.58 L412.59 269.86 M317.41 269.86 L317.41 264.14 M412.59 269.86 L412.59 264.14 M317.41 264.14 L318.67 258.42 M412.59 264.14 L411.33 258.42 M318.67 258.42 L321.23 252.70 M411.33 258.42 L408.77 252.70 M321.23 252.70 L323.05 250.01 M323.05 250.01 L325.45 246.98 M406.95 250.01 L404.55 246.98 M408.77 252.70 L406.95 250.01 M325.45 246.98 L330.68 242.10 M330.68 242.10 L331.80 241.26 M399.32 242.10 L398.20 241.26 M404.55 246.98 L399.32 242.10 M331.80 241.26 L338.31 237.34 M338.31 237.34 L342.34 235.54 M391.69 237.34 L387.66 235.54 M398.20 241.26 L391.69 237.34 M342.34 235.54 L345.93 234.17 M345.93 234.17 L353.56 232.25 M353.56 232.25 L361.19 231.31 M361.19 231.31 L368.81 231.31 M368.81 231.31 L376.44 232.25 M376.44 232.25 L384.07 234.17 M387.66 235.54 L384.07 234.17 " stroke="steelblue" stroke-width="1.2" fill="none" /><path d="M345.38 287.02 L345.93 287.33 M345.93 287.33 L353.56 290.22 M353.56 290.22 L361.19 291.64 M361.19 291.64 L368.81 291.64 M368.81 291.64 L376.44 290.22 M376.44 290.22 L384.07 287.33 M384.07 287.33 L384.62 287.02 M337.89 281.30 L338.31 281.72 M345.38 287.02 L338.31 281.72 M384.62 287.02 L391.69 281.72 M391.69 281.72 L392.11 281.30 M337.89 281.30 L334.04 275.58 M392.11 281.30 L395.96 275.58 M334.04 275.58 L332.15 269.86 M395.96 275.58 L397.85 269.86 M332.15 269.86 L332.15 264.14 M397.85 269.86 L397.85 264.14 M332.15 264.14 L334.04 258.42 M397.85 264.14 L395.96 258.42 M334.04 258.42 L337.89 252.70 M395.96 258.42 L392.11 252.70 M337.89 252.70 L338.31 252.28 M338.31 252.28 L345.38 246.98 M391.69 252.28 L384.62 246.98 M392.11 252.70 L391.69 252.28 M345.38 246.98 L345.93 246.67 M345.93 246.67 L353.56 243.78 M353.56 243.78 L361.19 242.36 M361.19 242.36 L368.81 242.36 M368.81 242.36 L376.44 243.78 M376.44 243.78 L384.07 246.67 M384.62 246.98 L384.07 246.67 " stroke="steelblue" stroke-width="1.2" fill="none" /></svg>