<svg xmlns="http://www.w3.org/2000/svg" width="679" height="541" fill="black"><rect width="100%" height="100%" fill="white" /><line x1="65" y1="492" x2="665" y2="492" stroke="black" stroke-width="1" /><line x1="65" y1="42" x2="65" y2="492" stroke="black" stroke-width="1" /><line x1="215" y1="42" x2="215" y2="492" stroke="#ccc" stroke-width="1" /><line x1="365" y1="42" x2="365" y2="492" stroke="#ccc" stroke-width="1" /><line x1="515" y1="42" x2="515" y2="492" stroke="#ccc" stroke-width="1" /><line x1="665" y1="42" x2="665" y2="492" stroke="#ccc" stroke-width="1" /><line x1="65" y1="417" x2="665" y2="417" stroke="#ccc" stroke-width="1" /><line x1="65" y1="342" x2="665" y2="342" stroke="#ccc" stroke-width="1" /><line x1="65" y1="267" x2="665" y2="267" stroke="#ccc" stroke-width="1" /><line x1="65" y1="192" x2="665" y2="192" stroke="#ccc" stroke-width="1" /><line x1="65" y1="117" x2="665" y2="117" stroke="#ccc" stroke-width="1" /><line x1="65" y1="42" x2="665" y2="42" stroke="#ccc" stroke-width="1" /><line x1="65" y1="492" x2="65" y2="497" stroke="black" stroke-width="1" /><text x="65" y="507" font-size="10" text-anchor="middle">0</text><line x1="215" y1="492" x2="215" y2="497" stroke="black" stroke-width="1" /><text x="215" y="507" font-size="10" text-anchor="middle">20</text><line x1="365" y1="492" x2="365" y2="497" stroke="black" stroke-width="1" /><text x="365" y="507" font-size="10" text-anchor="middle">40</text><line x1="515" y1="492" x2="515" y2="497" stroke="black" stroke-width="1" /><text x="515" y="507" font-size="10" text-anchor="middle">60</text><line x1="665" y1="492" x2="665" y2="497" stroke="black" stroke-width="1" /><text x="665" y="507" font-size="10" text-anchor="middle">80</text><line x1="60" y1="492" x2="65" y2="492" stroke="black" stroke-width="1" /><text x="57" y="495.5" font-size="10" text-anchor="end">-1.5</text><line x1="60" y1="417" x2="65" y2="417" stroke="black" stroke-width="1" /><text x="57" y="420.5" font-size="10" text-anchor="end">-1</text><line x1="60" y1="342" x2="65" y2="342" stroke="black" stroke-width="1" /><text x="57" y="345.5" font-size="10" text-anchor="end">-0.5</text><line x1="60" y1="267" x2="65" y2="267" stroke="black" stroke-width="1" /><text x="57" y="270.5" font-size="10" text-anchor="end">0</text><line x1="60" y1="192" x2="65" y2="192" stroke="black" stroke-width="1" /><text x="57" y="195.5" font-size="10" text-anchor="end">0.5</text><line x1="60" y1="117" x2="65" y2="117" stroke="black" stroke-width="1" /><text x="57" y="120.5" font-size="10" text-anchor="end">1</text><line x1="60" y1="42" x2="65" y2="42" stroke="black" stroke-width="1" /><text x="57" y="45.5" font-size="10" text-anchor="end">1.5</text><text x="339.5" y="534" font-size="14" text-anchor="middle">Sample</text><text x="14" y="270.5" font-size="14" text-anchor="middle" transform="rotate(-90,14,270.5)">Amplitude</text><text x="339.5" y="21" font-size="16" text-anchor="middle">Series Plot — Line Style</text><path d="M 65 267 L 72.5 255.23113564082325 L 80 243.5348302439654 L 87.5 231.9831954216142 L 95 220.64745084375784 L 102.5 209.59748514523653 L 110 198.901425039068 L 117.5 188.62521529260766 L 125 178.832212156129 L 132.5 169.58279275047238 L 140 160.93398282201792 L 147.5 152.93910515999545 L 155 145.6474508437579 L 162.5 139.10397534688616 L 170 133.34902137174487 L 177.5 128.41807012330696 L 185 124.34152255572695 L 192.5 121.14451194034848 L 200 118.84674891072933 L 207.5 117.46239994003082 L 215 117 L 222.5 117.46239994003082 L 230 118.84674891072933 L 237.5 121.14451194034848 L 245 124.34152255572695 L 252.5 128.41807012330696 L 260 133.34902137174487 L 267.5 139.10397534688616 L 275 145.6474508437579 L 282.5 152.93910515999534 L 290 160.93398282201792 L 297.5 169.58279275047238 L 305 178.832212156129 L 312.5 188.62521529260766 L 320 198.901425039068 L 327.5 209.59748514523653 L 335 220.64745084375784 L 342.5 231.98319542161414 L 350 243.5348302439654 L 357.5 255.23113564082325 L 365 266.99999999999994 L 372.5 278.76886435917663 L 380 290.4651697560346 L 387.5 302.0168045783858 L 395 313.35254915624205 L 402.5 324.40251485476347 L 410 335.098574960932 L 417.5 345.37478470739234 L 425 355.16778784387094 L 432.5 364.41720724952745 L 440 373.06601717798213 L 447.5 381.0608948400046 L 455 388.3525491562421 L 462.5 394.89602465311384 L 470 400.6509786282552 L 477.5 405.58192987669304 L 485 409.65847744427305 L 492.5 412.85548805965146 L 500 415.1532510892706 L 507.5 416.5376000599692 L 515 417 L 522.5 416.5376000599692 L 530 415.15325108927067 L 537.5 412.85548805965146 L 545 409.65847744427305 L 552.5 405.58192987669304 L 560 400.6509786282552 L 567.5 394.8960246531139 L 575 388.35254915624216 L 582.5 381.0608948400046 L 590 373.06601717798213 L 597.5 364.4172072495275 L 605 355.167787843871 L 612.5 345.37478470739245 L 620 335.09857496093207 L 627.5 324.4025148547636 L 635 313.35254915624216 L 642.5 302.01680457838575 L 650 290.4651697560347 L 657.5 278.76886435917675 " stroke="steelblue" stroke-width="2" fill="none" /></svg>