<svg xmlns="http://www.w3.org/2000/svg" width="840" height="541" fill="black"><rect width="100%" height="100%" fill="white" /><line x1="65" y1="492" x2="665" y2="492" stroke="black" stroke-width="1" /><line x1="65" y1="42" x2="65" y2="492" stroke="black" stroke-width="1" /><line x1="215" y1="42" x2="215" y2="492" stroke="#ccc" stroke-width="1" /><line x1="365" y1="42" x2="365" y2="492" stroke="#ccc" stroke-width="1" /><line x1="515" y1="42" x2="515" y2="492" stroke="#ccc" stroke-width="1" /><line x1="665" y1="42" x2="665" y2="492" stroke="#ccc" stroke-width="1" /><line x1="65" y1="417" x2="665" y2="417" stroke="#ccc" stroke-width="1" /><line x1="65" y1="342" x2="665" y2="342" stroke="#ccc" stroke-width="1" /><line x1="65" y1="267" x2="665" y2="267" stroke="#ccc" stroke-width="1" /><line x1="65" y1="192" x2="665" y2="192" stroke="#ccc" stroke-width="1" /><line x1="65" y1="117" x2="665" y2="117" stroke="#ccc" stroke-width="1" /><line x1="65" y1="42" x2="665" y2="42" stroke="#ccc" stroke-width="1" /><line x1="65" y1="492" x2="65" y2="497" stroke="black" stroke-width="1" /><text x="65" y="507" font-size="10" text-anchor="middle">0</text><line x1="215" y1="492" x2="215" y2="497" stroke="black" stroke-width="1" /><text x="215" y="507" font-size="10" text-anchor="middle">20</text><line x1="365" y1="492" x2="365" y2="497" stroke="black" stroke-width="1" /><text x="365" y="507" font-size="10" text-anchor="middle">40</text><line x1="515" y1="492" x2="515" y2="497" stroke="black" stroke-width="1" /><text x="515" y="507" font-size="10" text-anchor="middle">60</text><line x1="665" y1="492" x2="665" y2="497" stroke="black" stroke-width="1" /><text x="665" y="507" font-size="10" text-anchor="middle">80</text><line x1="60" y1="492" x2="65" y2="492" stroke="black" stroke-width="1" /><text x="57" y="495.5" font-size="10" text-anchor="end">-1.5</text><line x1="60" y1="417" x2="65" y2="417" stroke="black" stroke-width="1" /><text x="57" y="420.5" font-size="10" text-anchor="end">-1</text><line x1="60" y1="342" x2="65" y2="342" stroke="black" stroke-width="1" /><text x="57" y="345.5" font-size="10" text-anchor="end">-0.5</text><line x1="60" y1="267" x2="65" y2="267" stroke="black" stroke-width="1" /><text x="57" y="270.5" font-size="10" text-anchor="end">0</text><line x1="60" y1="192" x2="65" y2="192" stroke="black" stroke-width="1" /><text x="57" y="195.5" font-size="10" text-anchor="end">0.5</text><line x1="60" y1="117" x2="65" y2="117" stroke="black" stroke-width="1" /><text x="57" y="120.5" font-size="10" text-anchor="end">1</text><line x1="60" y1="42" x2="65" y2="42" stroke="black" stroke-width="1" /><text x="57" y="45.5" font-size="10" text-anchor="end">1.5</text><text x="420" y="534" font-size="14" text-anchor="middle">Sample</text><text x="14" y="270.5" font-size="14" text-anchor="middle" transform="rotate(-90,14,270.5)">Amplitude</text><text x="420" y="21" font-size="16" text-anchor="middle">Multiple Series</text><path d="M 65 267 L 72.5 255.23113564082325 L 80 243.5348302439654 L 87.5 231.9831954216142 L 95 220.64745084375784 L 102.5 209.59748514523653 L 110 198.901425039068 L 117.5 188.62521529260766 L 125 178.832212156129 L 132.5 169.58279275047238 L 140 160.93398282201792 L 147.5 152.93910515999545 L 155 145.6474508437579 L 162.5 139.10397534688616 L 170 133.34902137174487 L 177.5 128.41807012330696 L 185 124.34152255572695 L 192.5 121.14451194034848 L 200 118.84674891072933 L 207.5 117.46239994003082 L 215 117 L 222.5 117.46239994003082 L 230 118.84674891072933 L 237.5 121.14451194034848 L 245 124.34152255572695 L 252.5 128.41807012330696 L 260 133.34902137174487 L 267.5 139.10397534688616 L 275 145.6474508437579 L 282.5 152.93910515999534 L 290 160.93398282201792 L 297.5 169.58279275047238 L 305 178.832212156129 L 312.5 188.62521529260766 L 320 198.901425039068 L 327.5 209.59748514523653 L 335 220.64745084375784 L 342.5 231.98319542161414 L 350 243.5348302439654 L 357.5 255.23113564082325 L 365 266.99999999999994 L 372.5 278.76886435917663 L 380 290.4651697560346 L 387.5 302.0168045783858 L 395 313.35254915624205 L 402.5 324.40251485476347 L 410 335.098574960932 L 417.5 345.37478470739234 L 425 355.16778784387094 L 432.5 364.41720724952745 L 440 373.06601717798213 L 447.5 381.0608948400046 L 455 388.3525491562421 L 462.5 394.89602465311384 L 470 400.6509786282552 L 477.5 405.58192987669304 L 485 409.65847744427305 L 492.5 412.85548805965146 L 500 415.1532510892706 L 507.5 416.5376000599692 L 515 417 L 522.5 416.5376000599692 L 530 415.15325108927067 L 537.5 412.85548805965146 L 545 409.65847744427305 L 552.5 405.58192987669304 L 560 400.6509786282552 L 567.5 394.8960246531139 L 575 388.35254915624216 L 582.5 381.0608948400046 L 590 373.06601717798213 L 597.5 364.4172072495275 L 605 355.167787843871 L 612.5 345.37478470739245 L 620 335.09857496093207 L 627.5 324.4025148547636 L 635 313.35254915624216 L 642.5 302.01680457838575 L 650 290.4651697560347 L 657.5 278.76886435917675 " stroke="steelblue" stroke-width="2" fill="none" /><path d="M 65 117 L 72.5 117.46239994003082 L 80 118.84674891072933 L 87.5 121.14451194034848 L 95 124.34152255572695 L 102.5 128.41807012330696 L 110 133.34902137174487 L 117.5 139.10397534688616 L 125 145.6474508437579 L 132.5 152.93910515999534 L 140 160.93398282201792 L 147.5 169.58279275047238 L 155 178.832212156129 L 162.5 188.62521529260766 L 170 198.901425039068 L 177.5 209.59748514523653 L 185 220.64745084375784 L 192.5 231.98319542161414 L 200 243.5348302439654 L 207.5 255.23113564082325 L 215 267 L 222.5 278.76886435917675 L 230 290.4651697560346 L 237.5 302.0168045783858 L 245 313.3525491562421 L 252.5 324.40251485476347 L 260 335.098574960932 L 267.5 345.37478470739234 L 275 355.16778784387094 L 282.5 364.4172072495275 L 290 373.06601717798213 L 297.5 381.0608948400046 L 305 388.3525491562421 L 312.5 394.89602465311384 L 320 400.6509786282552 L 327.5 405.58192987669304 L 335 409.65847744427305 L 342.5 412.85548805965146 L 350 415.1532510892706 L 357.5 416.5376000599692 L 365 417 L 372.5 416.53760005996924 L 380 415.15325108927067 L 387.5 412.8554880596515 L 395 409.65847744427305 L 402.5 405.58192987669304 L 410 400.6509786282552 L 417.5 394.89602465311384 L 425 388.35254915624216 L 432.5 381.0608948400047 L 440 373.06601717798213 L 447.5 364.4172072495276 L 455 355.167787843871 L 462.5 345.37478470739234 L 470 335.09857496093207 L 477.5 324.40251485476347 L 485 313.3525491562421 L 492.5 302.01680457838586 L 500 290.46516975603464 L 507.5 278.7688643591768 L 515 267 L 522.5 255.2311356408232 L 530 243.5348302439654 L 537.5 231.98319542161414 L 545 220.6474508437579 L 552.5 209.59748514523665 L 560 198.901425039068 L 567.5 188.62521529260772 L 575 178.83221215612906 L 582.5 169.58279275047238 L 590 160.93398282201792 L 597.5 152.93910515999534 L 605 145.6474508437579 L 612.5 139.10397534688627 L 620 133.34902137174487 L 627.5 128.41807012330702 L 635 124.34152255572695 L 642.5 121.14451194034848 L 650 118.84674891072933 L 657.5 117.46239994003082 " stroke="firebrick" stroke-width="2" fill="none" /><path d="M 65 267 L 72.5 255.6843409577497 L 80 245.3072659663661 L 87.5 235.87478219333445 L 95 227.38544283855566 L 102.5 219.8309208899305 L 110 213.19659052863386 L 117.5 207.46211129755852 L 125 202.60201049503058 L 132.5 198.5862596118243 L 140 195.3808409895267 L 147.5 192.948301239466 L 155 191.2482883209379 L 162.5 190.23806953282048 L 170 189.8730280215225 L 177.5 190.10713574848836 L 185 190.89340119029157 L 192.5 192.18429036204884 L 200 193.9321200590337 L 207.5 196.08942250072795 L 215 198.60928083510055 L 222.5 201.4456352178106 L 230 204.55355942064375 L 237.5 207.88950814534888 L 245 211.41153542282933 L 252.5 215.07948466322796 L 260 218.85515108981787 L 267.5 222.7024174389071 L 275 226.58736393945355 L 282.5 230.4783537001224 L 290 234.3460947285896 L 297.5 238.16367988855347 L 305 241.90660616480798 L 312.5 245.55277465656886 L 320 249.0824727547882 L 327.5 252.4783399812659 L 335 255.72531897682228 L 342.5 258.81059312351215 L 350 261.7235122727459 L 357.5 264.4555080281543 L 365 267 L 372.5 269.35229440783263 L 380 271.50947636080156 L 387.5 273.4702970914748 L 395 275.2350573600441 L 402.5 276.8054881822568 L 410 278.18462996713413 L 417.5 279.37671108028235 L 425 280.3870267761339 L 432.5 281.221819368465 L 440 281.888160433695 L 447.5 282.39383576639403 L 455 282.7472337316885 L 462.5 282.95723758538395 L 470 283.033122260103 L 477.5 282.9844560450009 L 485 282.8210075180596 L 492.5 282.5526580239189 L 500 282.1893199269764 L 507.5 281.7408608093366 L 515 281.2170337263232 L 522.5 280.62741357886483 L 530 279.9813396122496 L 537.5 279.28786400463 L 545 278.5557064662916 L 552.5 277.79321473212144 L 560 277.0083307949201 L 567.5 276.2085626961629 L 575 275.40096166348394 L 582.5 274.59210436045095 L 590 273.78807999401874 L 597.5 272.9944820082825 L 605 272.21640407966254 L 612.5 271.45844011829183 L 620 270.7246879729879 L 627.5 270.01875653260424 L 635 269.34377591458815 L 642.5 268.7024104320483 L 650 268.0968740333616 L 657.5 267.5289479131352 " stroke="seagreen" stroke-width="1.5" fill="none" /><rect x="670" y="32" width="161" height="74" fill="white" /><rect x="670" y="32" width="161" height="74" fill="none" stroke="black" stroke-width="1" /><text x="700" y="47" font-size="12" text-anchor="start">sin(t)</text><circle cx="686" cy="43" r="5" fill="steelblue" /><text x="700" y="65" font-size="12" text-anchor="start">cos(t)</text><circle cx="686" cy="61" r="5" fill="firebrick" /><text x="700" y="83" font-size="12" text-anchor="start">e^(−t/2)·sin(t)</text><circle cx="686" cy="79" r="5" fill="seagreen" /></svg>