<svg xmlns="http://www.w3.org/2000/svg" width="759" height="541" fill="black"><rect width="100%" height="100%" fill="white" /><line x1="65" y1="492" x2="665" y2="492" stroke="black" stroke-width="1" /><line x1="65" y1="42" x2="65" y2="492" stroke="black" stroke-width="1" /><line x1="215" y1="42" x2="215" y2="492" stroke="#ccc" stroke-width="1" /><line x1="365" y1="42" x2="365" y2="492" stroke="#ccc" stroke-width="1" /><line x1="515" y1="42" x2="515" y2="492" stroke="#ccc" stroke-width="1" /><line x1="665" y1="42" x2="665" y2="492" stroke="#ccc" stroke-width="1" /><line x1="65" y1="379.5" x2="665" y2="379.5" stroke="#ccc" stroke-width="1" /><line x1="65" y1="267" x2="665" y2="267" stroke="#ccc" stroke-width="1" /><line x1="65" y1="154.5" x2="665" y2="154.5" stroke="#ccc" stroke-width="1" /><line x1="65" y1="42" x2="665" y2="42" stroke="#ccc" stroke-width="1" /><line x1="65" y1="492" x2="65" y2="497" stroke="black" stroke-width="1" /><text x="65" y="507" font-size="10" text-anchor="middle">0</text><line x1="215" y1="492" x2="215" y2="497" stroke="black" stroke-width="1" /><text x="215" y="507" font-size="10" text-anchor="middle">20</text><line x1="365" y1="492" x2="365" y2="497" stroke="black" stroke-width="1" /><text x="365" y="507" font-size="10" text-anchor="middle">40</text><line x1="515" y1="492" x2="515" y2="497" stroke="black" stroke-width="1" /><text x="515" y="507" font-size="10" text-anchor="middle">60</text><line x1="665" y1="492" x2="665" y2="497" stroke="black" stroke-width="1" /><text x="665" y="507" font-size="10" text-anchor="middle">80</text><line x1="60" y1="492" x2="65" y2="492" stroke="black" stroke-width="1" /><text x="57" y="495.5" font-size="10" text-anchor="end">-1</text><line x1="60" y1="379.5" x2="65" y2="379.5" stroke="black" stroke-width="1" /><text x="57" y="383" font-size="10" text-anchor="end">-0.5</text><line x1="60" y1="267" x2="65" y2="267" stroke="black" stroke-width="1" /><text x="57" y="270.5" font-size="10" text-anchor="end">0</text><line x1="60" y1="154.5" x2="65" y2="154.5" stroke="black" stroke-width="1" /><text x="57" y="158" font-size="10" text-anchor="end">0.5</text><line x1="60" y1="42" x2="65" y2="42" stroke="black" stroke-width="1" /><text x="57" y="45.5" font-size="10" text-anchor="end">1</text><text x="379.5" y="534" font-size="14" text-anchor="middle">Sample</text><text x="14" y="270.5" font-size="14" text-anchor="middle" transform="rotate(-90,14,270.5)">Amplitude</text><text x="379.5" y="21" font-size="16" text-anchor="middle">Custom Stroke &amp; Point Size</text><path d="M 65 267 L 72.5 233.5891414009613 L 80 201.15788663352868 L 87.5 170.63704987013392 L 95 142.86252914532793 L 102.5 118.53435927334294 L 110 98.18317456843016 L 117.5 82.14590291192536 L 125 70.55200338427068 L 132.5 63.32097803180744 L 140 60.171266502934884 L 147.5 60.640004621666435 L 155 64.11252914532787 L 162.5 69.85997405869978 L 170 77.08285844783285 L 177.5 84.95823686960404 L 185 92.6877883633324 L 192.5 99.54417058852482 L 200 104.91306374880884 L 207.5 108.3285695368894 L 215 109.5 L 222.5 108.3285695368894 L 230 104.9130637488089 L 237.5 99.54417058852482 L 245 92.6877883633324 L 252.5 84.9582368696041 L 260 77.08285844783285 L 267.5 69.85997405869966 L 275 64.11252914532787 L 282.5 60.64000462166649 L 290 60.171266502934884 L 297.5 63.32097803180744 L 305 70.55200338427068 L 312.5 82.14590291192536 L 320 98.18317456843016 L 327.5 118.53435927334294 L 335 142.86252914532787 L 342.5 170.6370498701338 L 350 201.15788663352868 L 357.5 233.58914140096124 L 365 266.99999999999994 L 372.5 300.4108585990384 L 380 332.84211336647127 L 387.5 363.3629501298661 L 395 391.1374708546719 L 402.5 415.465640726657 L 410 435.8168254315698 L 417.5 451.8540970880747 L 425 463.4479966157293 L 432.5 470.6790219681925 L 440 473.8287334970652 L 447.5 473.35999537833356 L 455 469.88747085467213 L 462.5 464.1400259413003 L 470 456.91714155216715 L 477.5 449.04176313039585 L 485 441.31221163666766 L 492.5 434.45582941147524 L 500 429.08693625119116 L 507.5 425.6714304631107 L 515 424.5 L 522.5 425.6714304631106 L 530 429.08693625119116 L 537.5 434.4558294114752 L 545 441.3122116366676 L 552.5 449.0417631303958 L 560 456.9171415521671 L 567.5 464.1400259413002 L 575 469.887470854672 L 582.5 473.3599953783336 L 590 473.8287334970652 L 597.5 470.67902196819256 L 605 463.4479966157294 L 612.5 451.85409708807475 L 620 435.8168254315699 L 627.5 415.4656407266573 L 635 391.13747085467213 L 642.5 363.36295012986614 L 650 332.8421133664714 L 657.5 300.41085859903853 " stroke="darkorchid" stroke-width="1.5" fill="none" /><circle cx="65" cy="267" r="4" fill="darkorchid" /><circle cx="72.5" cy="233.5891414009613" r="4" fill="darkorchid" /><circle cx="80" cy="201.15788663352868" r="4" fill="darkorchid" /><circle cx="87.5" cy="170.63704987013392" r="4" fill="darkorchid" /><circle cx="95" cy="142.86252914532793" r="4" fill="darkorchid" /><circle cx="102.5" cy="118.53435927334294" r="4" fill="darkorchid" /><circle cx="110" cy="98.18317456843016" r="4" fill="darkorchid" /><circle cx="117.5" cy="82.14590291192536" r="4" fill="darkorchid" /><circle cx="125" cy="70.55200338427068" r="4" fill="darkorchid" /><circle cx="132.5" cy="63.32097803180744" r="4" fill="darkorchid" /><circle cx="140" cy="60.171266502934884" r="4" fill="darkorchid" /><circle cx="147.5" cy="60.640004621666435" r="4" fill="darkorchid" /><circle cx="155" cy="64.11252914532787" r="4" fill="darkorchid" /><circle cx="162.5" cy="69.85997405869978" r="4" fill="darkorchid" /><circle cx="170" cy="77.08285844783285" r="4" fill="darkorchid" /><circle cx="177.5" cy="84.95823686960404" r="4" fill="darkorchid" /><circle cx="185" cy="92.6877883633324" r="4" fill="darkorchid" /><circle cx="192.5" cy="99.54417058852482" r="4" fill="darkorchid" /><circle cx="200" cy="104.91306374880884" r="4" fill="darkorchid" /><circle cx="207.5" cy="108.3285695368894" r="4" fill="darkorchid" /><circle cx="215" cy="109.5" r="4" fill="darkorchid" /><circle cx="222.5" cy="108.3285695368894" r="4" fill="darkorchid" /><circle cx="230" cy="104.9130637488089" r="4" fill="darkorchid" /><circle cx="237.5" cy="99.54417058852482" r="4" fill="darkorchid" /><circle cx="245" cy="92.6877883633324" r="4" fill="darkorchid" /><circle cx="252.5" cy="84.9582368696041" r="4" fill="darkorchid" /><circle cx="260" cy="77.08285844783285" r="4" fill="darkorchid" /><circle cx="267.5" cy="69.85997405869966" r="4" fill="darkorchid" /><circle cx="275" cy="64.11252914532787" r="4" fill="darkorchid" /><circle cx="282.5" cy="60.64000462166649" r="4" fill="darkorchid" /><circle cx="290" cy="60.171266502934884" r="4" fill="darkorchid" /><circle cx="297.5" cy="63.32097803180744" r="4" fill="darkorchid" /><circle cx="305" cy="70.55200338427068" r="4" fill="darkorchid" /><circle cx="312.5" cy="82.14590291192536" r="4" fill="darkorchid" /><circle cx="320" cy="98.18317456843016" r="4" fill="darkorchid" /><circle cx="327.5" cy="118.53435927334294" r="4" fill="darkorchid" /><circle cx="335" cy="142.86252914532787" r="4" fill="darkorchid" /><circle cx="342.5" cy="170.6370498701338" r="4" fill="darkorchid" /><circle cx="350" cy="201.15788663352868" r="4" fill="darkorchid" /><circle cx="357.5" cy="233.58914140096124" r="4" fill="darkorchid" /><circle cx="365" cy="266.99999999999994" r="4" fill="darkorchid" /><circle cx="372.5" cy="300.4108585990384" r="4" fill="darkorchid" /><circle cx="380" cy="332.84211336647127" r="4" fill="darkorchid" /><circle cx="387.5" cy="363.3629501298661" r="4" fill="darkorchid" /><circle cx="395" cy="391.1374708546719" r="4" fill="darkorchid" /><circle cx="402.5" cy="415.465640726657" r="4" fill="darkorchid" /><circle cx="410" cy="435.8168254315698" r="4" fill="darkorchid" /><circle cx="417.5" cy="451.8540970880747" r="4" fill="darkorchid" /><circle cx="425" cy="463.4479966157293" r="4" fill="darkorchid" /><circle cx="432.5" cy="470.6790219681925" r="4" fill="darkorchid" /><circle cx="440" cy="473.8287334970652" r="4" fill="darkorchid" /><circle cx="447.5" cy="473.35999537833356" r="4" fill="darkorchid" /><circle cx="455" cy="469.88747085467213" r="4" fill="darkorchid" /><circle cx="462.5" cy="464.1400259413003" r="4" fill="darkorchid" /><circle cx="470" cy="456.91714155216715" r="4" fill="darkorchid" /><circle cx="477.5" cy="449.04176313039585" r="4" fill="darkorchid" /><circle cx="485" cy="441.31221163666766" r="4" fill="darkorchid" /><circle cx="492.5" cy="434.45582941147524" r="4" fill="darkorchid" /><circle cx="500" cy="429.08693625119116" r="4" fill="darkorchid" /><circle cx="507.5" cy="425.6714304631107" r="4" fill="darkorchid" /><circle cx="515" cy="424.5" r="4" fill="darkorchid" /><circle cx="522.5" cy="425.6714304631106" r="4" fill="darkorchid" /><circle cx="530" cy="429.08693625119116" r="4" fill="darkorchid" /><circle cx="537.5" cy="434.4558294114752" r="4" fill="darkorchid" /><circle cx="545" cy="441.3122116366676" r="4" fill="darkorchid" /><circle cx="552.5" cy="449.0417631303958" r="4" fill="darkorchid" /><circle cx="560" cy="456.9171415521671" r="4" fill="darkorchid" /><circle cx="567.5" cy="464.1400259413002" r="4" fill="darkorchid" /><circle cx="575" cy="469.887470854672" r="4" fill="darkorchid" /><circle cx="582.5" cy="473.3599953783336" r="4" fill="darkorchid" /><circle cx="590" cy="473.8287334970652" r="4" fill="darkorchid" /><circle cx="597.5" cy="470.67902196819256" r="4" fill="darkorchid" /><circle cx="605" cy="463.4479966157294" r="4" fill="darkorchid" /><circle cx="612.5" cy="451.85409708807475" r="4" fill="darkorchid" /><circle cx="620" cy="435.8168254315699" r="4" fill="darkorchid" /><circle cx="627.5" cy="415.4656407266573" r="4" fill="darkorchid" /><circle cx="635" cy="391.13747085467213" r="4" fill="darkorchid" /><circle cx="642.5" cy="363.36295012986614" r="4" fill="darkorchid" /><circle cx="650" cy="332.8421133664714" r="4" fill="darkorchid" /><circle cx="657.5" cy="300.41085859903853" r="4" fill="darkorchid" /><rect x="670" y="32" width="80" height="38" fill="white" /><rect x="670" y="32" width="80" height="38" fill="none" stroke="black" stroke-width="1" /><text x="700" y="47" font-size="12" text-anchor="start">signal</text><circle cx="686" cy="43" r="5" fill="darkorchid" /></svg>