<svg xmlns="http://www.w3.org/2000/svg" width="679" height="541" fill="black"><rect width="100%" height="100%" fill="white" /><line x1="65" y1="492" x2="665" y2="492" stroke="black" stroke-width="1" /><line x1="65" y1="42" x2="65" y2="492" stroke="black" stroke-width="1" /><line x1="165" y1="42" x2="165" y2="492" stroke="#ccc" stroke-width="1" /><line x1="265" y1="42" x2="265" y2="492" stroke="#ccc" stroke-width="1" /><line x1="365" y1="42" x2="365" y2="492" stroke="#ccc" stroke-width="1" /><line x1="465" y1="42" x2="465" y2="492" stroke="#ccc" stroke-width="1" /><line x1="565" y1="42" x2="565" y2="492" stroke="#ccc" stroke-width="1" /><line x1="665" y1="42" x2="665" y2="492" stroke="#ccc" stroke-width="1" /><line x1="65" y1="417" x2="665" y2="417" stroke="#ccc" stroke-width="1" /><line x1="65" y1="342" x2="665" y2="342" stroke="#ccc" stroke-width="1" /><line x1="65" y1="267" x2="665" y2="267" stroke="#ccc" stroke-width="1" /><line x1="65" y1="192" x2="665" y2="192" stroke="#ccc" stroke-width="1" /><line x1="65" y1="117" x2="665" y2="117" stroke="#ccc" stroke-width="1" /><line x1="65" y1="42" x2="665" y2="42" stroke="#ccc" stroke-width="1" /><line x1="65" y1="492" x2="65" y2="497" stroke="black" stroke-width="1" /><text x="65" y="507" font-size="10" text-anchor="middle">0</text><line x1="165" y1="492" x2="165" y2="497" stroke="black" stroke-width="1" /><text x="165" y="507" font-size="10" text-anchor="middle">5</text><line x1="265" y1="492" x2="265" y2="497" stroke="black" stroke-width="1" /><text x="265" y="507" font-size="10" text-anchor="middle">10</text><line x1="365" y1="492" x2="365" y2="497" stroke="black" stroke-width="1" /><text x="365" y="507" font-size="10" text-anchor="middle">15</text><line x1="465" y1="492" x2="465" y2="497" stroke="black" stroke-width="1" /><text x="465" y="507" font-size="10" text-anchor="middle">20</text><line x1="565" y1="492" x2="565" y2="497" stroke="black" stroke-width="1" /><text x="565" y="507" font-size="10" text-anchor="middle">25</text><line x1="665" y1="492" x2="665" y2="497" stroke="black" stroke-width="1" /><text x="665" y="507" font-size="10" text-anchor="middle">30</text><line x1="60" y1="492" x2="65" y2="492" stroke="black" stroke-width="1" /><text x="57" y="495.5" font-size="10" text-anchor="end">-1.5</text><line x1="60" y1="417" x2="65" y2="417" stroke="black" stroke-width="1" /><text x="57" y="420.5" font-size="10" text-anchor="end">-1</text><line x1="60" y1="342" x2="65" y2="342" stroke="black" stroke-width="1" /><text x="57" y="345.5" font-size="10" text-anchor="end">-0.5</text><line x1="60" y1="267" x2="65" y2="267" stroke="black" stroke-width="1" /><text x="57" y="270.5" font-size="10" text-anchor="end">0</text><line x1="60" y1="192" x2="65" y2="192" stroke="black" stroke-width="1" /><text x="57" y="195.5" font-size="10" text-anchor="end">0.5</text><line x1="60" y1="117" x2="65" y2="117" stroke="black" stroke-width="1" /><text x="57" y="120.5" font-size="10" text-anchor="end">1</text><line x1="60" y1="42" x2="65" y2="42" stroke="black" stroke-width="1" /><text x="57" y="45.5" font-size="10" text-anchor="end">1.5</text><text x="339.5" y="534" font-size="14" text-anchor="middle">Sample</text><text x="14" y="270.5" font-size="14" text-anchor="middle" transform="rotate(-90,14,270.5)">Amplitude</text><text x="339.5" y="21" font-size="16" text-anchor="middle">SeriesStyle::Point</text><circle cx="65" cy="267" r="3" fill="steelblue" /><circle cx="85" cy="235.8132463773361" r="3" fill="steelblue" /><circle cx="105" cy="205.98950353863" r="3" fill="steelblue" /><circle cx="125" cy="178.832212156129" r="3" fill="steelblue" /><circle cx="145" cy="155.5282761783909" r="3" fill="steelblue" /><circle cx="165" cy="137.09618943233426" r="3" fill="steelblue" /><circle cx="185" cy="124.34152255572695" r="3" fill="steelblue" /><circle cx="205" cy="117.82171569475895" r="3" fill="steelblue" /><circle cx="225" cy="117.82171569475895" r="3" fill="steelblue" /><circle cx="245" cy="124.34152255572695" r="3" fill="steelblue" /><circle cx="265" cy="137.09618943233414" r="3" fill="steelblue" /><circle cx="285" cy="155.52827617839085" r="3" fill="steelblue" /><circle cx="305" cy="178.832212156129" r="3" fill="steelblue" /><circle cx="325" cy="205.98950353863" r="3" fill="steelblue" /><circle cx="345" cy="235.8132463773361" r="3" fill="steelblue" /><circle cx="365" cy="266.9999999999999" r="3" fill="steelblue" /><circle cx="385" cy="298.1867536226639" r="3" fill="steelblue" /><circle cx="405" cy="328.01049646137005" r="3" fill="steelblue" /><circle cx="425" cy="355.16778784387094" r="3" fill="steelblue" /><circle cx="445" cy="378.4717238216091" r="3" fill="steelblue" /><circle cx="465" cy="396.90381056766574" r="3" fill="steelblue" /><circle cx="485" cy="409.65847744427305" r="3" fill="steelblue" /><circle cx="504.99999999999994" cy="416.178284305241" r="3" fill="steelblue" /><circle cx="525" cy="416.178284305241" r="3" fill="steelblue" /><circle cx="545" cy="409.65847744427305" r="3" fill="steelblue" /><circle cx="565" cy="396.9038105676658" r="3" fill="steelblue" /><circle cx="585" cy="378.4717238216091" r="3" fill="steelblue" /><circle cx="605" cy="355.167787843871" r="3" fill="steelblue" /><circle cx="625" cy="328.01049646137005" r="3" fill="steelblue" /><circle cx="645" cy="298.18675362266384" r="3" fill="steelblue" /></svg>