<svg xmlns="http://www.w3.org/2000/svg" width="679" height="541" fill="black"><rect width="100%" height="100%" fill="white" /><text x="339.5" y="21" font-size="16" text-anchor="middle">Rectangular Tree</text><line x1="90" y1="147" x2="342.5" y2="147" stroke="black" stroke-width="1.5" /><line x1="342.5" y1="107" x2="595" y2="107" stroke="black" stroke-width="1.5" /><line x1="342.5" y1="187" x2="595" y2="187" stroke="black" stroke-width="1.5" /><line x1="90" y1="307" x2="342.5" y2="307" stroke="black" stroke-width="1.5" /><line x1="342.5" y1="267" x2="595" y2="267" stroke="black" stroke-width="1.5" /><line x1="342.5" y1="347" x2="595" y2="347" stroke="black" stroke-width="1.5" /><line x1="90" y1="427" x2="595" y2="427" stroke="black" stroke-width="1.5" /><line x1="90" y1="147" x2="90" y2="427" stroke="black" stroke-width="1.5" /><line x1="342.5" y1="107" x2="342.5" y2="187" stroke="black" stroke-width="1.5" /><line x1="342.5" y1="267" x2="342.5" y2="347" stroke="black" stroke-width="1.5" /><circle cx="90" cy="293.66666666666663" r="3" fill="black" /><text x="601" y="107" font-size="11" text-anchor="start">TaxonA</text><text x="601" y="187" font-size="11" text-anchor="start">TaxonB</text><text x="601" y="267" font-size="11" text-anchor="start">TaxonC</text><text x="601" y="347" font-size="11" text-anchor="start">TaxonD</text><text x="601" y="427" font-size="11" text-anchor="start">TaxonE</text><text x="344.5" y="145" font-size="10" text-anchor="start">95</text><text x="344.5" y="305" font-size="10" text-anchor="start">88</text></svg>