<svg xmlns="http://www.w3.org/2000/svg" width="679" height="541" fill="black"><rect width="100%" height="100%" fill="white" /><text x="339.5" y="21" font-size="16" text-anchor="middle">Circular Tree — 20 Taxa</text><line x1="365" y1="267" x2="344.8990392936071" y2="281.60420280695917" stroke="black" stroke-width="1.5" /><line x1="372.677883783316" y1="290.63009652025653" x2="388.033651349948" y2="337.89028956076953" stroke="black" stroke-width="1.5" /><line x1="425.3028821191788" y1="310.81260842087744" x2="455.45432317876816" y2="332.71891263131613" stroke="black" stroke-width="1.5" /><line x1="471.33543434115427" y1="301.55047702492203" x2="499.6915501654621" y2="310.7639375649012" stroke="black" stroke-width="1.5" /><line x1="504.87946183613144" y1="289.154730275813" x2="517.149590067371" y2="291.09812766842816" stroke="black" stroke-width="1.5" /><line x1="491.18708551409264" y1="331.29553146695997" x2="508.89755365642145" y2="340.3194657079368" stroke="black" stroke-width="1.5" /><line x1="430.71891263131613" y1="357.45432317876816" x2="445.3231154382753" y2="377.5552838851611" stroke="black" stroke-width="1.5" /><line x1="461.6288612906078" y1="363.6288612906078" x2="473.92708000032155" y2="375.92708000032155" stroke="black" stroke-width="1.5" /><line x1="427.03954790671577" y1="388.7594684785104" x2="433.8074985874484" y2="402.042319585257" stroke="black" stroke-width="1.5" /><line x1="341.966348650052" y1="337.89028956076953" x2="332.75288811007283" y2="366.24640538507737" stroke="black" stroke-width="1.5" /><line x1="365" y1="371.3538461538462" x2="365" y2="391.2307692307692" stroke="black" stroke-width="1.5" /><line x1="384.4339739261518" y1="389.70128231239596" x2="387.9320892328591" y2="411.7875131286272" stroke="black" stroke-width="1.5" /><line x1="345.5660260738482" y1="389.70128231239596" x2="341.2905518100948" y2="416.69556442112304" stroke="black" stroke-width="1.5" /><line x1="303.6623482107716" y1="351.4240349668503" x2="284.6768845617247" y2="377.5552838851611" stroke="black" stroke-width="1.5" /><line x1="302.96045209328423" y1="388.7594684785104" x2="296.1925014125516" y2="402.042319585257" stroke="black" stroke-width="1.5" /><line x1="268.3711387093922" y1="363.6288612906078" x2="250.8022548383726" y2="381.19774516162744" stroke="black" stroke-width="1.5" /><line x1="344.8990392936071" y1="252.39579719304086" x2="308.7173100220998" y2="226.10823214051442" stroke="black" stroke-width="1.5" /><line x1="295.4307692307692" y1="267" x2="258.16153846153844" y2="267" stroke="black" stroke-width="1.5" /><line x1="263.390584962897" y1="300.0149002682588" x2="239.7604884426405" y2="307.6927840515748" stroke="black" stroke-width="1.5" /><line x1="247.6681485570718" y1="326.78356434647156" x2="229.957680414743" y2="335.8074985874484" stroke="black" stroke-width="1.5" /><line x1="234.9366407488603" y1="287.60001236172087" x2="205.48833299388528" y2="292.2641661039973" stroke="black" stroke-width="1.5" /><line x1="263.390584962897" y1="233.98509973174117" x2="237.39747879061485" y2="225.53942757009355" stroke="black" stroke-width="1.5" /><line x1="232.48261510261236" y1="246.0113081597561" x2="220.21248687137273" y2="244.06791076714094" stroke="black" stroke-width="1.5" /><line x1="245.45434003928062" y1="206.08844387340642" x2="225.53006337916074" y2="195.93651785230747" stroke="black" stroke-width="1.5" /><line x1="343.5019254067152" y1="200.83572974328177" x2="332.7528881100728" y2="167.75359461492266" stroke="black" stroke-width="1.5" /><line x1="303.6623482107716" y1="182.5759650331497" x2="290.51856568450836" y2="164.48510039739608" stroke="black" stroke-width="1.5" /><line x1="275.3986922578" y1="177.39869225780004" x2="263.10047354808626" y2="165.1004735480863" stroke="black" stroke-width="1.5" /><line x1="307.47241921377264" y1="154.095765592654" x2="298.4484849727958" y2="136.3852974503252" stroke="black" stroke-width="1.5" /><line x1="365" y1="162.64615384615382" x2="365" y2="132.83076923076922" stroke="black" stroke-width="1.5" /><line x1="344.0113081597561" y1="134.48261510261236" x2="340.12451337452575" y2="109.9423586401332" stroke="black" stroke-width="1.5" /><line x1="385.98869184024386" y1="134.48261510261236" x2="388.3207687113821" y2="119.75846122512482" stroke="black" stroke-width="1.5" /><line x1="365" y1="267" x2="415.2524017659823" y2="230.48949298260214" stroke="black" stroke-width="1.5" /><line x1="401.51050701739786" y1="216.7475982340177" x2="430.71891263131613" y2="176.54567682123184" stroke="black" stroke-width="1.5" /><line x1="415.7596301054947" y1="167.37861669940054" x2="432.6795068073262" y2="134.17148893253406" stroke="black" stroke-width="1.5" /><line x1="444.0599774195882" y1="187.94002258041178" x2="465.14263806481176" y2="166.8573619351882" stroke="black" stroke-width="1.5" /><line x1="424.07524130064127" y1="247.80529054170998" x2="466.60941503710296" y2="233.98509973174117" stroke="black" stroke-width="1.5" /><line x1="460.19376626501725" y1="218.49635345474948" x2="477.904234407346" y2="209.47241921377264" stroke="black" stroke-width="1.5" /><line x1="470.5231027886605" y1="250.28678242350946" x2="495.0633592511397" y2="246.3999876382791" stroke="black" stroke-width="1.5" /><path d="M 372.678 290.630 A 24.846 24.846 0 0 1 344.899 252.396" stroke="black" stroke-width="1.5" fill="none" /><path d="M 425.303 310.813 A 74.538 74.538 0 0 1 341.966 337.890" stroke="black" stroke-width="1.5" fill="none" /><path d="M 471.335 301.550 A 111.808 111.808 0 0 1 430.719 357.454" stroke="black" stroke-width="1.5" fill="none" /><path d="M 504.879 289.155 A 141.623 141.623 0 0 1 491.187 331.296" stroke="black" stroke-width="1.5" fill="none" /><path d="M 461.629 363.629 A 136.654 136.654 0 0 1 427.040 388.759" stroke="black" stroke-width="1.5" fill="none" /><path d="M 365.000 371.354 A 104.354 104.354 0 0 1 303.662 351.424" stroke="black" stroke-width="1.5" fill="none" /><path d="M 384.434 389.701 A 124.231 124.231 0 0 1 345.566 389.701" stroke="black" stroke-width="1.5" fill="none" /><path d="M 302.960 388.759 A 136.654 136.654 0 0 1 268.371 363.629" stroke="black" stroke-width="1.5" fill="none" /><path d="M 295.431 267.000 A 69.569 69.569 0 0 1 343.502 200.836" stroke="black" stroke-width="1.5" fill="none" /><path d="M 263.391 300.015 A 106.838 106.838 0 0 1 263.391 233.985" stroke="black" stroke-width="1.5" fill="none" /><path d="M 247.668 326.784 A 131.685 131.685 0 0 1 234.937 287.600" stroke="black" stroke-width="1.5" fill="none" /><path d="M 232.483 246.011 A 134.169 134.169 0 0 1 245.454 206.088" stroke="black" stroke-width="1.5" fill="none" /><path d="M 303.662 182.576 A 104.354 104.354 0 0 1 365.000 162.646" stroke="black" stroke-width="1.5" fill="none" /><path d="M 275.399 177.399 A 126.715 126.715 0 0 1 307.472 154.096" stroke="black" stroke-width="1.5" fill="none" /><path d="M 344.011 134.483 A 134.169 134.169 0 0 1 385.989 134.483" stroke="black" stroke-width="1.5" fill="none" /><path d="M 401.511 216.748 A 62.115 62.115 0 0 1 424.075 247.805" stroke="black" stroke-width="1.5" fill="none" /><path d="M 415.760 167.379 A 111.808 111.808 0 0 1 444.060 187.940" stroke="black" stroke-width="1.5" fill="none" /><path d="M 460.194 218.496 A 106.838 106.838 0 0 1 470.523 250.287" stroke="black" stroke-width="1.5" fill="none" /><circle cx="365" cy="267" r="3" fill="black" /><text x="525.0510967921322" y="296.34960338875" font-size="11" text-anchor="start">Sp_A</text><text x="516.0256058499284" y="347.95138970585316" font-size="11" text-anchor="start">Sp_B</text><text x="479.5839342498139" y="385.5839342498139" font-size="11" text-anchor="start">Sp_C</text><text x="437.43942258536475" y="413.170371778764" font-size="11" text-anchor="start">Sp_D</text><text x="389.1835649531809" y="423.6890198533883" font-size="11" text-anchor="start">Sp_E</text><text x="340.039076089773" y="428.5970711458841" font-size="11" text-anchor="end">Sp_F</text><text x="292.56057741463525" y="413.170371778764" font-size="11" text-anchor="end">Sp_G</text><text x="245.14540058888022" y="390.8545994111198" font-size="11" text-anchor="end">Sp_H</text><text x="222.82962822123608" y="343.43942258536475" font-size="11" text-anchor="end">Sp_I</text><text x="197.58682626912417" y="297.5156418243191" font-size="11" text-anchor="end">Sp_J</text><text x="212.31098014661163" y="246.8164350468191" font-size="11" text-anchor="end">Sp_K</text><text x="218.4020111856538" y="196.3045938543911" font-size="11" text-anchor="end">Sp_L</text><text x="257.4436192985939" y="163.44361929859394" font-size="11" text-anchor="end">Sp_M</text><text x="294.81656097487945" y="133.25724525681827" font-size="11" text-anchor="end">Sp_N</text><text x="338.8730376542039" y="106.04085191537209" font-size="11" text-anchor="end">Sp_O</text><text x="389.5722444317039" y="115.85695450036371" font-size="11" text-anchor="start">Sp_P</text><text x="436.3114308052426" y="131.04343673902713" font-size="11" text-anchor="start">Sp_Q</text><text x="470.79949231430413" y="165.20050768569584" font-size="11" text-anchor="start">Sp_R</text><text x="485.03228660085296" y="209.84049521585627" font-size="11" text-anchor="start">Sp_S</text><text x="502.96486597590075" y="249.14851191795725" font-size="11" text-anchor="start">Sp_T</text></svg>