<svg xmlns="http://www.w3.org/2000/svg" width="679" height="541" fill="black"><rect width="100%" height="100%" fill="white" /><text x="339.5" y="21" font-size="16" text-anchor="middle">Phylogram (Top orientation)</text><line x1="200" y1="67" x2="200" y2="145.88888888888889" stroke="black" stroke-width="1.5" /><line x1="145" y1="145.88888888888889" x2="145" y2="224.77777777777777" stroke="black" stroke-width="1.5" /><line x1="255" y1="145.88888888888889" x2="255" y2="382.55555555555554" stroke="black" stroke-width="1.5" /><line x1="447.5" y1="67" x2="447.5" y2="224.77777777777777" stroke="black" stroke-width="1.5" /><line x1="365" y1="224.77777777777777" x2="365" y2="382.55555555555554" stroke="black" stroke-width="1.5" /><line x1="530" y1="224.77777777777777" x2="530" y2="303.66666666666663" stroke="black" stroke-width="1.5" /><line x1="475" y1="303.66666666666663" x2="475" y2="343.11111111111114" stroke="black" stroke-width="1.5" /><line x1="585" y1="303.66666666666663" x2="585" y2="422" stroke="black" stroke-width="1.5" /><line x1="200" y1="67" x2="447.5" y2="67" stroke="black" stroke-width="1.5" /><line x1="145" y1="145.88888888888889" x2="255" y2="145.88888888888889" stroke="black" stroke-width="1.5" /><line x1="365" y1="224.77777777777777" x2="530" y2="224.77777777777777" stroke="black" stroke-width="1.5" /><line x1="475" y1="303.66666666666663" x2="585" y2="303.66666666666663" stroke="black" stroke-width="1.5" /><circle cx="323.75" cy="67" r="3" fill="black" /><text x="149" y="238.77777777777777" font-size="11" text-anchor="start" transform="rotate(90,149,238.77777777777777)">A</text><text x="259" y="396.55555555555554" font-size="11" text-anchor="start" transform="rotate(90,259,396.55555555555554)">B</text><text x="369" y="396.55555555555554" font-size="11" text-anchor="start" transform="rotate(90,369,396.55555555555554)">C</text><text x="479" y="357.11111111111114" font-size="11" text-anchor="start" transform="rotate(90,479,357.11111111111114)">D</text><text x="589" y="436" font-size="11" text-anchor="start" transform="rotate(90,589,436)">E</text><text x="202" y="143.88888888888889" font-size="10" text-anchor="start">90</text><text x="532" y="301.66666666666663" font-size="10" text-anchor="start">85</text></svg>