<svg xmlns="http://www.w3.org/2000/svg" width="1200" height="900" font-family="DejaVu Sans, Liberation Sans, Arial, sans-serif" fill="black"><rect width="100%" height="100%" fill="white" /><defs><clipPath id="kuva-clip-6"><rect x="118" y="88" width="803.2" height="710"/></clipPath></defs><line x1="285.33" y1="88" x2="285.33" y2="798" stroke="#cccccc" stroke-width="2" /><line x1="452.67" y1="88" x2="452.67" y2="798" stroke="#cccccc" stroke-width="2" /><line x1="620" y1="88" x2="620" y2="798" stroke="#cccccc" stroke-width="2" /><line x1="787.33" y1="88" x2="787.33" y2="798" stroke="#cccccc" stroke-width="2" /><line x1="118" y1="620.5" x2="921.2" y2="620.5" stroke="#cccccc" stroke-width="2" /><line x1="118" y1="443" x2="921.2" y2="443" stroke="#cccccc" stroke-width="2" /><line x1="118" y1="265.5" x2="921.2" y2="265.5" stroke="#cccccc" stroke-width="2" /><line x1="118" y1="88" x2="921.2" y2="88" stroke="#cccccc" stroke-width="2" /><line x1="118" y1="798" x2="921.2" y2="798" stroke="#000000" stroke-width="2" /><line x1="118" y1="88" x2="118" y2="798" stroke="#000000" stroke-width="2" /><line x1="118" y1="798" x2="118" y2="808" stroke="#000000" stroke-width="2" /><text x="118" y="832" font-size="24" text-anchor="middle">0</text><line x1="285.33" y1="798" x2="285.33" y2="808" stroke="#000000" stroke-width="2" /><text x="285.33" y="832" font-size="24" text-anchor="middle">2.5</text><line x1="452.67" y1="798" x2="452.67" y2="808" stroke="#000000" stroke-width="2" /><text x="452.67" y="832" font-size="24" text-anchor="middle">5</text><line x1="620" y1="798" x2="620" y2="808" stroke="#000000" stroke-width="2" /><text x="620" y="832" font-size="24" text-anchor="middle">7.5</text><line x1="787.33" y1="798" x2="787.33" y2="808" stroke="#000000" stroke-width="2" /><text x="787.33" y="832" font-size="24" text-anchor="middle">10</text><line x1="108" y1="798" x2="118" y2="798" stroke="#000000" stroke-width="2" /><text x="102" y="806.4" font-size="24" text-anchor="end">0</text><line x1="108" y1="620.5" x2="118" y2="620.5" stroke="#000000" stroke-width="2" /><text x="102" y="628.9" font-size="24" text-anchor="end">5</text><line x1="108" y1="443" x2="118" y2="443" stroke="#000000" stroke-width="2" /><text x="102" y="451.40000000000003" font-size="24" text-anchor="end">10</text><line x1="108" y1="265.5" x2="118" y2="265.5" stroke="#000000" stroke-width="2" /><text x="102" y="273.90000000000003" font-size="24" text-anchor="end">15</text><line x1="108" y1="88" x2="118" y2="88" stroke="#000000" stroke-width="2" /><text x="102" y="96.4" font-size="24" text-anchor="end">20</text><text x="519.6" y="886" font-size="28" text-anchor="middle">Time (weeks)</text><text x="43" y="450" font-size="28" text-anchor="middle" transform="rotate(-90,43,450)">Count</text><text x="519.6" y="44" font-size="36" text-anchor="middle">Growth Rate</text><g clip-path="url(#kuva-clip-6)"><circle cx="184.93" cy="723.45" r="3" fill="#4682b4" /><circle cx="251.87" cy="663.1" r="3" fill="#4682b4" /><circle cx="318.8" cy="602.75" r="3" fill="#4682b4" /><circle cx="385.73" cy="549.5" r="3" fill="#4682b4" /><circle cx="452.67" cy="471.40000000000003" r="3" fill="#4682b4" /><circle cx="519.6" cy="414.6" r="3" fill="#4682b4" /><circle cx="586.53" cy="368.45" r="3" fill="#4682b4" /><circle cx="653.47" cy="283.25" r="3" fill="#4682b4" /><circle cx="720.4" cy="233.55" r="3" fill="#4682b4" /><circle cx="787.33" cy="159" r="3" fill="#4682b4" /><path d="M 184.93 730.5500000000001 L 787.33 151.9 " stroke="#dc143c" stroke-width="2" fill="none" /><line x1="118" y1="443" x2="921.2" y2="443" stroke="#ffa500" stroke-width="1" stroke-dasharray="6 4" /><text x="917.2" y="439" font-size="24" text-anchor="end">threshold</text><text x="720.4" y="227.55" font-size="11" text-anchor="middle">Peak</text></g><rect x="916.2" y="68" width="242.8" height="112" fill="#ffffff" /><rect x="916.2" y="68" width="242.8" height="112" fill="none" stroke="#000000" stroke-width="2" /><text x="981.2" y="107.4" font-size="24" text-anchor="start">Observations</text><circle cx="951.2" cy="99" r="10" fill="#4682b4" /><text x="981.2" y="143.4" font-size="24" text-anchor="start">Trend</text><line x1="941.2" y1="135" x2="965.2" y2="135" stroke="#dc143c" stroke-width="4" /></svg>