<svg xmlns="http://www.w3.org/2000/svg" width="679" height="541" fill="black"><rect width="100%" height="100%" fill="white" /><line x1="65" y1="492" x2="665" y2="492" stroke="black" stroke-width="1" /><line x1="65" y1="42" x2="65" y2="492" stroke="black" stroke-width="1" /><line x1="215" y1="42" x2="215" y2="492" stroke="#ccc" stroke-width="1" /><line x1="365" y1="42" x2="365" y2="492" stroke="#ccc" stroke-width="1" /><line x1="515" y1="42" x2="515" y2="492" stroke="#ccc" stroke-width="1" /><line x1="665" y1="42" x2="665" y2="492" stroke="#ccc" stroke-width="1" /><line x1="65" y1="402" x2="665" y2="402" stroke="#ccc" stroke-width="1" /><line x1="65" y1="312" x2="665" y2="312" stroke="#ccc" stroke-width="1" /><line x1="65" y1="222" x2="665" y2="222" stroke="#ccc" stroke-width="1" /><line x1="65" y1="132" x2="665" y2="132" stroke="#ccc" stroke-width="1" /><line x1="65" y1="42" x2="665" y2="42" stroke="#ccc" stroke-width="1" /><line x1="65" y1="492" x2="65" y2="497" stroke="black" stroke-width="1" /><text x="65" y="507" font-size="10" text-anchor="middle">-4</text><line x1="215" y1="492" x2="215" y2="497" stroke="black" stroke-width="1" /><text x="215" y="507" font-size="10" text-anchor="middle">-2</text><line x1="365" y1="492" x2="365" y2="497" stroke="black" stroke-width="1" /><text x="365" y="507" font-size="10" text-anchor="middle">0</text><line x1="515" y1="492" x2="515" y2="497" stroke="black" stroke-width="1" /><text x="515" y="507" font-size="10" text-anchor="middle">2</text><line x1="665" y1="492" x2="665" y2="497" stroke="black" stroke-width="1" /><text x="665" y="507" font-size="10" text-anchor="middle">4</text><line x1="60" y1="492" x2="65" y2="492" stroke="black" stroke-width="1" /><text x="57" y="495.5" font-size="10" text-anchor="end">0</text><line x1="60" y1="402" x2="65" y2="402" stroke="black" stroke-width="1" /><text x="57" y="405.5" font-size="10" text-anchor="end">1</text><line x1="60" y1="312" x2="65" y2="312" stroke="black" stroke-width="1" /><text x="57" y="315.5" font-size="10" text-anchor="end">2</text><line x1="60" y1="222" x2="65" y2="222" stroke="black" stroke-width="1" /><text x="57" y="225.5" font-size="10" text-anchor="end">3</text><line x1="60" y1="132" x2="65" y2="132" stroke="black" stroke-width="1" /><text x="57" y="135.5" font-size="10" text-anchor="end">4</text><line x1="60" y1="42" x2="65" y2="42" stroke="black" stroke-width="1" /><text x="57" y="45.5" font-size="10" text-anchor="end">5</text><text x="339.5" y="534" font-size="14" text-anchor="middle">log₂ fold change</text><text x="14" y="270.5" font-size="14" text-anchor="middle" transform="rotate(-90,14,270.5)">−log₁₀(p-value)</text><text x="339.5" y="21" font-size="16" text-anchor="middle">Volcano Plot — Arrow Labels (top 10)</text><line x1="65" y1="374.9073003902417" x2="665" y2="374.9073003902417" stroke="#888888" stroke-width="1" stroke-dasharray="4 4" /><line x1="290" y1="42" x2="290" y2="492" stroke="#888888" stroke-width="1" stroke-dasharray="4 4" /><line x1="440" y1="42" x2="440" y2="492" stroke="#888888" stroke-width="1" stroke-dasharray="4 4" /><circle cx="387.5" cy="464.9073003902417" r="3" fill="#aaaaaa" /><circle cx="327.5" cy="444.94091292476963" r="3" fill="#aaaaaa" /><circle cx="425" cy="402" r="3" fill="#aaaaaa" /><circle cx="350" cy="478.0588236012831" r="3" fill="#aaaaaa" /><circle cx="410" cy="429.0926996097583" r="3" fill="#aaaaaa" /><circle cx="297.5" cy="417.8482133150113" r="3" fill="#aaaaaa" /><circle cx="372.5" cy="483.27809882927494" r="3" fill="#aaaaaa" /><circle cx="312.5" cy="456.1853992195166" r="3" fill="#aaaaaa" /><circle cx="477.5" cy="429.0926996097583" r="3" fill="#aaaaaa" /><circle cx="282.5" cy="388.0588236012831" r="3" fill="#aaaaaa" /><circle cx="515" cy="409.1263121442862" r="3" fill="#aaaaaa" /><circle cx="230" cy="393.27809882927494" r="3" fill="#aaaaaa" /><circle cx="462.5" cy="424.9745254592975" r="3" fill="#aaaaaa" /><circle cx="124.99999999999999" cy="159.0926996097583" r="3" fill="steelblue" /><circle cx="140" cy="194.9073003902417" r="3" fill="steelblue" /><circle cx="177.5" cy="264.94091292476963" r="3" fill="steelblue" /><circle cx="162.5" cy="222" r="3" fill="steelblue" /><circle cx="192.5" cy="249.0926996097583" r="3" fill="steelblue" /><circle cx="215" cy="298.05882360128317" r="3" fill="steelblue" /><circle cx="222.5" cy="303.27809882927494" r="3" fill="steelblue" /><circle cx="237.5" cy="327.8482133150113" r="3" fill="steelblue" /><circle cx="245" cy="366.1853992195166" r="3" fill="steelblue" /><circle cx="260" cy="360.9661239915248" r="3" fill="steelblue" /><circle cx="207.5" cy="276.1853992195166" r="3" fill="steelblue" /><circle cx="252.5" cy="352.24422282079973" r="3" fill="steelblue" /><circle cx="155" cy="213.27809882927494" r="3" fill="steelblue" /><circle cx="230" cy="319.1263121442862" r="3" fill="steelblue" /><circle cx="627.5" cy="104.90730039024169" r="3" fill="firebrick" /><circle cx="605" cy="132" r="3" fill="firebrick" /><circle cx="575" cy="249.0926996097583" r="3" fill="firebrick" /><circle cx="552.5" cy="222" r="3" fill="firebrick" /><circle cx="567.5" cy="222" r="3" fill="firebrick" /><circle cx="537.5" cy="264.94091292476963" r="3" fill="firebrick" /><circle cx="522.5" cy="284.9073003902417" r="3" fill="firebrick" /><circle cx="500" cy="312" r="3" fill="firebrick" /><circle cx="507.5" cy="303.27809882927494" r="3" fill="firebrick" /><circle cx="485" cy="347.8146007804834" r="3" fill="firebrick" /><circle cx="477.5" cy="354.9409129247696" r="3" fill="firebrick" /><circle cx="455" cy="366.1853992195166" r="3" fill="firebrick" /><circle cx="545" cy="249.0926996097583" r="3" fill="firebrick" /><circle cx="492.5" cy="327.8482133150113" r="3" fill="firebrick" /><circle cx="590" cy="159.0926996097583" r="3" fill="firebrick" /><circle cx="560" cy="237.84821331501132" r="3" fill="firebrick" /><circle cx="470" cy="360.9661239915248" r="3" fill="firebrick" /><line x1="641.5" y1="88.90730039024169" x2="631.4510276472112" y2="100.39184022200043" stroke="#666666" stroke-width="0.8" /><text x="641.5" y="88.90730039024169" font-size="12" text-anchor="start">AKT1</text><line x1="619" y1="116" x2="608.9510276472112" y2="127.48453983175874" stroke="#666666" stroke-width="0.8" /><text x="619" y="116" font-size="12" text-anchor="start">EGFR</text><line x1="604" y1="143.0926996097583" x2="593.9510276472112" y2="154.57723944151704" stroke="#666666" stroke-width="0.8" /><text x="604" y="143.0926996097583" font-size="12" text-anchor="start">FGFR1</text><line x1="139" y1="143.0926996097583" x2="128.9510276472111" y2="154.57723944151704" stroke="#666666" stroke-width="0.8" /><text x="139" y="143.0926996097583" font-size="12" text-anchor="start">P21</text><line x1="154" y1="178.9073003902417" x2="143.9510276472111" y2="190.3918402220004" stroke="#666666" stroke-width="0.8" /><text x="154" y="178.9073003902417" font-size="12" text-anchor="start">VHL</text><line x1="169" y1="197.27809882927494" x2="158.9510276472111" y2="208.76263866103366" stroke="#666666" stroke-width="0.8" /><text x="169" y="197.27809882927494" font-size="12" text-anchor="start">MLH1</text><line x1="566.5" y1="206" x2="556.4510276472112" y2="217.48453983175872" stroke="#666666" stroke-width="0.8" /><text x="566.5" y="206" font-size="12" text-anchor="start">BRCA1</text><line x1="581.5" y1="206" x2="571.4510276472112" y2="217.48453983175872" stroke="#666666" stroke-width="0.8" /><text x="581.5" y="206" font-size="12" text-anchor="start">BCL2</text><line x1="176.5" y1="206" x2="166.4510276472111" y2="217.48453983175872" stroke="#666666" stroke-width="0.8" /><text x="176.5" y="206" font-size="12" text-anchor="start">BCL2L</text><line x1="574" y1="221.84821331501132" x2="563.9510276472112" y2="233.33275314677005" stroke="#666666" stroke-width="0.8" /><text x="574" y="221.84821331501132" font-size="12" text-anchor="start">ERBB2</text></svg>