<svg xmlns="http://www.w3.org/2000/svg" width="679" height="541" fill="black"><rect width="100%" height="100%" fill="white" /><line x1="65" y1="492" x2="665" y2="492" stroke="black" stroke-width="1" /><line x1="65" y1="42" x2="65" y2="492" stroke="black" stroke-width="1" /><line x1="165" y1="42" x2="165" y2="492" stroke="#ccc" stroke-width="1" /><line x1="265" y1="42" x2="265" y2="492" stroke="#ccc" stroke-width="1" /><line x1="365" y1="42" x2="365" y2="492" stroke="#ccc" stroke-width="1" /><line x1="465" y1="42" x2="465" y2="492" stroke="#ccc" stroke-width="1" /><line x1="565" y1="42" x2="565" y2="492" stroke="#ccc" stroke-width="1" /><line x1="665" y1="42" x2="665" y2="492" stroke="#ccc" stroke-width="1" /><line x1="65" y1="363.42857142857144" x2="665" y2="363.42857142857144" stroke="#ccc" stroke-width="1" /><line x1="65" y1="234.8571428571429" x2="665" y2="234.8571428571429" stroke="#ccc" stroke-width="1" /><line x1="65" y1="106.28571428571433" x2="665" y2="106.28571428571433" stroke="#ccc" stroke-width="1" /><line x1="65" y1="492" x2="65" y2="497" stroke="black" stroke-width="1" /><text x="65" y="507" font-size="10" text-anchor="middle">-3</text><line x1="165" y1="492" x2="165" y2="497" stroke="black" stroke-width="1" /><text x="165" y="507" font-size="10" text-anchor="middle">-2</text><line x1="265" y1="492" x2="265" y2="497" stroke="black" stroke-width="1" /><text x="265" y="507" font-size="10" text-anchor="middle">-1</text><line x1="365" y1="492" x2="365" y2="497" stroke="black" stroke-width="1" /><text x="365" y="507" font-size="10" text-anchor="middle">0</text><line x1="465" y1="492" x2="465" y2="497" stroke="black" stroke-width="1" /><text x="465" y="507" font-size="10" text-anchor="middle">1</text><line x1="565" y1="492" x2="565" y2="497" stroke="black" stroke-width="1" /><text x="565" y="507" font-size="10" text-anchor="middle">2</text><line x1="665" y1="492" x2="665" y2="497" stroke="black" stroke-width="1" /><text x="665" y="507" font-size="10" text-anchor="middle">3</text><line x1="60" y1="492" x2="65" y2="492" stroke="black" stroke-width="1" /><text x="57" y="495.5" font-size="10" text-anchor="end">0</text><line x1="60" y1="363.42857142857144" x2="65" y2="363.42857142857144" stroke="black" stroke-width="1" /><text x="57" y="366.92857142857144" font-size="10" text-anchor="end">5</text><line x1="60" y1="234.8571428571429" x2="65" y2="234.8571428571429" stroke="black" stroke-width="1" /><text x="57" y="238.3571428571429" font-size="10" text-anchor="end">10</text><line x1="60" y1="106.28571428571433" x2="65" y2="106.28571428571433" stroke="black" stroke-width="1" /><text x="57" y="109.78571428571433" font-size="10" text-anchor="end">15</text><text x="339.5" y="534" font-size="14" text-anchor="middle">Value</text><text x="14" y="270.5" font-size="14" text-anchor="middle" transform="rotate(-90,14,270.5)">Count</text><text x="339.5" y="21" font-size="16" text-anchor="middle">60 Bins</text><rect x="65" y="492" width="10.000000000000014" height="0" fill="steelblue" /><rect x="75.00000000000001" y="492" width="10" height="0" fill="steelblue" /><rect x="85.00000000000001" y="492" width="10.000000000000014" height="0" fill="steelblue" /><rect x="94.99999999999999" y="492" width="10.000000000000014" height="0" fill="steelblue" /><rect x="105" y="466.2857142857143" width="10" height="25.714285714285722" fill="steelblue" /><rect x="115" y="492" width="10.000000000000014" height="0" fill="steelblue" /><rect x="125.00000000000001" y="466.2857142857143" width="9.999999999999986" height="25.714285714285722" fill="steelblue" /><rect x="135" y="466.2857142857143" width="10.000000000000028" height="25.714285714285722" fill="steelblue" /><rect x="145" y="492" width="10" height="0" fill="steelblue" /><rect x="155" y="440.57142857142856" width="10" height="51.428571428571445" fill="steelblue" /><rect x="165" y="492" width="10" height="0" fill="steelblue" /><rect x="175" y="414.8571428571429" width="10.000000000000028" height="77.14285714285711" fill="steelblue" /><rect x="185.00000000000003" y="466.2857142857143" width="10" height="25.714285714285722" fill="steelblue" /><rect x="195" y="466.2857142857143" width="10.000000000000028" height="25.714285714285722" fill="steelblue" /><rect x="205.00000000000003" y="414.8571428571429" width="10" height="77.14285714285711" fill="steelblue" /><rect x="215" y="389.14285714285717" width="10" height="102.85714285714283" fill="steelblue" /><rect x="225" y="234.8571428571429" width="10.000000000000028" height="257.1428571428571" fill="steelblue" /><rect x="235.00000000000003" y="312" width="10" height="180" fill="steelblue" /><rect x="245" y="389.14285714285717" width="10.000000000000028" height="102.85714285714283" fill="steelblue" /><rect x="255.00000000000003" y="389.14285714285717" width="9.999999999999972" height="102.85714285714283" fill="steelblue" /><rect x="265" y="234.8571428571429" width="10" height="257.1428571428571" fill="steelblue" /><rect x="275" y="337.7142857142857" width="10" height="154.28571428571428" fill="steelblue" /><rect x="285" y="337.7142857142857" width="10" height="154.28571428571428" fill="steelblue" /><rect x="295" y="234.8571428571429" width="10.000000000000057" height="257.1428571428571" fill="steelblue" /><rect x="305.00000000000006" y="209.14285714285717" width="10" height="282.85714285714283" fill="steelblue" /><rect x="315" y="363.42857142857144" width="10" height="128.57142857142856" fill="steelblue" /><rect x="325" y="106.28571428571433" width="10" height="385.71428571428567" fill="steelblue" /><rect x="335" y="54.85714285714289" width="10.000000000000057" height="437.1428571428571" fill="steelblue" /><rect x="345.00000000000006" y="183.42857142857144" width="10" height="308.57142857142856" fill="steelblue" /><rect x="355.00000000000006" y="363.42857142857144" width="10" height="128.57142857142856" fill="steelblue" /><rect x="365" y="132" width="10.000000000000057" height="360" fill="steelblue" /><rect x="375.00000000000006" y="234.8571428571429" width="9.999999999999943" height="257.1428571428571" fill="steelblue" /><rect x="385" y="183.42857142857144" width="10" height="308.57142857142856" fill="steelblue" /><rect x="395" y="183.42857142857144" width="10.000000000000057" height="308.57142857142856" fill="steelblue" /><rect x="405.00000000000006" y="183.42857142857144" width="9.999999999999943" height="308.57142857142856" fill="steelblue" /><rect x="415" y="183.42857142857144" width="10" height="308.57142857142856" fill="steelblue" /><rect x="425" y="106.28571428571433" width="10" height="385.71428571428567" fill="steelblue" /><rect x="435" y="132" width="10.000000000000057" height="360" fill="steelblue" /><rect x="445.00000000000006" y="54.85714285714289" width="9.999999999999943" height="437.1428571428571" fill="steelblue" /><rect x="455" y="312" width="10" height="180" fill="steelblue" /><rect x="465" y="389.14285714285717" width="9.999999999999943" height="102.85714285714283" fill="steelblue" /><rect x="475.00000000000006" y="414.8571428571429" width="10.000000000000057" height="77.14285714285711" fill="steelblue" /><rect x="485.00000000000006" y="312" width="10" height="180" fill="steelblue" /><rect x="495" y="440.57142857142856" width="10.000000000000057" height="51.428571428571445" fill="steelblue" /><rect x="505.00000000000006" y="389.14285714285717" width="9.999999999999943" height="102.85714285714283" fill="steelblue" /><rect x="515" y="492" width="10" height="0" fill="steelblue" /><rect x="525" y="440.57142857142856" width="10.000000000000114" height="51.428571428571445" fill="steelblue" /><rect x="535" y="414.8571428571429" width="10.000000000000114" height="77.14285714285711" fill="steelblue" /><rect x="545.0000000000001" y="466.2857142857143" width="9.999999999999886" height="25.714285714285722" fill="steelblue" /><rect x="555" y="414.8571428571429" width="10" height="77.14285714285711" fill="steelblue" /><rect x="565" y="414.8571428571429" width="10" height="77.14285714285711" fill="steelblue" /><rect x="575" y="466.2857142857143" width="10.000000000000114" height="25.714285714285722" fill="steelblue" /><rect x="585" y="466.2857142857143" width="10" height="25.714285714285722" fill="steelblue" /><rect x="595" y="492" width="10" height="0" fill="steelblue" /><rect x="605" y="440.57142857142856" width="10" height="51.428571428571445" fill="steelblue" /><rect x="615" y="492" width="9.999999999999886" height="0" fill="steelblue" /><rect x="625.0000000000001" y="492" width="10" height="0" fill="steelblue" /><rect x="635" y="492" width="10.000000000000114" height="0" fill="steelblue" /><rect x="645.0000000000001" y="492" width="9.999999999999886" height="0" fill="steelblue" /><rect x="655" y="492" width="10" height="0" fill="steelblue" /></svg>