<svg xmlns="http://www.w3.org/2000/svg" width="679" height="541" fill="black"><rect width="100%" height="100%" fill="white" /><line x1="65" y1="492" x2="665" y2="492" stroke="black" stroke-width="1" /><line x1="65" y1="42" x2="65" y2="492" stroke="black" stroke-width="1" /><line x1="165" y1="42" x2="165" y2="492" stroke="#ccc" stroke-width="1" /><line x1="265" y1="42" x2="265" y2="492" stroke="#ccc" stroke-width="1" /><line x1="365" y1="42" x2="365" y2="492" stroke="#ccc" stroke-width="1" /><line x1="465" y1="42" x2="465" y2="492" stroke="#ccc" stroke-width="1" /><line x1="565" y1="42" x2="565" y2="492" stroke="#ccc" stroke-width="1" /><line x1="665" y1="42" x2="665" y2="492" stroke="#ccc" stroke-width="1" /><line x1="65" y1="402" x2="665" y2="402" stroke="#ccc" stroke-width="1" /><line x1="65" y1="312" x2="665" y2="312" stroke="#ccc" stroke-width="1" /><line x1="65" y1="222" x2="665" y2="222" stroke="#ccc" stroke-width="1" /><line x1="65" y1="132" x2="665" y2="132" stroke="#ccc" stroke-width="1" /><line x1="65" y1="42" x2="665" y2="42" stroke="#ccc" stroke-width="1" /><line x1="65" y1="492" x2="65" y2="497" stroke="black" stroke-width="1" /><text x="65" y="507" font-size="10" text-anchor="middle">-3</text><line x1="165" y1="492" x2="165" y2="497" stroke="black" stroke-width="1" /><text x="165" y="507" font-size="10" text-anchor="middle">-2</text><line x1="265" y1="492" x2="265" y2="497" stroke="black" stroke-width="1" /><text x="265" y="507" font-size="10" text-anchor="middle">-1</text><line x1="365" y1="492" x2="365" y2="497" stroke="black" stroke-width="1" /><text x="365" y="507" font-size="10" text-anchor="middle">0</text><line x1="465" y1="492" x2="465" y2="497" stroke="black" stroke-width="1" /><text x="465" y="507" font-size="10" text-anchor="middle">1</text><line x1="565" y1="492" x2="565" y2="497" stroke="black" stroke-width="1" /><text x="565" y="507" font-size="10" text-anchor="middle">2</text><line x1="665" y1="492" x2="665" y2="497" stroke="black" stroke-width="1" /><text x="665" y="507" font-size="10" text-anchor="middle">3</text><line x1="60" y1="492" x2="65" y2="492" stroke="black" stroke-width="1" /><text x="57" y="495.5" font-size="10" text-anchor="end">0</text><line x1="60" y1="402" x2="65" y2="402" stroke="black" stroke-width="1" /><text x="57" y="405.5" font-size="10" text-anchor="end">0.2</text><line x1="60" y1="312" x2="65" y2="312" stroke="black" stroke-width="1" /><text x="57" y="315.5" font-size="10" text-anchor="end">0.4</text><line x1="60" y1="222" x2="65" y2="222" stroke="black" stroke-width="1" /><text x="57" y="225.5" font-size="10" text-anchor="end">0.6</text><line x1="60" y1="132" x2="65" y2="132" stroke="black" stroke-width="1" /><text x="57" y="135.5" font-size="10" text-anchor="end">0.8</text><line x1="60" y1="42" x2="65" y2="42" stroke="black" stroke-width="1" /><text x="57" y="45.5" font-size="10" text-anchor="end">1</text><text x="339.5" y="534" font-size="14" text-anchor="middle">Value</text><text x="14" y="270.5" font-size="14" text-anchor="middle" transform="rotate(-90,14,270.5)">Relative frequency</text><text x="339.5" y="21" font-size="16" text-anchor="middle">Normalized Histogram</text><rect x="65" y="492" width="20.000000000000014" height="0" fill="steelblue" /><rect x="85.00000000000001" y="492" width="20.000000000000014" height="0" fill="steelblue" /><rect x="105" y="477.9375" width="20.000000000000014" height="14.0625" fill="steelblue" /><rect x="125.00000000000001" y="463.875" width="20.000000000000014" height="28.125" fill="steelblue" /><rect x="145" y="463.875" width="20" height="28.125" fill="steelblue" /><rect x="165" y="449.8125" width="20" height="42.1875" fill="steelblue" /><rect x="185.00000000000003" y="463.875" width="20" height="28.125" fill="steelblue" /><rect x="205.00000000000003" y="393.5625" width="19.99999999999997" height="98.4375" fill="steelblue" /><rect x="225" y="252.9375" width="20" height="239.0625" fill="steelblue" /><rect x="245" y="379.5" width="20" height="112.5" fill="steelblue" /><rect x="265" y="267" width="20" height="225" fill="steelblue" /><rect x="285" y="267" width="20.000000000000057" height="225" fill="steelblue" /><rect x="305.00000000000006" y="267" width="20" height="225" fill="steelblue" /><rect x="325" y="42" width="20.000000000000057" height="450" fill="steelblue" /><rect x="345.00000000000006" y="252.9375" width="20" height="239.0625" fill="steelblue" /><rect x="365" y="154.5" width="20" height="337.5" fill="steelblue" /><rect x="385" y="154.5" width="20.000000000000057" height="337.5" fill="steelblue" /><rect x="405.00000000000006" y="154.5" width="20" height="337.5" fill="steelblue" /><rect x="425" y="84.1875" width="20" height="407.8125" fill="steelblue" /><rect x="445.00000000000006" y="154.5" width="19.999999999999943" height="337.5" fill="steelblue" /><rect x="465" y="393.5625" width="20.000000000000057" height="98.4375" fill="steelblue" /><rect x="485.00000000000006" y="365.4375" width="20" height="126.5625" fill="steelblue" /><rect x="505.00000000000006" y="435.75" width="19.999999999999943" height="56.25" fill="steelblue" /><rect x="525" y="421.6875" width="20.000000000000114" height="70.3125" fill="steelblue" /><rect x="545.0000000000001" y="435.75" width="20" height="56.25" fill="steelblue" /><rect x="565" y="435.75" width="20" height="56.25" fill="steelblue" /><rect x="585" y="477.9375" width="20" height="14.0625" fill="steelblue" /><rect x="605" y="463.875" width="20.000000000000114" height="28.125" fill="steelblue" /><rect x="625.0000000000001" y="492" width="20" height="0" fill="steelblue" /><rect x="645.0000000000001" y="492" width="20" height="0" fill="steelblue" /></svg>