<svg xmlns="http://www.w3.org/2000/svg" width="679" height="541" fill="black"><rect width="100%" height="100%" fill="white" /><line x1="65" y1="492" x2="665" y2="492" stroke="black" stroke-width="1" /><line x1="65" y1="42" x2="65" y2="492" stroke="black" stroke-width="1" /><line x1="215" y1="42" x2="215" y2="492" stroke="#ccc" stroke-width="1" /><line x1="365" y1="42" x2="365" y2="492" stroke="#ccc" stroke-width="1" /><line x1="515" y1="42" x2="515" y2="492" stroke="#ccc" stroke-width="1" /><line x1="665" y1="42" x2="665" y2="492" stroke="#ccc" stroke-width="1" /><line x1="65" y1="379.5" x2="665" y2="379.5" stroke="#ccc" stroke-width="1" /><line x1="65" y1="267" x2="665" y2="267" stroke="#ccc" stroke-width="1" /><line x1="65" y1="154.5" x2="665" y2="154.5" stroke="#ccc" stroke-width="1" /><line x1="65" y1="42" x2="665" y2="42" stroke="#ccc" stroke-width="1" /><line x1="65" y1="492" x2="65" y2="497" stroke="black" stroke-width="1" /><text x="65" y="507" font-size="10" text-anchor="middle">-4</text><line x1="215" y1="492" x2="215" y2="497" stroke="black" stroke-width="1" /><text x="215" y="507" font-size="10" text-anchor="middle">-2</text><line x1="365" y1="492" x2="365" y2="497" stroke="black" stroke-width="1" /><text x="365" y="507" font-size="10" text-anchor="middle">0</text><line x1="515" y1="492" x2="515" y2="497" stroke="black" stroke-width="1" /><text x="515" y="507" font-size="10" text-anchor="middle">2</text><line x1="665" y1="492" x2="665" y2="497" stroke="black" stroke-width="1" /><text x="665" y="507" font-size="10" text-anchor="middle">4</text><line x1="60" y1="492" x2="65" y2="492" stroke="black" stroke-width="1" /><text x="57" y="495.5" font-size="10" text-anchor="end">0</text><line x1="60" y1="379.5" x2="65" y2="379.5" stroke="black" stroke-width="1" /><text x="57" y="383" font-size="10" text-anchor="end">20</text><line x1="60" y1="267" x2="65" y2="267" stroke="black" stroke-width="1" /><text x="57" y="270.5" font-size="10" text-anchor="end">40</text><line x1="60" y1="154.5" x2="65" y2="154.5" stroke="black" stroke-width="1" /><text x="57" y="158" font-size="10" text-anchor="end">60</text><line x1="60" y1="42" x2="65" y2="42" stroke="black" stroke-width="1" /><text x="57" y="45.5" font-size="10" text-anchor="end">80</text><text x="339.5" y="534" font-size="14" text-anchor="middle">Value</text><text x="14" y="270.5" font-size="14" text-anchor="middle" transform="rotate(-90,14,270.5)">Count</text><text x="339.5" y="21" font-size="16" text-anchor="middle">Overlapping Distributions</text><rect x="65" y="492" width="37.5" height="0" fill="#4682b480" /><rect x="102.5" y="492" width="37.5" height="0" fill="#4682b480" /><rect x="140" y="430.125" width="37.5" height="61.875" fill="#4682b480" /><rect x="177.5" y="379.5" width="37.5" height="112.5" fill="#4682b480" /><rect x="215" y="182.625" width="37.5" height="309.375" fill="#4682b480" /><rect x="252.5" y="87" width="37.5" height="405" fill="#4682b480" /><rect x="290" y="53.25" width="37.5" height="438.75" fill="#4682b480" /><rect x="327.5" y="261.375" width="37.5" height="230.625" fill="#4682b480" /><rect x="365" y="407.625" width="37.5" height="84.375" fill="#4682b480" /><rect x="402.5" y="463.875" width="37.5" height="28.125" fill="#4682b480" /><rect x="440" y="475.125" width="37.5" height="16.875" fill="#4682b480" /><rect x="477.5" y="492" width="37.5" height="0" fill="#4682b480" /><rect x="515" y="492" width="37.5" height="0" fill="#4682b480" /><rect x="552.5" y="492" width="37.5" height="0" fill="#4682b480" /><rect x="590" y="492" width="37.5" height="0" fill="#4682b480" /><rect x="627.5" y="492" width="37.5" height="0" fill="#4682b480" /><rect x="65" y="492" width="37.5" height="0" fill="#dc143c80" /><rect x="102.5" y="492" width="37.5" height="0" fill="#dc143c80" /><rect x="140" y="492" width="37.5" height="0" fill="#dc143c80" /><rect x="177.5" y="492" width="37.5" height="0" fill="#dc143c80" /><rect x="215" y="492" width="37.5" height="0" fill="#dc143c80" /><rect x="252.5" y="492" width="37.5" height="0" fill="#dc143c80" /><rect x="290" y="475.125" width="37.5" height="16.875" fill="#dc143c80" /><rect x="327.5" y="357" width="37.5" height="135" fill="#dc143c80" /><rect x="365" y="177" width="37.5" height="315" fill="#dc143c80" /><rect x="402.5" y="58.875" width="37.5" height="433.125" fill="#dc143c80" /><rect x="440" y="115.125" width="37.5" height="376.875" fill="#dc143c80" /><rect x="477.5" y="233.25" width="37.5" height="258.75" fill="#dc143c80" /><rect x="515" y="368.25" width="37.5" height="123.75" fill="#dc143c80" /><rect x="552.5" y="475.125" width="37.5" height="16.875" fill="#dc143c80" /><rect x="590" y="480.75" width="37.5" height="11.25" fill="#dc143c80" /><rect x="627.5" y="492" width="37.5" height="0" fill="#dc143c80" /></svg>