<svg xmlns="http://www.w3.org/2000/svg" width="600" height="440" font-family="DejaVu Sans, Liberation Sans, Arial, sans-serif" fill="black"><rect width="100%" height="100%" fill="white" /><defs><clipPath id="kuva-clip-3"><rect x="59" y="44" width="297.2" height="345"/></clipPath></defs><line x1="120.92" y1="44" x2="120.92" y2="389" stroke="#cccccc" stroke-width="1" /><line x1="182.83" y1="44" x2="182.83" y2="389" stroke="#cccccc" stroke-width="1" /><line x1="244.75" y1="44" x2="244.75" y2="389" stroke="#cccccc" stroke-width="1" /><line x1="306.67" y1="44" x2="306.67" y2="389" stroke="#cccccc" stroke-width="1" /><line x1="59" y1="317.13" x2="356.2" y2="317.13" stroke="#cccccc" stroke-width="1" /><line x1="59" y1="245.25" x2="356.2" y2="245.25" stroke="#cccccc" stroke-width="1" /><line x1="59" y1="173.38" x2="356.2" y2="173.38" stroke="#cccccc" stroke-width="1" /><line x1="59" y1="101.5" x2="356.2" y2="101.5" stroke="#cccccc" stroke-width="1" /><line x1="59" y1="389" x2="356.2" y2="389" stroke="#000000" stroke-width="1" /><line x1="59" y1="44" x2="59" y2="389" stroke="#000000" stroke-width="1" /><line x1="59" y1="389" x2="59" y2="394" stroke="#000000" stroke-width="1" /><text x="59" y="406" font-size="12" text-anchor="middle">0</text><line x1="120.92" y1="389" x2="120.92" y2="394" stroke="#000000" stroke-width="1" /><text x="120.92" y="406" font-size="12" text-anchor="middle">0.25</text><line x1="182.83" y1="389" x2="182.83" y2="394" stroke="#000000" stroke-width="1" /><text x="182.83" y="406" font-size="12" text-anchor="middle">0.5</text><line x1="244.75" y1="389" x2="244.75" y2="394" stroke="#000000" stroke-width="1" /><text x="244.75" y="406" font-size="12" text-anchor="middle">0.75</text><line x1="306.67" y1="389" x2="306.67" y2="394" stroke="#000000" stroke-width="1" /><text x="306.67" y="406" font-size="12" text-anchor="middle">1</text><line x1="54" y1="389" x2="59" y2="389" stroke="#000000" stroke-width="1" /><text x="51" y="393.2" font-size="12" text-anchor="end">0</text><line x1="54" y1="317.13" x2="59" y2="317.13" stroke="#000000" stroke-width="1" /><text x="51" y="321.33" font-size="12" text-anchor="end">0.25</text><line x1="54" y1="245.25" x2="59" y2="245.25" stroke="#000000" stroke-width="1" /><text x="51" y="249.45000000000002" font-size="12" text-anchor="end">0.5</text><line x1="54" y1="173.38" x2="59" y2="173.38" stroke="#000000" stroke-width="1" /><text x="51" y="177.58" font-size="12" text-anchor="end">0.75</text><line x1="54" y1="101.5" x2="59" y2="101.5" stroke="#000000" stroke-width="1" /><text x="51" y="105.7" font-size="12" text-anchor="end">1</text><text x="207.6" y="433" font-size="14" text-anchor="middle">1 − Specificity</text><text x="15" y="220" font-size="14" text-anchor="middle" transform="rotate(-90,15,220)">Sensitivity</text><text x="207.6" y="22" font-size="18" text-anchor="middle">Diagnostic Biomarker Comparison</text><g clip-path="url(#kuva-clip-3)"><line x1="59" y1="389" x2="306.67" y2="101.5" stroke="#aaaaaa" stroke-width="1" stroke-dasharray="5,3" /><path d="M 59,384.59000000000003 L 59,382.19 L 59,379.8 L 59,377.40000000000003 L 59,375.01 L 59,372.61 L 59,370.21 L 59,367.82 L 59,365.42 L 59,363.03000000000003 L 59,360.63 L 59,358.23 L 59,355.84000000000003 L 59,353.44 L 59,351.05 L 59,348.65000000000003 L 59,346.26 L 59,343.86 L 59,341.46 L 59,339.07 L 59,336.67 L 59,334.28000000000003 L 59,331.88 L 59,329.48 L 59,327.09000000000003 L 59,324.69 L 59,322.3 L 59,319.90000000000003 L 59,317.51 L 59,315.11 L 59,312.71 L 59,310.32 L 59,307.92 L 59,305.53000000000003 L 59,303.13 L 59,300.73 L 59,298.34000000000003 L 59,295.94 L 59,293.55 L 59,291.15000000000003 L 59,288.76 L 59,286.36 L 59,283.96 L 59,281.57 L 59,279.17 L 59,276.78000000000003 L 59,274.38 L 59,271.98 L 59,269.59000000000003 L 59,267.19 L 59,264.8 L 59,262.4 L 59,260.01 L 59,257.61 L 59,255.21 L 59,252.82 L 59,250.42000000000002 L 59,248.03 L 59,245.63 L 59,243.23000000000002 L 59,240.84 L 59,238.44 L 59,236.05 L 59,233.65 L 61.06,233.65 L 61.06,231.26 L 61.06,228.86 L 61.06,226.46 L 61.06,224.07 L 61.06,221.67000000000002 L 61.06,219.28 L 61.06,216.88 L 61.06,214.48000000000002 L 61.06,212.09 L 61.06,209.69 L 61.06,207.3 L 61.06,204.9 L 61.06,202.51 L 61.06,200.11 L 61.06,197.71 L 61.06,195.32 L 61.06,192.92000000000002 L 61.06,190.53 L 61.06,188.13 L 61.06,185.73 L 63.13,185.73 L 63.13,183.34 L 63.13,180.94 L 63.13,178.55 L 63.13,176.15 L 63.13,173.76 L 63.13,171.36 L 63.13,168.96 L 63.13,166.57 L 63.13,164.17000000000002 L 63.13,161.78 L 65.19,161.78 L 65.19,159.38 L 65.19,156.98 L 65.19,154.59 L 65.19,152.19 L 65.19,149.8 L 65.19,147.4 L 67.26,147.4 L 67.26,145.01 L 67.26,142.61 L 67.26,140.21 L 67.26,137.82 L 69.32000000000001,137.82 L 69.32000000000001,135.42000000000002 L 69.32000000000001,133.03 L 71.38,133.03 L 71.38,130.63 L 71.38,128.23 L 73.45,128.23 L 73.45,125.84 L 73.45,123.44 L 75.51,123.44 L 75.51,121.05 L 77.57000000000001,121.05 L 77.57000000000001,118.65 L 79.64,118.65 L 79.64,116.26 L 81.7,116.26 L 81.7,113.86 L 83.77,113.86 L 85.83,113.86 L 85.83,111.46000000000001 L 87.89,111.46000000000001 L 89.96000000000001,111.46000000000001 L 89.96000000000001,109.07000000000001 L 92.02,109.07000000000001 L 94.09,109.07000000000001 L 94.09,106.67 L 96.15,106.67 L 98.21000000000001,106.67 L 100.28,106.67 L 102.34,106.67 L 102.34,104.28 L 104.41,104.28 L 106.47,104.28 L 108.53,104.28 L 110.60000000000001,104.28 L 112.66,104.28 L 114.73,104.28 L 114.73,101.88 L 116.79,101.88 L 118.85000000000001,101.88 L 120.92,101.88 L 122.98,101.88 L 125.04,101.88 L 127.11,101.88 L 129.17000000000002,101.88 L 131.24,101.88 L 133.3,101.88 L 135.36,101.88 L 135.36,101.5 L 137.43,101.5 L 139.49,101.5 L 141.56,101.5 L 143.62,101.5 L 145.68,101.5 L 147.75,101.5 L 149.81,101.5 L 151.88,101.5 L 153.94,101.5 L 156,101.5 L 158.07,101.5 L 160.13,101.5 L 162.19,101.5 L 164.26,101.5 L 166.32,101.5 L 168.39000000000001,101.5 L 170.45000000000002,101.5 L 172.51,101.5 L 174.58,101.5 L 176.64000000000001,101.5 L 176.64000000000001,101.5 L 178.71,101.5 L 180.77,101.5 L 182.83,101.5 L 184.9,101.5 L 186.96,101.5 L 189.02,101.5 L 191.09,101.5 L 193.15,101.5 L 195.22,101.5 L 197.28,101.5 L 199.34,101.5 L 201.41,101.5 L 203.47,101.5 L 205.54,101.5 L 207.6,101.5 L 209.66,101.5 L 211.73000000000002,101.5 L 213.79,101.5 L 215.86,101.5 L 217.92000000000002,101.5 L 219.98000000000002,101.5 L 222.05,101.5 L 224.11,101.5 L 226.18,101.5 L 228.24,101.5 L 230.3,101.5 L 232.37,101.5 L 234.43,101.5 L 236.49,101.5 L 238.56,101.5 L 240.62,101.5 L 242.69,101.5 L 244.75,101.5 L 246.81,101.5 L 248.88,101.5 L 250.94,101.5 L 253.01000000000002,101.5 L 255.07,101.5 L 257.13,101.5 L 259.2,101.5 L 261.26,101.5 L 263.32,101.5 L 265.39,101.5 L 267.45,101.5 L 269.52,101.5 L 271.58,101.5 L 273.64,101.5 L 275.71,101.5 L 277.77,101.5 L 279.84000000000003,101.5 L 281.90000000000003,101.5 L 283.96,101.5 L 286.03000000000003,101.5 L 288.09000000000003,101.5 L 290.16,101.5 L 292.22,101.5 L 294.28000000000003,101.5 L 296.35,101.5 L 298.41,101.5 L 300.47,101.5 L 302.54,101.5 L 304.6,101.5 L 306.67,101.5 L 306.67,105.91 L 304.6,105.91 L 302.54,105.91 L 300.47,105.91 L 298.41,105.91 L 296.35,105.91 L 294.28000000000003,105.91 L 292.22,105.91 L 290.16,105.91 L 288.09000000000003,105.91 L 286.03000000000003,105.91 L 283.96,105.91 L 281.90000000000003,105.91 L 279.84000000000003,105.91 L 277.77,105.91 L 275.71,105.91 L 273.64,105.91 L 271.58,105.91 L 269.52,105.91 L 267.45,105.91 L 265.39,105.91 L 263.32,105.91 L 261.26,105.91 L 259.2,105.91 L 257.13,105.91 L 255.07,105.91 L 253.01000000000002,105.91 L 250.94,105.91 L 248.88,105.91 L 246.81,105.91 L 244.75,105.91 L 242.69,105.91 L 240.62,105.91 L 238.56,105.91 L 236.49,105.91 L 234.43,105.91 L 232.37,105.91 L 230.3,105.91 L 228.24,105.91 L 226.18,105.91 L 224.11,105.91 L 222.05,105.91 L 219.98000000000002,105.91 L 217.92000000000002,105.91 L 215.86,105.91 L 213.79,105.91 L 211.73000000000002,105.91 L 209.66,105.91 L 207.6,105.91 L 205.54,105.91 L 203.47,105.91 L 201.41,105.91 L 199.34,105.91 L 197.28,105.91 L 195.22,105.91 L 193.15,105.91 L 191.09,105.91 L 189.02,105.91 L 186.96,105.91 L 184.9,105.91 L 182.83,105.91 L 180.77,105.91 L 178.71,105.91 L 176.64000000000001,105.91 L 176.64000000000001,108.31 L 174.58,108.31 L 172.51,108.31 L 170.45000000000002,108.31 L 168.39000000000001,108.31 L 166.32,108.31 L 164.26,108.31 L 162.19,108.31 L 160.13,108.31 L 158.07,108.31 L 156,108.31 L 153.94,108.31 L 151.88,108.31 L 149.81,108.31 L 147.75,108.31 L 145.68,108.31 L 143.62,108.31 L 141.56,108.31 L 139.49,108.31 L 137.43,108.31 L 135.36,108.31 L 135.36,110.7 L 133.3,110.7 L 131.24,110.7 L 129.17000000000002,110.7 L 127.11,110.7 L 125.04,110.7 L 122.98,110.7 L 120.92,110.7 L 118.85000000000001,110.7 L 116.79,110.7 L 114.73,110.7 L 114.73,113.10000000000001 L 112.66,113.10000000000001 L 110.60000000000001,113.10000000000001 L 108.53,113.10000000000001 L 106.47,113.10000000000001 L 104.41,113.10000000000001 L 102.34,113.10000000000001 L 102.34,115.49000000000001 L 100.28,115.49000000000001 L 98.21000000000001,115.49000000000001 L 96.15,115.49000000000001 L 94.09,115.49000000000001 L 94.09,117.89 L 92.02,117.89 L 89.96000000000001,117.89 L 89.96000000000001,120.29 L 87.89,120.29 L 85.83,120.29 L 85.83,122.68 L 83.77,122.68 L 81.7,122.68 L 81.7,125.08 L 79.64,125.08 L 79.64,127.47 L 77.57000000000001,127.47 L 77.57000000000001,129.87 L 75.51,129.87 L 75.51,132.27 L 73.45,132.27 L 73.45,134.66 L 73.45,137.06 L 71.38,137.06 L 71.38,139.45000000000002 L 71.38,141.85 L 69.32000000000001,141.85 L 69.32000000000001,144.24 L 69.32000000000001,146.64000000000001 L 67.26,146.64000000000001 L 67.26,149.04 L 67.26,151.43 L 67.26,153.83 L 67.26,156.22 L 65.19,156.22 L 65.19,158.62 L 65.19,161.02 L 65.19,163.41 L 65.19,165.81 L 65.19,168.20000000000002 L 65.19,170.6 L 63.13,170.6 L 63.13,172.99 L 63.13,175.39000000000001 L 63.13,177.79 L 63.13,180.18 L 63.13,182.58 L 63.13,184.97 L 63.13,187.37 L 63.13,189.77 L 63.13,192.16 L 63.13,194.56 L 61.06,194.56 L 61.06,196.95000000000002 L 61.06,199.35 L 61.06,201.74 L 61.06,204.14000000000001 L 61.06,206.54 L 61.06,208.93 L 61.06,211.33 L 61.06,213.72 L 61.06,216.12 L 61.06,218.52 L 61.06,220.91 L 61.06,223.31 L 61.06,225.70000000000002 L 61.06,228.1 L 61.06,230.49 L 61.06,232.89000000000001 L 61.06,235.29 L 61.06,237.68 L 61.06,240.08 L 61.06,242.47 L 59,242.47 L 59,244.87 L 59,247.27 L 59,249.66 L 59,252.06 L 59,254.45000000000002 L 59,256.85 L 59,259.24 L 59,261.64 L 59,264.04 L 59,266.43 L 59,268.83 L 59,271.22 L 59,273.62 L 59,276.02 L 59,278.41 L 59,280.81 L 59,283.2 L 59,285.6 L 59,287.99 L 59,290.39 L 59,292.79 L 59,295.18 L 59,297.58 L 59,299.97 L 59,302.37 L 59,304.77 L 59,307.16 L 59,309.56 L 59,311.95 L 59,314.35 L 59,316.74 L 59,319.14 L 59,321.54 L 59,323.93 L 59,326.33 L 59,328.72 L 59,331.12 L 59,333.52 L 59,335.91 L 59,338.31 L 59,340.7 L 59,343.1 L 59,345.49 L 59,347.89 L 59,350.29 L 59,352.68 L 59,355.08 L 59,357.47 L 59,359.87 L 59,362.27 L 59,364.66 L 59,367.06 L 59,369.45 L 59,371.85 L 59,374.24 L 59,376.64 L 59,379.04 L 59,381.43 L 59,383.83 L 59,386.22 L 59,388.62 L 59,389 L 59,389 Z" stroke="#1f77b4" stroke-width="0" fill="#1f77b4" fill-opacity="0.15" /><path d="M 59,389 L 59,386.6 L 59,384.21000000000004 L 59,381.81 L 59,379.42 L 59,377.02 L 59,374.63 L 59,372.23 L 59,369.83 L 59,367.44 L 59,365.04 L 59,362.65000000000003 L 59,360.25 L 59,357.85 L 59,355.46 L 59,353.06 L 59,350.67 L 59,348.27 L 59,345.88 L 59,343.48 L 59,341.08 L 59,338.69 L 59,336.29 L 59,333.90000000000003 L 59,331.5 L 59,329.1 L 59,326.71 L 59,324.31 L 59,321.92 L 59,319.52 L 59,317.13 L 59,314.73 L 59,312.33 L 59,309.94 L 59,307.54 L 59,305.15000000000003 L 59,302.75 L 59,300.35 L 59,297.96 L 59,295.56 L 59,293.17 L 59,290.77 L 59,288.38 L 59,285.98 L 59,283.58 L 59,281.19 L 59,278.79 L 59,276.40000000000003 L 59,274 L 59,271.6 L 59,269.21 L 59,266.81 L 59,264.42 L 59,262.02 L 59,259.63 L 59,257.23 L 59,254.83 L 59,252.44 L 59,250.04 L 59,247.65 L 59,245.25 L 59,242.85 L 59,240.46 L 59,238.06 L 61.06,238.06 L 61.06,235.67000000000002 L 61.06,233.27 L 61.06,230.88 L 61.06,228.48000000000002 L 61.06,226.08 L 61.06,223.69 L 61.06,221.29 L 61.06,218.9 L 61.06,216.5 L 61.06,214.1 L 61.06,211.71 L 61.06,209.31 L 61.06,206.92000000000002 L 61.06,204.52 L 61.06,202.13 L 61.06,199.73000000000002 L 61.06,197.33 L 61.06,194.94 L 61.06,192.54 L 61.06,190.15 L 63.13,190.15 L 63.13,187.75 L 63.13,185.35 L 63.13,182.96 L 63.13,180.56 L 63.13,178.17000000000002 L 63.13,175.77 L 63.13,173.38 L 63.13,170.98 L 63.13,168.58 L 63.13,166.19 L 65.19,166.19 L 65.19,163.79 L 65.19,161.4 L 65.19,159 L 65.19,156.6 L 65.19,154.21 L 65.19,151.81 L 67.26,151.81 L 67.26,149.42000000000002 L 67.26,147.02 L 67.26,144.63 L 67.26,142.23 L 69.32000000000001,142.23 L 69.32000000000001,139.83 L 69.32000000000001,137.44 L 71.38,137.44 L 71.38,135.04 L 71.38,132.65 L 73.45,132.65 L 73.45,130.25 L 73.45,127.85000000000001 L 75.51,127.85000000000001 L 75.51,125.46000000000001 L 77.57000000000001,125.46000000000001 L 77.57000000000001,123.06 L 79.64,123.06 L 79.64,120.67 L 81.7,120.67 L 81.7,118.27 L 83.77,118.27 L 85.83,118.27 L 85.83,115.88 L 87.89,115.88 L 89.96000000000001,115.88 L 89.96000000000001,113.48 L 92.02,113.48 L 94.09,113.48 L 94.09,111.08 L 96.15,111.08 L 98.21000000000001,111.08 L 100.28,111.08 L 102.34,111.08 L 102.34,108.69 L 104.41,108.69 L 106.47,108.69 L 108.53,108.69 L 110.60000000000001,108.69 L 112.66,108.69 L 114.73,108.69 L 114.73,106.29 L 116.79,106.29 L 118.85000000000001,106.29 L 120.92,106.29 L 122.98,106.29 L 125.04,106.29 L 127.11,106.29 L 129.17000000000002,106.29 L 131.24,106.29 L 133.3,106.29 L 135.36,106.29 L 135.36,103.9 L 137.43,103.9 L 139.49,103.9 L 141.56,103.9 L 143.62,103.9 L 145.68,103.9 L 147.75,103.9 L 149.81,103.9 L 151.88,103.9 L 153.94,103.9 L 156,103.9 L 158.07,103.9 L 160.13,103.9 L 162.19,103.9 L 164.26,103.9 L 166.32,103.9 L 168.39000000000001,103.9 L 170.45000000000002,103.9 L 172.51,103.9 L 174.58,103.9 L 176.64000000000001,103.9 L 176.64000000000001,101.5 L 178.71,101.5 L 180.77,101.5 L 182.83,101.5 L 184.9,101.5 L 186.96,101.5 L 189.02,101.5 L 191.09,101.5 L 193.15,101.5 L 195.22,101.5 L 197.28,101.5 L 199.34,101.5 L 201.41,101.5 L 203.47,101.5 L 205.54,101.5 L 207.6,101.5 L 209.66,101.5 L 211.73000000000002,101.5 L 213.79,101.5 L 215.86,101.5 L 217.92000000000002,101.5 L 219.98000000000002,101.5 L 222.05,101.5 L 224.11,101.5 L 226.18,101.5 L 228.24,101.5 L 230.3,101.5 L 232.37,101.5 L 234.43,101.5 L 236.49,101.5 L 238.56,101.5 L 240.62,101.5 L 242.69,101.5 L 244.75,101.5 L 246.81,101.5 L 248.88,101.5 L 250.94,101.5 L 253.01000000000002,101.5 L 255.07,101.5 L 257.13,101.5 L 259.2,101.5 L 261.26,101.5 L 263.32,101.5 L 265.39,101.5 L 267.45,101.5 L 269.52,101.5 L 271.58,101.5 L 273.64,101.5 L 275.71,101.5 L 277.77,101.5 L 279.84000000000003,101.5 L 281.90000000000003,101.5 L 283.96,101.5 L 286.03000000000003,101.5 L 288.09000000000003,101.5 L 290.16,101.5 L 292.22,101.5 L 294.28000000000003,101.5 L 296.35,101.5 L 298.41,101.5 L 300.47,101.5 L 302.54,101.5 L 304.6,101.5 L 306.67,101.5" stroke="#1f77b4" stroke-width="2" fill="none" /><circle cx="77.57000000000001" cy="123.06" r="5" fill="#1f77b4" stroke="#ffffff" stroke-width="1" /><path d="M 59,376.49 L 59,374.1 L 59,371.7 L 59,369.3 L 59,366.91 L 59,364.51 L 59,362.12 L 59,359.72 L 59,357.32 L 59,354.93 L 59,352.53000000000003 L 59,350.14 L 59,347.74 L 59,345.35 L 59,342.95 L 61.06,342.95 L 61.06,340.55 L 61.06,338.16 L 61.06,335.76 L 61.06,333.37 L 61.06,330.97 L 61.06,328.57 L 61.06,326.18 L 61.06,323.78000000000003 L 61.06,321.39 L 61.06,318.99 L 61.06,316.6 L 61.06,314.2 L 63.13,314.2 L 63.13,311.8 L 63.13,309.41 L 63.13,307.01 L 63.13,304.62 L 63.13,302.22 L 63.13,299.82 L 63.13,297.43 L 63.13,295.03000000000003 L 63.13,292.64 L 65.19,292.64 L 65.19,290.24 L 65.19,287.85 L 65.19,285.45 L 65.19,283.05 L 65.19,280.66 L 65.19,278.26 L 65.19,275.87 L 65.19,273.47 L 67.26,273.47 L 67.26,271.07 L 67.26,268.68 L 67.26,266.28000000000003 L 67.26,263.89 L 67.26,261.49 L 67.26,259.1 L 67.26,256.7 L 69.32000000000001,256.7 L 69.32000000000001,254.3 L 69.32000000000001,251.91 L 69.32000000000001,249.51000000000002 L 69.32000000000001,247.12 L 69.32000000000001,244.72 L 71.38,244.72 L 71.38,242.32 L 71.38,239.93 L 71.38,237.53 L 71.38,235.14000000000001 L 71.38,232.74 L 73.45,232.74 L 73.45,230.35 L 73.45,227.95000000000002 L 73.45,225.55 L 73.45,223.16 L 73.45,220.76 L 75.51,220.76 L 75.51,218.37 L 75.51,215.97 L 75.51,213.57 L 77.57000000000001,213.57 L 77.57000000000001,211.18 L 77.57000000000001,208.78 L 77.57000000000001,206.39000000000001 L 77.57000000000001,203.99 L 79.64,203.99 L 79.64,201.6 L 79.64,199.20000000000002 L 79.64,196.8 L 81.7,196.8 L 81.7,194.41 L 81.7,192.01 L 83.77,192.01 L 83.77,189.62 L 83.77,187.22 L 83.77,184.82 L 85.83,184.82 L 85.83,182.43 L 85.83,180.03 L 87.89,180.03 L 87.89,177.64000000000001 L 87.89,175.24 L 89.96000000000001,175.24 L 89.96000000000001,172.85 L 89.96000000000001,170.45000000000002 L 92.02,170.45000000000002 L 92.02,168.05 L 92.02,165.66 L 94.09,165.66 L 94.09,163.26 L 96.15,163.26 L 96.15,160.87 L 96.15,158.47 L 98.21000000000001,158.47 L 98.21000000000001,156.07 L 100.28,156.07 L 100.28,153.68 L 102.34,153.68 L 102.34,151.28 L 102.34,148.89000000000001 L 104.41,148.89000000000001 L 104.41,146.49 L 106.47,146.49 L 106.47,144.1 L 108.53,144.1 L 108.53,141.70000000000002 L 110.60000000000001,141.70000000000002 L 110.60000000000001,139.3 L 112.66,139.3 L 114.73,139.3 L 114.73,136.91 L 116.79,136.91 L 116.79,134.51 L 118.85000000000001,134.51 L 118.85000000000001,132.12 L 120.92,132.12 L 122.98,132.12 L 122.98,129.72 L 125.04,129.72 L 125.04,127.32000000000001 L 127.11,127.32000000000001 L 129.17000000000002,127.32000000000001 L 129.17000000000002,124.93 L 131.24,124.93 L 133.3,124.93 L 133.3,122.53 L 135.36,122.53 L 137.43,122.53 L 137.43,120.14 L 139.49,120.14 L 141.56,120.14 L 141.56,117.74000000000001 L 143.62,117.74000000000001 L 145.68,117.74000000000001 L 147.75,117.74000000000001 L 147.75,115.35000000000001 L 149.81,115.35000000000001 L 151.88,115.35000000000001 L 151.88,112.95 L 153.94,112.95 L 156,112.95 L 158.07,112.95 L 158.07,110.55 L 160.13,110.55 L 162.19,110.55 L 164.26,110.55 L 166.32,110.55 L 166.32,108.16 L 168.39000000000001,108.16 L 170.45000000000002,108.16 L 172.51,108.16 L 172.51,105.76 L 174.58,105.76 L 176.64000000000001,105.76 L 178.71,105.76 L 180.77,105.76 L 182.83,105.76 L 182.83,103.37 L 184.9,103.37 L 186.96,103.37 L 189.02,103.37 L 191.09,103.37 L 193.15,103.37 L 193.15,101.5 L 195.22,101.5 L 197.28,101.5 L 199.34,101.5 L 201.41,101.5 L 203.47,101.5 L 203.47,101.5 L 205.54,101.5 L 207.6,101.5 L 209.66,101.5 L 211.73000000000002,101.5 L 213.79,101.5 L 215.86,101.5 L 217.92000000000002,101.5 L 217.92000000000002,101.5 L 219.98000000000002,101.5 L 222.05,101.5 L 224.11,101.5 L 226.18,101.5 L 228.24,101.5 L 230.3,101.5 L 232.37,101.5 L 234.43,101.5 L 234.43,101.5 L 236.49,101.5 L 238.56,101.5 L 240.62,101.5 L 242.69,101.5 L 244.75,101.5 L 246.81,101.5 L 248.88,101.5 L 250.94,101.5 L 253.01000000000002,101.5 L 253.01000000000002,101.5 L 255.07,101.5 L 257.13,101.5 L 259.2,101.5 L 261.26,101.5 L 263.32,101.5 L 265.39,101.5 L 267.45,101.5 L 269.52,101.5 L 271.58,101.5 L 273.64,101.5 L 275.71,101.5 L 277.77,101.5 L 277.77,101.5 L 279.84000000000003,101.5 L 281.90000000000003,101.5 L 283.96,101.5 L 286.03000000000003,101.5 L 288.09000000000003,101.5 L 290.16,101.5 L 292.22,101.5 L 294.28000000000003,101.5 L 296.35,101.5 L 298.41,101.5 L 300.47,101.5 L 302.54,101.5 L 304.6,101.5 L 306.67,101.5 L 306.67,114.01 L 304.6,114.01 L 302.54,114.01 L 300.47,114.01 L 298.41,114.01 L 296.35,114.01 L 294.28000000000003,114.01 L 292.22,114.01 L 290.16,114.01 L 288.09000000000003,114.01 L 286.03000000000003,114.01 L 283.96,114.01 L 281.90000000000003,114.01 L 279.84000000000003,114.01 L 277.77,114.01 L 277.77,116.4 L 275.71,116.4 L 273.64,116.4 L 271.58,116.4 L 269.52,116.4 L 267.45,116.4 L 265.39,116.4 L 263.32,116.4 L 261.26,116.4 L 259.2,116.4 L 257.13,116.4 L 255.07,116.4 L 253.01000000000002,116.4 L 253.01000000000002,118.8 L 250.94,118.8 L 248.88,118.8 L 246.81,118.8 L 244.75,118.8 L 242.69,118.8 L 240.62,118.8 L 238.56,118.8 L 236.49,118.8 L 234.43,118.8 L 234.43,121.2 L 232.37,121.2 L 230.3,121.2 L 228.24,121.2 L 226.18,121.2 L 224.11,121.2 L 222.05,121.2 L 219.98000000000002,121.2 L 217.92000000000002,121.2 L 217.92000000000002,123.59 L 215.86,123.59 L 213.79,123.59 L 211.73000000000002,123.59 L 209.66,123.59 L 207.6,123.59 L 205.54,123.59 L 203.47,123.59 L 203.47,125.99000000000001 L 201.41,125.99000000000001 L 199.34,125.99000000000001 L 197.28,125.99000000000001 L 195.22,125.99000000000001 L 193.15,125.99000000000001 L 193.15,128.38 L 191.09,128.38 L 189.02,128.38 L 186.96,128.38 L 184.9,128.38 L 182.83,128.38 L 182.83,130.78 L 180.77,130.78 L 178.71,130.78 L 176.64000000000001,130.78 L 174.58,130.78 L 172.51,130.78 L 172.51,133.18 L 170.45000000000002,133.18 L 168.39000000000001,133.18 L 166.32,133.18 L 166.32,135.57 L 164.26,135.57 L 162.19,135.57 L 160.13,135.57 L 158.07,135.57 L 158.07,137.97 L 156,137.97 L 153.94,137.97 L 151.88,137.97 L 151.88,140.36 L 149.81,140.36 L 147.75,140.36 L 147.75,142.76 L 145.68,142.76 L 143.62,142.76 L 141.56,142.76 L 141.56,145.15 L 139.49,145.15 L 137.43,145.15 L 137.43,147.55 L 135.36,147.55 L 133.3,147.55 L 133.3,149.95000000000002 L 131.24,149.95000000000002 L 129.17000000000002,149.95000000000002 L 129.17000000000002,152.34 L 127.11,152.34 L 125.04,152.34 L 125.04,154.74 L 122.98,154.74 L 122.98,157.13 L 120.92,157.13 L 118.85000000000001,157.13 L 118.85000000000001,159.53 L 116.79,159.53 L 116.79,161.93 L 114.73,161.93 L 114.73,164.32 L 112.66,164.32 L 110.60000000000001,164.32 L 110.60000000000001,166.72 L 108.53,166.72 L 108.53,169.11 L 106.47,169.11 L 106.47,171.51 L 104.41,171.51 L 104.41,173.9 L 102.34,173.9 L 102.34,176.3 L 102.34,178.70000000000002 L 100.28,178.70000000000002 L 100.28,181.09 L 98.21000000000001,181.09 L 98.21000000000001,183.49 L 96.15,183.49 L 96.15,185.88 L 96.15,188.28 L 94.09,188.28 L 94.09,190.68 L 92.02,190.68 L 92.02,193.07 L 92.02,195.47 L 89.96000000000001,195.47 L 89.96000000000001,197.86 L 89.96000000000001,200.26 L 87.89,200.26 L 87.89,202.65 L 87.89,205.05 L 85.83,205.05 L 85.83,207.45000000000002 L 85.83,209.84 L 83.77,209.84 L 83.77,212.24 L 83.77,214.63 L 83.77,217.03 L 81.7,217.03 L 81.7,219.43 L 81.7,221.82 L 79.64,221.82 L 79.64,224.22 L 79.64,226.61 L 79.64,229.01 L 77.57000000000001,229.01 L 77.57000000000001,231.4 L 77.57000000000001,233.8 L 77.57000000000001,236.20000000000002 L 77.57000000000001,238.59 L 75.51,238.59 L 75.51,240.99 L 75.51,243.38 L 75.51,245.78 L 73.45,245.78 L 73.45,248.18 L 73.45,250.57 L 73.45,252.97 L 73.45,255.36 L 73.45,257.76 L 71.38,257.76 L 71.38,260.15 L 71.38,262.55 L 71.38,264.95 L 71.38,267.34000000000003 L 71.38,269.74 L 69.32000000000001,269.74 L 69.32000000000001,272.13 L 69.32000000000001,274.53000000000003 L 69.32000000000001,276.93 L 69.32000000000001,279.32 L 69.32000000000001,281.72 L 67.26,281.72 L 67.26,284.11 L 67.26,286.51 L 67.26,288.90000000000003 L 67.26,291.3 L 67.26,293.7 L 67.26,296.09000000000003 L 67.26,298.49 L 65.19,298.49 L 65.19,300.88 L 65.19,303.28000000000003 L 65.19,305.68 L 65.19,308.07 L 65.19,310.47 L 65.19,312.86 L 65.19,315.26 L 65.19,317.65000000000003 L 63.13,317.65000000000003 L 63.13,320.05 L 63.13,322.45 L 63.13,324.84000000000003 L 63.13,327.24 L 63.13,329.63 L 63.13,332.03000000000003 L 63.13,334.43 L 63.13,336.82 L 63.13,339.22 L 61.06,339.22 L 61.06,341.61 L 61.06,344.01 L 61.06,346.40000000000003 L 61.06,348.8 L 61.06,351.2 L 61.06,353.59000000000003 L 61.06,355.99 L 61.06,358.38 L 61.06,360.78000000000003 L 61.06,363.18 L 61.06,365.57 L 61.06,367.97 L 59,367.97 L 59,370.36 L 59,372.76 L 59,375.15000000000003 L 59,377.55 L 59,379.95 L 59,382.34000000000003 L 59,384.74 L 59,387.13 L 59,389 L 59,389 L 59,389 L 59,389 L 59,389 L 59,389 Z" stroke="#ff7f0e" stroke-width="0" fill="#ff7f0e" fill-opacity="0.15" /><path d="M 59,389 L 59,386.6 L 59,384.21000000000004 L 59,381.81 L 59,379.42 L 59,377.02 L 59,374.63 L 59,372.23 L 59,369.83 L 59,367.44 L 59,365.04 L 59,362.65000000000003 L 59,360.25 L 59,357.85 L 59,355.46 L 61.06,355.46 L 61.06,353.06 L 61.06,350.67 L 61.06,348.27 L 61.06,345.88 L 61.06,343.48 L 61.06,341.08 L 61.06,338.69 L 61.06,336.29 L 61.06,333.90000000000003 L 61.06,331.5 L 61.06,329.1 L 61.06,326.71 L 63.13,326.71 L 63.13,324.31 L 63.13,321.92 L 63.13,319.52 L 63.13,317.13 L 63.13,314.73 L 63.13,312.33 L 63.13,309.94 L 63.13,307.54 L 63.13,305.15000000000003 L 65.19,305.15000000000003 L 65.19,302.75 L 65.19,300.35 L 65.19,297.96 L 65.19,295.56 L 65.19,293.17 L 65.19,290.77 L 65.19,288.38 L 65.19,285.98 L 67.26,285.98 L 67.26,283.58 L 67.26,281.19 L 67.26,278.79 L 67.26,276.40000000000003 L 67.26,274 L 67.26,271.6 L 67.26,269.21 L 69.32000000000001,269.21 L 69.32000000000001,266.81 L 69.32000000000001,264.42 L 69.32000000000001,262.02 L 69.32000000000001,259.63 L 69.32000000000001,257.23 L 71.38,257.23 L 71.38,254.83 L 71.38,252.44 L 71.38,250.04 L 71.38,247.65 L 71.38,245.25 L 73.45,245.25 L 73.45,242.85 L 73.45,240.46 L 73.45,238.06 L 73.45,235.67000000000002 L 73.45,233.27 L 75.51,233.27 L 75.51,230.88 L 75.51,228.48000000000002 L 75.51,226.08 L 77.57000000000001,226.08 L 77.57000000000001,223.69 L 77.57000000000001,221.29 L 77.57000000000001,218.9 L 77.57000000000001,216.5 L 79.64,216.5 L 79.64,214.1 L 79.64,211.71 L 79.64,209.31 L 81.7,209.31 L 81.7,206.92000000000002 L 81.7,204.52 L 83.77,204.52 L 83.77,202.13 L 83.77,199.73000000000002 L 83.77,197.33 L 85.83,197.33 L 85.83,194.94 L 85.83,192.54 L 87.89,192.54 L 87.89,190.15 L 87.89,187.75 L 89.96000000000001,187.75 L 89.96000000000001,185.35 L 89.96000000000001,182.96 L 92.02,182.96 L 92.02,180.56 L 92.02,178.17000000000002 L 94.09,178.17000000000002 L 94.09,175.77 L 96.15,175.77 L 96.15,173.38 L 96.15,170.98 L 98.21000000000001,170.98 L 98.21000000000001,168.58 L 100.28,168.58 L 100.28,166.19 L 102.34,166.19 L 102.34,163.79 L 102.34,161.4 L 104.41,161.4 L 104.41,159 L 106.47,159 L 106.47,156.6 L 108.53,156.6 L 108.53,154.21 L 110.60000000000001,154.21 L 110.60000000000001,151.81 L 112.66,151.81 L 114.73,151.81 L 114.73,149.42000000000002 L 116.79,149.42000000000002 L 116.79,147.02 L 118.85000000000001,147.02 L 118.85000000000001,144.63 L 120.92,144.63 L 122.98,144.63 L 122.98,142.23 L 125.04,142.23 L 125.04,139.83 L 127.11,139.83 L 129.17000000000002,139.83 L 129.17000000000002,137.44 L 131.24,137.44 L 133.3,137.44 L 133.3,135.04 L 135.36,135.04 L 137.43,135.04 L 137.43,132.65 L 139.49,132.65 L 141.56,132.65 L 141.56,130.25 L 143.62,130.25 L 145.68,130.25 L 147.75,130.25 L 147.75,127.85000000000001 L 149.81,127.85000000000001 L 151.88,127.85000000000001 L 151.88,125.46000000000001 L 153.94,125.46000000000001 L 156,125.46000000000001 L 158.07,125.46000000000001 L 158.07,123.06 L 160.13,123.06 L 162.19,123.06 L 164.26,123.06 L 166.32,123.06 L 166.32,120.67 L 168.39000000000001,120.67 L 170.45000000000002,120.67 L 172.51,120.67 L 172.51,118.27 L 174.58,118.27 L 176.64000000000001,118.27 L 178.71,118.27 L 180.77,118.27 L 182.83,118.27 L 182.83,115.88 L 184.9,115.88 L 186.96,115.88 L 189.02,115.88 L 191.09,115.88 L 193.15,115.88 L 193.15,113.48 L 195.22,113.48 L 197.28,113.48 L 199.34,113.48 L 201.41,113.48 L 203.47,113.48 L 203.47,111.08 L 205.54,111.08 L 207.6,111.08 L 209.66,111.08 L 211.73000000000002,111.08 L 213.79,111.08 L 215.86,111.08 L 217.92000000000002,111.08 L 217.92000000000002,108.69 L 219.98000000000002,108.69 L 222.05,108.69 L 224.11,108.69 L 226.18,108.69 L 228.24,108.69 L 230.3,108.69 L 232.37,108.69 L 234.43,108.69 L 234.43,106.29 L 236.49,106.29 L 238.56,106.29 L 240.62,106.29 L 242.69,106.29 L 244.75,106.29 L 246.81,106.29 L 248.88,106.29 L 250.94,106.29 L 253.01000000000002,106.29 L 253.01000000000002,103.9 L 255.07,103.9 L 257.13,103.9 L 259.2,103.9 L 261.26,103.9 L 263.32,103.9 L 265.39,103.9 L 267.45,103.9 L 269.52,103.9 L 271.58,103.9 L 273.64,103.9 L 275.71,103.9 L 277.77,103.9 L 277.77,101.5 L 279.84000000000003,101.5 L 281.90000000000003,101.5 L 283.96,101.5 L 286.03000000000003,101.5 L 288.09000000000003,101.5 L 290.16,101.5 L 292.22,101.5 L 294.28000000000003,101.5 L 296.35,101.5 L 298.41,101.5 L 300.47,101.5 L 302.54,101.5 L 304.6,101.5 L 306.67,101.5" stroke="#ff7f0e" stroke-width="2" fill="none" /></g><rect x="361.2" y="34" width="229.4" height="56" fill="#ffffff" /><rect x="361.2" y="34" width="229.4" height="56" fill="none" stroke="#000000" stroke-width="1" /><text x="391.2" y="53.2" font-size="12" text-anchor="start">Biomarker A  (AUC = 0.977)</text><line x1="371.2" y1="49" x2="383.2" y2="49" stroke="#1f77b4" stroke-width="2" /><text x="391.2" y="71.2" font-size="12" text-anchor="start">Biomarker B  (AUC = 0.878)</text><line x1="371.2" y1="67" x2="383.2" y2="67" stroke="#ff7f0e" stroke-width="2" /></svg>