<svg xmlns="http://www.w3.org/2000/svg" width="520" height="440" font-family="DejaVu Sans, Liberation Sans, Arial, sans-serif" fill="black"><rect width="100%" height="100%" fill="white" /><defs><clipPath id="kuva-clip-2"><rect x="59" y="44" width="246" height="345"/></clipPath></defs><line x1="110.25" y1="44" x2="110.25" y2="389" stroke="#cccccc" stroke-width="1" /><line x1="161.5" y1="44" x2="161.5" y2="389" stroke="#cccccc" stroke-width="1" /><line x1="212.75" y1="44" x2="212.75" y2="389" stroke="#cccccc" stroke-width="1" /><line x1="264" y1="44" x2="264" y2="389" stroke="#cccccc" stroke-width="1" /><line x1="59" y1="317.13" x2="305" y2="317.13" stroke="#cccccc" stroke-width="1" /><line x1="59" y1="245.25" x2="305" y2="245.25" stroke="#cccccc" stroke-width="1" /><line x1="59" y1="173.38" x2="305" y2="173.38" stroke="#cccccc" stroke-width="1" /><line x1="59" y1="101.5" x2="305" y2="101.5" stroke="#cccccc" stroke-width="1" /><line x1="59" y1="389" x2="305" y2="389" stroke="#000000" stroke-width="1" /><line x1="59" y1="44" x2="59" y2="389" stroke="#000000" stroke-width="1" /><line x1="59" y1="389" x2="59" y2="394" stroke="#000000" stroke-width="1" /><text x="59" y="406" font-size="12" text-anchor="middle">0</text><line x1="110.25" y1="389" x2="110.25" y2="394" stroke="#000000" stroke-width="1" /><text x="110.25" y="406" font-size="12" text-anchor="middle">0.25</text><line x1="161.5" y1="389" x2="161.5" y2="394" stroke="#000000" stroke-width="1" /><text x="161.5" y="406" font-size="12" text-anchor="middle">0.5</text><line x1="212.75" y1="389" x2="212.75" y2="394" stroke="#000000" stroke-width="1" /><text x="212.75" y="406" font-size="12" text-anchor="middle">0.75</text><line x1="264" y1="389" x2="264" y2="394" stroke="#000000" stroke-width="1" /><text x="264" y="406" font-size="12" text-anchor="middle">1</text><line x1="54" y1="389" x2="59" y2="389" stroke="#000000" stroke-width="1" /><text x="51" y="393.2" font-size="12" text-anchor="end">0</text><line x1="54" y1="317.13" x2="59" y2="317.13" stroke="#000000" stroke-width="1" /><text x="51" y="321.33" font-size="12" text-anchor="end">0.25</text><line x1="54" y1="245.25" x2="59" y2="245.25" stroke="#000000" stroke-width="1" /><text x="51" y="249.45000000000002" font-size="12" text-anchor="end">0.5</text><line x1="54" y1="173.38" x2="59" y2="173.38" stroke="#000000" stroke-width="1" /><text x="51" y="177.58" font-size="12" text-anchor="end">0.75</text><line x1="54" y1="101.5" x2="59" y2="101.5" stroke="#000000" stroke-width="1" /><text x="51" y="105.7" font-size="12" text-anchor="end">1</text><text x="182" y="433" font-size="14" text-anchor="middle">False Positive Rate</text><text x="15" y="220" font-size="14" text-anchor="middle" transform="rotate(-90,15,220)">True Positive Rate</text><text x="182" y="22" font-size="18" text-anchor="middle">Multi-model ROC Comparison</text><g clip-path="url(#kuva-clip-2)"><line x1="59" y1="389" x2="264" y2="101.5" stroke="#aaaaaa" stroke-width="1" stroke-dasharray="5,3" /><path d="M 59,389 L 59,387.08 L 59,385.17 L 59,383.25 L 59,381.33 L 59,379.42 L 59,377.5 L 59,375.58 L 59,373.67 L 59,371.75 L 59,369.83 L 59,367.92 L 59,366 L 59,364.08 L 59,362.17 L 59,360.25 L 59,358.33 L 59,356.42 L 59,354.5 L 59,352.58 L 59,350.67 L 59,348.75 L 59,346.83 L 59,344.92 L 59,343 L 59,341.08 L 59,339.17 L 59,337.25 L 59,335.33 L 59,333.42 L 59,331.5 L 59,329.58 L 59,327.67 L 59,325.75 L 59,323.83 L 59,321.92 L 59,320 L 59,318.08 L 59,316.17 L 59,314.25 L 59,312.33 L 59,310.42 L 59,308.5 L 59,306.58 L 59,304.67 L 59,302.75 L 59,300.83 L 59,298.92 L 59,297 L 59,295.08 L 59,293.17 L 59,291.25 L 59,289.33 L 59,287.42 L 59,285.5 L 59,283.58 L 59,281.67 L 59,279.75 L 59,277.83 L 59,275.92 L 59,274 L 59,272.08 L 59,270.17 L 59,268.25 L 59,266.33 L 59,264.42 L 59,262.5 L 59,260.58 L 60.370000000000005,260.58 L 60.370000000000005,258.67 L 60.370000000000005,256.75 L 60.370000000000005,254.83 L 60.370000000000005,252.92000000000002 L 60.370000000000005,251 L 60.370000000000005,249.08 L 60.370000000000005,247.17000000000002 L 60.370000000000005,245.25 L 60.370000000000005,243.33 L 60.370000000000005,241.42000000000002 L 60.370000000000005,239.5 L 60.370000000000005,237.58 L 60.370000000000005,235.67000000000002 L 60.370000000000005,233.75 L 60.370000000000005,231.83 L 60.370000000000005,229.92000000000002 L 60.370000000000005,228 L 60.370000000000005,226.08 L 60.370000000000005,224.17000000000002 L 60.370000000000005,222.25 L 60.370000000000005,220.33 L 60.370000000000005,218.42000000000002 L 60.370000000000005,216.5 L 60.370000000000005,214.58 L 60.370000000000005,212.67000000000002 L 60.370000000000005,210.75 L 61.730000000000004,210.75 L 61.730000000000004,208.83 L 61.730000000000004,206.92000000000002 L 61.730000000000004,205 L 61.730000000000004,203.08 L 61.730000000000004,201.17000000000002 L 61.730000000000004,199.25 L 61.730000000000004,197.33 L 61.730000000000004,195.42000000000002 L 61.730000000000004,193.5 L 61.730000000000004,191.58 L 61.730000000000004,189.67000000000002 L 61.730000000000004,187.75 L 61.730000000000004,185.83 L 61.730000000000004,183.92000000000002 L 63.1,183.92000000000002 L 63.1,182 L 63.1,180.08 L 63.1,178.17000000000002 L 63.1,176.25 L 63.1,174.33 L 63.1,172.42000000000002 L 63.1,170.5 L 63.1,168.58 L 64.47,168.58 L 64.47,166.67000000000002 L 64.47,164.75 L 64.47,162.83 L 64.47,160.92000000000002 L 64.47,159 L 64.47,157.08 L 65.83,157.08 L 65.83,155.17000000000002 L 65.83,153.25 L 65.83,151.33 L 65.83,149.42000000000002 L 67.2,149.42000000000002 L 67.2,147.5 L 67.2,145.58 L 67.2,143.67000000000002 L 67.2,141.75 L 68.57000000000001,141.75 L 68.57000000000001,139.83 L 68.57000000000001,137.92000000000002 L 69.93,137.92000000000002 L 69.93,136 L 69.93,134.08 L 71.3,134.08 L 71.3,132.17000000000002 L 71.3,130.25 L 72.67,130.25 L 72.67,128.33 L 74.03,128.33 L 74.03,126.42 L 75.4,126.42 L 75.4,124.5 L 76.77,124.5 L 76.77,122.58 L 78.13,122.58 L 78.13,120.67 L 79.5,120.67 L 79.5,118.75 L 80.87,118.75 L 82.23,118.75 L 82.23,116.83 L 83.60000000000001,116.83 L 84.97,116.83 L 84.97,114.92 L 86.33,114.92 L 87.7,114.92 L 87.7,113 L 89.07000000000001,113 L 90.43,113 L 91.8,113 L 93.17,113 L 93.17,111.08 L 94.53,111.08 L 95.9,111.08 L 97.27,111.08 L 98.63,111.08 L 98.63,109.17 L 100,109.17 L 101.37,109.17 L 102.73,109.17 L 104.10000000000001,109.17 L 105.47,109.17 L 106.83,109.17 L 106.83,107.25 L 108.2,107.25 L 109.57000000000001,107.25 L 110.93,107.25 L 112.3,107.25 L 113.67,107.25 L 115.03,107.25 L 116.4,107.25 L 117.77,107.25 L 117.77,105.33 L 119.13,105.33 L 120.5,105.33 L 121.87,105.33 L 123.23,105.33 L 124.60000000000001,105.33 L 125.97,105.33 L 127.33,105.33 L 128.7,105.33 L 130.07,105.33 L 131.43,105.33 L 132.8,105.33 L 134.17000000000002,105.33 L 135.53,105.33 L 136.9,105.33 L 136.9,103.42 L 138.27,103.42 L 139.63,103.42 L 141,103.42 L 142.37,103.42 L 143.73,103.42 L 145.1,103.42 L 146.47,103.42 L 147.83,103.42 L 149.20000000000002,103.42 L 150.57,103.42 L 151.93,103.42 L 153.3,103.42 L 154.67000000000002,103.42 L 156.03,103.42 L 157.4,103.42 L 158.77,103.42 L 160.13,103.42 L 161.5,103.42 L 162.87,103.42 L 164.23,103.42 L 165.6,103.42 L 166.97,103.42 L 168.33,103.42 L 169.70000000000002,103.42 L 171.07,103.42 L 172.43,103.42 L 172.43,101.5 L 173.8,101.5 L 175.17000000000002,101.5 L 176.53,101.5 L 177.9,101.5 L 179.27,101.5 L 180.63,101.5 L 182,101.5 L 183.37,101.5 L 184.73,101.5 L 186.1,101.5 L 187.47,101.5 L 188.83,101.5 L 190.20000000000002,101.5 L 191.57,101.5 L 192.93,101.5 L 194.3,101.5 L 195.67000000000002,101.5 L 197.03,101.5 L 198.4,101.5 L 199.77,101.5 L 201.13,101.5 L 202.5,101.5 L 203.87,101.5 L 205.23000000000002,101.5 L 206.6,101.5 L 207.97,101.5 L 209.33,101.5 L 210.70000000000002,101.5 L 212.07,101.5 L 213.43,101.5 L 214.8,101.5 L 216.17000000000002,101.5 L 217.53,101.5 L 218.9,101.5 L 220.27,101.5 L 221.63,101.5 L 223,101.5 L 224.37,101.5 L 225.73000000000002,101.5 L 227.1,101.5 L 228.47,101.5 L 229.83,101.5 L 231.20000000000002,101.5 L 232.57,101.5 L 233.93,101.5 L 235.3,101.5 L 236.67000000000002,101.5 L 238.03,101.5 L 239.4,101.5 L 240.77,101.5 L 242.13,101.5 L 243.5,101.5 L 244.87,101.5 L 246.23000000000002,101.5 L 247.6,101.5 L 248.97,101.5 L 250.33,101.5 L 251.70000000000002,101.5 L 253.07,101.5 L 254.43,101.5 L 255.8,101.5 L 257.17,101.5 L 258.53000000000003,101.5 L 259.9,101.5 L 261.27,101.5 L 262.63,101.5 L 264,101.5" stroke="#1f77b4" stroke-width="2" fill="none" /><path d="M 59,389 L 59,387.08 L 59,385.17 L 59,383.25 L 59,381.33 L 59,379.42 L 59,377.5 L 59,375.58 L 59,373.67 L 59,371.75 L 59,369.83 L 60.370000000000005,369.83 L 60.370000000000005,367.92 L 60.370000000000005,366 L 60.370000000000005,364.08 L 60.370000000000005,362.17 L 60.370000000000005,360.25 L 60.370000000000005,358.33 L 60.370000000000005,356.42 L 60.370000000000005,354.5 L 60.370000000000005,352.58 L 61.730000000000004,352.58 L 61.730000000000004,350.67 L 61.730000000000004,348.75 L 61.730000000000004,346.83 L 61.730000000000004,344.92 L 61.730000000000004,343 L 61.730000000000004,341.08 L 61.730000000000004,339.17 L 61.730000000000004,337.25 L 63.1,337.25 L 63.1,335.33 L 63.1,333.42 L 63.1,331.5 L 63.1,329.58 L 63.1,327.67 L 63.1,325.75 L 63.1,323.83 L 64.47,323.83 L 64.47,321.92 L 64.47,320 L 64.47,318.08 L 64.47,316.17 L 64.47,314.25 L 64.47,312.33 L 64.47,310.42 L 65.83,310.42 L 65.83,308.5 L 65.83,306.58 L 65.83,304.67 L 65.83,302.75 L 65.83,300.83 L 65.83,298.92 L 67.2,298.92 L 67.2,297 L 67.2,295.08 L 67.2,293.17 L 67.2,291.25 L 67.2,289.33 L 68.57000000000001,289.33 L 68.57000000000001,287.42 L 68.57000000000001,285.5 L 68.57000000000001,283.58 L 68.57000000000001,281.67 L 68.57000000000001,279.75 L 69.93,279.75 L 69.93,277.83 L 69.93,275.92 L 69.93,274 L 69.93,272.08 L 69.93,270.17 L 71.3,270.17 L 71.3,268.25 L 71.3,266.33 L 71.3,264.42 L 71.3,262.5 L 72.67,262.5 L 72.67,260.58 L 72.67,258.67 L 72.67,256.75 L 72.67,254.83 L 74.03,254.83 L 74.03,252.92000000000002 L 74.03,251 L 74.03,249.08 L 75.4,249.08 L 75.4,247.17000000000002 L 75.4,245.25 L 75.4,243.33 L 76.77,243.33 L 76.77,241.42000000000002 L 76.77,239.5 L 76.77,237.58 L 78.13,237.58 L 78.13,235.67000000000002 L 78.13,233.75 L 78.13,231.83 L 79.5,231.83 L 79.5,229.92000000000002 L 79.5,228 L 79.5,226.08 L 80.87,226.08 L 80.87,224.17000000000002 L 80.87,222.25 L 80.87,220.33 L 82.23,220.33 L 82.23,218.42000000000002 L 82.23,216.5 L 83.60000000000001,216.5 L 83.60000000000001,214.58 L 83.60000000000001,212.67000000000002 L 84.97,212.67000000000002 L 84.97,210.75 L 84.97,208.83 L 86.33,208.83 L 86.33,206.92000000000002 L 86.33,205 L 87.7,205 L 87.7,203.08 L 87.7,201.17000000000002 L 89.07000000000001,201.17000000000002 L 89.07000000000001,199.25 L 89.07000000000001,197.33 L 90.43,197.33 L 90.43,195.42000000000002 L 90.43,193.5 L 91.8,193.5 L 91.8,191.58 L 93.17,191.58 L 93.17,189.67000000000002 L 93.17,187.75 L 94.53,187.75 L 94.53,185.83 L 95.9,185.83 L 95.9,183.92000000000002 L 97.27,183.92000000000002 L 97.27,182 L 97.27,180.08 L 98.63,180.08 L 98.63,178.17000000000002 L 100,178.17000000000002 L 100,176.25 L 101.37,176.25 L 101.37,174.33 L 102.73,174.33 L 102.73,172.42000000000002 L 102.73,170.5 L 104.10000000000001,170.5 L 104.10000000000001,168.58 L 105.47,168.58 L 105.47,166.67000000000002 L 106.83,166.67000000000002 L 106.83,164.75 L 108.2,164.75 L 108.2,162.83 L 109.57000000000001,162.83 L 110.93,162.83 L 110.93,160.92000000000002 L 112.3,160.92000000000002 L 112.3,159 L 113.67,159 L 113.67,157.08 L 115.03,157.08 L 115.03,155.17000000000002 L 116.4,155.17000000000002 L 117.77,155.17000000000002 L 117.77,153.25 L 119.13,153.25 L 119.13,151.33 L 120.5,151.33 L 120.5,149.42000000000002 L 121.87,149.42000000000002 L 123.23,149.42000000000002 L 123.23,147.5 L 124.60000000000001,147.5 L 124.60000000000001,145.58 L 125.97,145.58 L 127.33,145.58 L 127.33,143.67000000000002 L 128.7,143.67000000000002 L 130.07,143.67000000000002 L 130.07,141.75 L 131.43,141.75 L 132.8,141.75 L 132.8,139.83 L 134.17000000000002,139.83 L 135.53,139.83 L 135.53,137.92000000000002 L 136.9,137.92000000000002 L 138.27,137.92000000000002 L 138.27,136 L 139.63,136 L 141,136 L 141,134.08 L 142.37,134.08 L 143.73,134.08 L 143.73,132.17000000000002 L 145.1,132.17000000000002 L 146.47,132.17000000000002 L 147.83,132.17000000000002 L 147.83,130.25 L 149.20000000000002,130.25 L 150.57,130.25 L 151.93,130.25 L 151.93,128.33 L 153.3,128.33 L 154.67000000000002,128.33 L 156.03,128.33 L 156.03,126.42 L 157.4,126.42 L 158.77,126.42 L 160.13,126.42 L 160.13,124.5 L 161.5,124.5 L 162.87,124.5 L 164.23,124.5 L 164.23,122.58 L 165.6,122.58 L 166.97,122.58 L 168.33,122.58 L 168.33,120.67 L 169.70000000000002,120.67 L 171.07,120.67 L 172.43,120.67 L 173.8,120.67 L 173.8,118.75 L 175.17000000000002,118.75 L 176.53,118.75 L 177.9,118.75 L 179.27,118.75 L 179.27,116.83 L 180.63,116.83 L 182,116.83 L 183.37,116.83 L 184.73,116.83 L 186.1,116.83 L 186.1,114.92 L 187.47,114.92 L 188.83,114.92 L 190.20000000000002,114.92 L 191.57,114.92 L 192.93,114.92 L 192.93,113 L 194.3,113 L 195.67000000000002,113 L 197.03,113 L 198.4,113 L 199.77,113 L 199.77,111.08 L 201.13,111.08 L 202.5,111.08 L 203.87,111.08 L 205.23000000000002,111.08 L 206.6,111.08 L 207.97,111.08 L 207.97,109.17 L 209.33,109.17 L 210.70000000000002,109.17 L 212.07,109.17 L 213.43,109.17 L 214.8,109.17 L 216.17000000000002,109.17 L 217.53,109.17 L 217.53,107.25 L 218.9,107.25 L 220.27,107.25 L 221.63,107.25 L 223,107.25 L 224.37,107.25 L 225.73000000000002,107.25 L 227.1,107.25 L 227.1,105.33 L 228.47,105.33 L 229.83,105.33 L 231.20000000000002,105.33 L 232.57,105.33 L 233.93,105.33 L 235.3,105.33 L 236.67000000000002,105.33 L 238.03,105.33 L 238.03,103.42 L 239.4,103.42 L 240.77,103.42 L 242.13,103.42 L 243.5,103.42 L 244.87,103.42 L 246.23000000000002,103.42 L 247.6,103.42 L 248.97,103.42 L 250.33,103.42 L 250.33,101.5 L 251.70000000000002,101.5 L 253.07,101.5 L 254.43,101.5 L 255.8,101.5 L 257.17,101.5 L 258.53000000000003,101.5 L 259.9,101.5 L 261.27,101.5 L 262.63,101.5 L 264,101.5" stroke="#ff7f0e" stroke-width="2" fill="none" /><path d="M 59,389 L 59,387.08 L 59,385.17 L 60.370000000000005,385.17 L 60.370000000000005,383.25 L 60.370000000000005,381.33 L 61.730000000000004,381.33 L 61.730000000000004,379.42 L 61.730000000000004,377.5 L 63.1,377.5 L 63.1,375.58 L 63.1,373.67 L 64.47,373.67 L 64.47,371.75 L 64.47,369.83 L 65.83,369.83 L 65.83,367.92 L 65.83,366 L 67.2,366 L 67.2,364.08 L 67.2,362.17 L 68.57000000000001,362.17 L 68.57000000000001,360.25 L 68.57000000000001,358.33 L 69.93,358.33 L 69.93,356.42 L 69.93,354.5 L 71.3,354.5 L 71.3,352.58 L 71.3,350.67 L 72.67,350.67 L 72.67,348.75 L 72.67,346.83 L 74.03,346.83 L 74.03,344.92 L 74.03,343 L 75.4,343 L 75.4,341.08 L 75.4,339.17 L 76.77,339.17 L 76.77,337.25 L 78.13,337.25 L 78.13,335.33 L 78.13,333.42 L 79.5,333.42 L 79.5,331.5 L 79.5,329.58 L 80.87,329.58 L 80.87,327.67 L 80.87,325.75 L 82.23,325.75 L 82.23,323.83 L 83.60000000000001,323.83 L 83.60000000000001,321.92 L 83.60000000000001,320 L 84.97,320 L 84.97,318.08 L 84.97,316.17 L 86.33,316.17 L 86.33,314.25 L 87.7,314.25 L 87.7,312.33 L 87.7,310.42 L 89.07000000000001,310.42 L 89.07000000000001,308.5 L 89.07000000000001,306.58 L 90.43,306.58 L 90.43,304.67 L 91.8,304.67 L 91.8,302.75 L 91.8,300.83 L 93.17,300.83 L 93.17,298.92 L 94.53,298.92 L 94.53,297 L 94.53,295.08 L 95.9,295.08 L 95.9,293.17 L 97.27,293.17 L 97.27,291.25 L 97.27,289.33 L 98.63,289.33 L 98.63,287.42 L 100,287.42 L 100,285.5 L 100,283.58 L 101.37,283.58 L 101.37,281.67 L 102.73,281.67 L 102.73,279.75 L 104.10000000000001,279.75 L 104.10000000000001,277.83 L 104.10000000000001,275.92 L 105.47,275.92 L 105.47,274 L 106.83,274 L 106.83,272.08 L 106.83,270.17 L 108.2,270.17 L 108.2,268.25 L 109.57000000000001,268.25 L 109.57000000000001,266.33 L 110.93,266.33 L 110.93,264.42 L 112.3,264.42 L 112.3,262.5 L 112.3,260.58 L 113.67,260.58 L 113.67,258.67 L 115.03,258.67 L 115.03,256.75 L 116.4,256.75 L 116.4,254.83 L 117.77,254.83 L 117.77,252.92000000000002 L 117.77,251 L 119.13,251 L 119.13,249.08 L 120.5,249.08 L 120.5,247.17000000000002 L 121.87,247.17000000000002 L 121.87,245.25 L 123.23,245.25 L 123.23,243.33 L 124.60000000000001,243.33 L 124.60000000000001,241.42000000000002 L 124.60000000000001,239.5 L 125.97,239.5 L 125.97,237.58 L 127.33,237.58 L 127.33,235.67000000000002 L 128.7,235.67000000000002 L 128.7,233.75 L 130.07,233.75 L 130.07,231.83 L 131.43,231.83 L 131.43,229.92000000000002 L 132.8,229.92000000000002 L 132.8,228 L 134.17000000000002,228 L 134.17000000000002,226.08 L 135.53,226.08 L 135.53,224.17000000000002 L 136.9,224.17000000000002 L 136.9,222.25 L 138.27,222.25 L 138.27,220.33 L 139.63,220.33 L 139.63,218.42000000000002 L 141,218.42000000000002 L 141,216.5 L 142.37,216.5 L 142.37,214.58 L 143.73,214.58 L 143.73,212.67000000000002 L 145.1,212.67000000000002 L 145.1,210.75 L 146.47,210.75 L 146.47,208.83 L 147.83,208.83 L 147.83,206.92000000000002 L 149.20000000000002,206.92000000000002 L 149.20000000000002,205 L 150.57,205 L 150.57,203.08 L 151.93,203.08 L 151.93,201.17000000000002 L 153.3,201.17000000000002 L 153.3,199.25 L 154.67000000000002,199.25 L 154.67000000000002,197.33 L 156.03,197.33 L 156.03,195.42000000000002 L 157.4,195.42000000000002 L 157.4,193.5 L 158.77,193.5 L 160.13,193.5 L 160.13,191.58 L 161.5,191.58 L 161.5,189.67000000000002 L 162.87,189.67000000000002 L 162.87,187.75 L 164.23,187.75 L 164.23,185.83 L 165.6,185.83 L 165.6,183.92000000000002 L 166.97,183.92000000000002 L 168.33,183.92000000000002 L 168.33,182 L 169.70000000000002,182 L 169.70000000000002,180.08 L 171.07,180.08 L 171.07,178.17000000000002 L 172.43,178.17000000000002 L 172.43,176.25 L 173.8,176.25 L 175.17000000000002,176.25 L 175.17000000000002,174.33 L 176.53,174.33 L 176.53,172.42000000000002 L 177.9,172.42000000000002 L 177.9,170.5 L 179.27,170.5 L 179.27,168.58 L 180.63,168.58 L 182,168.58 L 182,166.67000000000002 L 183.37,166.67000000000002 L 183.37,164.75 L 184.73,164.75 L 186.1,164.75 L 186.1,162.83 L 187.47,162.83 L 187.47,160.92000000000002 L 188.83,160.92000000000002 L 188.83,159 L 190.20000000000002,159 L 191.57,159 L 191.57,157.08 L 192.93,157.08 L 192.93,155.17000000000002 L 194.3,155.17000000000002 L 195.67000000000002,155.17000000000002 L 195.67000000000002,153.25 L 197.03,153.25 L 197.03,151.33 L 198.4,151.33 L 199.77,151.33 L 199.77,149.42000000000002 L 201.13,149.42000000000002 L 201.13,147.5 L 202.5,147.5 L 203.87,147.5 L 203.87,145.58 L 205.23000000000002,145.58 L 205.23000000000002,143.67000000000002 L 206.6,143.67000000000002 L 207.97,143.67000000000002 L 207.97,141.75 L 209.33,141.75 L 210.70000000000002,141.75 L 210.70000000000002,139.83 L 212.07,139.83 L 212.07,137.92000000000002 L 213.43,137.92000000000002 L 214.8,137.92000000000002 L 214.8,136 L 216.17000000000002,136 L 217.53,136 L 217.53,134.08 L 218.9,134.08 L 218.9,132.17000000000002 L 220.27,132.17000000000002 L 221.63,132.17000000000002 L 221.63,130.25 L 223,130.25 L 224.37,130.25 L 224.37,128.33 L 225.73000000000002,128.33 L 227.1,128.33 L 227.1,126.42 L 228.47,126.42 L 228.47,124.5 L 229.83,124.5 L 231.20000000000002,124.5 L 231.20000000000002,122.58 L 232.57,122.58 L 233.93,122.58 L 233.93,120.67 L 235.3,120.67 L 236.67000000000002,120.67 L 236.67000000000002,118.75 L 238.03,118.75 L 239.4,118.75 L 239.4,116.83 L 240.77,116.83 L 242.13,116.83 L 242.13,114.92 L 243.5,114.92 L 244.87,114.92 L 244.87,113 L 246.23000000000002,113 L 247.6,113 L 247.6,111.08 L 248.97,111.08 L 250.33,111.08 L 250.33,109.17 L 251.70000000000002,109.17 L 253.07,109.17 L 253.07,107.25 L 254.43,107.25 L 255.8,107.25 L 255.8,105.33 L 257.17,105.33 L 258.53000000000003,105.33 L 258.53000000000003,103.42 L 259.9,103.42 L 261.27,103.42 L 261.27,101.5 L 262.63,101.5 L 264,101.5" stroke="#2ca02c" stroke-width="2" fill="none" /></g><rect x="310" y="34" width="200.6" height="74" fill="#ffffff" /><rect x="310" y="34" width="200.6" height="74" fill="none" stroke="#000000" stroke-width="1" /><text x="340" y="53.2" font-size="12" text-anchor="start">Model A  (AUC = 0.973)</text><line x1="320" y1="49" x2="332" y2="49" stroke="#1f77b4" stroke-width="2" /><text x="340" y="71.2" font-size="12" text-anchor="start">Model B  (AUC = 0.841)</text><line x1="320" y1="67" x2="332" y2="67" stroke="#ff7f0e" stroke-width="2" /><text x="340" y="89.2" font-size="12" text-anchor="start">Model C  (AUC = 0.632)</text><line x1="320" y1="85" x2="332" y2="85" stroke="#2ca02c" stroke-width="2" /></svg>