<svg xmlns="http://www.w3.org/2000/svg" width="759" height="541" fill="black"><rect width="100%" height="100%" fill="white" /><line x1="65" y1="492" x2="665" y2="492" stroke="black" stroke-width="1" /><line x1="65" y1="42" x2="65" y2="492" stroke="black" stroke-width="1" /><text x="55" y="405.5" font-size="10" text-anchor="end">prot_1</text><line x1="60" y1="402" x2="65" y2="402" stroke="black" stroke-width="1" /><text x="55" y="315.5" font-size="10" text-anchor="end">prot_2</text><line x1="60" y1="312" x2="65" y2="312" stroke="black" stroke-width="1" /><text x="55" y="225.5" font-size="10" text-anchor="end">prot_3</text><line x1="60" y1="222" x2="65" y2="222" stroke="black" stroke-width="1" /><text x="55" y="135.5" font-size="10" text-anchor="end">prot_4</text><line x1="60" y1="132" x2="65" y2="132" stroke="black" stroke-width="1" /><text x="55" y="45.5" font-size="10" text-anchor="end">prot_5</text><line x1="60" y1="42" x2="65" y2="42" stroke="black" stroke-width="1" /><line x1="65" y1="492" x2="65" y2="497" stroke="black" stroke-width="1" /><text x="65" y="507" font-size="10" text-anchor="middle">0</text><line x1="185" y1="492" x2="185" y2="497" stroke="black" stroke-width="1" /><text x="185" y="507" font-size="10" text-anchor="middle">10</text><line x1="305" y1="492" x2="305" y2="497" stroke="black" stroke-width="1" /><text x="305" y="507" font-size="10" text-anchor="middle">20</text><line x1="425" y1="492" x2="425" y2="497" stroke="black" stroke-width="1" /><text x="425" y="507" font-size="10" text-anchor="middle">30</text><line x1="545" y1="492" x2="545" y2="497" stroke="black" stroke-width="1" /><text x="545" y="507" font-size="10" text-anchor="middle">40</text><line x1="665" y1="492" x2="665" y2="497" stroke="black" stroke-width="1" /><text x="665" y="507" font-size="10" text-anchor="middle">50</text><text x="379.5" y="21" font-size="16" text-anchor="middle">Brick Plot — Protein Secondary Structure</text><rect x="65" y="402" width="11.399999999999999" height="85.5" fill="#aaaaaa" /><rect x="77" y="402" width="11.399999999999999" height="85.5" fill="#aaaaaa" /><rect x="89" y="402" width="11.399999999999999" height="85.5" fill="#aaaaaa" /><rect x="101" y="402" width="11.399999999999999" height="85.5" fill="#aaaaaa" /><rect x="113" y="402" width="11.399999999999999" height="85.5" fill="#aaaaaa" /><rect x="125" y="402" width="11.399999999999999" height="85.5" fill="steelblue" /><rect x="137" y="402" width="11.399999999999999" height="85.5" fill="steelblue" /><rect x="149" y="402" width="11.399999999999999" height="85.5" fill="steelblue" /><rect x="161" y="402" width="11.399999999999999" height="85.5" fill="steelblue" /><rect x="173" y="402" width="11.399999999999999" height="85.5" fill="steelblue" /><rect x="185" y="402" width="11.399999999999999" height="85.5" fill="steelblue" /><rect x="197" y="402" width="11.399999999999999" height="85.5" fill="steelblue" /><rect x="209" y="402" width="11.399999999999999" height="85.5" fill="steelblue" /><rect x="221" y="402" width="11.400000000000027" height="85.5" fill="steelblue" /><rect x="233.00000000000003" y="402" width="11.399999999999972" height="85.5" fill="steelblue" /><rect x="245" y="402" width="11.399999999999999" height="85.5" fill="#aaaaaa" /><rect x="257" y="402" width="11.399999999999999" height="85.5" fill="#aaaaaa" /><rect x="269" y="402" width="11.399999999999999" height="85.5" fill="#aaaaaa" /><rect x="281" y="402" width="11.399999999999999" height="85.5" fill="#aaaaaa" /><rect x="293" y="402" width="11.399999999999999" height="85.5" fill="firebrick" /><rect x="305" y="402" width="11.399999999999999" height="85.5" fill="firebrick" /><rect x="317" y="402" width="11.399999999999999" height="85.5" fill="firebrick" /><rect x="329" y="402" width="11.399999999999999" height="85.5" fill="firebrick" /><rect x="341" y="402" width="11.399999999999999" height="85.5" fill="firebrick" /><rect x="353" y="402" width="11.399999999999999" height="85.5" fill="firebrick" /><rect x="365" y="402" width="11.399999999999999" height="85.5" fill="#aaaaaa" /><rect x="377" y="402" width="11.399999999999999" height="85.5" fill="#aaaaaa" /><rect x="389" y="402" width="11.400000000000054" height="85.5" fill="#aaaaaa" /><rect x="401.00000000000006" y="402" width="11.399999999999945" height="85.5" fill="seagreen" /><rect x="413" y="402" width="11.399999999999999" height="85.5" fill="seagreen" /><rect x="425" y="402" width="11.399999999999999" height="85.5" fill="#aaaaaa" /><rect x="437" y="402" width="11.399999999999999" height="85.5" fill="#aaaaaa" /><rect x="449" y="402" width="11.399999999999999" height="85.5" fill="#aaaaaa" /><rect x="461" y="402" width="11.400000000000054" height="85.5" fill="firebrick" /><rect x="473.00000000000006" y="402" width="11.399999999999945" height="85.5" fill="firebrick" /><rect x="485" y="402" width="11.399999999999999" height="85.5" fill="firebrick" /><rect x="497" y="402" width="11.399999999999999" height="85.5" fill="firebrick" /><rect x="509" y="402" width="11.399999999999999" height="85.5" fill="firebrick" /><rect x="521" y="402" width="11.399999999999999" height="85.5" fill="#aaaaaa" /><rect x="533" y="402" width="11.399999999999999" height="85.5" fill="#aaaaaa" /><rect x="545" y="402" width="11.399999999999999" height="85.5" fill="#aaaaaa" /><rect x="65" y="312" width="11.399999999999999" height="85.5" fill="#aaaaaa" /><rect x="77" y="312" width="11.399999999999999" height="85.5" fill="#aaaaaa" /><rect x="89" y="312" width="11.399999999999999" height="85.5" fill="#aaaaaa" /><rect x="101" y="312" width="11.399999999999999" height="85.5" fill="steelblue" /><rect x="113" y="312" width="11.399999999999999" height="85.5" fill="steelblue" /><rect x="125" y="312" width="11.399999999999999" height="85.5" fill="steelblue" /><rect x="137" y="312" width="11.399999999999999" height="85.5" fill="steelblue" /><rect x="149" y="312" width="11.399999999999999" height="85.5" fill="steelblue" /><rect x="161" y="312" width="11.399999999999999" height="85.5" fill="steelblue" /><rect x="173" y="312" width="11.399999999999999" height="85.5" fill="steelblue" /><rect x="185" y="312" width="11.399999999999999" height="85.5" fill="steelblue" /><rect x="197" y="312" width="11.399999999999999" height="85.5" fill="steelblue" /><rect x="209" y="312" width="11.399999999999999" height="85.5" fill="steelblue" /><rect x="221" y="312" width="11.400000000000027" height="85.5" fill="steelblue" /><rect x="233.00000000000003" y="312" width="11.399999999999972" height="85.5" fill="steelblue" /><rect x="245" y="312" width="11.399999999999999" height="85.5" fill="steelblue" /><rect x="257" y="312" width="11.399999999999999" height="85.5" fill="#aaaaaa" /><rect x="269" y="312" width="11.399999999999999" height="85.5" fill="#aaaaaa" /><rect x="281" y="312" width="11.399999999999999" height="85.5" fill="#aaaaaa" /><rect x="293" y="312" width="11.399999999999999" height="85.5" fill="#aaaaaa" /><rect x="305" y="312" width="11.399999999999999" height="85.5" fill="firebrick" /><rect x="317" y="312" width="11.399999999999999" height="85.5" fill="firebrick" /><rect x="329" y="312" width="11.399999999999999" height="85.5" fill="firebrick" /><rect x="341" y="312" width="11.399999999999999" height="85.5" fill="firebrick" /><rect x="353" y="312" width="11.399999999999999" height="85.5" fill="firebrick" /><rect x="365" y="312" width="11.399999999999999" height="85.5" fill="firebrick" /><rect x="377" y="312" width="11.399999999999999" height="85.5" fill="firebrick" /><rect x="389" y="312" width="11.400000000000054" height="85.5" fill="#aaaaaa" /><rect x="401.00000000000006" y="312" width="11.399999999999945" height="85.5" fill="#aaaaaa" /><rect x="413" y="312" width="11.399999999999999" height="85.5" fill="seagreen" /><rect x="425" y="312" width="11.399999999999999" height="85.5" fill="#aaaaaa" /><rect x="437" y="312" width="11.399999999999999" height="85.5" fill="#aaaaaa" /><rect x="449" y="312" width="11.399999999999999" height="85.5" fill="#aaaaaa" /><rect x="461" y="312" width="11.400000000000054" height="85.5" fill="firebrick" /><rect x="473.00000000000006" y="312" width="11.399999999999945" height="85.5" fill="firebrick" /><rect x="485" y="312" width="11.399999999999999" height="85.5" fill="firebrick" /><rect x="497" y="312" width="11.399999999999999" height="85.5" fill="firebrick" /><rect x="509" y="312" width="11.399999999999999" height="85.5" fill="firebrick" /><rect x="521" y="312" width="11.399999999999999" height="85.5" fill="#aaaaaa" /><rect x="533" y="312" width="11.399999999999999" height="85.5" fill="#aaaaaa" /><rect x="545" y="312" width="11.399999999999999" height="85.5" fill="#aaaaaa" /><rect x="65" y="222" width="11.399999999999999" height="85.5" fill="#aaaaaa" /><rect x="77" y="222" width="11.399999999999999" height="85.5" fill="#aaaaaa" /><rect x="89" y="222" width="11.399999999999999" height="85.5" fill="#aaaaaa" /><rect x="101" y="222" width="11.399999999999999" height="85.5" fill="#aaaaaa" /><rect x="113" y="222" width="11.399999999999999" height="85.5" fill="steelblue" /><rect x="125" y="222" width="11.399999999999999" height="85.5" fill="steelblue" /><rect x="137" y="222" width="11.399999999999999" height="85.5" fill="steelblue" /><rect x="149" y="222" width="11.399999999999999" height="85.5" fill="steelblue" /><rect x="161" y="222" width="11.399999999999999" height="85.5" fill="steelblue" /><rect x="173" y="222" width="11.399999999999999" height="85.5" fill="steelblue" /><rect x="185" y="222" width="11.399999999999999" height="85.5" fill="steelblue" /><rect x="197" y="222" width="11.399999999999999" height="85.5" fill="steelblue" /><rect x="209" y="222" width="11.399999999999999" height="85.5" fill="steelblue" /><rect x="221" y="222" width="11.400000000000027" height="85.5" fill="#aaaaaa" /><rect x="233.00000000000003" y="222" width="11.399999999999972" height="85.5" fill="#aaaaaa" /><rect x="245" y="222" width="11.399999999999999" height="85.5" fill="#aaaaaa" /><rect x="257" y="222" width="11.399999999999999" height="85.5" fill="#aaaaaa" /><rect x="269" y="222" width="11.399999999999999" height="85.5" fill="#aaaaaa" /><rect x="281" y="222" width="11.399999999999999" height="85.5" fill="firebrick" /><rect x="293" y="222" width="11.399999999999999" height="85.5" fill="firebrick" /><rect x="305" y="222" width="11.399999999999999" height="85.5" fill="firebrick" /><rect x="317" y="222" width="11.399999999999999" height="85.5" fill="firebrick" /><rect x="329" y="222" width="11.399999999999999" height="85.5" fill="firebrick" /><rect x="341" y="222" width="11.399999999999999" height="85.5" fill="firebrick" /><rect x="353" y="222" width="11.399999999999999" height="85.5" fill="#aaaaaa" /><rect x="365" y="222" width="11.399999999999999" height="85.5" fill="#aaaaaa" /><rect x="377" y="222" width="11.399999999999999" height="85.5" fill="#aaaaaa" /><rect x="389" y="222" width="11.400000000000054" height="85.5" fill="seagreen" /><rect x="401.00000000000006" y="222" width="11.399999999999945" height="85.5" fill="seagreen" /><rect x="413" y="222" width="11.399999999999999" height="85.5" fill="#aaaaaa" /><rect x="425" y="222" width="11.399999999999999" height="85.5" fill="#aaaaaa" /><rect x="437" y="222" width="11.399999999999999" height="85.5" fill="#aaaaaa" /><rect x="449" y="222" width="11.399999999999999" height="85.5" fill="firebrick" /><rect x="461" y="222" width="11.400000000000054" height="85.5" fill="firebrick" /><rect x="473.00000000000006" y="222" width="11.399999999999945" height="85.5" fill="firebrick" /><rect x="485" y="222" width="11.399999999999999" height="85.5" fill="firebrick" /><rect x="497" y="222" width="11.399999999999999" height="85.5" fill="firebrick" /><rect x="509" y="222" width="11.399999999999999" height="85.5" fill="firebrick" /><rect x="521" y="222" width="11.399999999999999" height="85.5" fill="#aaaaaa" /><rect x="533" y="222" width="11.399999999999999" height="85.5" fill="#aaaaaa" /><rect x="545" y="222" width="11.399999999999999" height="85.5" fill="#aaaaaa" /><rect x="65" y="132" width="11.399999999999999" height="85.5" fill="#aaaaaa" /><rect x="77" y="132" width="11.399999999999999" height="85.5" fill="#aaaaaa" /><rect x="89" y="132" width="11.399999999999999" height="85.5" fill="#aaaaaa" /><rect x="101" y="132" width="11.399999999999999" height="85.5" fill="steelblue" /><rect x="113" y="132" width="11.399999999999999" height="85.5" fill="steelblue" /><rect x="125" y="132" width="11.399999999999999" height="85.5" fill="steelblue" /><rect x="137" y="132" width="11.399999999999999" height="85.5" fill="steelblue" /><rect x="149" y="132" width="11.399999999999999" height="85.5" fill="steelblue" /><rect x="161" y="132" width="11.399999999999999" height="85.5" fill="steelblue" /><rect x="173" y="132" width="11.399999999999999" height="85.5" fill="steelblue" /><rect x="185" y="132" width="11.399999999999999" height="85.5" fill="steelblue" /><rect x="197" y="132" width="11.399999999999999" height="85.5" fill="steelblue" /><rect x="209" y="132" width="11.399999999999999" height="85.5" fill="steelblue" /><rect x="221" y="132" width="11.400000000000027" height="85.5" fill="steelblue" /><rect x="233.00000000000003" y="132" width="11.399999999999972" height="85.5" fill="steelblue" /><rect x="245" y="132" width="11.399999999999999" height="85.5" fill="#aaaaaa" /><rect x="257" y="132" width="11.399999999999999" height="85.5" fill="#aaaaaa" /><rect x="269" y="132" width="11.399999999999999" height="85.5" fill="#aaaaaa" /><rect x="281" y="132" width="11.399999999999999" height="85.5" fill="#aaaaaa" /><rect x="293" y="132" width="11.399999999999999" height="85.5" fill="#aaaaaa" /><rect x="305" y="132" width="11.399999999999999" height="85.5" fill="firebrick" /><rect x="317" y="132" width="11.399999999999999" height="85.5" fill="firebrick" /><rect x="329" y="132" width="11.399999999999999" height="85.5" fill="firebrick" /><rect x="341" y="132" width="11.399999999999999" height="85.5" fill="firebrick" /><rect x="353" y="132" width="11.399999999999999" height="85.5" fill="firebrick" /><rect x="365" y="132" width="11.399999999999999" height="85.5" fill="#aaaaaa" /><rect x="377" y="132" width="11.399999999999999" height="85.5" fill="#aaaaaa" /><rect x="389" y="132" width="11.400000000000054" height="85.5" fill="#aaaaaa" /><rect x="401.00000000000006" y="132" width="11.399999999999945" height="85.5" fill="seagreen" /><rect x="413" y="132" width="11.399999999999999" height="85.5" fill="seagreen" /><rect x="425" y="132" width="11.399999999999999" height="85.5" fill="#aaaaaa" /><rect x="437" y="132" width="11.399999999999999" height="85.5" fill="#aaaaaa" /><rect x="449" y="132" width="11.399999999999999" height="85.5" fill="#aaaaaa" /><rect x="461" y="132" width="11.400000000000054" height="85.5" fill="firebrick" /><rect x="473.00000000000006" y="132" width="11.399999999999945" height="85.5" fill="firebrick" /><rect x="485" y="132" width="11.399999999999999" height="85.5" fill="firebrick" /><rect x="497" y="132" width="11.399999999999999" height="85.5" fill="firebrick" /><rect x="509" y="132" width="11.399999999999999" height="85.5" fill="firebrick" /><rect x="521" y="132" width="11.399999999999999" height="85.5" fill="firebrick" /><rect x="533" y="132" width="11.399999999999999" height="85.5" fill="#aaaaaa" /><rect x="545" y="132" width="11.399999999999999" height="85.5" fill="#aaaaaa" /><rect x="557" y="132" width="11.399999999999999" height="85.5" fill="#aaaaaa" /><rect x="65" y="42" width="11.399999999999999" height="85.5" fill="#aaaaaa" /><rect x="77" y="42" width="11.399999999999999" height="85.5" fill="#aaaaaa" /><rect x="89" y="42" width="11.399999999999999" height="85.5" fill="#aaaaaa" /><rect x="101" y="42" width="11.399999999999999" height="85.5" fill="#aaaaaa" /><rect x="113" y="42" width="11.399999999999999" height="85.5" fill="steelblue" /><rect x="125" y="42" width="11.399999999999999" height="85.5" fill="steelblue" /><rect x="137" y="42" width="11.399999999999999" height="85.5" fill="steelblue" /><rect x="149" y="42" width="11.399999999999999" height="85.5" fill="steelblue" /><rect x="161" y="42" width="11.399999999999999" height="85.5" fill="steelblue" /><rect x="173" y="42" width="11.399999999999999" height="85.5" fill="steelblue" /><rect x="185" y="42" width="11.399999999999999" height="85.5" fill="steelblue" /><rect x="197" y="42" width="11.399999999999999" height="85.5" fill="steelblue" /><rect x="209" y="42" width="11.399999999999999" height="85.5" fill="steelblue" /><rect x="221" y="42" width="11.400000000000027" height="85.5" fill="#aaaaaa" /><rect x="233.00000000000003" y="42" width="11.399999999999972" height="85.5" fill="#aaaaaa" /><rect x="245" y="42" width="11.399999999999999" height="85.5" fill="#aaaaaa" /><rect x="257" y="42" width="11.399999999999999" height="85.5" fill="#aaaaaa" /><rect x="269" y="42" width="11.399999999999999" height="85.5" fill="firebrick" /><rect x="281" y="42" width="11.399999999999999" height="85.5" fill="firebrick" /><rect x="293" y="42" width="11.399999999999999" height="85.5" fill="firebrick" /><rect x="305" y="42" width="11.399999999999999" height="85.5" fill="firebrick" /><rect x="317" y="42" width="11.399999999999999" height="85.5" fill="firebrick" /><rect x="329" y="42" width="11.399999999999999" height="85.5" fill="firebrick" /><rect x="341" y="42" width="11.399999999999999" height="85.5" fill="#aaaaaa" /><rect x="353" y="42" width="11.399999999999999" height="85.5" fill="#aaaaaa" /><rect x="365" y="42" width="11.399999999999999" height="85.5" fill="#aaaaaa" /><rect x="377" y="42" width="11.399999999999999" height="85.5" fill="seagreen" /><rect x="389" y="42" width="11.400000000000054" height="85.5" fill="seagreen" /><rect x="401.00000000000006" y="42" width="11.399999999999945" height="85.5" fill="#aaaaaa" /><rect x="413" y="42" width="11.399999999999999" height="85.5" fill="#aaaaaa" /><rect x="425" y="42" width="11.399999999999999" height="85.5" fill="#aaaaaa" /><rect x="437" y="42" width="11.399999999999999" height="85.5" fill="#aaaaaa" /><rect x="449" y="42" width="11.399999999999999" height="85.5" fill="firebrick" /><rect x="461" y="42" width="11.400000000000054" height="85.5" fill="firebrick" /><rect x="473.00000000000006" y="42" width="11.399999999999945" height="85.5" fill="firebrick" /><rect x="485" y="42" width="11.399999999999999" height="85.5" fill="firebrick" /><rect x="497" y="42" width="11.399999999999999" height="85.5" fill="firebrick" /><rect x="509" y="42" width="11.399999999999999" height="85.5" fill="#aaaaaa" /><rect x="521" y="42" width="11.399999999999999" height="85.5" fill="#aaaaaa" /><rect x="533" y="42" width="11.399999999999999" height="85.5" fill="#aaaaaa" /><rect x="545" y="42" width="11.399999999999999" height="85.5" fill="#aaaaaa" /><rect x="557" y="42" width="11.399999999999999" height="85.5" fill="#aaaaaa" /><text x="71" y="447" font-size="12" text-anchor="middle">C</text><text x="83" y="447" font-size="12" text-anchor="middle">C</text><text x="95" y="447" font-size="12" text-anchor="middle">C</text><text x="107" y="447" font-size="12" text-anchor="middle">C</text><text x="119" y="447" font-size="12" text-anchor="middle">C</text><text x="131" y="447" font-size="12" text-anchor="middle">H</text><text x="143" y="447" font-size="12" text-anchor="middle">H</text><text x="155" y="447" font-size="12" text-anchor="middle">H</text><text x="167" y="447" font-size="12" text-anchor="middle">H</text><text x="179" y="447" font-size="12" text-anchor="middle">H</text><text x="191" y="447" font-size="12" text-anchor="middle">H</text><text x="203" y="447" font-size="12" text-anchor="middle">H</text><text x="215" y="447" font-size="12" text-anchor="middle">H</text><text x="227" y="447" font-size="12" text-anchor="middle">H</text><text x="239" y="447" font-size="12" text-anchor="middle">H</text><text x="251" y="447" font-size="12" text-anchor="middle">C</text><text x="263" y="447" font-size="12" text-anchor="middle">C</text><text x="275" y="447" font-size="12" text-anchor="middle">C</text><text x="287" y="447" font-size="12" text-anchor="middle">C</text><text x="299" y="447" font-size="12" text-anchor="middle">E</text><text x="311" y="447" font-size="12" text-anchor="middle">E</text><text x="323" y="447" font-size="12" text-anchor="middle">E</text><text x="335" y="447" font-size="12" text-anchor="middle">E</text><text x="347" y="447" font-size="12" text-anchor="middle">E</text><text x="359" y="447" font-size="12" text-anchor="middle">E</text><text x="371" y="447" font-size="12" text-anchor="middle">C</text><text x="383" y="447" font-size="12" text-anchor="middle">C</text><text x="395" y="447" font-size="12" text-anchor="middle">C</text><text x="407" y="447" font-size="12" text-anchor="middle">T</text><text x="419" y="447" font-size="12" text-anchor="middle">T</text><text x="431" y="447" font-size="12" text-anchor="middle">C</text><text x="443" y="447" font-size="12" text-anchor="middle">C</text><text x="455" y="447" font-size="12" text-anchor="middle">C</text><text x="467" y="447" font-size="12" text-anchor="middle">E</text><text x="479" y="447" font-size="12" text-anchor="middle">E</text><text x="491" y="447" font-size="12" text-anchor="middle">E</text><text x="503" y="447" font-size="12" text-anchor="middle">E</text><text x="515" y="447" font-size="12" text-anchor="middle">E</text><text x="527" y="447" font-size="12" text-anchor="middle">C</text><text x="539" y="447" font-size="12" text-anchor="middle">C</text><text x="551" y="447" font-size="12" text-anchor="middle">C</text><text x="71" y="357" font-size="12" text-anchor="middle">C</text><text x="83" y="357" font-size="12" text-anchor="middle">C</text><text x="95" y="357" font-size="12" text-anchor="middle">C</text><text x="107" y="357" font-size="12" text-anchor="middle">H</text><text x="119" y="357" font-size="12" text-anchor="middle">H</text><text x="131" y="357" font-size="12" text-anchor="middle">H</text><text x="143" y="357" font-size="12" text-anchor="middle">H</text><text x="155" y="357" font-size="12" text-anchor="middle">H</text><text x="167" y="357" font-size="12" text-anchor="middle">H</text><text x="179" y="357" font-size="12" text-anchor="middle">H</text><text x="191" y="357" font-size="12" text-anchor="middle">H</text><text x="203" y="357" font-size="12" text-anchor="middle">H</text><text x="215" y="357" font-size="12" text-anchor="middle">H</text><text x="227" y="357" font-size="12" text-anchor="middle">H</text><text x="239" y="357" font-size="12" text-anchor="middle">H</text><text x="251" y="357" font-size="12" text-anchor="middle">H</text><text x="263" y="357" font-size="12" text-anchor="middle">C</text><text x="275" y="357" font-size="12" text-anchor="middle">C</text><text x="287" y="357" font-size="12" text-anchor="middle">C</text><text x="299" y="357" font-size="12" text-anchor="middle">C</text><text x="311" y="357" font-size="12" text-anchor="middle">E</text><text x="323" y="357" font-size="12" text-anchor="middle">E</text><text x="335" y="357" font-size="12" text-anchor="middle">E</text><text x="347" y="357" font-size="12" text-anchor="middle">E</text><text x="359" y="357" font-size="12" text-anchor="middle">E</text><text x="371" y="357" font-size="12" text-anchor="middle">E</text><text x="383" y="357" font-size="12" text-anchor="middle">E</text><text x="395" y="357" font-size="12" text-anchor="middle">C</text><text x="407" y="357" font-size="12" text-anchor="middle">C</text><text x="419" y="357" font-size="12" text-anchor="middle">T</text><text x="431" y="357" font-size="12" text-anchor="middle">C</text><text x="443" y="357" font-size="12" text-anchor="middle">C</text><text x="455" y="357" font-size="12" text-anchor="middle">C</text><text x="467" y="357" font-size="12" text-anchor="middle">E</text><text x="479" y="357" font-size="12" text-anchor="middle">E</text><text x="491" y="357" font-size="12" text-anchor="middle">E</text><text x="503" y="357" font-size="12" text-anchor="middle">E</text><text x="515" y="357" font-size="12" text-anchor="middle">E</text><text x="527" y="357" font-size="12" text-anchor="middle">C</text><text x="539" y="357" font-size="12" text-anchor="middle">C</text><text x="551" y="357" font-size="12" text-anchor="middle">C</text><text x="71" y="267" font-size="12" text-anchor="middle">C</text><text x="83" y="267" font-size="12" text-anchor="middle">C</text><text x="95" y="267" font-size="12" text-anchor="middle">C</text><text x="107" y="267" font-size="12" text-anchor="middle">C</text><text x="119" y="267" font-size="12" text-anchor="middle">H</text><text x="131" y="267" font-size="12" text-anchor="middle">H</text><text x="143" y="267" font-size="12" text-anchor="middle">H</text><text x="155" y="267" font-size="12" text-anchor="middle">H</text><text x="167" y="267" font-size="12" text-anchor="middle">H</text><text x="179" y="267" font-size="12" text-anchor="middle">H</text><text x="191" y="267" font-size="12" text-anchor="middle">H</text><text x="203" y="267" font-size="12" text-anchor="middle">H</text><text x="215" y="267" font-size="12" text-anchor="middle">H</text><text x="227" y="267" font-size="12" text-anchor="middle">C</text><text x="239" y="267" font-size="12" text-anchor="middle">C</text><text x="251" y="267" font-size="12" text-anchor="middle">C</text><text x="263" y="267" font-size="12" text-anchor="middle">C</text><text x="275" y="267" font-size="12" text-anchor="middle">C</text><text x="287" y="267" font-size="12" text-anchor="middle">E</text><text x="299" y="267" font-size="12" text-anchor="middle">E</text><text x="311" y="267" font-size="12" text-anchor="middle">E</text><text x="323" y="267" font-size="12" text-anchor="middle">E</text><text x="335" y="267" font-size="12" text-anchor="middle">E</text><text x="347" y="267" font-size="12" text-anchor="middle">E</text><text x="359" y="267" font-size="12" text-anchor="middle">C</text><text x="371" y="267" font-size="12" text-anchor="middle">C</text><text x="383" y="267" font-size="12" text-anchor="middle">C</text><text x="395" y="267" font-size="12" text-anchor="middle">T</text><text x="407" y="267" font-size="12" text-anchor="middle">T</text><text x="419" y="267" font-size="12" text-anchor="middle">C</text><text x="431" y="267" font-size="12" text-anchor="middle">C</text><text x="443" y="267" font-size="12" text-anchor="middle">C</text><text x="455" y="267" font-size="12" text-anchor="middle">E</text><text x="467" y="267" font-size="12" text-anchor="middle">E</text><text x="479" y="267" font-size="12" text-anchor="middle">E</text><text x="491" y="267" font-size="12" text-anchor="middle">E</text><text x="503" y="267" font-size="12" text-anchor="middle">E</text><text x="515" y="267" font-size="12" text-anchor="middle">E</text><text x="527" y="267" font-size="12" text-anchor="middle">C</text><text x="539" y="267" font-size="12" text-anchor="middle">C</text><text x="551" y="267" font-size="12" text-anchor="middle">C</text><text x="71" y="177" font-size="12" text-anchor="middle">C</text><text x="83" y="177" font-size="12" text-anchor="middle">C</text><text x="95" y="177" font-size="12" text-anchor="middle">C</text><text x="107" y="177" font-size="12" text-anchor="middle">H</text><text x="119" y="177" font-size="12" text-anchor="middle">H</text><text x="131" y="177" font-size="12" text-anchor="middle">H</text><text x="143" y="177" font-size="12" text-anchor="middle">H</text><text x="155" y="177" font-size="12" text-anchor="middle">H</text><text x="167" y="177" font-size="12" text-anchor="middle">H</text><text x="179" y="177" font-size="12" text-anchor="middle">H</text><text x="191" y="177" font-size="12" text-anchor="middle">H</text><text x="203" y="177" font-size="12" text-anchor="middle">H</text><text x="215" y="177" font-size="12" text-anchor="middle">H</text><text x="227" y="177" font-size="12" text-anchor="middle">H</text><text x="239" y="177" font-size="12" text-anchor="middle">H</text><text x="251" y="177" font-size="12" text-anchor="middle">C</text><text x="263" y="177" font-size="12" text-anchor="middle">C</text><text x="275" y="177" font-size="12" text-anchor="middle">C</text><text x="287" y="177" font-size="12" text-anchor="middle">C</text><text x="299" y="177" font-size="12" text-anchor="middle">C</text><text x="311" y="177" font-size="12" text-anchor="middle">E</text><text x="323" y="177" font-size="12" text-anchor="middle">E</text><text x="335" y="177" font-size="12" text-anchor="middle">E</text><text x="347" y="177" font-size="12" text-anchor="middle">E</text><text x="359" y="177" font-size="12" text-anchor="middle">E</text><text x="371" y="177" font-size="12" text-anchor="middle">C</text><text x="383" y="177" font-size="12" text-anchor="middle">C</text><text x="395" y="177" font-size="12" text-anchor="middle">C</text><text x="407" y="177" font-size="12" text-anchor="middle">T</text><text x="419" y="177" font-size="12" text-anchor="middle">T</text><text x="431" y="177" font-size="12" text-anchor="middle">C</text><text x="443" y="177" font-size="12" text-anchor="middle">C</text><text x="455" y="177" font-size="12" text-anchor="middle">C</text><text x="467" y="177" font-size="12" text-anchor="middle">E</text><text x="479" y="177" font-size="12" text-anchor="middle">E</text><text x="491" y="177" font-size="12" text-anchor="middle">E</text><text x="503" y="177" font-size="12" text-anchor="middle">E</text><text x="515" y="177" font-size="12" text-anchor="middle">E</text><text x="527" y="177" font-size="12" text-anchor="middle">E</text><text x="539" y="177" font-size="12" text-anchor="middle">C</text><text x="551" y="177" font-size="12" text-anchor="middle">C</text><text x="563" y="177" font-size="12" text-anchor="middle">C</text><text x="71" y="87" font-size="12" text-anchor="middle">C</text><text x="83" y="87" font-size="12" text-anchor="middle">C</text><text x="95" y="87" font-size="12" text-anchor="middle">C</text><text x="107" y="87" font-size="12" text-anchor="middle">C</text><text x="119" y="87" font-size="12" text-anchor="middle">H</text><text x="131" y="87" font-size="12" text-anchor="middle">H</text><text x="143" y="87" font-size="12" text-anchor="middle">H</text><text x="155" y="87" font-size="12" text-anchor="middle">H</text><text x="167" y="87" font-size="12" text-anchor="middle">H</text><text x="179" y="87" font-size="12" text-anchor="middle">H</text><text x="191" y="87" font-size="12" text-anchor="middle">H</text><text x="203" y="87" font-size="12" text-anchor="middle">H</text><text x="215" y="87" font-size="12" text-anchor="middle">H</text><text x="227" y="87" font-size="12" text-anchor="middle">C</text><text x="239" y="87" font-size="12" text-anchor="middle">C</text><text x="251" y="87" font-size="12" text-anchor="middle">C</text><text x="263" y="87" font-size="12" text-anchor="middle">C</text><text x="275" y="87" font-size="12" text-anchor="middle">E</text><text x="287" y="87" font-size="12" text-anchor="middle">E</text><text x="299" y="87" font-size="12" text-anchor="middle">E</text><text x="311" y="87" font-size="12" text-anchor="middle">E</text><text x="323" y="87" font-size="12" text-anchor="middle">E</text><text x="335" y="87" font-size="12" text-anchor="middle">E</text><text x="347" y="87" font-size="12" text-anchor="middle">C</text><text x="359" y="87" font-size="12" text-anchor="middle">C</text><text x="371" y="87" font-size="12" text-anchor="middle">C</text><text x="383" y="87" font-size="12" text-anchor="middle">T</text><text x="395" y="87" font-size="12" text-anchor="middle">T</text><text x="407" y="87" font-size="12" text-anchor="middle">C</text><text x="419" y="87" font-size="12" text-anchor="middle">C</text><text x="431" y="87" font-size="12" text-anchor="middle">C</text><text x="443" y="87" font-size="12" text-anchor="middle">C</text><text x="455" y="87" font-size="12" text-anchor="middle">E</text><text x="467" y="87" font-size="12" text-anchor="middle">E</text><text x="479" y="87" font-size="12" text-anchor="middle">E</text><text x="491" y="87" font-size="12" text-anchor="middle">E</text><text x="503" y="87" font-size="12" text-anchor="middle">E</text><text x="515" y="87" font-size="12" text-anchor="middle">C</text><text x="527" y="87" font-size="12" text-anchor="middle">C</text><text x="539" y="87" font-size="12" text-anchor="middle">C</text><text x="551" y="87" font-size="12" text-anchor="middle">C</text><text x="563" y="87" font-size="12" text-anchor="middle">C</text><rect x="670" y="32" width="80" height="92" fill="white" /><rect x="670" y="32" width="80" height="92" fill="none" stroke="black" stroke-width="1" /><text x="700" y="47" font-size="12" text-anchor="start">C</text><rect x="680" y="41" width="12" height="12" fill="#aaaaaa" /><text x="700" y="65" font-size="12" text-anchor="start">E</text><rect x="680" y="59" width="12" height="12" fill="firebrick" /><text x="700" y="83" font-size="12" text-anchor="start">H</text><rect x="680" y="77" width="12" height="12" fill="steelblue" /><text x="700" y="101" font-size="12" text-anchor="start">T</text><rect x="680" y="95" width="12" height="12" fill="seagreen" /></svg>