<svg xmlns="http://www.w3.org/2000/svg" width="759" height="541" fill="black"><rect width="100%" height="100%" fill="white" /><line x1="65" y1="492" x2="665" y2="492" stroke="black" stroke-width="1" /><line x1="65" y1="42" x2="65" y2="492" stroke="black" stroke-width="1" /><text x="55" y="420.5" font-size="10" text-anchor="end">read_1</text><line x1="60" y1="417" x2="65" y2="417" stroke="black" stroke-width="1" /><text x="55" y="345.5" font-size="10" text-anchor="end">read_2</text><line x1="60" y1="342" x2="65" y2="342" stroke="black" stroke-width="1" /><text x="55" y="270.5" font-size="10" text-anchor="end">read_3</text><line x1="60" y1="267" x2="65" y2="267" stroke="black" stroke-width="1" /><text x="55" y="195.5" font-size="10" text-anchor="end">read_4</text><line x1="60" y1="192" x2="65" y2="192" stroke="black" stroke-width="1" /><text x="55" y="120.5" font-size="10" text-anchor="end">read_5</text><line x1="60" y1="117" x2="65" y2="117" stroke="black" stroke-width="1" /><text x="55" y="45.5" font-size="10" text-anchor="end">read_6</text><line x1="60" y1="42" x2="65" y2="42" stroke="black" stroke-width="1" /><line x1="65" y1="492" x2="65" y2="497" stroke="black" stroke-width="1" /><text x="65" y="507" font-size="10" text-anchor="middle">-20</text><line x1="215" y1="492" x2="215" y2="497" stroke="black" stroke-width="1" /><text x="215" y="507" font-size="10" text-anchor="middle">0</text><line x1="365" y1="492" x2="365" y2="497" stroke="black" stroke-width="1" /><text x="365" y="507" font-size="10" text-anchor="middle">20</text><line x1="515" y1="492" x2="515" y2="497" stroke="black" stroke-width="1" /><text x="515" y="507" font-size="10" text-anchor="middle">40</text><line x1="665" y1="492" x2="665" y2="497" stroke="black" stroke-width="1" /><text x="665" y="507" font-size="10" text-anchor="middle">60</text><text x="379.5" y="21" font-size="16" text-anchor="middle">Brick Plot — DNA Sequences</text><rect x="80" y="417" width="7.125" height="71.25" fill="rgb(0,0,255)" /><rect x="87.5" y="417" width="7.125" height="71.25" fill="rgb(209,113,5)" /><rect x="95" y="417" width="7.125" height="71.25" fill="rgb(209,113,5)" /><rect x="102.5" y="417" width="7.125" height="71.25" fill="rgb(0,0,255)" /><rect x="110" y="417" width="7.125" height="71.25" fill="rgb(209,113,5)" /><rect x="117.5" y="417" width="7.125" height="71.25" fill="rgb(0,150,0)" /><rect x="125" y="417" width="7.125" height="71.25" fill="rgb(255,0,0)" /><rect x="132.5" y="417" width="7.125" height="71.25" fill="rgb(0,0,255)" /><rect x="140" y="417" width="7.125" height="71.25" fill="rgb(0,150,0)" /><rect x="147.5" y="417" width="7.125" height="71.25" fill="rgb(209,113,5)" /><rect x="155" y="417" width="7.125" height="71.25" fill="rgb(209,113,5)" /><rect x="162.5" y="417" width="7.125" height="71.25" fill="rgb(0,0,255)" /><rect x="170" y="417" width="7.125" height="71.25" fill="rgb(0,0,255)" /><rect x="177.5" y="417" width="7.125" height="71.25" fill="rgb(209,113,5)" /><rect x="185" y="417" width="7.125" height="71.25" fill="rgb(0,0,255)" /><rect x="192.5" y="417" width="7.125" height="71.25" fill="rgb(0,150,0)" /><rect x="200" y="417" width="7.125" height="71.25" fill="rgb(0,0,255)" /><rect x="207.5" y="417" width="7.125" height="71.25" fill="rgb(255,0,0)" /><rect x="215" y="417" width="7.125" height="71.25" fill="rgb(0,0,255)" /><rect x="222.5" y="417" width="7.125" height="71.25" fill="rgb(0,150,0)" /><rect x="230" y="417" width="7.125" height="71.25" fill="rgb(255,0,0)" /><rect x="237.5" y="417" width="7.125" height="71.25" fill="rgb(0,0,255)" /><rect x="245" y="417" width="7.125" height="71.25" fill="rgb(0,150,0)" /><rect x="252.5" y="417" width="7.125" height="71.25" fill="rgb(255,0,0)" /><rect x="260" y="417" width="7.125" height="71.25" fill="rgb(0,0,255)" /><rect x="267.5" y="417" width="7.125" height="71.25" fill="rgb(0,150,0)" /><rect x="275" y="417" width="7.125" height="71.25" fill="rgb(255,0,0)" /><rect x="282.5" y="417" width="7.125" height="71.25" fill="rgb(0,0,255)" /><rect x="290" y="417" width="7.125" height="71.25" fill="rgb(0,150,0)" /><rect x="297.5" y="417" width="7.125" height="71.25" fill="rgb(255,0,0)" /><rect x="305" y="417" width="7.125" height="71.25" fill="rgb(0,0,255)" /><rect x="312.5" y="417" width="7.125" height="71.25" fill="rgb(0,150,0)" /><rect x="320" y="417" width="7.125" height="71.25" fill="rgb(255,0,0)" /><rect x="327.5" y="417" width="7.125" height="71.25" fill="rgb(0,0,255)" /><rect x="335" y="417" width="7.125" height="71.25" fill="rgb(0,150,0)" /><rect x="342.5" y="417" width="7.125" height="71.25" fill="rgb(255,0,0)" /><rect x="350" y="417" width="7.125" height="71.25" fill="rgb(0,0,255)" /><rect x="357.5" y="417" width="7.125" height="71.25" fill="rgb(0,150,0)" /><rect x="365" y="417" width="7.125" height="71.25" fill="rgb(255,0,0)" /><rect x="372.5" y="417" width="7.125" height="71.25" fill="rgb(0,0,255)" /><rect x="380" y="417" width="7.125" height="71.25" fill="rgb(0,150,0)" /><rect x="387.5" y="417" width="7.125" height="71.25" fill="rgb(255,0,0)" /><rect x="395" y="417" width="7.125" height="71.25" fill="rgb(0,0,255)" /><rect x="402.5" y="417" width="7.125" height="71.25" fill="rgb(0,150,0)" /><rect x="410" y="417" width="7.125" height="71.25" fill="rgb(255,0,0)" /><rect x="417.5" y="417" width="7.125" height="71.25" fill="rgb(0,0,255)" /><rect x="425" y="417" width="7.125" height="71.25" fill="rgb(0,150,0)" /><rect x="432.5" y="417" width="7.125" height="71.25" fill="rgb(255,0,0)" /><rect x="440" y="417" width="7.125" height="71.25" fill="rgb(0,0,255)" /><rect x="447.5" y="417" width="7.125" height="71.25" fill="rgb(0,150,0)" /><rect x="455" y="417" width="7.125" height="71.25" fill="rgb(255,0,0)" /><rect x="462.5" y="417" width="7.125" height="71.25" fill="rgb(0,0,255)" /><rect x="470" y="417" width="7.125" height="71.25" fill="rgb(0,150,0)" /><rect x="477.5" y="417" width="7.125" height="71.25" fill="rgb(255,0,0)" /><rect x="485" y="417" width="7.125" height="71.25" fill="rgb(0,0,255)" /><rect x="492.5" y="417" width="7.125" height="71.25" fill="rgb(0,150,0)" /><rect x="500" y="417" width="7.125" height="71.25" fill="rgb(255,0,0)" /><rect x="507.5" y="417" width="7.125" height="71.25" fill="rgb(0,0,255)" /><rect x="515" y="417" width="7.125" height="71.25" fill="rgb(0,150,0)" /><rect x="522.5" y="417" width="7.125" height="71.25" fill="rgb(255,0,0)" /><rect x="530" y="417" width="7.125" height="71.25" fill="rgb(255,0,0)" /><rect x="537.5" y="417" width="7.125" height="71.25" fill="rgb(0,0,255)" /><rect x="545" y="417" width="7.125" height="71.25" fill="rgb(0,150,0)" /><rect x="552.5" y="417" width="7.125" height="71.25" fill="rgb(255,0,0)" /><rect x="80" y="342" width="7.125" height="71.25" fill="rgb(0,0,255)" /><rect x="87.5" y="342" width="7.125" height="71.25" fill="rgb(209,113,5)" /><rect x="95" y="342" width="7.125" height="71.25" fill="rgb(209,113,5)" /><rect x="102.5" y="342" width="7.125" height="71.25" fill="rgb(0,0,255)" /><rect x="110" y="342" width="7.125" height="71.25" fill="rgb(209,113,5)" /><rect x="117.5" y="342" width="7.125" height="71.25" fill="rgb(0,150,0)" /><rect x="125" y="342" width="7.125" height="71.25" fill="rgb(255,0,0)" /><rect x="132.5" y="342" width="7.125" height="71.25" fill="rgb(0,0,255)" /><rect x="140" y="342" width="7.125" height="71.25" fill="rgb(0,150,0)" /><rect x="147.5" y="342" width="7.125" height="71.25" fill="rgb(209,113,5)" /><rect x="155" y="342" width="7.125" height="71.25" fill="rgb(209,113,5)" /><rect x="162.5" y="342" width="7.125" height="71.25" fill="rgb(0,0,255)" /><rect x="170" y="342" width="7.125" height="71.25" fill="rgb(0,0,255)" /><rect x="177.5" y="342" width="7.125" height="71.25" fill="rgb(209,113,5)" /><rect x="185" y="342" width="7.125" height="71.25" fill="rgb(0,0,255)" /><rect x="192.5" y="342" width="7.125" height="71.25" fill="rgb(0,150,0)" /><rect x="200" y="342" width="7.125" height="71.25" fill="rgb(0,0,255)" /><rect x="207.5" y="342" width="7.125" height="71.25" fill="rgb(255,0,0)" /><rect x="215" y="342" width="7.125" height="71.25" fill="rgb(0,0,255)" /><rect x="222.5" y="342" width="7.125" height="71.25" fill="rgb(0,150,0)" /><rect x="230" y="342" width="7.125" height="71.25" fill="rgb(255,0,0)" /><rect x="237.5" y="342" width="7.125" height="71.25" fill="rgb(0,0,255)" /><rect x="245" y="342" width="7.125" height="71.25" fill="rgb(0,150,0)" /><rect x="252.5" y="342" width="7.125" height="71.25" fill="rgb(255,0,0)" /><rect x="260" y="342" width="7.125" height="71.25" fill="rgb(0,0,255)" /><rect x="267.5" y="342" width="7.125" height="71.25" fill="rgb(0,150,0)" /><rect x="275" y="342" width="7.125" height="71.25" fill="rgb(255,0,0)" /><rect x="282.5" y="342" width="7.125" height="71.25" fill="rgb(0,0,255)" /><rect x="290" y="342" width="7.125" height="71.25" fill="rgb(0,150,0)" /><rect x="297.5" y="342" width="7.125" height="71.25" fill="rgb(255,0,0)" /><rect x="305" y="342" width="7.125" height="71.25" fill="rgb(0,0,255)" /><rect x="312.5" y="342" width="7.125" height="71.25" fill="rgb(0,150,0)" /><rect x="320" y="342" width="7.125" height="71.25" fill="rgb(255,0,0)" /><rect x="327.5" y="342" width="7.125" height="71.25" fill="rgb(0,0,255)" /><rect x="335" y="342" width="7.125" height="71.25" fill="rgb(0,150,0)" /><rect x="342.5" y="342" width="7.125" height="71.25" fill="rgb(255,0,0)" /><rect x="350" y="342" width="7.125" height="71.25" fill="rgb(0,0,255)" /><rect x="357.5" y="342" width="7.125" height="71.25" fill="rgb(0,150,0)" /><rect x="365" y="342" width="7.125" height="71.25" fill="rgb(255,0,0)" /><rect x="372.5" y="342" width="7.125" height="71.25" fill="rgb(0,0,255)" /><rect x="380" y="342" width="7.125" height="71.25" fill="rgb(0,150,0)" /><rect x="387.5" y="342" width="7.125" height="71.25" fill="rgb(255,0,0)" /><rect x="395" y="342" width="7.125" height="71.25" fill="rgb(0,0,255)" /><rect x="402.5" y="342" width="7.125" height="71.25" fill="rgb(0,150,0)" /><rect x="410" y="342" width="7.125" height="71.25" fill="rgb(255,0,0)" /><rect x="417.5" y="342" width="7.125" height="71.25" fill="rgb(0,0,255)" /><rect x="425" y="342" width="7.125" height="71.25" fill="rgb(0,150,0)" /><rect x="432.5" y="342" width="7.125" height="71.25" fill="rgb(255,0,0)" /><rect x="440" y="342" width="7.125" height="71.25" fill="rgb(0,0,255)" /><rect x="447.5" y="342" width="7.125" height="71.25" fill="rgb(0,150,0)" /><rect x="455" y="342" width="7.125" height="71.25" fill="rgb(255,0,0)" /><rect x="462.5" y="342" width="7.125" height="71.25" fill="rgb(0,0,255)" /><rect x="470" y="342" width="7.125" height="71.25" fill="rgb(0,150,0)" /><rect x="477.5" y="342" width="7.125" height="71.25" fill="rgb(255,0,0)" /><rect x="485" y="342" width="7.125" height="71.25" fill="rgb(0,0,255)" /><rect x="492.5" y="342" width="7.125" height="71.25" fill="rgb(0,150,0)" /><rect x="500" y="342" width="7.125" height="71.25" fill="rgb(255,0,0)" /><rect x="507.5" y="342" width="7.125" height="71.25" fill="rgb(255,0,0)" /><rect x="515" y="342" width="7.125" height="71.25" fill="rgb(0,0,255)" /><rect x="522.5" y="342" width="7.125" height="71.25" fill="rgb(0,150,0)" /><rect x="530" y="342" width="7.125" height="71.25" fill="rgb(255,0,0)" /><rect x="80" y="267" width="7.125" height="71.25" fill="rgb(0,0,255)" /><rect x="87.5" y="267" width="7.125" height="71.25" fill="rgb(209,113,5)" /><rect x="95" y="267" width="7.125" height="71.25" fill="rgb(209,113,5)" /><rect x="102.5" y="267" width="7.125" height="71.25" fill="rgb(0,0,255)" /><rect x="110" y="267" width="7.125" height="71.25" fill="rgb(209,113,5)" /><rect x="117.5" y="267" width="7.125" height="71.25" fill="rgb(0,150,0)" /><rect x="125" y="267" width="7.125" height="71.25" fill="rgb(255,0,0)" /><rect x="132.5" y="267" width="7.125" height="71.25" fill="rgb(0,0,255)" /><rect x="140" y="267" width="7.125" height="71.25" fill="rgb(0,150,0)" /><rect x="147.5" y="267" width="7.125" height="71.25" fill="rgb(209,113,5)" /><rect x="155" y="267" width="7.125" height="71.25" fill="rgb(209,113,5)" /><rect x="162.5" y="267" width="7.125" height="71.25" fill="rgb(0,0,255)" /><rect x="170" y="267" width="7.125" height="71.25" fill="rgb(0,0,255)" /><rect x="177.5" y="267" width="7.125" height="71.25" fill="rgb(209,113,5)" /><rect x="185" y="267" width="7.125" height="71.25" fill="rgb(0,0,255)" /><rect x="192.5" y="267" width="7.125" height="71.25" fill="rgb(0,150,0)" /><rect x="200" y="267" width="7.125" height="71.25" fill="rgb(0,0,255)" /><rect x="207.5" y="267" width="7.125" height="71.25" fill="rgb(255,0,0)" /><rect x="215" y="267" width="7.125" height="71.25" fill="rgb(0,0,255)" /><rect x="222.5" y="267" width="7.125" height="71.25" fill="rgb(0,150,0)" /><rect x="230" y="267" width="7.125" height="71.25" fill="rgb(255,0,0)" /><rect x="237.5" y="267" width="7.125" height="71.25" fill="rgb(0,0,255)" /><rect x="245" y="267" width="7.125" height="71.25" fill="rgb(0,150,0)" /><rect x="252.5" y="267" width="7.125" height="71.25" fill="rgb(255,0,0)" /><rect x="260" y="267" width="7.125" height="71.25" fill="rgb(0,0,255)" /><rect x="267.5" y="267" width="7.125" height="71.25" fill="rgb(0,150,0)" /><rect x="275" y="267" width="7.125" height="71.25" fill="rgb(255,0,0)" /><rect x="282.5" y="267" width="7.125" height="71.25" fill="rgb(0,0,255)" /><rect x="290" y="267" width="7.125" height="71.25" fill="rgb(0,150,0)" /><rect x="297.5" y="267" width="7.125" height="71.25" fill="rgb(255,0,0)" /><rect x="305" y="267" width="7.125" height="71.25" fill="rgb(0,0,255)" /><rect x="312.5" y="267" width="7.125" height="71.25" fill="rgb(0,150,0)" /><rect x="320" y="267" width="7.125" height="71.25" fill="rgb(255,0,0)" /><rect x="327.5" y="267" width="7.125" height="71.25" fill="rgb(0,0,255)" /><rect x="335" y="267" width="7.125" height="71.25" fill="rgb(0,150,0)" /><rect x="342.5" y="267" width="7.125" height="71.25" fill="rgb(255,0,0)" /><rect x="350" y="267" width="7.125" height="71.25" fill="rgb(0,0,255)" /><rect x="357.5" y="267" width="7.125" height="71.25" fill="rgb(0,150,0)" /><rect x="365" y="267" width="7.125" height="71.25" fill="rgb(255,0,0)" /><rect x="372.5" y="267" width="7.125" height="71.25" fill="rgb(0,0,255)" /><rect x="380" y="267" width="7.125" height="71.25" fill="rgb(0,150,0)" /><rect x="387.5" y="267" width="7.125" height="71.25" fill="rgb(255,0,0)" /><rect x="395" y="267" width="7.125" height="71.25" fill="rgb(0,0,255)" /><rect x="402.5" y="267" width="7.125" height="71.25" fill="rgb(0,150,0)" /><rect x="410" y="267" width="7.125" height="71.25" fill="rgb(255,0,0)" /><rect x="417.5" y="267" width="7.125" height="71.25" fill="rgb(0,0,255)" /><rect x="425" y="267" width="7.125" height="71.25" fill="rgb(0,150,0)" /><rect x="432.5" y="267" width="7.125" height="71.25" fill="rgb(255,0,0)" /><rect x="440" y="267" width="7.125" height="71.25" fill="rgb(0,0,255)" /><rect x="447.5" y="267" width="7.125" height="71.25" fill="rgb(0,150,0)" /><rect x="455" y="267" width="7.125" height="71.25" fill="rgb(255,0,0)" /><rect x="462.5" y="267" width="7.125" height="71.25" fill="rgb(0,0,255)" /><rect x="470" y="267" width="7.125" height="71.25" fill="rgb(0,150,0)" /><rect x="477.5" y="267" width="7.125" height="71.25" fill="rgb(255,0,0)" /><rect x="485" y="267" width="7.125" height="71.25" fill="rgb(0,0,255)" /><rect x="492.5" y="267" width="7.125" height="71.25" fill="rgb(0,150,0)" /><rect x="500" y="267" width="7.125" height="71.25" fill="rgb(255,0,0)" /><rect x="507.5" y="267" width="7.125" height="71.25" fill="rgb(0,0,255)" /><rect x="515" y="267" width="7.125" height="71.25" fill="rgb(0,150,0)" /><rect x="522.5" y="267" width="7.125" height="71.25" fill="rgb(255,0,0)" /><rect x="530" y="267" width="7.125" height="71.25" fill="rgb(255,0,0)" /><rect x="537.5" y="267" width="7.125" height="71.25" fill="rgb(0,0,255)" /><rect x="545" y="267" width="7.125" height="71.25" fill="rgb(0,150,0)" /><rect x="552.5" y="267" width="7.125" height="71.25" fill="rgb(255,0,0)" /><rect x="80" y="192" width="7.125" height="71.25" fill="rgb(0,0,255)" /><rect x="87.5" y="192" width="7.125" height="71.25" fill="rgb(209,113,5)" /><rect x="95" y="192" width="7.125" height="71.25" fill="rgb(209,113,5)" /><rect x="102.5" y="192" width="7.125" height="71.25" fill="rgb(0,0,255)" /><rect x="110" y="192" width="7.125" height="71.25" fill="rgb(209,113,5)" /><rect x="117.5" y="192" width="7.125" height="71.25" fill="rgb(0,150,0)" /><rect x="125" y="192" width="7.125" height="71.25" fill="rgb(255,0,0)" /><rect x="132.5" y="192" width="7.125" height="71.25" fill="rgb(0,0,255)" /><rect x="140" y="192" width="7.125" height="71.25" fill="rgb(0,150,0)" /><rect x="147.5" y="192" width="7.125" height="71.25" fill="rgb(209,113,5)" /><rect x="155" y="192" width="7.125" height="71.25" fill="rgb(209,113,5)" /><rect x="162.5" y="192" width="7.125" height="71.25" fill="rgb(0,0,255)" /><rect x="170" y="192" width="7.125" height="71.25" fill="rgb(0,0,255)" /><rect x="177.5" y="192" width="7.125" height="71.25" fill="rgb(209,113,5)" /><rect x="185" y="192" width="7.125" height="71.25" fill="rgb(0,0,255)" /><rect x="192.5" y="192" width="7.125" height="71.25" fill="rgb(0,150,0)" /><rect x="200" y="192" width="7.125" height="71.25" fill="rgb(0,0,255)" /><rect x="207.5" y="192" width="7.125" height="71.25" fill="rgb(255,0,0)" /><rect x="215" y="192" width="7.125" height="71.25" fill="rgb(0,0,255)" /><rect x="222.5" y="192" width="7.125" height="71.25" fill="rgb(0,150,0)" /><rect x="230" y="192" width="7.125" height="71.25" fill="rgb(255,0,0)" /><rect x="237.5" y="192" width="7.125" height="71.25" fill="rgb(0,0,255)" /><rect x="245" y="192" width="7.125" height="71.25" fill="rgb(0,150,0)" /><rect x="252.5" y="192" width="7.125" height="71.25" fill="rgb(255,0,0)" /><rect x="260" y="192" width="7.125" height="71.25" fill="rgb(0,0,255)" /><rect x="267.5" y="192" width="7.125" height="71.25" fill="rgb(0,150,0)" /><rect x="275" y="192" width="7.125" height="71.25" fill="rgb(255,0,0)" /><rect x="282.5" y="192" width="7.125" height="71.25" fill="rgb(0,0,255)" /><rect x="290" y="192" width="7.125" height="71.25" fill="rgb(0,150,0)" /><rect x="297.5" y="192" width="7.125" height="71.25" fill="rgb(255,0,0)" /><rect x="305" y="192" width="7.125" height="71.25" fill="rgb(0,0,255)" /><rect x="312.5" y="192" width="7.125" height="71.25" fill="rgb(0,150,0)" /><rect x="320" y="192" width="7.125" height="71.25" fill="rgb(255,0,0)" /><rect x="327.5" y="192" width="7.125" height="71.25" fill="rgb(0,0,255)" /><rect x="335" y="192" width="7.125" height="71.25" fill="rgb(0,150,0)" /><rect x="342.5" y="192" width="7.125" height="71.25" fill="rgb(255,0,0)" /><rect x="350" y="192" width="7.125" height="71.25" fill="rgb(0,0,255)" /><rect x="357.5" y="192" width="7.125" height="71.25" fill="rgb(0,150,0)" /><rect x="365" y="192" width="7.125" height="71.25" fill="rgb(255,0,0)" /><rect x="372.5" y="192" width="7.125" height="71.25" fill="rgb(0,0,255)" /><rect x="380" y="192" width="7.125" height="71.25" fill="rgb(0,150,0)" /><rect x="387.5" y="192" width="7.125" height="71.25" fill="rgb(255,0,0)" /><rect x="395" y="192" width="7.125" height="71.25" fill="rgb(0,0,255)" /><rect x="402.5" y="192" width="7.125" height="71.25" fill="rgb(0,150,0)" /><rect x="410" y="192" width="7.125" height="71.25" fill="rgb(255,0,0)" /><rect x="417.5" y="192" width="7.125" height="71.25" fill="rgb(0,0,255)" /><rect x="425" y="192" width="7.125" height="71.25" fill="rgb(0,150,0)" /><rect x="432.5" y="192" width="7.125" height="71.25" fill="rgb(255,0,0)" /><rect x="440" y="192" width="7.125" height="71.25" fill="rgb(0,0,255)" /><rect x="447.5" y="192" width="7.125" height="71.25" fill="rgb(0,0,255)" /><rect x="455" y="192" width="7.125" height="71.25" fill="rgb(0,150,0)" /><rect x="462.5" y="192" width="7.125" height="71.25" fill="rgb(255,0,0)" /><rect x="470" y="192" width="7.125" height="71.25" fill="rgb(0,0,255)" /><rect x="477.5" y="192" width="7.125" height="71.25" fill="rgb(0,150,0)" /><rect x="485" y="192" width="7.125" height="71.25" fill="rgb(255,0,0)" /><rect x="492.5" y="192" width="7.125" height="71.25" fill="rgb(0,0,255)" /><rect x="500" y="192" width="7.125" height="71.25" fill="rgb(0,150,0)" /><rect x="507.5" y="192" width="7.125" height="71.25" fill="rgb(255,0,0)" /><rect x="515" y="192" width="7.125" height="71.25" fill="rgb(0,0,255)" /><rect x="522.5" y="192" width="7.125" height="71.25" fill="rgb(0,150,0)" /><rect x="530" y="192" width="7.125" height="71.25" fill="rgb(255,0,0)" /><rect x="537.5" y="192" width="7.125" height="71.25" fill="rgb(255,0,0)" /><rect x="545" y="192" width="7.125" height="71.25" fill="rgb(0,0,255)" /><rect x="552.5" y="192" width="7.125" height="71.25" fill="rgb(0,150,0)" /><rect x="560" y="192" width="7.125" height="71.25" fill="rgb(255,0,0)" /><rect x="80" y="117" width="7.125" height="71.25" fill="rgb(0,0,255)" /><rect x="87.5" y="117" width="7.125" height="71.25" fill="rgb(209,113,5)" /><rect x="95" y="117" width="7.125" height="71.25" fill="rgb(209,113,5)" /><rect x="102.5" y="117" width="7.125" height="71.25" fill="rgb(0,0,255)" /><rect x="110" y="117" width="7.125" height="71.25" fill="rgb(209,113,5)" /><rect x="117.5" y="117" width="7.125" height="71.25" fill="rgb(0,150,0)" /><rect x="125" y="117" width="7.125" height="71.25" fill="rgb(255,0,0)" /><rect x="132.5" y="117" width="7.125" height="71.25" fill="rgb(0,0,255)" /><rect x="140" y="117" width="7.125" height="71.25" fill="rgb(0,150,0)" /><rect x="147.5" y="117" width="7.125" height="71.25" fill="rgb(209,113,5)" /><rect x="155" y="117" width="7.125" height="71.25" fill="rgb(209,113,5)" /><rect x="162.5" y="117" width="7.125" height="71.25" fill="rgb(0,0,255)" /><rect x="170" y="117" width="7.125" height="71.25" fill="rgb(0,0,255)" /><rect x="177.5" y="117" width="7.125" height="71.25" fill="rgb(209,113,5)" /><rect x="185" y="117" width="7.125" height="71.25" fill="rgb(0,0,255)" /><rect x="192.5" y="117" width="7.125" height="71.25" fill="rgb(0,150,0)" /><rect x="200" y="117" width="7.125" height="71.25" fill="rgb(0,0,255)" /><rect x="207.5" y="117" width="7.125" height="71.25" fill="rgb(255,0,0)" /><rect x="215" y="117" width="7.125" height="71.25" fill="rgb(0,0,255)" /><rect x="222.5" y="117" width="7.125" height="71.25" fill="rgb(0,150,0)" /><rect x="230" y="117" width="7.125" height="71.25" fill="rgb(255,0,0)" /><rect x="237.5" y="117" width="7.125" height="71.25" fill="rgb(0,0,255)" /><rect x="245" y="117" width="7.125" height="71.25" fill="rgb(0,150,0)" /><rect x="252.5" y="117" width="7.125" height="71.25" fill="rgb(255,0,0)" /><rect x="260" y="117" width="7.125" height="71.25" fill="rgb(0,0,255)" /><rect x="267.5" y="117" width="7.125" height="71.25" fill="rgb(0,150,0)" /><rect x="275" y="117" width="7.125" height="71.25" fill="rgb(255,0,0)" /><rect x="282.5" y="117" width="7.125" height="71.25" fill="rgb(0,0,255)" /><rect x="290" y="117" width="7.125" height="71.25" fill="rgb(0,150,0)" /><rect x="297.5" y="117" width="7.125" height="71.25" fill="rgb(255,0,0)" /><rect x="305" y="117" width="7.125" height="71.25" fill="rgb(0,0,255)" /><rect x="312.5" y="117" width="7.125" height="71.25" fill="rgb(0,150,0)" /><rect x="320" y="117" width="7.125" height="71.25" fill="rgb(255,0,0)" /><rect x="327.5" y="117" width="7.125" height="71.25" fill="rgb(0,0,255)" /><rect x="335" y="117" width="7.125" height="71.25" fill="rgb(0,150,0)" /><rect x="342.5" y="117" width="7.125" height="71.25" fill="rgb(255,0,0)" /><rect x="350" y="117" width="7.125" height="71.25" fill="rgb(0,0,255)" /><rect x="357.5" y="117" width="7.125" height="71.25" fill="rgb(0,150,0)" /><rect x="365" y="117" width="7.125" height="71.25" fill="rgb(255,0,0)" /><rect x="372.5" y="117" width="7.125" height="71.25" fill="rgb(0,0,255)" /><rect x="380" y="117" width="7.125" height="71.25" fill="rgb(0,150,0)" /><rect x="387.5" y="117" width="7.125" height="71.25" fill="rgb(255,0,0)" /><rect x="395" y="117" width="7.125" height="71.25" fill="rgb(0,0,255)" /><rect x="402.5" y="117" width="7.125" height="71.25" fill="rgb(0,150,0)" /><rect x="410" y="117" width="7.125" height="71.25" fill="rgb(255,0,0)" /><rect x="417.5" y="117" width="7.125" height="71.25" fill="rgb(0,0,255)" /><rect x="425" y="117" width="7.125" height="71.25" fill="rgb(0,150,0)" /><rect x="432.5" y="117" width="7.125" height="71.25" fill="rgb(255,0,0)" /><rect x="440" y="117" width="7.125" height="71.25" fill="rgb(0,0,255)" /><rect x="447.5" y="117" width="7.125" height="71.25" fill="rgb(0,0,255)" /><rect x="455" y="117" width="7.125" height="71.25" fill="rgb(0,150,0)" /><rect x="462.5" y="117" width="7.125" height="71.25" fill="rgb(255,0,0)" /><rect x="470" y="117" width="7.125" height="71.25" fill="rgb(0,0,255)" /><rect x="477.5" y="117" width="7.125" height="71.25" fill="rgb(0,150,0)" /><rect x="485" y="117" width="7.125" height="71.25" fill="rgb(255,0,0)" /><rect x="492.5" y="117" width="7.125" height="71.25" fill="rgb(0,0,255)" /><rect x="500" y="117" width="7.125" height="71.25" fill="rgb(0,150,0)" /><rect x="507.5" y="117" width="7.125" height="71.25" fill="rgb(255,0,0)" /><rect x="515" y="117" width="7.125" height="71.25" fill="rgb(0,0,255)" /><rect x="522.5" y="117" width="7.125" height="71.25" fill="rgb(0,150,0)" /><rect x="530" y="117" width="7.125" height="71.25" fill="rgb(255,0,0)" /><rect x="537.5" y="117" width="7.125" height="71.25" fill="rgb(255,0,0)" /><rect x="545" y="117" width="7.125" height="71.25" fill="rgb(0,0,255)" /><rect x="552.5" y="117" width="7.125" height="71.25" fill="rgb(0,150,0)" /><rect x="560" y="117" width="7.125" height="71.25" fill="rgb(255,0,0)" /><rect x="80" y="42" width="7.125" height="71.25" fill="rgb(0,0,255)" /><rect x="87.5" y="42" width="7.125" height="71.25" fill="rgb(209,113,5)" /><rect x="95" y="42" width="7.125" height="71.25" fill="rgb(209,113,5)" /><rect x="102.5" y="42" width="7.125" height="71.25" fill="rgb(0,0,255)" /><rect x="110" y="42" width="7.125" height="71.25" fill="rgb(209,113,5)" /><rect x="117.5" y="42" width="7.125" height="71.25" fill="rgb(0,150,0)" /><rect x="125" y="42" width="7.125" height="71.25" fill="rgb(255,0,0)" /><rect x="132.5" y="42" width="7.125" height="71.25" fill="rgb(0,0,255)" /><rect x="140" y="42" width="7.125" height="71.25" fill="rgb(0,150,0)" /><rect x="147.5" y="42" width="7.125" height="71.25" fill="rgb(209,113,5)" /><rect x="155" y="42" width="7.125" height="71.25" fill="rgb(209,113,5)" /><rect x="162.5" y="42" width="7.125" height="71.25" fill="rgb(0,0,255)" /><rect x="170" y="42" width="7.125" height="71.25" fill="rgb(0,0,255)" /><rect x="177.5" y="42" width="7.125" height="71.25" fill="rgb(209,113,5)" /><rect x="185" y="42" width="7.125" height="71.25" fill="rgb(0,0,255)" /><rect x="192.5" y="42" width="7.125" height="71.25" fill="rgb(0,150,0)" /><rect x="200" y="42" width="7.125" height="71.25" fill="rgb(0,0,255)" /><rect x="207.5" y="42" width="7.125" height="71.25" fill="rgb(255,0,0)" /><rect x="215" y="42" width="7.125" height="71.25" fill="rgb(0,0,255)" /><rect x="222.5" y="42" width="7.125" height="71.25" fill="rgb(0,150,0)" /><rect x="230" y="42" width="7.125" height="71.25" fill="rgb(255,0,0)" /><rect x="237.5" y="42" width="7.125" height="71.25" fill="rgb(0,0,255)" /><rect x="245" y="42" width="7.125" height="71.25" fill="rgb(0,150,0)" /><rect x="252.5" y="42" width="7.125" height="71.25" fill="rgb(255,0,0)" /><rect x="260" y="42" width="7.125" height="71.25" fill="rgb(0,0,255)" /><rect x="267.5" y="42" width="7.125" height="71.25" fill="rgb(0,150,0)" /><rect x="275" y="42" width="7.125" height="71.25" fill="rgb(255,0,0)" /><rect x="282.5" y="42" width="7.125" height="71.25" fill="rgb(0,0,255)" /><rect x="290" y="42" width="7.125" height="71.25" fill="rgb(0,150,0)" /><rect x="297.5" y="42" width="7.125" height="71.25" fill="rgb(255,0,0)" /><rect x="305" y="42" width="7.125" height="71.25" fill="rgb(0,0,255)" /><rect x="312.5" y="42" width="7.125" height="71.25" fill="rgb(0,150,0)" /><rect x="320" y="42" width="7.125" height="71.25" fill="rgb(255,0,0)" /><rect x="327.5" y="42" width="7.125" height="71.25" fill="rgb(0,0,255)" /><rect x="335" y="42" width="7.125" height="71.25" fill="rgb(0,150,0)" /><rect x="342.5" y="42" width="7.125" height="71.25" fill="rgb(255,0,0)" /><rect x="350" y="42" width="7.125" height="71.25" fill="rgb(0,0,255)" /><rect x="357.5" y="42" width="7.125" height="71.25" fill="rgb(0,150,0)" /><rect x="365" y="42" width="7.125" height="71.25" fill="rgb(255,0,0)" /><rect x="372.5" y="42" width="7.125" height="71.25" fill="rgb(0,0,255)" /><rect x="380" y="42" width="7.125" height="71.25" fill="rgb(0,150,0)" /><rect x="387.5" y="42" width="7.125" height="71.25" fill="rgb(255,0,0)" /><rect x="395" y="42" width="7.125" height="71.25" fill="rgb(0,0,255)" /><rect x="402.5" y="42" width="7.125" height="71.25" fill="rgb(0,150,0)" /><rect x="410" y="42" width="7.125" height="71.25" fill="rgb(255,0,0)" /><rect x="417.5" y="42" width="7.125" height="71.25" fill="rgb(0,0,255)" /><rect x="425" y="42" width="7.125" height="71.25" fill="rgb(0,150,0)" /><rect x="432.5" y="42" width="7.125" height="71.25" fill="rgb(255,0,0)" /><rect x="440" y="42" width="7.125" height="71.25" fill="rgb(0,0,255)" /><rect x="447.5" y="42" width="7.125" height="71.25" fill="rgb(0,0,255)" /><rect x="455" y="42" width="7.125" height="71.25" fill="rgb(0,150,0)" /><rect x="462.5" y="42" width="7.125" height="71.25" fill="rgb(255,0,0)" /><rect x="470" y="42" width="7.125" height="71.25" fill="rgb(0,0,255)" /><rect x="477.5" y="42" width="7.125" height="71.25" fill="rgb(0,150,0)" /><rect x="485" y="42" width="7.125" height="71.25" fill="rgb(255,0,0)" /><rect x="492.5" y="42" width="7.125" height="71.25" fill="rgb(0,0,255)" /><rect x="500" y="42" width="7.125" height="71.25" fill="rgb(0,150,0)" /><rect x="507.5" y="42" width="7.125" height="71.25" fill="rgb(255,0,0)" /><rect x="515" y="42" width="7.125" height="71.25" fill="rgb(0,0,255)" /><rect x="522.5" y="42" width="7.125" height="71.25" fill="rgb(0,150,0)" /><rect x="530" y="42" width="7.125" height="71.25" fill="rgb(255,0,0)" /><rect x="537.5" y="42" width="7.125" height="71.25" fill="rgb(0,0,255)" /><rect x="545" y="42" width="7.125" height="71.25" fill="rgb(0,150,0)" /><rect x="552.5" y="42" width="7.125" height="71.25" fill="rgb(255,0,0)" /><rect x="560" y="42" width="7.125" height="71.25" fill="rgb(0,0,255)" /><rect x="567.5" y="42" width="7.125" height="71.25" fill="rgb(0,150,0)" /><rect x="575" y="42" width="7.125" height="71.25" fill="rgb(255,0,0)" /><rect x="582.5" y="42" width="7.125" height="71.25" fill="rgb(0,0,255)" /><rect x="590" y="42" width="7.125" height="71.25" fill="rgb(0,150,0)" /><rect x="597.5" y="42" width="7.125" height="71.25" fill="rgb(255,0,0)" /><rect x="670" y="32" width="80" height="92" fill="white" /><rect x="670" y="32" width="80" height="92" fill="none" stroke="black" stroke-width="1" /><text x="700" y="47" font-size="12" text-anchor="start">A</text><rect x="680" y="41" width="12" height="12" fill="rgb(0,150,0)" /><text x="700" y="65" font-size="12" text-anchor="start">C</text><rect x="680" y="59" width="12" height="12" fill="rgb(0,0,255)" /><text x="700" y="83" font-size="12" text-anchor="start">G</text><rect x="680" y="77" width="12" height="12" fill="rgb(209,113,5)" /><text x="700" y="101" font-size="12" text-anchor="start">T</text><rect x="680" y="95" width="12" height="12" fill="rgb(255,0,0)" /></svg>