<svg xmlns="http://www.w3.org/2000/svg" width="759" height="541" fill="black"><rect width="100%" height="100%" fill="white" /><line x1="65" y1="492" x2="665" y2="492" stroke="black" stroke-width="1" /><line x1="65" y1="42" x2="65" y2="492" stroke="black" stroke-width="1" /><text x="55" y="405.5" font-size="10" text-anchor="end">read_1</text><line x1="60" y1="402" x2="65" y2="402" stroke="black" stroke-width="1" /><text x="55" y="315.5" font-size="10" text-anchor="end">read_2</text><line x1="60" y1="312" x2="65" y2="312" stroke="black" stroke-width="1" /><text x="55" y="225.5" font-size="10" text-anchor="end">read_3</text><line x1="60" y1="222" x2="65" y2="222" stroke="black" stroke-width="1" /><text x="55" y="135.5" font-size="10" text-anchor="end">read_4</text><line x1="60" y1="132" x2="65" y2="132" stroke="black" stroke-width="1" /><text x="55" y="45.5" font-size="10" text-anchor="end">read_5</text><line x1="60" y1="42" x2="65" y2="42" stroke="black" stroke-width="1" /><line x1="65" y1="492" x2="65" y2="497" stroke="black" stroke-width="1" /><text x="65" y="507" font-size="10" text-anchor="middle">-20</text><line x1="185" y1="492" x2="185" y2="497" stroke="black" stroke-width="1" /><text x="185" y="507" font-size="10" text-anchor="middle">-10</text><line x1="305" y1="492" x2="305" y2="497" stroke="black" stroke-width="1" /><text x="305" y="507" font-size="10" text-anchor="middle">0</text><line x1="425" y1="492" x2="425" y2="497" stroke="black" stroke-width="1" /><text x="425" y="507" font-size="10" text-anchor="middle">10</text><line x1="545" y1="492" x2="545" y2="497" stroke="black" stroke-width="1" /><text x="545" y="507" font-size="10" text-anchor="middle">20</text><line x1="665" y1="492" x2="665" y2="497" stroke="black" stroke-width="1" /><text x="665" y="507" font-size="10" text-anchor="middle">30</text><text x="379.5" y="21" font-size="16" text-anchor="middle">Brick Plot — Per-row Offsets</text><rect x="89" y="402" width="11.399999999999999" height="85.5" fill="rgb(0,0,255)" /><rect x="101" y="402" width="11.399999999999999" height="85.5" fill="rgb(209,113,5)" /><rect x="113" y="402" width="11.399999999999999" height="85.5" fill="rgb(209,113,5)" /><rect x="125" y="402" width="11.399999999999999" height="85.5" fill="rgb(0,0,255)" /><rect x="137" y="402" width="11.399999999999999" height="85.5" fill="rgb(209,113,5)" /><rect x="149" y="402" width="11.399999999999999" height="85.5" fill="rgb(0,150,0)" /><rect x="161" y="402" width="11.399999999999999" height="85.5" fill="rgb(255,0,0)" /><rect x="173" y="402" width="11.399999999999999" height="85.5" fill="rgb(0,0,255)" /><rect x="185" y="402" width="11.399999999999999" height="85.5" fill="rgb(0,150,0)" /><rect x="197" y="402" width="11.399999999999999" height="85.5" fill="rgb(209,113,5)" /><rect x="209" y="402" width="11.399999999999999" height="85.5" fill="rgb(209,113,5)" /><rect x="221" y="402" width="11.400000000000027" height="85.5" fill="rgb(0,0,255)" /><rect x="233.00000000000003" y="402" width="11.399999999999972" height="85.5" fill="rgb(0,0,255)" /><rect x="245" y="402" width="11.399999999999999" height="85.5" fill="rgb(209,113,5)" /><rect x="257" y="402" width="11.399999999999999" height="85.5" fill="rgb(0,0,255)" /><rect x="269" y="402" width="11.399999999999999" height="85.5" fill="rgb(0,150,0)" /><rect x="281" y="402" width="11.399999999999999" height="85.5" fill="rgb(0,0,255)" /><rect x="293" y="402" width="11.399999999999999" height="85.5" fill="rgb(255,0,0)" /><rect x="305" y="402" width="11.399999999999999" height="85.5" fill="rgb(0,0,255)" /><rect x="317" y="402" width="11.399999999999999" height="85.5" fill="rgb(0,150,0)" /><rect x="329" y="402" width="11.399999999999999" height="85.5" fill="rgb(255,0,0)" /><rect x="341" y="402" width="11.399999999999999" height="85.5" fill="rgb(0,0,255)" /><rect x="353" y="402" width="11.399999999999999" height="85.5" fill="rgb(0,150,0)" /><rect x="365" y="402" width="11.399999999999999" height="85.5" fill="rgb(255,0,0)" /><rect x="377" y="402" width="11.399999999999999" height="85.5" fill="rgb(0,0,255)" /><rect x="389" y="402" width="11.400000000000054" height="85.5" fill="rgb(0,150,0)" /><rect x="401.00000000000006" y="402" width="11.399999999999945" height="85.5" fill="rgb(255,0,0)" /><rect x="413" y="402" width="11.399999999999999" height="85.5" fill="rgb(0,0,255)" /><rect x="425" y="402" width="11.399999999999999" height="85.5" fill="rgb(0,150,0)" /><rect x="437" y="402" width="11.399999999999999" height="85.5" fill="rgb(255,0,0)" /><rect x="449" y="402" width="11.399999999999999" height="85.5" fill="rgb(0,0,255)" /><rect x="461" y="402" width="11.400000000000054" height="85.5" fill="rgb(0,150,0)" /><rect x="473.00000000000006" y="402" width="11.399999999999945" height="85.5" fill="rgb(255,0,0)" /><rect x="485" y="402" width="11.399999999999999" height="85.5" fill="rgb(0,0,255)" /><rect x="497" y="402" width="11.399999999999999" height="85.5" fill="rgb(0,150,0)" /><rect x="509" y="402" width="11.399999999999999" height="85.5" fill="rgb(255,0,0)" /><rect x="521" y="402" width="11.399999999999999" height="85.5" fill="rgb(0,0,255)" /><rect x="533" y="402" width="11.399999999999999" height="85.5" fill="rgb(0,150,0)" /><rect x="545" y="402" width="11.399999999999999" height="85.5" fill="rgb(255,0,0)" /><rect x="557" y="402" width="11.399999999999999" height="85.5" fill="rgb(0,0,255)" /><rect x="569" y="402" width="11.399999999999999" height="85.5" fill="rgb(0,150,0)" /><rect x="581" y="402" width="11.399999999999999" height="85.5" fill="rgb(255,0,0)" /><rect x="185" y="312" width="11.399999999999999" height="85.5" fill="rgb(209,113,5)" /><rect x="197" y="312" width="11.399999999999999" height="85.5" fill="rgb(0,0,255)" /><rect x="209" y="312" width="11.399999999999999" height="85.5" fill="rgb(0,150,0)" /><rect x="221" y="312" width="11.400000000000027" height="85.5" fill="rgb(0,0,255)" /><rect x="233.00000000000003" y="312" width="11.399999999999972" height="85.5" fill="rgb(255,0,0)" /><rect x="245" y="312" width="11.399999999999999" height="85.5" fill="rgb(0,0,255)" /><rect x="257" y="312" width="11.399999999999999" height="85.5" fill="rgb(0,150,0)" /><rect x="269" y="312" width="11.399999999999999" height="85.5" fill="rgb(255,0,0)" /><rect x="281" y="312" width="11.399999999999999" height="85.5" fill="rgb(0,0,255)" /><rect x="293" y="312" width="11.399999999999999" height="85.5" fill="rgb(0,150,0)" /><rect x="305" y="312" width="11.399999999999999" height="85.5" fill="rgb(255,0,0)" /><rect x="317" y="312" width="11.399999999999999" height="85.5" fill="rgb(0,0,255)" /><rect x="329" y="312" width="11.399999999999999" height="85.5" fill="rgb(0,150,0)" /><rect x="341" y="312" width="11.399999999999999" height="85.5" fill="rgb(255,0,0)" /><rect x="353" y="312" width="11.399999999999999" height="85.5" fill="rgb(0,0,255)" /><rect x="365" y="312" width="11.399999999999999" height="85.5" fill="rgb(0,150,0)" /><rect x="377" y="312" width="11.399999999999999" height="85.5" fill="rgb(255,0,0)" /><rect x="389" y="312" width="11.400000000000054" height="85.5" fill="rgb(0,0,255)" /><rect x="401.00000000000006" y="312" width="11.399999999999945" height="85.5" fill="rgb(0,150,0)" /><rect x="413" y="312" width="11.399999999999999" height="85.5" fill="rgb(255,0,0)" /><rect x="425" y="312" width="11.399999999999999" height="85.5" fill="rgb(0,0,255)" /><rect x="437" y="312" width="11.399999999999999" height="85.5" fill="rgb(0,150,0)" /><rect x="449" y="312" width="11.399999999999999" height="85.5" fill="rgb(255,0,0)" /><rect x="461" y="312" width="11.400000000000054" height="85.5" fill="rgb(0,0,255)" /><rect x="473.00000000000006" y="312" width="11.399999999999945" height="85.5" fill="rgb(0,150,0)" /><rect x="485" y="312" width="11.399999999999999" height="85.5" fill="rgb(255,0,0)" /><rect x="497" y="312" width="11.399999999999999" height="85.5" fill="rgb(0,0,255)" /><rect x="509" y="312" width="11.399999999999999" height="85.5" fill="rgb(0,150,0)" /><rect x="521" y="312" width="11.399999999999999" height="85.5" fill="rgb(255,0,0)" /><rect x="533" y="312" width="11.399999999999999" height="85.5" fill="rgb(0,0,255)" /><rect x="545" y="312" width="11.399999999999999" height="85.5" fill="rgb(0,150,0)" /><rect x="557" y="312" width="11.399999999999999" height="85.5" fill="rgb(255,0,0)" /><rect x="569" y="312" width="11.399999999999999" height="85.5" fill="rgb(0,0,255)" /><rect x="581" y="312" width="11.399999999999999" height="85.5" fill="rgb(0,150,0)" /><rect x="593" y="312" width="11.399999999999999" height="85.5" fill="rgb(255,0,0)" /><rect x="113" y="222" width="11.399999999999999" height="85.5" fill="rgb(0,150,0)" /><rect x="125" y="222" width="11.399999999999999" height="85.5" fill="rgb(255,0,0)" /><rect x="137" y="222" width="11.399999999999999" height="85.5" fill="rgb(0,0,255)" /><rect x="149" y="222" width="11.399999999999999" height="85.5" fill="rgb(0,150,0)" /><rect x="161" y="222" width="11.399999999999999" height="85.5" fill="rgb(209,113,5)" /><rect x="173" y="222" width="11.399999999999999" height="85.5" fill="rgb(209,113,5)" /><rect x="185" y="222" width="11.399999999999999" height="85.5" fill="rgb(0,0,255)" /><rect x="197" y="222" width="11.399999999999999" height="85.5" fill="rgb(0,0,255)" /><rect x="209" y="222" width="11.399999999999999" height="85.5" fill="rgb(209,113,5)" /><rect x="221" y="222" width="11.400000000000027" height="85.5" fill="rgb(0,0,255)" /><rect x="233.00000000000003" y="222" width="11.399999999999972" height="85.5" fill="rgb(0,150,0)" /><rect x="245" y="222" width="11.399999999999999" height="85.5" fill="rgb(0,0,255)" /><rect x="257" y="222" width="11.399999999999999" height="85.5" fill="rgb(255,0,0)" /><rect x="269" y="222" width="11.399999999999999" height="85.5" fill="rgb(0,0,255)" /><rect x="281" y="222" width="11.399999999999999" height="85.5" fill="rgb(0,150,0)" /><rect x="293" y="222" width="11.399999999999999" height="85.5" fill="rgb(255,0,0)" /><rect x="305" y="222" width="11.399999999999999" height="85.5" fill="rgb(0,0,255)" /><rect x="317" y="222" width="11.399999999999999" height="85.5" fill="rgb(0,150,0)" /><rect x="329" y="222" width="11.399999999999999" height="85.5" fill="rgb(255,0,0)" /><rect x="341" y="222" width="11.399999999999999" height="85.5" fill="rgb(0,0,255)" /><rect x="353" y="222" width="11.399999999999999" height="85.5" fill="rgb(0,150,0)" /><rect x="365" y="222" width="11.399999999999999" height="85.5" fill="rgb(255,0,0)" /><rect x="377" y="222" width="11.399999999999999" height="85.5" fill="rgb(0,0,255)" /><rect x="389" y="222" width="11.400000000000054" height="85.5" fill="rgb(0,150,0)" /><rect x="401.00000000000006" y="222" width="11.399999999999945" height="85.5" fill="rgb(255,0,0)" /><rect x="413" y="222" width="11.399999999999999" height="85.5" fill="rgb(0,0,255)" /><rect x="425" y="222" width="11.399999999999999" height="85.5" fill="rgb(0,150,0)" /><rect x="437" y="222" width="11.399999999999999" height="85.5" fill="rgb(255,0,0)" /><rect x="449" y="222" width="11.399999999999999" height="85.5" fill="rgb(0,0,255)" /><rect x="461" y="222" width="11.400000000000054" height="85.5" fill="rgb(0,150,0)" /><rect x="473.00000000000006" y="222" width="11.399999999999945" height="85.5" fill="rgb(255,0,0)" /><rect x="485" y="222" width="11.399999999999999" height="85.5" fill="rgb(0,0,255)" /><rect x="497" y="222" width="11.399999999999999" height="85.5" fill="rgb(0,150,0)" /><rect x="509" y="222" width="11.399999999999999" height="85.5" fill="rgb(255,0,0)" /><rect x="521" y="222" width="11.399999999999999" height="85.5" fill="rgb(0,0,255)" /><rect x="533" y="222" width="11.399999999999999" height="85.5" fill="rgb(0,150,0)" /><rect x="545" y="222" width="11.399999999999999" height="85.5" fill="rgb(255,0,0)" /><rect x="557" y="222" width="11.399999999999999" height="85.5" fill="rgb(0,0,255)" /><rect x="569" y="222" width="11.399999999999999" height="85.5" fill="rgb(0,150,0)" /><rect x="581" y="222" width="11.399999999999999" height="85.5" fill="rgb(255,0,0)" /><rect x="245" y="132" width="11.399999999999999" height="85.5" fill="rgb(0,0,255)" /><rect x="257" y="132" width="11.399999999999999" height="85.5" fill="rgb(0,150,0)" /><rect x="269" y="132" width="11.399999999999999" height="85.5" fill="rgb(0,0,255)" /><rect x="281" y="132" width="11.399999999999999" height="85.5" fill="rgb(255,0,0)" /><rect x="293" y="132" width="11.399999999999999" height="85.5" fill="rgb(0,0,255)" /><rect x="305" y="132" width="11.399999999999999" height="85.5" fill="rgb(0,150,0)" /><rect x="317" y="132" width="11.399999999999999" height="85.5" fill="rgb(255,0,0)" /><rect x="329" y="132" width="11.399999999999999" height="85.5" fill="rgb(0,0,255)" /><rect x="341" y="132" width="11.399999999999999" height="85.5" fill="rgb(0,150,0)" /><rect x="353" y="132" width="11.399999999999999" height="85.5" fill="rgb(255,0,0)" /><rect x="365" y="132" width="11.399999999999999" height="85.5" fill="rgb(0,0,255)" /><rect x="377" y="132" width="11.399999999999999" height="85.5" fill="rgb(0,150,0)" /><rect x="389" y="132" width="11.400000000000054" height="85.5" fill="rgb(255,0,0)" /><rect x="401.00000000000006" y="132" width="11.399999999999945" height="85.5" fill="rgb(0,0,255)" /><rect x="413" y="132" width="11.399999999999999" height="85.5" fill="rgb(0,150,0)" /><rect x="425" y="132" width="11.399999999999999" height="85.5" fill="rgb(255,0,0)" /><rect x="437" y="132" width="11.399999999999999" height="85.5" fill="rgb(0,0,255)" /><rect x="449" y="132" width="11.399999999999999" height="85.5" fill="rgb(0,150,0)" /><rect x="461" y="132" width="11.400000000000054" height="85.5" fill="rgb(255,0,0)" /><rect x="473.00000000000006" y="132" width="11.399999999999945" height="85.5" fill="rgb(0,0,255)" /><rect x="485" y="132" width="11.399999999999999" height="85.5" fill="rgb(0,150,0)" /><rect x="497" y="132" width="11.399999999999999" height="85.5" fill="rgb(255,0,0)" /><rect x="161" y="42" width="11.399999999999999" height="85.5" fill="rgb(0,150,0)" /><rect x="173" y="42" width="11.399999999999999" height="85.5" fill="rgb(209,113,5)" /><rect x="185" y="42" width="11.399999999999999" height="85.5" fill="rgb(209,113,5)" /><rect x="197" y="42" width="11.399999999999999" height="85.5" fill="rgb(0,0,255)" /><rect x="209" y="42" width="11.399999999999999" height="85.5" fill="rgb(0,0,255)" /><rect x="221" y="42" width="11.400000000000027" height="85.5" fill="rgb(209,113,5)" /><rect x="233.00000000000003" y="42" width="11.399999999999972" height="85.5" fill="rgb(0,0,255)" /><rect x="245" y="42" width="11.399999999999999" height="85.5" fill="rgb(0,150,0)" /><rect x="257" y="42" width="11.399999999999999" height="85.5" fill="rgb(0,0,255)" /><rect x="269" y="42" width="11.399999999999999" height="85.5" fill="rgb(255,0,0)" /><rect x="281" y="42" width="11.399999999999999" height="85.5" fill="rgb(0,0,255)" /><rect x="293" y="42" width="11.399999999999999" height="85.5" fill="rgb(0,150,0)" /><rect x="305" y="42" width="11.399999999999999" height="85.5" fill="rgb(255,0,0)" /><rect x="317" y="42" width="11.399999999999999" height="85.5" fill="rgb(0,0,255)" /><rect x="329" y="42" width="11.399999999999999" height="85.5" fill="rgb(0,150,0)" /><rect x="341" y="42" width="11.399999999999999" height="85.5" fill="rgb(255,0,0)" /><rect x="353" y="42" width="11.399999999999999" height="85.5" fill="rgb(0,0,255)" /><rect x="365" y="42" width="11.399999999999999" height="85.5" fill="rgb(0,150,0)" /><rect x="377" y="42" width="11.399999999999999" height="85.5" fill="rgb(255,0,0)" /><rect x="389" y="42" width="11.400000000000054" height="85.5" fill="rgb(0,0,255)" /><rect x="401.00000000000006" y="42" width="11.399999999999945" height="85.5" fill="rgb(0,150,0)" /><rect x="413" y="42" width="11.399999999999999" height="85.5" fill="rgb(255,0,0)" /><rect x="425" y="42" width="11.399999999999999" height="85.5" fill="rgb(0,0,255)" /><rect x="437" y="42" width="11.399999999999999" height="85.5" fill="rgb(0,150,0)" /><rect x="449" y="42" width="11.399999999999999" height="85.5" fill="rgb(255,0,0)" /><rect x="461" y="42" width="11.400000000000054" height="85.5" fill="rgb(0,0,255)" /><rect x="473.00000000000006" y="42" width="11.399999999999945" height="85.5" fill="rgb(0,150,0)" /><rect x="485" y="42" width="11.399999999999999" height="85.5" fill="rgb(255,0,0)" /><rect x="497" y="42" width="11.399999999999999" height="85.5" fill="rgb(0,0,255)" /><rect x="509" y="42" width="11.399999999999999" height="85.5" fill="rgb(0,150,0)" /><rect x="521" y="42" width="11.399999999999999" height="85.5" fill="rgb(255,0,0)" /><rect x="533" y="42" width="11.399999999999999" height="85.5" fill="rgb(0,0,255)" /><rect x="545" y="42" width="11.399999999999999" height="85.5" fill="rgb(0,150,0)" /><rect x="557" y="42" width="11.399999999999999" height="85.5" fill="rgb(255,0,0)" /><rect x="569" y="42" width="11.399999999999999" height="85.5" fill="rgb(0,0,255)" /><rect x="581" y="42" width="11.399999999999999" height="85.5" fill="rgb(0,150,0)" /><rect x="593" y="42" width="11.399999999999999" height="85.5" fill="rgb(255,0,0)" /><rect x="605" y="42" width="11.399999999999999" height="85.5" fill="rgb(0,0,255)" /><rect x="617" y="42" width="11.399999999999999" height="85.5" fill="rgb(0,150,0)" /><rect x="629" y="42" width="11.399999999999999" height="85.5" fill="rgb(255,0,0)" /><rect x="670" y="32" width="80" height="92" fill="white" /><rect x="670" y="32" width="80" height="92" fill="none" stroke="black" stroke-width="1" /><text x="700" y="47" font-size="12" text-anchor="start">A</text><rect x="680" y="41" width="12" height="12" fill="rgb(0,150,0)" /><text x="700" y="65" font-size="12" text-anchor="start">C</text><rect x="680" y="59" width="12" height="12" fill="rgb(0,0,255)" /><text x="700" y="83" font-size="12" text-anchor="start">G</text><rect x="680" y="77" width="12" height="12" fill="rgb(209,113,5)" /><text x="700" y="101" font-size="12" text-anchor="start">T</text><rect x="680" y="95" width="12" height="12" fill="rgb(255,0,0)" /></svg>