<svg xmlns="http://www.w3.org/2000/svg" width="759" height="541" fill="black"><rect width="100%" height="100%" fill="white" /><line x1="65" y1="492" x2="665" y2="492" stroke="black" stroke-width="1" /><line x1="65" y1="42" x2="65" y2="492" stroke="black" stroke-width="1" /><text x="55" y="439.25" font-size="10" text-anchor="end">read_1</text><line x1="60" y1="435.75" x2="65" y2="435.75" stroke="black" stroke-width="1" /><text x="55" y="383" font-size="10" text-anchor="end">read_2</text><line x1="60" y1="379.5" x2="65" y2="379.5" stroke="black" stroke-width="1" /><text x="55" y="326.75" font-size="10" text-anchor="end">read_3</text><line x1="60" y1="323.25" x2="65" y2="323.25" stroke="black" stroke-width="1" /><text x="55" y="270.5" font-size="10" text-anchor="end">read_4</text><line x1="60" y1="267" x2="65" y2="267" stroke="black" stroke-width="1" /><text x="55" y="214.25" font-size="10" text-anchor="end">read_5</text><line x1="60" y1="210.75" x2="65" y2="210.75" stroke="black" stroke-width="1" /><text x="55" y="158" font-size="10" text-anchor="end">read_6</text><line x1="60" y1="154.5" x2="65" y2="154.5" stroke="black" stroke-width="1" /><text x="55" y="101.75" font-size="10" text-anchor="end">read_7</text><line x1="60" y1="98.25" x2="65" y2="98.25" stroke="black" stroke-width="1" /><text x="55" y="45.5" font-size="10" text-anchor="end">read_8</text><line x1="60" y1="42" x2="65" y2="42" stroke="black" stroke-width="1" /><line x1="65" y1="492" x2="65" y2="497" stroke="black" stroke-width="1" /><text x="65" y="507" font-size="10" text-anchor="middle">0</text><line x1="215" y1="492" x2="215" y2="497" stroke="black" stroke-width="1" /><text x="215" y="507" font-size="10" text-anchor="middle">20</text><line x1="365" y1="492" x2="365" y2="497" stroke="black" stroke-width="1" /><text x="365" y="507" font-size="10" text-anchor="middle">40</text><line x1="515" y1="492" x2="515" y2="497" stroke="black" stroke-width="1" /><text x="515" y="507" font-size="10" text-anchor="middle">60</text><line x1="665" y1="492" x2="665" y2="497" stroke="black" stroke-width="1" /><text x="665" y="507" font-size="10" text-anchor="middle">80</text><text x="379.5" y="21" font-size="16" text-anchor="middle">Brick Plot — Strigar Mode (CAT repeats)</text><rect x="65" y="435.75" width="21.375" height="53.4375" fill="rgb(31,119,180)" /><rect x="87.5" y="435.75" width="21.375" height="53.4375" fill="rgb(31,119,180)" /><rect x="110" y="435.75" width="21.375" height="53.4375" fill="rgb(31,119,180)" /><rect x="132.5" y="435.75" width="21.375" height="53.4375" fill="rgb(31,119,180)" /><rect x="155" y="435.75" width="21.375" height="53.4375" fill="rgb(31,119,180)" /><rect x="177.5" y="435.75" width="21.375" height="53.4375" fill="rgb(31,119,180)" /><rect x="200" y="435.75" width="21.375" height="53.4375" fill="rgb(31,119,180)" /><rect x="222.5" y="435.75" width="21.375" height="53.4375" fill="rgb(31,119,180)" /><rect x="245" y="435.75" width="21.375" height="53.4375" fill="rgb(31,119,180)" /><rect x="267.5" y="435.75" width="21.375" height="53.4375" fill="rgb(31,119,180)" /><rect x="290" y="435.75" width="7.125" height="53.4375" fill="rgb(44,160,44)" /><rect x="297.5" y="435.75" width="21.375" height="53.4375" fill="rgb(31,119,180)" /><rect x="320" y="435.75" width="21.375" height="53.4375" fill="rgb(31,119,180)" /><rect x="342.5" y="435.75" width="21.375" height="53.4375" fill="rgb(31,119,180)" /><rect x="365" y="435.75" width="21.375" height="53.4375" fill="rgb(31,119,180)" /><rect x="387.5" y="435.75" width="7.125" height="53.4375" fill="rgb(255,127,14)" /><rect x="395" y="435.75" width="21.375" height="53.4375" fill="rgb(31,119,180)" /><rect x="65" y="379.5" width="21.375" height="53.4375" fill="rgb(31,119,180)" /><rect x="87.5" y="379.5" width="21.375" height="53.4375" fill="rgb(31,119,180)" /><rect x="110" y="379.5" width="21.375" height="53.4375" fill="rgb(31,119,180)" /><rect x="132.5" y="379.5" width="21.375" height="53.4375" fill="rgb(31,119,180)" /><rect x="155" y="379.5" width="21.375" height="53.4375" fill="rgb(31,119,180)" /><rect x="177.5" y="379.5" width="21.375" height="53.4375" fill="rgb(31,119,180)" /><rect x="200" y="379.5" width="21.375" height="53.4375" fill="rgb(31,119,180)" /><rect x="222.5" y="379.5" width="21.375" height="53.4375" fill="rgb(31,119,180)" /><rect x="245" y="379.5" width="21.375" height="53.4375" fill="rgb(31,119,180)" /><rect x="267.5" y="379.5" width="21.375" height="53.4375" fill="rgb(31,119,180)" /><rect x="290" y="379.5" width="21.375" height="53.4375" fill="rgb(31,119,180)" /><rect x="312.5" y="379.5" width="21.375" height="53.4375" fill="rgb(31,119,180)" /><rect x="335" y="379.5" width="21.375" height="53.4375" fill="rgb(31,119,180)" /><rect x="357.5" y="379.5" width="21.375" height="53.4375" fill="rgb(31,119,180)" /><rect x="380" y="379.5" width="7.125" height="53.4375" fill="rgb(255,127,14)" /><rect x="387.5" y="379.5" width="21.375" height="53.4375" fill="rgb(31,119,180)" /><rect x="65" y="323.25" width="21.375" height="53.4375" fill="rgb(31,119,180)" /><rect x="87.5" y="323.25" width="21.375" height="53.4375" fill="rgb(31,119,180)" /><rect x="110" y="323.25" width="21.375" height="53.4375" fill="rgb(31,119,180)" /><rect x="132.5" y="323.25" width="21.375" height="53.4375" fill="rgb(31,119,180)" /><rect x="155" y="323.25" width="21.375" height="53.4375" fill="rgb(31,119,180)" /><rect x="177.5" y="323.25" width="21.375" height="53.4375" fill="rgb(31,119,180)" /><rect x="200" y="323.25" width="21.375" height="53.4375" fill="rgb(31,119,180)" /><rect x="222.5" y="323.25" width="21.375" height="53.4375" fill="rgb(31,119,180)" /><rect x="245" y="323.25" width="21.375" height="53.4375" fill="rgb(31,119,180)" /><rect x="267.5" y="323.25" width="21.375" height="53.4375" fill="rgb(31,119,180)" /><rect x="290" y="323.25" width="21.375" height="53.4375" fill="rgb(31,119,180)" /><rect x="312.5" y="323.25" width="21.375" height="53.4375" fill="rgb(31,119,180)" /><rect x="335" y="323.25" width="21.375" height="53.4375" fill="rgb(31,119,180)" /><rect x="357.5" y="323.25" width="21.375" height="53.4375" fill="rgb(31,119,180)" /><rect x="380" y="323.25" width="7.125" height="53.4375" fill="rgb(255,127,14)" /><rect x="387.5" y="323.25" width="21.375" height="53.4375" fill="rgb(31,119,180)" /><rect x="65" y="267" width="21.375" height="53.4375" fill="rgb(31,119,180)" /><rect x="87.5" y="267" width="21.375" height="53.4375" fill="rgb(31,119,180)" /><rect x="110" y="267" width="21.375" height="53.4375" fill="rgb(31,119,180)" /><rect x="132.5" y="267" width="21.375" height="53.4375" fill="rgb(31,119,180)" /><rect x="155" y="267" width="21.375" height="53.4375" fill="rgb(31,119,180)" /><rect x="177.5" y="267" width="21.375" height="53.4375" fill="rgb(31,119,180)" /><rect x="200" y="267" width="21.375" height="53.4375" fill="rgb(31,119,180)" /><rect x="222.5" y="267" width="21.375" height="53.4375" fill="rgb(31,119,180)" /><rect x="245" y="267" width="21.375" height="53.4375" fill="rgb(31,119,180)" /><rect x="267.5" y="267" width="21.375" height="53.4375" fill="rgb(31,119,180)" /><rect x="290" y="267" width="7.125" height="53.4375" fill="rgb(44,160,44)" /><rect x="297.5" y="267" width="21.375" height="53.4375" fill="rgb(31,119,180)" /><rect x="320" y="267" width="21.375" height="53.4375" fill="rgb(31,119,180)" /><rect x="342.5" y="267" width="21.375" height="53.4375" fill="rgb(31,119,180)" /><rect x="365" y="267" width="21.375" height="53.4375" fill="rgb(31,119,180)" /><rect x="387.5" y="267" width="7.125" height="53.4375" fill="rgb(255,127,14)" /><rect x="395" y="267" width="21.375" height="53.4375" fill="rgb(31,119,180)" /><rect x="65" y="210.75" width="21.375" height="53.4375" fill="rgb(31,119,180)" /><rect x="87.5" y="210.75" width="21.375" height="53.4375" fill="rgb(31,119,180)" /><rect x="110" y="210.75" width="21.375" height="53.4375" fill="rgb(31,119,180)" /><rect x="132.5" y="210.75" width="21.375" height="53.4375" fill="rgb(31,119,180)" /><rect x="155" y="210.75" width="21.375" height="53.4375" fill="rgb(31,119,180)" /><rect x="177.5" y="210.75" width="21.375" height="53.4375" fill="rgb(31,119,180)" /><rect x="200" y="210.75" width="21.375" height="53.4375" fill="rgb(31,119,180)" /><rect x="222.5" y="210.75" width="21.375" height="53.4375" fill="rgb(31,119,180)" /><rect x="245" y="210.75" width="21.375" height="53.4375" fill="rgb(31,119,180)" /><rect x="267.5" y="210.75" width="21.375" height="53.4375" fill="rgb(31,119,180)" /><rect x="290" y="210.75" width="7.125" height="53.4375" fill="rgb(44,160,44)" /><rect x="297.5" y="210.75" width="21.375" height="53.4375" fill="rgb(31,119,180)" /><rect x="320" y="210.75" width="21.375" height="53.4375" fill="rgb(31,119,180)" /><rect x="342.5" y="210.75" width="21.375" height="53.4375" fill="rgb(31,119,180)" /><rect x="365" y="210.75" width="21.375" height="53.4375" fill="rgb(31,119,180)" /><rect x="387.5" y="210.75" width="7.125" height="53.4375" fill="rgb(255,127,14)" /><rect x="395" y="210.75" width="21.375" height="53.4375" fill="rgb(31,119,180)" /><rect x="65" y="154.5" width="21.375" height="53.4375" fill="rgb(31,119,180)" /><rect x="87.5" y="154.5" width="21.375" height="53.4375" fill="rgb(31,119,180)" /><rect x="110" y="154.5" width="21.375" height="53.4375" fill="rgb(31,119,180)" /><rect x="132.5" y="154.5" width="21.375" height="53.4375" fill="rgb(31,119,180)" /><rect x="155" y="154.5" width="21.375" height="53.4375" fill="rgb(31,119,180)" /><rect x="177.5" y="154.5" width="21.375" height="53.4375" fill="rgb(31,119,180)" /><rect x="200" y="154.5" width="21.375" height="53.4375" fill="rgb(31,119,180)" /><rect x="222.5" y="154.5" width="21.375" height="53.4375" fill="rgb(31,119,180)" /><rect x="245" y="154.5" width="21.375" height="53.4375" fill="rgb(31,119,180)" /><rect x="267.5" y="154.5" width="21.375" height="53.4375" fill="rgb(31,119,180)" /><rect x="290" y="154.5" width="7.125" height="53.4375" fill="rgb(44,160,44)" /><rect x="297.5" y="154.5" width="21.375" height="53.4375" fill="rgb(31,119,180)" /><rect x="320" y="154.5" width="21.375" height="53.4375" fill="rgb(31,119,180)" /><rect x="342.5" y="154.5" width="21.375" height="53.4375" fill="rgb(31,119,180)" /><rect x="365" y="154.5" width="21.375" height="53.4375" fill="rgb(31,119,180)" /><rect x="387.5" y="154.5" width="21.375" height="53.4375" fill="rgb(31,119,180)" /><rect x="410" y="154.5" width="21.375" height="53.4375" fill="rgb(31,119,180)" /><rect x="432.5" y="154.5" width="21.375" height="53.4375" fill="rgb(31,119,180)" /><rect x="455" y="154.5" width="21.375" height="53.4375" fill="rgb(31,119,180)" /><rect x="477.5" y="154.5" width="21.375" height="53.4375" fill="rgb(214,39,40)" /><rect x="500" y="154.5" width="21.375" height="53.4375" fill="rgb(31,119,180)" /><rect x="522.5" y="154.5" width="21.375" height="53.4375" fill="rgb(31,119,180)" /><rect x="545" y="154.5" width="21.375" height="53.4375" fill="rgb(31,119,180)" /><rect x="567.5" y="154.5" width="21.375" height="53.4375" fill="rgb(31,119,180)" /><rect x="590" y="154.5" width="21.375" height="53.4375" fill="rgb(31,119,180)" /><rect x="65" y="98.25" width="21.375" height="53.4375" fill="rgb(31,119,180)" /><rect x="87.5" y="98.25" width="21.375" height="53.4375" fill="rgb(31,119,180)" /><rect x="110" y="98.25" width="21.375" height="53.4375" fill="rgb(31,119,180)" /><rect x="132.5" y="98.25" width="21.375" height="53.4375" fill="rgb(31,119,180)" /><rect x="155" y="98.25" width="21.375" height="53.4375" fill="rgb(31,119,180)" /><rect x="177.5" y="98.25" width="21.375" height="53.4375" fill="rgb(31,119,180)" /><rect x="200" y="98.25" width="21.375" height="53.4375" fill="rgb(31,119,180)" /><rect x="222.5" y="98.25" width="21.375" height="53.4375" fill="rgb(31,119,180)" /><rect x="245" y="98.25" width="21.375" height="53.4375" fill="rgb(31,119,180)" /><rect x="267.5" y="98.25" width="21.375" height="53.4375" fill="rgb(31,119,180)" /><rect x="290" y="98.25" width="7.125" height="53.4375" fill="rgb(44,160,44)" /><rect x="297.5" y="98.25" width="21.375" height="53.4375" fill="rgb(31,119,180)" /><rect x="320" y="98.25" width="21.375" height="53.4375" fill="rgb(31,119,180)" /><rect x="342.5" y="98.25" width="21.375" height="53.4375" fill="rgb(31,119,180)" /><rect x="365" y="98.25" width="21.375" height="53.4375" fill="rgb(31,119,180)" /><rect x="387.5" y="98.25" width="21.375" height="53.4375" fill="rgb(31,119,180)" /><rect x="65" y="42" width="21.375" height="53.4375" fill="rgb(31,119,180)" /><rect x="87.5" y="42" width="21.375" height="53.4375" fill="rgb(31,119,180)" /><rect x="110" y="42" width="21.375" height="53.4375" fill="rgb(31,119,180)" /><rect x="132.5" y="42" width="21.375" height="53.4375" fill="rgb(31,119,180)" /><rect x="155" y="42" width="21.375" height="53.4375" fill="rgb(31,119,180)" /><rect x="177.5" y="42" width="21.375" height="53.4375" fill="rgb(31,119,180)" /><rect x="200" y="42" width="21.375" height="53.4375" fill="rgb(31,119,180)" /><rect x="222.5" y="42" width="21.375" height="53.4375" fill="rgb(31,119,180)" /><rect x="245" y="42" width="21.375" height="53.4375" fill="rgb(31,119,180)" /><rect x="267.5" y="42" width="21.375" height="53.4375" fill="rgb(31,119,180)" /><rect x="290" y="42" width="7.125" height="53.4375" fill="rgb(44,160,44)" /><rect x="297.5" y="42" width="21.375" height="53.4375" fill="rgb(31,119,180)" /><rect x="320" y="42" width="21.375" height="53.4375" fill="rgb(31,119,180)" /><rect x="342.5" y="42" width="21.375" height="53.4375" fill="rgb(31,119,180)" /><rect x="365" y="42" width="21.375" height="53.4375" fill="rgb(31,119,180)" /><rect x="387.5" y="42" width="7.125" height="53.4375" fill="rgb(255,127,14)" /><rect x="395" y="42" width="21.375" height="53.4375" fill="rgb(31,119,180)" /><rect x="670" y="32" width="80" height="92" fill="white" /><rect x="670" y="32" width="80" height="92" fill="none" stroke="black" stroke-width="1" /><text x="700" y="47" font-size="12" text-anchor="start">CAT</text><rect x="680" y="41" width="12" height="12" fill="rgb(31,119,180)" /><text x="700" y="65" font-size="12" text-anchor="start">T</text><rect x="680" y="59" width="12" height="12" fill="rgb(255,127,14)" /><text x="700" y="83" font-size="12" text-anchor="start">C</text><rect x="680" y="77" width="12" height="12" fill="rgb(44,160,44)" /><text x="700" y="101" font-size="12" text-anchor="start">GGT</text><rect x="680" y="95" width="12" height="12" fill="rgb(214,39,40)" /></svg>