<svg xmlns="http://www.w3.org/2000/svg" width="679" height="541" fill="black"><rect width="100%" height="100%" fill="white" /><line x1="65" y1="492" x2="665" y2="492" stroke="black" stroke-width="1" /><line x1="65" y1="42" x2="65" y2="492" stroke="black" stroke-width="1" /><line x1="65" y1="402" x2="665" y2="402" stroke="#ccc" stroke-width="1" /><line x1="65" y1="312" x2="665" y2="312" stroke="#ccc" stroke-width="1" /><line x1="65" y1="222" x2="665" y2="222" stroke="#ccc" stroke-width="1" /><line x1="65" y1="132" x2="665" y2="132" stroke="#ccc" stroke-width="1" /><line x1="65" y1="42" x2="665" y2="42" stroke="#ccc" stroke-width="1" /><text x="185" y="507" font-size="10" text-anchor="middle">Control</text><line x1="185" y1="492" x2="185" y2="497" stroke="black" stroke-width="1" /><text x="305" y="507" font-size="10" text-anchor="middle">Treatment A</text><line x1="305" y1="492" x2="305" y2="497" stroke="black" stroke-width="1" /><text x="425" y="507" font-size="10" text-anchor="middle">Treatment B</text><line x1="425" y1="492" x2="425" y2="497" stroke="black" stroke-width="1" /><text x="545" y="507" font-size="10" text-anchor="middle">Treatment C</text><line x1="545" y1="492" x2="545" y2="497" stroke="black" stroke-width="1" /><line x1="60" y1="492" x2="65" y2="492" stroke="black" stroke-width="1" /><text x="57" y="495.5" font-size="10" text-anchor="end">0</text><line x1="60" y1="402" x2="65" y2="402" stroke="black" stroke-width="1" /><text x="57" y="405.5" font-size="10" text-anchor="end">2.5</text><line x1="60" y1="312" x2="65" y2="312" stroke="black" stroke-width="1" /><text x="57" y="315.5" font-size="10" text-anchor="end">5</text><line x1="60" y1="222" x2="65" y2="222" stroke="black" stroke-width="1" /><text x="57" y="225.5" font-size="10" text-anchor="end">7.5</text><line x1="60" y1="132" x2="65" y2="132" stroke="black" stroke-width="1" /><text x="57" y="135.5" font-size="10" text-anchor="end">10</text><line x1="60" y1="42" x2="65" y2="42" stroke="black" stroke-width="1" /><text x="57" y="45.5" font-size="10" text-anchor="end">12.5</text><text x="14" y="270.5" font-size="14" text-anchor="middle" transform="rotate(-90,14,270.5)">Value</text><text x="339.5" y="21" font-size="16" text-anchor="middle">Box Plot</text><rect x="137" y="297.5541937213063" width="95.99999999999997" height="42.51608280973011" fill="steelblue" /><line x1="137" y1="312.6047518633774" x2="232.99999999999997" y2="312.6047518633774" stroke="white" stroke-width="1.5" /><line x1="185" y1="401.61582765850346" x2="185" y2="340.0702765310364" stroke="steelblue" stroke-width="1" /><line x1="185" y1="297.5541937213063" x2="185" y2="242.53024486834337" stroke="steelblue" stroke-width="1" /><line x1="161" y1="401.61582765850346" x2="209" y2="401.61582765850346" stroke="steelblue" stroke-width="1" /><line x1="161" y1="242.53024486834337" x2="209" y2="242.53024486834337" stroke="steelblue" stroke-width="1" /><rect x="257" y="221.9987387470905" width="96" height="54.23995196013158" fill="steelblue" /><line x1="257" y1="255.88424452783596" x2="353" y2="255.88424452783596" stroke="white" stroke-width="1.5" /><line x1="305" y1="347.6920768427875" x2="305" y2="276.2386907072221" stroke="steelblue" stroke-width="1" /><line x1="305" y1="221.9987387470905" x2="305" y2="142.5473796351381" stroke="steelblue" stroke-width="1" /><line x1="281" y1="347.6920768427875" x2="329.00000000000006" y2="347.6920768427875" stroke="steelblue" stroke-width="1" /><line x1="281" y1="142.5473796351381" x2="329.00000000000006" y2="142.5473796351381" stroke="steelblue" stroke-width="1" /><rect x="377" y="321.1688044302839" width="95.99999999999994" height="50.404803803883965" fill="steelblue" /><line x1="377" y1="341.6890030072187" x2="472.99999999999994" y2="341.6890030072187" stroke="white" stroke-width="1.5" /><line x1="425" y1="424.8379112699125" x2="425" y2="371.57360823416786" stroke="steelblue" stroke-width="1" /><line x1="425" y1="321.1688044302839" x2="425" y2="281.8516837768894" stroke="steelblue" stroke-width="1" /><line x1="400.99999999999994" y1="424.8379112699125" x2="449" y2="424.8379112699125" stroke="steelblue" stroke-width="1" /><line x1="400.99999999999994" y1="281.8516837768894" x2="449" y2="281.8516837768894" stroke="steelblue" stroke-width="1" /><rect x="497" y="200.67934120027428" width="96.00000000000011" height="73.72899999312995" fill="steelblue" /><line x1="497" y1="224.82122644006438" x2="593.0000000000001" y2="224.82122644006438" stroke="white" stroke-width="1.5" /><line x1="545" y1="341.4510840013579" x2="545" y2="274.4083411934042" stroke="steelblue" stroke-width="1" /><line x1="545" y1="200.67934120027428" x2="545" y2="152.7138962567596" stroke="steelblue" stroke-width="1" /><line x1="521" y1="341.4510840013579" x2="569" y2="341.4510840013579" stroke="steelblue" stroke-width="1" /><line x1="521" y1="152.7138962567596" x2="569" y2="152.7138962567596" stroke="steelblue" stroke-width="1" /></svg>