<svg xmlns="http://www.w3.org/2000/svg" width="679" height="541" fill="black"><rect width="100%" height="100%" fill="white" /><line x1="65" y1="492" x2="665" y2="492" stroke="black" stroke-width="1" /><line x1="65" y1="42" x2="65" y2="492" stroke="black" stroke-width="1" /><line x1="65" y1="402" x2="665" y2="402" stroke="#ccc" stroke-width="1" /><line x1="65" y1="312" x2="665" y2="312" stroke="#ccc" stroke-width="1" /><line x1="65" y1="222" x2="665" y2="222" stroke="#ccc" stroke-width="1" /><line x1="65" y1="132" x2="665" y2="132" stroke="#ccc" stroke-width="1" /><line x1="65" y1="42" x2="665" y2="42" stroke="#ccc" stroke-width="1" /><text x="185" y="507" font-size="10" text-anchor="middle">Control</text><line x1="185" y1="492" x2="185" y2="497" stroke="black" stroke-width="1" /><text x="305" y="507" font-size="10" text-anchor="middle">Treatment A</text><line x1="305" y1="492" x2="305" y2="497" stroke="black" stroke-width="1" /><text x="425" y="507" font-size="10" text-anchor="middle">Treatment B</text><line x1="425" y1="492" x2="425" y2="497" stroke="black" stroke-width="1" /><text x="545" y="507" font-size="10" text-anchor="middle">Treatment C</text><line x1="545" y1="492" x2="545" y2="497" stroke="black" stroke-width="1" /><line x1="60" y1="492" x2="65" y2="492" stroke="black" stroke-width="1" /><text x="57" y="495.5" font-size="10" text-anchor="end">0</text><line x1="60" y1="402" x2="65" y2="402" stroke="black" stroke-width="1" /><text x="57" y="405.5" font-size="10" text-anchor="end">2.5</text><line x1="60" y1="312" x2="65" y2="312" stroke="black" stroke-width="1" /><text x="57" y="315.5" font-size="10" text-anchor="end">5</text><line x1="60" y1="222" x2="65" y2="222" stroke="black" stroke-width="1" /><text x="57" y="225.5" font-size="10" text-anchor="end">7.5</text><line x1="60" y1="132" x2="65" y2="132" stroke="black" stroke-width="1" /><text x="57" y="135.5" font-size="10" text-anchor="end">10</text><line x1="60" y1="42" x2="65" y2="42" stroke="black" stroke-width="1" /><text x="57" y="45.5" font-size="10" text-anchor="end">12.5</text><text x="14" y="270.5" font-size="14" text-anchor="middle" transform="rotate(-90,14,270.5)">Value</text><text x="339.5" y="21" font-size="16" text-anchor="middle">Box Plot + Strip Overlay</text><rect x="137" y="297.5541937213063" width="95.99999999999997" height="42.51608280973011" fill="steelblue" /><line x1="137" y1="312.6047518633774" x2="232.99999999999997" y2="312.6047518633774" stroke="white" stroke-width="1.5" /><line x1="185" y1="401.61582765850346" x2="185" y2="340.0702765310364" stroke="steelblue" stroke-width="1" /><line x1="185" y1="297.5541937213063" x2="185" y2="242.53024486834337" stroke="steelblue" stroke-width="1" /><line x1="161" y1="401.61582765850346" x2="209" y2="401.61582765850346" stroke="steelblue" stroke-width="1" /><line x1="161" y1="242.53024486834337" x2="209" y2="242.53024486834337" stroke="steelblue" stroke-width="1" /><rect x="257" y="221.9987387470905" width="96" height="54.23995196013158" fill="steelblue" /><line x1="257" y1="255.88424452783596" x2="353" y2="255.88424452783596" stroke="white" stroke-width="1.5" /><line x1="305" y1="347.6920768427875" x2="305" y2="276.2386907072221" stroke="steelblue" stroke-width="1" /><line x1="305" y1="221.9987387470905" x2="305" y2="142.5473796351381" stroke="steelblue" stroke-width="1" /><line x1="281" y1="347.6920768427875" x2="329.00000000000006" y2="347.6920768427875" stroke="steelblue" stroke-width="1" /><line x1="281" y1="142.5473796351381" x2="329.00000000000006" y2="142.5473796351381" stroke="steelblue" stroke-width="1" /><rect x="377" y="321.1688044302839" width="95.99999999999994" height="50.404803803883965" fill="steelblue" /><line x1="377" y1="341.6890030072187" x2="472.99999999999994" y2="341.6890030072187" stroke="white" stroke-width="1.5" /><line x1="425" y1="424.8379112699125" x2="425" y2="371.57360823416786" stroke="steelblue" stroke-width="1" /><line x1="425" y1="321.1688044302839" x2="425" y2="281.8516837768894" stroke="steelblue" stroke-width="1" /><line x1="400.99999999999994" y1="424.8379112699125" x2="449" y2="424.8379112699125" stroke="steelblue" stroke-width="1" /><line x1="400.99999999999994" y1="281.8516837768894" x2="449" y2="281.8516837768894" stroke="steelblue" stroke-width="1" /><rect x="497" y="200.67934120027428" width="96.00000000000011" height="73.72899999312995" fill="steelblue" /><line x1="497" y1="224.82122644006438" x2="593.0000000000001" y2="224.82122644006438" stroke="white" stroke-width="1.5" /><line x1="545" y1="341.4510840013579" x2="545" y2="274.4083411934042" stroke="steelblue" stroke-width="1" /><line x1="545" y1="200.67934120027428" x2="545" y2="152.7138962567596" stroke="steelblue" stroke-width="1" /><line x1="521" y1="341.4510840013579" x2="569" y2="341.4510840013579" stroke="steelblue" stroke-width="1" /><line x1="521" y1="152.7138962567596" x2="569" y2="152.7138962567596" stroke="steelblue" stroke-width="1" /><circle cx="193.635058846062" cy="281.61604990960166" r="3" fill="rgba(0,0,0,0.4)" /><circle cx="191.46665039460112" cy="286.23981434169866" r="3" fill="rgba(0,0,0,0.4)" /><circle cx="195.50767762886798" cy="380.9713719702753" r="3" fill="rgba(0,0,0,0.4)" /><circle cx="175.28682415044725" cy="295.7101270661593" r="3" fill="rgba(0,0,0,0.4)" /><circle cx="182.2322821794138" cy="341.3684834416101" r="3" fill="rgba(0,0,0,0.4)" /><circle cx="175.53415605326256" cy="299.1002950619744" r="3" fill="rgba(0,0,0,0.4)" /><circle cx="173.38090424863955" cy="205.859347069705" r="3" fill="rgba(0,0,0,0.4)" /><circle cx="180.0175347531078" cy="307.9858989422738" r="3" fill="rgba(0,0,0,0.4)" /><circle cx="184.26506085559984" cy="340.18632047932533" r="3" fill="rgba(0,0,0,0.4)" /><circle cx="193.2555013392701" cy="379.64488122188936" r="3" fill="rgba(0,0,0,0.4)" /><circle cx="174.93177325157063" cy="253.12638242684417" r="3" fill="rgba(0,0,0,0.4)" /><circle cx="194.15333813113457" cy="325.4102466140779" r="3" fill="rgba(0,0,0,0.4)" /><circle cx="173.62310544497342" cy="340.2882026677967" r="3" fill="rgba(0,0,0,0.4)" /><circle cx="181.20604315019358" cy="326.76383124016496" r="3" fill="rgba(0,0,0,0.4)" /><circle cx="184.61431521685887" cy="345.69896455597404" r="3" fill="rgba(0,0,0,0.4)" /><circle cx="186.31537606380772" cy="340.0315952149401" r="3" fill="rgba(0,0,0,0.4)" /><circle cx="183.93453443748052" cy="306.6230120670726" r="3" fill="rgba(0,0,0,0.4)" /><circle cx="194.1645230157725" cy="313.14056021350405" r="3" fill="rgba(0,0,0,0.4)" /><circle cx="187.30170892406676" cy="268.0170081665881" r="3" fill="rgba(0,0,0,0.4)" /><circle cx="194.20455956779406" cy="292.16524964224806" r="3" fill="rgba(0,0,0,0.4)" /><circle cx="179.4983597716148" cy="360.55320058142786" r="3" fill="rgba(0,0,0,0.4)" /><circle cx="177.95268463550914" cy="250.7495982326112" r="3" fill="rgba(0,0,0,0.4)" /><circle cx="193.8163907329559" cy="329.21657208507327" r="3" fill="rgba(0,0,0,0.4)" /><circle cx="173.3720395184" cy="320.0596033292419" r="3" fill="rgba(0,0,0,0.4)" /><circle cx="185.29252082710147" cy="343.74905564876644" r="3" fill="rgba(0,0,0,0.4)" /><circle cx="187.42937419969155" cy="299.8239644866111" r="3" fill="rgba(0,0,0,0.4)" /><circle cx="186.82842996537073" cy="350.3865292658737" r="3" fill="rgba(0,0,0,0.4)" /><circle cx="181.77487302250256" cy="262.90553838003956" r="3" fill="rgba(0,0,0,0.4)" /><circle cx="184.9131831192174" cy="308.09741199277244" r="3" fill="rgba(0,0,0,0.4)" /><circle cx="184.41431985621293" cy="276.8113456957507" r="3" fill="rgba(0,0,0,0.4)" /><circle cx="175.03609324338933" cy="303.7950521845961" r="3" fill="rgba(0,0,0,0.4)" /><circle cx="182.14258212908328" cy="303.01579277252233" r="3" fill="rgba(0,0,0,0.4)" /><circle cx="173.73264954304065" cy="311.15594248477635" r="3" fill="rgba(0,0,0,0.4)" /><circle cx="179.87433848706502" cy="309.0914204195262" r="3" fill="rgba(0,0,0,0.4)" /><circle cx="190.22356194074393" cy="242.53024486834337" r="3" fill="rgba(0,0,0,0.4)" /><circle cx="184.2395538928992" cy="332.8748770353384" r="3" fill="rgba(0,0,0,0.4)" /><circle cx="188.0209545983818" cy="321.4699314527678" r="3" fill="rgba(0,0,0,0.4)" /><circle cx="194.69464223980845" cy="299.9706547648835" r="3" fill="rgba(0,0,0,0.4)" /><circle cx="179.74727066779224" cy="295.55608007174135" r="3" fill="rgba(0,0,0,0.4)" /><circle cx="175.06168923776917" cy="288.3946580506116" r="3" fill="rgba(0,0,0,0.4)" /><circle cx="179.98192755214416" cy="314.14359806340156" r="3" fill="rgba(0,0,0,0.4)" /><circle cx="188.05909727032292" cy="312.0689435132507" r="3" fill="rgba(0,0,0,0.4)" /><circle cx="180.58076992720882" cy="317.47833374761206" r="3" fill="rgba(0,0,0,0.4)" /><circle cx="192.80295229212334" cy="250.86923533954615" r="3" fill="rgba(0,0,0,0.4)" /><circle cx="180.1273613792709" cy="304.33600675029993" r="3" fill="rgba(0,0,0,0.4)" /><circle cx="183.7537720029428" cy="298.16888260635534" r="3" fill="rgba(0,0,0,0.4)" /><circle cx="181.1011713336576" cy="298.5116433620659" r="3" fill="rgba(0,0,0,0.4)" /><circle cx="179.3313233067198" cy="326.87730610166" r="3" fill="rgba(0,0,0,0.4)" /><circle cx="177.5547710896612" cy="375.2910829654787" r="3" fill="rgba(0,0,0,0.4)" /><circle cx="178.41077087484544" cy="401.61582765850346" r="3" fill="rgba(0,0,0,0.4)" /><circle cx="180.59456161532947" cy="278.86362704458213" r="3" fill="rgba(0,0,0,0.4)" /><circle cx="192.65205014569545" cy="301.799124096478" r="3" fill="rgba(0,0,0,0.4)" /><circle cx="174.87244700627306" cy="315.88880499244704" r="3" fill="rgba(0,0,0,0.4)" /><circle cx="186.34105466654316" cy="377.359070544648" r="3" fill="rgba(0,0,0,0.4)" /><circle cx="179.67328343717637" cy="316.89686201813237" r="3" fill="rgba(0,0,0,0.4)" /><circle cx="188.0412419447182" cy="313.272075675731" r="3" fill="rgba(0,0,0,0.4)" /><circle cx="173.85068828427143" cy="346.1655408555424" r="3" fill="rgba(0,0,0,0.4)" /><circle cx="184.0719433644823" cy="344.0535710017116" r="3" fill="rgba(0,0,0,0.4)" /><circle cx="195.69871196462526" cy="318.3011762557693" r="3" fill="rgba(0,0,0,0.4)" /><circle cx="183.79653073652236" cy="344.49172997685207" r="3" fill="rgba(0,0,0,0.4)" /><circle cx="313.6350588474479" cy="206.21741548839555" r="3" fill="rgba(0,0,0,0.4)" /><circle cx="312.9665602611151" cy="254.6766322338956" r="3" fill="rgba(0,0,0,0.4)" /><circle cx="303.03507681016583" cy="244.99171503171354" r="3" fill="rgba(0,0,0,0.4)" /><circle cx="315.23650113438043" cy="287.0779734509231" r="3" fill="rgba(0,0,0,0.4)" /><circle cx="314.4183369189266" cy="258.39919147162385" r="3" fill="rgba(0,0,0,0.4)" /><circle cx="315.28603621159743" cy="198.58824436294816" r="3" fill="rgba(0,0,0,0.4)" /><circle cx="308.5940375398693" cy="276.0000993647858" r="3" fill="rgba(0,0,0,0.4)" /><circle cx="306.2151159302315" cy="204.88273671315216" r="3" fill="rgba(0,0,0,0.4)" /><circle cx="293.47722347551775" cy="262.49024775290945" r="3" fill="rgba(0,0,0,0.4)" /><circle cx="309.0944476175549" cy="197.1397148644375" r="3" fill="rgba(0,0,0,0.4)" /><circle cx="293.7799472357725" cy="257.09185682177633" r="3" fill="rgba(0,0,0,0.4)" /><circle cx="294.31829629473714" cy="244.14407524421276" r="3" fill="rgba(0,0,0,0.4)" /><circle cx="299.8026875774528" cy="228.08076402200675" r="3" fill="rgba(0,0,0,0.4)" /><circle cx="311.69275384962134" cy="226.42351132981406" r="3" fill="rgba(0,0,0,0.4)" /><circle cx="315.724138387179" cy="185.77131269523818" r="3" fill="rgba(0,0,0,0.4)" /><circle cx="299.1504733914379" cy="263.442456549657" r="3" fill="rgba(0,0,0,0.4)" /><circle cx="303.45471534457306" cy="247.434911337237" r="3" fill="rgba(0,0,0,0.4)" /><circle cx="299.8313961896871" cy="272.9190666037192" r="3" fill="rgba(0,0,0,0.4)" /><circle cx="307.10824945931233" cy="287.54463753629386" r="3" fill="rgba(0,0,0,0.4)" /><circle cx="306.7994127957928" cy="312.1231327747407" r="3" fill="rgba(0,0,0,0.4)" /><circle cx="310.1919213839486" cy="249.43059321386224" r="3" fill="rgba(0,0,0,0.4)" /><circle cx="303.52451642196377" cy="248.8887121311058" r="3" fill="rgba(0,0,0,0.4)" /><circle cx="316.56712316762446" cy="246.56665473244382" r="3" fill="rgba(0,0,0,0.4)" /><circle cx="302.7022232355466" cy="142.5473796351381" r="3" fill="rgba(0,0,0,0.4)" /><circle cx="299.02624077442164" cy="312.5737106458143" r="3" fill="rgba(0,0,0,0.4)" /><circle cx="303.066086224085" cy="267.7562819077559" r="3" fill="rgba(0,0,0,0.4)" /><circle cx="313.8736295660925" cy="289.9406727930222" r="3" fill="rgba(0,0,0,0.4)" /><circle cx="302.84193974506275" cy="323.29881518099273" r="3" fill="rgba(0,0,0,0.4)" /><circle cx="297.2770872944829" cy="273.9804354479352" r="3" fill="rgba(0,0,0,0.4)" /><circle cx="296.2490654968522" cy="207.50255532910768" r="3" fill="rgba(0,0,0,0.4)" /><circle cx="310.6755601416058" cy="273.9565260821985" r="3" fill="rgba(0,0,0,0.4)" /><circle cx="305.9531485806543" cy="260.99457168322795" r="3" fill="rgba(0,0,0,0.4)" /><circle cx="298.124779300112" cy="249.74557256074928" r="3" fill="rgba(0,0,0,0.4)" /><circle cx="303.9914357647573" cy="214.7712941372303" r="3" fill="rgba(0,0,0,0.4)" /><circle cx="293.86234081744044" cy="301.65066069670115" r="3" fill="rgba(0,0,0,0.4)" /><circle cx="316.701619360956" cy="210.02388273642538" r="3" fill="rgba(0,0,0,0.4)" /><circle cx="308.9057317730362" cy="206.56806175493807" r="3" fill="rgba(0,0,0,0.4)" /><circle cx="293.3708003454241" cy="311.98999677732456" r="3" fill="rgba(0,0,0,0.4)" /><circle cx="315.3374721117018" cy="231.8179706242849" r="3" fill="rgba(0,0,0,0.4)" /><circle cx="296.6536363545076" cy="294.70453570692683" r="3" fill="rgba(0,0,0,0.4)" /><circle cx="303.09275479602775" cy="253.49101217203366" r="3" fill="rgba(0,0,0,0.4)" /><circle cx="303.0938454402328" cy="282.4178062380556" r="3" fill="rgba(0,0,0,0.4)" /><circle cx="302.10001100925535" cy="347.6920768427875" r="3" fill="rgba(0,0,0,0.4)" /><circle cx="307.34877198086997" cy="196.11582548815335" r="3" fill="rgba(0,0,0,0.4)" /><circle cx="308.5360696524114" cy="265.7873867142773" r="3" fill="rgba(0,0,0,0.4)" /><circle cx="305.8423699202865" cy="220.34921931968478" r="3" fill="rgba(0,0,0,0.4)" /><circle cx="303.33223870383347" cy="286.9013683681477" r="3" fill="rgba(0,0,0,0.4)" /><circle cx="300.1252268871573" cy="259.6751175869189" r="3" fill="rgba(0,0,0,0.4)" /><circle cx="315.4826325783108" cy="204.1475000805467" r="3" fill="rgba(0,0,0,0.4)" /><circle cx="305.8508468502124" cy="268.84182689930503" r="3" fill="rgba(0,0,0,0.4)" /><circle cx="301.2634931275483" cy="190.6936685238441" r="3" fill="rgba(0,0,0,0.4)" /><circle cx="307.9380072574146" cy="276.9544647345309" r="3" fill="rgba(0,0,0,0.4)" /><circle cx="297.3277943596919" cy="306.1326382721161" r="3" fill="rgba(0,0,0,0.4)" /><circle cx="314.33926665356717" cy="279.97307659924127" r="3" fill="rgba(0,0,0,0.4)" /><circle cx="314.0022588040854" cy="229.95203710643278" r="3" fill="rgba(0,0,0,0.4)" /><circle cx="311.6528206394985" cy="273.3328774234402" r="3" fill="rgba(0,0,0,0.4)" /><circle cx="312.99284364581956" cy="218.20477105967518" r="3" fill="rgba(0,0,0,0.4)" /><circle cx="301.88355030780036" cy="222.54857855622572" r="3" fill="rgba(0,0,0,0.4)" /><circle cx="293.62952723498086" cy="272.6101119473009" r="3" fill="rgba(0,0,0,0.4)" /><circle cx="298.3466799018931" cy="239.44150995091042" r="3" fill="rgba(0,0,0,0.4)" /><circle cx="433.6350588488353" cy="406.84100187850595" r="3" fill="rgba(0,0,0,0.4)" /><circle cx="428.4671969161665" cy="318.3901736627191" r="3" fill="rgba(0,0,0,0.4)" /><circle cx="428.96768505663186" cy="309.23184157335" r="3" fill="rgba(0,0,0,0.4)" /><circle cx="427.0185255407109" cy="293.57074080995363" r="3" fill="rgba(0,0,0,0.4)" /><circle cx="426.68150540800406" cy="324.6031243394235" r="3" fill="rgba(0,0,0,0.4)" /><circle cx="421.62170405027723" cy="383.1541049004861" r="3" fill="rgba(0,0,0,0.4)" /><circle cx="435.39652540775955" cy="384.18308138689486" r="3" fill="rgba(0,0,0,0.4)" /><circle cx="416.79243547025607" cy="329.656820125476" r="3" fill="rgba(0,0,0,0.4)" /><circle cx="432.77275328101615" cy="332.45203549352124" r="3" fill="rgba(0,0,0,0.4)" /><circle cx="434.48906927098307" cy="424.8379112699125" r="3" fill="rgba(0,0,0,0.4)" /><circle cx="436.74203336747314" cy="335.4269457157225" r="3" fill="rgba(0,0,0,0.4)" /><circle cx="431.2989878929033" cy="365.7420925923453" r="3" fill="rgba(0,0,0,0.4)" /><circle cx="434.3214507586609" cy="347.16029090107895" r="3" fill="rgba(0,0,0,0.4)" /><circle cx="417.5995629505254" cy="343.1044602220538" r="3" fill="rgba(0,0,0,0.4)" /><circle cx="426.13647386442244" cy="371.4165647164574" r="3" fill="rgba(0,0,0,0.4)" /><circle cx="433.58259128466267" cy="341.07940095759295" r="3" fill="rgba(0,0,0,0.4)" /><circle cx="417.21571148598235" cy="397.99596017736536" r="3" fill="rgba(0,0,0,0.4)" /><circle cx="430.5708161112002" cy="315.20719948657006" r="3" fill="rgba(0,0,0,0.4)" /><circle cx="415.7219521851382" cy="321.51309237434964" r="3" fill="rgba(0,0,0,0.4)" /><circle cx="418.71585799753166" cy="334.3499056151752" r="3" fill="rgba(0,0,0,0.4)" /><circle cx="418.9082946645541" cy="367.1089444097696" r="3" fill="rgba(0,0,0,0.4)" /><circle cx="428.68873377175" cy="358.3730249147833" r="3" fill="rgba(0,0,0,0.4)" /><circle cx="414.0779190258907" cy="374.90547662497676" r="3" fill="rgba(0,0,0,0.4)" /><circle cx="416.665071825959" cy="401.40687334201164" r="3" fill="rgba(0,0,0,0.4)" /><circle cx="432.91630220550155" cy="281.8516837768894" r="3" fill="rgba(0,0,0,0.4)" /><circle cx="432.56012770285616" cy="333.9147211226277" r="3" fill="rgba(0,0,0,0.4)" /><circle cx="422.18886000541875" cy="293.1653985360782" r="3" fill="rgba(0,0,0,0.4)" /><circle cx="429.56830257859536" cy="311.5980066236877" r="3" fill="rgba(0,0,0,0.4)" /><circle cx="433.15130719708753" cy="356.28333192011144" r="3" fill="rgba(0,0,0,0.4)" /><circle cx="429.1547870031028" cy="369.2645301536599" r="3" fill="rgba(0,0,0,0.4)" /><circle cx="433.04309532104304" cy="243.13014212440714" r="3" fill="rgba(0,0,0,0.4)" /><circle cx="421.2310233864747" cy="356.5430439522046" r="3" fill="rgba(0,0,0,0.4)" /><circle cx="416.0225862716031" cy="307.6547279047627" r="3" fill="rgba(0,0,0,0.4)" /><circle cx="435.23360795613036" cy="358.398602433954" r="3" fill="rgba(0,0,0,0.4)" /><circle cx="436.1697160991564" cy="303.07157213317083" r="3" fill="rgba(0,0,0,0.4)" /><circle cx="433.5713955275316" cy="386.5290726327208" r="3" fill="rgba(0,0,0,0.4)" /><circle cx="424.887306064686" cy="356.17633927449907" r="3" fill="rgba(0,0,0,0.4)" /><circle cx="424.9925457899329" cy="372.0447387872995" r="3" fill="rgba(0,0,0,0.4)" /><circle cx="418.1029061940942" cy="360.10675577457596" r="3" fill="rgba(0,0,0,0.4)" /><circle cx="427.1884478312106" cy="282.3963160588888" r="3" fill="rgba(0,0,0,0.4)" /><circle cx="425.26649951259174" cy="340.2445469618782" r="3" fill="rgba(0,0,0,0.4)" /><circle cx="420.82060575788535" cy="342.2443942262536" r="3" fill="rgba(0,0,0,0.4)" /><circle cx="422.7093129017983" cy="389.0120341523974" r="3" fill="rgba(0,0,0,0.4)" /><circle cx="417.2445890493484" cy="341.13361178818377" r="3" fill="rgba(0,0,0,0.4)" /><circle cx="434.37286824719575" cy="329.5895420909404" r="3" fill="rgba(0,0,0,0.4)" /><circle cx="414.46717614769295" cy="323.0959577711957" r="3" fill="rgba(0,0,0,0.4)" /><circle cx="423.4797679079727" cy="305.1313386940907" r="3" fill="rgba(0,0,0,0.4)" /><circle cx="414.1418033902789" cy="320.13985449243233" r="3" fill="rgba(0,0,0,0.4)" /><circle cx="413.3019005682263" cy="332.7128054826558" r="3" fill="rgba(0,0,0,0.4)" /><circle cx="413.4342841442374" cy="380.66771419638667" r="3" fill="rgba(0,0,0,0.4)" /><circle cx="425.2128106265829" cy="296.4591407486374" r="3" fill="rgba(0,0,0,0.4)" /><circle cx="436.27858819786655" cy="321.51178774290116" r="3" fill="rgba(0,0,0,0.4)" /><circle cx="418.77871430916554" cy="374.5343982293663" r="3" fill="rgba(0,0,0,0.4)" /><circle cx="423.9569812744445" cy="378.7335298469095" r="3" fill="rgba(0,0,0,0.4)" /><circle cx="434.2682932624934" cy="390.7447053101108" r="3" fill="rgba(0,0,0,0.4)" /><circle cx="414.8861390883069" cy="372.4196701375889" r="3" fill="rgba(0,0,0,0.4)" /><circle cx="420.4553102619859" cy="355.155079977593" r="3" fill="rgba(0,0,0,0.4)" /><circle cx="417.76329303145144" cy="316.1295052463308" r="3" fill="rgba(0,0,0,0.4)" /><circle cx="424.8381476860016" cy="343.9003256694248" r="3" fill="rgba(0,0,0,0.4)" /><circle cx="418.6681562836798" cy="323.91839853065284" r="3" fill="rgba(0,0,0,0.4)" /><circle cx="553.6350588502212" cy="194.16563186271605" r="3" fill="rgba(0,0,0,0.4)" /><circle cx="549.9671068277332" cy="211.80243065880586" r="3" fill="rgba(0,0,0,0.4)" /><circle cx="537.6219150562647" cy="341.4510840013579" r="3" fill="rgba(0,0,0,0.4)" /><circle cx="542.0773142987116" cy="199.6516045602189" r="3" fill="rgba(0,0,0,0.4)" /><circle cx="535.239652805471" cy="292.32368761677213" r="3" fill="rgba(0,0,0,0.4)" /><circle cx="549.244632178259" cy="184.78264202055254" r="3" fill="rgba(0,0,0,0.4)" /><circle cx="540.1848569615958" cy="222.17387388892757" r="3" fill="rgba(0,0,0,0.4)" /><circle cx="555.3474721282346" cy="196.04139544706658" r="3" fill="rgba(0,0,0,0.4)" /><circle cx="549.4849158960244" cy="246.14715231215732" r="3" fill="rgba(0,0,0,0.4)" /><circle cx="547.1170365630273" cy="280.40518356732326" r="3" fill="rgba(0,0,0,0.4)" /><circle cx="554.1835940073377" cy="291.0864986895009" r="3" fill="rgba(0,0,0,0.4)" /><circle cx="537.1825113425414" cy="196.4294816029082" r="3" fill="rgba(0,0,0,0.4)" /><circle cx="549.2448987797941" cy="207.31889004918708" r="3" fill="rgba(0,0,0,0.4)" /><circle cx="548.1800018458728" cy="217.88643345078043" r="3" fill="rgba(0,0,0,0.4)" /><circle cx="533.5249777584304" cy="340.7304221874924" r="3" fill="rgba(0,0,0,0.4)" /><circle cx="534.8812430043037" cy="217.0226234536483" r="3" fill="rgba(0,0,0,0.4)" /><circle cx="538.232956534772" cy="300.8201421431281" r="3" fill="rgba(0,0,0,0.4)" /><circle cx="534.7296361869783" cy="206.60088135314618" r="3" fill="rgba(0,0,0,0.4)" /><circle cx="534.8725744202317" cy="225.23578539983595" r="3" fill="rgba(0,0,0,0.4)" /><circle cx="540.3033781732586" cy="218.9032282556123" r="3" fill="rgba(0,0,0,0.4)" /><circle cx="552.2378501176541" cy="241.20088713335366" r="3" fill="rgba(0,0,0,0.4)" /><circle cx="554.3568275586425" cy="244.97913126799983" r="3" fill="rgba(0,0,0,0.4)" /><circle cx="537.3198628195041" cy="253.3662947266348" r="3" fill="rgba(0,0,0,0.4)" /><circle cx="539.3348841717514" cy="233.12494852931906" r="3" fill="rgba(0,0,0,0.4)" /><circle cx="535.1715065276524" cy="201.21332230080475" r="3" fill="rgba(0,0,0,0.4)" /><circle cx="536.1944117050363" cy="273.44898129895194" r="3" fill="rgba(0,0,0,0.4)" /><circle cx="537.4200046369601" cy="218.04513940201878" r="3" fill="rgba(0,0,0,0.4)" /><circle cx="545.5481443415051" cy="192.35479295787093" r="3" fill="rgba(0,0,0,0.4)" /><circle cx="545.4215582844332" cy="227.35502846413203" r="3" fill="rgba(0,0,0,0.4)" /><circle cx="556.1774789619246" cy="194.31724413191364" r="3" fill="rgba(0,0,0,0.4)" /><circle cx="544.7154418219908" cy="159.79537502907704" r="3" fill="rgba(0,0,0,0.4)" /><circle cx="550.6615487064207" cy="179.75857646464067" r="3" fill="rgba(0,0,0,0.4)" /><circle cx="534.619802064717" cy="236.11026906103223" r="3" fill="rgba(0,0,0,0.4)" /><circle cx="552.6197151220706" cy="288.1090871400129" r="3" fill="rgba(0,0,0,0.4)" /><circle cx="539.9029973432525" cy="224.4066674802928" r="3" fill="rgba(0,0,0,0.4)" /><circle cx="540.5351086244711" cy="263.25770244626153" r="3" fill="rgba(0,0,0,0.4)" /><circle cx="544.1900287547007" cy="152.7138962567596" r="3" fill="rgba(0,0,0,0.4)" /><circle cx="547.5751881893051" cy="292.5583176729407" r="3" fill="rgba(0,0,0,0.4)" /><circle cx="547.983487883189" cy="280.18637721037953" r="3" fill="rgba(0,0,0,0.4)" /><circle cx="548.4053929809315" cy="231.3740427534131" r="3" fill="rgba(0,0,0,0.4)" /><circle cx="548.2845848947825" cy="201.02192008029283" r="3" fill="rgba(0,0,0,0.4)" /><circle cx="547.2854383573074" cy="262.69212798510233" r="3" fill="rgba(0,0,0,0.4)" /><circle cx="541.096722385332" cy="203.3753880220478" r="3" fill="rgba(0,0,0,0.4)" /><circle cx="542.6974420469662" cy="277.2864208767611" r="3" fill="rgba(0,0,0,0.4)" /><circle cx="533.9651670513394" cy="219.4520439970221" r="3" fill="rgba(0,0,0,0.4)" /><circle cx="556.0561174778741" cy="185.4468076687836" r="3" fill="rgba(0,0,0,0.4)" /><circle cx="541.21072367588" cy="285.55756925695107" r="3" fill="rgba(0,0,0,0.4)" /><circle cx="533.3419597870334" cy="263.7918785338328" r="3" fill="rgba(0,0,0,0.4)" /><circle cx="553.6709584318039" cy="298.51769374148853" r="3" fill="rgba(0,0,0,0.4)" /><circle cx="549.8770161981608" cy="297.6239254317332" r="3" fill="rgba(0,0,0,0.4)" /><circle cx="546.0678515362501" cy="236.35424035794216" r="3" fill="rgba(0,0,0,0.4)" /><circle cx="550.1121526434997" cy="259.68048196914253" r="3" fill="rgba(0,0,0,0.4)" /><circle cx="533.0422899237185" cy="199.26492897158863" r="3" fill="rgba(0,0,0,0.4)" /><circle cx="535.3482484922528" cy="207.57765800528836" r="3" fill="rgba(0,0,0,0.4)" /><circle cx="539.5581836854433" cy="203.12415152448852" r="3" fill="rgba(0,0,0,0.4)" /><circle cx="543.7432874890567" cy="309.78992264469457" r="3" fill="rgba(0,0,0,0.4)" /><circle cx="546.8599152583886" cy="184.6983374171756" r="3" fill="rgba(0,0,0,0.4)" /><circle cx="535.4452784700909" cy="195.70647264818996" r="3" fill="rgba(0,0,0,0.4)" /><circle cx="546.0252359391787" cy="172.01495754801817" r="3" fill="rgba(0,0,0,0.4)" /><circle cx="544.0934023211229" cy="302.51893492009845" r="3" fill="rgba(0,0,0,0.4)" /></svg>