<svg xmlns="http://www.w3.org/2000/svg" width="679" height="541" fill="black"><rect width="100%" height="100%" fill="white" /><line x1="65" y1="492" x2="665" y2="492" stroke="black" stroke-width="1" /><line x1="65" y1="42" x2="65" y2="492" stroke="black" stroke-width="1" /><line x1="65" y1="427.7142857142857" x2="665" y2="427.7142857142857" stroke="#ccc" stroke-width="1" /><line x1="65" y1="363.42857142857144" x2="665" y2="363.42857142857144" stroke="#ccc" stroke-width="1" /><line x1="65" y1="299.14285714285717" x2="665" y2="299.14285714285717" stroke="#ccc" stroke-width="1" /><line x1="65" y1="234.8571428571429" x2="665" y2="234.8571428571429" stroke="#ccc" stroke-width="1" /><line x1="65" y1="170.57142857142856" x2="665" y2="170.57142857142856" stroke="#ccc" stroke-width="1" /><line x1="65" y1="106.28571428571433" x2="665" y2="106.28571428571433" stroke="#ccc" stroke-width="1" /><line x1="65" y1="42" x2="665" y2="42" stroke="#ccc" stroke-width="1" /><text x="364.99999999999994" y="507" font-size="10" text-anchor="middle"></text><line x1="364.99999999999994" y1="492" x2="364.99999999999994" y2="497" stroke="black" stroke-width="1" /><line x1="60" y1="492" x2="65" y2="492" stroke="black" stroke-width="1" /><text x="57" y="495.5" font-size="10" text-anchor="end">-4</text><line x1="60" y1="427.7142857142857" x2="65" y2="427.7142857142857" stroke="black" stroke-width="1" /><text x="57" y="431.2142857142857" font-size="10" text-anchor="end">-3</text><line x1="60" y1="363.42857142857144" x2="65" y2="363.42857142857144" stroke="black" stroke-width="1" /><text x="57" y="366.92857142857144" font-size="10" text-anchor="end">-2</text><line x1="60" y1="299.14285714285717" x2="65" y2="299.14285714285717" stroke="black" stroke-width="1" /><text x="57" y="302.64285714285717" font-size="10" text-anchor="end">-1</text><line x1="60" y1="234.8571428571429" x2="65" y2="234.8571428571429" stroke="black" stroke-width="1" /><text x="57" y="238.3571428571429" font-size="10" text-anchor="end">0</text><line x1="60" y1="170.57142857142856" x2="65" y2="170.57142857142856" stroke="black" stroke-width="1" /><text x="57" y="174.07142857142856" font-size="10" text-anchor="end">1</text><line x1="60" y1="106.28571428571433" x2="65" y2="106.28571428571433" stroke="black" stroke-width="1" /><text x="57" y="109.78571428571433" font-size="10" text-anchor="end">2</text><line x1="60" y1="42" x2="65" y2="42" stroke="black" stroke-width="1" /><text x="57" y="45.5" font-size="10" text-anchor="end">3</text><text x="339.5" y="21" font-size="16" text-anchor="middle">Narrow (h = 0.15)</text><path d="M 364.9935416149109 429.68116955701197 L 364.9885073502971 427.76523979787737 L 364.9803405384616 425.8493100387428 L 364.9674763449774 423.93338027960823 L 364.9484730214365 422.01745052047363 L 364.92146111824627 420.10152076133903 L 364.8847925864707 418.1855910022045 L 364.8372957267219 416.2696612430699 L 364.7783956493583 414.35373148393535 L 364.7091606754637 412.43780172480075 L 364.631513154468 410.52187196566615 L 364.54861625778375 408.6059422065316 L 364.4643299687561 406.690012447397 L 364.38254861986735 404.7740826882624 L 364.30616597029103 402.85815292912787 L 364.236978439442 400.94222316999327 L 364.1752732243738 399.0262934108587 L 364.1193407285995 397.11036365172413 L 364.06654625948454 395.1944338925896 L 364.01395405650527 393.278504133455 L 363.95838101734097 391.3625743743204 L 363.8987395062618 389.44664461518585 L 363.8342738809433 387.53071485605125 L 363.7651865729173 385.61478509691665 L 363.69158774519207 383.69885533778205 L 363.6131821812606 381.7829255786475 L 363.5287126895459 379.8669958195129 L 363.4358804520827 377.95106606037837 L 363.33144948482897 376.03513630124377 L 363.2126537754534 374.11920654210917 L 363.0766321691187 372.2032767829746 L 362.9231368260145 370.28734702384 L 362.7538855252804 368.3714172647054 L 362.57261356320004 366.4554875055709 L 362.3864747702494 364.5395577464363 L 362.20341975494944 362.62362798730175 L 362.0319073288673 360.70769822816715 L 361.8791051816392 358.7917684690326 L 361.74927676952035 356.875838709898 L 361.6406926143067 354.9599089507634 L 361.5439406278165 353.04397919162886 L 361.4441050677847 351.12804943249427 L 361.3172369229579 349.21211967335967 L 361.13628825584124 347.29618991422507 L 360.8729035280565 345.3802601550905 L 360.5015876487194 343.4643303959559 L 360.00443465457766 341.5484006368213 L 359.3735141348696 339.6324708776868 L 358.61423238084615 337.7165411185522 L 357.7423820184254 335.8006113594176 L 356.7871069222481 333.884681600283 L 355.787702183182 331.96875184114845 L 354.7891317157062 330.0528220820139 L 353.83902159992186 328.1368923228793 L 352.985809132002 326.2209625637447 L 352.26904252062604 324.30503280461016 L 351.7182053363621 322.38910304547557 L 351.34770223579926 320.473173286341 L 351.1535261512606 318.5572435272064 L 351.1127396823032 316.6413137680719 L 351.18656781139856 314.7253840089373 L 351.3258290457017 312.8094542498027 L 351.4785228311548 310.89352449066814 L 351.59666296281455 308.9775947315335 L 351.64513960346045 307.06166497239894 L 351.60717564866104 305.1457352132644 L 351.4819605937865 303.22980545412975 L 351.28580093030325 301.3138756949952 L 351.0421876341361 299.39794593586066 L 350.7751121418428 297.482016176726 L 350.50329995805964 295.56608641759146 L 350.2358065343247 293.6501566584569 L 349.9669080467284 291.7342268993223 L 349.68394915423414 289.8182971401877 L 349.3674212568472 287.9023673810532 L 348.9985011763362 285.9864376219186 L 348.56785775485946 284.070507862784 L 348.07003835050347 282.15457810364944 L 347.51182623557014 280.23864834451484 L 346.9037137375695 278.32271858538024 L 346.2607475712035 276.4067888262457 L 345.5916523102298 274.49085906711116 L 344.9045646763372 272.5749293079765 L 344.2012207991912 270.65899954884196 L 343.48136634079543 268.7430697897074 L 342.7495758482753 266.82714003057276 L 342.0163310516283 264.9112102714382 L 341.30123092486986 262.9952805123036 L 340.6344814437872 261.079350753169 L 340.052962274735 259.1634209940345 L 339.59431514464006 257.24749123489994 L 339.2883449610655 255.3315614757653 L 339.15302106790034 253.4156317166308 L 339.18728558987095 251.4997019574962 L 339.3696880167438 249.5837721983616 L 339.66157406065975 247.66784243922703 L 340.0130264075852 245.75191268009243 L 340.3678899789455 243.83598292095783 L 340.6741890837639 241.92005316182326 L 340.89346568584506 240.00412340268872 L 341.0003036842662 238.08819364355412 L 340.9915502344421 236.17226388441955 L 340.88072194333006 234.25633412528498 L 340.696565793793 232.34040436615044 L 340.4725478634845 230.42447460701584 L 340.2442309708578 228.50854484788124 L 340.0412383848617 226.59261508874664 L 339.87974869354997 224.67668532961204 L 339.7647335614573 222.7607555704775 L 339.6900514048325 220.84482581134296 L 339.6371964396972 218.92889605220836 L 339.58533434499867 217.01296629307376 L 339.51274563311176 215.09703653393916 L 339.39962367292384 213.18110677480462 L 339.23046241238546 211.26517701567002 L 338.99848405736736 209.34924725653553 L 338.6966878911196 207.43331749740088 L 338.3283540031022 205.51738773826634 L 337.8981914442218 203.60145797913168 L 337.4197408957749 201.68552821999714 L 336.9087313133282 199.76959846086254 L 336.39031541228 197.853668701728 L 335.8959640609107 195.93773894259334 L 335.4670395021375 194.02180918345886 L 335.15055542406304 192.10587942432426 L 334.99999999999994 190.18994966518966 L 335.06920488564515 188.27401990605512 L 335.408548138904 186.35809014692052 L 336.0560478210233 184.44216038778592 L 337.03040698012506 182.52623062865138 L 338.3245282230034 180.61030086951678 L 339.9037301462462 178.69437111038218 L 341.70625394377214 176.77844135124764 L 343.6455142922091 174.86251159211304 L 345.62328191581787 172.9465818329785 L 347.5411391292745 171.03065207384384 L 349.3095407228883 169.1147223147093 L 350.8618860233875 167.1987925555747 L 352.16031408861187 165.28286279644016 L 353.1974694976126 163.3669330373056 L 353.9951390664426 161.45100327817102 L 354.5962274284989 159.53507351903642 L 355.05842431340164 157.61914375990187 L 355.44343540310393 155.70321400076728 L 355.8076517158352 153.78728424163273 L 356.194294124328 151.87135448249813 L 356.6328521460264 149.95542472336354 L 357.13262217644683 148.03949496422894 L 357.6884124937504 146.12356520509434 L 358.28019206731614 144.2076354459598 L 358.8795132297561 142.29170568682525 L 359.4556703527482 140.37577592769065 L 359.97725374854167 138.45984616855606 L 360.4185724088336 136.54391640942146 L 360.7624345395771 134.62798665028686 L 360.99911949794813 132.71205689115232 L 361.12983630719367 130.79612713201777 L 361.16208690000684 128.88019737288317 L 361.1096201221371 126.96426761374858 L 360.98977316564304 125.04833785461398 L 360.82195702424417 123.13240809547943 L 360.6250523106782 121.21647833634484 L 360.4174815422045 119.3005485772103 L 360.2170010453347 117.38461881807575 L 360.0401216274868 115.46868905894115 L 359.9032905676016 113.55275929980655 L 359.8211638828411 111.63682954067195 L 359.80665043674827 109.72089978153736 L 359.868616776237 107.80497002240281 L 360.01092792406365 105.88904026326827 L 360.2307607818243 103.97311050413367 L 360.51697840326403 102.05718074499907 L 360.85316135532065 100.14125098586447 L 361.2181311678574 98.22532122672987 L 361.58861489060394 96.30939146759533 L 361.9426084009857 94.39346170846073 L 362.2622360178937 92.47753194932619 L 362.5360038961301 90.56160219019159 L 362.75942204321814 88.645672431057 L 362.93538050744814 86.7297426719224 L 363.07299654016435 84.81381291278785 L 363.18513840402653 82.89788315365325 L 363.286366113869 80.98195339451877 L 363.3893466728467 79.06602363538417 L 363.50419523384636 77.15009387624957 L 363.63650138168686 75.23416411711497 L 363.7859357150946 73.31823435798043 L 363.9486721706103 71.40230459884583 L 364.1171312723581 69.48637483971123 L 364.2826827993315 67.57044508057669 L 364.43699901930785 65.65451532144209 L 364.5738226365458 63.73858556230749 L 364.68878553022313 61.82265580317295 L 364.78128314624064 59.90672604403835 L 364.85185858223684 57.99079628490375 L 364.903441400523 56.07486652576915 L 364.93944806047057 54.15893676663461 L 364.963473249019 52.24300700750001 L 364.9789332202317 50.32707724836547 L 364.9882298226864 48.41114748923087 L 365.0117701773135 48.41114748923087 L 365.0210667797682 50.32707724836547 L 365.0365267509809 52.24300700750001 L 365.0605519395293 54.15893676663461 L 365.0965585994769 56.07486652576915 L 365.14814141776304 57.99079628490375 L 365.21871685375925 59.90672604403835 L 365.31121446977676 61.82265580317295 L 365.4261773634541 63.73858556230749 L 365.56300098069204 65.65451532144209 L 365.7173172006684 67.57044508057669 L 365.8828687276418 69.48637483971123 L 366.0513278293896 71.40230459884583 L 366.2140642849053 73.31823435798043 L 366.36349861831303 75.23416411711497 L 366.4958047661535 77.15009387624957 L 366.61065332715316 79.06602363538417 L 366.7136338861309 80.98195339451877 L 366.81486159597335 82.89788315365325 L 366.92700345983553 84.81381291278785 L 367.06461949255174 86.7297426719224 L 367.24057795678175 88.645672431057 L 367.46399610386976 90.56160219019159 L 367.7377639821062 92.47753194932619 L 368.0573915990142 94.39346170846073 L 368.41138510939595 96.30939146759533 L 368.7818688321425 98.22532122672987 L 369.14683864467924 100.14125098586447 L 369.48302159673585 102.05718074499907 L 369.7692392181756 103.97311050413367 L 369.98907207593624 105.88904026326827 L 370.1313832237629 107.80497002240281 L 370.1933495632516 109.72089978153736 L 370.17883611715877 111.63682954067195 L 370.0967094323983 113.55275929980655 L 369.95987837251306 115.46868905894115 L 369.7829989546652 117.38461881807575 L 369.5825184577954 119.3005485772103 L 369.3749476893217 121.21647833634484 L 369.1780429757557 123.13240809547943 L 369.01022683435684 125.04833785461398 L 368.8903798778628 126.96426761374858 L 368.83791309999305 128.88019737288317 L 368.8701636928062 130.79612713201777 L 369.00088050205176 132.71205689115232 L 369.2375654604228 134.62798665028686 L 369.5814275911663 136.54391640942146 L 370.0227462514582 138.45984616855606 L 370.5443296472517 140.37577592769065 L 371.12048677024376 142.29170568682525 L 371.71980793268375 144.2076354459598 L 372.3115875062495 146.12356520509434 L 372.86737782355306 148.03949496422894 L 373.3671478539735 149.95542472336354 L 373.8057058756719 151.87135448249813 L 374.19234828416467 153.78728424163273 L 374.55656459689595 155.70321400076728 L 374.94157568659824 157.61914375990187 L 375.403772571501 159.53507351903642 L 376.00486093355727 161.45100327817102 L 376.8025305023873 163.3669330373056 L 377.839685911388 165.28286279644016 L 379.1381139766124 167.1987925555747 L 380.6904592771116 169.1147223147093 L 382.4588608707254 171.03065207384384 L 384.376718084182 172.9465818329785 L 386.3544857077908 174.86251159211304 L 388.29374605622775 176.77844135124764 L 390.0962698537537 178.69437111038218 L 391.67547177699646 180.61030086951678 L 392.9695930198748 182.52623062865138 L 393.9439521789766 184.44216038778592 L 394.5914518610959 186.35809014692052 L 394.93079511435474 188.27401990605512 L 394.99999999999994 190.18994966518966 L 394.84944457593684 192.10587942432426 L 394.5329604978624 194.02180918345886 L 394.10403593908916 195.93773894259334 L 393.60968458771987 197.853668701728 L 393.0912686866717 199.76959846086254 L 392.580259104225 201.68552821999714 L 392.10180855577806 203.60145797913168 L 391.67164599689767 205.51738773826634 L 391.3033121088803 207.43331749740088 L 391.0015159426325 209.34924725653553 L 390.7695375876144 211.26517701567002 L 390.60037632707605 213.18110677480462 L 390.4872543668881 215.09703653393916 L 390.4146656550012 217.01296629307376 L 390.36280356030267 218.92889605220836 L 390.3099485951674 220.84482581134296 L 390.23526643854257 222.7607555704775 L 390.1202513064499 224.67668532961204 L 389.9587616151382 226.59261508874664 L 389.7557690291421 228.50854484788124 L 389.52745213651536 230.42447460701584 L 389.3034342062069 232.34040436615044 L 389.1192780566698 234.25633412528498 L 389.00844976555777 236.17226388441955 L 388.9996963157337 238.08819364355412 L 389.1065343141548 240.00412340268872 L 389.325810916236 241.92005316182326 L 389.63211002105436 243.83598292095783 L 389.9869735924147 245.75191268009243 L 390.33842593934014 247.66784243922703 L 390.6303119832561 249.5837721983616 L 390.81271441012893 251.4997019574962 L 390.84697893209955 253.4156317166308 L 390.7116550389344 255.3315614757653 L 390.4056848553598 257.24749123489994 L 389.94703772526486 259.1634209940345 L 389.3655185562127 261.079350753169 L 388.69876907513003 262.9952805123036 L 387.9836689483716 264.9112102714382 L 387.2504241517246 266.82714003057276 L 386.51863365920445 268.7430697897074 L 385.79877920080867 270.65899954884196 L 385.0954353236627 272.5749293079765 L 384.4083476897701 274.49085906711116 L 383.73925242879636 276.4067888262457 L 383.0962862624304 278.32271858538024 L 382.48817376442975 280.23864834451484 L 381.9299616494964 282.15457810364944 L 381.4321422451404 284.070507862784 L 381.00149882366367 285.9864376219186 L 380.6325787431527 287.9023673810532 L 380.31605084576574 289.8182971401877 L 380.0330919532715 291.7342268993223 L 379.7641934656752 293.6501566584569 L 379.49670004194024 295.56608641759146 L 379.2248878581571 297.482016176726 L 378.9578123658638 299.39794593586066 L 378.71419906969663 301.3138756949952 L 378.5180394062134 303.22980545412975 L 378.39282435133885 305.1457352132644 L 378.35486039653944 307.06166497239894 L 378.40333703718534 308.9775947315335 L 378.5214771688451 310.89352449066814 L 378.6741709542982 312.8094542498027 L 378.8134321886013 314.7253840089373 L 378.8872603176967 316.6413137680719 L 378.84647384873927 318.5572435272064 L 378.6522977642006 320.473173286341 L 378.2817946636378 322.38910304547557 L 377.73095747937384 324.30503280461016 L 377.0141908679979 326.2209625637447 L 376.160978400078 328.1368923228793 L 375.21086828429367 330.0528220820139 L 374.2122978168179 331.96875184114845 L 373.2128930777518 333.884681600283 L 372.25761798157447 335.8006113594176 L 371.38576761915374 337.7165411185522 L 370.6264858651303 339.6324708776868 L 369.9955653454222 341.5484006368213 L 369.4984123512805 343.4643303959559 L 369.1270964719434 345.3802601550905 L 368.86371174415865 347.29618991422507 L 368.682763077042 349.21211967335967 L 368.5558949322152 351.12804943249427 L 368.4560593721834 353.04397919162886 L 368.35930738569317 354.9599089507634 L 368.25072323047954 356.875838709898 L 368.1208948183607 358.7917684690326 L 367.9680926711326 360.70769822816715 L 367.79658024505045 362.62362798730175 L 367.6135252297505 364.5395577464363 L 367.42738643679985 366.4554875055709 L 367.2461144747195 368.3714172647054 L 367.0768631739854 370.28734702384 L 366.9233678308812 372.2032767829746 L 366.78734622454647 374.11920654210917 L 366.6685505151709 376.03513630124377 L 366.5641195479172 377.95106606037837 L 366.471287310454 379.8669958195129 L 366.3868178187393 381.7829255786475 L 366.3084122548078 383.69885533778205 L 366.2348134270826 385.61478509691665 L 366.1657261190566 387.53071485605125 L 366.1012604937381 389.44664461518585 L 366.0416189826589 391.3625743743204 L 365.9860459434946 393.278504133455 L 365.93345374051535 395.1944338925896 L 365.88065927140036 397.11036365172413 L 365.82472677562606 399.0262934108587 L 365.7630215605579 400.94222316999327 L 365.69383402970885 402.85815292912787 L 365.61745138013254 404.7740826882624 L 365.5356700312438 406.690012447397 L 365.45138374221614 408.6059422065316 L 365.3684868455319 410.52187196566615 L 365.2908393245362 412.43780172480075 L 365.2216043506416 414.35373148393535 L 365.162704273278 416.2696612430699 L 365.11520741352916 418.1855910022045 L 365.0785388817536 420.10152076133903 L 365.0515269785634 422.01745052047363 L 365.0325236550225 423.93338027960823 L 365.0196594615383 425.8493100387428 L 365.0114926497028 427.76523979787737 L 365.006458385089 429.68116955701197 Z" stroke="black" stroke-width="0.5" fill="steelblue" /></svg>