<svg xmlns="http://www.w3.org/2000/svg" width="679" height="541" fill="black"><rect width="100%" height="100%" fill="white" /><line x1="65" y1="492" x2="665" y2="492" stroke="black" stroke-width="1" /><line x1="65" y1="42" x2="65" y2="492" stroke="black" stroke-width="1" /><line x1="65" y1="379.5" x2="665" y2="379.5" stroke="#ccc" stroke-width="1" /><line x1="65" y1="267" x2="665" y2="267" stroke="#ccc" stroke-width="1" /><line x1="65" y1="154.5" x2="665" y2="154.5" stroke="#ccc" stroke-width="1" /><line x1="65" y1="42" x2="665" y2="42" stroke="#ccc" stroke-width="1" /><text x="364.99999999999994" y="507" font-size="10" text-anchor="middle"></text><line x1="364.99999999999994" y1="492" x2="364.99999999999994" y2="497" stroke="black" stroke-width="1" /><line x1="60" y1="492" x2="65" y2="492" stroke="black" stroke-width="1" /><text x="57" y="495.5" font-size="10" text-anchor="end">-4</text><line x1="60" y1="379.5" x2="65" y2="379.5" stroke="black" stroke-width="1" /><text x="57" y="383" font-size="10" text-anchor="end">-2</text><line x1="60" y1="267" x2="65" y2="267" stroke="black" stroke-width="1" /><text x="57" y="270.5" font-size="10" text-anchor="end">0</text><line x1="60" y1="154.5" x2="65" y2="154.5" stroke="black" stroke-width="1" /><text x="57" y="158" font-size="10" text-anchor="end">2</text><line x1="60" y1="42" x2="65" y2="42" stroke="black" stroke-width="1" /><text x="57" y="45.5" font-size="10" text-anchor="end">4</text><text x="339.5" y="21" font-size="16" text-anchor="middle">Auto (Silverman)</text><path d="M 364.995796238484 457.52833550682897 L 364.99391393357695 455.6503159410089 L 364.99131863992517 453.77229637518883 L 364.987798385895 451.89427680936876 L 364.98292840355043 450.0162572435487 L 364.9766575862249 448.1382376777286 L 364.9685351314914 446.2602181119085 L 364.95818112307416 444.38219854608843 L 364.9451914373563 442.50417898026836 L 364.92899544340446 440.6261594144483 L 364.90923020657226 438.74813984862817 L 364.885657925252 436.8701202828081 L 364.85781394090054 434.99210071698803 L 364.82540947711715 433.11408115116797 L 364.78794386938836 431.2360615853479 L 364.7455817579481 429.35804201952783 L 364.69821305849695 427.4800224537077 L 364.6460035584382 425.60200288788764 L 364.58903444005813 423.72398332206757 L 364.5275400620832 421.8459637562475 L 364.46180438006826 419.96794419042743 L 364.3921321602087 418.0899246246073 L 364.31863759513755 416.21190505878724 L 364.2415569638911 414.33388549296717 L 364.16116756686375 412.4558659271471 L 364.07747847119225 410.57784636132703 L 363.99016365981805 408.69982679550697 L 363.8993193706 406.8218072296869 L 363.8042423240951 404.94378766386683 L 363.7044366182285 403.0657680980467 L 363.59974733903357 401.18774853222664 L 363.48937031130663 399.30972896640657 L 363.37215181651356 397.4317094005865 L 363.24844967063905 395.55368983476643 L 363.1167745448866 393.6756702689463 L 362.9766406900803 391.79765070312624 L 362.8271157136366 389.91963113730617 L 362.6670707124401 388.0416115714861 L 362.49548214149416 386.16359200566603 L 362.3107571016635 384.2855724398459 L 362.1109841628329 382.40755287402584 L 361.89346892401517 380.52953330820577 L 361.65621398215467 378.6515137423857 L 361.396135039953 376.77349417656563 L 361.1096023954153 374.8954746107455 L 360.7938143664823 373.01745504492544 L 360.4453392983957 371.1394354791054 L 360.06118138994054 369.2614159132853 L 359.6398157604264 367.38339634746524 L 359.1797652922058 365.5053767816451 L 358.6817200271917 363.62735721582504 L 358.14793701698846 361.749337650005 L 357.5826028896888 359.8713180841849 L 356.99025188704576 357.9932985183648 L 356.3781816302035 356.1152789525447 L 355.75514864260145 354.23725938672465 L 355.13047788711884 352.3592398209046 L 354.5133741019577 350.4812202550845 L 353.91201581392284 348.60320068926444 L 353.3346492224808 346.7251811234444 L 352.7889583582522 344.8471615576243 L 352.27876361730483 342.96914199180424 L 351.807544346587 341.0911224259841 L 351.3751739350159 339.21310286016404 L 350.9801803879328 337.335083294344 L 350.61826136870974 335.4570637285239 L 350.2842809763641 333.5790441627038 L 349.970565521911 331.7010245968837 L 349.6703685570057 329.82300503106364 L 349.3751460316254 327.9449854652436 L 349.0770111656754 326.0669658994235 L 348.7685346839802 324.18894633360344 L 348.44255912062977 322.31092676778337 L 348.09388306920533 320.4329072019633 L 347.7179490548975 318.55488763614323 L 347.3115604840425 316.6768680703231 L 346.87273549613053 314.798848504503 L 346.40131503075116 312.9208289386829 L 345.89808134818287 311.04280937286285 L 345.3654694869899 309.1647898070428 L 344.80748872908686 307.2867702412227 L 344.22862612719763 305.40875067540264 L 343.63550507687717 303.5307311095826 L 343.03513377328716 301.6527115437625 L 342.43549883523866 299.77469197794244 L 341.8454517347205 297.8966724121223 L 341.2733020809708 296.01865284630225 L 340.7274077138985 294.1406332804822 L 340.2157990921304 292.26261371466205 L 339.7440662121173 290.384594148842 L 339.3186601388198 288.5065745830219 L 338.9418631297502 286.62855501720185 L 338.61609163930956 284.7505354513818 L 338.33980284253914 282.8725158855617 L 338.11116386804287 280.99449631974164 L 337.92473087616287 279.1164767539216 L 337.7756946931067 277.2384571881015 L 337.657582018437 275.3604376222814 L 337.56186837534096 273.48241805646126 L 337.4821880443761 271.6043984906412 L 337.4103985752988 269.7263789248211 L 337.3401863176164 267.84835935900105 L 337.26548355696 265.970339793181 L 337.18164009150473 264.0923202273609 L 337.08468606874345 262.21430066154085 L 336.97251932088375 260.3362810957208 L 336.8425256716005 258.4582615299007 L 336.6944580674187 256.58024196408064 L 336.5293401930932 254.70222239826052 L 336.34833467400176 252.82420283244045 L 336.1548646107474 250.94618326662038 L 335.95327097590416 249.06816370080028 L 335.74878717270695 247.19014413498022 L 335.5491441612771 245.31212456916015 L 335.3639414125805 243.43410500334005 L 335.20304311837737 241.55608543751998 L 335.079400647413 239.6780658716999 L 335.0069983366883 237.80004630587985 L 334.99999999999994 235.92202674005972 L 335.0720422854512 234.04400717423965 L 335.23775417800505 232.16598760841953 L 335.50852109719085 230.28796804259946 L 335.8945333550515 228.4099484767794 L 336.4024211595771 226.53192891095932 L 337.0334986578498 224.65390934513925 L 337.7869231448095 222.7758897793192 L 338.6556994418976 220.89787021349906 L 339.62942764541253 219.019850647679 L 340.69430610776817 217.14183108185892 L 341.83237477461694 215.26381151603886 L 343.0246004556494 213.3857919502188 L 344.2501958693739 211.50777238439872 L 345.4883223253609 209.62975281857865 L 346.7201330875967 207.75173325275853 L 347.92758009460647 205.87371368693846 L 349.0964763318342 203.9956941211184 L 350.2148448432757 202.11767455529832 L 351.27336799169365 200.23965498947825 L 352.266023912025 198.36163542365819 L 353.18945215553333 196.48361585783806 L 354.0433849574107 194.605596292018 L 354.82717653760665 192.72757672619792 L 355.542813791491 190.84955716037786 L 356.1917105622105 188.9715375945578 L 356.7765407345337 187.09351802873772 L 357.2997819539086 185.21549846291765 L 357.76339628663743 183.33747889709753 L 358.1703875111556 181.45945933127746 L 358.5227194832123 179.5814397654574 L 358.8239198757508 177.70342019963732 L 359.0780968460051 175.82540063381725 L 359.28894235668776 173.94738106799718 L 359.4625438577302 172.06936150217706 L 359.6046561985407 170.191341936357 L 359.7219295291791 168.31332237053692 L 359.8211290534755 166.43530280471686 L 359.91001737173076 164.5572832388968 L 359.99535085548945 162.67926367307672 L 360.0835167687751 160.8012441072566 L 360.17972144758767 158.92322454143653 L 360.2884906026175 157.04520497561646 L 360.41309877330434 155.1671854097964 L 360.5552887053906 153.28916584397632 L 360.71503757408556 151.41114627815625 L 360.89207726436075 149.53312671233618 L 361.0848581306182 147.65510714651606 L 361.29055395867124 145.777087580696 L 361.5058896492114 143.89906801487592 L 361.7279269491454 142.02104844905585 L 361.9533549584881 140.1430288832358 L 362.1787215656452 138.26500931741572 L 362.40200397075677 136.3869897515956 L 362.61989573882363 134.50897018577552 L 362.8315313354855 132.63095061995546 L 363.034748562093 130.7529310541354 L 363.22876219218693 128.87491148831532 L 363.4131152335439 126.99689192249525 L 363.5871874036862 125.11887235667518 L 363.75046174736207 123.24085279085506 L 363.9027543110963 121.36283322503499 L 364.04398923751825 119.48481365921492 L 364.17402434323196 117.60679409339485 L 364.2927827700217 115.72877452757479 L 364.400357376861 113.85075496175472 L 364.4967163912531 111.97273539593459 L 364.5820365829906 110.09471583011452 L 364.6567949427609 108.21669626429446 L 364.72170828503755 106.33867669847439 L 364.77695125636717 104.46065713265432 L 364.82337802638153 102.58263756683425 L 364.86194744040216 100.70461800101413 L 364.89359318217134 98.82659843519406 L 364.9191031148016 96.94857886937399 L 364.93934590573105 95.07055930355381 L 364.95517636485215 93.19253973773374 L 364.96743948324456 91.31452017191367 L 364.9766274352511 89.4365006060936 L 364.983398096498 87.55848104027353 L 364.9884574748279 85.68046147445341 L 364.99203472693955 83.80244190863334 L 365.00796527306034 83.80244190863334 L 365.011542525172 85.68046147445341 L 365.0166019035019 87.55848104027353 L 365.0233725647488 89.4365006060936 L 365.0325605167553 91.31452017191367 L 365.04482363514774 93.19253973773374 L 365.06065409426884 95.07055930355381 L 365.0808968851983 96.94857886937399 L 365.10640681782854 98.82659843519406 L 365.1380525595977 100.70461800101413 L 365.17662197361835 102.58263756683425 L 365.2230487436327 104.46065713265432 L 365.27829171496234 106.33867669847439 L 365.343205057239 108.21669626429446 L 365.4179634170093 110.09471583011452 L 365.5032836087468 111.97273539593459 L 365.5996426231389 113.85075496175472 L 365.7072172299782 115.72877452757479 L 365.8259756567679 117.60679409339485 L 365.95601076248164 119.48481365921492 L 366.09724568890357 121.36283322503499 L 366.2495382526378 123.24085279085506 L 366.4128125963137 125.11887235667518 L 366.58688476645597 126.99689192249525 L 366.77123780781295 128.87491148831532 L 366.9652514379069 130.7529310541354 L 367.16846866451436 132.63095061995546 L 367.38010426117626 134.50897018577552 L 367.5979960292431 136.3869897515956 L 367.82127843435467 138.26500931741572 L 368.0466450415118 140.1430288832358 L 368.2720730508545 142.02104844905585 L 368.4941103507885 143.89906801487592 L 368.70944604132865 145.777087580696 L 368.91514186938167 147.65510714651606 L 369.10792273563914 149.53312671233618 L 369.28496242591433 151.41114627815625 L 369.4447112946093 153.28916584397632 L 369.58690122669555 155.1671854097964 L 369.7115093973824 157.04520497561646 L 369.8202785524122 158.92322454143653 L 369.9164832312248 160.8012441072566 L 370.00464914451044 162.67926367307672 L 370.0899826282691 164.5572832388968 L 370.1788709465244 166.43530280471686 L 370.2780704708208 168.31332237053692 L 370.3953438014592 170.191341936357 L 370.53745614226966 172.06936150217706 L 370.71105764331213 173.94738106799718 L 370.9219031539948 175.82540063381725 L 371.1760801242491 177.70342019963732 L 371.4772805167876 179.5814397654574 L 371.8296124888443 181.45945933127746 L 372.23660371336246 183.33747889709753 L 372.70021804609127 185.21549846291765 L 373.2234592654662 187.09351802873772 L 373.80828943778937 188.9715375945578 L 374.45718620850886 190.84955716037786 L 375.17282346239324 192.72757672619792 L 375.9566150425892 194.605596292018 L 376.81054784446656 196.48361585783806 L 377.7339760879749 198.36163542365819 L 378.72663200830624 200.23965498947825 L 379.78515515672416 202.11767455529832 L 380.9035236681657 203.9956941211184 L 382.0724199053934 205.87371368693846 L 383.2798669124032 207.75173325275853 L 384.511677674639 209.62975281857865 L 385.749804130626 211.50777238439872 L 386.97539954435047 213.3857919502188 L 388.16762522538295 215.26381151603886 L 389.3056938922317 217.14183108185892 L 390.37057235458735 219.019850647679 L 391.3443005581023 220.89787021349906 L 392.21307685519037 222.7758897793192 L 392.9665013421501 224.65390934513925 L 393.5975788404228 226.53192891095932 L 394.10546664494836 228.4099484767794 L 394.49147890280904 230.28796804259946 L 394.76224582199484 232.16598760841953 L 394.9279577145487 234.04400717423965 L 394.99999999999994 235.92202674005972 L 394.9930016633116 237.80004630587985 L 394.92059935258686 239.6780658716999 L 394.7969568816225 241.55608543751998 L 394.63605858741937 243.43410500334005 L 394.45085583872276 245.31212456916015 L 394.25121282729293 247.19014413498022 L 394.0467290240957 249.06816370080028 L 393.8451353892525 250.94618326662038 L 393.6516653259981 252.82420283244045 L 393.47065980690667 254.70222239826052 L 393.3055419325812 256.58024196408064 L 393.15747432839936 258.4582615299007 L 393.02748067911614 260.3362810957208 L 392.91531393125643 262.21430066154085 L 392.81835990849515 264.0923202273609 L 392.73451644303987 265.970339793181 L 392.65981368238346 267.84835935900105 L 392.5896014247011 269.7263789248211 L 392.5178119556238 271.6043984906412 L 392.4381316246589 273.48241805646126 L 392.3424179815629 275.3604376222814 L 392.2243053068932 277.2384571881015 L 392.075269123837 279.1164767539216 L 391.888836131957 280.99449631974164 L 391.66019715746074 282.8725158855617 L 391.3839083606903 284.7505354513818 L 391.0581368702497 286.62855501720185 L 390.6813398611801 288.5065745830219 L 390.2559337878826 290.384594148842 L 389.7842009078695 292.26261371466205 L 389.27259228610137 294.1406332804822 L 388.7266979190291 296.01865284630225 L 388.1545482652794 297.8966724121223 L 387.5645011647612 299.77469197794244 L 386.96486622671273 301.6527115437625 L 386.3644949231227 303.5307311095826 L 385.77137387280226 305.40875067540264 L 385.19251127091303 307.2867702412227 L 384.63453051300996 309.1647898070428 L 384.101918651817 311.04280937286285 L 383.5986849692487 312.9208289386829 L 383.12726450386936 314.798848504503 L 382.6884395159574 316.6768680703231 L 382.2820509451024 318.55488763614323 L 381.90611693079455 320.4329072019633 L 381.5574408793701 322.31092676778337 L 381.2314653160197 324.18894633360344 L 380.9229888343245 326.0669658994235 L 380.6248539683745 327.9449854652436 L 380.3296314429942 329.82300503106364 L 380.0294344780889 331.7010245968837 L 379.7157190236358 333.5790441627038 L 379.38173863129015 335.4570637285239 L 379.01981961206707 337.335083294344 L 378.624826064984 339.21310286016404 L 378.1924556534129 341.0911224259841 L 377.72123638269505 342.96914199180424 L 377.21104164174767 344.8471615576243 L 376.6653507775191 346.7251811234444 L 376.08798418607705 348.60320068926444 L 375.4866258980422 350.4812202550845 L 374.86952211288104 352.3592398209046 L 374.24485135739843 354.23725938672465 L 373.62181836979636 356.1152789525447 L 373.0097481129541 357.9932985183648 L 372.4173971103111 359.8713180841849 L 371.8520629830114 361.749337650005 L 371.31827997280817 363.62735721582504 L 370.8202347077941 365.5053767816451 L 370.36018423957347 367.38339634746524 L 369.93881861005934 369.2614159132853 L 369.5546607016042 371.1394354791054 L 369.2061856335176 373.01745504492544 L 368.89039760458456 374.8954746107455 L 368.6038649600469 376.77349417656563 L 368.3437860178452 378.6515137423857 L 368.1065310759847 380.52953330820577 L 367.889015837167 382.40755287402584 L 367.6892428983364 384.2855724398459 L 367.5045178585057 386.16359200566603 L 367.3329292875598 388.0416115714861 L 367.1728842863633 389.91963113730617 L 367.0233593099196 391.79765070312624 L 366.8832254551133 393.6756702689463 L 366.75155032936084 395.55368983476643 L 366.6278481834863 397.4317094005865 L 366.51062968869326 399.30972896640657 L 366.4002526609663 401.18774853222664 L 366.2955633817714 403.0657680980467 L 366.19575767590476 404.94378766386683 L 366.1006806293999 406.8218072296869 L 366.00983634018183 408.69982679550697 L 365.92252152880764 410.57784636132703 L 365.83883243313613 412.4558659271471 L 365.75844303610876 414.33388549296717 L 365.68136240486234 416.21190505878724 L 365.6078678397912 418.0899246246073 L 365.5381956199316 419.96794419042743 L 365.4724599379167 421.8459637562475 L 365.41096555994176 423.72398332206757 L 365.35399644156166 425.60200288788764 L 365.30178694150294 427.4800224537077 L 365.25441824205177 429.35804201952783 L 365.21205613061153 431.2360615853479 L 365.17459052288274 433.11408115116797 L 365.14218605909934 434.99210071698803 L 365.11434207474787 436.8701202828081 L 365.0907697934276 438.74813984862817 L 365.0710045565954 440.6261594144483 L 365.0548085626436 442.50417898026836 L 365.04181887692573 444.38219854608843 L 365.03146486850846 446.2602181119085 L 365.02334241377497 448.1382376777286 L 365.01707159644945 450.0162572435487 L 365.01220161410487 451.89427680936876 L 365.0086813600747 453.77229637518883 L 365.00608606642294 455.6503159410089 L 365.0042037615159 457.52833550682897 Z" stroke="black" stroke-width="0.5" fill="steelblue" /></svg>