<svg xmlns="http://www.w3.org/2000/svg" width="679" height="541" fill="black"><rect width="100%" height="100%" fill="white" /><line x1="65" y1="492" x2="665" y2="492" stroke="black" stroke-width="1" /><line x1="65" y1="42" x2="65" y2="492" stroke="black" stroke-width="1" /><line x1="65" y1="379.5" x2="665" y2="379.5" stroke="#ccc" stroke-width="1" /><line x1="65" y1="267" x2="665" y2="267" stroke="#ccc" stroke-width="1" /><line x1="65" y1="154.5" x2="665" y2="154.5" stroke="#ccc" stroke-width="1" /><line x1="65" y1="42" x2="665" y2="42" stroke="#ccc" stroke-width="1" /><text x="364.99999999999994" y="507" font-size="10" text-anchor="middle"></text><line x1="364.99999999999994" y1="492" x2="364.99999999999994" y2="497" stroke="black" stroke-width="1" /><line x1="60" y1="492" x2="65" y2="492" stroke="black" stroke-width="1" /><text x="57" y="495.5" font-size="10" text-anchor="end">-10</text><line x1="60" y1="379.5" x2="65" y2="379.5" stroke="black" stroke-width="1" /><text x="57" y="383" font-size="10" text-anchor="end">-5</text><line x1="60" y1="267" x2="65" y2="267" stroke="black" stroke-width="1" /><text x="57" y="270.5" font-size="10" text-anchor="end">0</text><line x1="60" y1="154.5" x2="65" y2="154.5" stroke="black" stroke-width="1" /><text x="57" y="158" font-size="10" text-anchor="end">5</text><line x1="60" y1="42" x2="65" y2="42" stroke="black" stroke-width="1" /><text x="57" y="45.5" font-size="10" text-anchor="end">10</text><text x="339.5" y="21" font-size="16" text-anchor="middle">Wide (h = 2.0)</text><path d="M 364.98771123647685 460.06340934495415 L 364.9853043964341 458.1378088036289 L 364.98280629205925 456.21220826230365 L 364.9795058098452 454.28660772097845 L 364.9758687518243 452.3610071796532 L 364.97173913123663 450.435406638328 L 364.96705158248943 448.50980609700275 L 364.96181949709137 446.5842055556775 L 364.95558605473013 444.65860501435225 L 364.94859977489455 442.733004473027 L 364.9407366567721 440.80740393170174 L 364.93172949546886 438.8818033903765 L 364.9214573709596 436.95620284905124 L 364.90992086828277 435.030602307726 L 364.89692930067883 433.10500176640073 L 364.8820812638455 431.17940122507554 L 364.8654160197415 429.2538006837503 L 364.8466354133014 427.32820014242503 L 364.82567616690056 425.4025996010998 L 364.80256689181107 423.4769990597746 L 364.7767034234515 421.55139851844933 L 364.7478945382846 419.6257979771241 L 364.71561479978686 417.7001974357988 L 364.6799186702823 415.7745968944736 L 364.64022623023715 413.8489963531483 L 364.59640943284325 411.92339581182307 L 364.5479166221741 409.9977952704978 L 364.4943751795284 408.0721947291726 L 364.4352908444643 406.14659418784737 L 364.3703580110977 404.2209936465221 L 364.2989961289089 402.29539310519687 L 364.2206661923543 400.3697925638716 L 364.1350405433466 398.4441920225464 L 364.04151831807656 396.51859148122116 L 363.9394654469049 394.5929909398959 L 363.82838368634026 392.66739039857066 L 363.70755998720796 390.7417898572454 L 363.5765346266732 388.81618931592016 L 363.43461427551057 386.8905887745949 L 363.2811642947467 384.9649882332697 L 363.1155419376074 383.03938769194446 L 362.93709957047207 381.1137871506192 L 362.7451882402956 379.188186609294 L 362.5391615882148 377.26258606796875 L 362.3183801052984 375.3369855266435 L 362.0822157223482 373.41138498531825 L 361.83005672133834 371.485784443993 L 361.5613129515176 369.56018390266775 L 361.27542132845804 367.6345833613425 L 360.9718515894311 365.70898282001724 L 360.65011227351505 363.783382278692 L 360.30975688981937 361.8577817373668 L 359.9503902322358 359.9321811960415 L 359.5716747942551 358.0065806547163 L 359.17333723269815 356.08098011339104 L 358.75517482478114 354.15537957206584 L 358.3170618588426 352.2297790307406 L 357.85895589539047 350.30417848941534 L 357.3809038319564 348.3785779480901 L 356.8830477026538 346.45297740676483 L 356.36563014140154 344.5273768654396 L 355.8289994365651 342.6017763241143 L 355.2736141043514 340.6761757827891 L 354.7000469087249 338.7505752414638 L 354.10898825694494 336.8249747001386 L 353.50124890209116 334.8993741588133 L 352.87776188717885 332.9737736174882 L 352.239583669675 331.04817307616287 L 351.58789437041764 329.1225725348377 L 350.9239970970963 327.1969719935124 L 350.2493162995429 325.27137145218717 L 349.56539512206655 323.3457709108619 L 348.8738917268775 321.42017036953666 L 348.1765745722179 319.4945698282114 L 347.4753166390465 317.56896928688616 L 346.7720886109207 315.64336874556096 L 346.0689510229453 313.71776820423565 L 345.36804540720277 311.7921676629104 L 344.6715844737841 309.8665671215852 L 343.9818413782644 307.94096658026 L 343.30113813805184 306.0153660389347 L 342.6318332713225 304.0897654976095 L 341.9763087430701 302.16416495628425 L 341.3369563129947 300.238564414959 L 340.7161633893563 298.31296387363375 L 340.1162985013883 296.3873633323085 L 339.53969651024624 294.46176279098324 L 338.98864368463484 292.536162249658 L 338.46536277208367 290.6105617083328 L 337.97199820023735 288.6849611670075 L 337.5106015443929 286.75936062568235 L 337.0831173978023 284.83376008435704 L 336.6913697799149 282.90815954303184 L 336.3370492147452 280.9825590017066 L 336.0217006069218 279.05695846038134 L 335.7467120367384 277.1313579190561 L 335.5133045877317 275.20575737773083 L 335.32252331104655 273.2801568364056 L 335.17522942020963 271.35455629508033 L 335.07209379804385 269.4289557537551 L 335.0135918844686 267.5033552124298 L 334.99999999999994 265.5777546711046 L 335.0313931450767 263.6521541297794 L 335.1076443000803 261.7265535884542 L 335.22842523529005 259.8009530471289 L 335.39320882423556 257.8753525058036 L 335.6012728381781 255.94975196447837 L 335.8517051839885 254.0241514231532 L 336.14341053270374 252.09855088182795 L 336.4751182717268 250.17295034050267 L 336.8453917001879 248.2473497991774 L 337.25263837457777 246.3217492578522 L 337.6951215005613 244.39614871652694 L 338.17097225702287 242.4705481752017 L 338.6782029299984 240.54494763387646 L 339.2147207273224 238.6193470925512 L 339.7783421396214 236.69374655122598 L 340.3668077097726 234.76814600990076 L 340.9777970711416 232.84254546857545 L 341.6089441148022 230.91694492725026 L 342.2578521475093 228.991344385925 L 342.9221089053713 227.0657438445998 L 343.5993012928933 225.1401433032745 L 344.2870297232167 223.21454276194925 L 344.98292194286927 221.288942220624 L 345.6846462330062 219.3633416792988 L 346.38992388883383 217.43774113797355 L 347.096540889496 215.5121405966483 L 347.8023586819976 213.58654005532304 L 348.5053240145736 211.6609395139978 L 349.2034777670986 209.7353389726726 L 349.8949627385059 207.80973843134728 L 350.5780303635634 205.8841378900221 L 351.2510463435779 203.95853734869684 L 351.91249518750783 202.03293680737164 L 352.5609836714107 200.10733626604633 L 353.1952432350062 198.18173572472108 L 353.8141313442702 196.25613518339583 L 354.4166318583008 194.33053464207063 L 355.0018544471128 192.40493410074538 L 355.5690331144657 190.47933355942013 L 356.1175238862536 188.55373301809487 L 356.6468017303585 186.62813247676962 L 357.1564567781646 184.70253193544443 L 357.64618992116453 182.77693139411917 L 358.11580785826567 180.85133085279392 L 358.56521767056523 178.92573031146867 L 358.9944210005439 177.00012977014347 L 359.4035079118958 175.07452922881816 L 359.79265050462504 173.1489286874929 L 360.1620963576781 171.22332814616772 L 360.5121618683257 169.29772760484246 L 360.8432255538441 167.3721270635172 L 361.155721376867 165.44652652219196 L 361.45013215117166 163.5209259808667 L 361.72698307972416 161.5953254395415 L 361.986835471621 159.66972489821626 L 362.23028067922263 157.744124356891 L 362.4579342913522 155.81852381556575 L 362.6704306130156 153.8929232742405 L 362.86841745675304 151.9673227329153 L 363.05255126552197 150.04172219159 L 363.22349258199904 148.1161216502648 L 363.38190187441637 146.19052110893955 L 363.5284702242964 144.26492056761435 L 363.66377240312164 142.33932002628904 L 363.7884880363205 140.4137194849638 L 363.90327598808716 138.48811894363854 L 364.00867437486806 136.56251840231334 L 364.1053462780286 134.6369178609881 L 364.193797316686 132.71131731966284 L 364.274681130418 130.7857167783376 L 364.34842606742814 128.8601162370124 L 364.4156374387142 126.93451569568714 L 364.47662443952515 125.00891515436189 L 364.53200411713806 123.08331461303658 L 364.5822380315411 121.15771407171138 L 364.62765794064154 119.23211353038619 L 364.6687962816482 117.30651298906088 L 364.70581982612833 115.38091244773557 L 364.7391525293841 113.45531190641037 L 364.76895474728286 111.52971136508518 L 364.7956732057421 109.60411082375998 L 364.8197945617782 107.67851028243467 L 364.84123629577823 105.75290974110936 L 364.86029979534317 103.82730919978417 L 364.87745332721306 101.90170865845897 L 364.8925131767086 99.97610811713378 L 364.90611946484927 98.05050757580835 L 364.91796211910975 96.12490703448316 L 364.92875000601293 94.19930649315802 L 364.938158817326 92.27370595183277 L 364.94641550034896 90.34810541050757 L 364.95364343292465 88.42250486918215 L 364.9599663921231 86.49690432785701 L 364.9656949996133 84.57130378653176 L 364.97052608649835 82.64570324520656 L 364.97481603294943 80.72010270388137 L 364.97848482429066 78.794502162556 L 364.98182276735594 76.8689016212308 L 365.01817723264395 76.8689016212308 L 365.0215151757092 78.794502162556 L 365.02518396705045 80.72010270388137 L 365.02947391350153 82.64570324520656 L 365.0343050003866 84.57130378653176 L 365.0400336078768 86.49690432785701 L 365.04635656707524 88.42250486918215 L 365.0535844996509 90.34810541050757 L 365.0618411826739 92.27370595183277 L 365.07124999398695 94.19930649315802 L 365.08203788089014 96.12490703448316 L 365.0938805351506 98.05050757580835 L 365.1074868232913 99.97610811713378 L 365.1225466727868 101.90170865845897 L 365.1397002046567 103.82730919978417 L 365.15876370422166 105.75290974110936 L 365.18020543822166 107.67851028243467 L 365.2043267942578 109.60411082375998 L 365.231045252717 111.52971136508518 L 365.2608474706158 113.45531190641037 L 365.29418017387155 115.38091244773557 L 365.3312037183517 117.30651298906088 L 365.37234205935835 119.23211353038619 L 365.41776196845876 121.15771407171138 L 365.4679958828618 123.08331461303658 L 365.52337556047473 125.00891515436189 L 365.5843625612857 126.93451569568714 L 365.65157393257175 128.8601162370124 L 365.7253188695819 130.7857167783376 L 365.80620268331387 132.71131731966284 L 365.8946537219713 134.6369178609881 L 365.9913256251318 136.56251840231334 L 366.0967240119127 138.48811894363854 L 366.2115119636794 140.4137194849638 L 366.33622759687825 142.33932002628904 L 366.47152977570346 144.26492056761435 L 366.6180981255835 146.19052110893955 L 366.77650741800085 148.1161216502648 L 366.9474487344779 150.04172219159 L 367.13158254324685 151.9673227329153 L 367.3295693869843 153.8929232742405 L 367.54206570864767 155.81852381556575 L 367.76971932077726 157.744124356891 L 368.01316452837887 159.66972489821626 L 368.2730169202757 161.5953254395415 L 368.5498678488282 163.5209259808667 L 368.8442786231329 165.44652652219196 L 369.1567744461558 167.3721270635172 L 369.4878381316742 169.29772760484246 L 369.8379036423218 171.22332814616772 L 370.20734949537484 173.1489286874929 L 370.59649208810407 175.07452922881816 L 371.00557899945596 177.00012977014347 L 371.43478232943465 178.92573031146867 L 371.8841921417342 180.85133085279392 L 372.35381007883535 182.77693139411917 L 372.84354322183526 184.70253193544443 L 373.3531982696414 186.62813247676962 L 373.8824761137463 188.55373301809487 L 374.4309668855342 190.47933355942013 L 374.9981455528871 192.40493410074538 L 375.5833681416991 194.33053464207063 L 376.1858686557297 196.25613518339583 L 376.80475676499367 198.18173572472108 L 377.43901632858916 200.10733626604633 L 378.08750481249206 202.03293680737164 L 378.748953656422 203.95853734869684 L 379.4219696364365 205.8841378900221 L 380.105037261494 207.80973843134728 L 380.7965222329013 209.7353389726726 L 381.4946759854263 211.6609395139978 L 382.1976413180023 213.58654005532304 L 382.9034591105039 215.5121405966483 L 383.61007611116605 217.43774113797355 L 384.31535376699367 219.3633416792988 L 385.0170780571306 221.288942220624 L 385.7129702767832 223.21454276194925 L 386.4006987071066 225.1401433032745 L 387.07789109462857 227.0657438445998 L 387.7421478524906 228.991344385925 L 388.39105588519766 230.91694492725026 L 389.0222029288583 232.84254546857545 L 389.63319229022727 234.76814600990076 L 390.2216578603785 236.69374655122598 L 390.7852792726775 238.6193470925512 L 391.3217970700015 240.54494763387646 L 391.829027742977 242.4705481752017 L 392.3048784994386 244.39614871652694 L 392.7473616254221 246.3217492578522 L 393.15460829981197 248.2473497991774 L 393.5248817282731 250.17295034050267 L 393.85658946729615 252.09855088182795 L 394.1482948160114 254.0241514231532 L 394.3987271618218 255.94975196447837 L 394.60679117576433 257.8753525058036 L 394.77157476470984 259.8009530471289 L 394.89235569991956 261.7265535884542 L 394.96860685492317 263.6521541297794 L 394.99999999999994 265.5777546711046 L 394.9864081155313 267.5033552124298 L 394.92790620195603 269.4289557537551 L 394.82477057979025 271.35455629508033 L 394.67747668895333 273.2801568364056 L 394.4866954122682 275.20575737773083 L 394.25328796326147 277.1313579190561 L 393.9782993930781 279.05695846038134 L 393.6629507852547 280.9825590017066 L 393.308630220085 282.90815954303184 L 392.9168826021976 284.83376008435704 L 392.489398455607 286.75936062568235 L 392.02800179976254 288.6849611670075 L 391.5346372279162 290.6105617083328 L 391.01135631536505 292.536162249658 L 390.46030348975364 294.46176279098324 L 389.8837014986116 296.3873633323085 L 389.28383661064356 298.31296387363375 L 388.6630436870052 300.238564414959 L 388.0236912569298 302.16416495628425 L 387.3681667286774 304.0897654976095 L 386.69886186194805 306.0153660389347 L 386.0181586217355 307.94096658026 L 385.3284155262158 309.8665671215852 L 384.6319545927971 311.7921676629104 L 383.93104897705456 313.71776820423565 L 383.22791138907917 315.64336874556096 L 382.52468336095336 317.56896928688616 L 381.823425427782 319.4945698282114 L 381.1261082731224 321.42017036953666 L 380.43460487793334 323.3457709108619 L 379.750683700457 325.27137145218717 L 379.0760029029036 327.1969719935124 L 378.41210562958224 329.1225725348377 L 377.76041633032486 331.04817307616287 L 377.12223811282104 332.9737736174882 L 376.4987510979087 334.8993741588133 L 375.89101174305495 336.8249747001386 L 375.299953091275 338.7505752414638 L 374.7263858956485 340.6761757827891 L 374.1710005634348 342.6017763241143 L 373.63436985859835 344.5273768654396 L 373.1169522973461 346.45297740676483 L 372.6190961680435 348.3785779480901 L 372.1410441046094 350.30417848941534 L 371.6829381411573 352.2297790307406 L 371.24482517521875 354.15537957206584 L 370.82666276730174 356.08098011339104 L 370.4283252057448 358.0065806547163 L 370.0496097677641 359.9321811960415 L 369.6902431101805 361.8577817373668 L 369.34988772648484 363.783382278692 L 369.0281484105688 365.70898282001724 L 368.72457867154185 367.6345833613425 L 368.4386870484823 369.56018390266775 L 368.16994327866155 371.485784443993 L 367.91778427765166 373.41138498531825 L 367.6816198947015 375.3369855266435 L 367.46083841178506 377.26258606796875 L 367.2548117597043 379.188186609294 L 367.0629004295278 381.1137871506192 L 366.88445806239247 383.03938769194446 L 366.7188357052532 384.9649882332697 L 366.5653857244893 386.8905887745949 L 366.4234653733267 388.81618931592016 L 366.29244001279193 390.7417898572454 L 366.1716163136596 392.66739039857066 L 366.060534553095 394.5929909398959 L 365.95848168192333 396.51859148122116 L 365.8649594566533 398.4441920225464 L 365.77933380764557 400.3697925638716 L 365.70100387109096 402.29539310519687 L 365.62964198890216 404.2209936465221 L 365.5647091555356 406.14659418784737 L 365.5056248204715 408.0721947291726 L 365.4520833778258 409.9977952704978 L 365.40359056715664 411.92339581182307 L 365.35977376976274 413.8489963531483 L 365.3200813297176 415.7745968944736 L 365.284385200213 417.7001974357988 L 365.2521054617153 419.6257979771241 L 365.22329657654836 421.55139851844933 L 365.1974331081888 423.4769990597746 L 365.1743238330993 425.4025996010998 L 365.1533645866985 427.32820014242503 L 365.1345839802584 429.2538006837503 L 365.11791873615437 431.17940122507554 L 365.10307069932105 433.10500176640073 L 365.0900791317171 435.030602307726 L 365.07854262904027 436.95620284905124 L 365.06827050453103 438.8818033903765 L 365.05926334322777 440.80740393170174 L 365.05140022510534 442.733004473027 L 365.04441394526975 444.65860501435225 L 365.0381805029085 446.5842055556775 L 365.03294841751045 448.50980609700275 L 365.02826086876325 450.435406638328 L 365.0241312481756 452.3610071796532 L 365.0204941901547 454.28660772097845 L 365.01719370794063 456.21220826230365 L 365.01469560356577 458.1378088036289 L 365.01228876352303 460.06340934495415 Z" stroke="black" stroke-width="0.5" fill="steelblue" /></svg>