<svg xmlns="http://www.w3.org/2000/svg" width="679" height="541" fill="black"><rect width="100%" height="100%" fill="white" /><line x1="65" y1="492" x2="665" y2="492" stroke="black" stroke-width="1" /><line x1="65" y1="42" x2="65" y2="492" stroke="black" stroke-width="1" /><line x1="65" y1="299.14285714285717" x2="665" y2="299.14285714285717" stroke="#ccc" stroke-width="1" /><line x1="65" y1="170.57142857142856" x2="665" y2="170.57142857142856" stroke="#ccc" stroke-width="1" /><line x1="65" y1="42" x2="665" y2="42" stroke="#ccc" stroke-width="1" /><text x="165" y="507" font-size="10" text-anchor="middle">Normal</text><line x1="165" y1="492" x2="165" y2="497" stroke="black" stroke-width="1" /><text x="365" y="507" font-size="10" text-anchor="middle">Bimodal</text><line x1="365" y1="492" x2="365" y2="497" stroke="black" stroke-width="1" /><text x="565" y="507" font-size="10" text-anchor="middle">Skewed</text><line x1="565" y1="492" x2="565" y2="497" stroke="black" stroke-width="1" /><line x1="60" y1="427.7142857142857" x2="65" y2="427.7142857142857" stroke="black" stroke-width="1" /><text x="57" y="431.2142857142857" font-size="10" text-anchor="end">-5</text><line x1="60" y1="299.14285714285717" x2="65" y2="299.14285714285717" stroke="black" stroke-width="1" /><text x="57" y="302.64285714285717" font-size="10" text-anchor="end">0</text><line x1="60" y1="170.57142857142856" x2="65" y2="170.57142857142856" stroke="black" stroke-width="1" /><text x="57" y="174.07142857142856" font-size="10" text-anchor="end">5</text><line x1="60" y1="42" x2="65" y2="42" stroke="black" stroke-width="1" /><text x="57" y="45.5" font-size="10" text-anchor="end">10</text><text x="14" y="270.5" font-size="14" text-anchor="middle" transform="rotate(-90,14,270.5)">Value</text><text x="339.5" y="21" font-size="16" text-anchor="middle">Violin Plot</text><path d="M 164.99748523128056 395.46370345048075 L 164.9961153854108 394.50106022908926 L 164.9941304615513 393.5384170076977 L 164.99132506769448 392.5757737863062 L 164.98745893655857 391.6131305649147 L 164.9822659159337 390.65048734352314 L 164.97547046651877 389.68784412213165 L 164.96671905719097 388.7252009007401 L 164.95591335836357 387.76255767934856 L 164.94285636625978 386.7999144579571 L 164.92743905314762 385.8372712365655 L 164.9097794692247 384.874628015174 L 164.89022699643579 383.9119847937825 L 164.86894811094896 382.94934157239095 L 164.84674478266098 381.9866983509994 L 164.8241093223215 381.0240551296079 L 164.80163730980652 380.06141190821637 L 164.77969031035678 379.0987686868249 L 164.75858189986766 378.13612546543334 L 164.73825478209457 377.17348224404185 L 164.7182883499753 376.2108390226503 L 164.69746627734608 375.24819580125876 L 164.67447251365564 374.28555257986727 L 164.64767621505086 373.3229093584757 L 164.61496490469204 372.3602661370842 L 164.57402423380924 371.3976229156927 L 164.52278211323045 370.43497969430115 L 164.45933225515697 369.47233647290966 L 164.38237439737915 368.5096932515181 L 164.29073710543045 367.54705003012657 L 164.18446241458355 366.5844068087351 L 164.06388595088828 365.6217635873436 L 163.93002624973013 364.65912036595205 L 163.78401906106976 363.6964771445605 L 163.62804709187526 362.73383392316896 L 163.46334865462046 361.7711907017774 L 163.29214472244857 360.8085474803859 L 163.11583109400232 359.84590425899444 L 162.93547041781844 358.8832610376029 L 162.75209894247894 357.92061781621135 L 162.5655776445858 356.95797459481986 L 162.37565876609594 355.9953313734283 L 162.1813738796734 355.03268815203677 L 161.981388482611 354.0700449306453 L 161.77371966179265 353.10740170925374 L 161.5554058736969 352.14475848786225 L 161.3237357166751 351.1821152664707 L 161.07455272462812 350.2194720450792 L 160.80484646809782 349.25682882368767 L 160.51018044524338 348.2941856022961 L 160.18741671913267 347.33154238090464 L 159.8348780292994 346.3688991595131 L 159.45082340288337 345.40625593812155 L 159.0369014448824 344.44361271673006 L 158.59550549988438 343.4809694953385 L 158.13260817223562 342.51832627394697 L 157.65526639502278 341.5556830525555 L 157.17128216137877 340.593039831164 L 156.6891949558423 339.63039660977245 L 156.21671851355867 338.6677533883809 L 155.75937978841145 337.70511016698936 L 155.3193352407888 336.7424669455978 L 154.8956398324197 335.7798237242064 L 154.48283051387648 334.81718050281484 L 154.07180465924353 333.8545372814233 L 153.6510427978783 332.89189406003175 L 153.20548069822215 331.9292508386402 L 152.7219394078975 330.9666076172487 L 152.18645782611503 330.0039643958572 L 151.5896211223526 329.0413211744657 L 150.92555909129803 328.07867795307413 L 150.19444734712283 327.1160347316826 L 149.40049029296807 326.15339151029116 L 148.5541359113061 325.19074828889956 L 147.66996614478808 324.22810506750807 L 146.7653852212854 323.2654618461165 L 145.8581170084757 322.302818624725 L 144.9658066692941 321.3401754033335 L 144.10440934347952 320.377532181942 L 143.28549684105138 319.41488896055046 L 142.51553535214245 318.4522457391589 L 141.79781495795768 317.48960251776737 L 141.13086351694676 316.5269592963759 L 140.5102198201347 315.56431607498433 L 139.92929739135218 314.60167285359285 L 139.38112885924522 313.6390296322013 L 138.85867878722868 312.67638641080976 L 138.3582943095698 311.71374318941827 L 137.87730744633222 310.7510999680267 L 137.41640775514594 309.78845674663523 L 136.97813870197658 308.8258135252437 L 136.5682856529085 307.86317030385214 L 136.1929329852059 306.9005270824606 L 135.8590937982166 305.9378838610691 L 135.57330611923155 304.9752406396776 L 135.34093195959917 304.0125974182861 L 135.16657961576894 303.04995419689453 L 135.05231011901046 302.08731097550304 L 135 301.1246677541115 L 135.00958549546988 300.16202453272 L 135.07968175501517 299.19938131132847 L 135.21018751988117 298.2367380899369 L 135.39927500622844 297.2740948685454 L 135.6464382147132 296.31145164715394 L 135.95162309252464 295.3488084257624 L 136.31418907573703 294.38616520437085 L 136.7345201525767 293.4235219829793 L 137.2106212588224 292.46087876158776 L 137.740865198375 291.4982355401963 L 138.32049709732735 290.5355923188048 L 138.94358048763002 289.57294909741324 L 139.60211370763997 288.6103058760217 L 140.28617085278847 287.64766265463015 L 140.98395212919044 286.6850194332387 L 141.68365499142163 285.7223762118471 L 142.37444115752993 284.75973299045563 L 143.04548011388374 283.7970897690641 L 143.68920187379973 282.83444654767254 L 144.30108063518153 281.87180332628105 L 144.8782461402032 280.90916010488957 L 145.42420203825986 279.946516883498 L 145.94287408544164 278.9838736621065 L 146.4413556992627 278.02123044071493 L 146.9292078138111 277.0585872193234 L 147.41484888585404 276.0959439979319 L 147.90743405310178 275.1333007765404 L 148.41455548728092 274.17065755514886 L 148.94137431169614 273.2080143337573 L 149.48920668463177 272.24537111236583 L 150.05757854653356 271.28272789097423 L 150.64185956284769 270.3200846695828 L 151.2356044511713 269.35744144819125 L 151.8298872894568 268.3947982267997 L 152.41607042631114 267.43215500540816 L 152.98560550086637 266.4695117840167 L 153.52938855146988 265.5068685626252 L 154.04323560802018 264.54422534123364 L 154.52404216199383 263.5815821198421 L 154.97198984533554 262.6189388984506 L 155.3903445153666 261.65629567705906 L 155.7851789587767 260.6936524556676 L 156.1622326718493 259.73100923427603 L 156.53014189214556 258.7683660128845 L 156.8953135747759 257.80572279149294 L 157.264109880718 256.84307957010145 L 157.6402772372185 255.8804363487099 L 158.0250314228184 254.9177931273184 L 158.41833407402862 253.9551499059269 L 158.8174409158163 252.99250668453533 L 159.21784862180795 252.02986346314384 L 159.61468778384992 251.06722024175232 L 160.0022440787344 250.10457702036078 L 160.37530707843345 249.14193379896926 L 160.73015750833298 248.17929057757775 L 161.06382820051942 247.2166473561862 L 161.374828623368 246.25400413479468 L 161.6632219686994 245.29136091340317 L 161.92980505348282 244.32871769201162 L 162.17638968531483 243.3660744706201 L 162.40552801805117 242.40343124922862 L 162.6192754314611 241.4407880278371 L 162.81946825908366 240.47814480644556 L 163.0071161784404 239.51550158505404 L 163.18296570211177 238.55285836366252 L 163.34652276826856 237.59021514227098 L 163.49705200516073 236.62757192087946 L 163.63322120562253 235.66492869948797 L 163.7538846120296 234.70228547809643 L 163.85802573525348 233.73964225670488 L 163.94539379677175 232.7769990353134 L 164.01636478127242 231.81435581392185 L 164.07221366223047 230.8517125925303 L 164.1148733731854 229.88906937113882 L 164.1477178552394 228.92642614974727 L 164.17347350688917 227.96378292835573 L 164.19612391739946 227.00113970696424 L 164.21903488913443 226.0384964855727 L 164.2450790279053 225.0758532641812 L 164.27635531725537 224.11321004278966 L 164.31432864488332 223.15056682139812 L 164.35913347639422 222.18792360000663 L 164.410293202212 221.22528037861508 L 164.46647778357678 220.26263715722354 L 164.52604806498945 219.29999393583205 L 164.5868519581464 218.33735071444056 L 164.64683448946175 217.37470749304896 L 164.7040140345318 216.41206427165747 L 164.75693290624807 215.44942105026598 L 164.80452205443478 214.48677782887444 L 164.84600583976314 213.5241346074829 L 164.88120617618668 212.5614913860914 L 164.9102204164774 211.59884816469986 L 164.93361554756208 210.63620494330831 L 164.9519051503472 209.67356172191683 L 164.96589136400092 208.71091850052534 L 164.97632172931483 207.74827527913374 L 164.98391051820863 206.78563205774225 L 164.98929892156576 205.82298883635076 L 164.9930338340688 204.86034561495916 L 164.9955615775603 203.89770239356767 L 165.0044384224397 203.89770239356767 L 165.0069661659312 204.86034561495916 L 165.01070107843424 205.82298883635076 L 165.01608948179137 206.78563205774225 L 165.02367827068517 207.74827527913374 L 165.03410863599908 208.71091850052534 L 165.0480948496528 209.67356172191683 L 165.06638445243792 210.63620494330831 L 165.0897795835226 211.59884816469986 L 165.11879382381332 212.5614913860914 L 165.15399416023686 213.5241346074829 L 165.19547794556522 214.48677782887444 L 165.24306709375193 215.44942105026598 L 165.2959859654682 216.41206427165747 L 165.35316551053825 217.37470749304896 L 165.4131480418536 218.33735071444056 L 165.47395193501055 219.29999393583205 L 165.53352221642322 220.26263715722354 L 165.589706797788 221.22528037861508 L 165.64086652360578 222.18792360000663 L 165.68567135511668 223.15056682139812 L 165.72364468274463 224.11321004278966 L 165.7549209720947 225.0758532641812 L 165.78096511086557 226.0384964855727 L 165.80387608260054 227.00113970696424 L 165.82652649311083 227.96378292835573 L 165.8522821447606 228.92642614974727 L 165.8851266268146 229.88906937113882 L 165.92778633776953 230.8517125925303 L 165.98363521872758 231.81435581392185 L 166.05460620322825 232.7769990353134 L 166.14197426474652 233.73964225670488 L 166.2461153879704 234.70228547809643 L 166.36677879437747 235.66492869948797 L 166.50294799483927 236.62757192087946 L 166.65347723173144 237.59021514227098 L 166.81703429788823 238.55285836366252 L 166.9928838215596 239.51550158505404 L 167.18053174091634 240.47814480644556 L 167.3807245685389 241.4407880278371 L 167.59447198194883 242.40343124922862 L 167.82361031468517 243.3660744706201 L 168.07019494651718 244.32871769201162 L 168.3367780313006 245.29136091340317 L 168.625171376632 246.25400413479468 L 168.93617179948058 247.2166473561862 L 169.26984249166702 248.17929057757775 L 169.62469292156655 249.14193379896926 L 169.9977559212656 250.10457702036078 L 170.38531221615008 251.06722024175232 L 170.78215137819205 252.02986346314384 L 171.1825590841837 252.99250668453533 L 171.58166592597138 253.9551499059269 L 171.9749685771816 254.9177931273184 L 172.3597227627815 255.8804363487099 L 172.735890119282 256.84307957010145 L 173.1046864252241 257.80572279149294 L 173.46985810785444 258.7683660128845 L 173.8377673281507 259.73100923427603 L 174.2148210412233 260.6936524556676 L 174.6096554846334 261.65629567705906 L 175.02801015466446 262.6189388984506 L 175.47595783800617 263.5815821198421 L 175.95676439197982 264.54422534123364 L 176.47061144853012 265.5068685626252 L 177.01439449913363 266.4695117840167 L 177.58392957368886 267.43215500540816 L 178.1701127105432 268.3947982267997 L 178.7643955488287 269.35744144819125 L 179.35814043715231 270.3200846695828 L 179.94242145346644 271.28272789097423 L 180.51079331536823 272.24537111236583 L 181.05862568830386 273.2080143337573 L 181.58544451271908 274.17065755514886 L 182.09256594689822 275.1333007765404 L 182.58515111414596 276.0959439979319 L 183.0707921861889 277.0585872193234 L 183.5586443007373 278.02123044071493 L 184.05712591455836 278.9838736621065 L 184.57579796174014 279.946516883498 L 185.1217538597968 280.90916010488957 L 185.69891936481847 281.87180332628105 L 186.31079812620027 282.83444654767254 L 186.95451988611626 283.7970897690641 L 187.62555884247007 284.75973299045563 L 188.31634500857837 285.7223762118471 L 189.01604787080956 286.6850194332387 L 189.71382914721153 287.64766265463015 L 190.39788629236003 288.6103058760217 L 191.05641951236998 289.57294909741324 L 191.67950290267265 290.5355923188048 L 192.259134801625 291.4982355401963 L 192.7893787411776 292.46087876158776 L 193.2654798474233 293.4235219829793 L 193.68581092426297 294.38616520437085 L 194.04837690747536 295.3488084257624 L 194.3535617852868 296.31145164715394 L 194.60072499377156 297.2740948685454 L 194.78981248011883 298.2367380899369 L 194.92031824498483 299.19938131132847 L 194.99041450453012 300.16202453272 L 195 301.1246677541115 L 194.94768988098954 302.08731097550304 L 194.83342038423106 303.04995419689453 L 194.65906804040083 304.0125974182861 L 194.42669388076845 304.9752406396776 L 194.1409062017834 305.9378838610691 L 193.8070670147941 306.9005270824606 L 193.4317143470915 307.86317030385214 L 193.02186129802342 308.8258135252437 L 192.58359224485406 309.78845674663523 L 192.12269255366778 310.7510999680267 L 191.6417056904302 311.71374318941827 L 191.14132121277132 312.67638641080976 L 190.61887114075478 313.6390296322013 L 190.07070260864782 314.60167285359285 L 189.4897801798653 315.56431607498433 L 188.86913648305324 316.5269592963759 L 188.20218504204232 317.48960251776737 L 187.48446464785755 318.4522457391589 L 186.71450315894862 319.41488896055046 L 185.89559065652048 320.377532181942 L 185.0341933307059 321.3401754033335 L 184.1418829915243 322.302818624725 L 183.2346147787146 323.2654618461165 L 182.33003385521192 324.22810506750807 L 181.4458640886939 325.19074828889956 L 180.59950970703193 326.15339151029116 L 179.80555265287717 327.1160347316826 L 179.07444090870197 328.07867795307413 L 178.4103788776474 329.0413211744657 L 177.81354217388497 330.0039643958572 L 177.2780605921025 330.9666076172487 L 176.79451930177785 331.9292508386402 L 176.3489572021217 332.89189406003175 L 175.92819534075647 333.8545372814233 L 175.51716948612352 334.81718050281484 L 175.1043601675803 335.7798237242064 L 174.6806647592112 336.7424669455978 L 174.24062021158855 337.70511016698936 L 173.78328148644133 338.6677533883809 L 173.3108050441577 339.63039660977245 L 172.82871783862123 340.593039831164 L 172.34473360497722 341.5556830525555 L 171.86739182776438 342.51832627394697 L 171.40449450011562 343.4809694953385 L 170.9630985551176 344.44361271673006 L 170.54917659711663 345.40625593812155 L 170.1651219707006 346.3688991595131 L 169.81258328086733 347.33154238090464 L 169.48981955475662 348.2941856022961 L 169.19515353190218 349.25682882368767 L 168.92544727537188 350.2194720450792 L 168.6762642833249 351.1821152664707 L 168.4445941263031 352.14475848786225 L 168.22628033820735 353.10740170925374 L 168.018611517389 354.0700449306453 L 167.8186261203266 355.03268815203677 L 167.62434123390406 355.9953313734283 L 167.4344223554142 356.95797459481986 L 167.24790105752106 357.92061781621135 L 167.06452958218156 358.8832610376029 L 166.88416890599768 359.84590425899444 L 166.70785527755143 360.8085474803859 L 166.53665134537954 361.7711907017774 L 166.37195290812474 362.73383392316896 L 166.21598093893024 363.6964771445605 L 166.06997375026987 364.65912036595205 L 165.93611404911172 365.6217635873436 L 165.81553758541645 366.5844068087351 L 165.70926289456955 367.54705003012657 L 165.61762560262085 368.5096932515181 L 165.54066774484303 369.47233647290966 L 165.47721788676955 370.43497969430115 L 165.42597576619076 371.3976229156927 L 165.38503509530796 372.3602661370842 L 165.35232378494914 373.3229093584757 L 165.32552748634436 374.28555257986727 L 165.30253372265392 375.24819580125876 L 165.2817116500247 376.2108390226503 L 165.26174521790543 377.17348224404185 L 165.24141810013234 378.13612546543334 L 165.22030968964322 379.0987686868249 L 165.19836269019348 380.06141190821637 L 165.1758906776785 381.0240551296079 L 165.15325521733902 381.9866983509994 L 165.13105188905104 382.94934157239095 L 165.10977300356421 383.9119847937825 L 165.0902205307753 384.874628015174 L 165.07256094685238 385.8372712365655 L 165.05714363374022 386.7999144579571 L 165.04408664163643 387.76255767934856 L 165.03328094280903 388.7252009007401 L 165.02452953348123 389.68784412213165 L 165.0177340840663 390.65048734352314 L 165.01254106344143 391.6131305649147 L 165.00867493230552 392.5757737863062 L 165.0058695384487 393.5384170076977 L 165.0038846145892 394.50106022908926 L 165.00251476871944 395.46370345048075 Z" stroke="black" stroke-width="0.5" fill="steelblue" /><path d="M 364.9892358440034 424.26530602077963 L 364.9848264194835 422.9606048007332 L 364.9793747769466 421.65590358068687 L 364.9719708494926 420.3512023606405 L 364.9624935601812 419.04650114059416 L 364.94998015180107 417.7417999205478 L 364.93364995715825 416.4370987005014 L 364.9128260788736 415.13239748045504 L 364.8862897908805 413.8276962604087 L 364.852962744206 412.52299504036233 L 364.8113474763979 411.2182938203159 L 364.75973667972477 409.91359260026957 L 364.696529596838 408.6088913802232 L 364.6188852002376 407.30419016017686 L 364.52515564443746 405.99948894013045 L 364.41195465508224 404.6947877200841 L 364.2768739449748 403.39008650003774 L 364.11640781226856 402.0853852799913 L 363.92681574327594 400.780684059945 L 363.7053743959632 399.4759828398986 L 363.44775255236516 398.17128161985227 L 363.1503673903943 396.86658039980585 L 362.80907943281716 395.56187917975956 L 362.4205302274893 394.25717795971315 L 361.98061642469173 392.9524767396668 L 361.486031077291 391.6477755196204 L 360.93381643976863 390.343074299574 L 360.32098417926056 389.0383730795277 L 359.64545421457177 387.7336718594813 L 358.9061589486408 386.42897063943497 L 358.1024346389677 385.12426941938855 L 357.2343766907282 383.8195681993422 L 356.30329475750403 382.51486697929585 L 355.31166902810025 381.2101657592495 L 354.26305709702734 379.9054645392031 L 353.1618659488354 378.6007633191567 L 352.0143120935792 377.2960620991104 L 350.8278220442711 375.99136087906396 L 349.61049857427486 374.6866596590176 L 348.3719622491293 373.38195843897125 L 347.12265474495183 372.0772572189249 L 345.87393185124677 370.7725559988785 L 344.63783336033225 369.46785477883213 L 343.4268781186313 368.1631535587858 L 342.2537536549335 366.8584523387394 L 341.13135563402403 365.55375111869307 L 340.07199952879756 364.24904989864666 L 339.0878846820982 362.9443486786003 L 338.1901195728536 361.63964745855395 L 337.3888853529955 360.33494623850754 L 336.6931237571649 359.0302450184612 L 336.1103504264785 357.72554379841483 L 335.64650654902033 356.4208425783685 L 335.3058539807015 355.1161413583221 L 335.0909171236568 353.81144013827577 L 335.0024727607544 352.50673891822936 L 335.0395868996541 351.20203769818295 L 335.1996956014039 349.8973364781366 L 335.4787248875038 348.59263525809024 L 335.87124325359184 347.2879340380439 L 336.37063916306306 345.98323281799753 L 336.9693152156928 344.6785315979511 L 337.6588905151133 343.37383037790477 L 338.4304030875924 342.0691291578584 L 339.2745049890535 340.764427937812 L 340.1816439009738 339.45972671776565 L 341.14222645610505 338.1550254977193 L 342.14676013229644 336.85032427767294 L 343.18597218091486 335.5456230576266 L 344.25075617859056 334.24092183758023 L 345.3327780911978 332.9362206175338 L 346.42368200289815 331.6315193974874 L 347.51585912891574 330.32681817744106 L 348.60217411833884 329.0221169573947 L 349.6759742823948 327.71741573734835 L 350.7312481217057 326.412714517302 L 351.7621558717935 325.10801329725564 L 352.7638940156252 323.8033120772093 L 353.7315318078974 322.49861085716293 L 354.6612432815988 321.1939096371165 L 355.54917978601793 319.8892084170701 L 356.3928375521632 318.58450719702375 L 357.1893717448233 317.2798059769774 L 357.9368576853986 315.97510475693105 L 358.6336147759825 314.6704035368847 L 359.27845362077244 313.36570231683834 L 359.87026522655117 312.061001096792 L 360.4080601028143 310.7562998767456 L 360.8924489698679 309.45159865669916 L 361.322650065656 308.1468974366528 L 361.699432147128 306.84219621660645 L 362.0225754559791 305.5374949965601 L 362.29149398279355 304.23279377651374 L 362.50674727812464 302.9280925564674 L 362.66762539588524 301.623391336421 L 362.7743780818457 300.3186901163746 L 362.8252344187172 299.0139888963282 L 362.820199783055 297.70928767628186 L 362.75832307648795 296.4045864562355 L 362.63750849705997 295.09988523618915 L 362.4569102094355 293.7951840161428 L 362.21423003344535 292.4904827960964 L 361.90836040601704 291.18578157605003 L 361.53722824915144 289.8810803560037 L 361.0985161941516 288.57637913595727 L 360.59135537595796 287.2716779159109 L 360.0142816493484 285.96697669586456 L 359.36687717492214 284.6622754758182 L 358.6486479712329 283.3575742557718 L 357.8604960304597 282.05287303572544 L 357.0032855505031 280.7481718156791 L 356.07951853915495 279.4434705956327 L 355.0924232265038 278.1387693755863 L 354.0462949479069 276.83406815553997 L 352.9459879714641 275.5293669354936 L 351.7985518798942 274.22466571544726 L 350.61199971128946 272.9199644954009 L 349.3948627646612 271.6152632753545 L 348.15716724758016 270.3105620553081 L 346.90970673204885 269.00586083526173 L 345.6643159024665 267.70115961521543 L 344.43310997527743 266.3964583951691 L 343.22842733275667 265.09175717512267 L 342.06360042533254 263.7870559550763 L 340.9512774513205 262.48235473502996 L 339.903859910319 261.17765351498355 L 338.93348282988666 259.87295229493725 L 338.05112272674415 258.56825107489084 L 337.26679159261835 257.2635498548444 L 336.5892690606324 255.9588486347981 L 336.0257296782921 254.65414741475172 L 335.5820231524214 253.34944619470534 L 335.261888618121 252.04474497465895 L 335.0677168680031 250.74004375461257 L 335 249.4353425345662 L 335.0575297008591 248.13064131451986 L 335.2374848748719 246.82594009447348 L 335.5355573858206 245.52123887442715 L 335.9461092203031 244.21653765438077 L 336.4623533004006 242.91183643433442 L 337.0765495775765 241.60713521428804 L 337.78020795205106 240.30243399424165 L 338.5642899693132 238.99773277419527 L 339.4194020982426 237.69303155414894 L 340.3359746120485 236.38833033410256 L 341.30442156783806 235.08362911405624 L 342.3152789917122 233.77892789400988 L 343.3593199976434 232.47422667396347 L 344.4276470796544 231.16952545391712 L 345.511763113468 229.8648242338707 L 346.603623605413 228.56012301382435 L 347.6956733824655 227.25542179377794 L 348.78087121029563 225.9507205737316 L 349.8527057711009 224.64601935368523 L 350.9053031102028 223.34131813363888 L 351.9330148365843 222.03661691359252 L 352.9311642879975 220.7319156935461 L 353.8954446451178 219.42721447349976 L 354.82197160464847 218.1225132534534 L 355.7076268327881 216.81781203340705 L 356.54975825309054 215.51311081336064 L 357.3464408954366 214.2084095933143 L 358.0960905424196 212.90370837326793 L 358.7980441890374 211.59900715322158 L 359.45182166154757 210.29430593317522 L 360.057406630754 208.9896047131288 L 360.61510122401165 207.68490349308246 L 361.126466731281 206.38020227303605 L 361.59269582633806 205.0755010529897 L 362.01574179141653 203.77079983294334 L 362.39770968405526 202.46609861289699 L 362.7405016814849 201.16139739285063 L 363.0467575057864 199.85669617280422 L 363.3188435232103 198.55199495275792 L 363.5594231883465 197.2472937327115 L 363.77107142836894 195.94259251266516 L 363.95608424201197 194.63789129261875 L 364.11765615857144 193.3331900725724 L 364.2573406751893 192.02848885252598 L 364.37809463800284 190.72378763247963 L 364.4815429578993 189.41908641243327 L 364.5700844028998 188.11438519238692 L 364.645419090355 186.80968397234062 L 364.7087930726328 185.5049827522942 L 364.7622182044592 184.20028153224786 L 364.8068408627609 182.89558031220145 L 364.8440665735332 181.5908790921551 L 364.8746301732319 180.28617787210868 L 364.89996504059764 178.98147665206233 L 364.92069043884436 177.67677543201597 L 364.93745060736615 176.37207421196956 L 364.9511317056656 175.06737299192326 L 364.96220664902876 173.76267177187685 L 364.9708281212745 172.45797055183056 L 364.9775875444192 171.15326933178414 L 364.9829646900589 169.8485681117378 L 364.98715279866167 168.54386689169138 L 364.9903704523165 167.23916567164503 L 364.99281469796654 165.93446445159867 L 364.99493631765824 164.62976323155226 L 365.00506368234176 164.62976323155226 L 365.00718530203346 165.93446445159867 L 365.0096295476835 167.23916567164503 L 365.01284720133833 168.54386689169138 L 365.0170353099411 169.8485681117378 L 365.0224124555808 171.15326933178414 L 365.0291718787255 172.45797055183056 L 365.03779335097124 173.76267177187685 L 365.0488682943344 175.06737299192326 L 365.06254939263385 176.37207421196956 L 365.07930956115564 177.67677543201597 L 365.10003495940236 178.98147665206233 L 365.1253698267681 180.28617787210868 L 365.1559334264668 181.5908790921551 L 365.1931591372391 182.89558031220145 L 365.2377817955408 184.20028153224786 L 365.2912069273672 185.5049827522942 L 365.354580909645 186.80968397234062 L 365.4299155971002 188.11438519238692 L 365.5184570421007 189.41908641243327 L 365.62190536199716 190.72378763247963 L 365.7426593248107 192.02848885252598 L 365.88234384142856 193.3331900725724 L 366.04391575798803 194.63789129261875 L 366.22892857163106 195.94259251266516 L 366.4405768116535 197.2472937327115 L 366.6811564767897 198.55199495275792 L 366.9532424942136 199.85669617280422 L 367.2594983185151 201.16139739285063 L 367.60229031594474 202.46609861289699 L 367.98425820858347 203.77079983294334 L 368.40730417366194 205.0755010529897 L 368.873533268719 206.38020227303605 L 369.38489877598835 207.68490349308246 L 369.942593369246 208.9896047131288 L 370.54817833845243 210.29430593317522 L 371.2019558109626 211.59900715322158 L 371.9039094575804 212.90370837326793 L 372.6535591045634 214.2084095933143 L 373.45024174690946 215.51311081336064 L 374.2923731672119 216.81781203340705 L 375.17802839535153 218.1225132534534 L 376.1045553548822 219.42721447349976 L 377.0688357120025 220.7319156935461 L 378.0669851634157 222.03661691359252 L 379.0946968897972 223.34131813363888 L 380.1472942288991 224.64601935368523 L 381.21912878970437 225.9507205737316 L 382.3043266175345 227.25542179377794 L 383.396376394587 228.56012301382435 L 384.488236886532 229.8648242338707 L 385.5723529203456 231.16952545391712 L 386.6406800023566 232.47422667396347 L 387.6847210082878 233.77892789400988 L 388.69557843216194 235.08362911405624 L 389.6640253879515 236.38833033410256 L 390.5805979017574 237.69303155414894 L 391.4357100306868 238.99773277419527 L 392.21979204794894 240.30243399424165 L 392.9234504224235 241.60713521428804 L 393.5376466995994 242.91183643433442 L 394.0538907796969 244.21653765438077 L 394.4644426141794 245.52123887442715 L 394.7625151251281 246.82594009447348 L 394.9424702991409 248.13064131451986 L 395 249.4353425345662 L 394.9322831319969 250.74004375461257 L 394.738111381879 252.04474497465895 L 394.4179768475786 253.34944619470534 L 393.9742703217079 254.65414741475172 L 393.4107309393676 255.9588486347981 L 392.73320840738165 257.2635498548444 L 391.94887727325585 258.56825107489084 L 391.06651717011334 259.87295229493725 L 390.096140089681 261.17765351498355 L 389.0487225486795 262.48235473502996 L 387.93639957466746 263.7870559550763 L 386.77157266724333 265.09175717512267 L 385.56689002472257 266.3964583951691 L 384.3356840975335 267.70115961521543 L 383.09029326795115 269.00586083526173 L 381.84283275241984 270.3105620553081 L 380.6051372353388 271.6152632753545 L 379.38800028871054 272.9199644954009 L 378.2014481201058 274.22466571544726 L 377.0540120285359 275.5293669354936 L 375.9537050520931 276.83406815553997 L 374.9075767734962 278.1387693755863 L 373.92048146084505 279.4434705956327 L 372.9967144494969 280.7481718156791 L 372.1395039695403 282.05287303572544 L 371.3513520287671 283.3575742557718 L 370.63312282507786 284.6622754758182 L 369.9857183506516 285.96697669586456 L 369.40864462404204 287.2716779159109 L 368.9014838058484 288.57637913595727 L 368.46277175084856 289.8810803560037 L 368.09163959398296 291.18578157605003 L 367.78576996655465 292.4904827960964 L 367.5430897905645 293.7951840161428 L 367.36249150294003 295.09988523618915 L 367.24167692351205 296.4045864562355 L 367.179800216945 297.70928767628186 L 367.1747655812828 299.0139888963282 L 367.2256219181543 300.3186901163746 L 367.33237460411476 301.623391336421 L 367.49325272187536 302.9280925564674 L 367.70850601720645 304.23279377651374 L 367.9774245440209 305.5374949965601 L 368.300567852872 306.84219621660645 L 368.677349934344 308.1468974366528 L 369.1075510301321 309.45159865669916 L 369.5919398971857 310.7562998767456 L 370.12973477344883 312.061001096792 L 370.72154637922756 313.36570231683834 L 371.3663852240175 314.6704035368847 L 372.0631423146014 315.97510475693105 L 372.8106282551767 317.2798059769774 L 373.6071624478368 318.58450719702375 L 374.45082021398207 319.8892084170701 L 375.3387567184012 321.1939096371165 L 376.2684681921026 322.49861085716293 L 377.2361059843748 323.8033120772093 L 378.2378441282065 325.10801329725564 L 379.2687518782943 326.412714517302 L 380.3240257176052 327.71741573734835 L 381.39782588166116 329.0221169573947 L 382.48414087108426 330.32681817744106 L 383.57631799710185 331.6315193974874 L 384.6672219088022 332.9362206175338 L 385.74924382140944 334.24092183758023 L 386.81402781908514 335.5456230576266 L 387.85323986770356 336.85032427767294 L 388.85777354389495 338.1550254977193 L 389.8183560990262 339.45972671776565 L 390.7254950109465 340.764427937812 L 391.5695969124076 342.0691291578584 L 392.3411094848867 343.37383037790477 L 393.0306847843072 344.6785315979511 L 393.62936083693694 345.98323281799753 L 394.12875674640816 347.2879340380439 L 394.5212751124962 348.59263525809024 L 394.8003043985961 349.8973364781366 L 394.9604131003459 351.20203769818295 L 394.9975272392456 352.50673891822936 L 394.9090828763432 353.81144013827577 L 394.6941460192985 355.1161413583221 L 394.35349345097967 356.4208425783685 L 393.8896495735215 357.72554379841483 L 393.3068762428351 359.0302450184612 L 392.6111146470045 360.33494623850754 L 391.8098804271464 361.63964745855395 L 390.9121153179018 362.9443486786003 L 389.92800047120244 364.24904989864666 L 388.86864436597597 365.55375111869307 L 387.7462463450665 366.8584523387394 L 386.5731218813687 368.1631535587858 L 385.36216663966775 369.46785477883213 L 384.12606814875323 370.7725559988785 L 382.87734525504817 372.0772572189249 L 381.6280377508707 373.38195843897125 L 380.38950142572514 374.6866596590176 L 379.1721779557289 375.99136087906396 L 377.9856879064208 377.2960620991104 L 376.8381340511646 378.6007633191567 L 375.73694290297266 379.9054645392031 L 374.68833097189975 381.2101657592495 L 373.69670524249597 382.51486697929585 L 372.7656233092718 383.8195681993422 L 371.8975653610323 385.12426941938855 L 371.0938410513592 386.42897063943497 L 370.35454578542823 387.7336718594813 L 369.67901582073944 389.0383730795277 L 369.06618356023137 390.343074299574 L 368.513968922709 391.6477755196204 L 368.01938357530827 392.9524767396668 L 367.5794697725107 394.25717795971315 L 367.19092056718284 395.56187917975956 L 366.8496326096057 396.86658039980585 L 366.55224744763484 398.17128161985227 L 366.2946256040368 399.4759828398986 L 366.07318425672406 400.780684059945 L 365.88359218773144 402.0853852799913 L 365.7231260550252 403.39008650003774 L 365.58804534491776 404.6947877200841 L 365.47484435556254 405.99948894013045 L 365.3811147997624 407.30419016017686 L 365.303470403162 408.6088913802232 L 365.24026332027523 409.91359260026957 L 365.1886525236021 411.2182938203159 L 365.147037255794 412.52299504036233 L 365.1137102091195 413.8276962604087 L 365.0871739211264 415.13239748045504 L 365.06635004284175 416.4370987005014 L 365.05001984819893 417.7417999205478 L 365.0375064398188 419.04650114059416 L 365.0280291505074 420.3512023606405 L 365.0206252230534 421.65590358068687 L 365.0151735805165 422.9606048007332 L 365.0107641559966 424.26530602077963 Z" stroke="black" stroke-width="0.5" fill="steelblue" /><path d="M 564.948731070637 320.77856183340225 L 564.9107383313855 319.54253913229707 L 564.8488776360274 318.306516431192 L 564.7526364222771 317.0704937300868 L 564.6054164582088 315.83447102898174 L 564.3879442310812 314.5984483278766 L 564.0745838036204 313.3624256267715 L 563.6372525363453 312.1264029256664 L 563.0439150773053 310.8903802245612 L 562.2616747047484 309.65435752345616 L 561.260486886133 308.41833482235097 L 560.0164540318314 307.1823121212459 L 558.5151158067155 305.9462894201408 L 556.7571128934633 304.71026671903564 L 554.7596738332888 303.4742440179305 L 552.5591921308511 302.2382213168254 L 550.2106728003228 301.0021986157203 L 547.7859390331347 299.7661759146152 L 545.3682240666213 298.53015321351006 L 543.0461763391096 297.29413051240493 L 540.9061869431883 296.0581078112998 L 539.0268022014692 294.8220851101947 L 537.4708339682835 293.58606240908955 L 536.2809663670623 292.3500397079845 L 535.4775117059775 291.1140170068793 L 535.0583679936461 289.8779943057742 L 535 288.6419716046691 L 535.262322836895 287.40594890356397 L 535.7938328713119 286.16992620245884 L 536.5359133237157 284.9339035013537 L 537.4297856404161 283.69788080024864 L 538.4205398639851 282.4618580991435 L 539.4610724903599 281.2258353980384 L 540.5147112230651 279.98981269693326 L 541.5545735496265 278.75378999582813 L 542.5649872023653 277.517767294723 L 543.538205699625 276.2817445936179 L 544.4716939560801 275.0457218925128 L 545.365865158919 273.8096991914077 L 546.221308519968 272.57367649030255 L 547.0370402670071 271.3376537891974 L 547.8098310261948 270.1016310880923 L 548.5341213506047 268.86560838698716 L 549.2020742341055 267.62958568588203 L 549.8069360121623 266.3935629847769 L 550.3449226554256 265.1575402836718 L 550.8135902030716 263.9215175825667 L 551.2154610976194 262.6854948814616 L 551.5563018888058 261.44947218035645 L 551.844896165485 260.2134494792513 L 552.0927088771944 258.9774267781462 L 552.3125827301631 257.7414040770411 L 552.5172174524672 256.50538137593594 L 552.7187178272511 255.26935867483087 L 552.9282592844255 254.0333359737257 L 553.1556397796029 252.7973132726206 L 553.4086205838323 251.56129057151549 L 553.6921060898092 250.32526787041039 L 554.0083103915479 249.08924516930523 L 554.3563255735198 247.85322246820013 L 554.7317894368053 246.61719976709503 L 555.1288187772789 245.38117706598987 L 555.5381786180076 244.14515436488477 L 555.9509925804484 242.90913166377962 L 556.3592312217222 241.67310896267452 L 556.7561620069343 240.4370862615694 L 557.138606235745 239.2010635604643 L 557.5053941251635 237.96504085935914 L 557.8580704413432 236.72901815825404 L 558.1993402518004 235.49299545714894 L 558.5321479057902 234.2569727560438 L 558.8592856419186 233.02095005493862 L 559.1814817538195 231.78492735383355 L 559.497786041968 230.54890465272842 L 559.8057443347134 229.3128819516233 L 560.1023432932126 228.07685925051817 L 560.3845809738514 226.8408365494131 L 560.6500331727076 225.60481384830797 L 560.8982638896471 224.3687911472029 L 561.1295804930601 223.1327684460977 L 561.3462153930816 221.8967457449926 L 561.5505658259189 220.66072304388751 L 561.7450980770725 219.4247003427824 L 561.9315134478248 218.18867764167726 L 562.1103616542009 216.95265494057213 L 562.2807567018647 215.716632239467 L 562.4402554529707 214.48060953836188 L 562.5868570918711 213.24458683725675 L 562.7180410968218 212.00856413615162 L 562.8329821926719 210.7725414350465 L 562.9317301215484 209.53651873394136 L 563.0161044030635 208.3004960328363 L 563.0895616559939 207.06447333173116 L 563.1558902117712 205.82845063062604 L 563.2196660369887 204.5924279295209 L 563.2843572489849 203.35640522841578 L 563.3524394002153 202.12038252731065 L 563.4247389040308 200.88435982620553 L 563.5006857573532 199.6483371251004 L 563.5783561555392 198.41231442399527 L 563.6547091720726 197.1762917228902 L 563.7264801617848 195.94026902178507 L 563.7901011481532 194.70424632068 L 563.8427469515318 193.46822361957487 L 563.8822289446942 192.23220091846974 L 563.9072533944076 190.99617821736462 L 563.9171316150523 189.7601555162595 L 563.9122008897265 188.52413281515436 L 563.8935539949609 187.28811011404923 L 563.8633672284501 186.0520874129441 L 563.824626184058 184.81606471183898 L 563.7809641289831 183.58004201073385 L 563.7369256607349 182.34401930962878 L 563.6973802527868 181.10799660852365 L 563.6671178827526 179.87197390741852 L 563.6509561242585 178.6359512063134 L 563.6525855219718 177.39992850520827 L 563.6747475883486 176.16390580410314 L 563.7178207453247 174.927883102998 L 563.7815052841021 173.69186040189288 L 563.8632224155655 172.45583770078775 L 563.9590911742285 171.21981499968268 L 564.0638498902105 169.9837922985775 L 564.1718713683517 168.74776959747243 L 564.2771955714817 167.5117468963673 L 564.3741084498367 166.27572419526217 L 564.4577495463111 165.03970149415704 L 564.524303991709 163.80367879305197 L 564.5710567268393 162.56765609194684 L 564.5968878548412 161.33163339084172 L 564.601734298111 160.0956106897366 L 564.5871713164072 158.85958798863146 L 564.5555170374641 157.6235652875264 L 564.5102423525349 156.3875425864212 L 564.4553989369108 155.15151988531613 L 564.3954784149489 153.915497184211 L 564.3349826110974 152.67947448310588 L 564.2783911864633 151.44345178200075 L 564.2297178628922 150.20742908089562 L 564.1922056938606 148.9714063797905 L 564.1683152241002 147.73538367868537 L 564.1593057978371 146.4993609775803 L 564.1655184836598 145.2633382764751 L 564.1862675125033 144.02731557537004 L 564.2197697483664 142.7912928742649 L 564.2637670430117 141.55527017315978 L 564.3152975753723 140.31924747205466 L 564.3715650697437 139.08322477094953 L 564.4298381723812 137.8472020698444 L 564.4877043950589 136.61117936873927 L 564.5435348527053 135.3751566676342 L 564.5961147509048 134.13913396652902 L 564.644824334404 132.90311126542395 L 564.6893950231233 131.66708856431882 L 564.7297783987622 130.43106586321375 L 564.7661424628851 129.19504316210862 L 564.7984554565238 127.95902046100349 L 564.8264723920996 126.72299775989836 L 564.8497546177443 125.48697505879323 L 564.8675548536595 124.2509523576881 L 564.8792247785083 123.01492965658298 L 564.8836910784707 121.77890695547791 L 564.8800365939506 120.54288425437272 L 564.867438155601 119.30686155326765 L 564.845229318133 118.07083885216247 L 564.8128334281179 116.8348161510574 L 564.7702700213754 115.59879344995227 L 564.7178717744827 114.36277074884714 L 564.6565500322807 113.12674804774201 L 564.5880311628445 111.89072534663688 L 564.5145348703153 110.65470264553176 L 564.4391565806625 109.41867994442669 L 564.3654926479466 108.18265724332156 L 564.2975148381938 106.94663454221643 L 564.2392717452653 105.7106118411113 L 564.19452778562 104.47458914000617 L 564.1663836898427 103.23856643890105 L 564.1569669656226 102.00254373779592 L 564.1670301169196 100.76652103669085 L 564.1960975283941 99.53049833558572 L 564.2423050929318 98.29447563448059 L 564.3026677658039 97.05845293337546 L 564.3734063159881 95.82243023227039 L 564.4503484460881 94.58640753116526 L 564.5293432255945 93.35038483006014 L 564.6066304742526 92.11436212895501 L 564.6791200724062 90.87833942784988 L 564.7445561845934 89.64231672674475 L 564.8015630470513 88.40629402563962 L 564.8495876635518 87.1702713245345 L 564.8887673202441 85.93424862342937 L 564.9197550619903 84.69822592232424 L 564.943534783051 83.46220322121917 L 564.9612512432798 82.22618052011404 L 564.9740715175423 80.99015781900891 L 564.983130676428 79.75413511790373 L 564.9892668130907 78.51811241679866 L 564.993345667832 77.28208971569353 L 564.9959807105348 76.04606701458846 L 564.9976352565627 74.81004431348333 L 565.0023647434373 74.81004431348333 L 565.0040192894652 76.04606701458846 L 565.006654332168 77.28208971569353 L 565.0107331869093 78.51811241679866 L 565.016869323572 79.75413511790373 L 565.0259284824577 80.99015781900891 L 565.0387487567202 82.22618052011404 L 565.056465216949 83.46220322121917 L 565.0802449380097 84.69822592232424 L 565.1112326797559 85.93424862342937 L 565.1504123364482 87.1702713245345 L 565.1984369529487 88.40629402563962 L 565.2554438154066 89.64231672674475 L 565.3208799275938 90.87833942784988 L 565.3933695257474 92.11436212895501 L 565.4706567744055 93.35038483006014 L 565.5496515539119 94.58640753116526 L 565.6265936840119 95.82243023227039 L 565.6973322341961 97.05845293337546 L 565.7576949070682 98.29447563448059 L 565.8039024716059 99.53049833558572 L 565.8329698830804 100.76652103669085 L 565.8430330343774 102.00254373779592 L 565.8336163101573 103.23856643890105 L 565.80547221438 104.47458914000617 L 565.7607282547347 105.7106118411113 L 565.7024851618062 106.94663454221643 L 565.6345073520534 108.18265724332156 L 565.5608434193375 109.41867994442669 L 565.4854651296847 110.65470264553176 L 565.4119688371555 111.89072534663688 L 565.3434499677193 113.12674804774201 L 565.2821282255173 114.36277074884714 L 565.2297299786246 115.59879344995227 L 565.1871665718821 116.8348161510574 L 565.154770681867 118.07083885216247 L 565.132561844399 119.30686155326765 L 565.1199634060494 120.54288425437272 L 565.1163089215293 121.77890695547791 L 565.1207752214917 123.01492965658298 L 565.1324451463405 124.2509523576881 L 565.1502453822557 125.48697505879323 L 565.1735276079004 126.72299775989836 L 565.2015445434762 127.95902046100349 L 565.2338575371149 129.19504316210862 L 565.2702216012378 130.43106586321375 L 565.3106049768767 131.66708856431882 L 565.355175665596 132.90311126542395 L 565.4038852490952 134.13913396652902 L 565.4564651472947 135.3751566676342 L 565.5122956049411 136.61117936873927 L 565.5701618276188 137.8472020698444 L 565.6284349302563 139.08322477094953 L 565.6847024246277 140.31924747205466 L 565.7362329569883 141.55527017315978 L 565.7802302516336 142.7912928742649 L 565.8137324874967 144.02731557537004 L 565.8344815163402 145.2633382764751 L 565.8406942021629 146.4993609775803 L 565.8316847758998 147.73538367868537 L 565.8077943061394 148.9714063797905 L 565.7702821371078 150.20742908089562 L 565.7216088135367 151.44345178200075 L 565.6650173889026 152.67947448310588 L 565.6045215850511 153.915497184211 L 565.5446010630892 155.15151988531613 L 565.4897576474651 156.3875425864212 L 565.4444829625359 157.6235652875264 L 565.4128286835928 158.85958798863146 L 565.398265701889 160.0956106897366 L 565.4031121451588 161.33163339084172 L 565.4289432731607 162.56765609194684 L 565.475696008291 163.80367879305197 L 565.5422504536889 165.03970149415704 L 565.6258915501633 166.27572419526217 L 565.7228044285183 167.5117468963673 L 565.8281286316483 168.74776959747243 L 565.9361501097895 169.9837922985775 L 566.0409088257715 171.21981499968268 L 566.1367775844345 172.45583770078775 L 566.2184947158979 173.69186040189288 L 566.2821792546753 174.927883102998 L 566.3252524116514 176.16390580410314 L 566.3474144780282 177.39992850520827 L 566.3490438757415 178.6359512063134 L 566.3328821172474 179.87197390741852 L 566.3026197472132 181.10799660852365 L 566.2630743392651 182.34401930962878 L 566.2190358710169 183.58004201073385 L 566.175373815942 184.81606471183898 L 566.1366327715499 186.0520874129441 L 566.1064460050391 187.28811011404923 L 566.0877991102735 188.52413281515436 L 566.0828683849477 189.7601555162595 L 566.0927466055924 190.99617821736462 L 566.1177710553058 192.23220091846974 L 566.1572530484682 193.46822361957487 L 566.2098988518468 194.70424632068 L 566.2735198382152 195.94026902178507 L 566.3452908279274 197.1762917228902 L 566.4216438444608 198.41231442399527 L 566.4993142426468 199.6483371251004 L 566.5752610959692 200.88435982620553 L 566.6475605997847 202.12038252731065 L 566.7156427510151 203.35640522841578 L 566.7803339630113 204.5924279295209 L 566.8441097882288 205.82845063062604 L 566.9104383440061 207.06447333173116 L 566.9838955969365 208.3004960328363 L 567.0682698784516 209.53651873394136 L 567.1670178073281 210.7725414350465 L 567.2819589031782 212.00856413615162 L 567.4131429081289 213.24458683725675 L 567.5597445470293 214.48060953836188 L 567.7192432981353 215.716632239467 L 567.8896383457991 216.95265494057213 L 568.0684865521752 218.18867764167726 L 568.2549019229275 219.4247003427824 L 568.4494341740811 220.66072304388751 L 568.6537846069184 221.8967457449926 L 568.8704195069399 223.1327684460977 L 569.1017361103529 224.3687911472029 L 569.3499668272924 225.60481384830797 L 569.6154190261486 226.8408365494131 L 569.8976567067874 228.07685925051817 L 570.1942556652866 229.3128819516233 L 570.502213958032 230.54890465272842 L 570.8185182461805 231.78492735383355 L 571.1407143580814 233.02095005493862 L 571.4678520942098 234.2569727560438 L 571.8006597481996 235.49299545714894 L 572.1419295586568 236.72901815825404 L 572.4946058748365 237.96504085935914 L 572.861393764255 239.2010635604643 L 573.2438379930657 240.4370862615694 L 573.6407687782778 241.67310896267452 L 574.0490074195516 242.90913166377962 L 574.4618213819924 244.14515436488477 L 574.8711812227211 245.38117706598987 L 575.2682105631947 246.61719976709503 L 575.6436744264802 247.85322246820013 L 575.9916896084521 249.08924516930523 L 576.3078939101908 250.32526787041039 L 576.5913794161677 251.56129057151549 L 576.8443602203971 252.7973132726206 L 577.0717407155745 254.0333359737257 L 577.2812821727489 255.26935867483087 L 577.4827825475328 256.50538137593594 L 577.6874172698369 257.7414040770411 L 577.9072911228056 258.9774267781462 L 578.155103834515 260.2134494792513 L 578.4436981111942 261.44947218035645 L 578.7845389023806 262.6854948814616 L 579.1864097969284 263.9215175825667 L 579.6550773445744 265.1575402836718 L 580.1930639878377 266.3935629847769 L 580.7979257658945 267.62958568588203 L 581.4658786493953 268.86560838698716 L 582.1901689738052 270.1016310880923 L 582.9629597329929 271.3376537891974 L 583.778691480032 272.57367649030255 L 584.634134841081 273.8096991914077 L 585.5283060439199 275.0457218925128 L 586.461794300375 276.2817445936179 L 587.4350127976347 277.517767294723 L 588.4454264503735 278.75378999582813 L 589.4852887769349 279.98981269693326 L 590.5389275096401 281.2258353980384 L 591.5794601360149 282.4618580991435 L 592.5702143595839 283.69788080024864 L 593.4640866762843 284.9339035013537 L 594.2061671286881 286.16992620245884 L 594.737677163105 287.40594890356397 L 595 288.6419716046691 L 594.9416320063539 289.8779943057742 L 594.5224882940225 291.1140170068793 L 593.7190336329377 292.3500397079845 L 592.5291660317165 293.58606240908955 L 590.9731977985308 294.8220851101947 L 589.0938130568117 296.0581078112998 L 586.9538236608904 297.29413051240493 L 584.6317759333787 298.53015321351006 L 582.2140609668653 299.7661759146152 L 579.7893271996772 301.0021986157203 L 577.4408078691489 302.2382213168254 L 575.2403261667112 303.4742440179305 L 573.2428871065367 304.71026671903564 L 571.4848841932845 305.9462894201408 L 569.9835459681686 307.1823121212459 L 568.739513113867 308.41833482235097 L 567.7383252952516 309.65435752345616 L 566.9560849226947 310.8903802245612 L 566.3627474636547 312.1264029256664 L 565.9254161963796 313.3624256267715 L 565.6120557689188 314.5984483278766 L 565.3945835417912 315.83447102898174 L 565.2473635777229 317.0704937300868 L 565.1511223639726 318.306516431192 L 565.0892616686145 319.54253913229707 L 565.051268929363 320.77856183340225 Z" stroke="black" stroke-width="0.5" fill="steelblue" /></svg>