<svg xmlns="http://www.w3.org/2000/svg" width="679" height="541" fill="black"><rect width="100%" height="100%" fill="white" /><line x1="65" y1="492" x2="665" y2="492" stroke="black" stroke-width="1" /><line x1="65" y1="42" x2="65" y2="492" stroke="black" stroke-width="1" /><line x1="65" y1="299.14285714285717" x2="665" y2="299.14285714285717" stroke="#ccc" stroke-width="1" /><line x1="65" y1="170.57142857142856" x2="665" y2="170.57142857142856" stroke="#ccc" stroke-width="1" /><line x1="65" y1="42" x2="665" y2="42" stroke="#ccc" stroke-width="1" /><text x="165" y="507" font-size="10" text-anchor="middle">Normal</text><line x1="165" y1="492" x2="165" y2="497" stroke="black" stroke-width="1" /><text x="365" y="507" font-size="10" text-anchor="middle">Bimodal</text><line x1="365" y1="492" x2="365" y2="497" stroke="black" stroke-width="1" /><text x="565" y="507" font-size="10" text-anchor="middle">Skewed</text><line x1="565" y1="492" x2="565" y2="497" stroke="black" stroke-width="1" /><line x1="60" y1="427.7142857142857" x2="65" y2="427.7142857142857" stroke="black" stroke-width="1" /><text x="57" y="431.2142857142857" font-size="10" text-anchor="end">-5</text><line x1="60" y1="299.14285714285717" x2="65" y2="299.14285714285717" stroke="black" stroke-width="1" /><text x="57" y="302.64285714285717" font-size="10" text-anchor="end">0</text><line x1="60" y1="170.57142857142856" x2="65" y2="170.57142857142856" stroke="black" stroke-width="1" /><text x="57" y="174.07142857142856" font-size="10" text-anchor="end">5</text><line x1="60" y1="42" x2="65" y2="42" stroke="black" stroke-width="1" /><text x="57" y="45.5" font-size="10" text-anchor="end">10</text><text x="14" y="270.5" font-size="14" text-anchor="middle" transform="rotate(-90,14,270.5)">Value</text><text x="339.5" y="21" font-size="16" text-anchor="middle">Violin + Swarm Overlay</text><path d="M 164.99160814012484 385.1093748394731 L 164.98784442936557 384.18607593487036 L 164.9826707422014 383.26277703026767 L 164.97542929895235 382.339478125665 L 164.96600198310938 381.41617922106224 L 164.95368333389808 380.49288031645955 L 164.937870459902 379.5695814118568 L 164.9179325710462 378.6462825072541 L 164.8932430568084 377.7229836026514 L 164.862812813893 376.7996846980487 L 164.82631330580455 375.876385793446 L 164.78338527489484 374.95308688884325 L 164.73389419047325 374.02978798424056 L 164.67723376005864 373.1064890796378 L 164.61395480189043 372.18319017503507 L 164.5440968427887 371.2598912704324 L 164.46804929419164 370.3365923658297 L 164.38629297701638 369.41329346122694 L 164.29932389111997 368.48999455662425 L 164.20756369401207 367.5666956520215 L 164.11126770182946 366.6433967474188 L 164.0101443145647 365.72009784281613 L 163.90430815793312 364.7967989382134 L 163.79292924661902 363.8735000336107 L 163.67478421417516 362.95020112900795 L 163.54870744068583 362.02690222440526 L 163.4137853935394 361.1036033198026 L 163.26857622514854 360.1803044151998 L 163.11216118725244 359.2570055105971 L 162.94413080560295 358.3337066059944 L 162.7647815093586 357.4104077013917 L 162.5752673865243 356.48710879678896 L 162.3773896100933 355.5638098921862 L 162.1745817985963 354.6405109875835 L 161.96965261812878 353.71721208298084 L 161.7679742750638 352.7939131783781 L 161.5730370917066 351.87061427377535 L 161.38987904106415 350.94731536917266 L 161.2232941390132 350.02401646456997 L 161.0753475180537 349.1007175599672 L 160.94757020488822 348.17741865536453 L 160.8418163940775 347.2541197507618 L 160.75497772134742 346.3308208461591 L 160.6849897678407 345.4075219415564 L 160.62607975964244 344.48422303695367 L 160.57157999904504 343.5609241323509 L 160.51345967237606 342.63762522774823 L 160.44241460920802 341.71432632314554 L 160.3478901644403 340.79102741854285 L 160.2179427100317 339.8677285139401 L 160.04180101043607 338.94442960933736 L 159.80962004075815 338.0211307047347 L 159.50909265317208 337.097831800132 L 159.13234585580548 336.17453289552924 L 158.67032393801736 335.25123399092655 L 158.11689863479526 334.3279350863238 L 157.46815120587397 333.4046361817211 L 156.72297960321166 332.4813372771184 L 155.88322816991854 331.5580383725157 L 154.95596904000942 330.63473946791294 L 153.95058009215367 329.71144056331025 L 152.8797609208467 328.78814165870756 L 151.76146831058924 327.86484275410487 L 150.61428418590586 326.94154384950207 L 149.45944307374668 326.0182449448994 L 148.3190812892537 325.0949460402967 L 147.2151747528586 324.171647135694 L 146.16759241359438 323.24834823109126 L 145.19193071305898 322.32504932648857 L 144.30165368751824 321.4017504218858 L 143.50501568225806 320.47845151728313 L 142.8045357944687 319.5551526126804 L 142.19857778392065 318.63185370807764 L 141.6811186407843 317.70855480347495 L 141.24082294550087 316.78525589887226 L 140.86332535573501 315.8619569942695 L 140.53475158550805 314.9386580896668 L 140.23735152836582 314.0153591850641 L 139.955835526866 313.0920602804614 L 139.67592628342928 312.1687613758587 L 139.38594788276976 311.24546247125596 L 139.0773317125107 310.3221635666532 L 138.74503578765712 309.3988646620505 L 138.3881527236054 308.47556575744784 L 138.008802503885 307.5522668528451 L 137.6124372734635 306.6289679482424 L 137.2072965058106 305.70566904363966 L 136.80321778655025 304.78237013903697 L 136.41255957848028 303.8590712344343 L 136.04662780568157 302.9357723298315 L 135.71810066495226 302.0124734252288 L 135.43855227164775 301.0891745206261 L 135.21963986812705 300.1658756160234 L 135.07053133970336 299.2425767114207 L 135 298.319277806818 L 135.01546003617773 297.39597890221523 L 135.1229270390994 296.47267999761254 L 135.32697219702573 295.54938109300986 L 135.6312900652253 294.6260821884071 L 136.03699019519868 293.7027832838044 L 136.54195938223165 292.7794843792017 L 137.14561069303522 291.856185474599 L 137.84159622089123 290.93288656999624 L 138.6238439896769 290.0095876653935 L 139.47991662641988 289.0862887607908 L 140.39753251306388 288.1629898561881 L 141.36104523778687 287.23969095158543 L 142.35281545176576 286.3163920469827 L 143.3554251225758 285.39309314238 L 144.34946605525073 284.46979423777725 L 145.3185012050697 283.54649533317456 L 146.24719228527917 282.6231964285718 L 147.12356738954608 281.6998975239691 L 147.93731855409976 280.7765986193664 L 148.68349974944417 279.8532997147637 L 149.36115856365805 278.93000081016095 L 149.97128262906395 278.00670190555826 L 150.52094373071841 277.0834030009555 L 151.01825105912334 276.1601040963528 L 151.47238973717668 275.2368051917501 L 151.89375281044533 274.3135062871474 L 152.29258445110347 273.39020738254465 L 152.67784893604903 272.46690847794196 L 153.05654601617664 271.54360957333927 L 153.43616171614758 270.6203106687366 L 153.81790812199304 269.6970117641338 L 154.20419854654006 268.7737128595311 L 154.59450087726916 267.8504139549284 L 154.98709768683761 266.9271150503257 L 155.37883678395485 266.00381614572296 L 155.7665672441681 265.08051724112033 L 156.14825915869363 264.15721833651753 L 156.52169836153516 263.23391943191484 L 156.88462174534476 262.3106205273121 L 157.23789391461406 261.3873216227094 L 157.58207859977796 260.46402271810666 L 157.91800987868902 259.540723813504 L 158.2490922167619 258.6174249089013 L 158.57880297071912 257.69412600429854 L 158.9091172977135 256.7708270996958 L 159.2431094095147 255.84752819509308 L 159.58305810373378 254.92422929049042 L 159.92990409297792 254.00093038588764 L 160.28282297631824 253.07763148128498 L 160.6410509160935 252.1543325766822 L 161.00275663589187 251.23103367207955 L 161.36390177388787 250.3077347674768 L 161.72126542452867 249.38443586287408 L 162.07063917521285 248.46113695827137 L 162.40791939846227 247.5378380536687 L 162.72858293909465 246.61453914906593 L 163.0297801115968 245.69124024446327 L 163.30710974769008 244.76794133986053 L 163.55938146044596 243.8446424352578 L 163.7843010080623 242.9213435306551 L 163.9812108538508 241.99804462605243 L 164.14999806219936 241.07474572144966 L 164.29096423472936 240.151446816847 L 164.40484235959903 239.22814791224422 L 164.4936911236298 238.30484900764154 L 164.55811593460538 237.38155010303882 L 164.60062005446363 236.4582511984361 L 164.6232260182232 235.53495229383338 L 164.6286025311429 234.6116533892307 L 164.6179356352631 233.68835448462795 L 164.59469500772664 232.76505558002526 L 164.56087114962872 231.84175667542257 L 164.51956036879238 230.91845777081983 L 164.4735588630329 229.99515886621708 L 164.4257135005558 229.07185996161445 L 164.3788457129151 228.14856105701165 L 164.33583866901552 227.22526215240902 L 164.29872245531922 226.3019632478062 L 164.2703939414485 225.37866434320358 L 164.25135542216015 224.45536543860084 L 164.24350290118477 223.5320665339981 L 164.24735494597527 222.6087676293954 L 164.2628343022559 221.68546872479266 L 164.28928729094326 220.76216982018997 L 164.32574738466852 219.83887091558722 L 164.3701410195525 218.9155720109846 L 164.42090275945074 217.9922731063818 L 164.47598086174833 217.0689742017791 L 164.5333080764248 216.14567529717635 L 164.5909269156999 215.22237639257366 L 164.64709402711665 214.29907748797098 L 164.70035668312127 213.37577858336823 L 164.7495980732346 212.45247967876554 L 164.7940516957964 211.52918077416285 L 164.83328823182265 210.60588186956005 L 164.8671805190623 209.68258296495742 L 164.89585347513938 208.75928406035467 L 164.91962605766395 207.83598515575198 L 164.93895174672662 206.91268625114924 L 164.95436283088728 205.98938734654655 L 164.966422246583 205.0660884419438 L 164.97568512410285 204.14278953734112 L 164.9826707422014 203.21949063273837 L 164.98784442936557 202.29619172813568 L 164.99160814012484 201.372892823533 L 165.00839185987516 201.372892823533 L 165.01215557063443 202.29619172813568 L 165.0173292577986 203.21949063273837 L 165.02431487589715 204.14278953734112 L 165.033577753417 205.0660884419438 L 165.04563716911272 205.98938734654655 L 165.06104825327338 206.91268625114924 L 165.08037394233605 207.83598515575198 L 165.10414652486062 208.75928406035467 L 165.1328194809377 209.68258296495742 L 165.16671176817735 210.60588186956005 L 165.2059483042036 211.52918077416285 L 165.2504019267654 212.45247967876554 L 165.29964331687873 213.37577858336823 L 165.35290597288335 214.29907748797098 L 165.4090730843001 215.22237639257366 L 165.4666919235752 216.14567529717635 L 165.52401913825167 217.0689742017791 L 165.57909724054926 217.9922731063818 L 165.6298589804475 218.9155720109846 L 165.67425261533148 219.83887091558722 L 165.71071270905674 220.76216982018997 L 165.7371656977441 221.68546872479266 L 165.75264505402473 222.6087676293954 L 165.75649709881523 223.5320665339981 L 165.74864457783985 224.45536543860084 L 165.7296060585515 225.37866434320358 L 165.70127754468078 226.3019632478062 L 165.66416133098448 227.22526215240902 L 165.6211542870849 228.14856105701165 L 165.5742864994442 229.07185996161445 L 165.5264411369671 229.99515886621708 L 165.48043963120762 230.91845777081983 L 165.43912885037128 231.84175667542257 L 165.40530499227336 232.76505558002526 L 165.3820643647369 233.68835448462795 L 165.3713974688571 234.6116533892307 L 165.3767739817768 235.53495229383338 L 165.39937994553637 236.4582511984361 L 165.44188406539462 237.38155010303882 L 165.5063088763702 238.30484900764154 L 165.59515764040097 239.22814791224422 L 165.70903576527064 240.151446816847 L 165.85000193780064 241.07474572144966 L 166.0187891461492 241.99804462605243 L 166.2156989919377 242.9213435306551 L 166.44061853955404 243.8446424352578 L 166.69289025230992 244.76794133986053 L 166.9702198884032 245.69124024446327 L 167.27141706090535 246.61453914906593 L 167.59208060153773 247.5378380536687 L 167.92936082478715 248.46113695827137 L 168.27873457547133 249.38443586287408 L 168.63609822611213 250.3077347674768 L 168.99724336410813 251.23103367207955 L 169.3589490839065 252.1543325766822 L 169.71717702368176 253.07763148128498 L 170.07009590702208 254.00093038588764 L 170.41694189626622 254.92422929049042 L 170.7568905904853 255.84752819509308 L 171.0908827022865 256.7708270996958 L 171.42119702928088 257.69412600429854 L 171.7509077832381 258.6174249089013 L 172.08199012131098 259.540723813504 L 172.41792140022204 260.46402271810666 L 172.76210608538594 261.3873216227094 L 173.11537825465524 262.3106205273121 L 173.47830163846484 263.23391943191484 L 173.85174084130637 264.15721833651753 L 174.2334327558319 265.08051724112033 L 174.62116321604515 266.00381614572296 L 175.01290231316239 266.9271150503257 L 175.40549912273084 267.8504139549284 L 175.79580145345994 268.7737128595311 L 176.18209187800696 269.6970117641338 L 176.56383828385242 270.6203106687366 L 176.94345398382336 271.54360957333927 L 177.32215106395097 272.46690847794196 L 177.70741554889653 273.39020738254465 L 178.10624718955467 274.3135062871474 L 178.52761026282332 275.2368051917501 L 178.98174894087666 276.1601040963528 L 179.47905626928159 277.0834030009555 L 180.02871737093605 278.00670190555826 L 180.63884143634195 278.93000081016095 L 181.31650025055583 279.8532997147637 L 182.06268144590024 280.7765986193664 L 182.87643261045392 281.6998975239691 L 183.75280771472083 282.6231964285718 L 184.6814987949303 283.54649533317456 L 185.65053394474927 284.46979423777725 L 186.6445748774242 285.39309314238 L 187.64718454823424 286.3163920469827 L 188.63895476221313 287.23969095158543 L 189.60246748693612 288.1629898561881 L 190.52008337358012 289.0862887607908 L 191.3761560103231 290.0095876653935 L 192.15840377910877 290.93288656999624 L 192.85438930696478 291.856185474599 L 193.45804061776835 292.7794843792017 L 193.96300980480132 293.7027832838044 L 194.3687099347747 294.6260821884071 L 194.67302780297427 295.54938109300986 L 194.8770729609006 296.47267999761254 L 194.98453996382227 297.39597890221523 L 195 298.319277806818 L 194.92946866029664 299.2425767114207 L 194.78036013187295 300.1658756160234 L 194.56144772835225 301.0891745206261 L 194.28189933504774 302.0124734252288 L 193.95337219431843 302.9357723298315 L 193.58744042151972 303.8590712344343 L 193.19678221344975 304.78237013903697 L 192.7927034941894 305.70566904363966 L 192.3875627265365 306.6289679482424 L 191.991197496115 307.5522668528451 L 191.6118472763946 308.47556575744784 L 191.25496421234288 309.3988646620505 L 190.9226682874893 310.3221635666532 L 190.61405211723024 311.24546247125596 L 190.32407371657072 312.1687613758587 L 190.044164473134 313.0920602804614 L 189.76264847163418 314.0153591850641 L 189.46524841449195 314.9386580896668 L 189.13667464426499 315.8619569942695 L 188.75917705449913 316.78525589887226 L 188.3188813592157 317.70855480347495 L 187.80142221607935 318.63185370807764 L 187.1954642055313 319.5551526126804 L 186.49498431774194 320.47845151728313 L 185.69834631248176 321.4017504218858 L 184.80806928694102 322.32504932648857 L 183.83240758640562 323.24834823109126 L 182.7848252471414 324.171647135694 L 181.6809187107463 325.0949460402967 L 180.54055692625332 326.0182449448994 L 179.38571581409414 326.94154384950207 L 178.23853168941076 327.86484275410487 L 177.1202390791533 328.78814165870756 L 176.04941990784633 329.71144056331025 L 175.04403095999058 330.63473946791294 L 174.11677183008146 331.5580383725157 L 173.27702039678834 332.4813372771184 L 172.53184879412603 333.4046361817211 L 171.88310136520474 334.3279350863238 L 171.32967606198264 335.25123399092655 L 170.86765414419452 336.17453289552924 L 170.49090734682792 337.097831800132 L 170.19037995924185 338.0211307047347 L 169.95819898956393 338.94442960933736 L 169.7820572899683 339.8677285139401 L 169.6521098355597 340.79102741854285 L 169.55758539079198 341.71432632314554 L 169.48654032762394 342.63762522774823 L 169.42842000095496 343.5609241323509 L 169.37392024035756 344.48422303695367 L 169.3150102321593 345.4075219415564 L 169.24502227865258 346.3308208461591 L 169.1581836059225 347.2541197507618 L 169.05242979511178 348.17741865536453 L 168.9246524819463 349.1007175599672 L 168.7767058609868 350.02401646456997 L 168.61012095893585 350.94731536917266 L 168.4269629082934 351.87061427377535 L 168.2320257249362 352.7939131783781 L 168.03034738187122 353.71721208298084 L 167.8254182014037 354.6405109875835 L 167.6226103899067 355.5638098921862 L 167.4247326134757 356.48710879678896 L 167.2352184906414 357.4104077013917 L 167.05586919439705 358.3337066059944 L 166.88783881274756 359.2570055105971 L 166.73142377485146 360.1803044151998 L 166.5862146064606 361.1036033198026 L 166.45129255931417 362.02690222440526 L 166.32521578582484 362.95020112900795 L 166.20707075338098 363.8735000336107 L 166.09569184206688 364.7967989382134 L 165.9898556854353 365.72009784281613 L 165.88873229817054 366.6433967474188 L 165.79243630598793 367.5666956520215 L 165.70067610888003 368.48999455662425 L 165.61370702298362 369.41329346122694 L 165.53195070580836 370.3365923658297 L 165.4559031572113 371.2598912704324 L 165.38604519810957 372.18319017503507 L 165.32276623994136 373.1064890796378 L 165.26610580952675 374.02978798424056 L 165.21661472510516 374.95308688884325 L 165.17368669419545 375.876385793446 L 165.137187186107 376.7996846980487 L 165.1067569431916 377.7229836026514 L 165.0820674289538 378.6462825072541 L 165.062129540098 379.5695814118568 L 165.04631666610192 380.49288031645955 L 165.03399801689062 381.41617922106224 L 165.02457070104765 382.339478125665 L 165.0173292577986 383.26277703026767 L 165.01215557063443 384.18607593487036 L 165.00839185987516 385.1093748394731 Z" stroke="black" stroke-width="0.5" fill="steelblue" /><path d="M 364.98858841943894 438.07700510128166 L 364.9850757995651 436.6344498749908 L 364.9806602665732 435.1918946487 L 364.9745515320541 433.74933942240915 L 364.96721844258695 432.3067841961183 L 364.9581043411302 430.8642289698275 L 364.94605135031225 429.42167374353664 L 364.9318472332437 427.9791185172458 L 364.9145827583319 426.536563290955 L 364.89274733346315 425.09400806466414 L 364.8665980578194 423.6514528383733 L 364.83489318030524 422.20889761208247 L 364.79643513584176 420.76634238579163 L 364.74995164569225 419.3237871595008 L 364.69513218770516 417.88123193320996 L 364.6301748844835 416.4386767069191 L 364.5531396750992 414.9961214806283 L 364.4621759883049 413.5535662543375 L 364.3557546317404 412.1110110280467 L 364.23139270202074 410.66845580175584 L 364.08722072172105 409.225900575465 L 363.9206337926192 407.78334534917417 L 363.72887458345446 406.34079012288333 L 363.50884895394273 404.8982348965925 L 363.25911351419 403.4556796703017 L 362.97530887301684 402.0131244440108 L 362.65580558108775 400.57056921772 L 362.2968888716388 399.12801399142916 L 361.89595618037083 397.6854587651384 L 361.4505564092481 396.24290353884754 L 360.958008200812 394.8003483125567 L 360.4160923108526 393.3577930862658 L 359.82293385180475 391.91523785997504 L 359.17708116450376 390.4726826336842 L 358.4775856718982 389.03012740739337 L 357.7240806584938 387.58757218110253 L 356.9168566829807 386.1450169548117 L 356.0569311526815 384.70246172852086 L 355.14589662481393 383.25990650223 L 354.1867453683969 381.8173512759392 L 353.18283442991935 380.37479604964835 L 352.13857018653107 378.9322408233575 L 351.05925554829366 377.4896855970667 L 349.9510729621689 376.04713037077585 L 348.8210467439098 374.604575144485 L 347.6769842078664 373.16201991819423 L 346.5273957199754 371.71946469190334 L 345.3813944941925 370.27690946561256 L 344.2485776582221 368.83435423932167 L 343.13889079902026 367.3917990130309 L 342.06247882987094 365.94924378674006 L 341.0295265677638 364.5066885604492 L 340.0500928444034 363.0641333341584 L 339.1339422735389 361.62157810786755 L 338.2903789451437 360.1790228815767 L 337.52808630481366 358.7364676552859 L 336.85497730460213 357.29391242899504 L 336.2780585879918 355.8513572027042 L 335.803312013488 354.40880197641343 L 335.43534866050743 352.96624675012254 L 335.17823436041385 351.52369152383176 L 335.0341882870828 350.08113629754087 L 335.0043284764081 348.6385810712501 L 335.0884858953592 347.1960258449592 L 335.2852231860039 345.7534706186684 L 335.59163096436936 344.3109153923775 L 336.00427997141384 342.86836016608675 L 336.51806714965113 341.42580493979585 L 337.1262804972436 339.9832497135051 L 337.8231991191998 338.54069448721424 L 338.6008038535439 337.0981392609234 L 339.45104764650176 335.65558403463257 L 340.36476924212246 334.21302880834173 L 341.3329859925999 332.77047358205095 L 342.3457375728776 331.32791835576006 L 343.39430885931455 329.8853631294693 L 344.46849829486825 328.4428079031784 L 345.55830226078507 327.0002526768876 L 346.6557301696558 325.5576974505967 L 347.7506506474294 324.11514222430594 L 348.8348392198568 322.67258699801505 L 349.9000406842474 321.23003177172427 L 350.9388164706555 319.78747654543344 L 351.943662856042 318.3449213191426 L 352.9081135233788 316.90236609285176 L 353.82669477263283 315.45981086656093 L 354.69377123092204 314.0172556402701 L 355.5048739639731 312.57470041397926 L 356.25518322018866 311.1321451876884 L 356.9414517735951 309.6895899613976 L 357.561066087733 308.2470347351068 L 358.1104998217658 306.8044795088159 L 358.5882922452411 305.36192428252514 L 358.99244753722854 303.91936905623425 L 359.32073335011626 302.47681382994347 L 359.57315488363645 301.0342586036526 L 359.7482467494528 299.5917033773618 L 359.845155302235 298.1491481510709 L 359.86349714171047 296.7065929247801 L 359.8034662286584 295.26403769848923 L 359.6639096746427 293.82148247219845 L 359.44561408316 292.3789272459076 L 359.1486961383375 290.9363720196168 L 358.77378671440255 289.49381679332595 L 358.3215514639175 288.0512615670351 L 357.79427454517236 286.6087063407443 L 357.19220952881483 285.16615111445344 L 356.5182747241715 283.72359588816266 L 355.77586404036924 282.28104066187177 L 354.96736559333164 280.838485435581 L 354.0968170062069 279.3959302092901 L 353.16983251718915 277.9533749829993 L 352.19150447018814 276.51081975670843 L 351.1679307592973 275.06826453041765 L 350.1064042484335 273.6257093041268 L 349.01500844316126 272.183154077836 L 347.90140495877006 270.74059885154514 L 346.77500476416355 269.2980436252543 L 345.6454275634796 267.8554883989635 L 344.52331655008817 266.41293317267264 L 343.4185160942961 264.97037794638186 L 342.3414143448661 263.52782272009097 L 341.30297593230796 262.08526749380013 L 340.31323489292805 260.6427122675093 L 339.38257712418704 259.2001570412185 L 338.5210371745343 257.7576018149276 L 337.73699461958097 256.31504658863685 L 337.03895965656085 254.87249136234598 L 336.43467073439604 253.42993613605515 L 335.9302310575827 251.98738090976434 L 335.5311298338329 250.5448256834735 L 335.24124907539385 249.10227045718264 L 335.06368955422977 247.65971523089186 L 335 246.217160004601 L 335.0504376120461 244.77460477831016 L 335.2139808735835 243.3320495520193 L 335.48836500285745 241.88949432572852 L 335.8701384021935 240.44693909943766 L 336.35473804583705 239.00438387314682 L 336.9365814306928 237.56182864685601 L 337.6091725000627 236.11927342056518 L 338.3654000726072 234.67671819427432 L 339.1968892221092 233.23416296798354 L 340.09538124913655 231.7916077416927 L 341.05196642946174 230.3490525154018 L 342.05746690851856 228.9064972891111 L 343.10257046243396 227.4639420628202 L 344.1779605706066 226.02138683652936 L 345.2744408345858 224.57883161023852 L 346.3830519625471 223.13627638394775 L 347.4951797255885 221.69372115765685 L 348.60265248327977 220.25116593136602 L 349.6978270750159 218.80861070507518 L 350.7736620850023 217.3660554787844 L 351.8237777158866 215.9235002524935 L 352.84250175138624 214.48094502620273 L 353.8249013517069 213.03838979991184 L 354.76680070431587 211.59583457362106 L 355.6647848411181 210.15327934733023 L 356.5161902230904 208.7107241210394 L 357.31908297478503 207.2681688947485 L 358.07222591248006 205.82561366845778 L 358.7751910930922 204.38305844216688 L 359.42764466675555 202.94050321587605 L 360.0303605376608 201.4979479895852 L 360.5843832963089 200.05539276329444 L 361.09117545714247 198.61283753700354 L 361.55255062146176 197.1702823107127 L 361.9707643744435 195.72772708442187 L 362.3477774438806 194.2851718581311 L 362.68687533200085 192.8426166318402 L 362.9892806878718 191.40006140554942 L 363.2585913095028 189.95750617925853 L 363.4972187935638 188.51495095296775 L 363.7075812796592 187.07239572667686 L 363.892597027717 185.62984050038608 L 364.0546987745742 184.1872852740952 L 364.1958699130702 182.74473004780447 L 364.31843773851375 181.30217482151352 L 364.4244081629606 179.85961959522274 L 364.51615985334104 178.4170643689319 L 364.5942943341251 176.97450914264112 L 364.6610657116423 175.53195391635018 L 364.7180826005949 174.0893986900594 L 364.76622109488164 172.64684346376856 L 364.8068918238283 171.20428823747773 L 364.8415220791011 169.76173301118683 L 364.8703208753689 168.3191777848961 L 364.89403872186693 166.87662255860522 L 364.9135962492141 165.43406733231438 L 364.9300331090657 163.99151210602355 L 364.94376480996596 162.54895687973277 L 364.95484561791227 161.10640165344188 L 364.9641055158467 159.6638464271511 L 364.97166935704735 158.2212912008602 L 364.97743220330756 156.77873597456943 L 364.9826719504902 155.3361807482786 L 364.98681059511364 153.89362552198776 L 364.98979843747304 152.45107029569687 L 364.9923335724823 151.0085150694061 L 365.0076664275177 151.0085150694061 L 365.01020156252696 152.45107029569687 L 365.01318940488636 153.89362552198776 L 365.0173280495098 155.3361807482786 L 365.02256779669244 156.77873597456943 L 365.02833064295265 158.2212912008602 L 365.0358944841533 159.6638464271511 L 365.04515438208773 161.10640165344188 L 365.05623519003404 162.54895687973277 L 365.0699668909343 163.99151210602355 L 365.0864037507859 165.43406733231438 L 365.10596127813307 166.87662255860522 L 365.1296791246311 168.3191777848961 L 365.1584779208989 169.76173301118683 L 365.1931081761717 171.20428823747773 L 365.23377890511836 172.64684346376856 L 365.2819173994051 174.0893986900594 L 365.3389342883577 175.53195391635018 L 365.4057056658749 176.97450914264112 L 365.48384014665896 178.4170643689319 L 365.5755918370394 179.85961959522274 L 365.68156226148625 181.30217482151352 L 365.8041300869298 182.74473004780447 L 365.9453012254258 184.1872852740952 L 366.107402972283 185.62984050038608 L 366.2924187203408 187.07239572667686 L 366.5027812064362 188.51495095296775 L 366.7414086904972 189.95750617925853 L 367.0107193121282 191.40006140554942 L 367.31312466799915 192.8426166318402 L 367.6522225561194 194.2851718581311 L 368.0292356255565 195.72772708442187 L 368.44744937853824 197.1702823107127 L 368.90882454285753 198.61283753700354 L 369.4156167036911 200.05539276329444 L 369.9696394623392 201.4979479895852 L 370.57235533324445 202.94050321587605 L 371.2248089069078 204.38305844216688 L 371.92777408751994 205.82561366845778 L 372.68091702521497 207.2681688947485 L 373.4838097769096 208.7107241210394 L 374.3352151588819 210.15327934733023 L 375.23319929568413 211.59583457362106 L 376.1750986482931 213.03838979991184 L 377.15749824861376 214.48094502620273 L 378.1762222841134 215.9235002524935 L 379.2263379149977 217.3660554787844 L 380.3021729249841 218.80861070507518 L 381.39734751672023 220.25116593136602 L 382.5048202744115 221.69372115765685 L 383.6169480374529 223.13627638394775 L 384.7255591654142 224.57883161023852 L 385.8220394293934 226.02138683652936 L 386.89742953756604 227.4639420628202 L 387.94253309148144 228.9064972891111 L 388.94803357053826 230.3490525154018 L 389.90461875086345 231.7916077416927 L 390.8031107778908 233.23416296798354 L 391.6345999273928 234.67671819427432 L 392.3908274999373 236.11927342056518 L 393.0634185693072 237.56182864685601 L 393.64526195416295 239.00438387314682 L 394.1298615978065 240.44693909943766 L 394.51163499714255 241.88949432572852 L 394.7860191264165 243.3320495520193 L 394.9495623879539 244.77460477831016 L 395 246.217160004601 L 394.93631044577023 247.65971523089186 L 394.75875092460615 249.10227045718264 L 394.4688701661671 250.5448256834735 L 394.0697689424173 251.98738090976434 L 393.56532926560396 253.42993613605515 L 392.96104034343915 254.87249136234598 L 392.26300538041903 256.31504658863685 L 391.4789628254657 257.7576018149276 L 390.61742287581296 259.2001570412185 L 389.68676510707195 260.6427122675093 L 388.69702406769204 262.08526749380013 L 387.6585856551339 263.52782272009097 L 386.5814839057039 264.97037794638186 L 385.47668344991183 266.41293317267264 L 384.3545724365204 267.8554883989635 L 383.22499523583645 269.2980436252543 L 382.09859504122994 270.74059885154514 L 380.98499155683874 272.183154077836 L 379.8935957515665 273.6257093041268 L 378.8320692407027 275.06826453041765 L 377.80849552981186 276.51081975670843 L 376.83016748281085 277.9533749829993 L 375.9031829937931 279.3959302092901 L 375.03263440666836 280.838485435581 L 374.22413595963076 282.28104066187177 L 373.4817252758285 283.72359588816266 L 372.80779047118517 285.16615111445344 L 372.20572545482764 286.6087063407443 L 371.6784485360825 288.0512615670351 L 371.22621328559745 289.49381679332595 L 370.8513038616625 290.9363720196168 L 370.55438591684 292.3789272459076 L 370.3360903253573 293.82148247219845 L 370.1965337713416 295.26403769848923 L 370.13650285828953 296.7065929247801 L 370.154844697765 298.1491481510709 L 370.2517532505472 299.5917033773618 L 370.42684511636355 301.0342586036526 L 370.67926664988374 302.47681382994347 L 371.00755246277146 303.91936905623425 L 371.4117077547589 305.36192428252514 L 371.8895001782342 306.8044795088159 L 372.438933912267 308.2470347351068 L 373.0585482264049 309.6895899613976 L 373.74481677981134 311.1321451876884 L 374.4951260360269 312.57470041397926 L 375.30622876907796 314.0172556402701 L 376.17330522736717 315.45981086656093 L 377.0918864766212 316.90236609285176 L 378.056337143958 318.3449213191426 L 379.0611835293445 319.78747654543344 L 380.0999593157526 321.23003177172427 L 381.1651607801432 322.67258699801505 L 382.2493493525706 324.11514222430594 L 383.3442698303442 325.5576974505967 L 384.44169773921493 327.0002526768876 L 385.53150170513175 328.4428079031784 L 386.60569114068545 329.8853631294693 L 387.6542624271224 331.32791835576006 L 388.6670140074001 332.77047358205095 L 389.63523075787754 334.21302880834173 L 390.54895235349824 335.65558403463257 L 391.3991961464561 337.0981392609234 L 392.1768008808002 338.54069448721424 L 392.8737195027564 339.9832497135051 L 393.48193285034887 341.42580493979585 L 393.99572002858616 342.86836016608675 L 394.40836903563064 344.3109153923775 L 394.7147768139961 345.7534706186684 L 394.9115141046408 347.1960258449592 L 394.9956715235919 348.6385810712501 L 394.9658117129172 350.08113629754087 L 394.82176563958615 351.52369152383176 L 394.56465133949257 352.96624675012254 L 394.196687986512 354.40880197641343 L 393.7219414120082 355.8513572027042 L 393.14502269539787 357.29391242899504 L 392.47191369518634 358.7364676552859 L 391.7096210548563 360.1790228815767 L 390.8660577264611 361.62157810786755 L 389.9499071555966 363.0641333341584 L 388.9704734322362 364.5066885604492 L 387.93752117012906 365.94924378674006 L 386.86110920097974 367.3917990130309 L 385.7514223417779 368.83435423932167 L 384.6186055058075 370.27690946561256 L 383.4726042800246 371.71946469190334 L 382.3230157921336 373.16201991819423 L 381.1789532560902 374.604575144485 L 380.0489270378311 376.04713037077585 L 378.94074445170634 377.4896855970667 L 377.86142981346893 378.9322408233575 L 376.81716557008065 380.37479604964835 L 375.8132546316031 381.8173512759392 L 374.85410337518607 383.25990650223 L 373.9430688473185 384.70246172852086 L 373.0831433170193 386.1450169548117 L 372.2759193415062 387.58757218110253 L 371.5224143281018 389.03012740739337 L 370.82291883549624 390.4726826336842 L 370.17706614819525 391.91523785997504 L 369.5839076891474 393.3577930862658 L 369.041991799188 394.8003483125567 L 368.5494435907519 396.24290353884754 L 368.10404381962917 397.6854587651384 L 367.7031111283612 399.12801399142916 L 367.34419441891225 400.57056921772 L 367.02469112698316 402.0131244440108 L 366.74088648581 403.4556796703017 L 366.49115104605727 404.8982348965925 L 366.27112541654554 406.34079012288333 L 366.0793662073808 407.78334534917417 L 365.91277927827895 409.225900575465 L 365.76860729797926 410.66845580175584 L 365.6442453682596 412.1110110280467 L 365.5378240116951 413.5535662543375 L 365.4468603249008 414.9961214806283 L 365.3698251155165 416.4386767069191 L 365.30486781229484 417.88123193320996 L 365.25004835430775 419.3237871595008 L 365.20356486415824 420.76634238579163 L 365.16510681969476 422.20889761208247 L 365.1334019421806 423.6514528383733 L 365.10725266653685 425.09400806466414 L 365.0854172416681 426.536563290955 L 365.0681527667563 427.9791185172458 L 365.05394864968775 429.42167374353664 L 365.0418956588698 430.8642289698275 L 365.03278155741305 432.3067841961183 L 365.0254484679459 433.74933942240915 L 365.0193397334268 435.1918946487 L 365.0149242004349 436.6344498749908 L 365.01141158056106 438.07700510128166 Z" stroke="black" stroke-width="0.5" fill="steelblue" /><path d="M 564.9361333189227 324.1313013143131 L 564.8957340661005 322.86003911823775 L 564.8346937481684 321.5887769221624 L 564.7429915910163 320.3175147260871 L 564.6091728475649 319.0462525300118 L 564.4181257880341 317.77499033393644 L 564.1521493291233 316.5037281378612 L 563.7887765493473 315.23246594178585 L 563.3042458239192 313.9612037457105 L 562.6744467520078 312.6899415496352 L 561.8740438449 311.41867935355987 L 560.880610905301 310.1474171574845 L 559.6763909529205 308.8761549614092 L 558.2513455685018 307.6048927653339 L 556.606662657663 306.33363056925856 L 554.7556413920769 305.06236837318323 L 552.7255025067791 303.79110617710796 L 550.5576871437446 302.51984398103264 L 548.3061895738521 301.2485817849573 L 546.0359062745371 299.977319588882 L 543.8184113527647 298.70605739280666 L 541.7270016490623 297.43479519673133 L 539.8320319423182 296.163533000656 L 538.1959871863975 294.8922708045807 L 536.868698143607 293.62100860850535 L 535.8843745100626 292.34974641243 L 535.2614526424501 291.0784842163547 L 535 289.80722202027937 L 535.0847065915113 288.53595982420404 L 535.4862414131749 287.2646976281287 L 536.1644519314657 285.9934354320534 L 537.0731857743834 284.72217323597806 L 538.1619416771433 283.45091103990273 L 539.3804228916856 282.1796488438274 L 540.6804292997647 280.9083866477521 L 542.018154411627 279.63712445167675 L 543.355553626822 278.3658622556014 L 544.6617537032083 277.09460005952616 L 545.9121805791153 275.8233378634508 L 547.0892386576883 274.5520756673755 L 548.1815770612204 273.2808134713002 L 549.1833180712315 272.00955127522485 L 550.0928736380256 270.7382890791495 L 550.9122489412872 269.46702688307425 L 551.6466254074212 268.19576468699887 L 552.3017743442447 266.9245024909236 L 552.8851437082136 265.6532402948483 L 553.4045403861255 264.38197809877295 L 553.8674027718743 263.1107159026976 L 554.2795815005524 261.8394537066223 L 554.6502184469089 260.56819151054697 L 554.9856175259914 259.29692931447164 L 555.293972485211 258.0256671183963 L 555.5810892902414 256.754404922321 L 555.8550607315636 255.48314272624566 L 556.1219985464406 254.2118805301704 L 556.3893859313142 252.94061833409503 L 556.6616635459268 251.6693561380197 L 556.9421349501889 250.39809394194438 L 557.232117808071 249.12683174586908 L 557.5324899762808 247.8555695497937 L 557.8403141754901 246.58430735371843 L 558.1511014183536 245.31304515764305 L 558.459849931464 244.0417829615678 L 558.7607665785192 242.77052076549242 L 559.0482677766877 241.49925856941712 L 559.3171609134282 240.22799637334174 L 559.5626248219995 238.95673417726653 L 559.7830637688309 237.68547198119114 L 559.9779633398757 236.41420978511584 L 560.1481437778785 235.1429475890405 L 560.2976452365469 233.87168539296516 L 560.4297917189114 232.60042319688984 L 560.5503149823875 231.3291610008145 L 560.6644962375623 230.05789880473924 L 560.7779097209345 228.7866366086639 L 560.8950854954267 227.51537441258853 L 561.0199284746363 226.2441122165132 L 561.1551020512367 224.97285002043793 L 561.3002175392378 223.7015878243626 L 561.4547773268266 222.43032562828728 L 561.6160762936224 221.15906343221195 L 561.7804611133403 219.88780123613662 L 561.9436144513819 218.6165390400613 L 562.1003518824836 217.34527684398597 L 562.2466683527911 216.07401464791064 L 562.3794537625823 214.80275245183537 L 562.4968833082687 213.53149025576005 L 562.5989999786913 212.26022805968466 L 562.6882391560306 210.98896586360934 L 562.7673871442511 209.71770366753407 L 562.8416029009717 208.44644147145874 L 562.9160091018988 207.1751792753834 L 562.9955737566363 205.9039170793081 L 563.0844291768257 204.63265488323276 L 563.1854413110681 203.36139268715743 L 563.2995324069765 202.0901304910821 L 563.4253321634435 200.81886829500678 L 563.5607406147552 199.5476060989315 L 563.701250865549 198.27634390285613 L 563.8420345964302 197.0050817067808 L 563.9776686259788 195.73381951070547 L 564.1029817614535 194.4625573146302 L 564.2138295611314 193.19129511855482 L 564.3063679648096 191.92003292247955 L 564.379372066037 190.64877072640422 L 564.4323499433856 189.3775085303289 L 564.466390758994 188.1062463342535 L 564.4841761413016 186.83498413817824 L 564.4892354362818 185.56372194210292 L 564.4853817782551 184.29245974602765 L 564.4770717732778 183.02119754995226 L 564.468561458418 181.74993535387694 L 564.4631645282831 180.4786731578016 L 564.4639612912058 179.20741096172634 L 564.472854337666 177.93614876565096 L 564.490727031255 176.66488656957569 L 564.5174737157087 175.39362437350036 L 564.5518699637986 174.12236217742498 L 564.5925983652595 172.85109998134965 L 564.6375599572037 171.57983778527432 L 564.6842146272852 170.30857558919905 L 564.7302922835975 169.03731339312372 L 564.7740360055798 167.7660511970484 L 564.8134049830053 166.49478900097307 L 564.8472675499106 165.22352680489774 L 564.874647973912 163.95226460882242 L 564.894902933149 162.6810024127471 L 564.9076476519166 161.40974021667182 L 564.9126824494692 160.1384780205965 L 564.909937871176 158.8672158245211 L 564.8994511044864 157.59595362844578 L 564.8813789710298 156.3246914323705 L 564.8560445911661 155.0534292362952 L 564.8240070506132 153.78216704021986 L 564.7861372452095 152.51090484414453 L 564.7436796031864 151.2396426480692 L 564.698279388827 149.96838045199388 L 564.651959141419 148.69711825591855 L 564.6070352452383 147.42585605984323 L 564.5659756858448 146.1545938637679 L 564.5313794650593 144.88333166769263 L 564.505012074072 143.61206947161725 L 564.4888724018899 142.34080727554192 L 564.4840287629543 141.0695450794666 L 564.4908062206287 139.79828288339132 L 564.5087504992539 138.52702068731594 L 564.5366783542976 137.25575849124067 L 564.5728066395228 135.98449629516534 L 564.6149405078187 134.71323409909002 L 564.6604368041955 133.44197190301463 L 564.7072507945438 132.17070970693936 L 564.7530535375363 130.89944751086404 L 564.7957641636511 129.62818531478877 L 564.8342384869663 128.35692311871338 L 564.8673008009268 127.08566092263806 L 564.8942681079078 125.81439872656273 L 564.9147316958229 124.54313653048746 L 564.9284447814481 123.27187433441208 L 564.9352080159392 122.0006121383368 L 564.9347716768152 120.72934994226148 L 564.9267703144926 119.4580877461861 L 564.9107014077533 118.18682555011077 L 564.8859545672293 116.9155633540355 L 564.8518921488619 115.64430115796017 L 564.8079758641023 114.37303896188484 L 564.7539272941542 113.10177676580952 L 564.6899036406583 111.83051456973419 L 564.6166644781763 110.55925237365886 L 564.5357019299965 109.28799017758354 L 564.4493068437449 108.01672798150821 L 564.3606752904402 106.74546578543294 L 564.2732200769028 105.47420358935761 L 564.1913160862442 104.20294139328223 L 564.1192434307316 102.9316791972069 L 564.0610560567153 101.66041700113163 L 564.0202071107457 100.38915480505631 L 563.9992109660499 99.11789260898098 L 563.9993877258098 97.84663041290565 L 564.0207261995828 96.57536821683033 L 564.0618850727988 95.304106020755 L 564.1203320998866 94.03284382467967 L 564.1926012934464 92.76158162860435 L 564.2746318922653 91.49031943252908 L 564.3621431940966 90.21905723645375 L 564.4509975509031 88.94779504037837 L 564.5375097142676 87.6765328443031 L 564.618672572487 86.40527064822777 L 564.6922844349082 85.13400845215244 L 564.7569783757642 83.86274625607712 L 564.8121670875427 82.59148406000179 L 564.857925408352 81.32022186392646 L 564.8948364660757 80.04895966785114 L 564.9238265562628 78.77769747177575 L 564.9460095492012 77.50643527570043 L 564.9625553055757 76.23517307962516 L 564.9745897775138 74.96391088354983 L 564.9831283998391 73.69264868747445 L 564.9890397993225 72.42138649139912 L 564.9930340551002 71.15012429532385 L 565.0069659448998 71.15012429532385 L 565.0109602006775 72.42138649139912 L 565.0168716001609 73.69264868747445 L 565.0254102224862 74.96391088354983 L 565.0374446944243 76.23517307962516 L 565.0539904507988 77.50643527570043 L 565.0761734437372 78.77769747177575 L 565.1051635339243 80.04895966785114 L 565.142074591648 81.32022186392646 L 565.1878329124573 82.59148406000179 L 565.2430216242358 83.86274625607712 L 565.3077155650918 85.13400845215244 L 565.381327427513 86.40527064822777 L 565.4624902857324 87.6765328443031 L 565.5490024490969 88.94779504037837 L 565.6378568059034 90.21905723645375 L 565.7253681077347 91.49031943252908 L 565.8073987065536 92.76158162860435 L 565.8796679001134 94.03284382467967 L 565.9381149272012 95.304106020755 L 565.9792738004172 96.57536821683033 L 566.0006122741902 97.84663041290565 L 566.0007890339501 99.11789260898098 L 565.9797928892543 100.38915480505631 L 565.9389439432847 101.66041700113163 L 565.8807565692684 102.9316791972069 L 565.8086839137558 104.20294139328223 L 565.7267799230972 105.47420358935761 L 565.6393247095598 106.74546578543294 L 565.5506931562551 108.01672798150821 L 565.4642980700035 109.28799017758354 L 565.3833355218237 110.55925237365886 L 565.3100963593417 111.83051456973419 L 565.2460727058458 113.10177676580952 L 565.1920241358977 114.37303896188484 L 565.1481078511381 115.64430115796017 L 565.1140454327707 116.9155633540355 L 565.0892985922467 118.18682555011077 L 565.0732296855074 119.4580877461861 L 565.0652283231848 120.72934994226148 L 565.0647919840608 122.0006121383368 L 565.0715552185519 123.27187433441208 L 565.0852683041771 124.54313653048746 L 565.1057318920922 125.81439872656273 L 565.1326991990732 127.08566092263806 L 565.1657615130337 128.35692311871338 L 565.2042358363489 129.62818531478877 L 565.2469464624637 130.89944751086404 L 565.2927492054562 132.17070970693936 L 565.3395631958045 133.44197190301463 L 565.3850594921813 134.71323409909002 L 565.4271933604772 135.98449629516534 L 565.4633216457024 137.25575849124067 L 565.4912495007461 138.52702068731594 L 565.5091937793713 139.79828288339132 L 565.5159712370457 141.0695450794666 L 565.5111275981101 142.34080727554192 L 565.494987925928 143.61206947161725 L 565.4686205349407 144.88333166769263 L 565.4340243141552 146.1545938637679 L 565.3929647547617 147.42585605984323 L 565.348040858581 148.69711825591855 L 565.301720611173 149.96838045199388 L 565.2563203968136 151.2396426480692 L 565.2138627547905 152.51090484414453 L 565.1759929493868 153.78216704021986 L 565.1439554088339 155.0534292362952 L 565.1186210289702 156.3246914323705 L 565.1005488955136 157.59595362844578 L 565.090062128824 158.8672158245211 L 565.0873175505308 160.1384780205965 L 565.0923523480834 161.40974021667182 L 565.105097066851 162.6810024127471 L 565.125352026088 163.95226460882242 L 565.1527324500894 165.22352680489774 L 565.1865950169947 166.49478900097307 L 565.2259639944202 167.7660511970484 L 565.2697077164025 169.03731339312372 L 565.3157853727148 170.30857558919905 L 565.3624400427963 171.57983778527432 L 565.4074016347405 172.85109998134965 L 565.4481300362014 174.12236217742498 L 565.4825262842913 175.39362437350036 L 565.509272968745 176.66488656957569 L 565.527145662334 177.93614876565096 L 565.5360387087942 179.20741096172634 L 565.5368354717169 180.4786731578016 L 565.531438541582 181.74993535387694 L 565.5229282267222 183.02119754995226 L 565.5146182217449 184.29245974602765 L 565.5107645637182 185.56372194210292 L 565.5158238586984 186.83498413817824 L 565.533609241006 188.1062463342535 L 565.5676500566144 189.3775085303289 L 565.620627933963 190.64877072640422 L 565.6936320351904 191.92003292247955 L 565.7861704388686 193.19129511855482 L 565.8970182385465 194.4625573146302 L 566.0223313740212 195.73381951070547 L 566.1579654035698 197.0050817067808 L 566.298749134451 198.27634390285613 L 566.4392593852448 199.5476060989315 L 566.5746678365565 200.81886829500678 L 566.7004675930235 202.0901304910821 L 566.8145586889319 203.36139268715743 L 566.9155708231743 204.63265488323276 L 567.0044262433637 205.9039170793081 L 567.0839908981012 207.1751792753834 L 567.1583970990283 208.44644147145874 L 567.2326128557489 209.71770366753407 L 567.3117608439694 210.98896586360934 L 567.4010000213087 212.26022805968466 L 567.5031166917313 213.53149025576005 L 567.6205462374177 214.80275245183537 L 567.7533316472089 216.07401464791064 L 567.8996481175164 217.34527684398597 L 568.0563855486181 218.6165390400613 L 568.2195388866597 219.88780123613662 L 568.3839237063776 221.15906343221195 L 568.5452226731734 222.43032562828728 L 568.6997824607622 223.7015878243626 L 568.8448979487633 224.97285002043793 L 568.9800715253637 226.2441122165132 L 569.1049145045733 227.51537441258853 L 569.2220902790655 228.7866366086639 L 569.3355037624377 230.05789880473924 L 569.4496850176125 231.3291610008145 L 569.5702082810886 232.60042319688984 L 569.7023547634531 233.87168539296516 L 569.8518562221215 235.1429475890405 L 570.0220366601243 236.41420978511584 L 570.2169362311691 237.68547198119114 L 570.4373751780005 238.95673417726653 L 570.6828390865718 240.22799637334174 L 570.9517322233123 241.49925856941712 L 571.2392334214808 242.77052076549242 L 571.540150068536 244.0417829615678 L 571.8488985816464 245.31304515764305 L 572.1596858245099 246.58430735371843 L 572.4675100237192 247.8555695497937 L 572.767882191929 249.12683174586908 L 573.0578650498111 250.39809394194438 L 573.3383364540732 251.6693561380197 L 573.6106140686858 252.94061833409503 L 573.8780014535594 254.2118805301704 L 574.1449392684364 255.48314272624566 L 574.4189107097586 256.754404922321 L 574.706027514789 258.0256671183963 L 575.0143824740086 259.29692931447164 L 575.3497815530911 260.56819151054697 L 575.7204184994476 261.8394537066223 L 576.1325972281257 263.1107159026976 L 576.5954596138745 264.38197809877295 L 577.1148562917864 265.6532402948483 L 577.6982256557553 266.9245024909236 L 578.3533745925788 268.19576468699887 L 579.0877510587128 269.46702688307425 L 579.9071263619744 270.7382890791495 L 580.8166819287685 272.00955127522485 L 581.8184229387796 273.2808134713002 L 582.9107613423117 274.5520756673755 L 584.0878194208847 275.8233378634508 L 585.3382462967917 277.09460005952616 L 586.644446373178 278.3658622556014 L 587.981845588373 279.63712445167675 L 589.3195707002353 280.9083866477521 L 590.6195771083144 282.1796488438274 L 591.8380583228567 283.45091103990273 L 592.9268142256166 284.72217323597806 L 593.8355480685343 285.9934354320534 L 594.5137585868251 287.2646976281287 L 594.9152934084887 288.53595982420404 L 595 289.80722202027937 L 594.7385473575499 291.0784842163547 L 594.1156254899374 292.34974641243 L 593.131301856393 293.62100860850535 L 591.8040128136025 294.8922708045807 L 590.1679680576818 296.163533000656 L 588.2729983509377 297.43479519673133 L 586.1815886472353 298.70605739280666 L 583.9640937254629 299.977319588882 L 581.6938104261479 301.2485817849573 L 579.4423128562554 302.51984398103264 L 577.2744974932209 303.79110617710796 L 575.2443586079231 305.06236837318323 L 573.393337342337 306.33363056925856 L 571.7486544314982 307.6048927653339 L 570.3236090470795 308.8761549614092 L 569.119389094699 310.1474171574845 L 568.1259561551 311.41867935355987 L 567.3255532479922 312.6899415496352 L 566.6957541760808 313.9612037457105 L 566.2112234506527 315.23246594178585 L 565.8478506708767 316.5037281378612 L 565.5818742119659 317.77499033393644 L 565.3908271524351 319.0462525300118 L 565.2570084089837 320.3175147260871 L 565.1653062518316 321.5887769221624 L 565.1042659338995 322.86003911823775 L 565.0638666810773 324.1313013143131 Z" stroke="black" stroke-width="0.5" fill="steelblue" /><circle cx="155" cy="277.44003564971547" r="2.5" fill="rgba(0,0,0,0.35)" /><circle cx="165" cy="280.74272452978477" r="2.5" fill="rgba(0,0,0,0.35)" /><circle cx="175" cy="348.40812283591094" r="2.5" fill="rgba(0,0,0,0.35)" /><circle cx="150" cy="287.5072336186853" r="2.5" fill="rgba(0,0,0,0.35)" /><circle cx="135" cy="320.12034531543577" r="2.5" fill="rgba(0,0,0,0.35)" /><circle cx="190" cy="289.9287821871245" r="2.5" fill="rgba(0,0,0,0.35)" /><circle cx="165" cy="223.32810504978926" r="2.5" fill="rgba(0,0,0,0.35)" /><circle cx="180" cy="296.27564210162416" r="2.5" fill="rgba(0,0,0,0.35)" /><circle cx="172.5" cy="319.27594319951805" r="2.5" fill="rgba(0,0,0,0.35)" /><circle cx="160" cy="347.4606294442067" r="2.5" fill="rgba(0,0,0,0.35)" /><circle cx="175" cy="257.09027316203156" r="2.5" fill="rgba(0,0,0,0.35)" /><circle cx="170" cy="308.7216047243414" r="2.5" fill="rgba(0,0,0,0.35)" /><circle cx="140" cy="319.34871619128336" r="2.5" fill="rgba(0,0,0,0.35)" /><circle cx="152.5" cy="309.68845088583214" r="2.5" fill="rgba(0,0,0,0.35)" /><circle cx="187.5" cy="323.21354611141004" r="2.5" fill="rgba(0,0,0,0.35)" /><circle cx="165" cy="319.16542515352864" r="2.5" fill="rgba(0,0,0,0.35)" /><circle cx="175" cy="295.3021514764804" r="2.5" fill="rgba(0,0,0,0.35)" /><circle cx="135" cy="299.95754300964575" r="2.5" fill="rgba(0,0,0,0.35)" /><circle cx="165" cy="267.72643440470574" r="2.5" fill="rgba(0,0,0,0.35)" /><circle cx="180" cy="284.9751783158914" r="2.5" fill="rgba(0,0,0,0.35)" /><circle cx="170" cy="333.82371470101987" r="2.5" fill="rgba(0,0,0,0.35)" /><circle cx="165" cy="255.39257016615088" r="2.5" fill="rgba(0,0,0,0.35)" /><circle cx="190" cy="311.44040863219516" r="2.5" fill="rgba(0,0,0,0.35)" /><circle cx="150" cy="304.89971666374424" r="2.5" fill="rgba(0,0,0,0.35)" /><circle cx="177.5" cy="321.82075403483316" r="2.5" fill="rgba(0,0,0,0.35)" /><circle cx="140" cy="290.4456889190079" r="2.5" fill="rgba(0,0,0,0.35)" /><circle cx="157.5" cy="326.5618066184812" r="2.5" fill="rgba(0,0,0,0.35)" /><circle cx="160" cy="264.0753845571711" r="2.5" fill="rgba(0,0,0,0.35)" /><circle cx="145" cy="296.35529428055173" r="2.5" fill="rgba(0,0,0,0.35)" /><circle cx="172.5" cy="274.0081040683933" r="2.5" fill="rgba(0,0,0,0.35)" /><circle cx="150" cy="293.2821801318544" r="2.5" fill="rgba(0,0,0,0.35)" /><circle cx="160" cy="292.7255662660874" r="2.5" fill="rgba(0,0,0,0.35)" /><circle cx="160" cy="298.5399589176974" r="2.5" fill="rgba(0,0,0,0.35)" /><circle cx="165" cy="297.06530029966154" r="2.5" fill="rgba(0,0,0,0.35)" /><circle cx="165" cy="249.5216034773881" r="2.5" fill="rgba(0,0,0,0.35)" /><circle cx="165" cy="314.0534835966703" r="2.5" fill="rgba(0,0,0,0.35)" /><circle cx="175" cy="305.90709389483413" r="2.5" fill="rgba(0,0,0,0.35)" /><circle cx="195" cy="290.5504676892025" r="2.5" fill="rgba(0,0,0,0.35)" /><circle cx="160" cy="287.3972000512438" r="2.5" fill="rgba(0,0,0,0.35)" /><circle cx="160" cy="282.2818986075797" r="2.5" fill="rgba(0,0,0,0.35)" /><circle cx="175" cy="300.6739986167154" r="2.5" fill="rgba(0,0,0,0.35)" /><circle cx="150" cy="299.1921025094648" r="2.5" fill="rgba(0,0,0,0.35)" /><circle cx="190" cy="303.0559526768658" r="2.5" fill="rgba(0,0,0,0.35)" /><circle cx="170" cy="255.47802524253296" r="2.5" fill="rgba(0,0,0,0.35)" /><circle cx="185" cy="293.6685762502143" r="2.5" fill="rgba(0,0,0,0.35)" /><circle cx="175" cy="289.2634875759681" r="2.5" fill="rgba(0,0,0,0.35)" /><circle cx="155" cy="289.50831668718996" r="2.5" fill="rgba(0,0,0,0.35)" /><circle cx="180" cy="309.7695043583286" r="2.5" fill="rgba(0,0,0,0.35)" /><circle cx="165" cy="344.3507735467705" r="2.5" fill="rgba(0,0,0,0.35)" /><circle cx="165" cy="363.1541626132168" r="2.5" fill="rgba(0,0,0,0.35)" /><circle cx="160" cy="275.47401931755866" r="2.5" fill="rgba(0,0,0,0.35)" /><circle cx="165" cy="291.85651721177" r="2.5" fill="rgba(0,0,0,0.35)" /><circle cx="155" cy="301.920574994605" r="2.5" fill="rgba(0,0,0,0.35)" /><circle cx="170" cy="345.82790753189147" r="2.5" fill="rgba(0,0,0,0.35)" /><circle cx="165" cy="302.6406157272374" r="2.5" fill="rgba(0,0,0,0.35)" /><circle cx="200" cy="300.0514826255221" r="2.5" fill="rgba(0,0,0,0.35)" /><circle cx="167.5" cy="323.54681489681604" r="2.5" fill="rgba(0,0,0,0.35)" /><circle cx="152.5" cy="322.03826500122256" r="2.5" fill="rgba(0,0,0,0.35)" /><circle cx="170" cy="303.6436973255495" r="2.5" fill="rgba(0,0,0,0.35)" /><circle cx="182.5" cy="322.35123569775146" r="2.5" fill="rgba(0,0,0,0.35)" /><circle cx="142.5" cy="311.28729790482294" r="2.5" fill="rgba(0,0,0,0.35)" /><circle cx="180" cy="301.9587204241587" r="2.5" fill="rgba(0,0,0,0.35)" /><circle cx="160" cy="270.3994034083563" r="2.5" fill="rgba(0,0,0,0.35)" /><circle cx="182.5" cy="317.1161775874376" r="2.5" fill="rgba(0,0,0,0.35)" /><circle cx="155" cy="284.06573293017385" r="2.5" fill="rgba(0,0,0,0.35)" /><circle cx="170" cy="269.6418402907121" r="2.5" fill="rgba(0,0,0,0.35)" /><circle cx="200" cy="290.7323542065465" r="2.5" fill="rgba(0,0,0,0.35)" /><circle cx="170" cy="281.3291960761404" r="2.5" fill="rgba(0,0,0,0.35)" /><circle cx="155" cy="315.495326182042" r="2.5" fill="rgba(0,0,0,0.35)" /><circle cx="190" cy="297.21498635359546" r="2.5" fill="rgba(0,0,0,0.35)" /><circle cx="165" cy="333.49166620012215" r="2.5" fill="rgba(0,0,0,0.35)" /><circle cx="140" cy="303.079277895339" r="2.5" fill="rgba(0,0,0,0.35)" /><circle cx="182.5" cy="275.73862923949923" r="2.5" fill="rgba(0,0,0,0.35)" /><circle cx="197.5" cy="323.2927213409841" r="2.5" fill="rgba(0,0,0,0.35)" /><circle cx="145" cy="302.99936412767073" r="2.5" fill="rgba(0,0,0,0.35)" /><circle cx="180" cy="290.1802931895604" r="2.5" fill="rgba(0,0,0,0.35)" /><circle cx="147.5" cy="310.32010304491314" r="2.5" fill="rgba(0,0,0,0.35)" /><circle cx="165" cy="308.33212095366684" r="2.5" fill="rgba(0,0,0,0.35)" /><circle cx="160" cy="255.54000334687288" r="2.5" fill="rgba(0,0,0,0.35)" /><circle cx="160" cy="336.75453986882155" r="2.5" fill="rgba(0,0,0,0.35)" /><circle cx="162.5" cy="324.5787304911929" r="2.5" fill="rgba(0,0,0,0.35)" /><circle cx="170" cy="292.6947176733752" r="2.5" fill="rgba(0,0,0,0.35)" /><circle cx="172.5" cy="324.58986372340974" r="2.5" fill="rgba(0,0,0,0.35)" /><circle cx="185" cy="310.3444569173008" r="2.5" fill="rgba(0,0,0,0.35)" /><circle cx="170" cy="263.9038745882308" r="2.5" fill="rgba(0,0,0,0.35)" /><circle cx="155" cy="295.8937493482267" r="2.5" fill="rgba(0,0,0,0.35)" /><circle cx="140" cy="297.3566064002156" r="2.5" fill="rgba(0,0,0,0.35)" /><circle cx="160" cy="315.0282502438414" r="2.5" fill="rgba(0,0,0,0.35)" /><circle cx="185" cy="304.9617772621576" r="2.5" fill="rgba(0,0,0,0.35)" /><circle cx="142.5" cy="324.7763089634158" r="2.5" fill="rgba(0,0,0,0.35)" /><circle cx="175" cy="283.39098138008785" r="2.5" fill="rgba(0,0,0,0.35)" /><circle cx="170" cy="314.37703223959977" r="2.5" fill="rgba(0,0,0,0.35)" /><circle cx="135" cy="290.69097212915483" r="2.5" fill="rgba(0,0,0,0.35)" /><circle cx="130" cy="291.33306434579924" r="2.5" fill="rgba(0,0,0,0.35)" /><circle cx="165" cy="262.08949683816087" r="2.5" fill="rgba(0,0,0,0.35)" /><circle cx="175" cy="268.18202081313393" r="2.5" fill="rgba(0,0,0,0.35)" /><circle cx="177.5" cy="315.63230690137993" r="2.5" fill="rgba(0,0,0,0.35)" /><circle cx="187.5" cy="317.9443641344944" r="2.5" fill="rgba(0,0,0,0.35)" /><circle cx="150" cy="275.5161516519511" r="2.5" fill="rgba(0,0,0,0.35)" /><circle cx="165" cy="353.0832056383326" r="2.5" fill="rgba(0,0,0,0.35)" /><circle cx="195" cy="299.9571258121171" r="2.5" fill="rgba(0,0,0,0.35)" /><circle cx="145" cy="289.8828277307819" r="2.5" fill="rgba(0,0,0,0.35)" /><circle cx="195" cy="306.27886373673755" r="2.5" fill="rgba(0,0,0,0.35)" /><circle cx="165" cy="273.65200857589633" r="2.5" fill="rgba(0,0,0,0.35)" /><circle cx="145" cy="317.5834586281915" r="2.5" fill="rgba(0,0,0,0.35)" /><circle cx="170" cy="287.29888148124894" r="2.5" fill="rgba(0,0,0,0.35)" /><circle cx="157.5" cy="308.58093360547525" r="2.5" fill="rgba(0,0,0,0.35)" /><circle cx="157.5" cy="319.97601713255267" r="2.5" fill="rgba(0,0,0,0.35)" /><circle cx="150" cy="316.5687840954816" r="2.5" fill="rgba(0,0,0,0.35)" /><circle cx="170" cy="298.08715606665237" r="2.5" fill="rgba(0,0,0,0.35)" /><circle cx="147.5" cy="323.17634117041655" r="2.5" fill="rgba(0,0,0,0.35)" /><circle cx="185" cy="299.6810015155777" r="2.5" fill="rgba(0,0,0,0.35)" /><circle cx="130" cy="300.72617869321755" r="2.5" fill="rgba(0,0,0,0.35)" /><circle cx="192.5" cy="319.4198978162294" r="2.5" fill="rgba(0,0,0,0.35)" /><circle cx="160" cy="303.8421406908541" r="2.5" fill="rgba(0,0,0,0.35)" /><circle cx="155" cy="271.86136138847485" r="2.5" fill="rgba(0,0,0,0.35)" /><circle cx="177.5" cy="272.65388303452244" r="2.5" fill="rgba(0,0,0,0.35)" /><circle cx="175" cy="310.9958702648508" r="2.5" fill="rgba(0,0,0,0.35)" /><circle cx="185" cy="288.0396247383849" r="2.5" fill="rgba(0,0,0,0.35)" /><circle cx="165" cy="286.7769921390336" r="2.5" fill="rgba(0,0,0,0.35)" /><circle cx="380" cy="332.07764838871265" r="2.5" fill="rgba(0,0,0,0.35)" /><circle cx="345" cy="349.3845115121055" r="2.5" fill="rgba(0,0,0,0.35)" /><circle cx="360" cy="345.9256125113263" r="2.5" fill="rgba(0,0,0,0.35)" /><circle cx="350" cy="360.9564190896154" r="2.5" fill="rgba(0,0,0,0.35)" /><circle cx="370" cy="350.7139969541514" r="2.5" fill="rgba(0,0,0,0.35)" /><circle cx="355" cy="329.3529444153386" r="2.5" fill="rgba(0,0,0,0.35)" /><circle cx="375" cy="357.0000354874235" r="2.5" fill="rgba(0,0,0,0.35)" /><circle cx="370" cy="331.60097739755435" r="2.5" fill="rgba(0,0,0,0.35)" /><circle cx="355" cy="352.1750884831819" r="2.5" fill="rgba(0,0,0,0.35)" /><circle cx="375" cy="328.8356124515848" r="2.5" fill="rgba(0,0,0,0.35)" /><circle cx="390" cy="350.247091722063" r="2.5" fill="rgba(0,0,0,0.35)" /><circle cx="370" cy="345.6228840157903" r="2.5" fill="rgba(0,0,0,0.35)" /><circle cx="380" cy="339.8859871507167" r="2.5" fill="rgba(0,0,0,0.35)" /><circle cx="355" cy="339.2941111892193" r="2.5" fill="rgba(0,0,0,0.35)" /><circle cx="365" cy="324.77546881972796" r="2.5" fill="rgba(0,0,0,0.35)" /><circle cx="380" cy="352.51516305344893" r="2.5" fill="rgba(0,0,0,0.35)" /><circle cx="355" cy="346.7981826204418" r="2.5" fill="rgba(0,0,0,0.35)" /><circle cx="345" cy="355.89966664418546" r="2.5" fill="rgba(0,0,0,0.35)" /><circle cx="385" cy="361.1230848343907" r="2.5" fill="rgba(0,0,0,0.35)" /><circle cx="375" cy="369.90111884812165" r="2.5" fill="rgba(0,0,0,0.35)" /><circle cx="350" cy="347.51092614780794" r="2.5" fill="rgba(0,0,0,0.35)" /><circle cx="380" cy="347.3173971896806" r="2.5" fill="rgba(0,0,0,0.35)" /><circle cx="375" cy="346.4880909758728" r="2.5" fill="rgba(0,0,0,0.35)" /><circle cx="365" cy="309.33834986969214" r="2.5" fill="rgba(0,0,0,0.35)" /><circle cx="355" cy="370.06203951636223" r="2.5" fill="rgba(0,0,0,0.35)" /><circle cx="365" cy="354.05581496705565" r="2.5" fill="rgba(0,0,0,0.35)" /><circle cx="360" cy="361.97881171179364" r="2.5" fill="rgba(0,0,0,0.35)" /><circle cx="365" cy="373.8924339932117" r="2.5" fill="rgba(0,0,0,0.35)" /><circle cx="340" cy="356.2787269456911" r="2.5" fill="rgba(0,0,0,0.35)" /><circle cx="385" cy="332.53662690325274" r="2.5" fill="rgba(0,0,0,0.35)" /><circle cx="360" cy="356.27018788649946" r="2.5" fill="rgba(0,0,0,0.35)" /><circle cx="375" cy="351.6409184582957" r="2.5" fill="rgba(0,0,0,0.35)" /><circle cx="385" cy="347.62341877169615" r="2.5" fill="rgba(0,0,0,0.35)" /><circle cx="360" cy="335.1326050490108" r="2.5" fill="rgba(0,0,0,0.35)" /><circle cx="365" cy="366.16095024882185" r="2.5" fill="rgba(0,0,0,0.35)" /><circle cx="345" cy="333.4371009772948" r="2.5" fill="rgba(0,0,0,0.35)" /><circle cx="350" cy="332.20287919819214" r="2.5" fill="rgba(0,0,0,0.35)" /><circle cx="360" cy="369.8535702776159" r="2.5" fill="rgba(0,0,0,0.35)" /><circle cx="350" cy="341.2207037943875" r="2.5" fill="rgba(0,0,0,0.35)" /><circle cx="375" cy="363.6801913239025" r="2.5" fill="rgba(0,0,0,0.35)" /><circle cx="365" cy="348.9610757757263" r="2.5" fill="rgba(0,0,0,0.35)" /><circle cx="365" cy="359.29207365644845" r="2.5" fill="rgba(0,0,0,0.35)" /><circle cx="365" cy="382.6043131581384" r="2.5" fill="rgba(0,0,0,0.35)" /><circle cx="360" cy="328.4699376743405" r="2.5" fill="rgba(0,0,0,0.35)" /><circle cx="350" cy="353.35263811224195" r="2.5" fill="rgba(0,0,0,0.35)" /><circle cx="370" cy="337.12472118560174" r="2.5" fill="rgba(0,0,0,0.35)" /><circle cx="370" cy="360.89334584576704" r="2.5" fill="rgba(0,0,0,0.35)" /><circle cx="360" cy="351.16968485247105" r="2.5" fill="rgba(0,0,0,0.35)" /><circle cx="365" cy="331.3383928859095" r="2.5" fill="rgba(0,0,0,0.35)" /><circle cx="385" cy="354.4435096068947" r="2.5" fill="rgba(0,0,0,0.35)" /><circle cx="370" cy="326.53345304423004" r="2.5" fill="rgba(0,0,0,0.35)" /><circle cx="355" cy="357.34088026233246" r="2.5" fill="rgba(0,0,0,0.35)" /><circle cx="370" cy="367.7616565257557" r="2.5" fill="rgba(0,0,0,0.35)" /><circle cx="380" cy="358.4189559283004" r="2.5" fill="rgba(0,0,0,0.35)" /><circle cx="360" cy="340.55429896658313" r="2.5" fill="rgba(0,0,0,0.35)" /><circle cx="390" cy="356.0474562226573" r="2.5" fill="rgba(0,0,0,0.35)" /><circle cx="365" cy="336.35884680702685" r="2.5" fill="rgba(0,0,0,0.35)" /><circle cx="375" cy="337.9102066272235" r="2.5" fill="rgba(0,0,0,0.35)" /><circle cx="370" cy="355.7893256954646" r="2.5" fill="rgba(0,0,0,0.35)" /><circle cx="365" cy="343.94339641103943" r="2.5" fill="rgba(0,0,0,0.35)" /><circle cx="380" cy="229.2205055315698" r="2.5" fill="rgba(0,0,0,0.35)" /><circle cx="345" cy="246.52736865496271" r="2.5" fill="rgba(0,0,0,0.35)" /><circle cx="360" cy="243.06846965418345" r="2.5" fill="rgba(0,0,0,0.35)" /><circle cx="350" cy="258.09927623247256" r="2.5" fill="rgba(0,0,0,0.35)" /><circle cx="370" cy="247.85685409700855" r="2.5" fill="rgba(0,0,0,0.35)" /><circle cx="355" cy="226.49580155819575" r="2.5" fill="rgba(0,0,0,0.35)" /><circle cx="375" cy="254.14289263028058" r="2.5" fill="rgba(0,0,0,0.35)" /><circle cx="370" cy="228.7438345404115" r="2.5" fill="rgba(0,0,0,0.35)" /><circle cx="355" cy="249.3179456260391" r="2.5" fill="rgba(0,0,0,0.35)" /><circle cx="375" cy="225.97846959444195" r="2.5" fill="rgba(0,0,0,0.35)" /><circle cx="390" cy="247.38994886492017" r="2.5" fill="rgba(0,0,0,0.35)" /><circle cx="370" cy="242.76574115864742" r="2.5" fill="rgba(0,0,0,0.35)" /><circle cx="380" cy="237.02884429357385" r="2.5" fill="rgba(0,0,0,0.35)" /><circle cx="355" cy="236.43696833207642" r="2.5" fill="rgba(0,0,0,0.35)" /><circle cx="365" cy="221.91832596258507" r="2.5" fill="rgba(0,0,0,0.35)" /><circle cx="380" cy="249.65802019630607" r="2.5" fill="rgba(0,0,0,0.35)" /><circle cx="355" cy="243.94103976329893" r="2.5" fill="rgba(0,0,0,0.35)" /><circle cx="345" cy="253.04252378704257" r="2.5" fill="rgba(0,0,0,0.35)" /><circle cx="385" cy="258.26594197724785" r="2.5" fill="rgba(0,0,0,0.35)" /><circle cx="375" cy="267.0439759909788" r="2.5" fill="rgba(0,0,0,0.35)" /><circle cx="350" cy="244.6537832906651" r="2.5" fill="rgba(0,0,0,0.35)" /><circle cx="380" cy="244.46025433253774" r="2.5" fill="rgba(0,0,0,0.35)" /><circle cx="375" cy="243.63094811872995" r="2.5" fill="rgba(0,0,0,0.35)" /><circle cx="365" cy="206.48120701254936" r="2.5" fill="rgba(0,0,0,0.35)" /><circle cx="355" cy="267.20489665921934" r="2.5" fill="rgba(0,0,0,0.35)" /><circle cx="365" cy="251.19867210991282" r="2.5" fill="rgba(0,0,0,0.35)" /><circle cx="360" cy="259.1216688546508" r="2.5" fill="rgba(0,0,0,0.35)" /><circle cx="365" cy="271.03529113606885" r="2.5" fill="rgba(0,0,0,0.35)" /><circle cx="340" cy="253.42158408854826" r="2.5" fill="rgba(0,0,0,0.35)" /><circle cx="385" cy="229.6794840461099" r="2.5" fill="rgba(0,0,0,0.35)" /><circle cx="360" cy="253.41304502935662" r="2.5" fill="rgba(0,0,0,0.35)" /><circle cx="375" cy="248.78377560115283" r="2.5" fill="rgba(0,0,0,0.35)" /><circle cx="385" cy="244.76627591455332" r="2.5" fill="rgba(0,0,0,0.35)" /><circle cx="360" cy="232.27546219186792" r="2.5" fill="rgba(0,0,0,0.35)" /><circle cx="365" cy="263.303807391679" r="2.5" fill="rgba(0,0,0,0.35)" /><circle cx="345" cy="230.5799581201519" r="2.5" fill="rgba(0,0,0,0.35)" /><circle cx="350" cy="229.3457363410493" r="2.5" fill="rgba(0,0,0,0.35)" /><circle cx="360" cy="266.9964274204731" r="2.5" fill="rgba(0,0,0,0.35)" /><circle cx="350" cy="238.36356093724459" r="2.5" fill="rgba(0,0,0,0.35)" /><circle cx="375" cy="260.8230484667596" r="2.5" fill="rgba(0,0,0,0.35)" /><circle cx="365" cy="246.10393291858347" r="2.5" fill="rgba(0,0,0,0.35)" /><circle cx="365" cy="256.43493079930556" r="2.5" fill="rgba(0,0,0,0.35)" /><circle cx="365" cy="279.74717030099555" r="2.5" fill="rgba(0,0,0,0.35)" /><circle cx="360" cy="225.6127948171976" r="2.5" fill="rgba(0,0,0,0.35)" /><circle cx="350" cy="250.49549525509906" r="2.5" fill="rgba(0,0,0,0.35)" /><circle cx="370" cy="234.26757832845885" r="2.5" fill="rgba(0,0,0,0.35)" /><circle cx="370" cy="258.03620298862415" r="2.5" fill="rgba(0,0,0,0.35)" /><circle cx="360" cy="248.3125419953282" r="2.5" fill="rgba(0,0,0,0.35)" /><circle cx="365" cy="228.48125002876662" r="2.5" fill="rgba(0,0,0,0.35)" /><circle cx="385" cy="251.58636674975185" r="2.5" fill="rgba(0,0,0,0.35)" /><circle cx="370" cy="223.67631018708715" r="2.5" fill="rgba(0,0,0,0.35)" /><circle cx="355" cy="254.4837374051896" r="2.5" fill="rgba(0,0,0,0.35)" /><circle cx="370" cy="264.90451366861294" r="2.5" fill="rgba(0,0,0,0.35)" /><circle cx="380" cy="255.56181307115762" r="2.5" fill="rgba(0,0,0,0.35)" /><circle cx="360" cy="237.6971561094403" r="2.5" fill="rgba(0,0,0,0.35)" /><circle cx="390" cy="253.19031336551438" r="2.5" fill="rgba(0,0,0,0.35)" /><circle cx="365" cy="233.50170394988396" r="2.5" fill="rgba(0,0,0,0.35)" /><circle cx="375" cy="235.0530637700806" r="2.5" fill="rgba(0,0,0,0.35)" /><circle cx="370" cy="252.93218283832175" r="2.5" fill="rgba(0,0,0,0.35)" /><circle cx="365" cy="241.0862535538965" r="2.5" fill="rgba(0,0,0,0.35)" /><circle cx="595" cy="293.70734006097985" r="2.5" fill="rgba(0,0,0,0.35)" /><circle cx="557.5" cy="227.1615424184036" r="2.5" fill="rgba(0,0,0,0.35)" /><circle cx="565" cy="262.72843515061794" r="2.5" fill="rgba(0,0,0,0.35)" /><circle cx="567.5" cy="220.50881362558675" r="2.5" fill="rgba(0,0,0,0.35)" /><circle cx="575" cy="247.4717154670185" r="2.5" fill="rgba(0,0,0,0.35)" /><circle cx="542.5" cy="292.17541773142193" r="2.5" fill="rgba(0,0,0,0.35)" /><circle cx="532.5" cy="282.6518118769439" r="2.5" fill="rgba(0,0,0,0.35)" /><circle cx="570" cy="271.1073673989845" r="2.5" fill="rgba(0,0,0,0.35)" /><circle cx="560" cy="236.85850315332752" r="2.5" fill="rgba(0,0,0,0.35)" /><circle cx="600" cy="295.4174155433079" r="2.5" fill="rgba(0,0,0,0.35)" /><circle cx="537.5" cy="281.9311388705704" r="2.5" fill="rgba(0,0,0,0.35)" /><circle cx="550" cy="291.26701490566984" r="2.5" fill="rgba(0,0,0,0.35)" /><circle cx="565" cy="294.2486216799032" r="2.5" fill="rgba(0,0,0,0.35)" /><circle cx="575" cy="289.49108806254196" r="2.5" fill="rgba(0,0,0,0.35)" /><circle cx="522.5" cy="297.375919412473" r="2.5" fill="rgba(0,0,0,0.35)" /><circle cx="545" cy="275.9171173044927" r="2.5" fill="rgba(0,0,0,0.35)" /><circle cx="560" cy="265.9663159342033" r="2.5" fill="rgba(0,0,0,0.35)" /><circle cx="560" cy="259.4534050152385" r="2.5" fill="rgba(0,0,0,0.35)" /><circle cx="555" cy="273.50998637835875" r="2.5" fill="rgba(0,0,0,0.35)" /><circle cx="542.5" cy="281.4722978311795" r="2.5" fill="rgba(0,0,0,0.35)" /><circle cx="567.5" cy="249.7907109175537" r="2.5" fill="rgba(0,0,0,0.35)" /><circle cx="580" cy="290.5986050566371" r="2.5" fill="rgba(0,0,0,0.35)" /><circle cx="590" cy="292.5072586685693" r="2.5" fill="rgba(0,0,0,0.35)" /><circle cx="620" cy="292.7692110723433" r="2.5" fill="rgba(0,0,0,0.35)" /><circle cx="565" cy="178.72642314227045" r="2.5" fill="rgba(0,0,0,0.35)" /><circle cx="562.5" cy="279.44023411289083" r="2.5" fill="rgba(0,0,0,0.35)" /><circle cx="565" cy="244.88910438770816" r="2.5" fill="rgba(0,0,0,0.35)" /><circle cx="565" cy="216.14408561481406" r="2.5" fill="rgba(0,0,0,0.35)" /><circle cx="555" cy="294.8248892218618" r="2.5" fill="rgba(0,0,0,0.35)" /><circle cx="565" cy="273.5067342513513" r="2.5" fill="rgba(0,0,0,0.35)" /><circle cx="570" cy="100.49680187821139" r="2.5" fill="rgba(0,0,0,0.35)" /><circle cx="570" cy="224.895612802325" r="2.5" fill="rgba(0,0,0,0.35)" /><circle cx="602.5" cy="285.2163479558843" r="2.5" fill="rgba(0,0,0,0.35)" /><circle cx="575" cy="237.7343963124827" r="2.5" fill="rgba(0,0,0,0.35)" /><circle cx="532.5" cy="294.9843907224365" r="2.5" fill="rgba(0,0,0,0.35)" /><circle cx="615" cy="292.76077423555495" r="2.5" fill="rgba(0,0,0,0.35)" /><circle cx="557.5" cy="285.4351738200235" r="2.5" fill="rgba(0,0,0,0.35)" /><circle cx="585" cy="286.68258817964625" r="2.5" fill="rgba(0,0,0,0.35)" /><circle cx="560" cy="205.76687407047103" r="2.5" fill="rgba(0,0,0,0.35)" /><circle cx="515" cy="292.76082589391297" r="2.5" fill="rgba(0,0,0,0.35)" /><circle cx="567.5" cy="277.9606970657124" r="2.5" fill="rgba(0,0,0,0.35)" /><circle cx="562.5" cy="298.7926977075449" r="2.5" fill="rgba(0,0,0,0.35)" /><circle cx="625" cy="293.76381577123624" r="2.5" fill="rgba(0,0,0,0.35)" /><circle cx="570" cy="235.9826450662519" r="2.5" fill="rgba(0,0,0,0.35)" /><circle cx="550" cy="286.07362748191616" r="2.5" fill="rgba(0,0,0,0.35)" /><circle cx="562.5" cy="223.68219306490897" r="2.5" fill="rgba(0,0,0,0.35)" /><circle cx="565" cy="233.7085394261618" r="2.5" fill="rgba(0,0,0,0.35)" /><circle cx="565" cy="268.14781113448237" r="2.5" fill="rgba(0,0,0,0.35)" /><circle cx="617.5" cy="298.5930413323349" r="2.5" fill="rgba(0,0,0,0.35)" /><circle cx="560" cy="246.69953298423306" r="2.5" fill="rgba(0,0,0,0.35)" /><circle cx="555" cy="267.45033221447596" r="2.5" fill="rgba(0,0,0,0.35)" /><circle cx="530" cy="290.64736748176153" r="2.5" fill="rgba(0,0,0,0.35)" /><circle cx="520" cy="292.6301086889231" r="2.5" fill="rgba(0,0,0,0.35)" /><circle cx="585" cy="291.9720878486336" r="2.5" fill="rgba(0,0,0,0.35)" /><circle cx="555" cy="289.80324658949735" r="2.5" fill="rgba(0,0,0,0.35)" /><circle cx="537.5" cy="294.868764040182" r="2.5" fill="rgba(0,0,0,0.35)" /><circle cx="557.5" cy="280.22629196609216" r="2.5" fill="rgba(0,0,0,0.35)" /><circle cx="570" cy="293.00923317426464" r="2.5" fill="rgba(0,0,0,0.35)" /><circle cx="592.5" cy="281.68977973422614" r="2.5" fill="rgba(0,0,0,0.35)" /><circle cx="562.5" cy="284.58539451367426" r="2.5" fill="rgba(0,0,0,0.35)" /><circle cx="570" cy="264.518428887077" r="2.5" fill="rgba(0,0,0,0.35)" /><circle cx="547.5" cy="281.30314803281726" r="2.5" fill="rgba(0,0,0,0.35)" /><circle cx="612.5" cy="297.4244723929248" r="2.5" fill="rgba(0,0,0,0.35)" /><circle cx="572.5" cy="285.0657365805756" r="2.5" fill="rgba(0,0,0,0.35)" /><circle cx="527.5" cy="295.58154548936494" r="2.5" fill="rgba(0,0,0,0.35)" /><circle cx="567.5" cy="288.67873401287557" r="2.5" fill="rgba(0,0,0,0.35)" /><circle cx="560" cy="294.2677124349224" r="2.5" fill="rgba(0,0,0,0.35)" /><circle cx="555" cy="259.7144615282355" r="2.5" fill="rgba(0,0,0,0.35)" /><circle cx="550" cy="253.33969734134746" r="2.5" fill="rgba(0,0,0,0.35)" /><circle cx="545" cy="297.1485544714577" r="2.5" fill="rgba(0,0,0,0.35)" /><circle cx="570" cy="258.2410805273633" r="2.5" fill="rgba(0,0,0,0.35)" /><circle cx="560" cy="271.31542707215607" r="2.5" fill="rgba(0,0,0,0.35)" /><circle cx="585" cy="297.0713206965288" r="2.5" fill="rgba(0,0,0,0.35)" /><circle cx="555" cy="249.04199419722045" r="2.5" fill="rgba(0,0,0,0.35)" /><circle cx="565" cy="141.1759023078945" r="2.5" fill="rgba(0,0,0,0.35)" /><circle cx="550" cy="296.68768033430297" r="2.5" fill="rgba(0,0,0,0.35)" /><circle cx="565" cy="96.48872790209202" r="2.5" fill="rgba(0,0,0,0.35)" /><circle cx="525" cy="291.04279696013214" r="2.5" fill="rgba(0,0,0,0.35)" /><circle cx="597.5" cy="282.6155083905161" r="2.5" fill="rgba(0,0,0,0.35)" /><circle cx="605" cy="297.2085891797233" r="2.5" fill="rgba(0,0,0,0.35)" /><circle cx="590" cy="297.8579954974143" r="2.5" fill="rgba(0,0,0,0.35)" /><circle cx="580" cy="274.4454074385387" r="2.5" fill="rgba(0,0,0,0.35)" /><circle cx="565" cy="228.22442410223522" r="2.5" fill="rgba(0,0,0,0.35)" /><circle cx="577.5" cy="281.02878527968903" r="2.5" fill="rgba(0,0,0,0.35)" /><circle cx="580" cy="259.99913733151976" r="2.5" fill="rgba(0,0,0,0.35)" /><circle cx="540" cy="287.70130475537087" r="2.5" fill="rgba(0,0,0,0.35)" /><circle cx="565" cy="257.14971471462513" r="2.5" fill="rgba(0,0,0,0.35)" /><circle cx="580" cy="296.6656805166982" r="2.5" fill="rgba(0,0,0,0.35)" /><circle cx="550" cy="274.83976611539407" r="2.5" fill="rgba(0,0,0,0.35)" /><circle cx="562.5" cy="251.4698879831701" r="2.5" fill="rgba(0,0,0,0.35)" /><circle cx="567.5" cy="283.3581883588407" r="2.5" fill="rgba(0,0,0,0.35)" /><circle cx="570" cy="298.3715673098825" r="2.5" fill="rgba(0,0,0,0.35)" /><circle cx="582.5" cy="281.1899162454109" r="2.5" fill="rgba(0,0,0,0.35)" /><circle cx="570" cy="244.92572298171626" r="2.5" fill="rgba(0,0,0,0.35)" /><circle cx="580" cy="285.52048643758735" r="2.5" fill="rgba(0,0,0,0.35)" /><circle cx="562.5" cy="289.6294294621065" r="2.5" fill="rgba(0,0,0,0.35)" /><circle cx="575" cy="294.7695288065555" r="2.5" fill="rgba(0,0,0,0.35)" /><circle cx="585" cy="274.8535709925686" r="2.5" fill="rgba(0,0,0,0.35)" /><circle cx="600" cy="290.1878792100032" r="2.5" fill="rgba(0,0,0,0.35)" /><circle cx="517.5" cy="297.97853547721525" r="2.5" fill="rgba(0,0,0,0.35)" /><circle cx="572.5" cy="279.6190799628089" r="2.5" fill="rgba(0,0,0,0.35)" /><circle cx="570" cy="205.18177593021" r="2.5" fill="rgba(0,0,0,0.35)" /><circle cx="575" cy="259.51175286348666" r="2.5" fill="rgba(0,0,0,0.35)" /><circle cx="595" cy="287.9087029332827" r="2.5" fill="rgba(0,0,0,0.35)" /><circle cx="565" cy="202.21597678146424" r="2.5" fill="rgba(0,0,0,0.35)" /><circle cx="550" cy="268.754343980749" r="2.5" fill="rgba(0,0,0,0.35)" /><circle cx="572.5" cy="252.81110186901515" r="2.5" fill="rgba(0,0,0,0.35)" /><circle cx="535" cy="290.14052310198264" r="2.5" fill="rgba(0,0,0,0.35)" /><circle cx="510" cy="292.8750485090309" r="2.5" fill="rgba(0,0,0,0.35)" /><circle cx="610" cy="292.55390814956775" r="2.5" fill="rgba(0,0,0,0.35)" /><circle cx="605" cy="290.73365244003253" r="2.5" fill="rgba(0,0,0,0.35)" /><circle cx="580" cy="268.2651176033015" r="2.5" fill="rgba(0,0,0,0.35)" /><circle cx="590" cy="287.4946275648109" r="2.5" fill="rgba(0,0,0,0.35)" /><circle cx="587.5" cy="281.3881275457494" r="2.5" fill="rgba(0,0,0,0.35)" /><circle cx="580" cy="249.98464805551959" r="2.5" fill="rgba(0,0,0,0.35)" /><circle cx="575" cy="271.59415801112755" r="2.5" fill="rgba(0,0,0,0.35)" /><circle cx="552.5" cy="281.15390139198576" r="2.5" fill="rgba(0,0,0,0.35)" /><circle cx="575" cy="266.31521243545717" r="2.5" fill="rgba(0,0,0,0.35)" /><circle cx="527.5" cy="285.5422489217701" r="2.5" fill="rgba(0,0,0,0.35)" /><circle cx="545" cy="287.28247748392107" r="2.5" fill="rgba(0,0,0,0.35)" /></svg>