<svg xmlns="http://www.w3.org/2000/svg" width="679" height="541" fill="black"><rect width="100%" height="100%" fill="white" /><line x1="65" y1="492" x2="665" y2="492" stroke="black" stroke-width="1" /><line x1="65" y1="42" x2="65" y2="492" stroke="black" stroke-width="1" /><line x1="190" y1="42" x2="190" y2="492" stroke="#ccc" stroke-width="1" /><line x1="315" y1="42" x2="315" y2="492" stroke="#ccc" stroke-width="1" /><line x1="440" y1="42" x2="440" y2="492" stroke="#ccc" stroke-width="1" /><line x1="565" y1="42" x2="565" y2="492" stroke="#ccc" stroke-width="1" /><line x1="65" y1="417" x2="665" y2="417" stroke="#ccc" stroke-width="1" /><line x1="65" y1="342" x2="665" y2="342" stroke="#ccc" stroke-width="1" /><line x1="65" y1="267" x2="665" y2="267" stroke="#ccc" stroke-width="1" /><line x1="65" y1="192" x2="665" y2="192" stroke="#ccc" stroke-width="1" /><line x1="65" y1="117" x2="665" y2="117" stroke="#ccc" stroke-width="1" /><line x1="65" y1="42" x2="665" y2="42" stroke="#ccc" stroke-width="1" /><line x1="65" y1="492" x2="65" y2="497" stroke="black" stroke-width="1" /><text x="65" y="507" font-size="10" text-anchor="middle">0</text><line x1="190" y1="492" x2="190" y2="497" stroke="black" stroke-width="1" /><text x="190" y="507" font-size="10" text-anchor="middle">2.5</text><line x1="315" y1="492" x2="315" y2="497" stroke="black" stroke-width="1" /><text x="315" y="507" font-size="10" text-anchor="middle">5</text><line x1="440" y1="492" x2="440" y2="497" stroke="black" stroke-width="1" /><text x="440" y="507" font-size="10" text-anchor="middle">7.5</text><line x1="565" y1="492" x2="565" y2="497" stroke="black" stroke-width="1" /><text x="565" y="507" font-size="10" text-anchor="middle">10</text><line x1="60" y1="492" x2="65" y2="492" stroke="black" stroke-width="1" /><text x="57" y="495.5" font-size="10" text-anchor="end">-1.5</text><line x1="60" y1="417" x2="65" y2="417" stroke="black" stroke-width="1" /><text x="57" y="420.5" font-size="10" text-anchor="end">-1</text><line x1="60" y1="342" x2="65" y2="342" stroke="black" stroke-width="1" /><text x="57" y="345.5" font-size="10" text-anchor="end">-0.5</text><line x1="60" y1="267" x2="65" y2="267" stroke="black" stroke-width="1" /><text x="57" y="270.5" font-size="10" text-anchor="end">0</text><line x1="60" y1="192" x2="65" y2="192" stroke="black" stroke-width="1" /><text x="57" y="195.5" font-size="10" text-anchor="end">0.5</text><line x1="60" y1="117" x2="65" y2="117" stroke="black" stroke-width="1" /><text x="57" y="120.5" font-size="10" text-anchor="end">1</text><line x1="60" y1="42" x2="65" y2="42" stroke="black" stroke-width="1" /><text x="57" y="45.5" font-size="10" text-anchor="end">1.5</text><text x="339.5" y="534" font-size="14" text-anchor="middle">X</text><text x="14" y="270.5" font-size="14" text-anchor="middle" transform="rotate(-90,14,270.5)">Y</text><text x="339.5" y="21" font-size="16" text-anchor="middle">Confidence Band</text><path d="M 65 222 L 71.25 203.29878999221586 L 77.5 184.8894061118216 L 83.75 167.05912063709286 L 90 150.0861692093696 L 96.25 134.23540905893066 L 102.5 119.75418599649981 L 108.75 106.86847466459591 L 115 95.77935227881551 L 121.25 86.65986088513574 L 127.5 79.65230709666201 L 133.75 74.86604144652665 L 140 72.37575200939187 L 146.25 72.22029891902525 L 152.5 74.40210796890943 L 158.75 78.88713275854593 L 165 85.60538597614772 L 171.25 94.45203152723218 L 177.5 105.28902046681185 L 183.75 117.94724520700925 L 190 132.22917838440657 L 196.25 147.91195520848663 L 202.5 164.7508511921502 L 208.75 182.4831009954869 L 215 200.83199879101988 L 221.25 219.51121616559783 L 227.5 238.22927017951628 L 233.75 256.6940718603033 L 240 274.617484153443 L 246.25 291.7198182047414 L 252.5 307.7341978113516 L 258.75 322.41072393566037 L 265 335.5203742961892 L 271.25 346.8585771836981 L 277.5 356.24840373428754 L 283.75 363.5433288451444 L 290 368.6295176497646 L 296.25 371.4276018729719 L 302.5 371.8939183463067 L 308.75 370.0211903571662 L 315 365.83864119947077 L 321.25 359.41153815393653 L 327.5 350.8401740139888 L 333.75 340.2583020502645 L 340 327.8310488355588 L 346.25 313.7523374998848 L 352.5 298.24186162488877 L 358.75 281.54165699898704 L 365 263.9123247298389 L 371.25 245.62896465122142 L 377.5 226.97688248213348 L 383.75 208.24713772647334 L 390 189.7320017868277 L 396.25 171.7203971669872 L 402.5 154.4933889329074 L 408.75 138.31979878635894 L 415 123.45201019218166 L 421.25 110.12203001872689 L 427.5 98.53786814827419 L 433.75 88.88029155238877 L 440 81.30000348378917 L 446.25 75.91529180249307 L 452.5 72.81018313332356 L 458.75 72.03313165853257 L 465 73.59626300649273 L 471.25 77.47518503532183 L 477.5 83.60936846409896 L 483.75 91.90309141204898 L 490 102.2269331064764 L 496.25 114.41979345063817 L 502.5 128.29140693687117 L 508.75 143.62531167620392 L 515 160.18222721373655 L 521.25 177.7037884201094 L 527.5 195.916577192935 L 533.75 214.5363890548382 L 540 233.2726680692714 L 546.25 251.83304086872502 L 552.5 269.927879043341 L 558.75 287.27481869537985 L 565 303.60316663340546 L 565 393.60316663340546 L 558.75 377.27481869537985 L 552.5 359.927879043341 L 546.25 341.83304086872505 L 540 323.2726680692714 L 533.75 304.5363890548382 L 527.5 285.91657719293494 L 521.25 267.7037884201094 L 515 250.1822272137365 L 508.75 233.62531167620398 L 502.5 218.29140693687117 L 496.25 204.4197934506381 L 490 192.2269331064765 L 483.75 181.90309141204892 L 477.5 173.6093684640989 L 471.25 167.47518503532172 L 465 163.5962630064928 L 458.75 162.03313165853268 L 452.5 162.81018313332356 L 446.25 165.91529180249307 L 440 171.30000348378917 L 433.75 178.8802915523887 L 427.5 188.53786814827419 L 421.25 200.1220300187269 L 415 213.45201019218166 L 408.75 228.319798786359 L 402.5 244.49338893290735 L 396.25 261.72039716698714 L 390 279.73200178682765 L 383.75 298.2471377264733 L 377.5 316.97688248213353 L 371.25 335.62896465122145 L 365 353.9123247298389 L 358.75 371.54165699898704 L 352.5 388.24186162488877 L 346.25 403.7523374998848 L 340 417.83104883555876 L 333.75 430.25830205026443 L 327.5 440.8401740139888 L 321.25 449.41153815393653 L 315 455.83864119947077 L 308.75 460.0211903571662 L 302.5 461.8939183463067 L 296.25 461.4276018729719 L 290 458.6295176497646 L 283.75 453.5433288451444 L 277.5 446.24840373428754 L 271.25 436.8585771836981 L 265 425.52037429618923 L 258.75 412.41072393566037 L 252.5 397.7341978113516 L 246.25 381.71981820474133 L 240 364.617484153443 L 233.75 346.69407186030327 L 227.5 328.2292701795163 L 221.25 309.51121616559783 L 215 290.83199879101994 L 208.75 272.48310099548684 L 202.5 254.75085119215024 L 196.25 237.91195520848663 L 190 222.2291783844065 L 183.75 207.94724520700925 L 177.5 195.28902046681185 L 171.25 184.45203152723218 L 165 175.60538597614777 L 158.75 168.88713275854593 L 152.5 164.4021079689095 L 146.25 162.2202989190252 L 140 162.37575200939182 L 133.75 164.86604144652665 L 127.5 169.65230709666207 L 121.25 176.65986088513569 L 115 185.77935227881557 L 108.75 196.86847466459596 L 102.5 209.75418599649987 L 96.25 224.2354090589307 L 90 240.08616920936956 L 83.75 257.05912063709286 L 77.5 274.8894061118216 L 71.25 293.2987899922158 L 65 312 Z" stroke="none" stroke-width="0" fill="steelblue" fill-opacity="0.2" /><path d="M 65 267 L 71.25 248.2987899922159 L 77.5 229.88940611182153 L 83.75 212.05912063709286 L 90 195.0861692093696 L 96.25 179.23540905893066 L 102.5 164.75418599649987 L 108.75 151.86847466459596 L 115 140.7793522788155 L 121.25 131.65986088513569 L 127.5 124.65230709666207 L 133.75 119.86604144652671 L 140 117.37575200939182 L 146.25 117.22029891902525 L 152.5 119.40210796890943 L 158.75 123.88713275854587 L 165 130.60538597614772 L 171.25 139.45203152723218 L 177.5 150.28902046681185 L 183.75 162.94724520700925 L 190 177.2291783844065 L 196.25 192.91195520848657 L 202.5 209.75085119215026 L 208.75 227.4831009954869 L 215 245.83199879101994 L 221.25 264.51121616559783 L 227.5 283.2292701795163 L 233.75 301.69407186030327 L 240 319.617484153443 L 246.25 336.71981820474133 L 252.5 352.7341978113516 L 258.75 367.41072393566037 L 265 380.52037429618923 L 271.25 391.8585771836981 L 277.5 401.24840373428754 L 283.75 408.5433288451444 L 290 413.6295176497646 L 296.25 416.4276018729719 L 302.5 416.8939183463067 L 308.75 415.0211903571662 L 315 410.83864119947077 L 321.25 404.41153815393653 L 327.5 395.8401740139888 L 333.75 385.25830205026443 L 340 372.8310488355588 L 346.25 358.7523374998848 L 352.5 343.24186162488877 L 358.75 326.54165699898704 L 365 308.91232472983893 L 371.25 290.62896465122145 L 377.5 271.97688248213353 L 383.75 253.2471377264733 L 390 234.73200178682765 L 396.25 216.7203971669872 L 402.5 199.49338893290735 L 408.75 183.31979878635894 L 415 168.4520101921816 L 421.25 155.12203001872695 L 427.5 143.53786814827419 L 433.75 133.8802915523887 L 440 126.30000348378917 L 446.25 120.91529180249302 L 452.5 117.81018313332356 L 458.75 117.03313165853262 L 465 118.59626300649273 L 471.25 122.47518503532177 L 477.5 128.6093684640989 L 483.75 136.90309141204898 L 490 147.22693310647645 L 496.25 159.41979345063817 L 502.5 173.29140693687117 L 508.75 188.62531167620392 L 515 205.1822272137365 L 521.25 222.7037884201094 L 527.5 240.91657719293497 L 533.75 259.5363890548382 L 540 278.2726680692714 L 546.25 296.833040868725 L 552.5 314.927879043341 L 558.75 332.27481869537985 L 565 348.60316663340546 " stroke="steelblue" stroke-width="2" fill="none" /></svg>