<svg xmlns="http://www.w3.org/2000/svg" width="679" height="541" fill="black"><rect width="100%" height="100%" fill="white" /><line x1="65" y1="492" x2="665" y2="492" stroke="black" stroke-width="1" /><line x1="65" y1="42" x2="65" y2="492" stroke="black" stroke-width="1" /><line x1="185" y1="42" x2="185" y2="492" stroke="#ccc" stroke-width="1" /><line x1="305" y1="42" x2="305" y2="492" stroke="#ccc" stroke-width="1" /><line x1="425" y1="42" x2="425" y2="492" stroke="#ccc" stroke-width="1" /><line x1="545" y1="42" x2="545" y2="492" stroke="#ccc" stroke-width="1" /><line x1="665" y1="42" x2="665" y2="492" stroke="#ccc" stroke-width="1" /><line x1="65" y1="417" x2="665" y2="417" stroke="#ccc" stroke-width="1" /><line x1="65" y1="342" x2="665" y2="342" stroke="#ccc" stroke-width="1" /><line x1="65" y1="267" x2="665" y2="267" stroke="#ccc" stroke-width="1" /><line x1="65" y1="192" x2="665" y2="192" stroke="#ccc" stroke-width="1" /><line x1="65" y1="117" x2="665" y2="117" stroke="#ccc" stroke-width="1" /><line x1="65" y1="42" x2="665" y2="42" stroke="#ccc" stroke-width="1" /><line x1="65" y1="492" x2="65" y2="497" stroke="black" stroke-width="1" /><text x="65" y="507" font-size="10" text-anchor="middle">0</text><line x1="185" y1="492" x2="185" y2="497" stroke="black" stroke-width="1" /><text x="185" y="507" font-size="10" text-anchor="middle">2</text><line x1="305" y1="492" x2="305" y2="497" stroke="black" stroke-width="1" /><text x="305" y="507" font-size="10" text-anchor="middle">4</text><line x1="425" y1="492" x2="425" y2="497" stroke="black" stroke-width="1" /><text x="425" y="507" font-size="10" text-anchor="middle">6</text><line x1="545" y1="492" x2="545" y2="497" stroke="black" stroke-width="1" /><text x="545" y="507" font-size="10" text-anchor="middle">8</text><line x1="665" y1="492" x2="665" y2="497" stroke="black" stroke-width="1" /><text x="665" y="507" font-size="10" text-anchor="middle">10</text><line x1="60" y1="492" x2="65" y2="492" stroke="black" stroke-width="1" /><text x="57" y="495.5" font-size="10" text-anchor="end">-1.5</text><line x1="60" y1="417" x2="65" y2="417" stroke="black" stroke-width="1" /><text x="57" y="420.5" font-size="10" text-anchor="end">-1</text><line x1="60" y1="342" x2="65" y2="342" stroke="black" stroke-width="1" /><text x="57" y="345.5" font-size="10" text-anchor="end">-0.5</text><line x1="60" y1="267" x2="65" y2="267" stroke="black" stroke-width="1" /><text x="57" y="270.5" font-size="10" text-anchor="end">0</text><line x1="60" y1="192" x2="65" y2="192" stroke="black" stroke-width="1" /><text x="57" y="195.5" font-size="10" text-anchor="end">0.5</text><line x1="60" y1="117" x2="65" y2="117" stroke="black" stroke-width="1" /><text x="57" y="120.5" font-size="10" text-anchor="end">1</text><line x1="60" y1="42" x2="65" y2="42" stroke="black" stroke-width="1" /><text x="57" y="45.5" font-size="10" text-anchor="end">1.5</text><text x="339.5" y="534" font-size="14" text-anchor="middle">X</text><text x="14" y="270.5" font-size="14" text-anchor="middle" transform="rotate(-90,14,270.5)">Y</text><text x="339.5" y="21" font-size="16" text-anchor="middle">Error Bars</text><path d="M 65 267 L 125 159.39658636507158 L 185 117.06395954377422 L 245 165.68052291732738 L 305 275.756121514137 L 365 380.52037429618923 L 425 416.4246913253761 L 485 361.68999568084814 L 545 249.51761927242597 " stroke="steelblue" stroke-width="2" fill="none" /><line x1="65" y1="289.5" x2="65" y2="244.50000000000003" stroke="steelblue" stroke-width="1" /><line x1="60" y1="289.5" x2="70" y2="289.5" stroke="steelblue" stroke-width="1" /><line x1="60" y1="244.50000000000003" x2="70" y2="244.50000000000003" stroke="steelblue" stroke-width="1" /><line x1="125" y1="189.39658636507153" x2="125" y2="129.39658636507153" stroke="steelblue" stroke-width="1" /><line x1="120" y1="189.39658636507153" x2="130" y2="189.39658636507153" stroke="steelblue" stroke-width="1" /><line x1="120" y1="129.39658636507153" x2="130" y2="129.39658636507153" stroke="steelblue" stroke-width="1" /><line x1="185" y1="135.06395954377422" x2="185" y2="99.06395954377422" stroke="steelblue" stroke-width="1" /><line x1="180" y1="135.06395954377422" x2="190" y2="135.06395954377422" stroke="steelblue" stroke-width="1" /><line x1="180" y1="99.06395954377422" x2="190" y2="99.06395954377422" stroke="steelblue" stroke-width="1" /><line x1="245" y1="192.68052291732744" x2="245" y2="138.6805229173275" stroke="steelblue" stroke-width="1" /><line x1="240" y1="192.68052291732744" x2="250" y2="192.68052291732744" stroke="steelblue" stroke-width="1" /><line x1="240" y1="138.6805229173275" x2="250" y2="138.6805229173275" stroke="steelblue" stroke-width="1" /><line x1="305" y1="308.756121514137" x2="305" y2="242.756121514137" stroke="steelblue" stroke-width="1" /><line x1="300" y1="308.756121514137" x2="310" y2="308.756121514137" stroke="steelblue" stroke-width="1" /><line x1="300" y1="242.756121514137" x2="310" y2="242.756121514137" stroke="steelblue" stroke-width="1" /><line x1="365" y1="401.52037429618923" x2="365" y2="359.52037429618923" stroke="steelblue" stroke-width="1" /><line x1="360" y1="401.52037429618923" x2="370" y2="401.52037429618923" stroke="steelblue" stroke-width="1" /><line x1="360" y1="359.52037429618923" x2="370" y2="359.52037429618923" stroke="steelblue" stroke-width="1" /><line x1="425" y1="444.9246913253761" x2="425" y2="387.9246913253761" stroke="steelblue" stroke-width="1" /><line x1="420" y1="444.9246913253761" x2="430" y2="444.9246913253761" stroke="steelblue" stroke-width="1" /><line x1="420" y1="387.9246913253761" x2="430" y2="387.9246913253761" stroke="steelblue" stroke-width="1" /><line x1="485" y1="385.68999568084814" x2="485" y2="337.68999568084814" stroke="steelblue" stroke-width="1" /><line x1="480" y1="385.68999568084814" x2="490" y2="385.68999568084814" stroke="steelblue" stroke-width="1" /><line x1="480" y1="337.68999568084814" x2="490" y2="337.68999568084814" stroke="steelblue" stroke-width="1" /><line x1="545" y1="281.0176192724259" x2="545" y2="218.01761927242592" stroke="steelblue" stroke-width="1" /><line x1="540" y1="281.0176192724259" x2="550" y2="281.0176192724259" stroke="steelblue" stroke-width="1" /><line x1="540" y1="218.01761927242592" x2="550" y2="218.01761927242592" stroke="steelblue" stroke-width="1" /></svg>