<svg xmlns="http://www.w3.org/2000/svg" width="679" height="541" fill="black"><rect width="100%" height="100%" fill="white" /><line x1="65" y1="492" x2="665" y2="492" stroke="black" stroke-width="1" /><line x1="65" y1="42" x2="65" y2="492" stroke="black" stroke-width="1" /><line x1="190" y1="42" x2="190" y2="492" stroke="#ccc" stroke-width="1" /><line x1="315" y1="42" x2="315" y2="492" stroke="#ccc" stroke-width="1" /><line x1="440" y1="42" x2="440" y2="492" stroke="#ccc" stroke-width="1" /><line x1="565" y1="42" x2="565" y2="492" stroke="#ccc" stroke-width="1" /><line x1="65" y1="417" x2="665" y2="417" stroke="#ccc" stroke-width="1" /><line x1="65" y1="342" x2="665" y2="342" stroke="#ccc" stroke-width="1" /><line x1="65" y1="267" x2="665" y2="267" stroke="#ccc" stroke-width="1" /><line x1="65" y1="192" x2="665" y2="192" stroke="#ccc" stroke-width="1" /><line x1="65" y1="117" x2="665" y2="117" stroke="#ccc" stroke-width="1" /><line x1="65" y1="42" x2="665" y2="42" stroke="#ccc" stroke-width="1" /><line x1="65" y1="492" x2="65" y2="497" stroke="black" stroke-width="1" /><text x="65" y="507" font-size="10" text-anchor="middle">0</text><line x1="190" y1="492" x2="190" y2="497" stroke="black" stroke-width="1" /><text x="190" y="507" font-size="10" text-anchor="middle">2.5</text><line x1="315" y1="492" x2="315" y2="497" stroke="black" stroke-width="1" /><text x="315" y="507" font-size="10" text-anchor="middle">5</text><line x1="440" y1="492" x2="440" y2="497" stroke="black" stroke-width="1" /><text x="440" y="507" font-size="10" text-anchor="middle">7.5</text><line x1="565" y1="492" x2="565" y2="497" stroke="black" stroke-width="1" /><text x="565" y="507" font-size="10" text-anchor="middle">10</text><line x1="60" y1="492" x2="65" y2="492" stroke="black" stroke-width="1" /><text x="57" y="495.5" font-size="10" text-anchor="end">-1.5</text><line x1="60" y1="417" x2="65" y2="417" stroke="black" stroke-width="1" /><text x="57" y="420.5" font-size="10" text-anchor="end">-1</text><line x1="60" y1="342" x2="65" y2="342" stroke="black" stroke-width="1" /><text x="57" y="345.5" font-size="10" text-anchor="end">-0.5</text><line x1="60" y1="267" x2="65" y2="267" stroke="black" stroke-width="1" /><text x="57" y="270.5" font-size="10" text-anchor="end">0</text><line x1="60" y1="192" x2="65" y2="192" stroke="black" stroke-width="1" /><text x="57" y="195.5" font-size="10" text-anchor="end">0.5</text><line x1="60" y1="117" x2="65" y2="117" stroke="black" stroke-width="1" /><text x="57" y="120.5" font-size="10" text-anchor="end">1</text><line x1="60" y1="42" x2="65" y2="42" stroke="black" stroke-width="1" /><text x="57" y="45.5" font-size="10" text-anchor="end">1.5</text><text x="339.5" y="534" font-size="14" text-anchor="middle">X</text><text x="14" y="270.5" font-size="14" text-anchor="middle" transform="rotate(-90,14,270.5)">Y</text><text x="339.5" y="21" font-size="16" text-anchor="middle">Area Plot</text><path d="M 65 267 L 70 252.02498750297576 L 75 237.19960038074078 L 80 222.67196900079904 L 85 208.58724865370237 L 90 195.0861692093696 L 95 182.30362899074476 L 100 170.36734691434634 L 105 159.39658636507158 L 110 149.5009635558775 L 115 140.7793522788155 L 120 133.3188959907847 L 125.00000000000001 127.19413710491602 L 130 122.466272187421 L 135 119.18254050173095 L 140 117.37575200939182 L 145 117.06395954377422 L 150 118.25027843212968 L 155 120.92285536827069 L 160 125.0549868468878 L 165 130.60538597614772 L 170 137.51859500266892 L 175 145.7255394270615 L 180 155.14421817349205 L 185.00000000000003 165.68052291732738 L 190 177.2291783844065 L 195 189.67479422678036 L 200 202.89301796492555 L 205.00000000000003 216.75177747661428 L 210.00000000000003 231.11260061790273 L 215 245.83199879101994 L 220.00000000000003 260.7629006350064 L 225 275.756121514137 L 230 290.6618541214873 L 235.00000000000003 305.33116530402475 L 240 319.617484153443 L 245 333.3780664942278 L 250 346.475421136274 L 255.00000000000003 358.7786836414079 L 260 370.1649238775961 L 265 380.52037429618923 L 270 389.74156665966166 L 275 397.7363658620382 L 280 404.42489051241824 L 285 409.7403110834274 L 290 413.6295176497646 L 295 416.05365054501965 L 300 416.9884886346151 L 305.00000000000006 416.4246913253761 L 310 414.36789189364987 L 315 410.83864119947077 L 320 405.8722023491598 L 325 399.51819835802297 L 330 391.8401163335851 L 335 382.9146731333981 L 340 372.8310488355588 L 345.00000000000006 361.68999568084814 L 350 349.60283138964564 L 355.00000000000006 336.6903269120635 L 360 323.08149972453543 L 365 308.91232472983893 L 370.00000000000006 294.3243756408143 L 375.00000000000006 279.46341042262446 L 380 264.4779149273474 L 385 249.51761927242597 L 390 234.73200178682765 L 395 220.26879547299325 L 400 206.27251190751025 L 405.00000000000006 192.88299732920865 L 410.00000000000006 180.23403534176998 L 415 168.4520101921816 L 420 157.6546439811185 L 425 147.94982042262706 L 430.00000000000006 139.4345069057153 L 435 132.19378562825597 L 440 126.30000348378917 L 445.00000000000006 121.81204919527698 L 450.00000000000006 118.77476491844993 L 455 117.21849819380924 L 460 117.15879872403423 L 465 118.59626300649273 L 469.99999999999994 121.51652837323707 L 475.00000000000006 125.89041649803409 L 480.00000000000006 131.67422493655596 L 485.00000000000006 138.81016378675793 L 490 147.22693310647645 L 495 156.840435318883 L 500.00000000000006 167.55461548767266 L 505.00000000000006 179.2624210662358 L 510 191.84687153131733 L 515 205.1822272137365 L 520 219.13524564759717 L 525 233.56651288496312 L 530 248.33183647394077 L 535 263.2836861819963 L 540 278.2726680692714 L 545.0000000000001 293.1490171834472 L 550 307.7640939616416 L 555 321.97186938778924 L 560 335.63038406629823 L 565 348.60316663340546 L 565 267 L 65 267 Z" stroke="none" stroke-width="0" fill="steelblue" fill-opacity="0.3" /><path d="M 65 267 L 70 252.02498750297576 L 75 237.19960038074078 L 80 222.67196900079904 L 85 208.58724865370237 L 90 195.0861692093696 L 95 182.30362899074476 L 100 170.36734691434634 L 105 159.39658636507158 L 110 149.5009635558775 L 115 140.7793522788155 L 120 133.3188959907847 L 125.00000000000001 127.19413710491602 L 130 122.466272187421 L 135 119.18254050173095 L 140 117.37575200939182 L 145 117.06395954377422 L 150 118.25027843212968 L 155 120.92285536827069 L 160 125.0549868468878 L 165 130.60538597614772 L 170 137.51859500266892 L 175 145.7255394270615 L 180 155.14421817349205 L 185.00000000000003 165.68052291732738 L 190 177.2291783844065 L 195 189.67479422678036 L 200 202.89301796492555 L 205.00000000000003 216.75177747661428 L 210.00000000000003 231.11260061790273 L 215 245.83199879101994 L 220.00000000000003 260.7629006350064 L 225 275.756121514137 L 230 290.6618541214873 L 235.00000000000003 305.33116530402475 L 240 319.617484153443 L 245 333.3780664942278 L 250 346.475421136274 L 255.00000000000003 358.7786836414079 L 260 370.1649238775961 L 265 380.52037429618923 L 270 389.74156665966166 L 275 397.7363658620382 L 280 404.42489051241824 L 285 409.7403110834274 L 290 413.6295176497646 L 295 416.05365054501965 L 300 416.9884886346151 L 305.00000000000006 416.4246913253761 L 310 414.36789189364987 L 315 410.83864119947077 L 320 405.8722023491598 L 325 399.51819835802297 L 330 391.8401163335851 L 335 382.9146731333981 L 340 372.8310488355588 L 345.00000000000006 361.68999568084814 L 350 349.60283138964564 L 355.00000000000006 336.6903269120635 L 360 323.08149972453543 L 365 308.91232472983893 L 370.00000000000006 294.3243756408143 L 375.00000000000006 279.46341042262446 L 380 264.4779149273474 L 385 249.51761927242597 L 390 234.73200178682765 L 395 220.26879547299325 L 400 206.27251190751025 L 405.00000000000006 192.88299732920865 L 410.00000000000006 180.23403534176998 L 415 168.4520101921816 L 420 157.6546439811185 L 425 147.94982042262706 L 430.00000000000006 139.4345069057153 L 435 132.19378562825597 L 440 126.30000348378917 L 445.00000000000006 121.81204919527698 L 450.00000000000006 118.77476491844993 L 455 117.21849819380924 L 460 117.15879872403423 L 465 118.59626300649273 L 469.99999999999994 121.51652837323707 L 475.00000000000006 125.89041649803409 L 480.00000000000006 131.67422493655596 L 485.00000000000006 138.81016378675793 L 490 147.22693310647645 L 495 156.840435318883 L 500.00000000000006 167.55461548767266 L 505.00000000000006 179.2624210662358 L 510 191.84687153131733 L 515 205.1822272137365 L 520 219.13524564759717 L 525 233.56651288496312 L 530 248.33183647394077 L 535 263.2836861819963 L 540 278.2726680692714 L 545.0000000000001 293.1490171834472 L 550 307.7640939616416 L 555 321.97186938778924 L 560 335.63038406629823 L 565 348.60316663340546 " stroke="steelblue" stroke-width="2" fill="none" /></svg>