<svg xmlns="http://www.w3.org/2000/svg" width="770" height="541" fill="black"><rect width="100%" height="100%" fill="white" /><line x1="65" y1="492" x2="665" y2="492" stroke="black" stroke-width="1" /><line x1="65" y1="42" x2="65" y2="492" stroke="black" stroke-width="1" /><line x1="190" y1="42" x2="190" y2="492" stroke="#ccc" stroke-width="1" /><line x1="315" y1="42" x2="315" y2="492" stroke="#ccc" stroke-width="1" /><line x1="440" y1="42" x2="440" y2="492" stroke="#ccc" stroke-width="1" /><line x1="565" y1="42" x2="565" y2="492" stroke="#ccc" stroke-width="1" /><line x1="65" y1="417" x2="665" y2="417" stroke="#ccc" stroke-width="1" /><line x1="65" y1="342" x2="665" y2="342" stroke="#ccc" stroke-width="1" /><line x1="65" y1="267" x2="665" y2="267" stroke="#ccc" stroke-width="1" /><line x1="65" y1="192" x2="665" y2="192" stroke="#ccc" stroke-width="1" /><line x1="65" y1="117" x2="665" y2="117" stroke="#ccc" stroke-width="1" /><line x1="65" y1="42" x2="665" y2="42" stroke="#ccc" stroke-width="1" /><line x1="65" y1="492" x2="65" y2="497" stroke="black" stroke-width="1" /><text x="65" y="507" font-size="10" text-anchor="middle">0</text><line x1="190" y1="492" x2="190" y2="497" stroke="black" stroke-width="1" /><text x="190" y="507" font-size="10" text-anchor="middle">2.5</text><line x1="315" y1="492" x2="315" y2="497" stroke="black" stroke-width="1" /><text x="315" y="507" font-size="10" text-anchor="middle">5</text><line x1="440" y1="492" x2="440" y2="497" stroke="black" stroke-width="1" /><text x="440" y="507" font-size="10" text-anchor="middle">7.5</text><line x1="565" y1="492" x2="565" y2="497" stroke="black" stroke-width="1" /><text x="565" y="507" font-size="10" text-anchor="middle">10</text><line x1="60" y1="492" x2="65" y2="492" stroke="black" stroke-width="1" /><text x="57" y="495.5" font-size="10" text-anchor="end">-1.5</text><line x1="60" y1="417" x2="65" y2="417" stroke="black" stroke-width="1" /><text x="57" y="420.5" font-size="10" text-anchor="end">-1</text><line x1="60" y1="342" x2="65" y2="342" stroke="black" stroke-width="1" /><text x="57" y="345.5" font-size="10" text-anchor="end">-0.5</text><line x1="60" y1="267" x2="65" y2="267" stroke="black" stroke-width="1" /><text x="57" y="270.5" font-size="10" text-anchor="end">0</text><line x1="60" y1="192" x2="65" y2="192" stroke="black" stroke-width="1" /><text x="57" y="195.5" font-size="10" text-anchor="end">0.5</text><line x1="60" y1="117" x2="65" y2="117" stroke="black" stroke-width="1" /><text x="57" y="120.5" font-size="10" text-anchor="end">1</text><line x1="60" y1="42" x2="65" y2="42" stroke="black" stroke-width="1" /><text x="57" y="45.5" font-size="10" text-anchor="end">1.5</text><text x="385" y="534" font-size="14" text-anchor="middle">X</text><text x="14" y="270.5" font-size="14" text-anchor="middle" transform="rotate(-90,14,270.5)">Y</text><text x="385" y="21" font-size="16" text-anchor="middle">Line Styles</text><path d="M 65 267 L 71.25 248.2987899922159 L 77.5 229.88940611182153 L 83.75 212.05912063709286 L 90 195.0861692093696 L 96.25 179.23540905893066 L 102.5 164.75418599649987 L 108.75 151.86847466459596 L 115 140.7793522788155 L 121.25 131.65986088513569 L 127.5 124.65230709666207 L 133.75 119.86604144652671 L 140 117.37575200939182 L 146.25 117.22029891902525 L 152.5 119.40210796890943 L 158.75 123.88713275854587 L 165 130.60538597614772 L 171.25 139.45203152723218 L 177.5 150.28902046681185 L 183.75 162.94724520700925 L 190 177.2291783844065 L 196.25 192.91195520848657 L 202.5 209.75085119215026 L 208.75 227.4831009954869 L 215 245.83199879101994 L 221.25 264.51121616559783 L 227.5 283.2292701795163 L 233.75 301.69407186030327 L 240 319.617484153443 L 246.25 336.71981820474133 L 252.5 352.7341978113516 L 258.75 367.41072393566037 L 265 380.52037429618923 L 271.25 391.8585771836981 L 277.5 401.24840373428754 L 283.75 408.5433288451444 L 290 413.6295176497646 L 296.25 416.4276018729719 L 302.5 416.8939183463067 L 308.75 415.0211903571662 L 315 410.83864119947077 L 321.25 404.41153815393653 L 327.5 395.8401740139888 L 333.75 385.25830205026443 L 340 372.8310488355588 L 346.25 358.7523374998848 L 352.5 343.24186162488877 L 358.75 326.54165699898704 L 365 308.91232472983893 L 371.25 290.62896465122145 L 377.5 271.97688248213353 L 383.75 253.2471377264733 L 390 234.73200178682765 L 396.25 216.7203971669872 L 402.5 199.49338893290735 L 408.75 183.31979878635894 L 415 168.4520101921816 L 421.25 155.12203001872695 L 427.5 143.53786814827419 L 433.75 133.8802915523887 L 440 126.30000348378917 L 446.25 120.91529180249302 L 452.5 117.81018313332356 L 458.75 117.03313165853262 L 465 118.59626300649273 L 471.25 122.47518503532177 L 477.5 128.6093684640989 L 483.75 136.90309141204898 L 490 147.22693310647645 L 496.25 159.41979345063817 L 502.5 173.29140693687117 L 508.75 188.62531167620392 L 515 205.1822272137365 L 521.25 222.7037884201094 L 527.5 240.91657719293497 L 533.75 259.5363890548382 L 540 278.2726680692714 L 546.25 296.833040868725 L 552.5 314.927879043341 L 558.75 332.27481869537985 L 565 348.60316663340546 " stroke="steelblue" stroke-width="2" fill="none" /><path d="M 65 117 L 71.25 118.17034991560064 L 77.5 121.6631367434033 L 83.75 127.42385671315287 L 90 135.3626157164441 L 96.25 145.3555320742173 L 102.5 157.24666966892687 L 108.75 170.8504712755012 L 115 185.95465411977904 L 121.25 202.32352248020004 L 127.5 219.70164564070973 L 133.75 237.81784380165192 L 140 256.3894197498446 L 146.25 275.1265702540404 L 152.5 293.73690834742376 L 158.75 311.93002592843607 L 165 329.4220254820714 L 171.25 345.93995020564574 L 177.5 361.2260434084109 L 183.75 375.04177071850376 L 190 387.1715423320401 L 196.25 397.42607721989765 L 202.5 405.64535679486954 L 208.75 411.70112194819745 L 215 415.4988744900668 L 221.25 416.979351762253 L 227.5 416.11945141208196 L 233.75 412.93259189691696 L 240 407.46850309361946 L 246.25 399.81245028045305 L 252.5 390.0839036009341 L 258.75 378.4346737721998 L 265 365.0465431295418 L 271.25 350.12842897386247 L 277.5 333.9131234870689 L 283.75 316.65366108793313 L 290 298.619369914617 L 296.25 280.09166904915526 L 302.5 261.3596770668035 L 308.75 242.7157004373695 L 315 224.45067218051605 L 321.25 206.84961195329458 L 327.5 190.18717841372393 L 333.75 174.72338326429383 L 340 160.699533856311 L 346.25 148.3344676693892 L 352.5 137.82113742577184 L 358.75 129.32360012763638 L 365 122.97445700244515 L 371.25 118.87278430514084 L 377.5 117.0825872663251 L 383.75 117.63180131204166 L 390 120.51185614079645 L 396.25 125.67780946024612 L 402.5 133.0490482966385 L 408.75 142.51054693330622 L 415 153.9146618485043 L 421.25 167.08343564318602 L 427.5 181.8113740066957 L 433.75 197.8686523867575 L 440 215.00470232474612 L 446.25 232.95212149267962 L 452.5 251.43084641711206 L 458.75 270.15252277596727 L 465 288.825005071292 L 471.25 307.1569154620412 L 477.5 324.8621906178333 L 483.75 341.6645456415447 L 490 357.30178540272357 L 496.25 371.52989600490685 L 502.5 384.1268525408624 L 508.75 394.8960837170076 L 515 403.6695392827015 L 521.25 410.3103123981996 L 527.5 414.71477602009855 L 533.75 416.8141999666896 L 540 416.57582342945676 L 546.25 414.00336619453645 L 552.5 409.136970596699 L 558.75 402.05257511164046 L 565 392.86072936146786 " stroke="crimson" stroke-width="2" fill="none" stroke-dasharray="8 4" /><path d="M 65 267 L 71.25 253.89174163668193 L 77.5 240.88377936096057 L 83.75 228.07564185831825 L 90 215.56532888168232 L 96.25 203.44856141940926 L 102.5 191.81804929893036 L 108.75 180.7627818298928 L 115 170.36734691434634 L 121.25 160.7112838337119 L 127.5 151.86847466459596 L 133.75 143.90657897995192 L 140 136.8865161608975 L 146.25 130.86199928020852 L 152.5 125.87912412391927 L 158.75 121.97601649557299 L 165 119.18254050173101 L 171.25 117.52007005075018 L 177.5 117.0013253131795 L 183.75 117.6302753950738 L 190 119.40210796890943 L 196.25 122.30326609446564 L 202.5 126.31155194794076 L 208.75 131.39629666563616 L 215 137.51859500266892 L 221.25 144.63160301125544 L 227.5 152.6808964609196 L 233.75 161.6048872582212 L 240 171.33529467982436 L 246.25 181.79766781333035 L 252.5 192.91195520848657 L 258.75 204.59311738016362 L 265 216.75177747661422 L 271.25 229.29490513451378 L 277.5 242.1265282883562 L 283.75 255.14846748789154 L 290 268.2610871050723 L 296.25 281.3640576827505 L 302.5 294.3571235921147 L 308.75 307.14087012523987 L 315 319.617484153443 L 321.25 331.69150253136934 L 327.5 343.2705425204954 L 333.75 354.2660086433102 L 340 364.59377055977507 L 346.25 374.17480677938045 L 352.5 382.93580928352355 L 358.75 390.8097444320184 L 365 397.73636586203816 L 371.25 403.6626754551113 L 377.5 408.5433288451444 L 383.75 412.34098236478144 L 390 415.02657877548546 L 396.25 416.5795695951171 L 402.5 416.9880723219003 L 408.75 416.24896135179716 L 415 414.36789189364987 L 421.25 411.3592566991057 L 427.5 407.2460759384003 L 433.75 402.0598210646011 L 440 395.8401740139888 L 446.25 388.634723585023 L 452.5 380.49860131900886 L 458.75 371.4940596684748 L 465 361.68999568084826 L 471.25 351.1614238419025 L 477.5 339.98890211244066 L 483.75 328.2579155498209 L 490 316.0582222304612 L 496.25 303.48316647790915 L 502.5 290.62896465122145 L 508.75 277.5939689583471 L 515 264.47791492734757 L 521.25 251.3811582933297 L 527.5 238.4039071399448 L 533.75 225.64545517062578 L 540 213.20342197608005 L 546.25 201.17300611103332 L 552.5 189.6462566952074 L 558.75 178.71136911177746 L 565 168.4520101921816 " stroke="seagreen" stroke-width="2" fill="none" stroke-dasharray="2 4" /><path d="M 65 117 L 71.25 117.57385247996086 L 77.5 119.29101916425998 L 83.75 122.13836138142688 L 90 126.09409307289314 L 96.25 131.12794748610952 L 102.5 137.2014087565588 L 108.75 144.2680066067477 L 115 152.27367190732673 L 121.25 161.15715037980948 L 127.5 170.8504712755012 L 133.75 181.2794674446012 L 140 192.36434281624088 L 146.25 204.02028294745946 L 152.5 216.15810396958238 L 158.75 228.68493496667827 L 165 241.50492856496385 L 171.25 254.51999429617976 L 177.5 267.63054912370325 L 183.75 280.73627938884835 L 190 293.73690834742376 L 196.25 306.53296342384385 L 202.5 319.02653731225087 L 208.75 331.12203710118575 L 215 342.72691568997857 L 221.25 353.75237990052506 L 227.5 364.1140698664258 L 233.75 373.732704501234 L 240 382.5346881070961 L 246.25 390.45267348240134 L 252.5 397.42607721989765 L 258.75 403.40154325253786 L 265 408.3333511002987 L 271.25 412.1837656943251 L 277.5 414.92332610176817 L 283.75 416.5310709421772 L 290 416.9946987707013 L 296.25 416.3106622009514 L 302.5 414.48419504735335 L 308.75 411.5292722793159 L 315 407.46850309361946 L 321.25 402.33295792316756 L 327.5 396.16193070572035 L 333.75 389.0026382315797 L 340 380.90985887062624 L 346.25 371.94551344294075 L 352.5 362.1781914399221 L 358.75 351.68262622095676 L 365 340.53912320110504 L 371.25 328.8329454049451 L 377.5 316.65366108793313 L 383.75 304.0944584168619 L 390 291.251432453053 L 396.25 278.22284989383365 L 402.5 265.10839719803016 L 408.75 252.00841784834682 L 415 239.0231445866138 L 421.25 226.25193249635362 L 427.5 213.7924988006347 L 433.75 201.74017519179262 L 440 190.18717841372393 L 446.25 179.2219046777896 L 452.5 168.92825331101375 L 458.75 159.3849848115923 L 465 150.6651182234625 L 471.25 142.8353724408451 L 477.5 135.95565571753752 L 483.75 130.0786072869144 L 490 125.24919459986592 L 496.25 121.50436926235494 L 502.5 118.87278430514084 L 508.75 117.37457494894267 L 515 117.0212045424878 L 521.25 117.81537685223066 L 527.5 119.75101537484511 L 533.75 122.81330983077783 L 540 126.9788294831232 L 546.25 132.215702414777 L 552.5 138.4838593921516 L 558.75 145.7353404495638 L 565 153.9146618485043 " stroke="darkorange" stroke-width="2" fill="none" stroke-dasharray="8 4 2 4" /><rect x="670" y="32" width="91" height="92" fill="white" /><rect x="670" y="32" width="91" height="92" fill="none" stroke="black" stroke-width="1" /><text x="700" y="47" font-size="12" text-anchor="start">Solid</text><line x1="680" y1="44" x2="692" y2="44" stroke="steelblue" stroke-width="2" /><text x="700" y="65" font-size="12" text-anchor="start">Dashed</text><line x1="680" y1="62" x2="692" y2="62" stroke="crimson" stroke-width="2" stroke-dasharray="8 4" /><text x="700" y="83" font-size="12" text-anchor="start">Dotted</text><line x1="680" y1="80" x2="692" y2="80" stroke="seagreen" stroke-width="2" stroke-dasharray="2 4" /><text x="700" y="101" font-size="12" text-anchor="start">Dash-dot</text><line x1="680" y1="98" x2="692" y2="98" stroke="darkorange" stroke-width="2" stroke-dasharray="8 4 2 4" /></svg>