<svg xmlns="http://www.w3.org/2000/svg" width="679" height="541" fill="black"><rect width="100%" height="100%" fill="white" /><text x="339.5" y="21" font-size="16" text-anchor="middle">Energy Flow</text><rect x="140.83333333333331" y="42" width="20" height="450" fill="#1f77b4" /><text x="134.83333333333331" y="271.2" font-size="12" text-anchor="end">Input</text><rect x="312.5" y="42" width="20" height="276.25" fill="#ff7f0e" /><text x="338.5" y="184.325" font-size="12" text-anchor="start">Process A</text><rect x="312.5" y="326.25" width="20" height="165.75" fill="#2ca02c" /><text x="338.5" y="413.325" font-size="12" text-anchor="start">Process B</text><rect x="484.16666666666663" y="42" width="20" height="276.25" fill="#d62728" /><text x="510.16666666666663" y="184.325" font-size="12" text-anchor="start">Output X</text><rect x="484.16666666666663" y="326.25" width="20" height="165.75" fill="#9467bd" /><text x="510.16666666666663" y="413.325" font-size="12" text-anchor="start">Output Y</text><path d="M 160.83333333333331 42 C 236.66666666666666 42 236.66666666666666 42 312.5 42 L 312.5 318.25 C 236.66666666666666 318.25 236.66666666666666 323.25 160.83333333333331 323.25 Z" stroke="none" stroke-width="0" fill="#1f77b4" fill-opacity="0.5" /><path d="M 160.83333333333331 323.25 C 236.66666666666666 323.25 236.66666666666666 326.25 312.5 326.25 L 312.5 492 C 236.66666666666666 492 236.66666666666666 492 160.83333333333331 492 Z" stroke="none" stroke-width="0" fill="#1f77b4" fill-opacity="0.5" /><path d="M 332.5 42 C 408.3333333333333 42 408.3333333333333 42 484.16666666666663 42 L 484.16666666666663 263 C 408.3333333333333 263 408.3333333333333 263 332.5 263 Z" stroke="none" stroke-width="0" fill="#ff7f0e" fill-opacity="0.5" /><path d="M 332.5 326.25 C 408.3333333333333 326.25 408.3333333333333 263 484.16666666666663 263 L 484.16666666666663 318.25 C 408.3333333333333 318.25 408.3333333333333 381.5 332.5 381.5 Z" stroke="none" stroke-width="0" fill="#2ca02c" fill-opacity="0.5" /><path d="M 332.5 263 C 408.3333333333333 263 408.3333333333333 326.25 484.16666666666663 326.25 L 484.16666666666663 381.5 C 408.3333333333333 381.5 408.3333333333333 318.25 332.5 318.25 Z" stroke="none" stroke-width="0" fill="#ff7f0e" fill-opacity="0.5" /><path d="M 332.5 381.5 C 408.3333333333333 381.5 408.3333333333333 381.5 484.16666666666663 381.5 L 484.16666666666663 492 C 408.3333333333333 492 408.3333333333333 492 332.5 492 Z" stroke="none" stroke-width="0" fill="#2ca02c" fill-opacity="0.5" /></svg>