<svg xmlns="http://www.w3.org/2000/svg" width="679" height="541" fill="black"><rect width="100%" height="100%" fill="white" /><defs><linearGradient id="grad_0" x1="0%" y1="0%" x2="100%" y2="0%"><stop offset="0%" stop-color="#e41a1c"/><stop offset="100%" stop-color="#377eb8"/></linearGradient><linearGradient id="grad_1" x1="0%" y1="0%" x2="100%" y2="0%"><stop offset="0%" stop-color="#e41a1c"/><stop offset="100%" stop-color="#4daf4a"/></linearGradient><linearGradient id="grad_2" x1="0%" y1="0%" x2="100%" y2="0%"><stop offset="0%" stop-color="#e41a1c"/><stop offset="100%" stop-color="#ff7f00"/></linearGradient><linearGradient id="grad_3" x1="0%" y1="0%" x2="100%" y2="0%"><stop offset="0%" stop-color="#377eb8"/><stop offset="100%" stop-color="#984ea3"/></linearGradient><linearGradient id="grad_4" x1="0%" y1="0%" x2="100%" y2="0%"><stop offset="0%" stop-color="#4daf4a"/><stop offset="100%" stop-color="#984ea3"/></linearGradient><linearGradient id="grad_5" x1="0%" y1="0%" x2="100%" y2="0%"><stop offset="0%" stop-color="#ff7f00"/><stop offset="100%" stop-color="#984ea3"/></linearGradient><linearGradient id="grad_6" x1="0%" y1="0%" x2="100%" y2="0%"><stop offset="0%" stop-color="#377eb8"/><stop offset="100%" stop-color="#a65628"/></linearGradient><linearGradient id="grad_7" x1="0%" y1="0%" x2="100%" y2="0%"><stop offset="0%" stop-color="#4daf4a"/><stop offset="100%" stop-color="#a65628"/></linearGradient><linearGradient id="grad_8" x1="0%" y1="0%" x2="100%" y2="0%"><stop offset="0%" stop-color="#ff7f00"/><stop offset="100%" stop-color="#a65628"/></linearGradient></defs><text x="339.5" y="21" font-size="16" text-anchor="middle">Budget Allocation — Gradient Ribbons</text><rect x="140.83333333333331" y="42" width="20" height="450" fill="#e41a1c" /><text x="134.83333333333331" y="271.2" font-size="12" text-anchor="end">Budget</text><rect x="312.5" y="42" width="20" height="173.60000000000002" fill="#377eb8" /><text x="338.5" y="133" font-size="12" text-anchor="start">R&amp;D</text><rect x="312.5" y="223.60000000000002" width="20" height="108.5" fill="#4daf4a" /><text x="338.5" y="282.05" font-size="12" text-anchor="start">Marketing</text><rect x="312.5" y="340.1" width="20" height="151.89999999999998" fill="#ff7f00" /><text x="338.5" y="420.25" font-size="12" text-anchor="start">Ops</text><rect x="484.16666666666663" y="42" width="20" height="265.2" fill="#984ea3" /><text x="510.16666666666663" y="178.79999999999998" font-size="12" text-anchor="start">Product A</text><rect x="484.16666666666663" y="315.2" width="20" height="176.8" fill="#a65628" /><text x="510.16666666666663" y="407.8" font-size="12" text-anchor="start">Product B</text><path d="M 160.83333333333331 42 C 236.66666666666666 42 236.66666666666666 42 312.5 42 L 312.5 215.60000000000002 C 236.66666666666666 215.60000000000002 236.66666666666666 222 160.83333333333331 222 Z" stroke="none" stroke-width="0" fill="url(#grad_0)" fill-opacity="0.6" /><path d="M 160.83333333333331 222 C 236.66666666666666 222 236.66666666666666 223.60000000000002 312.5 223.60000000000002 L 312.5 332.1 C 236.66666666666666 332.1 236.66666666666666 334.5 160.83333333333331 334.5 Z" stroke="none" stroke-width="0" fill="url(#grad_1)" fill-opacity="0.6" /><path d="M 160.83333333333331 334.5 C 236.66666666666666 334.5 236.66666666666666 340.1 312.5 340.1 L 312.5 492 C 236.66666666666666 492 236.66666666666666 492 160.83333333333331 492 Z" stroke="none" stroke-width="0" fill="url(#grad_2)" fill-opacity="0.6" /><path d="M 332.5 42 C 408.3333333333333 42 408.3333333333333 42 484.16666666666663 42 L 484.16666666666663 152.5 C 408.3333333333333 152.5 408.3333333333333 150.5 332.5 150.5 Z" stroke="none" stroke-width="0" fill="url(#grad_3)" fill-opacity="0.6" /><path d="M 332.5 223.60000000000002 C 408.3333333333333 223.60000000000002 408.3333333333333 152.5 484.16666666666663 152.5 L 484.16666666666663 218.8 C 408.3333333333333 218.8 408.3333333333333 288.70000000000005 332.5 288.70000000000005 Z" stroke="none" stroke-width="0" fill="url(#grad_4)" fill-opacity="0.6" /><path d="M 332.5 340.1 C 408.3333333333333 340.1 408.3333333333333 218.8 484.16666666666663 218.8 L 484.16666666666663 307.2 C 408.3333333333333 307.2 408.3333333333333 426.9 332.5 426.9 Z" stroke="none" stroke-width="0" fill="url(#grad_5)" fill-opacity="0.6" /><path d="M 332.5 150.5 C 408.3333333333333 150.5 408.3333333333333 315.2 484.16666666666663 315.2 L 484.16666666666663 381.5 C 408.3333333333333 381.5 408.3333333333333 215.60000000000002 332.5 215.60000000000002 Z" stroke="none" stroke-width="0" fill="url(#grad_6)" fill-opacity="0.6" /><path d="M 332.5 288.70000000000005 C 408.3333333333333 288.70000000000005 408.3333333333333 381.5 484.16666666666663 381.5 L 484.16666666666663 425.7 C 408.3333333333333 425.7 408.3333333333333 332.1 332.5 332.1 Z" stroke="none" stroke-width="0" fill="url(#grad_7)" fill-opacity="0.6" /><path d="M 332.5 426.9 C 408.3333333333333 426.9 408.3333333333333 425.7 484.16666666666663 425.7 L 484.16666666666663 492 C 408.3333333333333 492 408.3333333333333 491.99999999999994 332.5 491.99999999999994 Z" stroke="none" stroke-width="0" fill="url(#grad_8)" fill-opacity="0.6" /></svg>