<svg xmlns="http://www.w3.org/2000/svg" width="777" height="541" fill="black"><rect width="100%" height="100%" fill="white" /><text x="388.5" y="21" font-size="16" text-anchor="middle">Node Colors &amp; Legend</text><rect x="138.83333333333331" y="42" width="24" height="450" fill="#888888" /><text x="132.83333333333331" y="271.2" font-size="12" text-anchor="end">Input</text><rect x="310.5" y="42" width="24" height="252.57142857142856" fill="#377eb8" /><text x="340.5" y="172.48571428571427" font-size="12" text-anchor="start">Process A</text><rect x="310.5" y="302.57142857142856" width="24" height="189.42857142857142" fill="#4daf4a" /><text x="340.5" y="401.48571428571427" font-size="12" text-anchor="start">Process B</text><rect x="482.16666666666663" y="42" width="24" height="450" fill="#984ea3" /><text x="512.1666666666666" y="271.2" font-size="12" text-anchor="start">Output</text><path d="M 162.83333333333331 42 C 236.66666666666666 42 236.66666666666666 42 310.5 42 L 310.5 294.57142857142856 C 236.66666666666666 294.57142857142856 236.66666666666666 299.1428571428571 162.83333333333331 299.1428571428571 Z" stroke="none" stroke-width="0" fill="#888888" fill-opacity="0.5" /><path d="M 162.83333333333331 299.1428571428571 C 236.66666666666666 299.1428571428571 236.66666666666666 302.57142857142856 310.5 302.57142857142856 L 310.5 492 C 236.66666666666666 492 236.66666666666666 491.99999999999994 162.83333333333331 491.99999999999994 Z" stroke="none" stroke-width="0" fill="#888888" fill-opacity="0.5" /><path d="M 334.5 42 C 408.3333333333333 42 408.3333333333333 42 482.16666666666663 42 L 482.16666666666663 304.5 C 408.3333333333333 304.5 408.3333333333333 294.57142857142856 334.5 294.57142857142856 Z" stroke="none" stroke-width="0" fill="#377eb8" fill-opacity="0.5" /><path d="M 334.5 302.57142857142856 C 408.3333333333333 302.57142857142856 408.3333333333333 304.5 482.16666666666663 304.5 L 482.16666666666663 492 C 408.3333333333333 492 408.3333333333333 492 334.5 492 Z" stroke="none" stroke-width="0" fill="#4daf4a" fill-opacity="0.5" /><rect x="670" y="32" width="98" height="92" fill="white" /><rect x="670" y="32" width="98" height="92" fill="none" stroke="black" stroke-width="1" /><text x="700" y="47" font-size="12" text-anchor="start">Input</text><rect x="680" y="41" width="12" height="12" fill="#888888" /><text x="700" y="65" font-size="12" text-anchor="start">Process A</text><rect x="680" y="59" width="12" height="12" fill="#377eb8" /><text x="700" y="83" font-size="12" text-anchor="start">Process B</text><rect x="680" y="77" width="12" height="12" fill="#4daf4a" /><text x="700" y="101" font-size="12" text-anchor="start">Output</text><rect x="680" y="95" width="12" height="12" fill="#984ea3" /></svg>