<svg xmlns="http://www.w3.org/2000/svg" width="798" height="541" fill="black"><rect width="100%" height="100%" fill="white" /><text x="399" y="21" font-size="16" text-anchor="middle">Variant Filtering Pipeline</text><rect x="119.375" y="42" width="20" height="450" fill="#888888" /><text x="113.375" y="271.2" font-size="12" text-anchor="end">Raw Variants</text><rect x="248.125" y="42" width="20" height="353.6" fill="#4daf4a" /><text x="274.125" y="223" font-size="12" text-anchor="start">QC Pass</text><rect x="248.125" y="403.6" width="20" height="88.4" fill="#e41a1c" /><text x="274.125" y="452" font-size="12" text-anchor="start">QC Fail</text><rect x="376.875" y="42" width="20" height="331.5" fill="#377eb8" /><text x="402.875" y="211.95" font-size="12" text-anchor="start">High Conf</text><rect x="376.875" y="381.5" width="20" height="110.5" fill="#ff7f00" /><text x="402.875" y="440.95" font-size="12" text-anchor="start">Low Conf</text><rect x="505.625" y="42" width="20" height="287.525" fill="#984ea3" /><text x="531.625" y="189.96249999999998" font-size="12" text-anchor="start">SNP</text><rect x="505.625" y="337.525" width="20" height="65.1" fill="#a65628" /><text x="531.625" y="374.275" font-size="12" text-anchor="start">Indel</text><rect x="505.625" y="410.625" width="20" height="81.375" fill="#cccccc" /><text x="531.625" y="455.5125" font-size="12" text-anchor="start">Filtered Out</text><path d="M 139.375 42 C 193.75 42 193.75 42 248.125 42 L 248.125 395.6 C 193.75 395.6 193.75 402 139.375 402 Z" stroke="none" stroke-width="0" fill="#888888" fill-opacity="0.45" /><path d="M 139.375 402 C 193.75 402 193.75 403.6 248.125 403.6 L 248.125 492 C 193.75 492 193.75 492 139.375 492 Z" stroke="none" stroke-width="0" fill="#888888" fill-opacity="0.45" /><path d="M 268.125 42 C 322.5 42 322.5 42 376.875 42 L 376.875 373.5 C 322.5 373.5 322.5 307.20000000000005 268.125 307.20000000000005 Z" stroke="none" stroke-width="0" fill="#4daf4a" fill-opacity="0.45" /><path d="M 268.125 307.20000000000005 C 322.5 307.20000000000005 322.5 381.5 376.875 381.5 L 376.875 492 C 322.5 492 322.5 395.6 268.125 395.6 Z" stroke="none" stroke-width="0" fill="#4daf4a" fill-opacity="0.45" /><path d="M 396.875 42 C 451.25 42 451.25 42 505.625 42 L 505.625 286.125 C 451.25 286.125 451.25 290.625 396.875 290.625 Z" stroke="none" stroke-width="0" fill="#377eb8" fill-opacity="0.45" /><path d="M 396.875 381.5 C 451.25 381.5 451.25 286.125 505.625 286.125 L 505.625 329.525 C 451.25 329.525 451.25 425.7 396.875 425.7 Z" stroke="none" stroke-width="0" fill="#ff7f00" fill-opacity="0.45" /><path d="M 396.875 290.625 C 451.25 290.625 451.25 337.525 505.625 337.525 L 505.625 402.625 C 451.25 402.625 451.25 356.925 396.875 356.925 Z" stroke="none" stroke-width="0" fill="#377eb8" fill-opacity="0.45" /><path d="M 396.875 356.925 C 451.25 356.925 451.25 410.625 505.625 410.625 L 505.625 426.9 C 451.25 426.9 451.25 373.5 396.875 373.5 Z" stroke="none" stroke-width="0" fill="#377eb8" fill-opacity="0.45" /><path d="M 396.875 425.7 C 451.25 425.7 451.25 426.9 505.625 426.9 L 505.625 492 C 451.25 492 451.25 492 396.875 492 Z" stroke="none" stroke-width="0" fill="#ff7f00" fill-opacity="0.45" /><rect x="670" y="32" width="119" height="164" fill="white" /><rect x="670" y="32" width="119" height="164" fill="none" stroke="black" stroke-width="1" /><text x="700" y="47" font-size="12" text-anchor="start">Raw Variants</text><rect x="680" y="41" width="12" height="12" fill="#888888" /><text x="700" y="65" font-size="12" text-anchor="start">QC Pass</text><rect x="680" y="59" width="12" height="12" fill="#4daf4a" /><text x="700" y="83" font-size="12" text-anchor="start">QC Fail</text><rect x="680" y="77" width="12" height="12" fill="#e41a1c" /><text x="700" y="101" font-size="12" text-anchor="start">High Conf</text><rect x="680" y="95" width="12" height="12" fill="#377eb8" /><text x="700" y="119" font-size="12" text-anchor="start">Low Conf</text><rect x="680" y="113" width="12" height="12" fill="#ff7f00" /><text x="700" y="137" font-size="12" text-anchor="start">SNP</text><rect x="680" y="131" width="12" height="12" fill="#984ea3" /><text x="700" y="155" font-size="12" text-anchor="start">Indel</text><rect x="680" y="149" width="12" height="12" fill="#a65628" /><text x="700" y="173" font-size="12" text-anchor="start">Filtered Out</text><rect x="680" y="167" width="12" height="12" fill="#cccccc" /></svg>