<svg xmlns="http://www.w3.org/2000/svg" width="798" height="517" fill="black"><rect width="100%" height="100%" fill="white" /><line x1="65" y1="492" x2="665" y2="492" stroke="black" stroke-width="1" /><line x1="65" y1="42" x2="65" y2="492" stroke="black" stroke-width="1" /><line x1="60" y1="492" x2="65" y2="492" stroke="black" stroke-width="1" /><text x="57" y="495.5" font-size="10" text-anchor="end">0</text><line x1="60" y1="402" x2="65" y2="402" stroke="black" stroke-width="1" /><text x="57" y="405.5" font-size="10" text-anchor="end">2</text><line x1="60" y1="312" x2="65" y2="312" stroke="black" stroke-width="1" /><text x="57" y="315.5" font-size="10" text-anchor="end">4</text><line x1="60" y1="222" x2="65" y2="222" stroke="black" stroke-width="1" /><text x="57" y="225.5" font-size="10" text-anchor="end">6</text><line x1="60" y1="132" x2="65" y2="132" stroke="black" stroke-width="1" /><text x="57" y="135.5" font-size="10" text-anchor="end">8</text><line x1="60" y1="42" x2="65" y2="42" stroke="black" stroke-width="1" /><text x="57" y="45.5" font-size="10" text-anchor="end">10</text><text x="14" y="258.5" font-size="14" text-anchor="middle" transform="rotate(-90,14,258.5)">−log₁₀(p-value)</text><text x="399" y="21" font-size="16" text-anchor="middle">Manhattan — Custom Genome Build</text><line x1="65" y1="163.45365019512087" x2="665" y2="163.45365019512087" stroke="#cc3333" stroke-width="1" stroke-dasharray="4 4" /><line x1="65" y1="267" x2="665" y2="267" stroke="#888888" stroke-width="1" stroke-dasharray="4 4" /><line x1="245" y1="42" x2="245" y2="492" stroke="#ccc" stroke-width="0.5" /><line x1="387.5" y1="42" x2="387.5" y2="492" stroke="#ccc" stroke-width="0.5" /><line x1="507.5" y1="42" x2="507.5" y2="492" stroke="#ccc" stroke-width="0.5" /><circle cx="66.5" cy="460.74465031826634" r="2.5" fill="#4477AA" /><circle cx="69.5" cy="471.1416942749473" r="2.5" fill="#4477AA" /><circle cx="72.5" cy="460.25549441520036" r="2.5" fill="#4477AA" /><circle cx="75.5" cy="472.60010150009555" r="2.5" fill="#4477AA" /><circle cx="78.5" cy="465.4665798149368" r="2.5" fill="#4477AA" /><circle cx="81.5" cy="459.230212159078" r="2.5" fill="#4477AA" /><circle cx="84.5" cy="440.6198441196436" r="2.5" fill="#4477AA" /><circle cx="87.5" cy="468.7067106159089" r="2.5" fill="#4477AA" /><circle cx="90.5" cy="476.2110815597502" r="2.5" fill="#4477AA" /><circle cx="93.5" cy="463.54573074538166" r="2.5" fill="#4477AA" /><circle cx="96.5" cy="471.85702769858705" r="2.5" fill="#4477AA" /><circle cx="99.5" cy="461.1425138866192" r="2.5" fill="#4477AA" /><circle cx="102.5" cy="466.046204759251" r="2.5" fill="#4477AA" /><circle cx="105.5" cy="464.25184869872663" r="2.5" fill="#4477AA" /><circle cx="108.5" cy="474.74735940148025" r="2.5" fill="#4477AA" /><circle cx="111.5" cy="465.13348301742445" r="2.5" fill="#4477AA" /><circle cx="114.5" cy="435.93975507997766" r="2.5" fill="#4477AA" /><circle cx="117.5" cy="472.1383964540448" r="2.5" fill="#4477AA" /><circle cx="120.5" cy="472.0283412969719" r="2.5" fill="#4477AA" /><circle cx="123.5" cy="467.65879897073836" r="2.5" fill="#4477AA" /><circle cx="126.5" cy="465.1220668256422" r="2.5" fill="#4477AA" /><circle cx="129.5" cy="473.6988250755496" r="2.5" fill="#4477AA" /><circle cx="132.5" cy="449.12987144985857" r="2.5" fill="#4477AA" /><circle cx="135.5" cy="471.325657243276" r="2.5" fill="#4477AA" /><circle cx="138.5" cy="464.499483879074" r="2.5" fill="#4477AA" /><circle cx="141.5" cy="449.6319428340213" r="2.5" fill="#4477AA" /><circle cx="144.5" cy="455.4795684833918" r="2.5" fill="#4477AA" /><circle cx="147.5" cy="459.8059609347379" r="2.5" fill="#4477AA" /><circle cx="150.5" cy="471.9864349921285" r="2.5" fill="#4477AA" /><circle cx="153.5" cy="475.05697474504603" r="2.5" fill="#4477AA" /><circle cx="156.5" cy="456.48653395361634" r="2.5" fill="#4477AA" /><circle cx="159.5" cy="466.08021650980675" r="2.5" fill="#4477AA" /><circle cx="162.5" cy="472.5131606203136" r="2.5" fill="#4477AA" /><circle cx="165.5" cy="470.6712214653384" r="2.5" fill="#4477AA" /><circle cx="168.5" cy="458.9610674188933" r="2.5" fill="#4477AA" /><circle cx="171.5" cy="438.9229482543268" r="2.5" fill="#4477AA" /><circle cx="174.5" cy="471.85870568159373" r="2.5" fill="#4477AA" /><circle cx="177.5" cy="470.8477006693598" r="2.5" fill="#4477AA" /><circle cx="180.5" cy="469.9144599109331" r="2.5" fill="#4477AA" /><circle cx="183.5" cy="445.2213578822701" r="2.5" fill="#4477AA" /><circle cx="186.5" cy="463.96505138409543" r="2.5" fill="#4477AA" /><circle cx="189.5" cy="441.14994287481915" r="2.5" fill="#4477AA" /><circle cx="192.5" cy="474.53147192262776" r="2.5" fill="#4477AA" /><circle cx="195.5" cy="473.543785035469" r="2.5" fill="#4477AA" /><circle cx="198.5" cy="460.1842027801562" r="2.5" fill="#4477AA" /><circle cx="201.5" cy="460.8660071698415" r="2.5" fill="#4477AA" /><circle cx="204.5" cy="456.6043597306523" r="2.5" fill="#4477AA" /><circle cx="207.5" cy="471.0142211906893" r="2.5" fill="#4477AA" /><circle cx="210.5" cy="464.1727977507175" r="2.5" fill="#4477AA" /><circle cx="213.5" cy="466.86303280804105" r="2.5" fill="#4477AA" /><circle cx="216.5" cy="463.81328535439053" r="2.5" fill="#4477AA" /><circle cx="219.5" cy="452.81766475788544" r="2.5" fill="#4477AA" /><circle cx="222.5" cy="475.4061533031044" r="2.5" fill="#4477AA" /><circle cx="225.5" cy="471.5922550579594" r="2.5" fill="#4477AA" /><circle cx="228.5" cy="464.6799004932589" r="2.5" fill="#4477AA" /><circle cx="231.50000000000003" cy="434.08247847371166" r="2.5" fill="#4477AA" /><circle cx="234.49999999999997" cy="468.72036501119675" r="2.5" fill="#4477AA" /><circle cx="237.5" cy="473.9632119711692" r="2.5" fill="#4477AA" /><circle cx="240.5" cy="475.26145285704973" r="2.5" fill="#4477AA" /><circle cx="243.5" cy="471.55007245944137" r="2.5" fill="#4477AA" /><circle cx="246.187499" cy="448.64017067610393" r="2.5" fill="#EE6677" /><circle cx="248.5624985" cy="456.1873308447222" r="2.5" fill="#EE6677" /><circle cx="250.93749799999998" cy="442.83912690486454" r="2.5" fill="#EE6677" /><circle cx="253.31249749999998" cy="476.3545345460888" r="2.5" fill="#EE6677" /><circle cx="255.68749699999998" cy="445.48581696900493" r="2.5" fill="#EE6677" /><circle cx="258.0624965" cy="470.1893237682559" r="2.5" fill="#EE6677" /><circle cx="260.437496" cy="435.6297279827464" r="2.5" fill="#EE6677" /><circle cx="262.8124955" cy="472.2573843224027" r="2.5" fill="#EE6677" /><circle cx="265.187495" cy="453.9963763255041" r="2.5" fill="#EE6677" /><circle cx="267.5624945" cy="475.82606571662143" r="2.5" fill="#EE6677" /><circle cx="269.937494" cy="451.01947126781135" r="2.5" fill="#EE6677" /><circle cx="272.31249349999996" cy="473.1157330108697" r="2.5" fill="#EE6677" /><circle cx="274.687493" cy="475.44091659009086" r="2.5" fill="#EE6677" /><circle cx="277.06249249999996" cy="471.72094986640667" r="2.5" fill="#EE6677" /><circle cx="279.437492" cy="476.14647034539956" r="2.5" fill="#EE6677" /><circle cx="281.8124915" cy="469.6586219049743" r="2.5" fill="#EE6677" /><circle cx="284.187491" cy="472.2110502915103" r="2.5" fill="#EE6677" /><circle cx="286.56249049999997" cy="451.27992834869616" r="2.5" fill="#EE6677" /><circle cx="288.93749" cy="464.82179237923725" r="2.5" fill="#EE6677" /><circle cx="291.31248949999997" cy="440.5087528458607" r="2.5" fill="#EE6677" /><circle cx="293.687489" cy="449.5902478661151" r="2.5" fill="#EE6677" /><circle cx="296.0624885" cy="456.9678485020246" r="2.5" fill="#EE6677" /><circle cx="298.43748800000003" cy="450.8143792418867" r="2.5" fill="#EE6677" /><circle cx="300.8124875" cy="457.5879632340418" r="2.5" fill="#EE6677" /><circle cx="303.187487" cy="98.18166100650535" r="2.5" fill="#EE6677" /><circle cx="305.5624865" cy="89.98522133708559" r="2.5" fill="#EE6677" /><circle cx="307.93748600000004" cy="104.73137925222227" r="2.5" fill="#EE6677" /><circle cx="310.3124855" cy="96.18782150801383" r="2.5" fill="#EE6677" /><circle cx="312.68748500000004" cy="75.19042681670959" r="2.5" fill="#EE6677" /><circle cx="315.0624845" cy="88.61844234152682" r="2.5" fill="#EE6677" /><circle cx="317.43748400000004" cy="96.89401179124178" r="2.5" fill="#EE6677" /><circle cx="319.8124835" cy="99.08789752834963" r="2.5" fill="#EE6677" /><circle cx="322.187483" cy="83.46054717280418" r="2.5" fill="#EE6677" /><circle cx="324.5624825" cy="459.4204144490623" r="2.5" fill="#EE6677" /><circle cx="326.937482" cy="466.8516746399793" r="2.5" fill="#EE6677" /><circle cx="329.3124815" cy="458.96653913652494" r="2.5" fill="#EE6677" /><circle cx="331.687481" cy="453.78813746127247" r="2.5" fill="#EE6677" /><circle cx="334.0624805" cy="437.1324706863716" r="2.5" fill="#EE6677" /><circle cx="336.43748" cy="464.3749286634855" r="2.5" fill="#EE6677" /><circle cx="338.8124795" cy="455.5455176914548" r="2.5" fill="#EE6677" /><circle cx="341.187479" cy="475.4574320076385" r="2.5" fill="#EE6677" /><circle cx="343.5624785" cy="475.6384108080287" r="2.5" fill="#EE6677" /><circle cx="345.937478" cy="471.68458305399224" r="2.5" fill="#EE6677" /><circle cx="348.3124775" cy="454.6200203891304" r="2.5" fill="#EE6677" /><circle cx="350.687477" cy="474.26476997131016" r="2.5" fill="#EE6677" /><circle cx="353.0624765" cy="474.33136988662875" r="2.5" fill="#EE6677" /><circle cx="355.437476" cy="472.41778921852506" r="2.5" fill="#EE6677" /><circle cx="357.8124755" cy="441.88262125833324" r="2.5" fill="#EE6677" /><circle cx="360.187475" cy="454.63235979803085" r="2.5" fill="#EE6677" /><circle cx="362.5624745" cy="439.3100495424701" r="2.5" fill="#EE6677" /><circle cx="364.937474" cy="467.47354980183127" r="2.5" fill="#EE6677" /><circle cx="367.31247349999995" cy="451.9876965508241" r="2.5" fill="#EE6677" /><circle cx="369.687473" cy="474.4701692924791" r="2.5" fill="#EE6677" /><circle cx="372.0624725" cy="474.75483494434246" r="2.5" fill="#EE6677" /><circle cx="374.437472" cy="473.0128479784279" r="2.5" fill="#EE6677" /><circle cx="376.8124715" cy="437.4086873417552" r="2.5" fill="#EE6677" /><circle cx="379.187471" cy="448.34602700563806" r="2.5" fill="#EE6677" /><circle cx="381.5624705" cy="475.17232694547187" r="2.5" fill="#EE6677" /><circle cx="383.93747" cy="442.1424794787844" r="2.5" fill="#EE6677" /><circle cx="386.3124695" cy="450.2074749408971" r="2.5" fill="#EE6677" /><circle cx="388.499999" cy="472.2714706234158" r="2.5" fill="#228833" /><circle cx="390.4999985" cy="456.26696586148" r="2.5" fill="#228833" /><circle cx="392.499998" cy="463.36311211761875" r="2.5" fill="#228833" /><circle cx="394.4999975" cy="463.68312233504435" r="2.5" fill="#228833" /><circle cx="396.499997" cy="476.27333692586865" r="2.5" fill="#228833" /><circle cx="398.4999965" cy="442.6719590044341" r="2.5" fill="#228833" /><circle cx="400.499996" cy="472.326363781466" r="2.5" fill="#228833" /><circle cx="402.4999955" cy="453.799987881504" r="2.5" fill="#228833" /><circle cx="404.499995" cy="465.1483809042523" r="2.5" fill="#228833" /><circle cx="406.49999449999996" cy="469.4022379012142" r="2.5" fill="#228833" /><circle cx="408.49999399999996" cy="471.72971907722376" r="2.5" fill="#228833" /><circle cx="410.49999349999996" cy="475.7367201479186" r="2.5" fill="#228833" /><circle cx="412.49999299999996" cy="473.6100662469102" r="2.5" fill="#228833" /><circle cx="414.49999249999996" cy="475.7706341939335" r="2.5" fill="#228833" /><circle cx="416.499992" cy="458.85154248089077" r="2.5" fill="#228833" /><circle cx="418.4999915" cy="467.94399524718057" r="2.5" fill="#228833" /><circle cx="420.499991" cy="471.4010502885788" r="2.5" fill="#228833" /><circle cx="422.4999905" cy="469.02513309697633" r="2.5" fill="#228833" /><circle cx="424.49999" cy="440.47782686419094" r="2.5" fill="#228833" /><circle cx="426.4999895" cy="473.8881413839351" r="2.5" fill="#228833" /><circle cx="428.499989" cy="439.09224178525335" r="2.5" fill="#228833" /><circle cx="430.49998850000003" cy="475.3971053130807" r="2.5" fill="#228833" /><circle cx="432.49998800000003" cy="443.3412020546541" r="2.5" fill="#228833" /><circle cx="434.4999875" cy="474.2094386184954" r="2.5" fill="#228833" /><circle cx="436.499987" cy="459.1556160567701" r="2.5" fill="#228833" /><circle cx="438.4999865" cy="455.6614909116256" r="2.5" fill="#228833" /><circle cx="440.499986" cy="462.1632756458097" r="2.5" fill="#228833" /><circle cx="442.4999855" cy="455.60688620599916" r="2.5" fill="#228833" /><circle cx="444.499985" cy="435.46477477312817" r="2.5" fill="#228833" /><circle cx="446.4999845" cy="461.86537141041265" r="2.5" fill="#228833" /><circle cx="448.499984" cy="475.54692820357695" r="2.5" fill="#228833" /><circle cx="450.4999835" cy="464.89418728902683" r="2.5" fill="#228833" /><circle cx="452.49998300000004" cy="460.4250116062414" r="2.5" fill="#228833" /><circle cx="454.49998250000004" cy="447.1265469377881" r="2.5" fill="#228833" /><circle cx="456.49998200000005" cy="470.60151766565" r="2.5" fill="#228833" /><circle cx="458.49998150000005" cy="464.99783334254107" r="2.5" fill="#228833" /><circle cx="460.499981" cy="445.03505449690664" r="2.5" fill="#228833" /><circle cx="462.4999805" cy="454.23542227437844" r="2.5" fill="#228833" /><circle cx="464.49998" cy="466.3989531705808" r="2.5" fill="#228833" /><circle cx="466.4999795" cy="467.93686705216294" r="2.5" fill="#228833" /><circle cx="468.499979" cy="463.94206098682275" r="2.5" fill="#228833" /><circle cx="470.4999785" cy="468.97844558829684" r="2.5" fill="#228833" /><circle cx="472.499978" cy="451.1681612005231" r="2.5" fill="#228833" /><circle cx="474.4999775" cy="475.2303910716524" r="2.5" fill="#228833" /><circle cx="476.499977" cy="473.6735477148371" r="2.5" fill="#228833" /><circle cx="478.4999765" cy="472.8703773445384" r="2.5" fill="#228833" /><circle cx="480.499976" cy="450.9274845053182" r="2.5" fill="#228833" /><circle cx="482.4999755" cy="453.1345449969985" r="2.5" fill="#228833" /><circle cx="484.499975" cy="475.3041289341995" r="2.5" fill="#228833" /><circle cx="486.4999745" cy="465.4043749892885" r="2.5" fill="#228833" /><circle cx="488.49997399999995" cy="440.24420217374296" r="2.5" fill="#228833" /><circle cx="490.49997349999995" cy="433.82081867421863" r="2.5" fill="#228833" /><circle cx="492.49997299999995" cy="443.6618137947334" r="2.5" fill="#228833" /><circle cx="494.49997249999996" cy="475.7486328812752" r="2.5" fill="#228833" /><circle cx="496.499972" cy="452.3382021370694" r="2.5" fill="#228833" /><circle cx="498.4999715" cy="474.8931491236687" r="2.5" fill="#228833" /><circle cx="500.499971" cy="442.7356876319227" r="2.5" fill="#228833" /><circle cx="502.4999705" cy="440.7011555121398" r="2.5" fill="#228833" /><circle cx="504.49997" cy="464.9856477644282" r="2.5" fill="#228833" /><circle cx="506.4999695" cy="462.45003882468785" r="2.5" fill="#228833" /><circle cx="508.1874995" cy="444.41658793948864" r="2.5" fill="#CCBB44" /><circle cx="509.5624985" cy="465.16333537646483" r="2.5" fill="#CCBB44" /><circle cx="510.9374975" cy="440.5858368310462" r="2.5" fill="#CCBB44" /><circle cx="512.3124965" cy="435.890802472066" r="2.5" fill="#CCBB44" /><circle cx="513.6874955000001" cy="444.5456409822059" r="2.5" fill="#CCBB44" /><circle cx="515.0624945" cy="437.00794050466675" r="2.5" fill="#CCBB44" /><circle cx="516.4374935000001" cy="472.2584658232094" r="2.5" fill="#CCBB44" /><circle cx="517.8124925" cy="455.2484643594216" r="2.5" fill="#CCBB44" /><circle cx="519.1874915000001" cy="470.38350781021984" r="2.5" fill="#CCBB44" /><circle cx="520.5624905" cy="471.8838205847537" r="2.5" fill="#CCBB44" /><circle cx="521.9374895000001" cy="464.1758020833496" r="2.5" fill="#CCBB44" /><circle cx="523.3124885" cy="468.4765418075572" r="2.5" fill="#CCBB44" /><circle cx="524.6874875000001" cy="440.5265609323418" r="2.5" fill="#CCBB44" /><circle cx="526.0624865" cy="459.054555351654" r="2.5" fill="#CCBB44" /><circle cx="527.4374855000001" cy="470.1025537196759" r="2.5" fill="#CCBB44" /><circle cx="528.8124845" cy="468.8620857927565" r="2.5" fill="#CCBB44" /><circle cx="530.1874835" cy="464.35401960322594" r="2.5" fill="#CCBB44" /><circle cx="531.5624825" cy="473.7106005012057" r="2.5" fill="#CCBB44" /><circle cx="532.9374815" cy="447.83953158320804" r="2.5" fill="#CCBB44" /><circle cx="534.3124805" cy="454.9421958513115" r="2.5" fill="#CCBB44" /><circle cx="535.6874795" cy="464.224383145376" r="2.5" fill="#CCBB44" /><circle cx="537.0624785" cy="462.9537978301022" r="2.5" fill="#CCBB44" /><circle cx="538.4374775" cy="458.43800232133674" r="2.5" fill="#CCBB44" /><circle cx="539.8124765" cy="455.65795597881555" r="2.5" fill="#CCBB44" /><circle cx="541.1874755" cy="464.1238868964833" r="2.5" fill="#CCBB44" /><circle cx="542.5624745" cy="457.10557574091723" r="2.5" fill="#CCBB44" /><circle cx="543.9374735" cy="457.3939854969942" r="2.5" fill="#CCBB44" /><circle cx="545.3124725" cy="460.1052040538962" r="2.5" fill="#CCBB44" /><circle cx="546.6874715" cy="457.36005557728987" r="2.5" fill="#CCBB44" /><circle cx="548.0624705" cy="461.12915815113297" r="2.5" fill="#CCBB44" /><circle cx="549.4374695" cy="467.43836677332814" r="2.5" fill="#CCBB44" /><circle cx="550.8124685" cy="475.14857034515046" r="2.5" fill="#CCBB44" /><circle cx="552.1874674999999" cy="460.18876964629385" r="2.5" fill="#CCBB44" /><circle cx="553.5624665" cy="461.4950087320632" r="2.5" fill="#CCBB44" /><circle cx="554.9374654999999" cy="434.9511910978548" r="2.5" fill="#CCBB44" /><circle cx="556.3124645" cy="464.3610935363987" r="2.5" fill="#CCBB44" /><circle cx="557.6874634999999" cy="436.22991069411177" r="2.5" fill="#CCBB44" /><circle cx="559.0624625" cy="452.2192503852198" r="2.5" fill="#CCBB44" /><circle cx="560.4374614999999" cy="439.3622960369627" r="2.5" fill="#CCBB44" /><circle cx="561.8124605" cy="464.24839316646046" r="2.5" fill="#CCBB44" /><circle cx="563.1874594999999" cy="459.82093769796353" r="2.5" fill="#CCBB44" /><circle cx="564.5624585" cy="473.16304727207864" r="2.5" fill="#CCBB44" /><circle cx="565.9374574999999" cy="462.7928296550894" r="2.5" fill="#CCBB44" /><circle cx="567.3124565" cy="435.9187971695842" r="2.5" fill="#CCBB44" /><circle cx="568.6874554999999" cy="447.89289978820096" r="2.5" fill="#CCBB44" /><circle cx="570.0624545000001" cy="464.17654167450024" r="2.5" fill="#CCBB44" /><circle cx="571.4374535" cy="464.8825833644474" r="2.5" fill="#CCBB44" /><circle cx="572.8124525" cy="435.32450360120026" r="2.5" fill="#CCBB44" /><circle cx="574.1874515" cy="470.98677945418694" r="2.5" fill="#CCBB44" /><circle cx="575.5624505" cy="463.08762448564113" r="2.5" fill="#CCBB44" /><circle cx="576.9374495" cy="473.0755419214661" r="2.5" fill="#CCBB44" /><circle cx="578.3124485" cy="469.4750489771637" r="2.5" fill="#CCBB44" /><circle cx="579.6874475" cy="467.9696445102745" r="2.5" fill="#CCBB44" /><circle cx="581.0624465" cy="473.83807800201413" r="2.5" fill="#CCBB44" /><circle cx="582.4374455" cy="474.98796452881805" r="2.5" fill="#CCBB44" /><circle cx="583.8124445" cy="470.06903105562145" r="2.5" fill="#CCBB44" /><circle cx="585.1874435" cy="475.98147421228293" r="2.5" fill="#CCBB44" /><circle cx="586.5624425" cy="442.0483810015018" r="2.5" fill="#CCBB44" /><circle cx="587.9374415" cy="469.15114606989545" r="2.5" fill="#CCBB44" /><circle cx="589.3124405" cy="439.3826399333133" r="2.5" fill="#CCBB44" /><text x="155" y="507" font-size="10" text-anchor="middle">1</text><text x="316.25" y="507" font-size="10" text-anchor="middle">2</text><text x="447.5" y="507" font-size="10" text-anchor="middle">3</text><text x="548.75" y="507" font-size="10" text-anchor="middle">X</text><text x="305.5624865" y="85.48522133708559" font-size="12" text-anchor="middle">2</text><text x="310.3124855" y="71.48522133708559" font-size="12" text-anchor="middle">2</text><text x="312.68748500000004" y="57.48522133708559" font-size="12" text-anchor="middle">2</text><text x="315.0624845" y="84.11844234152682" font-size="12" text-anchor="middle">2</text><text x="317.43748400000004" y="70.11844234152682" font-size="12" text-anchor="middle">2</text><text x="322.187483" y="56.118442341526816" font-size="12" text-anchor="middle">2</text><rect x="670" y="32" width="119" height="56" fill="white" /><rect x="670" y="32" width="119" height="56" fill="none" stroke="black" stroke-width="1" /><text x="700" y="47" font-size="12" text-anchor="start">Genome-wide</text><line x1="680" y1="44" x2="692" y2="44" stroke="#cc3333" stroke-width="2" stroke-dasharray="4 4" /><text x="700" y="65" font-size="12" text-anchor="start">Suggestive</text><line x1="680" y1="62" x2="692" y2="62" stroke="#888888" stroke-width="2" stroke-dasharray="4 4" /></svg>