<svg xmlns="http://www.w3.org/2000/svg" width="679" height="517" fill="black"><rect width="100%" height="100%" fill="white" /><line x1="65" y1="492" x2="665" y2="492" stroke="black" stroke-width="1" /><line x1="65" y1="42" x2="65" y2="492" stroke="black" stroke-width="1" /><line x1="60" y1="492" x2="65" y2="492" stroke="black" stroke-width="1" /><text x="57" y="495.5" font-size="10" text-anchor="end">0</text><line x1="60" y1="402" x2="65" y2="402" stroke="black" stroke-width="1" /><text x="57" y="405.5" font-size="10" text-anchor="end">2</text><line x1="60" y1="312" x2="65" y2="312" stroke="black" stroke-width="1" /><text x="57" y="315.5" font-size="10" text-anchor="end">4</text><line x1="60" y1="222" x2="65" y2="222" stroke="black" stroke-width="1" /><text x="57" y="225.5" font-size="10" text-anchor="end">6</text><line x1="60" y1="132" x2="65" y2="132" stroke="black" stroke-width="1" /><text x="57" y="135.5" font-size="10" text-anchor="end">8</text><line x1="60" y1="42" x2="65" y2="42" stroke="black" stroke-width="1" /><text x="57" y="45.5" font-size="10" text-anchor="end">10</text><text x="14" y="258.5" font-size="14" text-anchor="middle" transform="rotate(-90,14,258.5)">−log₁₀(p-value)</text><text x="339.5" y="21" font-size="16" text-anchor="middle">Manhattan — Gene-name Labels</text><line x1="65" y1="163.45365019512087" x2="665" y2="163.45365019512087" stroke="#cc3333" stroke-width="1" stroke-dasharray="4 4" /><line x1="65" y1="267" x2="665" y2="267" stroke="#888888" stroke-width="1" stroke-dasharray="4 4" /><line x1="305" y1="42" x2="305" y2="492" stroke="#ccc" stroke-width="0.5" /><line x1="504.99999999999994" y1="42" x2="504.99999999999994" y2="492" stroke="#ccc" stroke-width="0.5" /><circle cx="85" cy="475.0462180679055" r="2.5" fill="steelblue" /><circle cx="105" cy="458.48726272964876" r="2.5" fill="steelblue" /><circle cx="125" cy="482.3398425754845" r="2.5" fill="steelblue" /><circle cx="145" cy="55.546349804879185" r="2.5" fill="steelblue" /><circle cx="165" cy="153.47045646238485" r="2.5" fill="steelblue" /><circle cx="185" cy="444.94091292476963" r="2.5" fill="steelblue" /><circle cx="205" cy="480.316321027241" r="2.5" fill="steelblue" /><circle cx="225" cy="470.33312729450495" r="2.5" fill="steelblue" /><circle cx="305" cy="485.3066256923584" r="2.5" fill="#5aadcb" /><circle cx="325" cy="464.9073003902417" r="2.5" fill="#5aadcb" /><circle cx="345" cy="118.45365019512087" r="2.5" fill="#5aadcb" /><circle cx="365" cy="159.0926996097583" r="2.5" fill="#5aadcb" /><circle cx="385" cy="452.12745085380766" r="2.5" fill="#5aadcb" /><circle cx="405" cy="477.6558556819014" r="2.5" fill="#5aadcb" /><circle cx="504.99999999999994" cy="482.65762602742143" r="2.5" fill="steelblue" /><circle cx="525" cy="473.09026184775644" r="2.5" fill="steelblue" /><circle cx="545" cy="153.47045646238485" r="2.5" fill="steelblue" /><circle cx="565" cy="87" r="2.5" fill="steelblue" /><circle cx="585" cy="440.0294118006416" r="2.5" fill="steelblue" /><circle cx="605" cy="478.84065792440714" r="2.5" fill="steelblue" /><text x="155" y="507" font-size="10" text-anchor="middle">1</text><text x="355" y="507" font-size="10" text-anchor="middle">2</text><text x="555" y="507" font-size="10" text-anchor="middle">3</text><line x1="155" y1="41.546349804879185" x2="148.19681006545503" y2="51.07081571324214" stroke="#666666" stroke-width="0.8" /><text x="155" y="41.546349804879185" font-size="12" text-anchor="start">BRCA2</text><line x1="575" y1="73" x2="568.196810065455" y2="82.52446590836296" stroke="#666666" stroke-width="0.8" /><text x="575" y="73" font-size="12" text-anchor="start">EGFR</text><line x1="355" y1="104.45365019512087" x2="348.19681006545505" y2="113.97811610348383" stroke="#666666" stroke-width="0.8" /><text x="355" y="104.45365019512087" font-size="12" text-anchor="start">TP53</text><line x1="175" y1="139.47045646238485" x2="168.19681006545503" y2="148.99492237074782" stroke="#666666" stroke-width="0.8" /><text x="175" y="139.47045646238485" font-size="12" text-anchor="start">1</text><line x1="555" y1="139.47045646238485" x2="548.196810065455" y2="148.99492237074782" stroke="#666666" stroke-width="0.8" /><text x="555" y="139.47045646238485" font-size="12" text-anchor="start">3</text></svg>